<svg width="535" height="582" viewBox="0 0 535 582" fill="none" xmlns="http://www.w3.org/2000/svg">
<path d="M474.672 546.216C474.672 564.008 385.128 578.432 274.672 578.432C164.215 578.432 74.6719 564.008 74.6719 546.216C74.6719 528.424 164.215 514 274.672 514C385.128 514 474.672 528.424 474.672 546.216" fill="#F0E3E0"/>
<path d="M125.312 529.938C125.312 531.877 120.294 533.448 114.105 533.448C107.915 533.448 102.897 531.877 102.897 529.938C102.897 527.999 107.915 526.428 114.105 526.428C120.294 526.428 125.312 527.999 125.312 529.938Z" fill="#EACBC5"/>
<path d="M424.885 568.806C424.885 570.743 419.868 572.317 413.68 572.317C407.489 572.317 402.472 570.743 402.472 568.806C402.472 566.867 407.489 565.296 413.68 565.296C419.868 565.296 424.885 566.867 424.885 568.806Z" fill="#EACBC5"/>
<path d="M140.75 540.061C140.75 541.578 136.822 542.809 131.976 542.809C127.13 542.809 123.202 541.578 123.202 540.061C123.202 538.542 127.13 537.312 131.976 537.312C136.822 537.312 140.75 538.542 140.75 540.061Z" fill="#EACBC5"/>
<path d="M434.244 525.501C434.244 526.852 430.743 527.949 426.424 527.949C422.104 527.949 418.604 526.852 418.604 525.501C418.604 524.146 422.104 523.049 426.424 523.049C430.743 523.049 434.244 524.146 434.244 525.501Z" fill="#EACBC5"/>
<path d="M275.291 572.317C275.291 573.834 271.363 575.065 266.518 575.065C261.672 575.065 257.744 573.834 257.744 572.317C257.744 570.797 261.672 569.568 266.518 569.568C271.363 569.568 275.291 570.797 275.291 572.317Z" fill="#EACBC5"/>
<path d="M241.487 575.603C241.848 577.481 237.281 579.939 231.285 581.093C225.289 582.246 220.136 581.661 219.774 579.783C219.413 577.906 223.98 575.447 229.976 574.291C235.972 573.138 241.125 573.725 241.487 575.603" fill="#EACBC5"/>
<path d="M40.5295 412.19L38.8438 412.991C40.8238 417.18 42.9486 421.361 45.162 425.438L46.8058 424.548C44.6111 420.505 42.4957 416.346 40.5295 412.19ZM496.149 412.056C494.178 416.226 492.061 420.396 489.862 424.45L491.507 425.341C493.722 421.256 495.853 417.056 497.839 412.852L496.149 412.056ZM30.0739 386.522L28.3086 387.128C29.817 391.518 31.4701 395.921 33.2212 400.218L34.9492 399.511C33.2119 395.247 31.573 390.879 30.0739 386.522ZM506.618 386.305C505.118 390.669 503.48 395.049 501.737 399.332L503.472 400.031C505.222 395.722 506.876 391.309 508.383 386.914L506.618 386.305ZM22.5181 359.828L20.6921 360.236C21.7102 364.765 22.8637 369.321 24.1289 373.786L25.9223 373.278C24.6709 368.846 23.5219 364.32 22.5181 359.828V359.828ZM514.15 359.604C513.148 364.099 512.003 368.625 510.75 373.061L512.549 373.566C513.81 369.104 514.962 364.541 515.972 360.011L514.15 359.604ZM17.9603 332.462L16.1015 332.667C16.6105 337.283 17.2549 341.939 18.0164 346.513L19.8611 346.207C19.1044 341.666 18.4645 337.043 17.9603 332.462ZM518.68 332.233C518.182 336.815 517.546 341.442 516.795 345.982L518.635 346.285C519.394 341.715 520.033 337.054 520.538 332.439L518.68 332.233ZM16.4284 304.755H14.5605C14.565 309.407 14.6959 314.109 14.9529 318.732L16.8162 318.631C16.5641 314.041 16.4332 309.37 16.4284 304.755ZM520.191 304.089V304.534C520.191 309.146 520.063 313.809 519.809 318.402L521.679 318.503C521.926 313.881 522.057 309.179 522.057 304.534V304.085L520.191 304.089ZM16.0547 276.849C15.555 281.457 15.1724 286.147 14.9248 290.785L16.7927 290.882C17.0403 286.278 17.4139 281.626 17.9087 277.051L16.0547 276.849ZM520.49 276.176L518.635 276.382C519.14 280.952 519.532 285.605 519.787 290.209L521.649 290.108C521.395 285.467 521.002 280.78 520.49 276.176ZM20.5941 249.273C19.5903 253.799 18.6979 258.418 17.9416 263L19.7859 263.303C20.5332 258.758 21.4207 254.173 22.4197 249.674L20.5941 249.273ZM515.874 248.611L514.053 249.023C515.063 253.515 515.957 258.096 516.72 262.641L518.564 262.33C517.793 257.748 516.892 253.137 515.874 248.611V248.611ZM28.1593 222.363C26.6603 226.754 25.2592 231.25 24.0029 235.712L25.8008 236.216C27.0478 231.784 28.4346 227.326 29.9292 222.969L28.1593 222.363ZM508.233 221.727L506.468 222.333C507.971 226.69 509.374 231.141 510.631 235.573L512.426 235.064C511.162 230.599 509.752 226.111 508.233 221.727ZM38.6804 196.414C36.7003 200.618 34.8089 204.934 33.0627 209.239L34.7906 209.946C36.5275 205.667 38.4002 201.385 40.3709 197.211L38.6804 196.414ZM497.675 195.868L495.988 196.672C497.959 200.823 499.844 205.087 501.58 209.347L503.311 208.637C501.561 204.35 499.665 200.053 497.675 195.868ZM52.0035 171.8C49.566 175.761 47.2124 179.838 45.0034 183.918L46.6472 184.812C48.8375 180.758 51.1769 176.707 53.5912 172.776L52.0035 171.8ZM484.334 171.347L482.744 172.327C485.164 176.247 487.505 180.283 489.705 184.322L491.347 183.428C489.129 179.355 486.772 175.293 484.334 171.347V171.347ZM67.9417 148.817C65.0884 152.482 62.3005 156.275 59.6573 160.09L61.1938 161.152C63.8182 157.367 66.5874 153.604 69.4172 149.965L67.9417 148.817ZM468.371 148.428L466.901 149.576C469.736 153.211 472.504 156.963 475.141 160.737L476.67 159.674C474.018 155.867 471.228 152.086 468.371 148.428ZM86.2987 127.726C83.0628 131.055 79.8777 134.518 76.8332 138.019L78.2432 139.242C81.2649 135.767 84.4264 132.33 87.6392 129.024L86.2987 127.726ZM449.981 127.386L448.645 128.687C451.858 131.986 455.03 135.412 458.063 138.883L459.466 137.656C456.414 134.163 453.223 130.707 449.981 127.386V127.386ZM106.841 108.775C103.264 111.73 99.7247 114.823 96.3111 117.968L97.5812 119.341C100.967 116.221 104.483 113.147 108.032 110.215L106.841 108.775ZM429.399 108.468L428.213 109.912C431.77 112.84 435.297 115.904 438.685 119.023L439.953 117.643C436.535 114.505 432.985 111.415 429.399 108.468V108.468ZM129.327 92.1948C125.451 94.7381 121.589 97.4235 117.858 100.176L118.969 101.68C122.672 98.9457 126.502 96.2865 130.35 93.7582L129.327 92.1948ZM406.857 91.9142L405.832 93.4777C409.695 95.9948 413.533 98.6578 417.251 101.388L418.358 99.8807C414.614 97.1355 410.746 94.4501 406.857 91.9142ZM153.48 78.1916C149.351 80.2899 145.223 82.5302 141.212 84.8603L142.15 86.4761C146.129 84.1684 150.229 81.9393 154.324 79.856L153.48 78.1916ZM382.621 77.9261L381.775 79.5942C385.889 81.6775 390.004 83.8991 394.002 86.2068L394.929 84.5873C390.909 82.2647 386.761 80.0243 382.621 77.9261V77.9261ZM179.014 66.9451C174.681 68.5683 170.333 70.3449 166.093 72.2112L166.845 73.9204C171.057 72.0653 175.372 70.3074 179.673 68.6917L179.014 66.9451ZM356.967 66.7057L356.316 68.4561C360.64 70.0681 364.978 71.826 369.205 73.6736L369.949 71.9643C365.693 70.0942 361.324 68.3326 356.967 66.7057V66.7057ZM205.684 58.5709C201.182 59.7153 196.657 60.9982 192.23 62.3858L192.79 64.1699C197.185 62.786 201.677 61.5181 206.141 60.3811L205.684 58.5709ZM330.247 58.3988L329.795 60.2091C334.264 61.3311 338.76 62.5915 343.155 63.9604L343.712 62.1764C339.28 60.8 334.754 59.5284 330.247 58.3988V58.3988ZM233.11 53.2038C228.51 53.8433 223.872 54.6213 219.324 55.5077L219.679 57.3441C224.195 56.4615 228.799 55.691 233.366 55.0551L233.11 53.2038ZM302.802 53.1103L302.552 54.9616C307.122 55.5825 311.726 56.338 316.248 57.2057L316.596 55.373C312.048 54.4978 307.406 53.7311 302.802 53.1103ZM260.965 50.8886C256.319 51.0195 251.621 51.2814 247.007 51.6628L247.161 53.5292C251.742 53.144 256.408 52.8858 261.017 52.7587L260.965 50.8886ZM274.946 50.8699L274.901 52.7362C279.509 52.8559 284.169 53.1028 288.754 53.4731L288.904 51.6067C284.288 51.2402 279.587 50.9858 274.946 50.8699" fill="#EACBC5"/>
<path d="M375.637 56.4275C375.637 87.5904 350.372 112.848 319.217 112.848C288.054 112.848 262.791 87.5904 262.791 56.4275C262.791 53.7047 262.982 51.023 263.362 48.4049C267.255 21.0383 290.777 -1.88578e-05 319.217 -1.88578e-05C326.585 -1.88578e-05 333.624 1.41748 340.076 3.98696C360.908 12.2789 375.637 32.6365 375.637 56.4275Z" fill="#F0E3E0"/>
<path d="M375.637 56.4275C375.637 87.5904 350.372 112.848 319.217 112.848C288.054 112.848 262.791 87.5904 262.791 56.4275C262.791 53.7047 262.982 51.023 263.362 48.4049C268.31 43.8607 278.206 42.3496 297.188 56.4275C331.081 81.5763 329.981 70.6363 336.276 53.6897C342.567 36.7431 341.478 31.2751 353.772 31.2751C362.348 31.2751 353.226 16.9353 340.076 3.98696C360.908 12.2789 375.637 32.6365 375.637 56.4275" fill="#EACBC5"/>
<path d="M442.272 118.372C439.201 135.382 430.09 136.179 425.303 168.194C420.515 200.206 417.385 194.772 385.283 220.934C353.182 247.093 359.869 231.391 354.476 255.444C349.086 279.49 341.516 320.025 338.677 326.451C338.677 326.451 313.491 345.305 283.884 353.735C283.349 353.892 282.807 354.042 282.265 354.188C251.962 362.379 266.223 345.604 261.269 338.502C256.319 331.399 256.604 308.3 273.61 288.604C290.613 268.912 288.163 256.854 300.472 248.417C312.781 239.971 314.314 222.202 311.726 204.373C309.145 186.543 328.893 181.315 342.848 178.513C356.806 175.704 366.407 148.401 368.284 140.528C370.162 132.655 380.664 123.586 399.78 117.291C418.9 110.996 426.81 102.353 433.404 95.785C440.002 89.2248 445.35 101.365 442.272 118.372" fill="#B79868"/>
<path d="M442.272 118.372C439.201 135.382 430.09 136.179 425.303 168.194C420.515 200.206 417.385 194.772 385.283 220.934C353.182 247.093 359.869 231.392 354.476 255.445C349.086 279.49 341.516 320.026 338.677 326.451C338.677 326.451 313.491 345.305 283.884 353.735C282.283 333.412 285.829 306.572 286.405 299.488C287.654 284.232 342.567 210.6 350.825 201.96C359.087 193.321 392.591 163.037 407.672 147.579C422.756 132.121 431.134 107.268 433.404 95.7853C440.002 89.2251 445.35 101.366 442.272 118.372" fill="url(#paint0_linear_2395_9138)"/>
<path d="M238.676 385.5C238.232 402.14 234.65 404.762 230.158 403.954C226.184 403.244 221.495 399.844 217.633 401.115C209.41 403.82 187.359 396.923 173.372 374.983C159.382 353.043 147.128 351.936 142.57 337.72C138.017 323.507 121.435 316.943 103.61 314.307C85.7895 311.674 86.4433 291.252 87.7602 277.077C89.0771 262.906 65.6672 245.873 58.6623 241.815C51.6622 237.765 45.9884 225.097 45.4371 204.975C44.8907 184.857 38.8806 174.799 34.4819 166.601C33.1507 164.117 33.4309 162.236 34.8929 161.036C38.2594 158.272 47.9168 159.128 58.6623 164.581C74.0776 172.402 72.2282 181.36 101.522 195.127C130.821 208.894 124.712 210.338 140.567 248.592C156.421 286.847 143.303 275.944 164.794 288.002C186.285 300.064 222.948 318.941 228.29 323.507C228.29 323.507 239.521 354.121 238.676 385.5" fill="#B79868"/>
<path d="M230.158 403.954C226.184 403.243 221.495 399.844 217.633 401.115C209.41 403.819 187.359 396.923 173.372 374.983C159.382 353.043 147.128 351.936 142.57 337.72C138.017 323.507 121.435 316.943 103.61 314.307C85.7895 311.674 86.4433 291.252 87.7602 277.077C89.0771 262.906 65.6672 245.873 58.6623 241.815C51.6622 237.765 45.9884 225.097 45.4371 204.975C44.8907 184.856 38.8806 174.799 34.4819 166.601C33.1507 164.117 33.4309 162.236 34.8929 161.036C39.5206 161.544 45.6754 163.979 53.8289 169.047C53.8289 169.047 104.744 226.331 111.306 250.993C117.866 275.66 116.213 285.601 136.173 299.488C156.136 313.383 178.005 325.692 188.937 339.216C199.874 352.744 224.928 367.028 222.243 377.93C220.65 384.374 230.532 396.885 230.158 403.954" fill="url(#paint1_linear_2395_9138)"/>
<path d="M257.638 338.973C257.563 339.642 257.47 340.177 257.372 340.555C256.274 344.729 228.466 340.555 228.466 340.555C226.752 335.712 201.423 320.448 191.648 298.808C181.879 277.167 187.403 285.422 172.633 275.712C157.867 266.007 151.502 261.234 153.864 241.475C156.223 221.719 148.648 214.09 149.157 198.228C149.475 188.335 153.211 178.222 157.241 175.682C159.678 174.141 162.219 175.368 164.171 181.098C169.345 196.298 170.382 203.598 181.347 207.739C192.307 211.883 211.972 232.648 215.245 245.503C218.519 258.354 232.029 277.889 245.38 295.318C257.531 311.18 258.404 332.166 257.638 338.973" fill="#796A38"/>
<path d="M176.323 388.507C174.764 384.405 165.713 357.446 155.73 354.644C145.746 351.847 150.284 352.651 143.4 344.194C136.515 335.738 139.987 336.138 127.528 333.479C115.068 330.816 103.451 332.51 99.8875 325.501C96.3239 318.488 84.9587 318.021 79.0485 316.846C73.1384 315.676 65.2908 322.079 66.9136 325.624C68.5361 329.17 73.0445 329.2 77.2166 339.441C81.3887 349.677 82.1469 355.119 86.7839 355.684C91.4213 356.245 97.7968 354.7 103.176 362.959C108.556 371.217 104.374 375.727 113.051 379.752C121.728 383.772 122.939 388.579 130.8 394.997C138.661 401.415 151.254 403.019 157.384 401.83C163.514 400.637 176.323 388.507 176.323 388.507" fill="#796A38"/>
<path d="M257.638 338.973C252.641 332.667 248.714 326.619 248.714 326.619C248.714 326.619 237.959 323.137 234.546 316.573C231.132 310.013 195.314 265.73 185.158 254.921C174.996 244.104 175.085 237.847 165.399 213.712C159.73 199.582 157.834 185.534 157.241 175.682C159.679 174.141 162.219 175.368 164.171 181.098C169.345 196.298 170.382 203.599 181.347 207.739C192.307 211.883 211.972 232.648 215.246 245.503C218.519 258.354 232.029 277.889 245.38 295.318C257.531 311.18 258.404 332.166 257.638 338.973" fill="url(#paint2_linear_2395_9138)"/>
<path d="M411.708 267.592C410.716 274.141 410.78 286.633 403.266 290.897C395.752 295.157 398.194 307.814 395.902 321.622C393.609 335.427 393.875 331.594 384.939 339.575C376.012 347.556 376.666 342.537 374.097 353.63C371.527 364.724 342.403 376.015 337.982 377.93C337.982 377.93 333.191 373.315 328.897 368.15C325.868 364.503 323.077 360.58 322.412 357.819C320.796 351.151 321.925 337.26 328.572 328.306C335.218 319.36 340.428 317.789 344.407 308.068C348.38 298.344 353.541 302.705 362.334 296.388C371.123 290.07 369.104 283.155 369.489 278.035C369.87 272.922 375.806 271.815 386.828 266.721C397.854 261.63 397.66 256.682 401.467 254.722C402.08 254.408 402.784 254.36 403.535 254.524C407.444 255.388 412.538 262.105 411.708 267.592" fill="#796A38"/>
<path d="M205.067 268.258C205.067 268.258 199.054 307.309 247.438 306.871C295.823 306.438 342.496 322.472 345.848 265.876C349.199 209.284 286.409 209.946 286.409 209.946C286.409 209.946 198.303 248.544 204.829 266.53C211.355 284.517 205.067 268.258 205.067 268.258Z" fill="#641A2A"/>
<path d="M401.613 268.55C396.145 284.95 377.556 308.839 360.06 330.479C348.638 344.609 336.347 359.768 328.897 368.15C325.868 364.503 323.077 360.58 322.412 357.82C320.796 351.151 321.925 337.26 328.572 328.306C335.218 319.36 340.428 317.789 344.407 308.068C348.379 298.344 353.541 302.705 362.334 296.388C371.123 290.071 369.104 283.155 369.489 278.035C369.87 272.922 375.806 271.815 386.828 266.721C397.854 261.63 397.66 256.682 401.467 254.722C402.08 254.408 402.784 254.36 403.535 254.524C403.737 258.706 403.304 263.486 401.613 268.55" fill="url(#paint3_linear_2395_9138)"/>
<path d="M498.311 320.411C494.017 327.745 488.149 342.672 477.16 344.183C466.172 345.687 463.064 361.945 453.762 377.321C444.464 392.693 446.603 388.246 432.155 393.516C417.711 398.786 420.878 393.112 412.538 405.121C404.201 417.123 364.099 416.734 357.913 416.914C357.913 416.914 354.394 409.134 351.734 400.936C349.853 395.143 348.394 389.14 348.911 385.53C350.156 376.812 358.111 360.782 370.293 353.268C382.475 345.758 389.435 346.367 398.804 336.665C408.169 326.96 412.246 334.616 425.737 331.265C439.224 327.91 440.107 318.702 442.998 312.781C445.885 306.864 453.489 308.368 469.055 307.533C484.625 306.711 486.75 300.715 492.222 300.192C493.101 300.106 493.965 300.386 494.784 300.936C499.032 303.827 501.912 314.262 498.311 320.411" fill="#796A38"/>
<path d="M485.815 316.749C471.494 333.707 437.971 353.35 406.812 370.831C386.469 382.25 364.604 394.48 351.734 400.936C349.853 395.142 348.394 389.139 348.911 385.53C350.156 376.812 358.111 360.782 370.293 353.268C382.475 345.758 389.435 346.367 398.804 336.665C408.169 326.96 412.246 334.616 425.737 331.264C439.224 327.91 440.107 318.701 442.998 312.781C445.885 306.864 453.489 308.367 469.055 307.533C484.625 306.71 486.75 300.715 492.222 300.191C493.101 300.105 493.965 300.386 494.784 300.936C493.033 306.022 490.243 311.513 485.815 316.749" fill="url(#paint4_linear_2395_9138)"/>
<path d="M80.4629 436.303C80.4629 436.303 97.0508 457.154 123.851 458.59C150.652 460.026 244.609 455.957 261.341 453.807C278.073 451.652 268.741 430.835 252.949 429.757C237.155 428.68 80.4629 436.303 80.4629 436.303" fill="#872745"/>
<path d="M472.051 441.554C466.165 451.256 453.77 455.426 444.296 460.318C429.934 467.735 359.346 460.558 343.08 461.758C335.076 462.346 325.344 462.357 313.335 462.046C311.364 461.994 309.277 461.822 307.089 461.568C295.532 460.206 281.214 456.5 266.172 455.879C230.995 454.443 219.012 438.543 219.012 438.543L298.139 421.058L320.819 416.054C378.249 379.673 409.834 388.773 427.304 390.501C444.775 392.237 469.658 395.472 474.685 421.312C476.39 430.102 475.088 436.565 472.051 441.554" fill="#FF585A"/>
<path d="M313.335 462.046C312.946 462.039 312.553 462.024 312.153 462.001C311.798 461.986 311.431 461.964 311.068 461.938C310.754 461.919 310.444 461.896 310.126 461.87C309.92 461.855 309.714 461.837 309.505 461.818C309.243 461.795 308.977 461.766 308.712 461.743C296.575 460.561 280.324 456.447 264.537 455.8C229.36 454.364 219.012 438.543 219.012 438.543L298.139 421.058C299.081 428.684 301.882 445.788 308.977 456.731C310.279 458.744 311.727 460.546 313.335 462.046Z" fill="url(#paint5_linear_2395_9138)"/>
<path d="M378.39 390.841C375.473 392.255 358.519 396.384 345.196 402.836C337.63 406.509 328.893 411.749 320.691 416.626C316.988 417.202 313.54 417.539 310.499 417.58C285.373 417.913 230.98 410.492 217.62 409.295C211.853 408.783 188.994 405.641 164.851 402.234C136.271 398.202 105.898 393.796 99.9957 392.936C99.3232 392.839 98.9679 392.79 98.9679 392.79C98.9166 392.603 99.1968 392.33 99.7574 392.008C101.009 391.275 103.652 390.239 107.066 389.091C115.696 386.2 129.182 382.602 137.252 381.446C149.753 379.651 188.975 390.602 190.11 390.916C190.124 390.92 190.133 390.924 190.133 390.924C190.133 390.924 193.724 383.503 196.596 382.284C199.468 381.057 201.859 367.66 207.365 362.633C212.866 357.61 276.52 368.636 281.064 366.474C285.612 364.313 335.562 368.378 335.562 368.378C335.562 368.378 340.409 374.706 340.884 377.052C341.367 379.385 345.196 382.284 345.196 382.284C345.196 382.284 364.264 386.731 375.432 390.393C376.498 390.744 377.493 390.509 378.39 390.841" fill="#C92E2C"/>
<path d="M207.365 362.633C212.387 351.865 224.951 331.047 224.234 324.947C223.749 320.833 223.013 307.324 222.584 298.953C222.375 294.906 222.24 292.06 222.24 292.06C222.24 292.06 321.502 285.463 322.583 295.512C322.789 297.468 322.718 299.761 322.497 302.289C321.57 312.739 318.106 327.105 321.865 337.51C326.529 350.429 332.988 364.791 335.562 368.378C338.139 371.965 202.337 373.405 207.365 362.633" fill="#FFAF97"/>
<path d="M238.229 67.8426C238.229 67.8426 228.102 88.3498 227.994 108.696C227.885 129.046 221.589 133.172 203.133 148.802C184.677 164.436 160.033 191.686 194.231 225.557C228.428 259.428 350.777 217.632 350.777 217.632C350.777 217.632 364.892 197.813 353.937 165.61C350.324 154.992 344.25 145.391 336.366 137.413C331.964 132.962 326.623 126.641 323.855 119.943C318.645 107.331 318.151 73.0788 311.449 67.8426H238.229" fill="#641A2A"/>
<path d="M369.518 218.215C363.313 224.065 356.57 229.349 349.378 233.995C345.78 236.321 342.069 238.483 338.258 240.476C337.368 240.944 336.47 241.396 335.565 241.845C335.524 241.864 335.483 241.886 335.442 241.905C335.195 242.028 334.952 242.148 334.701 242.272C330.606 244.265 326.398 246.064 322.093 247.657C311.063 251.742 299.383 254.476 287.246 255.665C286.64 255.725 286.031 255.777 285.421 255.83C281.464 256.17 277.466 256.338 273.419 256.338C266.747 256.338 260.185 255.871 253.763 254.969C242.848 253.436 232.336 250.649 222.381 246.756C221.402 246.371 220.426 245.978 219.458 245.574C219.236 245.481 219.013 245.387 218.79 245.294C217.779 244.863 216.774 244.426 215.775 243.973C209.356 241.075 203.195 237.705 197.334 233.912C191.811 230.337 186.557 226.383 181.607 222.086C185.98 200.838 199.721 189.135 213.46 185.021C229.935 180.088 253.327 171.777 258.655 162.943C260.309 160.205 260.936 155.336 261.014 149.916C261.029 148.865 261.025 147.792 261.003 146.711C260.766 135.416 258.655 123.144 258.655 123.144L275.925 128.07V127.3L293.197 122.374C293.197 122.374 292.363 127.214 291.686 133.613C291.143 138.733 290.698 144.848 290.863 150.283C291.009 155.238 291.656 159.629 293.197 162.176C298.523 171.007 321.914 179.317 338.389 184.251C351.446 188.163 364.503 198.923 369.518 218.215Z" fill="url(#paint6_linear_2395_9138)"/>
<path d="M245.89 107.077C245.483 104.41 244.192 101.934 242.135 100.187C240.024 98.3995 237.172 97.068 234.775 99.7721C230.351 104.769 238.086 124.221 243.347 120.178C246.82 117.508 246.505 111.116 245.89 107.077Z" fill="url(#paint7_linear_2395_9138)"/>
<path d="M304.253 106.295C304.661 103.628 305.951 101.149 308.008 99.4056C310.121 97.6178 312.971 96.2864 315.369 98.9905C319.793 103.984 312.059 123.436 306.796 119.393C303.326 116.726 303.64 110.331 304.253 106.295" fill="url(#paint8_linear_2395_9138)"/>
<path d="M219.459 245.574C219.236 245.48 219.013 245.387 218.791 245.293C217.78 244.863 216.775 244.426 215.775 243.973C216.051 237.245 216.74 228.381 218.208 217.033C218.208 217.033 218.461 231.253 219.36 244.213C219.392 244.669 219.425 245.121 219.459 245.574" fill="url(#paint9_linear_2395_9138)"/>
<path d="M290.863 150.283C277.923 172.357 265.161 156.342 261.014 149.916C261.029 148.865 261.025 147.792 261.003 146.707C266.066 143.58 283.712 133.082 291.686 133.613C291.14 138.733 290.699 144.848 290.863 150.283" fill="#FF6A36"/>
<path d="M220.449 192.73C220.449 192.73 246.105 193.343 259.103 197.726C272.312 202.181 222.837 193.971 220.449 192.73Z" fill="url(#paint10_linear_2395_9138)"/>
<path d="M328.287 192.58C328.287 192.58 302.634 193.19 289.637 197.577C276.427 202.031 325.901 193.822 328.287 192.58Z" fill="url(#paint11_linear_2395_9138)"/>
<path d="M270.334 198.471C270.334 198.471 276.662 206.542 279.348 198.13C279.348 198.13 276.842 201.957 270.334 198.471Z" fill="url(#paint12_linear_2395_9138)"/>
<path d="M243.937 82.5712C243.937 82.5712 233.006 140.068 271.415 154.438C275.779 156.073 280.638 155.706 284.692 153.402C295.067 147.511 312.657 130.322 306.609 82.5712C306.609 82.5712 279.568 61.2973 243.937 82.5712Z" fill="#FFAF97"/>
<path d="M242.135 100.187C242.135 100.187 268.815 90.3656 274.841 72.6299C274.841 72.6299 281.191 85.2716 292.913 91.0912C304.638 96.9109 308.008 99.4056 308.008 99.4056C308.008 99.4056 311.7 79.3397 307.844 77.0507C303.988 74.7617 262.789 66.4399 249.354 74.672C235.919 82.904 242.135 100.187 242.135 100.187" fill="#641A2A"/>
<path d="M313.005 89.8121C313.005 89.8121 316.311 103.217 328.848 107.918C337.952 111.337 342.395 118.91 343.562 125.744C343.562 125.744 344.415 114.901 330.273 107.424C314.628 99.1588 315.668 80.286 315.668 80.286L313.005 90.6799V89.8121Z" fill="#641A2A"/>
<path d="M231.058 110.892C231.058 110.892 227.754 124.296 215.217 128.998C206.112 132.416 201.667 139.99 200.502 146.823C200.502 146.823 199.647 135.98 213.792 128.504C229.437 120.238 228.398 101.365 228.398 101.365L231.058 111.759V110.892Z" fill="#641A2A"/>
<path d="M47.624 371.767C47.6513 371.082 48.2523 364.765 49.598 364.496C50.9445 364.226 53.5465 366.381 53.5465 369.522C53.5465 372.66 54.0851 376.969 54.0851 376.969L57.495 383.698C57.495 383.698 66.7376 387.827 67.9939 388.365C69.2499 388.904 74.7239 395.184 74.3649 395.812C74.0058 396.44 71.1341 397.428 67.0065 395.812C62.8789 394.2 56.0591 393.661 53.0083 391.058C49.9571 388.455 46.996 387.468 47.624 371.767Z" fill="url(#paint13_linear_2395_9138)"/>
<path d="M58.5243 360.602C59.0333 359.589 60.6778 356.533 63.9082 356.653C67.1386 356.772 70.0103 359.166 72.8816 361.679C75.7533 364.193 78.9836 366.822 84.8463 367.181C90.709 367.54 99.5626 371.609 101.477 371.37C103.391 371.131 102.793 373.883 98.3662 374.841C93.9393 375.795 88.9144 381.899 86.1624 382.377C83.4104 382.856 75.3942 385.369 73.8387 380.462C72.2835 375.555 66.8996 368.737 63.3102 366.224C59.7207 363.714 57.9505 361.743 58.5243 360.602" fill="url(#paint14_linear_2395_9138)"/>
<path d="M215.775 236.306C215.775 236.306 210.85 296.35 200.492 319.322C200.492 319.322 198.509 325.067 197.791 328.179C197.073 331.287 200.039 334.399 177.14 350.672C154.24 366.942 126.004 380.821 118.107 382.976C110.211 385.13 102.553 373.644 110.689 368.139C118.825 362.637 142.754 343.252 145.387 339.425C148.019 335.596 162.137 321.716 166.683 318.847C171.23 315.975 172.426 303.531 173.862 298.026C175.298 292.524 180.738 263.946 181.608 256.338C182.477 248.734 178.703 231.863 181.608 222.086C184.511 212.313 217.486 228.904 215.775 236.306" fill="#FFAF97"/>
<path d="M54.6356 366.044C54.7463 365.704 57.4441 358.867 58.4177 358.597C59.3916 358.328 61.8145 359.136 62.4428 360.482C63.0708 361.829 61.3956 365.891 61.1117 367.091C60.8274 368.288 62.5823 378.966 62.5823 378.966C62.5823 378.966 67.9165 384.891 68.6342 384.98C69.352 385.07 71.5953 381.928 72.7622 381.48C73.9288 381.031 82.8124 391.08 82.5431 391.619C82.2738 392.158 75.0056 398.796 72.8516 397.633C70.698 396.466 68.1858 396.511 63.7885 393.167C59.3916 389.824 55.264 388.118 54.6356 386.506C54.0076 384.891 53.8281 377.979 53.8281 376.363C53.8281 374.751 54.4258 366.695 54.6356 366.044Z" fill="url(#paint15_linear_2395_9138)"/>
<path d="M78.4152 387.849C78.1459 387.759 69.8903 385.878 69.3517 385.07C68.8135 384.262 65.9422 378.248 65.4934 377.53C65.0445 376.812 63.7882 368.737 62.263 367.75C60.7374 366.762 59.2387 366.224 58.4174 366.583C57.5968 366.942 57.7131 375.466 58.4174 376.722C59.122 377.979 61.5449 388.208 62.5319 389.644C63.5193 391.081 67.7367 393.863 68.9032 394.402C70.0698 394.94 73.3001 398.351 77.1589 398.082C81.0172 397.813 90.4394 394.043 91.4264 393.594C92.4138 393.145 120.006 383.57 121.061 381.985C122.116 380.403 121.308 373.674 118.705 372.148C116.103 370.622 110.325 368.397 110.157 368.528C109.99 368.658 104.162 371.03 101.025 371.363C97.8875 371.699 80.3668 381.659 80.3668 381.659L78.4152 387.849Z" fill="url(#paint16_linear_2395_9138)"/>
<path d="M71.8708 382.112C70.8838 380.227 67.0902 373.521 68.7302 372.511C70.3699 371.497 73.396 371.972 73.7551 373.319C74.1141 374.661 75.9087 378.611 75.9087 378.611C75.9087 378.611 80.1264 381.214 81.1134 382.112C82.1005 383.009 85.6001 382.65 87.7537 382.112C89.9073 381.573 92.6892 383.279 92.5994 385.343C92.5097 387.404 90.625 390.636 88.8305 390.546C87.036 390.456 79.8571 391.447 78.4213 390.55C76.9858 389.648 71.8708 382.112 71.8708 382.112" fill="url(#paint17_linear_2395_9138)"/>
<path d="M502.941 365.913C502.914 365.232 502.312 358.915 500.966 358.646C499.619 358.377 497.02 360.531 497.02 363.669C497.02 366.811 496.481 371.116 496.481 371.116L493.07 377.848C493.07 377.848 483.828 381.977 482.572 382.516C481.315 383.054 475.839 389.334 476.199 389.962C476.558 390.591 479.43 391.578 483.559 389.962C487.684 388.347 494.507 387.808 497.558 385.205C500.607 382.605 503.569 381.618 502.941 365.913" fill="url(#paint18_linear_2395_9138)"/>
<path d="M492.042 354.749C491.534 353.735 489.888 350.683 486.656 350.803C483.425 350.923 480.556 353.317 477.684 355.826C474.811 358.34 471.58 360.973 465.719 361.332C459.858 361.691 451.002 365.756 449.087 365.521C447.175 365.278 447.774 368.03 452.198 368.988C456.627 369.945 461.65 376.049 464.403 376.524C467.155 377.007 475.17 379.516 476.726 374.613C478.282 369.706 483.664 362.888 487.255 360.374C490.845 357.861 492.614 355.893 492.042 354.749Z" fill="url(#paint19_linear_2395_9138)"/>
<path d="M334.791 230.457C334.791 230.457 339.713 290.501 350.073 313.473C350.073 313.473 352.056 319.218 352.774 322.326C353.492 325.438 350.526 328.549 373.423 344.819C396.324 361.092 424.562 374.972 432.457 377.123C440.353 379.277 448.013 367.791 439.874 362.289C431.739 356.784 407.81 337.402 405.177 333.572C402.547 329.746 388.428 315.866 383.88 312.994C379.336 310.122 378.139 297.678 376.703 292.176C375.267 286.671 369.825 258.092 368.957 250.489C368.09 242.881 371.86 226.013 368.957 216.237C366.051 206.464 333.078 223.055 334.791 230.457Z" fill="#FFAF97"/>
<path d="M495.928 360.194C495.819 359.854 493.119 353.017 492.147 352.748C491.174 352.479 488.75 353.286 488.122 354.629C487.494 355.976 489.169 360.041 489.454 361.238C489.738 362.439 487.984 373.117 487.984 373.117C487.984 373.117 482.65 379.037 481.932 379.127C481.214 379.217 478.97 376.079 477.803 375.63C476.636 375.181 467.753 385.231 468.023 385.77C468.292 386.308 475.559 392.947 477.713 391.78C479.868 390.613 482.381 390.658 486.776 387.318C491.174 383.974 495.299 382.269 495.928 380.653C496.556 379.037 496.736 372.129 496.736 370.514C496.736 368.898 496.141 360.845 495.928 360.194" fill="url(#paint20_linear_2395_9138)"/>
<path d="M472.148 381.999C472.418 381.91 480.676 380.025 481.214 379.217C481.753 378.409 484.622 372.398 485.07 371.68C485.519 370.962 486.776 362.887 488.302 361.9C489.828 360.912 491.328 360.374 492.147 360.733C492.97 361.092 492.85 369.616 492.147 370.872C491.444 372.129 489.02 382.358 488.033 383.795C487.045 385.231 482.83 388.01 481.663 388.548C480.496 389.087 477.265 392.498 473.405 392.229C469.549 391.959 460.124 388.193 459.14 387.744C458.153 387.295 430.558 377.717 429.503 376.135C428.448 374.553 429.256 367.821 431.859 366.295C434.463 364.772 440.241 362.547 440.406 362.678C440.574 362.809 446.401 365.18 449.539 365.513C452.677 365.846 470.2 375.809 470.2 375.809L472.148 381.999" fill="url(#paint21_linear_2395_9138)"/>
<path d="M478.694 376.258C479.681 374.377 483.474 367.671 481.836 366.658C480.197 365.644 477.168 366.119 476.809 367.465C476.45 368.812 474.658 372.761 474.658 372.761C474.658 372.761 470.439 375.361 469.452 376.258C468.465 377.156 464.964 376.797 462.813 376.258C460.659 375.72 457.876 377.425 457.966 379.49C458.056 381.555 459.941 384.786 461.736 384.696C463.531 384.606 470.709 385.598 472.145 384.696C473.581 383.799 478.694 376.258 478.694 376.258" fill="url(#paint22_linear_2395_9138)"/>
<path d="M312.553 421.982C312.553 421.982 416.54 405.592 420.486 400.566C424.435 395.539 407.414 387.4 312.553 421.982Z" fill="#C92E2C"/>
<path d="M238.229 67.8424C238.229 67.8424 252.23 43.3632 277.174 52.6948C277.174 52.6948 295.112 44.762 311.449 67.8424C311.449 67.8424 300.865 72.4877 295.123 71.115C289.379 69.7424 271.706 70.1015 267.622 70.1015C263.538 70.1015 238.229 67.8424 238.229 67.8424Z" fill="#641A2A"/>
<path d="M332.035 241.845C331.994 241.864 331.953 241.886 331.912 241.905C331.953 241.946 331.994 241.987 332.035 242.032C331.743 242.171 331.452 242.309 331.156 242.447C331.16 242.387 331.164 242.328 331.171 242.271C331.194 241.924 331.22 241.58 331.242 241.232C332.102 228.463 332.346 214.752 332.346 214.752C333.729 225.43 334.421 233.909 334.724 240.476C333.834 240.944 332.937 241.396 332.035 241.845Z" fill="url(#paint23_linear_2395_9138)"/>
<path d="M220.449 237.249C220.285 234.376 217.726 190.257 215.775 184.318C215.775 184.318 215.461 182.822 218.112 183.592C218.112 183.592 223.156 209.01 224.114 237.249H220.449Z" fill="url(#paint24_linear_2395_9138)"/>
<path d="M329.137 234.574C329.29 231.743 331.684 188.204 333.509 182.343C333.509 182.343 333.801 180.866 331.321 181.629C331.321 181.629 326.605 206.714 325.707 234.574H329.137Z" fill="url(#paint25_linear_2395_9138)"/>
<path d="M268.31 349.206C270.39 349.206 272.076 349.864 272.076 350.672C272.076 351.484 270.39 352.138 268.31 352.138C266.227 352.138 264.54 351.484 264.54 350.672C264.54 349.864 266.227 349.206 268.31 349.206Z" fill="url(#paint26_linear_2395_9138)"/>
<path d="M322.497 302.29C319.767 302.896 316.689 303.46 313.334 303.958C297.502 306.299 287.527 302.331 264.536 303.767C247.056 304.867 229.832 300.91 222.584 298.953C222.375 294.907 222.24 292.06 222.24 292.06C222.24 292.06 321.502 285.463 322.583 295.513C322.789 297.469 322.718 299.761 322.497 302.29Z" fill="url(#paint27_linear_2395_9138)"/>
<path d="M328.29 282.594L323.66 299.462C323.66 299.462 311.097 299.825 300.789 297.977C290.489 296.141 278.431 294.08 261.343 296.593C244.248 299.099 222.437 298.026 222.437 294.798C222.437 291.567 220.45 279.707 220.45 279.707C210.921 268.565 215.391 240.577 215.391 240.577C215.391 240.577 222.915 226.72 273.165 225.28C322.669 223.87 334.619 238.307 335.06 238.801C335.068 238.801 335.068 238.801 335.068 238.801C339.978 267.035 328.29 282.594 328.29 282.594Z" fill="white"/>
<path d="M214.346 404.957C208.257 402.417 183.983 402.29 164.851 402.234C153.12 402.204 143.323 402.196 140.829 401.677C134.268 400.308 101.467 401.677 100.099 393.474C100.071 393.291 100.033 393.115 99.9961 392.936C99.9306 392.625 99.8465 392.311 99.7578 392.008C101.009 391.275 103.652 390.239 107.066 389.091C115.696 386.2 129.182 382.602 137.252 381.446C149.753 379.651 188.975 390.602 190.11 390.916C190.124 390.92 190.134 390.924 190.134 390.924C195.228 391.836 223.929 395.659 228.305 401.677C232.676 407.691 224.167 409.06 214.346 404.957Z" fill="#C92E2C"/>
<path d="M367.922 394.757C365.012 396.175 358.523 396.384 345.197 402.84C337.631 406.505 328.894 411.749 320.695 416.63C312.295 421.634 304.456 426.264 299.014 428.441C288.246 432.75 279.187 437.773 261.344 438.73C243.494 439.684 203.352 447.651 196.895 447.89C196.895 447.89 195.838 449.259 195.752 449.263C192.717 449.367 178.172 449.711 161.027 449.674C137.089 449.633 108.079 448.851 98.2499 445.668C93.283 444.064 89.0705 442.167 85.6183 440.036C80.0197 436.576 76.4449 432.488 74.9915 427.981C74.2681 425.756 74.0658 423.426 74.3845 421.021C75.7522 410.732 90.7382 392.592 102.505 389.577C103.511 389.319 105.062 389.158 107.067 389.091C125.537 388.44 182.765 395.259 213.516 400.94C218.464 401.852 222.726 402.735 226.031 403.558C226.031 403.558 259.529 406.666 262.877 405.709C266.231 404.751 266.703 388.717 274.841 386.327C282.976 383.933 295.663 386.806 301.404 392.064C307.149 397.334 305.477 400.252 323.661 395.685C341.842 391.111 344.812 390.808 350.826 391.578C353.369 391.907 355.232 391.769 363.886 392.259C365.442 392.345 366.348 392.771 366.856 393.011C367.099 393.127 368.36 394.555 367.922 394.757Z" fill="#FFAF97"/>
<path d="M213.515 400.939C211.124 410.54 204.011 439.123 195.88 449.258C195.88 449.258 195.837 449.258 195.751 449.262C194.212 449.281 179.073 449.483 161.027 449.673C137.088 449.632 108.078 448.851 98.2493 445.668C93.2824 444.063 86.0011 440.626 82.5489 438.49C79.9443 435.73 78.409 434.234 76.5389 432.117C74.6614 429.993 73.7398 427.188 73.9866 424.364C74.0921 423.156 74.2567 421.981 74.3838 421.02C75.7516 410.731 90.7376 392.591 102.504 389.577C112.788 386.944 179.422 394.641 213.515 400.939" fill="#FF585A"/>
<path d="M245.841 278.936C245.841 278.936 277.507 271.83 297.188 278.936C316.868 286.046 303.475 289.327 295.549 287.139C287.62 284.951 262.198 284.131 255.911 286.046C249.624 287.958 238.778 284.404 245.841 278.936" fill="#F0E3E0"/>
<path d="M534.508 294.035C534.508 311.27 520.538 325.232 503.311 325.232C488.773 325.232 476.558 315.29 473.098 301.837C472.459 299.342 472.118 296.732 472.118 294.035C472.118 276.812 486.08 262.842 503.311 262.842C511.438 262.842 518.84 265.954 524.39 271.048C530.61 276.748 534.508 284.939 534.508 294.035Z" fill="#FFBF6D"/>
<path d="M123.677 159.506C123.677 179.953 107.099 196.533 86.6495 196.533C69.189 196.533 54.549 184.449 50.6495 168.183C50.0144 165.55 49.6598 162.812 49.6314 159.992C49.6221 159.831 49.6221 159.67 49.6221 159.506C49.6221 157.849 49.7298 156.215 49.94 154.61C49.9774 154.341 50.0144 154.071 50.0567 153.802C50.3462 151.955 50.7666 150.152 51.3175 148.405C52.401 144.96 53.97 141.729 55.9545 138.8C61.7779 130.168 71.1548 124.132 81.9844 122.766C83.5115 122.576 85.0711 122.478 86.6495 122.478C87.6814 122.478 88.7043 122.52 89.713 122.606C89.909 122.617 90.1054 122.636 90.2965 122.662C91.6976 122.796 93.0754 123.01 94.4249 123.301C96.6383 123.773 98.7818 124.446 100.827 125.295C103.321 126.327 105.674 127.625 107.86 129.155C110.475 130.987 112.847 133.149 114.907 135.58C120.375 142.032 123.677 150.38 123.677 159.506" fill="#FFBF6D"/>
<path d="M448.08 175.577C448.08 186.734 439.037 195.781 427.88 195.781C417.288 195.781 408.603 187.635 407.743 177.268C407.698 176.714 407.672 176.149 407.672 175.577C407.672 164.417 416.719 155.373 427.88 155.373C428.056 155.373 428.239 155.373 428.418 155.377C439.325 155.661 448.08 164.596 448.08 175.577Z" fill="#757ED1"/>
<path d="M43.956 304.754C43.956 315.915 34.9108 324.958 23.7544 324.958C12.5934 324.958 3.54785 315.915 3.54785 304.754C3.54785 304.264 3.56655 303.778 3.60395 303.296C4.34675 292.823 13.0841 284.55 23.7544 284.55C25.1509 284.55 26.5191 284.692 27.836 284.961C37.0356 286.85 43.956 294.992 43.956 304.754" fill="#641A2A"/>
<path d="M421.006 300.177C421.006 300.177 414.992 282.575 438.85 274.059C438.85 274.059 444.217 298.976 421.006 300.177" fill="#B79868"/>
<path d="M499.945 341.67C499.945 341.67 507.538 324.689 530.802 334.713C530.802 334.713 517.752 356.608 499.945 341.67Z" fill="#796A38"/>
<path d="M78.5371 299.54C78.5371 299.54 60.0163 301.242 57.3525 276.052C57.3525 276.052 82.8319 276.699 78.5371 299.54Z" fill="#796A38"/>
<path d="M31.6285 357.281C31.6285 357.281 20.6632 372.305 0 357.648C0 357.648 17.3277 338.958 31.6285 357.281Z" fill="#B79868"/>
<path d="M532.667 382.239C532.667 382.239 523.264 386.843 516.816 374.123C516.816 374.123 530.352 369.362 532.667 382.239Z" fill="#796A38"/>
<path d="M15.8799 384.734C15.8799 384.734 14.0809 395.049 0 392.79C0 392.79 4.09919 379.037 15.8799 384.734Z" fill="#796A38"/>
<path d="M170.256 161.817C170.256 161.817 160.694 149.217 177.677 135.958C177.677 135.958 188.674 154.64 170.256 161.817Z" fill="#796A38"/>
<path d="M206.535 108.109C206.535 108.109 196.139 109.354 194.247 95.2203C194.247 95.2203 208.595 95.1867 206.535 108.109Z" fill="#B79868"/>
<path d="M351.409 133.908C351.409 133.908 344.777 125.803 355.691 116.621C355.691 116.621 363.418 128.713 351.409 133.908Z" fill="#796A38"/>
<path d="M375.705 250.814C375.705 250.814 373.622 236.994 392.405 233.897C392.405 233.897 393.03 253.039 375.705 250.814Z" fill="#796A38"/>
<path d="M123.676 159.506C123.676 179.953 107.099 196.53 86.6494 196.53C69.1886 196.53 54.5489 184.445 50.6494 168.179C52.3912 167.962 54.7542 168.381 57.9296 169.709C75.2222 176.946 83.7261 188.425 86.6494 178.79C89.5727 169.152 77.5852 157.673 96.7037 152.751C107.365 150.006 113.23 143.266 114.907 135.58C120.375 142.028 123.676 150.38 123.676 159.506" fill="#E8A256"/>
<path d="M81.9836 122.766C81.1151 125.998 76.0248 130.157 73.036 132.693C68.5251 136.519 67.0212 135.289 65.7933 141.49C64.5601 147.687 61.8283 146.632 57.0417 143.487C55.6829 142.597 55.4959 140.869 55.9537 138.8C61.7771 130.168 71.154 124.132 81.9836 122.766" fill="#FFD1A4"/>
<path d="M106.659 139.664C103.516 152.785 93.9475 142.529 98.0478 135.58C100.154 132.012 100.644 128.246 100.826 125.295C103.32 126.327 105.674 127.625 107.859 129.155C107.943 132.199 107.588 135.786 106.659 139.664Z" fill="#FFD1A4"/>
<path d="M67.6783 166.044C68.6736 165.314 72.594 165.924 76.67 163.766C80.7464 161.608 82.1777 161.754 82.0016 167.016C81.8254 172.279 83.8634 176.116 76.4302 172.398C68.9971 168.684 64.0818 168.684 67.6783 166.044Z" fill="#E8A256"/>
<path d="M73.2052 155.444C65.9295 158.391 72.0095 165.221 59.8121 163.583C55.8939 163.055 52.4709 161.653 49.6314 159.992C49.6221 159.831 49.6221 159.671 49.6221 159.506C49.6221 157.849 49.7298 156.215 49.94 154.61C53.2601 154.958 57.1783 154.771 61.2831 153.324C72.4904 149.366 74.9514 141 77.6832 146.823C80.415 152.647 80.4854 152.497 73.2052 155.444" fill="#FFD1A4"/>
<path d="M88.8907 137.54C85.0616 143.752 82.605 139.275 81.9842 138.707C79.6537 136.564 87.5226 128.044 86.6493 122.479C87.6812 122.479 88.7041 122.52 89.7128 122.606C89.9088 122.617 90.1052 122.636 90.2963 122.662C91.8608 126.78 91.9588 132.554 88.8907 137.54Z" fill="#FFD1A4"/>
<path d="M448.081 175.577C448.081 186.734 439.037 195.781 427.88 195.781C417.288 195.781 408.603 187.635 407.743 177.268C410.257 178.588 413.013 180.604 415.007 183.372C419.652 189.823 434.96 189.674 433.868 181.412C432.776 173.15 429.058 170.689 433.924 167.405C437.309 165.127 433.401 158.732 428.419 155.377C439.325 155.661 448.081 164.596 448.081 175.577" fill="#4D5297"/>
<path d="M534.507 294.035C534.507 311.27 520.538 325.232 503.311 325.232C488.773 325.232 476.557 315.29 473.098 301.837C473.191 298.561 473.745 295.864 474.339 294.035C474.728 292.831 482.231 282.77 488.092 297.936C493.953 313.11 507.578 319.67 513.271 311.468C518.582 303.823 501.478 275.503 524.39 271.048C530.61 276.748 534.507 284.939 534.507 294.035" fill="#E8A256"/>
<path d="M447.512 292.39C447.512 292.39 455.104 275.409 478.368 285.433C478.368 285.433 465.319 307.328 447.512 292.39Z" fill="#796A38"/>
<path d="M495.506 267.731C495.091 267.809 479.606 275.798 485.344 282.358C491.085 288.918 489.263 280.937 495.506 278.162C501.748 275.387 507.489 265.539 495.506 267.731Z" fill="#FFD1A4"/>
<path d="M497.315 283.248C496.014 283.832 490.919 286.48 492.453 292.315C493.99 298.145 495.628 305.252 500.004 303.247C504.377 301.242 501.852 299.548 501.018 295.019C500.184 290.489 503.741 280.384 497.315 283.248Z" fill="#FFD1A4"/>
<path d="M414.367 171.964C415.313 172.514 420.474 174.152 421.794 169.047C423.115 163.946 425.392 159.936 421.794 161.028C418.193 162.124 409.994 169.414 414.367 171.964Z" fill="#7D8BDB"/>
<path d="M424.376 174.014C424.376 174.014 418.818 176.886 420.329 179.071C421.84 181.259 427.431 177.702 424.376 174.014Z" fill="#7D8BDB"/>
<path d="M283.473 32.2326C283.604 29.8838 292.284 14.1902 304.302 12.9597C316.322 11.7329 316.996 15.013 307.843 20.7541C298.691 26.4915 283.016 40.4348 283.473 32.2326Z" fill="white"/>
<path d="M319.213 26.0837C319.539 24.4268 326.402 13.7824 334.69 18.293C342.975 22.8036 318.005 32.2325 319.213 26.0837Z" fill="white"/>
<path d="M295.412 40.8425C295.599 38.8004 304.478 31.1256 314.09 34.7536C323.706 38.3852 332.749 35.9242 332.94 40.8425C333.135 45.7645 333.187 54.7857 322.707 53.5552C312.223 52.3247 295 45.3531 295.412 40.8425Z" fill="#EACBC5"/>
<path d="M16.0907 304.754C11.631 301.414 7.07325 301.923 3.60352 303.296C4.34631 292.823 13.0837 284.55 23.7539 284.55C25.1505 284.55 26.5186 284.692 27.8355 284.962C35.2979 296.885 32.5193 293.556 34.5461 301.205C36.5961 308.94 25.1131 311.505 16.0907 304.754" fill="#872745"/>
<path d="M472.052 441.554C466.165 451.256 454.394 458.022 444.191 461.122C420.224 468.397 359.346 460.558 343.08 461.758C335.076 462.346 325.344 462.357 313.335 462.046C311.727 460.546 310.279 458.744 308.978 456.732C322.061 457.966 443.675 468.644 472.052 441.554" fill="#872745"/>
<path d="M276.5 143C273.972 143 270.5 142.5 268.68 141.754C268.231 141.682 267.934 141.296 268.013 140.893C268.092 140.489 268.521 140.22 268.97 140.292C274.234 141.138 279.776 141.043 285 140.018C285.446 139.929 285.885 140.184 285.98 140.585C286.079 140.985 285.795 141.381 285.35 141.468C282.5 142.5 279.579 143 276.5 143Z" fill="#E0665A"/>
<path d="M287.832 102.635C288.999 104.915 296.787 105.168 299.068 105.375C299.884 105.45 300.995 105.295 301.078 104.529C300.517 102.397 297.999 101.325 295.733 100.755C294.011 100.322 285.739 98.549 287.832 102.635V102.635ZM263.246 102.635C262.079 104.915 254.291 105.168 252.01 105.375C251.194 105.45 250.083 105.295 250 104.529C250.561 102.397 253.079 101.325 255.345 100.755C257.067 100.322 265.339 98.549 263.246 102.635" fill="#313037"/>
<path d="M275.156 131.437C274.785 131.437 274.461 131.137 274.42 130.73C274.375 130.293 274.669 129.9 275.076 129.851L278.125 129.487C277.359 124.652 277.098 119.713 277.344 114.794C277.368 114.355 277.712 114.016 278.125 114.043C278.535 114.067 278.85 114.441 278.826 114.88C278.574 119.96 278.873 125.061 279.723 130.041L279.865 130.881L275.239 131.432C275.212 131.436 275.186 131.437 275.156 131.437" fill="#E0665A"/>
<path d="M265.941 112.529C264.946 110.005 261.582 108.36 258.948 109.239C256.249 110.142 254.761 113.454 254.432 116.078C256.513 116.529 258.485 116.714 260.575 116.309C262.669 115.904 264.477 114.077 265.941 112.529" fill="#EB8A62"/>
<path d="M267.401 115.426C265.34 117.161 261.846 118.436 259.161 118.659C256.477 118.883 254.223 117.306 253 114.905C257.24 116.939 262.781 115.757 265.821 112.17L267.401 115.426" fill="#313037"/>
<path d="M288.021 112.529C289.018 110.005 292.379 108.36 295.013 109.239C297.715 110.142 299.114 113.51 299.446 116.134C297.362 116.585 295.479 116.714 293.386 116.309C291.296 115.904 289.484 114.077 288.021 112.529Z" fill="#EB8A62"/>
<path d="M286.494 115.426C288.555 117.161 292.05 118.436 294.734 118.659C297.418 118.883 299.675 117.306 300.895 114.905C296.658 116.939 291.114 115.757 288.074 112.17L286.494 115.426" fill="#313037"/>
<defs>
<linearGradient id="paint0_linear_2395_9138" x1="340.454" y1="266.242" x2="536.451" y2="29.2418" gradientUnits="userSpaceOnUse">
<stop stop-color="#917747"/>
<stop offset="0.0242428" stop-color="#917747"/>
<stop offset="0.68623" stop-color="#B79868"/>
<stop offset="1" stop-color="#B79868"/>
</linearGradient>
<linearGradient id="paint1_linear_2395_9138" x1="168.613" y1="428.815" x2="81.6854" y2="88.7583" gradientUnits="userSpaceOnUse">
<stop stop-color="#917747"/>
<stop offset="0.0242428" stop-color="#917747"/>
<stop offset="0.68623" stop-color="#B79868"/>
<stop offset="1" stop-color="#B79868"/>
</linearGradient>
<linearGradient id="paint2_linear_2395_9138" x1="248.701" y1="415.934" x2="157.673" y2="61.6632" gradientUnits="userSpaceOnUse">
<stop stop-color="#917747"/>
<stop offset="0.0242428" stop-color="#917747"/>
<stop offset="0.68623" stop-color="#B79868"/>
<stop offset="1" stop-color="#B79868"/>
</linearGradient>
<linearGradient id="paint3_linear_2395_9138" x1="327.869" y1="359.764" x2="419.717" y2="212.698" gradientUnits="userSpaceOnUse">
<stop stop-color="#917747"/>
<stop offset="0.0242428" stop-color="#917747"/>
<stop offset="0.68623" stop-color="#B79868"/>
<stop offset="1" stop-color="#B79868"/>
</linearGradient>
<linearGradient id="paint4_linear_2395_9138" x1="354.495" y1="390.445" x2="533.97" y2="258.757" gradientUnits="userSpaceOnUse">
<stop stop-color="#917747"/>
<stop offset="0.0242428" stop-color="#917747"/>
<stop offset="0.68623" stop-color="#B79868"/>
<stop offset="1" stop-color="#B79868"/>
</linearGradient>
<linearGradient id="paint5_linear_2395_9138" x1="268.52" y1="362.274" x2="264.949" y2="496.215" gradientUnits="userSpaceOnUse">
<stop stop-color="#E27949"/>
<stop offset="0.457598" stop-color="#E27949"/>
<stop offset="0.727917" stop-color="#FFAF97"/>
<stop offset="1" stop-color="#FFAF97"/>
</linearGradient>
<linearGradient id="paint6_linear_2395_9138" x1="266.698" y1="71.2684" x2="275.779" y2="223.773" gradientUnits="userSpaceOnUse">
<stop stop-color="#E27949"/>
<stop offset="0.457598" stop-color="#E27949"/>
<stop offset="0.727917" stop-color="#FFAF97"/>
<stop offset="1" stop-color="#FFAF97"/>
</linearGradient>
<linearGradient id="paint7_linear_2395_9138" x1="238.375" y1="50.3199" x2="241.389" y2="166.849" gradientUnits="userSpaceOnUse">
<stop stop-color="#E27949"/>
<stop offset="0.457598" stop-color="#E27949"/>
<stop offset="0.727917" stop-color="#FFAF97"/>
<stop offset="1" stop-color="#FFAF97"/>
</linearGradient>
<linearGradient id="paint8_linear_2395_9138" x1="308.752" y1="48.4985" x2="311.766" y2="165.028" gradientUnits="userSpaceOnUse">
<stop stop-color="#E27949"/>
<stop offset="0.457598" stop-color="#E27949"/>
<stop offset="0.727917" stop-color="#FFAF97"/>
<stop offset="1" stop-color="#FFAF97"/>
</linearGradient>
<linearGradient id="paint9_linear_2395_9138" x1="167.862" y1="187.415" x2="249.708" y2="259.196" gradientUnits="userSpaceOnUse">
<stop stop-color="#E27949"/>
<stop offset="0.502166" stop-color="#E27949"/>
<stop offset="0.866932" stop-color="#FFAE88"/>
<stop offset="1" stop-color="#FFAE88"/>
</linearGradient>
<linearGradient id="paint10_linear_2395_9138" x1="268.292" y1="128.235" x2="185.239" y2="332.983" gradientUnits="userSpaceOnUse">
<stop stop-color="#E27949"/>
<stop offset="0.556527" stop-color="#FFAE88"/>
<stop offset="1" stop-color="#FFAE88"/>
</linearGradient>
<linearGradient id="paint11_linear_2395_9138" x1="280.447" y1="128.085" x2="363.5" y2="332.833" gradientUnits="userSpaceOnUse">
<stop stop-color="#E27949"/>
<stop offset="0.556527" stop-color="#FFAE88"/>
<stop offset="1" stop-color="#FFAE88"/>
</linearGradient>
<linearGradient id="paint12_linear_2395_9138" x1="294.952" y1="162.988" x2="233.529" y2="271.54" gradientUnits="userSpaceOnUse">
<stop stop-color="#E27949"/>
<stop offset="0.556527" stop-color="#FFAE88"/>
<stop offset="1" stop-color="#FFAE88"/>
</linearGradient>
<linearGradient id="paint13_linear_2395_9138" x1="53.4919" y1="469.343" x2="66.0547" y2="326.127" gradientUnits="userSpaceOnUse">
<stop stop-color="#AE451D"/>
<stop offset="0.457598" stop-color="#AE451D"/>
<stop offset="0.727917" stop-color="#FFAE88"/>
<stop offset="1" stop-color="#FFAE88"/>
</linearGradient>
<linearGradient id="paint14_linear_2395_9138" x1="-79.4292" y1="263.041" x2="175.416" y2="435.689" gradientUnits="userSpaceOnUse">
<stop stop-color="#AE451D"/>
<stop offset="0.457598" stop-color="#AE451D"/>
<stop offset="0.727917" stop-color="#FFAE88"/>
<stop offset="1" stop-color="#FFAE88"/>
</linearGradient>
<linearGradient id="paint15_linear_2395_9138" x1="42.7741" y1="454.341" x2="85.8464" y2="328.355" gradientUnits="userSpaceOnUse">
<stop stop-color="#E27949"/>
<stop offset="0.457598" stop-color="#E27949"/>
<stop offset="0.727917" stop-color="#FFAE88"/>
<stop offset="1" stop-color="#FFAE88"/>
</linearGradient>
<linearGradient id="paint16_linear_2395_9138" x1="73.0772" y1="427.835" x2="91.4942" y2="368.566" gradientUnits="userSpaceOnUse">
<stop stop-color="#E27949"/>
<stop offset="0.457598" stop-color="#E27949"/>
<stop offset="0.727917" stop-color="#FFAF97"/>
<stop offset="1" stop-color="#FFAF97"/>
</linearGradient>
<linearGradient id="paint17_linear_2395_9138" x1="78.3816" y1="431.396" x2="80.8942" y2="368.582" gradientUnits="userSpaceOnUse">
<stop stop-color="#E27949"/>
<stop offset="0.457598" stop-color="#E27949"/>
<stop offset="0.727917" stop-color="#FFAF97"/>
<stop offset="1" stop-color="#FFAF97"/>
</linearGradient>
<linearGradient id="paint18_linear_2395_9138" x1="497.072" y1="463.494" x2="484.509" y2="320.278" gradientUnits="userSpaceOnUse">
<stop stop-color="#AE451D"/>
<stop offset="0.457598" stop-color="#AE451D"/>
<stop offset="0.727917" stop-color="#FFAE88"/>
<stop offset="1" stop-color="#FFAE88"/>
</linearGradient>
<linearGradient id="paint19_linear_2395_9138" x1="629.994" y1="257.191" x2="375.149" y2="429.839" gradientUnits="userSpaceOnUse">
<stop stop-color="#AE451D"/>
<stop offset="0.457598" stop-color="#AE451D"/>
<stop offset="0.727917" stop-color="#FFAE88"/>
<stop offset="1" stop-color="#FFAE88"/>
</linearGradient>
<linearGradient id="paint20_linear_2395_9138" x1="507.792" y1="448.492" x2="464.719" y2="322.505" gradientUnits="userSpaceOnUse">
<stop stop-color="#E27949"/>
<stop offset="0.457598" stop-color="#E27949"/>
<stop offset="0.727917" stop-color="#FFAE88"/>
<stop offset="1" stop-color="#FFAE88"/>
</linearGradient>
<linearGradient id="paint21_linear_2395_9138" x1="477.489" y1="421.985" x2="459.072" y2="362.716" gradientUnits="userSpaceOnUse">
<stop stop-color="#E27949"/>
<stop offset="0.457598" stop-color="#E27949"/>
<stop offset="0.727917" stop-color="#FFAF97"/>
<stop offset="1" stop-color="#FFAF97"/>
</linearGradient>
<linearGradient id="paint22_linear_2395_9138" x1="472.182" y1="425.546" x2="469.67" y2="362.732" gradientUnits="userSpaceOnUse">
<stop stop-color="#E27949"/>
<stop offset="0.457598" stop-color="#E27949"/>
<stop offset="0.727917" stop-color="#FFAF97"/>
<stop offset="1" stop-color="#FFAF97"/>
</linearGradient>
<linearGradient id="paint23_linear_2395_9138" x1="284.285" y1="186.966" x2="361.959" y2="255.088" gradientUnits="userSpaceOnUse">
<stop stop-color="#E27949"/>
<stop offset="0.502166" stop-color="#E27949"/>
<stop offset="0.866932" stop-color="#FFAE88"/>
<stop offset="1" stop-color="#FFAE88"/>
</linearGradient>
<linearGradient id="paint24_linear_2395_9138" x1="218.59" y1="183.282" x2="221.285" y2="237.39" gradientUnits="userSpaceOnUse">
<stop stop-color="white"/>
<stop offset="0.186383" stop-color="white"/>
<stop offset="0.798169" stop-color="#FFE4D9"/>
<stop offset="1" stop-color="#FFE4D9"/>
</linearGradient>
<linearGradient id="paint25_linear_2395_9138" x1="330.936" y1="181.33" x2="328.278" y2="234.705" gradientUnits="userSpaceOnUse">
<stop stop-color="white"/>
<stop offset="0.186383" stop-color="white"/>
<stop offset="0.798169" stop-color="#FFE4D9"/>
<stop offset="1" stop-color="#FFE4D9"/>
</linearGradient>
<linearGradient id="paint26_linear_2395_9138" x1="286.109" y1="344.909" x2="246.749" y2="357.659" gradientUnits="userSpaceOnUse">
<stop stop-color="#E27949"/>
<stop offset="0.457598" stop-color="#E27949"/>
<stop offset="0.727917" stop-color="#FFAE88"/>
<stop offset="1" stop-color="#FFAE88"/>
</linearGradient>
<linearGradient id="paint27_linear_2395_9138" x1="273.453" y1="232.94" x2="271.778" y2="339.424" gradientUnits="userSpaceOnUse">
<stop stop-color="#E27949"/>
<stop offset="0.457598" stop-color="#E27949"/>
<stop offset="0.727917" stop-color="#FFAF97"/>
<stop offset="1" stop-color="#FFAF97"/>
</linearGradient>
</defs>
</svg>
