<svg width="406" height="383" viewBox="0 0 406 383" fill="none" xmlns="http://www.w3.org/2000/svg">
<g filter="url(#filter0_d_2683_10336)">
<rect x="14" y="10" width="378" height="355" rx="24" fill="white"/>
<rect x="14.8" y="10.8" width="376.4" height="353.4" rx="23.2" stroke="#E1E1E1" stroke-width="1.6"/>
</g>
<path d="M341.999 74.0633C347.25 67.4014 357.171 66.3124 364.156 71.6317C371.141 76.9515 372.547 86.6653 367.296 93.3272L341.999 74.0633Z" fill="#C2D186"/>
<path d="M72.7317 96.5272C65.7007 91.7044 64.0995 82.0199 69.1562 74.8974C74.2133 67.7743 84.0134 65.9103 91.0444 70.7331L72.7317 96.5272Z" fill="#C2D186"/>
<path d="M144.024 106.983C146.972 115.171 156.114 119.461 164.445 116.563L159.107 101.737L144.024 106.983Z" fill="#573C7A"/>
<defs>
<filter id="filter0_d_2683_10336" x="0" y="0" width="406" height="383" filterUnits="userSpaceOnUse" color-interpolation-filters="sRGB">
<feFlood flood-opacity="0" result="BackgroundImageFix"/>
<feColorMatrix in="SourceAlpha" type="matrix" values="0 0 0 0 0 0 0 0 0 0 0 0 0 0 0 0 0 0 127 0" result="hardAlpha"/>
<feMorphology radius="2" operator="erode" in="SourceAlpha" result="effect1_dropShadow_2683_10336"/>
<feOffset dy="4"/>
<feGaussianBlur stdDeviation="8"/>
<feComposite in2="hardAlpha" operator="out"/>
<feColorMatrix type="matrix" values="0 0 0 0 0 0 0 0 0 0 0 0 0 0 0 0 0 0 0.12 0"/>
<feBlend mode="normal" in2="BackgroundImageFix" result="effect1_dropShadow_2683_10336"/>
<feBlend mode="normal" in="SourceGraphic" in2="effect1_dropShadow_2683_10336" result="shape"/>
</filter>
</defs>
</svg>
