<svg width="80" height="82" viewBox="0 0 80 82" fill="none" xmlns="http://www.w3.org/2000/svg">
<path d="M80 40C80 49.7749 76.4934 58.7314 70.6694 65.6794C69.5638 66.9981 68.3746 68.2451 67.1104 69.4111C59.9827 75.9849 50.4605 80 40 80C29.5395 80 20.0173 75.9849 12.8896 69.4111C11.6254 68.2451 10.4362 66.9981 9.33117 65.6794C3.50661 58.7314 0 49.7749 0 40C0 17.9088 17.9088 0 40 0C62.0912 0 80 17.9088 80 40Z" fill="#FFE2E2"/>
<path d="M69.14 67.4009C69.1158 67.4274 69.0909 67.4538 69.0655 67.4797L69.0488 67.4393L69.14 67.4009Z" fill="white"/>
<path d="M53.0074 24.7936C47.8562 16.6194 40.3141 18.1057 40.3141 18.1057C40.3141 18.1057 32.7721 16.6194 27.6209 24.7936C22.4697 32.9674 22.754 39.2307 22.1533 56.5347H40.1479H40.4804H58.475C57.8743 39.2307 58.1586 32.9674 53.0074 24.7936Z" fill="#210B1F"/>
<path d="M66.628 69.7129C66.2047 70.2173 65.7674 70.7101 65.3159 71.1899C65.295 71.2126 65.2737 71.2353 65.2519 71.2576C64.8152 71.7198 64.3655 72.1695 63.9037 72.6063C63.8287 72.6781 63.7527 72.7494 63.6768 72.8193L63.6758 72.8198C63.6416 72.8527 63.6087 72.8832 63.5744 72.9147C62.7134 73.7086 61.8121 74.4594 60.8733 75.1624C60.7718 75.2388 60.6699 75.3139 60.5676 75.3889C59.8006 75.9507 59.0091 76.4815 58.1953 76.9789C57.8558 77.1869 57.5121 77.3888 57.1652 77.5847C57.068 77.6398 56.9707 77.694 56.873 77.7478C56.8619 77.7538 56.8512 77.7598 56.8401 77.7658C55.1487 78.6972 53.3706 79.4897 51.5208 80.1284C51.3855 80.1752 51.2498 80.221 51.1141 80.2659C50.4814 80.4758 49.8409 80.667 49.1925 80.8403C49.0595 80.8759 48.9261 80.9107 48.7928 80.9445C46.7086 81.4743 44.5479 81.8133 42.3313 81.9416C42.2002 81.9491 42.0696 81.956 41.938 81.962C41.3999 81.9875 40.8584 82 40.3138 82C40.2225 82 40.1313 81.9995 40.04 81.9991C40.0122 81.9986 39.9845 81.9986 39.9567 81.9981C39.8497 81.9968 39.7427 81.9954 39.6362 81.9935C36.502 81.9328 33.4702 81.4516 30.5958 80.6045C30.4147 80.5512 30.2341 80.4966 30.0544 80.4401C29.1401 80.1543 28.2425 79.831 27.363 79.4721C27.1347 79.3795 26.9072 79.2836 26.6812 79.1859C25.9249 78.8579 25.1834 78.5041 24.4562 78.1248C23.579 77.6667 22.7235 77.1721 21.8926 76.6422C21.8176 76.5945 21.7426 76.5463 21.6676 76.4977C21.5559 76.425 21.4448 76.3523 21.3341 76.2782C20.7991 75.9229 20.2753 75.5529 19.7621 75.1684C19.6528 75.0865 19.5435 75.004 19.4351 74.9207C18.6107 74.2875 17.8159 73.6183 17.0531 72.9147C15.9684 71.9143 14.9481 70.8444 14 69.7129C14.075 69.5346 14.1505 69.3577 14.2269 69.1826C14.2876 69.0437 14.3488 68.9052 14.4104 68.769C14.8462 67.8015 15.3001 66.9076 15.7521 66.1911C16.0087 65.7844 16.2644 65.4347 16.5154 65.1615C16.527 65.1485 16.5386 65.1365 16.5501 65.124C16.6608 65.0063 16.7762 64.8956 16.8957 64.7924C17.7006 64.0939 18.7006 63.7044 19.8228 63.4603C20.0331 63.4149 20.248 63.3742 20.4666 63.3376C22.1715 63.0523 24.1093 63.0129 26.0532 62.7091C26.6419 62.6174 27.231 62.5011 27.8146 62.3464C27.9581 62.3084 28.0994 62.2695 28.2374 62.2292C28.3037 62.2103 28.369 62.1913 28.4338 62.1718C28.5088 62.1491 28.5834 62.1264 28.657 62.1033C29.336 61.8907 29.9437 61.6582 30.487 61.4113C30.7626 61.2863 31.0215 61.157 31.2646 61.0255C31.5008 60.8977 31.7222 60.7671 31.9297 60.6346C31.989 60.5966 32.0473 60.5582 32.1043 60.5202C32.1099 60.5165 32.1159 60.5123 32.1215 60.5086C32.2345 60.4327 32.3428 60.3562 32.4471 60.2789C32.4545 60.2738 32.4619 60.2682 32.4693 60.2627C32.5698 60.1877 32.6661 60.1126 32.7583 60.0376C32.7685 60.0288 32.7787 60.0205 32.7889 60.0121C32.8338 59.9755 32.8778 59.9389 32.9204 59.9019L32.926 59.8973C32.9477 59.8783 32.969 59.8593 32.9903 59.8403C33.0084 59.8241 33.0265 59.8083 33.0445 59.7921C33.0556 59.7819 33.0663 59.7722 33.0774 59.7625C33.1172 59.7259 33.1566 59.6893 33.1946 59.6532C33.8384 59.0376 34.2339 58.4207 34.4497 57.8709C34.698 57.2406 34.7874 55.7316 34.8105 54.2356C34.8115 54.1652 34.8124 54.0944 34.8133 54.024C34.8342 52.1774 34.7587 50.4127 34.7587 50.4127L38.7353 48.8297L40.2614 48.222L40.3138 48.2012L40.3897 48.2313L42.6013 49.1113L45.8689 50.4127C45.8689 50.4127 45.786 52.3478 45.8179 54.2861C45.8193 54.3885 45.8216 54.4908 45.8239 54.5927C45.8554 55.966 45.9499 57.2906 46.1778 57.8709C46.3705 58.3614 46.7062 58.9061 47.2342 59.4554C47.4802 59.7111 47.7683 59.9681 48.1027 60.2215C48.142 60.2516 48.1828 60.2812 48.2235 60.3113L48.2323 60.3178C48.2726 60.3465 48.3134 60.3757 48.3546 60.4049C48.8497 60.7527 49.4366 61.0908 50.128 61.4053C50.5125 61.5808 50.9293 61.749 51.3813 61.9083C51.8241 62.0639 52.3007 62.2107 52.813 62.3464C53.6777 62.5757 54.5549 62.7202 55.4247 62.8267C56.7197 62.9851 57.9971 63.0592 59.1892 63.2005C59.3124 63.2153 59.4347 63.2306 59.5561 63.2473C61.2795 63.4775 62.8037 63.8878 63.9153 64.9596C63.9709 65.0128 64.0246 65.067 64.0778 65.124C64.396 65.4625 64.7216 65.9238 65.0463 66.4704C65.1098 66.5764 65.1732 66.6862 65.2362 66.7987C65.7119 67.6445 66.1834 68.656 66.628 69.7129Z" fill="#E8A695"/>
<path d="M45.818 54.286C44.4253 55.3281 42.274 56.4684 39.671 56.2891C37.1325 56.1136 35.643 55.0006 34.8134 54.0238C34.8343 52.1772 34.7588 50.4126 34.7588 50.4126L38.7354 48.8295L40.2615 48.2219C40.3042 48.2251 40.3472 48.2279 40.3898 48.2311L42.6014 49.1111L45.869 50.4126C45.869 50.4126 45.7861 52.3477 45.818 54.286Z" fill="#E9A7A2"/>
<path d="M51.5152 38.1913C51.5152 46.5614 47.3736 53.3467 40.3137 53.3467C33.2538 53.3467 29.1123 46.5614 29.1123 38.1913C29.1123 29.8216 30.8065 22.4713 40.3137 22.4713C49.821 22.4713 51.5152 29.8216 51.5152 38.1913Z" fill="#E8A695"/>
<path d="M37.9609 45.0294C38.0082 45.0294 42.6675 45.0294 42.6675 45.0294C42.6675 45.0294 42.4322 47.147 40.3142 47.147C38.1962 47.147 37.9609 45.0294 37.9609 45.0294Z" fill="white"/>
<path d="M36.5716 38.1576C36.5716 38.8074 36.2766 39.3345 35.913 39.3345C35.5489 39.3345 35.2539 38.8074 35.2539 38.1576C35.2539 37.5078 35.5489 36.9812 35.913 36.9812C36.2766 36.9812 36.5716 37.5078 36.5716 38.1576Z" fill="#210B1F"/>
<path d="M45.3733 38.1576C45.3733 38.8074 45.0783 39.3345 44.7143 39.3345C44.3507 39.3345 44.0557 38.8074 44.0557 38.1576C44.0557 37.5078 44.3507 36.9812 44.7143 36.9812C45.0783 36.9812 45.3733 37.5078 45.3733 38.1576Z" fill="#210B1F"/>
<path d="M36.7368 35.8516C36.6511 35.8516 36.5687 35.8043 36.527 35.7228C36.514 35.6983 36.2361 35.1837 35.5007 35.1452C34.7406 35.105 34.3868 35.5644 34.3835 35.569C34.3057 35.6732 34.158 35.6941 34.0542 35.6163C33.95 35.538 33.9292 35.3907 34.007 35.2865C34.0274 35.2596 34.5174 34.6223 35.5257 34.6751C36.5446 34.7289 36.9313 35.4792 36.9471 35.5107C37.0054 35.6269 36.9582 35.7687 36.842 35.8266C36.8081 35.8437 36.7725 35.8516 36.7368 35.8516Z" fill="#210B1F"/>
<path d="M43.8909 35.8506C43.8552 35.8506 43.8191 35.8422 43.7849 35.8246C43.67 35.7663 43.6232 35.6264 43.6811 35.5106C43.6968 35.4791 44.0836 34.7288 45.1025 34.6751C46.1113 34.6223 46.6008 35.2596 46.6212 35.2865C46.699 35.3907 46.6782 35.538 46.574 35.6162C46.4702 35.694 46.3225 35.6732 46.2447 35.569C46.2312 35.5514 45.8765 35.1054 45.1275 35.1452C44.3897 35.1841 44.1123 35.701 44.1012 35.7228C44.059 35.8038 43.9766 35.8506 43.8909 35.8506Z" fill="#210B1F"/>
<path d="M40.5024 42.8643C40.4977 42.8643 40.4931 42.8643 40.4885 42.8638C40.4496 42.8615 39.5334 42.7994 39.2472 42.0547C39.2 41.9329 39.0759 41.6091 39.5006 39.4133C39.7048 38.3554 39.9415 37.3601 39.9438 37.3504C39.9739 37.2239 40.1008 37.1457 40.2273 37.1758C40.3537 37.2059 40.4315 37.3328 40.4014 37.4592C39.9471 39.3679 39.5557 41.5452 39.6863 41.8856C39.8623 42.3432 40.5093 42.3937 40.5158 42.3942C40.6455 42.4016 40.7446 42.5132 40.7372 42.6429C40.7298 42.7679 40.626 42.8643 40.5024 42.8643Z" fill="#F79781"/>
<path d="M32.9482 44.5117C31.8042 44.5117 30.877 43.5845 30.877 42.4409C30.877 41.2969 31.8042 40.3697 32.9482 40.3697C34.0917 40.3697 35.019 41.2969 35.019 42.4409C35.019 43.5845 34.0917 44.5117 32.9482 44.5117Z" fill="#FFAFA9"/>
<path d="M47.6792 44.5117C46.5356 44.5117 45.6084 43.5845 45.6084 42.4409C45.6084 41.2969 46.5356 40.3697 47.6792 40.3697C48.8232 40.3697 49.7504 41.2969 49.7504 42.4409C49.7504 43.5845 48.8232 44.5117 47.6792 44.5117Z" fill="#FFAFA9"/>
<path d="M29.3473 36.5573C29.3473 36.5573 28.2644 35.0512 26.429 35.7102C24.5935 36.3693 24.782 40.1343 26.429 41.5465C28.0764 42.9582 29.7238 41.6405 29.7238 41.6405L29.3473 36.5573Z" fill="#E8A695"/>
<path d="M28.6244 41.147C28.3752 41.147 28.05 41.0766 27.6383 40.8607C26.9741 40.5129 26.492 39.7895 26.4661 39.1012C26.4447 38.5514 26.7055 38.0786 27.1992 37.7701C27.5739 37.5357 27.9468 37.4672 28.308 37.5663C28.9611 37.7455 29.314 38.4162 29.3288 38.4449C29.3886 38.5602 29.3432 38.7024 29.2279 38.7617C29.1125 38.8215 28.9708 38.7765 28.9111 38.6612C28.9069 38.6538 28.6332 38.142 28.1816 38.0197C27.9495 37.9568 27.7101 38.0058 27.4484 38.1693C27.0987 38.3875 26.9218 38.7038 26.9362 39.0831C26.9561 39.6111 27.3349 40.1706 27.8565 40.4439C28.6438 40.8561 28.9393 40.5866 28.9426 40.5838L28.9365 40.5903L29.2881 40.9029C29.2561 40.939 29.0523 41.147 28.6244 41.147Z" fill="#F79781"/>
<path d="M51.2799 36.5573C51.2799 36.5573 52.3623 35.0512 54.1982 35.7102C56.0337 36.3693 55.8452 40.1343 54.1982 41.5465C52.5508 42.9582 50.9033 41.6405 50.9033 41.6405L51.2799 36.5573Z" fill="#E8A695"/>
<path d="M52.0033 41.147C51.5753 41.147 51.3715 40.939 51.3396 40.9029L51.6911 40.5903L51.6851 40.5838C51.6883 40.5866 51.9838 40.8561 52.7707 40.4439C53.2927 40.1706 53.6715 39.6111 53.6915 39.0831C53.7058 38.7038 53.5289 38.3875 53.1792 38.1693C52.9171 38.0054 52.6762 37.9567 52.4437 38.0202C51.9949 38.1434 51.7193 38.6557 51.717 38.6607C51.6573 38.7765 51.5151 38.8215 51.3998 38.7617C51.2844 38.7024 51.2391 38.5602 51.2988 38.4449C51.3136 38.4162 51.6665 37.7455 52.3191 37.5663C52.6809 37.4677 53.0537 37.5357 53.4284 37.7701C53.9221 38.0786 54.1829 38.5514 54.1616 39.1012C54.1356 39.7895 53.6535 40.5129 52.9893 40.8607C52.5776 41.0766 52.2524 41.147 52.0033 41.147Z" fill="#F79781"/>
<path d="M58.1952 76.9789C57.8558 77.1869 57.5121 77.3888 57.1652 77.5847C57.0679 77.6398 56.9707 77.694 56.8729 77.7478C56.8618 77.7538 56.8512 77.7598 56.84 77.7658C55.1486 78.6972 53.3705 79.4897 51.5207 80.1284C51.3854 80.1752 51.2497 80.221 51.114 80.2659C50.4814 80.4758 49.8408 80.667 49.1924 80.8403C49.0595 80.8759 48.9261 80.9107 48.7927 80.9445C46.7085 81.4743 44.5479 81.8133 42.3312 81.9416C42.2001 81.9491 42.0695 81.956 41.938 81.962C41.3998 81.9875 40.8584 82 40.3137 82C40.2225 82 40.1312 81.9995 40.04 81.9991C40.0122 81.9986 39.9844 81.9986 39.9566 81.9981C39.8496 81.9968 39.7426 81.9954 39.6361 81.9935C36.5019 81.9328 33.4701 81.4516 30.5958 80.6045C30.4147 80.5512 30.234 80.4966 30.0543 80.4401C29.1401 80.1543 28.2425 79.831 27.3629 79.4721C27.1346 79.3795 26.9072 79.2836 26.6812 79.1859C25.9248 78.8579 25.1833 78.5041 24.4561 78.1248C23.5789 77.6667 22.7235 77.1721 21.8926 76.6422C22.6267 75.2245 23.546 73.3978 24.5201 71.3372C24.5784 71.2145 24.6368 71.0908 24.6951 70.9667C25.1472 70.0033 25.6094 68.9927 26.0684 67.952C26.1231 67.8293 26.1772 67.7056 26.2314 67.5815C26.998 65.8303 27.752 63.9999 28.4337 62.1718C28.5088 62.1491 28.5833 62.1264 28.657 62.1033C29.336 61.8907 29.9436 61.6582 30.4869 61.4113C30.7625 61.2863 31.0214 61.157 31.2645 61.0255C31.5008 60.8977 31.7222 60.7671 31.9296 60.6346C31.9889 60.5966 32.0473 60.5582 32.1043 60.5202C32.1098 60.5165 32.1158 60.5123 32.1214 60.5086C32.2344 60.4327 32.3428 60.3562 32.447 60.2789C32.4544 60.2738 32.4618 60.2682 32.4692 60.2627C32.5697 60.1877 32.6661 60.1126 32.7582 60.0376C32.7684 60.0288 32.7786 60.0205 32.7888 60.0121C32.8337 59.9755 32.8777 59.9389 32.9203 59.9019L32.9259 59.8973C32.9477 59.8783 32.969 59.8593 32.9903 59.8403C34.1505 61.2117 36.5371 63.4001 39.9566 63.4001C43.7188 63.4001 46.2305 60.7513 47.2342 59.4554C47.4801 59.7111 47.7682 59.9681 48.1026 60.2215C48.142 60.2516 48.1827 60.2812 48.2235 60.3113L48.2323 60.3178C48.2726 60.3465 48.3133 60.3757 48.3546 60.4049C48.8497 60.7527 49.4365 61.0908 50.128 61.4053C50.5124 61.5808 50.9292 61.749 51.3813 61.9083C52.0885 63.8239 52.8782 65.746 53.6818 67.5815C53.736 67.7051 53.7902 67.8288 53.8448 67.952C54.3038 68.9932 54.766 70.0038 55.2185 70.9667C55.2769 71.0913 55.3348 71.2145 55.3927 71.3372C56.4459 73.5645 57.4347 75.5191 58.1952 76.9789Z" fill="#FF5B8D"/>
<path d="M55.3931 71.3372H24.5205C24.5789 71.2144 24.6372 71.0908 24.6956 70.9666H55.219C55.2773 71.0912 55.3352 71.2144 55.3931 71.3372Z" fill="white"/>
<path d="M53.8448 67.9519H26.0684C26.123 67.8292 26.1772 67.7055 26.2314 67.5814H53.6817C53.7359 67.705 53.7901 67.8287 53.8448 67.9519Z" fill="white"/>
<path d="M29.1124 36.2957L30.8122 36.0377C30.8122 36.0377 31.2161 33.5288 32.173 33.1675C33.1299 32.8058 34.0603 33.1675 34.0603 33.1675L35.2293 30.7859L35.9736 33.2736H41.0767L41.9057 30.7859L42.2151 33.3162H44.7097L45.2812 30.9985L46.5197 33.5408C46.5197 33.5408 48.2936 32.9887 49.0661 33.6987C49.7252 34.305 49.7915 35.9844 49.7915 35.9844L51.5153 36.2957L51.9044 31.6789C51.9044 31.6789 51.8618 26.4272 48.3751 23.7483C44.888 21.0689 37.6373 20.4525 34.3846 22.1958C31.1313 23.9396 29.7919 26.1498 28.9837 28.755C28.1759 31.3598 29.1124 36.2957 29.1124 36.2957Z" fill="#210B1F"/>
</svg>
