<svg width="72" height="72" viewBox="0 0 72 72" fill="none" xmlns="http://www.w3.org/2000/svg">
<path d="M72 36C72 45.6204 68.2266 54.359 62.0789 60.8172C55.5216 67.7062 46.2622 72 36 72C25.7378 72 16.4789 67.7062 9.92114 60.8172C3.77345 54.359 0 45.6204 0 36C0 16.1179 16.1179 0 36 0C55.8826 0 72 16.1179 72 36Z" fill="#E2E8FF"/>
<path d="M62.0786 60.8172C55.5214 67.7062 46.2619 72 35.9998 72C25.7376 72 16.4786 67.7062 9.9209 60.8172C10.1366 60.2094 10.3717 59.571 10.6205 58.9302C11.5062 56.6522 12.5667 54.3464 13.5544 53.2955C15.6926 51.0209 19.62 51.6432 23.4216 50.8538C23.6801 50.8003 23.9376 50.7401 24.1941 50.6721C25.3989 50.3529 26.3954 49.9681 27.215 49.5493C27.626 49.3394 27.9923 49.1213 28.3183 48.8983C28.4393 48.8157 28.5539 48.7326 28.6637 48.6486C28.7526 48.5815 28.8376 48.5135 28.9198 48.4455C29.7423 47.761 30.2203 47.059 30.4613 46.4453C30.6955 45.8497 30.78 44.4248 30.8019 43.0115C30.8296 41.1969 30.7528 39.4008 30.7528 39.4008L34.5088 37.9054L35.9998 37.3117L38.1602 38.1717L41.2467 39.4008C41.2467 39.4008 41.1602 41.4262 41.204 43.3487C41.2341 44.6463 41.323 45.8968 41.5382 46.4453C41.7656 47.0235 42.2033 47.6813 42.9418 48.3279C43.0807 48.4499 43.2309 48.5713 43.3922 48.6923C43.6676 48.8983 43.9761 49.1019 44.3206 49.2991C44.4683 49.3836 44.6223 49.4672 44.7836 49.5493C45.6036 49.9676 46.6001 50.3524 47.8054 50.6721C48.0051 50.725 48.2053 50.7731 48.4059 50.8168C52.2605 51.6627 56.2749 50.9864 58.4451 53.2955C59.4328 54.3464 60.4938 56.6521 61.379 58.9307C61.6283 59.571 61.8629 60.2094 62.0786 60.8172Z" fill="#9B423E"/>
<path d="M23.4741 24.0715C23.4741 24.0715 23.3138 18.2644 24.1825 14.7208C24.1825 14.7208 20.342 13.0748 21.4162 9.7138C22.4908 6.35283 27.5663 8.13631 27.5663 8.13631C27.5663 8.13631 28.4121 4.08984 31.8644 4.06701C35.3167 4.04418 35.9998 7.26764 35.9998 7.26764C35.9998 7.26764 38.189 5.39284 39.8622 6.03316C41.5354 6.673 41.2468 9.14247 41.2468 9.14247C41.2468 9.14247 42.8617 7.03883 43.8902 7.79333C44.9192 8.54782 44.2788 10.4226 44.2788 10.4226C44.2788 10.4226 47.2798 10.7428 47.5626 11.7941C47.8453 12.846 46.6565 13.9434 46.6565 13.9434C46.6565 13.9434 48.8024 17.7577 48.0513 24.0715H23.4741Z" fill="#210B1F"/>
<path d="M41.2041 43.3487C39.9531 44.333 37.9141 45.5 35.4169 45.328C32.8833 45.1531 31.5021 43.9487 30.802 43.0115C30.8297 41.197 30.7529 39.4008 30.7529 39.4008L34.5089 37.9055C35.7507 37.9963 37.0357 38.0911 38.1604 38.1717L41.2469 39.4008C41.2469 39.4008 41.1604 41.4263 41.2041 43.3487Z" fill="#681111"/>
<path d="M47.563 26.7691C47.563 27.8501 47.496 28.9053 47.3648 29.9246C46.4461 37.0517 42.3763 42.4128 36.0003 42.4128C29.5922 42.4128 25.5131 36.9973 24.6221 29.8158C24.4997 28.8305 24.4375 27.8117 24.4375 26.7691C24.4375 26.345 24.4419 25.9238 24.4511 25.506C24.5594 20.5568 25.3625 16.0712 28.0982 13.3291C29.8404 11.5816 32.3677 10.5424 36.0003 10.5424C39.8713 10.5424 42.4875 11.723 44.2365 13.6828C46.759 16.5094 47.478 20.9571 47.5557 25.8232C47.5606 26.1366 47.563 26.4524 47.563 26.7691Z" fill="#9B423E"/>
<path d="M24.6806 24.2429C24.6806 24.2429 23.5632 22.6882 21.6685 23.3684C19.7738 24.0486 19.9681 27.9352 21.6685 29.3927C23.3689 30.8502 25.0693 29.4899 25.0693 29.4899L24.6806 24.2429Z" fill="#9B423E"/>
<path d="M23.9333 28.9802C23.6763 28.9802 23.3406 28.9074 22.9155 28.6848C22.23 28.3258 21.7325 27.5786 21.7053 26.8683C21.6839 26.3009 21.9526 25.8131 22.4622 25.4944C22.8489 25.2529 23.2342 25.182 23.6073 25.284C24.2807 25.4691 24.6455 26.1614 24.6606 26.1911C24.7223 26.3101 24.6757 26.4568 24.5561 26.518C24.4371 26.5797 24.2909 26.5331 24.2292 26.4146C24.2238 26.4039 23.9411 25.8782 23.4761 25.7524C23.2371 25.6873 22.9893 25.7378 22.7197 25.9064C22.3587 26.1318 22.1761 26.4583 22.1906 26.8499C22.2115 27.3945 22.6021 27.9721 23.1409 28.2544C23.9537 28.68 24.2588 28.4016 24.2617 28.3987L24.2554 28.4055L24.6188 28.7281C24.5853 28.7655 24.3749 28.9802 23.9333 28.9802Z" fill="#681111"/>
<path d="M47.3193 24.2429C47.3193 24.2429 48.4367 22.6882 50.3315 23.3684C52.2262 24.0486 52.0319 27.9352 50.3315 29.3927C48.6311 30.8502 46.9307 29.4899 46.9307 29.4899L47.3193 24.2429Z" fill="#9B423E"/>
<path d="M48.067 28.9802C47.6249 28.9802 47.415 28.7655 47.3815 28.7281L47.7449 28.4055L47.7386 28.3987C47.7415 28.4016 48.0466 28.68 48.8594 28.2544C49.3982 27.9721 49.7888 27.3945 49.8097 26.8499C49.8243 26.4583 49.6416 26.1318 49.2806 25.9064C49.01 25.7373 48.7618 25.6873 48.5218 25.7529C48.0588 25.8797 47.7741 26.4087 47.7712 26.4141C47.7099 26.5331 47.5632 26.5797 47.4442 26.518C47.3247 26.4568 47.278 26.3101 47.3397 26.1911C47.3548 26.1614 47.7197 25.4691 48.393 25.284C48.7661 25.182 49.1514 25.2525 49.5381 25.4944C50.0478 25.8131 50.3164 26.3009 50.295 26.8683C50.2678 27.5786 49.7703 28.3258 49.0848 28.6848C48.6597 28.9074 48.324 28.9802 48.067 28.9802Z" fill="#681111"/>
<path d="M33.5703 32.9878C33.6189 32.9878 38.4286 32.9878 38.4286 32.9878C38.4286 32.9878 38.1857 35.1741 35.9995 35.1741C33.8132 35.1741 33.5703 32.9878 33.5703 32.9878Z" fill="white"/>
<path d="M32.1377 25.8948C32.1377 26.5657 31.8331 27.1094 31.4575 27.1094C31.082 27.1094 30.7773 26.5657 30.7773 25.8948C30.7773 25.2239 31.082 24.6802 31.4575 24.6802C31.8331 24.6802 32.1377 25.2239 32.1377 25.8948Z" fill="#210B1F"/>
<path d="M41.2226 25.8948C41.2226 26.5657 40.918 27.1094 40.5425 27.1094C40.1669 27.1094 39.8623 26.5657 39.8623 25.8948C39.8623 25.2239 40.1669 24.6802 40.5425 24.6802C40.918 24.6802 41.2226 25.2239 41.2226 25.8948Z" fill="#210B1F"/>
<path d="M32.3079 23.5142C32.2195 23.5142 32.134 23.4656 32.0912 23.3815C32.0781 23.3558 31.7915 22.8253 31.0321 22.7849C30.247 22.7436 29.8821 23.2178 29.8787 23.2227C29.7981 23.33 29.646 23.3519 29.5387 23.2712C29.4313 23.1906 29.4094 23.0385 29.4901 22.9312C29.511 22.903 30.0172 22.2452 31.0574 22.3001C32.1097 22.3555 32.5085 23.1299 32.5251 23.1624C32.5853 23.2824 32.5367 23.4287 32.4167 23.4884C32.3817 23.5059 32.3448 23.5142 32.3079 23.5142Z" fill="#210B1F"/>
<path d="M39.6916 23.5132C39.6546 23.5132 39.6172 23.5044 39.5823 23.4869C39.4632 23.4262 39.4151 23.2819 39.4749 23.1624C39.4914 23.1299 39.8903 22.3554 40.9426 22.3001C41.9832 22.2452 42.489 22.903 42.5099 22.9312C42.5905 23.0385 42.5687 23.1906 42.4613 23.2712C42.3539 23.3519 42.2019 23.33 42.1212 23.2227C42.1071 23.2047 41.7408 22.7441 40.9679 22.7849C40.2066 22.8252 39.9204 23.3587 39.9087 23.3815C39.865 23.4651 39.78 23.5132 39.6916 23.5132Z" fill="#210B1F"/>
<path d="M36.1947 30.7532C36.1904 30.7532 36.1855 30.7532 36.1806 30.7527C36.1403 30.7503 35.1949 30.6861 34.899 29.9171C34.8509 29.7917 34.7222 29.4575 35.1609 27.1911C35.3717 26.0994 35.6161 25.0714 35.6185 25.0612C35.6496 24.931 35.7803 24.8503 35.911 24.8814C36.0412 24.912 36.1219 25.0432 36.0908 25.1739C35.6219 27.1439 35.2177 29.3914 35.3528 29.7431C35.5345 30.2154 36.2025 30.2673 36.2088 30.2678C36.3429 30.2756 36.4449 30.3907 36.4372 30.5243C36.4294 30.6536 36.3225 30.7532 36.1947 30.7532Z" fill="#681111"/>
<path d="M26.2598 32.4534H30.5351V28.1781H26.2598V32.4534Z" fill="#9B3A36"/>
<path d="M43.6035 32.4534C42.4229 32.4534 41.4658 31.4963 41.4658 30.3157C41.4658 29.1352 42.4229 28.1781 43.6035 28.1781C44.784 28.1781 45.7411 29.1352 45.7411 30.3157C45.7411 31.4963 44.784 32.4534 43.6035 32.4534Z" fill="#9B3A36"/>
<path d="M61.3796 58.9308C60.7835 59.5235 60.1665 60.0953 59.5306 60.6448C59.4018 60.7565 59.2726 60.8668 59.1419 60.9761C59.1361 60.981 59.1298 60.9863 59.1239 60.9912C58.7149 61.3346 58.298 61.6694 57.8734 61.9939C57.4439 62.3228 57.0072 62.6425 56.5631 62.952C56.4358 63.0409 56.3076 63.1293 56.1788 63.2167C55.6964 63.5437 55.2057 63.859 54.7067 64.1631C54.4906 64.2953 54.2724 64.425 54.0533 64.5518C53.1793 65.06 52.2815 65.5317 51.3628 65.9661C51.2336 66.0273 51.1043 66.0875 50.9741 66.1468C50.0389 66.5753 49.0813 66.9654 48.1048 67.3133C47.9824 67.357 47.8599 67.4002 47.7375 67.442C46.8154 67.7602 45.8773 68.041 44.9236 68.2839C44.8255 68.3092 44.7273 68.334 44.6287 68.3583C44.2881 68.4418 43.9451 68.521 43.6007 68.5949H43.6002C43.4651 68.624 43.3301 68.6522 43.1945 68.6799C43.0653 68.7061 42.9356 68.7319 42.8059 68.7567C41.7006 68.968 40.5769 69.1293 39.4381 69.2367C39.3006 69.2498 39.1626 69.2619 39.0242 69.2736C38.0272 69.3567 37.0187 69.3989 36.0004 69.3989C35.6749 69.3989 35.3503 69.3946 35.0268 69.3858C34.897 69.3824 34.7673 69.3785 34.6381 69.3737C34.4768 69.3678 34.3155 69.3605 34.1547 69.3523C33.6227 69.3256 33.0936 69.2872 32.5675 69.2372C32.5344 69.2342 32.5019 69.2308 32.4689 69.2274C32.3343 69.2148 32.2002 69.2007 32.0666 69.1861C30.7685 69.0452 29.4912 68.8349 28.2387 68.5599C27.7752 68.4579 27.3152 68.3471 26.8585 68.2276C26.7288 68.1941 26.5991 68.1591 26.4698 68.1231C23.7332 67.3745 21.1262 66.31 18.6907 64.9716C18.5605 64.9006 18.4308 64.8282 18.3021 64.7549C18.2797 64.7422 18.2574 64.7296 18.2355 64.717C18.1388 64.6626 18.0431 64.6077 17.9469 64.5518C17.9299 64.5421 17.9134 64.5324 17.8964 64.5222C17.6943 64.4046 17.4941 64.2851 17.2944 64.1631C14.8658 62.6838 12.6266 60.9246 10.6211 58.9303C11.5068 56.6522 12.5673 54.3465 13.555 53.2956C15.6932 51.021 19.6206 51.6433 23.4222 50.8538C23.6807 50.8004 23.9382 50.7401 24.1947 50.6721C25.3995 50.3529 26.396 49.9682 27.2156 49.5494L35.5515 56.2932L35.8653 56.5468L36.0004 56.6561L44.6967 49.6203L44.7842 49.5494C45.6042 49.9677 46.6007 50.3524 47.806 50.6721C48.0057 50.7251 48.2059 50.7732 48.4065 50.8169C52.2611 51.6627 56.2755 50.9865 58.4457 53.2956C59.4334 54.3465 60.4944 56.6522 61.3796 58.9308Z" fill="white"/>
<path d="M62.0786 60.8172C61.2692 61.6674 60.4185 62.4782 59.53 63.2458C59.4012 63.3576 59.272 63.4679 59.1413 63.5772C59.1355 63.582 59.1292 63.5874 59.1233 63.5922C58.7143 63.9357 58.2974 64.2704 57.8728 64.595C57.4433 64.9239 57.0066 65.2436 56.5625 65.553C56.4352 65.6419 56.307 65.7304 56.1782 65.8178C55.6958 66.1448 55.2051 66.4601 54.7061 66.7642C54.49 66.8964 54.2718 67.0261 54.0527 67.1529C53.1787 67.6611 52.2809 68.1328 51.3622 68.5671C51.233 68.6283 51.1037 68.6886 50.9735 68.7479C50.0383 69.1764 49.0807 69.5665 48.1042 69.9143C47.9818 69.9581 47.8593 70.0013 47.7369 70.0431C46.8148 70.3613 45.8767 70.6421 44.923 70.885C44.8249 70.9103 44.7267 70.9351 44.6281 70.9594C44.2875 71.0429 43.9445 71.1221 43.6001 71.196H43.5996C43.4645 71.2251 43.3295 71.2533 43.1939 71.281C43.0647 71.3072 42.935 71.333 42.8053 71.3577C41.7 71.5691 40.5763 71.7304 39.4375 71.8377C39.3 71.8508 39.162 71.863 39.0236 71.8747C38.0266 71.9577 37.0181 72 35.9998 72C35.6743 72 35.3497 71.9956 35.0262 71.9869C34.8964 71.9835 34.7667 71.9796 34.6375 71.9747C34.4762 71.9689 34.3149 71.9616 34.1541 71.9534C33.6221 71.9266 33.093 71.8883 32.5669 71.8382C32.5338 71.8353 32.5013 71.8319 32.4683 71.8285C32.3337 71.8159 32.1996 71.8018 32.066 71.7872C30.7679 71.6463 29.4906 71.436 28.2381 71.161C27.7746 71.059 27.3146 70.9482 26.8579 70.8287C26.7282 70.7951 26.5985 70.7602 26.4692 70.7242C23.7326 69.9755 21.1256 68.9111 18.6901 67.5726C18.5599 67.5017 18.4302 67.4293 18.3015 67.3559C18.2791 67.3433 18.2568 67.3307 18.2349 67.3181C18.1382 67.2636 18.0425 67.2087 17.9463 67.1529C17.9293 67.1432 17.9128 67.1334 17.8958 67.1232C17.6937 67.0057 17.4935 66.8862 17.2938 66.7642C14.8253 65.2606 12.5526 63.4679 10.5219 61.4332C10.3912 61.3025 10.2615 61.1708 10.1332 61.0382C10.0623 60.9649 9.99134 60.891 9.9209 60.8172C9.98989 60.6233 10.0603 60.4261 10.1332 60.2269C10.2576 59.8849 10.3873 59.5365 10.5219 59.1862C10.5476 59.1192 10.5734 59.0517 10.5996 58.9846C10.6496 58.8554 10.7002 58.7257 10.7517 58.596C10.8668 58.3049 10.9849 58.0144 11.1049 57.7273C11.3055 57.2473 11.512 56.7765 11.7223 56.3276C12.3223 55.044 12.952 53.9364 13.5544 53.2955C13.9601 52.8636 14.4309 52.5367 14.9526 52.2841C15.0697 52.2272 15.1897 52.1743 15.3121 52.1247C16.1988 51.7657 17.2142 51.5883 18.3015 51.4645C18.4297 51.4494 18.5594 51.4358 18.6901 51.4222C20.1209 51.276 21.6615 51.1948 23.1879 50.9004C23.3235 50.8742 23.4585 50.8465 23.5936 50.8168C23.615 50.812 23.6368 50.8076 23.6582 50.8023C23.837 50.7629 24.0158 50.7192 24.1941 50.6721C24.4866 50.5943 24.7669 50.5132 25.0351 50.4282C25.0477 50.4243 25.0598 50.4204 25.072 50.4165L35.5509 58.8943L35.8647 59.1479L35.9998 59.2572L44.6961 52.2214L45.0056 51.9712L46.927 50.4165C46.9392 50.4204 46.9518 50.4243 46.9644 50.4282C47.2326 50.5132 47.513 50.5943 47.8054 50.6721C48.0051 50.725 48.2053 50.7731 48.4059 50.8168C49.261 51.0049 50.1243 51.1176 50.9735 51.2045C51.1037 51.2177 51.233 51.2303 51.3622 51.2424C51.934 51.2968 52.4981 51.343 53.047 51.3964C53.1831 51.4091 53.3186 51.4227 53.4532 51.4377C54.0415 51.4999 54.6109 51.5747 55.1517 51.6826C55.6778 51.787 56.1768 51.9221 56.6412 52.1062C57.3267 52.3773 57.9364 52.7543 58.4451 53.2955C58.6744 53.5394 58.9076 53.8513 59.1413 54.2143C59.271 54.4149 59.4007 54.6316 59.53 54.8614C60.1256 55.9176 60.7149 57.2507 61.2478 58.596C61.2993 58.7257 61.3499 58.8554 61.3999 58.9846C61.6414 59.607 61.8692 60.2264 62.0786 60.8172Z" fill="#816AD6"/>
<path d="M58.0653 61.7092L56.7545 64.716C56.637 64.9856 56.5728 65.2684 56.5626 65.5531C56.4353 65.642 56.3071 65.7304 56.1783 65.8179C56.1492 65.3923 56.2225 64.9633 56.3984 64.5605L57.7092 61.5537C57.9574 60.9834 57.9676 60.3513 57.7369 59.7737C57.5061 59.196 57.063 58.7442 56.4903 58.5022L53.4815 57.2318C52.812 56.949 52.2946 56.4214 52.025 55.7466C51.7558 55.0718 51.767 54.3333 52.0575 53.6668L53.0472 51.3965C53.1832 51.4091 53.3187 51.4227 53.4533 51.4378L52.4136 53.8222C52.1649 54.3926 52.1552 55.0247 52.386 55.6023C52.6167 56.1805 53.0598 56.6318 53.6326 56.8737L56.6413 58.1442C57.3108 58.4269 57.8277 58.9545 58.0979 59.6294C58.367 60.3042 58.3558 61.0427 58.0653 61.7092Z" fill="white"/>
<path d="M49.4512 65.1502L48.1405 68.157C47.8951 68.7196 47.882 69.3429 48.104 69.9142C47.9816 69.9579 47.8592 70.0012 47.7367 70.043C47.4826 69.3788 47.4992 68.655 47.7843 68.0015L49.0951 64.9947C49.3434 64.4243 49.3531 63.7923 49.1223 63.2146C48.8916 62.637 48.449 62.1852 47.8757 61.9432L44.8674 60.6728C44.198 60.39 43.6805 59.8624 43.4109 59.1876C43.1413 58.5128 43.1529 57.7743 43.4435 57.1077L44.7333 54.1486C44.9845 53.5724 44.9918 52.9345 44.7547 52.3524C44.7363 52.3078 44.7168 52.264 44.6959 52.2213L45.0054 51.9711C45.0452 52.0469 45.0812 52.1251 45.1142 52.2057C45.3916 52.8854 45.3829 53.6307 45.0895 54.304L43.7996 57.2632C43.5508 57.8336 43.5411 58.4656 43.7719 59.0433C44.0027 59.6214 44.4452 60.0728 45.0185 60.3147L48.0273 61.5852C48.6967 61.8679 49.2137 62.3955 49.4833 63.0703C49.7529 63.7452 49.7418 64.4836 49.4512 65.1502Z" fill="white"/>
<path d="M40.838 68.5915L39.5272 71.5983C39.4927 71.677 39.4631 71.7572 39.4378 71.8378C39.3004 71.851 39.1624 71.8631 39.0239 71.8748C39.0603 71.7285 39.1094 71.5838 39.1706 71.4429L40.4814 68.4361C40.7301 67.8657 40.7399 67.2336 40.5091 66.656C40.2783 66.0783 39.8357 65.6265 39.2625 65.3846L36.2542 64.1141C35.5847 63.8314 35.0673 63.3037 34.7977 62.6289C34.528 61.9541 34.5397 61.2157 34.8298 60.5491L35.5512 58.8944L35.865 59.148L35.1863 60.7046C34.9376 61.2749 34.9279 61.907 35.1587 62.4846C35.3894 63.0628 35.832 63.5141 36.4053 63.7561L39.4136 65.0265C40.083 65.3093 40.6004 65.8369 40.8701 66.5117C41.1397 67.1865 41.128 67.925 40.838 68.5915Z" fill="white"/>
<path d="M19.4423 64.5503L18.2355 67.3181C18.1388 67.2637 18.0431 67.2088 17.9469 67.1529C17.9299 67.1432 17.9134 67.1335 17.8964 67.1233L19.0857 64.3949C19.3369 63.8187 19.3447 63.1808 19.1071 62.5988C18.8695 62.0167 18.4182 61.5664 17.8357 61.3303L15.0159 60.1881C14.3294 59.9102 13.7999 59.3787 13.5244 58.6917C13.2485 58.0043 13.264 57.2541 13.5677 56.5793L14.8196 53.7965C15.0363 53.3145 15.0815 52.7874 14.9532 52.2841C15.0703 52.2273 15.1903 52.1743 15.3128 52.1248C15.4838 52.7316 15.4366 53.3724 15.1743 53.9563L13.9223 56.7387C13.6624 57.3163 13.6488 57.9586 13.8849 58.5469C14.121 59.1348 14.5743 59.59 15.1617 59.8276L17.9814 60.9703C18.6621 61.2457 19.1897 61.7724 19.4671 62.452C19.7445 63.1317 19.7358 63.877 19.4423 64.5503Z" fill="white"/>
<path d="M32.4682 71.8286C32.3336 71.816 32.1995 71.8019 32.0659 71.7873C32.3093 71.2204 32.3175 70.5932 32.0882 70.0199C31.8574 69.4422 31.4149 68.9904 30.8416 68.7485L27.8333 67.478C27.1634 67.1953 26.6464 66.6676 26.3768 65.9928C26.1072 65.318 26.1183 64.5796 26.4089 63.913L27.6992 60.9538C27.9499 60.3776 27.9577 59.7397 27.7201 59.1577C27.483 58.5757 27.0312 58.1253 26.4487 57.8892L23.6289 56.747C22.943 56.4691 22.4129 55.9376 22.1375 55.2502C21.862 54.5632 21.877 53.8131 22.1812 53.1383L23.1878 50.9005C23.3234 50.8743 23.4584 50.8466 23.5935 50.817C23.6149 50.8121 23.6367 50.8077 23.6581 50.8024L22.5354 53.2976C22.2754 53.8753 22.2623 54.5175 22.4979 55.1059C22.734 55.6937 23.1873 56.1489 23.7747 56.3865L26.5945 57.5292C27.2751 57.8047 27.8027 58.3313 28.0801 59.011C28.3575 59.6906 28.3488 60.4359 28.0554 61.1093L26.7655 64.0685C26.5167 64.6388 26.507 65.2709 26.7378 65.8485C26.9686 66.4267 27.4111 66.878 27.9844 67.12L30.9927 68.3904C31.6621 68.6732 32.1796 69.2008 32.4492 69.8756C32.7018 70.5076 32.7077 71.1961 32.4682 71.8286Z" fill="white"/>
<path d="M24.5049 24.0409L26.3316 25.239C26.3316 25.239 26.0114 20.6498 26.5604 18.6531C27.1089 16.6563 28.6786 14.4618 30.1876 14.3855C31.6966 14.3093 33.0497 16.4615 33.6249 17.0834C34.2876 17.7995 36.2464 18.4398 37.7554 17.0984C39.2644 15.757 40.3157 13.9813 41.8704 14.3627C43.5606 14.7766 44.0119 15.6657 44.4846 18.4242C44.9569 21.1833 44.8655 25.3289 44.8655 25.3289L47.4949 24.0404L47.6853 22.2968C47.6853 22.2968 46.3745 15.4067 46.3439 15.3154C46.3133 15.2236 43.2502 11.6727 43.2195 11.6265C43.1889 11.5808 36.9096 9.31008 36.9096 9.31008L30.3859 10.7122L26.027 13.41L24.5049 18.3329V24.0409Z" fill="#210B1F"/>
</svg>
