<svg width="309" height="409" viewBox="0 0 309 409" fill="none" xmlns="http://www.w3.org/2000/svg">
<path d="M72.8507 344.812V352H71.9055V346.64L69.5164 352H68.8516L66.4521 346.63V352H65.5069V344.812H66.5248L69.184 350.754L71.8432 344.812H72.8507ZM74.1006 349.133C74.1006 348.551 74.2184 348.042 74.4538 347.606C74.6893 347.163 75.0113 346.82 75.4198 346.578C75.8353 346.335 76.2958 346.214 76.8014 346.214C77.3 346.214 77.7328 346.322 78.0998 346.536C78.4668 346.751 78.7403 347.021 78.9204 347.346V346.308H79.876V352H78.9204V350.94C78.7334 351.273 78.453 351.55 78.079 351.771C77.712 351.986 77.2826 352.093 76.791 352.093C76.2855 352.093 75.8284 351.969 75.4198 351.72C75.0113 351.47 74.6893 351.121 74.4538 350.67C74.2184 350.22 74.1006 349.708 74.1006 349.133ZM78.9204 349.143C78.9204 348.714 78.8338 348.34 78.6607 348.022C78.4876 347.703 78.2521 347.461 77.9544 347.295C77.6635 347.121 77.3415 347.035 76.9883 347.035C76.6352 347.035 76.3132 347.118 76.0223 347.284C75.7315 347.45 75.4995 347.693 75.3264 348.011C75.1532 348.33 75.0667 348.704 75.0667 349.133C75.0667 349.569 75.1532 349.95 75.3264 350.276C75.4995 350.594 75.7315 350.84 76.0223 351.013C76.3132 351.179 76.6352 351.262 76.9883 351.262C77.3415 351.262 77.6635 351.179 77.9544 351.013C78.2521 350.84 78.4876 350.594 78.6607 350.276C78.8338 349.95 78.9204 349.573 78.9204 349.143ZM82.4187 344.313V352H81.4734V344.313H82.4187ZM89.2234 348.936C89.2234 349.116 89.213 349.306 89.1922 349.507H84.6425C84.6772 350.068 84.8676 350.508 85.2139 350.826C85.567 351.138 85.9929 351.294 86.4915 351.294C86.9001 351.294 87.2394 351.2 87.5095 351.013C87.7865 350.819 87.9804 350.563 88.0912 350.245H89.1091C88.9568 350.792 88.6521 351.238 88.195 351.585C87.738 351.924 87.1701 352.093 86.4915 352.093C85.9514 352.093 85.4666 351.972 85.0373 351.73C84.6149 351.488 84.2825 351.145 84.0401 350.702C83.7977 350.251 83.6765 349.732 83.6765 349.143C83.6765 348.555 83.7942 348.039 84.0297 347.596C84.2651 347.153 84.5941 346.813 85.0165 346.578C85.4458 346.335 85.9375 346.214 86.4915 346.214C87.0317 346.214 87.5095 346.332 87.925 346.567C88.3405 346.803 88.659 347.128 88.8806 347.544C89.1091 347.952 89.2234 348.416 89.2234 348.936ZM88.247 348.738C88.247 348.378 88.1673 348.07 88.0081 347.814C87.8488 347.551 87.6307 347.353 87.3537 347.222C87.0836 347.083 86.7824 347.014 86.45 347.014C85.9721 347.014 85.5636 347.166 85.2242 347.471C84.8918 347.776 84.7014 348.198 84.6529 348.738H88.247Z" fill="#7F85A2"/>
<circle cx="41.8531" cy="348.853" r="6.85306" fill="#E45851"/>
<path d="M148.307 343.76V344.529H145.159V346.97H147.714V347.738H145.159V351H144.214V343.76H148.307ZM154.642 347.936C154.642 348.116 154.631 348.306 154.611 348.507H150.061C150.096 349.068 150.286 349.508 150.632 349.826C150.985 350.138 151.411 350.294 151.91 350.294C152.319 350.294 152.658 350.2 152.928 350.013C153.205 349.819 153.399 349.563 153.51 349.245H154.528C154.375 349.792 154.071 350.238 153.614 350.585C153.156 350.924 152.589 351.093 151.91 351.093C151.37 351.093 150.885 350.972 150.456 350.73C150.033 350.488 149.701 350.145 149.459 349.702C149.216 349.251 149.095 348.732 149.095 348.143C149.095 347.555 149.213 347.039 149.448 346.596C149.684 346.153 150.013 345.813 150.435 345.578C150.864 345.335 151.356 345.214 151.91 345.214C152.45 345.214 152.928 345.332 153.343 345.567C153.759 345.803 154.077 346.128 154.299 346.544C154.528 346.952 154.642 347.416 154.642 347.936ZM153.665 347.738C153.665 347.378 153.586 347.07 153.427 346.814C153.267 346.551 153.049 346.353 152.772 346.222C152.502 346.083 152.201 346.014 151.868 346.014C151.391 346.014 150.982 346.166 150.643 346.471C150.31 346.776 150.12 347.198 150.071 347.738H153.665ZM162.735 345.204C163.178 345.204 163.573 345.297 163.919 345.484C164.265 345.664 164.539 345.938 164.74 346.305C164.94 346.672 165.041 347.119 165.041 347.645V351H164.106V347.78C164.106 347.212 163.964 346.779 163.68 346.481C163.403 346.177 163.026 346.024 162.548 346.024C162.056 346.024 161.665 346.184 161.374 346.502C161.083 346.814 160.938 347.267 160.938 347.863V351H160.003V347.78C160.003 347.212 159.861 346.779 159.577 346.481C159.3 346.177 158.923 346.024 158.445 346.024C157.953 346.024 157.562 346.184 157.271 346.502C156.98 346.814 156.835 347.267 156.835 347.863V351H155.89V345.308H156.835V346.128C157.022 345.831 157.271 345.602 157.583 345.443C157.901 345.283 158.251 345.204 158.632 345.204C159.11 345.204 159.532 345.311 159.899 345.526C160.266 345.741 160.54 346.056 160.72 346.471C160.879 346.069 161.142 345.758 161.509 345.536C161.876 345.315 162.285 345.204 162.735 345.204ZM166.238 348.133C166.238 347.551 166.356 347.042 166.591 346.606C166.827 346.163 167.149 345.82 167.557 345.578C167.973 345.335 168.433 345.214 168.939 345.214C169.438 345.214 169.87 345.322 170.237 345.536C170.604 345.751 170.878 346.021 171.058 346.346V345.308H172.014V351H171.058V349.94C170.871 350.273 170.591 350.55 170.217 350.771C169.85 350.986 169.42 351.093 168.929 351.093C168.423 351.093 167.966 350.969 167.557 350.72C167.149 350.47 166.827 350.121 166.591 349.67C166.356 349.22 166.238 348.708 166.238 348.133ZM171.058 348.143C171.058 347.714 170.971 347.34 170.798 347.022C170.625 346.703 170.39 346.461 170.092 346.295C169.801 346.121 169.479 346.035 169.126 346.035C168.773 346.035 168.451 346.118 168.16 346.284C167.869 346.45 167.637 346.693 167.464 347.011C167.291 347.33 167.204 347.704 167.204 348.133C167.204 348.569 167.291 348.95 167.464 349.276C167.637 349.594 167.869 349.84 168.16 350.013C168.451 350.179 168.773 350.262 169.126 350.262C169.479 350.262 169.801 350.179 170.092 350.013C170.39 349.84 170.625 349.594 170.798 349.276C170.971 348.95 171.058 348.573 171.058 348.143ZM174.556 343.313V351H173.611V343.313H174.556ZM181.361 347.936C181.361 348.116 181.351 348.306 181.33 348.507H176.78C176.815 349.068 177.005 349.508 177.351 349.826C177.705 350.138 178.131 350.294 178.629 350.294C179.038 350.294 179.377 350.2 179.647 350.013C179.924 349.819 180.118 349.563 180.229 349.245H181.247C181.094 349.792 180.79 350.238 180.333 350.585C179.876 350.924 179.308 351.093 178.629 351.093C178.089 351.093 177.604 350.972 177.175 350.73C176.752 350.488 176.42 350.145 176.178 349.702C175.935 349.251 175.814 348.732 175.814 348.143C175.814 347.555 175.932 347.039 176.167 346.596C176.403 346.153 176.732 345.813 177.154 345.578C177.583 345.335 178.075 345.214 178.629 345.214C179.169 345.214 179.647 345.332 180.063 345.567C180.478 345.803 180.797 346.128 181.018 346.544C181.247 346.952 181.361 347.416 181.361 347.936ZM180.385 347.738C180.385 347.378 180.305 347.07 180.146 346.814C179.986 346.551 179.768 346.353 179.491 346.222C179.221 346.083 178.92 346.014 178.588 346.014C178.11 346.014 177.701 346.166 177.362 346.471C177.029 346.776 176.839 347.198 176.791 347.738H180.385Z" fill="#7F85A2"/>
<circle cx="120.56" cy="348.853" r="6.85306" fill="#423FC6"/>
<path d="M240.203 354.073C239.532 354.073 238.919 353.917 238.365 353.605C237.811 353.287 237.371 352.847 237.046 352.286C236.727 351.718 236.568 351.081 236.568 350.375C236.568 349.668 236.727 349.035 237.046 348.474C237.371 347.906 237.811 347.466 238.365 347.155C238.919 346.836 239.532 346.677 240.203 346.677C240.882 346.677 241.498 346.836 242.052 347.155C242.606 347.466 243.043 347.903 243.361 348.464C243.68 349.024 243.839 349.662 243.839 350.375C243.839 351.088 243.68 351.725 243.361 352.286C243.043 352.847 242.606 353.287 242.052 353.605C241.498 353.917 240.882 354.073 240.203 354.073ZM240.203 353.252C240.709 353.252 241.162 353.134 241.564 352.899C241.973 352.663 242.291 352.328 242.52 351.891C242.755 351.455 242.873 350.95 242.873 350.375C242.873 349.793 242.755 349.288 242.52 348.858C242.291 348.422 241.976 348.086 241.574 347.851C241.173 347.615 240.716 347.497 240.203 347.497C239.691 347.497 239.234 347.615 238.832 347.851C238.431 348.086 238.112 348.422 237.877 348.858C237.648 349.288 237.534 349.793 237.534 350.375C237.534 350.95 237.648 351.455 237.877 351.891C238.112 352.328 238.431 352.663 238.832 352.899C239.241 353.134 239.698 353.252 240.203 353.252ZM246.24 349.087V352.442C246.24 352.719 246.299 352.916 246.416 353.034C246.534 353.145 246.738 353.2 247.029 353.2H247.725V354H246.873C246.347 354 245.952 353.879 245.689 353.636C245.426 353.394 245.295 352.996 245.295 352.442V349.087H244.557V348.308H245.295V346.874H246.24V348.308H247.725V349.087H246.24ZM251.696 348.204C252.125 348.204 252.513 348.297 252.859 348.484C253.205 348.664 253.476 348.938 253.669 349.305C253.87 349.672 253.971 350.119 253.971 350.645V354H253.036V350.78C253.036 350.212 252.894 349.779 252.61 349.481C252.326 349.177 251.938 349.024 251.447 349.024C250.948 349.024 250.55 349.18 250.252 349.492C249.961 349.803 249.816 350.257 249.816 350.853V354H248.87V346.313H249.816V349.118C250.003 348.827 250.259 348.602 250.584 348.443C250.917 348.283 251.287 348.204 251.696 348.204ZM260.708 350.936C260.708 351.116 260.698 351.306 260.677 351.507H256.128C256.162 352.068 256.353 352.508 256.699 352.826C257.052 353.138 257.478 353.294 257.977 353.294C258.385 353.294 258.724 353.2 258.995 353.013C259.272 352.819 259.465 352.563 259.576 352.245H260.594C260.442 352.792 260.137 353.238 259.68 353.585C259.223 353.924 258.655 354.093 257.977 354.093C257.436 354.093 256.952 353.972 256.522 353.73C256.1 353.488 255.768 353.145 255.525 352.702C255.283 352.251 255.162 351.732 255.162 351.143C255.162 350.555 255.279 350.039 255.515 349.596C255.75 349.153 256.079 348.813 256.502 348.578C256.931 348.335 257.423 348.214 257.977 348.214C258.517 348.214 258.995 348.332 259.41 348.567C259.826 348.803 260.144 349.128 260.366 349.544C260.594 349.952 260.708 350.416 260.708 350.936ZM259.732 350.738C259.732 350.378 259.652 350.07 259.493 349.814C259.334 349.551 259.116 349.353 258.839 349.222C258.569 349.083 258.267 349.014 257.935 349.014C257.457 349.014 257.049 349.166 256.709 349.471C256.377 349.776 256.186 350.198 256.138 350.738H259.732ZM262.901 349.232C263.068 348.907 263.303 348.654 263.608 348.474C263.919 348.294 264.297 348.204 264.74 348.204V349.18H264.491C263.431 349.18 262.901 349.755 262.901 350.905V354H261.956V348.308H262.901V349.232Z" fill="#7F85A2"/>
<circle cx="213.267" cy="348.853" r="6.85306" fill="#FDDE69"/>
<g filter="url(#filter0_d_2578_9725)">
<path fill-rule="evenodd" clip-rule="evenodd" d="M57.6122 227.129C81.5494 282.818 146.11 308.559 201.813 284.621C257.517 260.683 283.269 196.132 259.332 140.442C235.395 84.7518 170.834 59.0111 115.13 82.9485C59.4266 106.887 33.6755 171.438 57.6122 227.129ZM221.489 191.209C225.61 156.368 200.69 124.783 165.828 120.664C130.965 116.544 99.3613 141.449 95.2394 176.292C91.1173 211.134 116.038 242.718 150.9 246.838C185.763 250.957 217.366 226.052 221.489 191.209Z" fill="#7947F7"/>
</g>
<g filter="url(#filter1_d_2578_9725)">
<path fill-rule="evenodd" clip-rule="evenodd" d="M161.774 79.4893C147.294 79.4829 132.575 82.3579 118.427 88.4377C62.7236 112.376 36.9723 176.927 60.9092 232.617C84.8459 288.308 149.407 314.048 205.11 290.11C236.204 276.748 257.966 250.731 266.961 220.664L222.944 206.139C214.762 235.919 185.821 256.064 154.198 252.327C119.335 248.207 94.4142 216.623 98.5361 181.781C102.366 149.406 129.922 125.611 161.774 125.707V79.4893ZM271.565 190.686V187.736C271.578 188.72 271.578 189.704 271.565 190.686Z" fill="#FF2F5E"/>
</g>
<g filter="url(#filter2_d_2578_9725)">
<path fill-rule="evenodd" clip-rule="evenodd" d="M159.085 304.908C122.403 303.755 87.127 284.303 67.3217 250.269C36.7693 197.765 54.6028 130.443 107.155 99.8977C123.666 90.3012 141.641 85.477 159.476 85.0021L162.031 84.9937L162.171 131.286C162.17 131.286 162.17 131.286 162.17 131.286C126.972 131.403 98.5244 159.997 98.6306 195.153C98.7366 230.309 127.356 258.714 162.554 258.598C171.327 258.569 179.68 256.771 187.276 253.543L205.424 296.226C192.891 301.555 179.785 304.386 166.733 304.883L159.085 304.908Z" fill="#FF8831"/>
</g>
<g filter="url(#filter3_d_2578_9725)">
<circle cx="233.114" cy="106.936" r="27.4476" fill="white"/>
</g>
<g filter="url(#filter4_d_2578_9725)">
<circle cx="233.114" cy="277.111" r="27.4476" fill="white"/>
</g>
<g filter="url(#filter5_d_2578_9725)">
<circle cx="57.4476" cy="211.237" r="27.4476" fill="white"/>
</g>
<path d="M221.421 99.495L217.708 108.056H216.172L219.925 99.6552H214.983V98.3598H221.421V99.495ZM222.724 103.061C222.724 101.521 222.982 100.319 223.498 99.4549C224.024 98.5824 224.923 98.1461 226.196 98.1461C227.469 98.1461 228.364 98.5824 228.88 99.4549C229.406 100.319 229.668 101.521 229.668 103.061C229.668 104.619 229.406 105.839 228.88 106.72C228.364 107.593 227.469 108.029 226.196 108.029C224.923 108.029 224.024 107.593 223.498 106.72C222.982 105.839 222.724 104.619 222.724 103.061ZM228.173 103.061C228.173 102.34 228.124 101.73 228.026 101.231C227.937 100.733 227.75 100.327 227.465 100.016C227.18 99.6953 226.757 99.535 226.196 99.535C225.635 99.535 225.212 99.6953 224.927 100.016C224.642 100.327 224.451 100.733 224.353 101.231C224.264 101.73 224.22 102.34 224.22 103.061C224.22 103.809 224.264 104.436 224.353 104.944C224.442 105.451 224.629 105.861 224.914 106.173C225.208 106.484 225.635 106.64 226.196 106.64C226.757 106.64 227.18 106.484 227.465 106.173C227.759 105.861 227.95 105.451 228.039 104.944C228.128 104.436 228.173 103.809 228.173 103.061ZM231.039 100.67C231.039 100.02 231.226 99.5128 231.6 99.1477C231.983 98.7738 232.472 98.5868 233.069 98.5868C233.666 98.5868 234.151 98.7738 234.525 99.1477C234.908 99.5128 235.099 100.02 235.099 100.67C235.099 101.32 234.908 101.832 234.525 102.206C234.151 102.58 233.666 102.767 233.069 102.767C232.472 102.767 231.983 102.58 231.6 102.206C231.226 101.832 231.039 101.32 231.039 100.67ZM239.186 98.7604L233.857 108.056H232.361L237.69 98.7604H239.186ZM233.069 99.5083C232.508 99.5083 232.228 99.8956 232.228 100.67C232.228 101.454 232.508 101.845 233.069 101.845C233.336 101.845 233.541 101.752 233.683 101.565C233.835 101.369 233.91 101.071 233.91 100.67C233.91 99.8956 233.63 99.5083 233.069 99.5083ZM236.475 106.133C236.475 105.483 236.662 104.975 237.036 104.61C237.418 104.236 237.908 104.049 238.505 104.049C239.092 104.049 239.573 104.236 239.947 104.61C240.33 104.975 240.521 105.483 240.521 106.133C240.521 106.782 240.33 107.294 239.947 107.668C239.573 108.042 239.092 108.229 238.505 108.229C237.908 108.229 237.418 108.042 237.036 107.668C236.662 107.294 236.475 106.782 236.475 106.133ZM238.491 104.971C237.93 104.971 237.65 105.358 237.65 106.133C237.65 106.907 237.93 107.294 238.491 107.294C239.052 107.294 239.333 106.907 239.333 106.133C239.333 105.358 239.052 104.971 238.491 104.971Z" fill="black"/>
<path d="M220.486 274.045C220.388 273.635 220.21 273.328 219.952 273.123C219.693 272.919 219.333 272.816 218.87 272.816C218.166 272.816 217.641 273.088 217.294 273.631C216.947 274.165 216.764 275.056 216.746 276.302C216.978 275.91 217.316 275.608 217.761 275.394C218.206 275.18 218.687 275.073 219.204 275.073C219.791 275.073 220.308 275.202 220.753 275.461C221.207 275.71 221.559 276.075 221.808 276.556C222.066 277.037 222.195 277.611 222.195 278.279C222.195 278.902 222.071 279.458 221.821 279.948C221.581 280.438 221.22 280.825 220.74 281.11C220.259 281.386 219.68 281.524 219.003 281.524C218.086 281.524 217.365 281.324 216.84 280.923C216.323 280.513 215.958 279.939 215.745 279.2C215.54 278.461 215.438 277.54 215.438 276.436C215.438 273.177 216.586 271.548 218.883 271.548C219.773 271.548 220.472 271.788 220.98 272.269C221.496 272.75 221.799 273.342 221.888 274.045H220.486ZM218.87 276.355C218.327 276.355 217.864 276.52 217.481 276.85C217.107 277.17 216.92 277.638 216.92 278.252C216.92 278.866 217.094 279.356 217.441 279.721C217.797 280.077 218.291 280.255 218.923 280.255C219.484 280.255 219.925 280.082 220.245 279.734C220.575 279.387 220.74 278.924 220.74 278.345C220.74 277.74 220.579 277.259 220.259 276.903C219.947 276.538 219.484 276.355 218.87 276.355ZM223.819 276.529C223.819 274.989 224.077 273.787 224.594 272.923C225.119 272.051 226.018 271.614 227.292 271.614C228.565 271.614 229.46 272.051 229.976 272.923C230.501 273.787 230.764 274.989 230.764 276.529C230.764 278.087 230.501 279.307 229.976 280.188C229.46 281.061 228.565 281.497 227.292 281.497C226.018 281.497 225.119 281.061 224.594 280.188C224.077 279.307 223.819 278.087 223.819 276.529ZM229.268 276.529C229.268 275.808 229.219 275.198 229.121 274.699C229.032 274.201 228.845 273.796 228.56 273.484C228.275 273.164 227.853 273.003 227.292 273.003C226.731 273.003 226.308 273.164 226.023 273.484C225.738 273.796 225.547 274.201 225.449 274.699C225.36 275.198 225.315 275.808 225.315 276.529C225.315 277.277 225.36 277.905 225.449 278.412C225.538 278.92 225.725 279.329 226.01 279.641C226.303 279.952 226.731 280.108 227.292 280.108C227.853 280.108 228.275 279.952 228.56 279.641C228.854 279.329 229.046 278.92 229.135 278.412C229.224 277.905 229.268 277.277 229.268 276.529ZM232.135 274.138C232.135 273.489 232.322 272.981 232.695 272.616C233.078 272.242 233.568 272.055 234.165 272.055C234.761 272.055 235.246 272.242 235.62 272.616C236.003 272.981 236.195 273.489 236.195 274.138C236.195 274.788 236.003 275.3 235.62 275.674C235.246 276.048 234.761 276.235 234.165 276.235C233.568 276.235 233.078 276.048 232.695 275.674C232.322 275.3 232.135 274.788 232.135 274.138ZM240.281 272.229L234.953 281.524H233.457L238.785 272.229H240.281ZM234.165 272.977C233.604 272.977 233.323 273.364 233.323 274.138C233.323 274.922 233.604 275.314 234.165 275.314C234.432 275.314 234.636 275.22 234.779 275.033C234.93 274.837 235.006 274.539 235.006 274.138C235.006 273.364 234.725 272.977 234.165 272.977ZM237.57 279.601C237.57 278.951 237.757 278.443 238.131 278.078C238.514 277.704 239.004 277.517 239.6 277.517C240.188 277.517 240.669 277.704 241.042 278.078C241.425 278.443 241.617 278.951 241.617 279.601C241.617 280.251 241.425 280.763 241.042 281.137C240.669 281.511 240.188 281.698 239.6 281.698C239.004 281.698 238.514 281.511 238.131 281.137C237.757 280.763 237.57 280.251 237.57 279.601ZM239.587 278.439C239.026 278.439 238.745 278.826 238.745 279.601C238.745 280.375 239.026 280.763 239.587 280.763C240.148 280.763 240.428 280.375 240.428 279.601C240.428 278.826 240.148 278.439 239.587 278.439Z" fill="black"/>
<path d="M44.7638 205.027H40.2898V207.685C40.4768 207.435 40.7528 207.226 41.1178 207.057C41.4918 206.888 41.888 206.803 42.3065 206.803C43.0543 206.803 43.6598 206.963 44.1228 207.284C44.5946 207.605 44.9285 208.01 45.1244 208.499C45.3292 208.989 45.4316 209.505 45.4316 210.049C45.4316 210.707 45.3025 211.295 45.0443 211.811C44.795 212.319 44.4166 212.72 43.9091 213.013C43.4105 213.307 42.7961 213.454 42.0661 213.454C41.0956 213.454 40.3165 213.214 39.7289 212.733C39.1413 212.252 38.7896 211.616 38.6738 210.823H40.1563C40.2542 211.242 40.4723 211.575 40.8107 211.825C41.149 212.065 41.5719 212.185 42.0794 212.185C42.7116 212.185 43.1834 211.994 43.4951 211.611C43.8156 211.228 43.9759 210.721 43.9759 210.089C43.9759 209.448 43.8156 208.958 43.4951 208.62C43.1745 208.272 42.7027 208.099 42.0794 208.099C41.6431 208.099 41.2736 208.21 40.9709 208.433C40.6771 208.646 40.4634 208.94 40.3299 209.314H38.8875V203.691H44.7638V205.027ZM46.9898 206.122C47.0432 205.294 47.3592 204.649 47.938 204.186C48.5256 203.723 49.2735 203.491 50.1817 203.491C50.8049 203.491 51.3436 203.602 51.7976 203.825C52.2517 204.048 52.5945 204.35 52.826 204.733C53.0575 205.116 53.1732 205.548 53.1732 206.029C53.1732 206.581 53.0263 207.052 52.7325 207.444C52.4387 207.836 52.087 208.099 51.6774 208.232V208.286C52.2027 208.446 52.6123 208.74 52.9061 209.167C53.1999 209.586 53.3468 210.124 53.3468 210.783C53.3468 211.308 53.2266 211.776 52.9862 212.185C52.7459 212.595 52.3897 212.92 51.9178 213.16C51.4459 213.392 50.8806 213.508 50.2217 213.508C49.2601 213.508 48.4677 213.263 47.8445 212.773C47.2301 212.274 46.9007 211.562 46.8562 210.636H48.3253C48.3609 211.108 48.5434 211.495 48.8728 211.798C49.2023 212.092 49.6474 212.239 50.2084 212.239C50.7515 212.239 51.1699 212.092 51.4638 211.798C51.7576 211.495 51.9045 211.108 51.9045 210.636C51.9045 210.013 51.7041 209.572 51.3035 209.314C50.9117 209.047 50.3063 208.913 49.4872 208.913H49.1399V207.658H49.5005C50.2217 207.649 50.7693 207.529 51.1432 207.297C51.5261 207.066 51.7175 206.701 51.7175 206.202C51.7175 205.775 51.5795 205.437 51.3035 205.187C51.0275 204.929 50.6357 204.8 50.1282 204.8C49.6296 204.8 49.2423 204.929 48.9663 205.187C48.6903 205.437 48.5256 205.748 48.4722 206.122H46.9898ZM54.7057 206.069C54.7057 205.419 54.8927 204.911 55.2667 204.546C55.6495 204.172 56.1392 203.985 56.7357 203.985C57.3323 203.985 57.8175 204.172 58.1914 204.546C58.5743 204.911 58.7657 205.419 58.7657 206.069C58.7657 206.719 58.5743 207.231 58.1914 207.605C57.8175 207.978 57.3323 208.165 56.7357 208.165C56.1392 208.165 55.6495 207.978 55.2667 207.605C54.8927 207.231 54.7057 206.719 54.7057 206.069ZM62.8524 204.159L57.5237 213.454H56.0279L61.3566 204.159H62.8524ZM56.7357 204.907C56.1748 204.907 55.8943 205.294 55.8943 206.069C55.8943 206.852 56.1748 207.244 56.7357 207.244C57.0028 207.244 57.2076 207.15 57.3501 206.963C57.5014 206.768 57.5771 206.469 57.5771 206.069C57.5771 205.294 57.2966 204.907 56.7357 204.907ZM60.1413 211.531C60.1413 210.881 60.3283 210.373 60.7022 210.008C61.0851 209.635 61.5748 209.448 62.1713 209.448C62.7589 209.448 63.2397 209.635 63.6137 210.008C63.9965 210.373 64.1879 210.881 64.1879 211.531C64.1879 212.181 63.9965 212.693 63.6137 213.067C63.2397 213.441 62.7589 213.628 62.1713 213.628C61.5748 213.628 61.0851 213.441 60.7022 213.067C60.3283 212.693 60.1413 212.181 60.1413 211.531ZM62.1579 210.369C61.597 210.369 61.3166 210.756 61.3166 211.531C61.3166 212.306 61.597 212.693 62.1579 212.693C62.7189 212.693 62.9993 212.306 62.9993 211.531C62.9993 210.756 62.7189 210.369 62.1579 210.369Z" fill="black"/>
<path d="M108.576 10.416C108.576 13.616 111.136 16.144 114.32 16.144C116.64 16.144 118.288 15.104 118.288 15.104C118.352 15.056 118.416 14.928 118.416 14.848L118.4 10.544C118.4 10.384 118.272 10.24 118.112 10.24H114.896C114.72 10.24 114.592 10.368 114.592 10.544V12.128C114.592 12.288 114.72 12.416 114.896 12.416H115.904V13.344C115.424 13.536 114.944 13.6 114.48 13.6C112.736 13.6 111.312 12.16 111.312 10.416C111.312 8.656 112.72 7.184 114.464 7.184C115.248 7.184 115.952 7.392 116.56 7.952C116.688 8.048 116.864 8.048 116.992 7.936L118.256 6.592C118.384 6.464 118.368 6.272 118.224 6.16C117.136 5.216 115.664 4.656 114.32 4.656C111.136 4.656 108.576 7.216 108.576 10.416ZM119.447 12.8C119.447 14.64 120.887 16.16 122.791 16.16C123.799 16.16 124.599 15.808 125.159 15.248C125.303 15.104 125.271 14.912 125.175 14.784L124.375 13.824C124.279 13.712 124.119 13.712 123.975 13.824C123.719 14.016 123.255 14.208 122.855 14.208C122.023 14.208 121.671 13.584 121.623 13.152H125.463C125.607 13.152 125.751 13.04 125.767 12.88C125.783 12.768 125.799 12.56 125.799 12.448C125.799 10.688 124.391 9.44 122.759 9.44C120.871 9.44 119.447 10.992 119.447 12.8ZM121.831 11.904C121.895 11.488 122.263 11.152 122.695 11.152C123.111 11.152 123.511 11.488 123.543 11.904H121.831ZM126.958 15.696C126.958 15.856 127.102 16 127.262 16H128.942C129.166 16 129.23 15.84 129.23 15.696V12.624C129.23 11.968 129.806 11.504 130.446 11.504C131.166 11.504 131.534 12.064 131.534 12.704V15.696C131.534 15.856 131.662 16 131.838 16H133.55C133.71 16 133.854 15.856 133.854 15.696V12.784C133.854 10.96 132.798 9.44 130.814 9.44C129.646 9.44 128.91 10.048 128.558 10.432L128.302 9.792C128.254 9.68 128.11 9.6 128.014 9.6H127.262C127.102 9.6 126.958 9.728 126.958 9.904V15.696ZM134.947 12.8C134.947 14.64 136.307 16.16 138.115 16.16C139.523 16.16 140.259 15.152 140.259 15.152L140.451 15.68C140.515 15.856 140.627 16 140.787 16H141.539C141.699 16 141.843 15.856 141.843 15.696V5.104C141.843 4.944 141.699 4.8 141.539 4.8H139.763C139.603 4.8 139.459 4.944 139.459 5.104V9.744C139.267 9.632 138.675 9.44 138.131 9.44C136.419 9.44 134.947 10.544 134.947 12.8ZM137.139 12.784C137.139 12.064 137.699 11.504 138.435 11.504C139.171 11.504 139.715 12.064 139.715 12.784C139.715 13.52 139.171 14.096 138.435 14.096C137.699 14.096 137.139 13.52 137.139 12.784ZM143.087 12.8C143.087 14.64 144.527 16.16 146.431 16.16C147.439 16.16 148.239 15.808 148.799 15.248C148.943 15.104 148.911 14.912 148.815 14.784L148.015 13.824C147.919 13.712 147.759 13.712 147.615 13.824C147.359 14.016 146.895 14.208 146.495 14.208C145.663 14.208 145.311 13.584 145.263 13.152H149.103C149.247 13.152 149.391 13.04 149.407 12.88C149.423 12.768 149.439 12.56 149.439 12.448C149.439 10.688 148.031 9.44 146.399 9.44C144.511 9.44 143.087 10.992 143.087 12.8ZM145.471 11.904C145.535 11.488 145.903 11.152 146.335 11.152C146.751 11.152 147.151 11.488 147.183 11.904H145.471ZM150.598 15.696C150.598 15.856 150.742 16 150.902 16H152.534C152.79 16 152.886 15.888 152.886 15.696V12.384C152.886 11.84 153.254 11.472 153.734 11.472C153.878 11.472 154.038 11.52 154.118 11.552C154.294 11.616 154.406 11.52 154.47 11.408L155.254 10.128C155.478 9.76 154.854 9.44 153.974 9.44C153.142 9.44 152.55 10.032 152.23 10.496L151.942 9.792C151.894 9.696 151.83 9.6 151.654 9.6H150.902C150.742 9.6 150.598 9.728 150.598 9.904V15.696ZM160.157 15.696C160.157 15.856 160.285 16 160.461 16H162.365C162.525 16 162.669 15.856 162.669 15.696V11.616H163.773L165.901 15.856C165.933 15.92 166.029 16 166.157 16H168.285C168.557 16 168.669 15.744 168.557 15.536L166.365 11.472C167.757 10.912 168.733 9.728 168.733 8.256C168.733 6.352 167.165 4.8 165.245 4.8H160.461C160.285 4.8 160.157 4.944 160.157 5.104V15.696ZM162.669 9.584V7.088H165.037C165.693 7.088 166.253 7.632 166.253 8.304C166.253 8.976 165.693 9.584 165.037 9.584H162.669ZM169.463 14.048C169.463 15.312 170.407 16.16 171.671 16.16C172.679 16.16 173.239 15.696 173.607 15.36L173.831 15.792C173.911 15.968 174.023 16 174.119 16H174.823C174.983 16 175.127 15.856 175.127 15.696V12.16C175.127 10.272 174.407 9.44 172.423 9.44C171.559 9.44 170.439 9.632 170.295 9.68C170.151 9.728 170.007 9.84 170.055 10.112L170.199 11.12C170.231 11.36 170.343 11.536 170.583 11.456C170.999 11.328 171.751 11.216 172.183 11.216C172.951 11.216 173.047 11.536 173.047 12.16C173.047 12.16 172.535 11.904 171.815 11.904C170.359 11.904 169.463 12.816 169.463 14.048ZM171.543 13.888C171.543 13.52 171.847 13.216 172.231 13.216C172.615 13.216 172.919 13.52 172.935 13.888C172.935 14.272 172.615 14.592 172.231 14.592C171.847 14.592 171.543 14.272 171.543 13.888ZM177.011 13.936C177.011 15.392 177.715 16.16 178.931 16.16C179.731 16.16 180.867 15.808 180.867 15.808C181.027 15.76 181.107 15.584 181.075 15.44L180.723 14.112C180.675 13.936 180.531 13.872 180.371 13.904C180.211 13.936 179.971 14.016 179.747 14.016C179.555 14.016 179.315 13.984 179.315 13.632V11.632H180.499C180.675 11.632 180.803 11.488 180.803 11.328V9.904C180.803 9.728 180.675 9.6 180.499 9.6H179.315V7.824C179.315 7.664 179.187 7.52 179.027 7.52H177.315C177.155 7.52 177.011 7.664 177.011 7.824V9.6H176.595C176.435 9.6 176.307 9.728 176.307 9.904V11.328C176.307 11.488 176.435 11.632 176.595 11.632H177.011V13.936ZM183.423 7.664C184.127 7.664 184.703 7.104 184.703 6.4C184.703 5.696 184.127 5.12 183.423 5.12C182.719 5.12 182.159 5.696 182.159 6.4C182.159 7.104 182.719 7.664 183.423 7.664ZM182.255 15.696C182.255 15.856 182.399 16 182.559 16H184.319C184.479 16 184.623 15.856 184.623 15.696V9.904C184.623 9.728 184.479 9.6 184.319 9.6H182.559C182.399 9.6 182.255 9.728 182.255 9.904V15.696ZM185.852 12.784C185.852 14.624 187.356 16.16 189.18 16.16C191.004 16.16 192.508 14.624 192.508 12.784C192.508 10.976 191.004 9.44 189.18 9.44C187.356 9.44 185.852 10.976 185.852 12.784ZM187.916 12.784C187.916 12.08 188.476 11.504 189.18 11.504C189.884 11.504 190.444 12.08 190.444 12.784C190.444 13.504 189.884 14.096 189.18 14.096C188.476 14.096 187.916 13.504 187.916 12.784Z" fill="#1E1F20"/>
<path d="M56.552 391.696C56.552 391.856 56.68 392 56.856 392H63.256C63.432 392 63.56 391.856 63.56 391.696V390.816C63.56 390.656 63.432 390.512 63.256 390.512H58.2V387.072H62.472C62.632 387.072 62.776 386.944 62.776 386.768V385.872C62.776 385.712 62.632 385.568 62.472 385.568H58.2V382.304H63.256C63.432 382.304 63.56 382.16 63.56 382V381.104C63.56 380.944 63.432 380.8 63.256 380.8H56.856C56.68 380.8 56.552 380.944 56.552 381.104V391.696ZM65.2275 391.696C65.2275 391.856 65.3715 392 65.5315 392H66.3635C66.6355 392 66.7315 391.904 66.7315 391.696V387.792C66.8115 387.568 67.4995 386.832 68.5075 386.832C69.3395 386.832 69.8355 387.392 69.8355 388.416V391.696C69.8355 391.856 69.9635 392 70.1395 392H71.0515C71.2115 392 71.3555 391.856 71.3555 391.696V388.48C71.3555 386.816 70.6355 385.44 68.6835 385.44C67.4035 385.44 66.5555 386.208 66.4435 386.336L66.2515 385.792C66.2195 385.68 66.1235 385.6 65.9955 385.6H65.5315C65.3715 385.6 65.2275 385.744 65.2275 385.904V391.696ZM73.0645 391.504C73.4005 391.776 74.1045 392.16 75.1765 392.16C76.6005 392.16 77.5445 391.28 77.5445 390.288C77.5445 389.088 76.5845 388.592 75.4165 388.08C74.7925 387.808 74.3925 387.632 74.3925 387.216C74.3925 386.976 74.5685 386.736 75.1125 386.736C75.7205 386.736 76.4245 387.072 76.4245 387.072C76.5525 387.136 76.7605 387.088 76.8405 386.944L77.1285 386.4C77.2245 386.24 77.1445 386.032 77.0005 385.936C76.6805 385.728 76.0085 385.44 75.1125 385.44C73.5765 385.44 72.9205 386.4 72.9205 387.2C72.9205 388.256 73.7525 388.864 74.7445 389.296C75.6245 389.696 75.9765 389.904 75.9765 390.336C75.9765 390.688 75.6725 390.88 75.1925 390.88C74.4085 390.88 73.7045 390.464 73.7045 390.464C73.5445 390.368 73.3685 390.416 73.3045 390.544L72.9685 391.168C72.9045 391.296 72.9685 391.44 73.0645 391.504ZM78.9909 389.136C78.9909 390.8 79.6629 392.16 81.5829 392.16C82.8789 392.16 83.5509 391.408 83.6949 391.28L83.8549 391.744C83.9029 391.888 83.9829 392 84.1429 392H84.5909C84.7509 392 84.8949 391.856 84.8949 391.696V385.904C84.8949 385.744 84.7509 385.6 84.5909 385.6H83.7589C83.5349 385.6 83.4069 385.648 83.4069 385.904V389.728C83.3589 390.016 82.7669 390.784 81.8229 390.784C81.0069 390.784 80.5109 390.224 80.5109 389.184V385.904C80.5109 385.744 80.3669 385.6 80.2069 385.6H79.2949C79.1349 385.6 78.9909 385.744 78.9909 385.904V389.136ZM86.9775 391.696C86.9775 391.856 87.1215 392 87.2815 392H88.0495C88.3055 392 88.4815 391.968 88.4815 391.696V387.632C88.5455 387.52 88.9935 386.848 89.9215 386.848C90.1295 386.848 90.3695 386.912 90.4655 386.96C90.6095 387.024 90.7695 386.992 90.8495 386.816L91.2335 386.032C91.4095 385.6 90.6735 385.44 90.0655 385.44C88.8975 385.44 88.3055 386.208 88.1935 386.368L88.0175 385.824C87.9855 385.696 87.8575 385.6 87.7455 385.6H87.2815C87.1215 385.6 86.9775 385.744 86.9775 385.904V391.696ZM91.8416 388.8C91.8416 390.64 93.1216 392.16 95.0576 392.16C96.1296 392.16 96.9616 391.76 97.4256 391.36C97.6176 391.2 97.5696 391.072 97.4576 390.944L97.0096 390.336C96.8816 390.176 96.7696 390.24 96.5776 390.352C96.2576 390.56 95.7296 390.816 95.1536 390.816C94.1136 390.816 93.3616 389.968 93.3136 389.104H97.6656C97.8096 389.104 97.9376 388.992 97.9536 388.832C97.9696 388.72 97.9856 388.512 97.9856 388.4C97.9856 386.688 96.7056 385.44 95.0416 385.44C93.1216 385.44 91.8416 386.992 91.8416 388.8ZM93.3936 388.096C93.4896 387.296 94.1616 386.672 95.0256 386.672C95.8096 386.672 96.4496 387.328 96.4976 388.096H93.3936ZM103.04 391.696C103.04 391.856 103.184 392 103.344 392H104.24C104.4 392 104.544 391.856 104.544 391.696V387.792C104.624 387.584 105.168 386.832 106.128 386.832C107.024 386.832 107.488 387.392 107.488 388.416V391.696C107.488 391.856 107.616 392 107.792 392H108.64C108.8 392 108.944 391.856 108.944 391.696V388.384C108.944 388.064 108.928 387.76 108.896 387.616C109.008 387.52 109.568 386.832 110.544 386.832C111.408 386.832 111.872 387.408 111.872 388.416V391.696C111.872 391.856 112 392 112.176 392H113.072C113.248 392 113.376 391.856 113.376 391.696V388.48C113.376 386.816 112.688 385.44 110.736 385.44C109.52 385.44 108.592 386.288 108.416 386.464C107.952 385.808 107.28 385.44 106.352 385.44C105.12 385.44 104.384 386.192 104.24 386.336L104.064 385.792C104.016 385.68 103.936 385.6 103.792 385.6H103.344C103.184 385.6 103.04 385.744 103.04 385.904V391.696ZM114.92 390.016C114.92 391.344 115.784 392.16 116.984 392.16C117.976 392.16 118.6 391.68 118.952 391.344L119.112 391.776C119.176 391.936 119.24 392 119.384 392H119.832C119.992 392 120.136 391.856 120.136 391.696V388.288C120.136 386.688 119.944 385.44 117.896 385.44C116.712 385.44 115.8 385.76 115.688 385.808C115.544 385.856 115.432 385.968 115.48 386.176L115.608 386.768C115.656 386.944 115.768 387.072 115.96 387.024C116.296 386.928 117.016 386.736 117.752 386.736C118.568 386.736 118.76 387.136 118.744 388.144C118.744 388.144 118.152 387.952 117.48 387.952C115.848 387.952 114.92 388.848 114.92 390.016ZM116.312 390C116.312 389.344 116.84 388.944 117.608 388.944C118.184 388.944 118.632 389.136 118.728 389.2V390.224C118.536 390.544 117.928 391.024 117.288 391.024C116.696 391.024 116.312 390.576 116.312 390ZM121.573 391.584C121.429 391.792 121.493 392 121.765 392H122.837C122.965 392 123.045 391.936 123.093 391.872L124.533 389.824H124.549L125.957 391.808C126.037 391.92 126.165 392 126.293 392H127.301C127.557 392 127.637 391.792 127.493 391.584L125.461 388.72L127.477 386.016C127.637 385.808 127.557 385.6 127.285 385.6H126.229C126.069 385.6 125.941 385.664 125.861 385.776L124.549 387.616H124.533L123.253 385.776C123.157 385.648 123.013 385.6 122.869 385.6H121.829C121.589 385.6 121.477 385.824 121.637 386.032L123.653 388.736L121.573 391.584ZM129.76 382.992C130.288 382.992 130.704 382.576 130.704 382.064C130.704 381.536 130.288 381.12 129.76 381.12C129.248 381.12 128.848 381.536 128.848 382.064C128.848 382.576 129.248 382.992 129.76 382.992ZM129.024 391.696C129.024 391.856 129.168 392 129.328 392H130.24C130.4 392 130.544 391.856 130.544 391.696V385.904C130.544 385.744 130.4 385.6 130.24 385.6H129.328C129.168 385.6 129.024 385.744 129.024 385.904V391.696ZM132.618 391.696C132.618 391.856 132.762 392 132.922 392H133.818C133.978 392 134.122 391.856 134.122 391.696V387.792C134.202 387.584 134.746 386.832 135.706 386.832C136.602 386.832 137.066 387.392 137.066 388.416V391.696C137.066 391.856 137.194 392 137.37 392H138.218C138.378 392 138.522 391.856 138.522 391.696V388.384C138.522 388.064 138.506 387.76 138.474 387.616C138.586 387.52 139.146 386.832 140.122 386.832C140.986 386.832 141.45 387.408 141.45 388.416V391.696C141.45 391.856 141.578 392 141.754 392H142.65C142.826 392 142.954 391.856 142.954 391.696V388.48C142.954 386.816 142.266 385.44 140.314 385.44C139.098 385.44 138.17 386.288 137.994 386.464C137.53 385.808 136.858 385.44 135.93 385.44C134.698 385.44 133.962 386.192 133.818 386.336L133.642 385.792C133.594 385.68 133.514 385.6 133.37 385.6H132.922C132.762 385.6 132.618 385.744 132.618 385.904V391.696ZM144.866 389.136C144.866 390.8 145.538 392.16 147.458 392.16C148.754 392.16 149.426 391.408 149.57 391.28L149.73 391.744C149.778 391.888 149.858 392 150.018 392H150.466C150.626 392 150.77 391.856 150.77 391.696V385.904C150.77 385.744 150.626 385.6 150.466 385.6H149.634C149.41 385.6 149.282 385.648 149.282 385.904V389.728C149.234 390.016 148.642 390.784 147.698 390.784C146.882 390.784 146.386 390.224 146.386 389.184V385.904C146.386 385.744 146.242 385.6 146.082 385.6H145.17C145.01 385.6 144.866 385.744 144.866 385.904V389.136ZM152.853 391.696C152.853 391.856 152.997 392 153.157 392H154.053C154.213 392 154.357 391.856 154.357 391.696V387.792C154.437 387.584 154.981 386.832 155.941 386.832C156.837 386.832 157.301 387.392 157.301 388.416V391.696C157.301 391.856 157.429 392 157.605 392H158.453C158.613 392 158.757 391.856 158.757 391.696V388.384C158.757 388.064 158.741 387.76 158.709 387.616C158.821 387.52 159.381 386.832 160.357 386.832C161.22 386.832 161.685 387.408 161.685 388.416V391.696C161.685 391.856 161.812 392 161.989 392H162.885C163.061 392 163.189 391.856 163.189 391.696V388.48C163.189 386.816 162.501 385.44 160.549 385.44C159.333 385.44 158.405 386.288 158.229 386.464C157.765 385.808 157.093 385.44 156.165 385.44C154.933 385.44 154.197 386.192 154.053 386.336L153.877 385.792C153.829 385.68 153.749 385.6 153.605 385.6H153.157C152.997 385.6 152.853 385.744 152.853 385.904V391.696ZM170.248 391.728C170.36 391.792 170.984 392.16 171.816 392.16C173.56 392.16 174.936 390.688 174.936 388.816C174.936 386.976 173.64 385.44 171.88 385.44C170.696 385.44 170.04 386.112 169.928 386.224L169.768 385.808C169.704 385.664 169.624 385.6 169.496 385.6H169.016C168.856 385.6 168.712 385.744 168.712 385.904V396.496C168.712 396.656 168.856 396.8 169.016 396.8H169.912C170.136 396.8 170.248 396.672 170.248 396.496V391.728ZM170.216 390.32V387.76C170.28 387.568 170.76 386.832 171.688 386.832C172.776 386.832 173.448 387.744 173.448 388.816C173.448 389.904 172.68 390.784 171.624 390.784C170.776 390.784 170.216 390.32 170.216 390.32ZM176.092 390.016C176.092 391.344 176.956 392.16 178.156 392.16C179.148 392.16 179.772 391.68 180.124 391.344L180.284 391.776C180.348 391.936 180.412 392 180.556 392H181.004C181.164 392 181.308 391.856 181.308 391.696V388.288C181.308 386.688 181.116 385.44 179.068 385.44C177.884 385.44 176.972 385.76 176.86 385.808C176.716 385.856 176.604 385.968 176.652 386.176L176.78 386.768C176.828 386.944 176.94 387.072 177.132 387.024C177.468 386.928 178.188 386.736 178.924 386.736C179.74 386.736 179.932 387.136 179.916 388.144C179.916 388.144 179.324 387.952 178.652 387.952C177.02 387.952 176.092 388.848 176.092 390.016ZM177.484 390C177.484 389.344 178.012 388.944 178.78 388.944C179.356 388.944 179.804 389.136 179.9 389.2V390.224C179.708 390.544 179.1 391.024 178.46 391.024C177.868 391.024 177.484 390.576 177.484 390ZM183.321 391.696C183.321 391.856 183.465 392 183.625 392H184.393C184.649 392 184.825 391.968 184.825 391.696V387.632C184.889 387.52 185.337 386.848 186.265 386.848C186.473 386.848 186.713 386.912 186.809 386.96C186.953 387.024 187.113 386.992 187.193 386.816L187.577 386.032C187.753 385.6 187.017 385.44 186.409 385.44C185.241 385.44 184.649 386.208 184.537 386.368L184.361 385.824C184.329 385.696 184.201 385.6 184.089 385.6H183.625C183.465 385.6 183.321 385.744 183.321 385.904V391.696ZM189.112 390.256C189.112 391.392 189.48 392.16 190.744 392.16C191.512 392.16 192.456 391.776 192.616 391.68C192.776 391.6 192.84 391.472 192.76 391.296L192.472 390.592C192.408 390.448 192.312 390.352 192.104 390.448C191.912 390.544 191.464 390.736 191.128 390.736C190.824 390.736 190.616 390.64 190.616 390.096V386.928H192.248C192.424 386.928 192.552 386.784 192.552 386.624V385.904C192.552 385.728 192.424 385.6 192.248 385.6H190.616V383.808C190.616 383.648 190.488 383.504 190.328 383.504L189.416 383.52C189.256 383.52 189.112 383.664 189.112 383.824V385.6H188.44C188.264 385.6 188.136 385.728 188.136 385.904V386.624C188.136 386.784 188.264 386.928 188.44 386.928H189.112V390.256ZM194.964 382.992C195.492 382.992 195.908 382.576 195.908 382.064C195.908 381.536 195.492 381.12 194.964 381.12C194.452 381.12 194.052 381.536 194.052 382.064C194.052 382.576 194.452 382.992 194.964 382.992ZM194.228 391.696C194.228 391.856 194.372 392 194.532 392H195.444C195.604 392 195.748 391.856 195.748 391.696V385.904C195.748 385.744 195.604 385.6 195.444 385.6H194.532C194.372 385.6 194.228 385.744 194.228 385.904V391.696ZM197.341 388.816C197.341 390.736 198.893 392.16 200.685 392.16C201.789 392.16 202.653 391.632 203.165 390.816C203.277 390.656 203.213 390.496 203.053 390.368L202.621 390.016C202.477 389.904 202.333 389.904 202.189 390.048C201.853 390.368 201.517 390.784 200.701 390.784C199.661 390.784 198.861 389.904 198.861 388.8C198.861 387.712 199.677 386.832 200.717 386.832C201.245 386.832 201.709 387.12 201.997 387.44C202.125 387.552 202.237 387.68 202.429 387.504L202.957 387.024C203.101 386.912 203.133 386.72 203.021 386.576C202.429 385.84 201.677 385.44 200.701 385.44C198.925 385.44 197.341 386.928 197.341 388.816ZM205.495 382.992C206.023 382.992 206.439 382.576 206.439 382.064C206.439 381.536 206.023 381.12 205.495 381.12C204.983 381.12 204.583 381.536 204.583 382.064C204.583 382.576 204.983 382.992 205.495 382.992ZM204.759 391.696C204.759 391.856 204.903 392 205.063 392H205.975C206.135 392 206.279 391.856 206.279 391.696V385.904C206.279 385.744 206.135 385.6 205.975 385.6H205.063C204.903 385.6 204.759 385.744 204.759 385.904V391.696ZM209.889 391.728C210.001 391.792 210.625 392.16 211.457 392.16C213.201 392.16 214.577 390.688 214.577 388.816C214.577 386.976 213.281 385.44 211.521 385.44C210.337 385.44 209.681 386.112 209.569 386.224L209.409 385.808C209.345 385.664 209.265 385.6 209.137 385.6H208.657C208.497 385.6 208.353 385.744 208.353 385.904V396.496C208.353 396.656 208.497 396.8 208.657 396.8H209.553C209.777 396.8 209.889 396.672 209.889 396.496V391.728ZM209.857 390.32V387.76C209.921 387.568 210.401 386.832 211.329 386.832C212.417 386.832 213.089 387.744 213.089 388.816C213.089 389.904 212.321 390.784 211.265 390.784C210.417 390.784 209.857 390.32 209.857 390.32ZM215.732 390.016C215.732 391.344 216.596 392.16 217.796 392.16C218.788 392.16 219.412 391.68 219.764 391.344L219.924 391.776C219.988 391.936 220.052 392 220.196 392H220.644C220.804 392 220.948 391.856 220.948 391.696V388.288C220.948 386.688 220.756 385.44 218.708 385.44C217.524 385.44 216.612 385.76 216.5 385.808C216.356 385.856 216.244 385.968 216.292 386.176L216.42 386.768C216.468 386.944 216.58 387.072 216.772 387.024C217.108 386.928 217.828 386.736 218.564 386.736C219.38 386.736 219.572 387.136 219.556 388.144C219.556 388.144 218.964 387.952 218.292 387.952C216.66 387.952 215.732 388.848 215.732 390.016ZM217.124 390C217.124 389.344 217.652 388.944 218.42 388.944C218.996 388.944 219.444 389.136 219.54 389.2V390.224C219.348 390.544 218.74 391.024 218.1 391.024C217.508 391.024 217.124 390.576 217.124 390ZM223.378 390.256C223.378 391.392 223.746 392.16 225.01 392.16C225.778 392.16 226.722 391.776 226.882 391.68C227.042 391.6 227.106 391.472 227.026 391.296L226.738 390.592C226.674 390.448 226.578 390.352 226.37 390.448C226.178 390.544 225.73 390.736 225.394 390.736C225.09 390.736 224.882 390.64 224.882 390.096V386.928H226.514C226.69 386.928 226.818 386.784 226.818 386.624V385.904C226.818 385.728 226.69 385.6 226.514 385.6H224.882V383.808C224.882 383.648 224.754 383.504 224.594 383.504L223.682 383.52C223.522 383.52 223.378 383.664 223.378 383.824V385.6H222.706C222.53 385.6 222.402 385.728 222.402 385.904V386.624C222.402 386.784 222.53 386.928 222.706 386.928H223.378V390.256ZM229.229 382.992C229.757 382.992 230.173 382.576 230.173 382.064C230.173 381.536 229.757 381.12 229.229 381.12C228.717 381.12 228.317 381.536 228.317 382.064C228.317 382.576 228.717 382.992 229.229 382.992ZM228.493 391.696C228.493 391.856 228.637 392 228.797 392H229.709C229.869 392 230.013 391.856 230.013 391.696V385.904C230.013 385.744 229.869 385.6 229.709 385.6H228.797C228.637 385.6 228.493 385.744 228.493 385.904V391.696ZM231.607 388.784C231.607 390.624 233.047 392.16 234.839 392.16C236.631 392.16 238.071 390.624 238.071 388.784C238.071 386.976 236.631 385.44 234.839 385.44C233.047 385.44 231.607 386.976 231.607 388.784ZM233.031 388.784C233.031 387.712 233.831 386.832 234.839 386.832C235.847 386.832 236.647 387.712 236.647 388.784C236.647 389.888 235.847 390.784 234.839 390.784C233.831 390.784 233.031 389.888 233.031 388.784ZM239.665 391.696C239.665 391.856 239.809 392 239.969 392H240.801C241.073 392 241.169 391.904 241.169 391.696V387.792C241.249 387.568 241.937 386.832 242.945 386.832C243.777 386.832 244.273 387.392 244.273 388.416V391.696C244.273 391.856 244.401 392 244.577 392H245.489C245.649 392 245.793 391.856 245.793 391.696V388.48C245.793 386.816 245.073 385.44 243.121 385.44C241.841 385.44 240.993 386.208 240.881 386.336L240.689 385.792C240.657 385.68 240.561 385.6 240.433 385.6H239.969C239.809 385.6 239.665 385.744 239.665 385.904V391.696Z" fill="#1E1F20"/>
<defs>
<filter id="filter0_d_2578_9725" x="11.5682" y="55.4511" width="293.808" height="293.766" filterUnits="userSpaceOnUse" color-interpolation-filters="sRGB">
<feFlood flood-opacity="0" result="BackgroundImageFix"/>
<feColorMatrix in="SourceAlpha" type="matrix" values="0 0 0 0 0 0 0 0 0 0 0 0 0 0 0 0 0 0 127 0" result="hardAlpha"/>
<feOffset dy="18.5489"/>
<feGaussianBlur stdDeviation="18.5489"/>
<feColorMatrix type="matrix" values="0 0 0 0 0.231373 0 0 0 0 0.176471 0 0 0 0 0.560784 0 0 0 0.08 0"/>
<feBlend mode="normal" in2="BackgroundImageFix" result="effect1_dropShadow_2578_9725"/>
<feBlend mode="normal" in="SourceGraphic" in2="effect1_dropShadow_2578_9725" result="shape"/>
</filter>
<filter id="filter1_d_2578_9725" x="14.8651" y="60.9403" width="293.808" height="293.765" filterUnits="userSpaceOnUse" color-interpolation-filters="sRGB">
<feFlood flood-opacity="0" result="BackgroundImageFix"/>
<feColorMatrix in="SourceAlpha" type="matrix" values="0 0 0 0 0 0 0 0 0 0 0 0 0 0 0 0 0 0 127 0" result="hardAlpha"/>
<feOffset dy="18.5489"/>
<feGaussianBlur stdDeviation="18.5489"/>
<feColorMatrix type="matrix" values="0 0 0 0 0.231373 0 0 0 0 0.176471 0 0 0 0 0.560784 0 0 0 0.08 0"/>
<feBlend mode="normal" in2="BackgroundImageFix" result="effect1_dropShadow_2578_9725"/>
<feBlend mode="normal" in="SourceGraphic" in2="effect1_dropShadow_2578_9725" result="shape"/>
</filter>
<filter id="filter2_d_2578_9725" x="15.2933" y="66.4447" width="227.228" height="294.11" filterUnits="userSpaceOnUse" color-interpolation-filters="sRGB">
<feFlood flood-opacity="0" result="BackgroundImageFix"/>
<feColorMatrix in="SourceAlpha" type="matrix" values="0 0 0 0 0 0 0 0 0 0 0 0 0 0 0 0 0 0 127 0" result="hardAlpha"/>
<feOffset dy="18.5489"/>
<feGaussianBlur stdDeviation="18.5489"/>
<feColorMatrix type="matrix" values="0 0 0 0 0.231373 0 0 0 0 0.176471 0 0 0 0 0.560784 0 0 0 0.08 0"/>
<feBlend mode="normal" in2="BackgroundImageFix" result="effect1_dropShadow_2578_9725"/>
<feBlend mode="normal" in="SourceGraphic" in2="effect1_dropShadow_2578_9725" result="shape"/>
</filter>
<filter id="filter3_d_2578_9725" x="175.988" y="49.81" width="114.252" height="114.252" filterUnits="userSpaceOnUse" color-interpolation-filters="sRGB">
<feFlood flood-opacity="0" result="BackgroundImageFix"/>
<feColorMatrix in="SourceAlpha" type="matrix" values="0 0 0 0 0 0 0 0 0 0 0 0 0 0 0 0 0 0 127 0" result="hardAlpha"/>
<feOffset/>
<feGaussianBlur stdDeviation="14.8391"/>
<feColorMatrix type="matrix" values="0 0 0 0 0.0588235 0 0 0 0 0.329412 0 0 0 0 0.541176 0 0 0 0.1 0"/>
<feBlend mode="normal" in2="BackgroundImageFix" result="effect1_dropShadow_2578_9725"/>
<feBlend mode="normal" in="SourceGraphic" in2="effect1_dropShadow_2578_9725" result="shape"/>
</filter>
<filter id="filter4_d_2578_9725" x="175.988" y="219.985" width="114.252" height="114.252" filterUnits="userSpaceOnUse" color-interpolation-filters="sRGB">
<feFlood flood-opacity="0" result="BackgroundImageFix"/>
<feColorMatrix in="SourceAlpha" type="matrix" values="0 0 0 0 0 0 0 0 0 0 0 0 0 0 0 0 0 0 127 0" result="hardAlpha"/>
<feOffset/>
<feGaussianBlur stdDeviation="14.8391"/>
<feColorMatrix type="matrix" values="0 0 0 0 0.0588235 0 0 0 0 0.329412 0 0 0 0 0.541176 0 0 0 0.1 0"/>
<feBlend mode="normal" in2="BackgroundImageFix" result="effect1_dropShadow_2578_9725"/>
<feBlend mode="normal" in="SourceGraphic" in2="effect1_dropShadow_2578_9725" result="shape"/>
</filter>
<filter id="filter5_d_2578_9725" x="0.321733" y="154.111" width="114.252" height="114.252" filterUnits="userSpaceOnUse" color-interpolation-filters="sRGB">
<feFlood flood-opacity="0" result="BackgroundImageFix"/>
<feColorMatrix in="SourceAlpha" type="matrix" values="0 0 0 0 0 0 0 0 0 0 0 0 0 0 0 0 0 0 127 0" result="hardAlpha"/>
<feOffset/>
<feGaussianBlur stdDeviation="14.8391"/>
<feColorMatrix type="matrix" values="0 0 0 0 0.0588235 0 0 0 0 0.329412 0 0 0 0 0.541176 0 0 0 0.1 0"/>
<feBlend mode="normal" in2="BackgroundImageFix" result="effect1_dropShadow_2578_9725"/>
<feBlend mode="normal" in="SourceGraphic" in2="effect1_dropShadow_2578_9725" result="shape"/>
</filter>
</defs>
</svg>
