<svg width="113" height="184" viewBox="0 0 113 184" fill="none" xmlns="http://www.w3.org/2000/svg">
<path d="M103.117 65.0844C104.809 62.9971 106.5 60.9099 108.192 58.8231L103.117 65.0844Z" fill="white"/>
<path d="M108.193 58.823C108.238 58.8594 107.139 60.2912 105.738 62.0196C104.336 63.7489 103.164 65.1207 103.119 65.0843C103.073 65.0474 104.172 63.6165 105.574 61.8868C106.975 60.1584 108.148 58.7862 108.193 58.823Z" fill="#E3E3E2"/>
<path d="M103.125 8.97284C103.17 8.93684 104.274 10.2552 105.587 11.917C106.903 13.5801 107.931 14.9564 107.886 14.9928C107.84 15.0288 106.738 13.7109 105.423 12.0478C104.108 10.386 103.079 9.00884 103.125 8.97284Z" fill="#E3E3E2"/>
<path d="M20.5858 0.217374C20.6235 0.264961 19.5761 1.1563 18.2474 2.20818C16.9179 3.26006 15.8101 4.07441 15.7725 4.02682C15.7348 3.97924 16.7817 3.08792 18.1109 2.03604C19.44 0.984154 20.5481 0.169787 20.5858 0.217374Z" fill="#E3E3E2"/>
<path d="M20.551 30.882C18.8991 29.5433 17.2476 28.2047 15.5957 26.866L20.551 30.882Z" fill="white"/>
<path d="M15.5967 26.8664C15.6348 26.8192 16.7752 27.6799 18.1432 28.7889C19.5121 29.8983 20.59 30.8351 20.5519 30.8823C20.5139 30.9295 19.3739 30.0688 18.005 28.9594C16.637 27.8504 15.5586 26.9136 15.5967 26.8664Z" fill="#E3E3E2"/>
<path d="M67.8826 21.4807C68.8575 19.7316 69.4157 17.7135 69.4157 15.5621C69.4157 8.89413 64.0723 3.48866 57.4809 3.48866C56.381 3.48866 55.3176 3.64217 54.3066 3.92355C59.3567 5.33048 63.0668 10.0064 63.0668 15.5621C63.0668 21.1182 59.3567 25.7942 54.3066 27.2007C55.3176 27.4825 56.381 27.636 57.4809 27.636C59.8032 27.636 61.969 26.9627 63.8025 25.802L69.4157 27.9724L67.8826 21.4807Z" fill="#EEEEEE"/>
<path d="M17.0849 163.452L17.423 173.75L20.039 181.818C20.2273 182.399 19.8842 183.019 19.2913 183.167C18.959 183.251 18.6102 183.17 18.3503 182.947C16.6963 181.529 10.6383 176.282 10.6557 175.527C10.6759 174.652 9.57812 164.688 9.57812 164.688L17.0849 163.452Z" fill="#F03658"/>
<path d="M19.2893 183.167L10.6152 174.833L10.6392 175.268C10.6603 175.645 10.8126 176.003 11.0729 176.276C11.7689 177.008 13.7349 178.984 18.3169 182.949C18.5834 183.18 18.9496 183.262 19.2893 183.167Z" fill="#E3E3E2"/>
<path d="M12.5415 171.396C12.8092 171.56 12.9151 171.945 12.7624 172.219C12.6093 172.493 12.2187 172.605 11.9485 172.445C11.6779 172.286 11.5363 171.828 11.7188 171.573C11.9013 171.317 12.3673 171.212 12.5915 171.431" fill="white"/>
<path d="M16.6884 178.803C16.748 178.829 16.9499 178.277 17.5458 177.953C18.1317 177.612 18.7081 177.725 18.7176 177.66C18.7251 177.634 18.5906 177.562 18.3477 177.542C18.1073 177.519 17.7609 177.573 17.4349 177.756C17.1092 177.94 16.8841 178.208 16.7782 178.425C16.6697 178.644 16.6623 178.796 16.6884 178.803Z" fill="#1D2A30"/>
<path d="M17.4972 180.14C17.5485 180.182 17.8601 179.829 18.384 179.647C18.9033 179.454 19.368 179.526 19.3813 179.461C19.4082 179.407 18.9009 179.217 18.307 179.434C17.7116 179.645 17.4422 180.115 17.4972 180.14Z" fill="#1D2A30"/>
<path d="M15.2268 177.113C15.2777 177.16 15.7544 176.614 16.5435 176.26C17.3277 175.893 18.0514 175.888 18.0497 175.819C18.0634 175.764 17.2908 175.663 16.4492 176.055C15.6038 176.437 15.1755 177.088 15.2268 177.113Z" fill="#1D2A30"/>
<path d="M14.861 173.992C14.892 174.052 15.4469 173.783 16.1851 173.715C16.9225 173.637 17.5192 173.792 17.5379 173.727C17.5635 173.675 16.9552 173.408 16.1628 173.49C15.37 173.564 14.8258 173.946 14.861 173.992Z" fill="#1D2A30"/>
<path d="M14.6871 170.972C14.7223 171.029 15.2743 170.655 16.0576 170.647C16.8405 170.621 17.4083 170.972 17.441 170.913C17.4563 170.89 17.3371 170.768 17.0921 170.644C16.8492 170.52 16.4743 170.412 16.0527 170.42C15.6314 170.43 15.2615 170.554 15.024 170.688C14.7848 170.822 14.6706 170.95 14.6871 170.972Z" fill="#1D2A30"/>
<path d="M16.0039 170.073C16.0171 170.072 16.0329 169.933 15.9964 169.683C15.96 169.435 15.8669 169.073 15.6306 168.681C15.5086 168.496 15.379 168.257 15.0844 168.137C14.9379 168.077 14.7265 168.115 14.6123 168.258C14.4985 168.397 14.4695 168.569 14.4753 168.732C14.5225 169.384 15.1184 169.985 15.8578 170.038C16.5998 170.078 17.2445 169.619 17.5052 169.039C17.561 168.889 17.5954 168.708 17.5056 168.539C17.4174 168.367 17.2043 168.31 17.0587 168.343C16.7554 168.405 16.5724 168.592 16.4003 168.733C16.0618 169.038 15.8591 169.35 15.7428 169.571C15.6261 169.795 15.5926 169.93 15.6046 169.936C15.6422 169.96 15.8363 169.416 16.5046 168.854C16.6734 168.725 16.8675 168.561 17.0864 168.528C17.1931 168.512 17.2879 168.549 17.3309 168.634C17.3748 168.715 17.3603 168.845 17.3111 168.962C17.0901 169.438 16.5 169.855 15.8731 169.812C15.2495 169.774 14.7265 169.245 14.6839 168.72C14.6752 168.594 14.7017 168.464 14.765 168.386C14.8275 168.308 14.9276 168.282 15.0248 168.315C15.2293 168.385 15.3757 168.593 15.4953 168.767C15.9708 169.498 15.9592 170.086 16.0039 170.073Z" fill="#1D2A30"/>
<path d="M37.1317 164.981L36.5984 172.681C36.5984 172.681 44.2462 175.81 44.2859 177.243L29.3184 176.745L29.6573 164.712L37.1317 164.981Z" fill="#F03658"/>
<path d="M31.9923 171.879C31.6997 171.948 31.4891 172.267 31.5466 172.562C31.6037 172.857 31.9265 173.075 32.2199 173.01C32.5137 172.946 32.7785 172.571 32.6883 172.284C32.5985 171.998 32.2054 171.763 31.936 171.896" fill="#E3E3E2"/>
<path d="M29.3184 176.745L29.3999 175.533L43.7203 176.464C43.7203 176.464 44.377 176.776 44.2859 177.243L29.3184 176.745Z" fill="#E3E3E2"/>
<path d="M36.8424 172.614C36.8375 172.687 36.4708 172.707 36.1034 172.93C35.7301 173.144 35.5344 173.455 35.4682 173.423C35.4012 173.407 35.5245 172.974 35.9743 172.712C36.4216 172.445 36.8602 172.547 36.8424 172.614Z" fill="#1D2A30"/>
<path d="M38.3904 173.315C38.4045 173.387 38.0838 173.5 37.8252 173.801C37.5579 174.094 37.4842 174.426 37.4114 174.421C37.3427 174.43 37.3063 174 37.6348 173.632C37.9601 173.262 38.3908 173.245 38.3904 173.315Z" fill="#1D2A30"/>
<path d="M39.2195 175.224C39.1525 175.237 39.0631 174.869 39.2642 174.475C39.4624 174.079 39.8121 173.933 39.841 173.994C39.8803 174.056 39.6511 174.264 39.4914 174.589C39.3234 174.911 39.2923 175.219 39.2195 175.224Z" fill="#1D2A30"/>
<path d="M36.7714 170.845C36.7387 170.911 36.4068 170.799 35.9926 170.813C35.5784 170.819 35.2523 170.947 35.2163 170.883C35.1758 170.829 35.4985 170.569 35.9864 170.559C36.4739 170.545 36.809 170.789 36.7714 170.845Z" fill="#1D2A30"/>
<path d="M36.8488 169.29C36.8488 169.32 36.5583 169.355 36.0994 169.261C35.871 169.214 35.6028 169.13 35.3231 168.994C35.1832 168.926 35.0409 168.845 34.9002 168.751C34.8327 168.704 34.7525 168.657 34.6796 168.567C34.601 168.489 34.5617 168.293 34.6594 168.178C34.7396 168.065 34.8766 168.02 34.985 168.021C35.0955 168.021 35.1841 168.046 35.2648 168.069C35.4303 168.115 35.5846 168.176 35.7253 168.245C36.0071 168.384 36.2339 168.557 36.4019 168.721C36.7379 169.054 36.8475 169.332 36.8223 169.345C36.7884 169.368 36.627 169.133 36.2823 168.856C36.1106 168.718 35.89 168.574 35.6264 168.457C35.4944 168.399 35.3517 168.349 35.2002 168.31C35.0434 168.263 34.9085 168.257 34.8654 168.326C34.8497 168.353 34.8472 168.364 34.8791 168.411C34.9118 168.455 34.9747 168.499 35.0409 168.545C35.1708 168.636 35.3012 168.716 35.4294 168.785C35.6864 168.923 35.933 169.02 36.1449 169.087C36.5699 169.221 36.8513 169.251 36.8488 169.29Z" fill="#1D2A30"/>
<path d="M36.7504 169.391C36.7239 169.402 36.5877 169.135 36.5766 168.661C36.572 168.425 36.606 168.142 36.7061 167.844C36.757 167.695 36.8248 167.543 36.9122 167.394C37.0049 167.25 37.1182 167.055 37.4029 167.032C37.5511 167.031 37.6702 167.151 37.7091 167.251C37.7555 167.354 37.7621 167.441 37.777 167.529C37.7985 167.705 37.7898 167.876 37.7605 168.034C37.7029 168.351 37.5639 168.611 37.4145 168.798C37.1091 169.176 36.8013 169.253 36.7959 169.228C36.7727 169.19 37.0322 169.058 37.2684 168.693C37.3847 168.512 37.4911 168.273 37.5291 167.996C37.5486 167.858 37.5511 167.711 37.53 167.562C37.5118 167.403 37.4563 167.272 37.3963 167.286C37.3218 167.283 37.1915 167.398 37.1257 167.523C37.0446 167.655 36.9788 167.79 36.9266 167.923C36.824 168.191 36.7744 168.449 36.7566 168.667C36.7214 169.105 36.7901 169.382 36.7504 169.391Z" fill="#1D2A30"/>
<path d="M6.35938 88.9896L8.57139 171.768L20.3788 171.414L23.1947 86.1679L6.35938 88.9896Z" fill="#1D2A30"/>
<path d="M30.9014 86.0274C30.9014 86.0274 39.6673 121.119 39.9363 127.103C40.2052 133.086 38.0601 170.485 38.0601 170.485H26.5006L27.4656 127.896L18.6855 91.8546L20.8108 86.2116L30.9014 86.0274Z" fill="#1D2A30"/>
<path d="M23.7668 90.3367C23.7705 90.3367 23.7722 90.3747 23.7722 90.4488C23.7701 90.5353 23.7681 90.6433 23.7652 90.7774C23.754 91.0819 23.7383 91.5036 23.7184 92.0386C23.6675 93.1501 23.5947 94.7296 23.5057 96.674C23.3046 100.601 23.0282 106 22.7232 111.963C22.3934 117.927 22.0946 123.325 21.8774 127.252C21.7595 129.195 21.6639 130.773 21.5964 131.884C21.5592 132.419 21.5302 132.839 21.5091 133.144C21.4975 133.277 21.488 133.385 21.481 133.471C21.4731 133.544 21.4677 133.582 21.464 133.582C21.4603 133.582 21.4586 133.544 21.459 133.47C21.4607 133.384 21.4628 133.276 21.4657 133.142C21.4768 132.838 21.4926 132.416 21.5124 131.882C21.5633 130.77 21.6357 129.191 21.7251 127.247C21.9262 123.319 22.2026 117.92 22.5076 111.954C22.8378 105.991 23.1362 100.594 23.3534 96.6657C23.4714 94.723 23.567 93.1447 23.6348 92.0337C23.6716 91.4999 23.7006 91.0786 23.7217 90.7749C23.7333 90.6416 23.7424 90.5336 23.7498 90.4476C23.7573 90.3739 23.7631 90.3363 23.7668 90.3367Z" fill="#365462"/>
<path d="M22.4705 41.0298C22.4705 41.0298 26.7595 62.3149 26.8216 68.3129C26.8837 74.3106 28.9899 86.0273 28.9899 86.0273H10.4094L10.0085 53.5986L8.68555 43.9256L11.4754 39.9473L22.4705 41.0298Z" fill="#F8F8F9"/>
<path d="M22.6953 41.6568C22.6953 41.6568 27.1279 42.9582 28.2998 44.5981C29.2243 45.8917 30.471 70.375 30.471 70.375L32.3733 91.9398L30.5132 91.766L27.8885 83.694L22.6953 41.6568Z" fill="#F03658"/>
<path d="M28.2988 44.5982L40.8134 56.0807L56.2117 51.0923L59.2784 57.5567L42.8489 65.0143C40.5006 66.0161 39.0287 65.4645 37.3991 64.1593L28.7797 57.2559L28.2988 44.5982Z" fill="#F03658"/>
<path d="M53.3444 53.1519C53.4326 53.3162 53.3705 53.5206 53.2058 53.6087C53.0411 53.6965 52.8367 53.6344 52.749 53.4701C52.6608 53.3054 52.7233 53.101 52.8876 53.0129C53.0523 52.9251 53.2567 52.9872 53.3444 53.1519Z" fill="#1D2A30"/>
<path d="M53.0468 52.9839C52.9951 52.9839 52.9421 52.9963 52.8933 53.0223C52.8163 53.0637 52.7596 53.1324 52.7344 53.216C52.7087 53.3 52.7174 53.3881 52.7588 53.4655C52.7998 53.5425 52.8685 53.5992 52.9525 53.6244C53.0361 53.6501 53.1246 53.6406 53.2016 53.6C53.279 53.5586 53.3352 53.4899 53.3605 53.4063C53.3861 53.3228 53.3774 53.2342 53.3361 53.1568C53.2773 53.0467 53.1639 52.9839 53.0468 52.9839ZM53.0476 53.6592L52.9463 53.6443C52.8573 53.6174 52.7845 53.5574 52.7406 53.475C52.6967 53.3931 52.6872 53.2992 52.7145 53.2102C52.7414 53.1212 52.8014 53.048 52.8838 53.0041C52.9657 52.9607 53.0596 52.9516 53.1486 52.9781C53.2376 53.0054 53.3104 53.0654 53.3543 53.1473C53.3981 53.2292 53.4077 53.3232 53.3803 53.4125C53.3534 53.5011 53.2934 53.5744 53.2115 53.6182C53.1602 53.6455 53.1043 53.6592 53.0476 53.6592Z" fill="#1D2A30"/>
<path d="M54.6357 52.8452C54.7234 53.0099 54.6613 53.2144 54.4967 53.3021C54.3324 53.3902 54.128 53.3282 54.0398 53.1635C53.9521 52.9988 54.0142 52.7943 54.1784 52.7066C54.3431 52.6189 54.548 52.681 54.6357 52.8452Z" fill="#1D2A30"/>
<path d="M54.3376 52.6766C54.2842 52.6766 54.2317 52.6898 54.1837 52.7155C54.0248 52.8003 53.9643 52.9993 54.0492 53.1586C54.0905 53.2356 54.1592 53.2919 54.2428 53.3175C54.3268 53.3428 54.4154 53.3337 54.4923 53.2927C54.6517 53.2079 54.7121 53.0093 54.6268 52.8499C54.5855 52.773 54.5168 52.7163 54.4332 52.691L54.3376 52.6766ZM54.3384 53.3523L54.237 53.337C54.1481 53.3101 54.0748 53.2501 54.0314 53.1682C53.9408 52.9989 54.0049 52.7875 54.1741 52.6973C54.2557 52.6538 54.35 52.6447 54.439 52.6712C54.5279 52.6981 54.6012 52.7581 54.645 52.8404C54.6889 52.9224 54.698 53.0163 54.6711 53.1053C54.6438 53.1942 54.5838 53.2671 54.5019 53.3109C54.451 53.3386 54.3947 53.3523 54.3384 53.3523Z" fill="#1D2A30"/>
<path d="M55.8641 52.597C55.9518 52.7613 55.8897 52.9661 55.7254 53.0539C55.5607 53.142 55.3563 53.0795 55.2686 52.9153C55.1805 52.7506 55.2425 52.5461 55.4072 52.4584C55.5715 52.3703 55.7763 52.4323 55.8641 52.597Z" fill="#1D2A30"/>
<path d="M55.5664 52.4292C55.5146 52.4292 55.4617 52.4416 55.4124 52.4677C55.3355 52.5086 55.2792 52.5773 55.2539 52.6613C55.2283 52.7449 55.237 52.8335 55.2783 52.9104C55.3193 52.9878 55.388 53.0441 55.4716 53.0693C55.5556 53.0946 55.6437 53.0859 55.7211 53.0449C55.88 52.9601 55.9404 52.761 55.8556 52.6021C55.7968 52.4917 55.6835 52.4292 55.5664 52.4292ZM55.5672 53.1045L55.4658 53.0892C55.3768 53.0623 55.3036 53.0023 55.2601 52.9204C55.2163 52.838 55.2068 52.7441 55.2341 52.6551C55.261 52.5661 55.321 52.4933 55.4029 52.4495C55.5717 52.3584 55.7832 52.423 55.8738 52.5922C55.964 52.7615 55.8999 52.9729 55.7306 53.0631C55.6797 53.0904 55.6239 53.1045 55.5672 53.1045Z" fill="#1D2A30"/>
<path d="M56.3652 51.4136L57.5566 50.9778L60.2906 56.7388L59.1269 57.2345L56.3652 51.4136Z" fill="#E3E3E2"/>
<path d="M28.701 49.1353C28.7159 49.1349 28.7395 49.3646 28.773 49.7792C28.8189 50.2315 28.8793 50.8216 28.9522 51.5329C29.1239 53.0503 29.3531 55.0763 29.6068 57.3162C29.8571 59.5768 30.0566 61.6272 30.1501 63.116C30.1994 63.86 30.2209 64.4638 30.2258 64.8809C30.2262 65.2988 30.2196 65.5293 30.2043 65.5293C30.1898 65.5297 30.1683 65.2996 30.1422 64.8846C30.1112 64.4696 30.0669 63.8691 29.9982 63.128C29.8662 61.6454 29.6428 59.6 29.3929 57.3398C29.1429 55.0808 28.9228 53.0333 28.8003 51.5474C28.7382 50.8042 28.7039 50.2013 28.689 49.7842C28.6815 49.3662 28.6865 49.1358 28.701 49.1353Z" fill="#1D2A30"/>
<path d="M31.4352 52.0077C31.4923 52.0242 31.1414 53.4059 30.6514 55.0934C30.1611 56.7813 29.7175 58.1357 29.6604 58.1191C29.6033 58.1026 29.9542 56.7213 30.4445 55.033C30.9345 53.3459 31.3781 51.9911 31.4352 52.0077Z" fill="#1D2A30"/>
<path d="M40.6798 59.959C40.6571 59.9702 40.5263 59.7724 40.4026 59.4116C40.2789 59.0524 40.1808 58.5244 40.2164 57.9401C40.254 57.3562 40.4171 56.8443 40.5851 56.5038C40.7527 56.1612 40.9074 55.9812 40.9285 55.9952C40.9893 56.025 40.4928 56.8299 40.4315 57.9537C40.3517 59.076 40.744 59.9371 40.6798 59.959Z" fill="#1D2A30"/>
<path d="M39.2501 73.2604L40.8523 73.3845L40.2159 80.0662L38.6699 79.8899L39.2501 73.2604Z" fill="#E3E3E2"/>
<path d="M11.4787 40.4109L2.84439 45.9157C0.818715 47.3412 -0.0321419 49.9266 0.751141 52.2766L7.37501 73.0887L4.9868 91.9994L23.9113 91.1962L23.4516 82.9065L21.844 68.0772C21.5456 65.3266 20.8616 62.632 19.8122 60.0726L11.4787 40.4109Z" fill="#F03658"/>
<path d="M2.45589 53.4174L11.0937 71.4901C11.7914 72.95 13.1122 74.016 14.6867 74.3888L38.6536 80.0662L39.264 73.0887L20.9695 66.2076L11.7661 48.5445C10.3662 45.8568 6.98878 44.908 4.39363 46.473C2.01072 47.9093 1.16115 50.9545 2.45589 53.4174Z" fill="#F03658"/>
<path d="M39.2648 73.0886C39.264 73.0919 39.2305 73.0828 39.1667 73.0621C39.0923 73.0368 38.9991 73.0054 38.8837 72.9661C38.6226 72.8722 38.2601 72.7426 37.7991 72.5771C36.8428 72.2254 35.4794 71.7239 33.7861 71.1007C30.3714 69.8245 25.6301 68.0526 20.2598 66.0453L20.2213 66.0308L20.2018 65.9927C19.6912 64.9806 19.1553 63.9183 18.6104 62.8379C17.1091 59.9148 15.6153 57.1639 14.2175 54.6836C13.5185 53.443 12.8445 52.2703 12.2076 51.1762C11.8869 50.6308 11.5774 50.1036 11.2799 49.5967C11.133 49.341 10.9832 49.0964 10.8255 48.8676C10.6811 48.6276 10.5044 48.4203 10.336 48.2138C9.65489 47.3911 8.8186 46.8557 8.03561 46.5445C7.24806 46.2325 6.50678 46.141 5.91161 46.1659C4.69917 46.2089 4.14311 46.6794 4.13487 46.6409C4.1326 46.6376 4.16657 46.6136 4.2351 46.5693C4.30379 46.5251 4.40417 46.4543 4.55285 46.3951C4.84107 46.2611 5.29964 46.115 5.90776 46.0823C6.51278 46.0438 7.26974 46.1245 8.07905 46.4319C8.88356 46.739 9.74675 47.2794 10.4515 48.1145C10.6257 48.3239 10.8082 48.5349 10.958 48.7782C11.1218 49.0128 11.2745 49.2578 11.4226 49.5115C11.7239 50.0167 12.0371 50.5418 12.3616 51.0855C13.0058 52.1767 13.6861 53.347 14.3904 54.5855C15.7982 57.0625 17.2994 59.8134 18.802 62.7394C19.3556 63.8174 19.8894 64.8813 20.393 65.8984L20.3351 65.8458C25.6955 67.8797 30.4277 69.6751 33.8357 70.9687C35.5195 71.6171 36.8755 72.1393 37.826 72.5055C38.2816 72.6855 38.6396 72.8271 38.8978 72.9293C39.0103 72.9756 39.1009 73.0133 39.1738 73.0435C39.2354 73.07 39.266 73.0853 39.2648 73.0886Z" fill="#1D2A30"/>
<path d="M35.1909 77.4382C35.1909 77.6248 35.0395 77.7759 34.8533 77.7759C34.6667 77.7759 34.5156 77.6248 34.5156 77.4382C34.5156 77.2516 34.6667 77.1006 34.8533 77.1006C35.0395 77.1006 35.1909 77.2516 35.1909 77.4382Z" fill="#1D2A30"/>
<path d="M34.8539 77.1106C34.6735 77.1106 34.5265 77.2575 34.5265 77.4379C34.5265 77.6183 34.6735 77.7652 34.8539 77.7652C35.0343 77.7652 35.1812 77.6183 35.1812 77.4379C35.1812 77.2575 35.0343 77.1106 34.8539 77.1106ZM34.8539 77.7859C34.6619 77.7859 34.5059 77.6299 34.5059 77.4379C34.5059 77.2459 34.6619 77.0899 34.8539 77.0899C35.0459 77.0899 35.2019 77.2459 35.2019 77.4379C35.2019 77.6299 35.0459 77.7859 34.8539 77.7859Z" fill="#1D2A30"/>
<path d="M36.4746 77.7757C36.4746 77.9624 36.3231 78.1134 36.1365 78.1134C35.9503 78.1134 35.7988 77.9624 35.7988 77.7757C35.7988 77.5891 35.9503 77.4381 36.1365 77.4381C36.3231 77.4381 36.4746 77.5891 36.4746 77.7757Z" fill="#1D2A30"/>
<path d="M36.1367 77.4485C35.9562 77.4485 35.8093 77.5953 35.8093 77.7758C35.8093 77.9562 35.9562 78.1031 36.1367 78.1031C36.3175 78.1031 36.4644 77.9562 36.4644 77.7758C36.4644 77.5953 36.3175 77.4485 36.1367 77.4485ZM36.1367 78.1238C35.9451 78.1238 35.7891 77.9678 35.7891 77.7758C35.7891 77.5838 35.9451 77.4278 36.1367 77.4278C36.3287 77.4278 36.4851 77.5838 36.4851 77.7758C36.4851 77.9678 36.3287 78.1238 36.1367 78.1238Z" fill="#1D2A30"/>
<path d="M37.6734 78.1355C37.6734 78.3221 37.5219 78.4731 37.3357 78.4731C37.1491 78.4731 36.998 78.3221 36.998 78.1355C36.998 77.9489 37.1491 77.7978 37.3357 77.7978C37.5219 77.7978 37.6734 77.9489 37.6734 78.1355Z" fill="#1D2A30"/>
<path d="M37.3382 77.8084C37.1578 77.8084 37.0109 77.9553 37.0109 78.1358C37.0109 78.3162 37.1578 78.4631 37.3382 78.4631C37.5187 78.4631 37.6656 78.3162 37.6656 78.1358C37.6656 77.9553 37.5187 77.8084 37.3382 77.8084ZM37.3382 78.4838C37.1462 78.4838 36.9902 78.3278 36.9902 78.1358C36.9902 77.9438 37.1462 77.7877 37.3382 77.7877C37.5302 77.7877 37.6862 77.9438 37.6862 78.1358C37.6862 78.3278 37.5302 78.4838 37.3382 78.4838Z" fill="#1D2A30"/>
<path d="M38.6549 80.0661C38.6536 80.0698 38.6143 80.0632 38.5382 80.0475C38.4505 80.0281 38.3396 80.0032 38.2014 79.9722C37.8906 79.8977 37.4586 79.7947 36.9103 79.6631C35.7752 79.3838 34.1598 78.9861 32.1702 78.4966C28.1679 77.5142 22.6449 76.1255 16.5207 74.7066C15.7556 74.5233 14.9954 74.3776 14.2477 74.1753C13.5057 73.9708 12.7712 73.6688 12.199 73.1519C11.63 72.6338 11.2638 71.9714 10.9456 71.3337C10.6373 70.6898 10.336 70.0592 10.0418 69.4443C8.87655 66.9842 7.8262 64.7675 6.9417 62.9004C6.07177 61.0454 5.36508 59.5395 4.86869 58.4815C4.63348 57.9688 4.44822 57.5653 4.31506 57.2752C4.25783 57.1453 4.21223 57.0418 4.17586 56.9591C4.14582 56.8875 4.13175 56.8498 4.13531 56.8486C4.1387 56.8469 4.15906 56.8813 4.19593 56.9496C4.23731 57.0298 4.28937 57.1308 4.35433 57.2566C4.49627 57.5425 4.69377 57.9402 4.94462 58.4455C5.45591 59.4965 6.18312 60.9924 7.07925 62.8351C7.97558 64.6963 9.03959 66.9056 10.2206 69.3578C10.5164 69.971 10.8198 70.5996 11.1293 71.2414C11.4458 71.8729 11.805 72.5101 12.3405 72.9951C12.8772 73.4784 13.5769 73.7689 14.3052 73.9688C15.0364 74.1662 15.804 74.3135 16.5687 74.4964C22.6975 75.9161 28.2139 77.3284 32.2075 78.3489C34.19 78.8665 35.7997 79.2865 36.931 79.582C37.4751 79.7301 37.9038 79.8464 38.2121 79.93C38.3478 79.9697 38.4571 80.0012 38.5436 80.026C38.6181 80.0492 38.6557 80.0624 38.6549 80.0661Z" fill="#1D2A30"/>
<path d="M19.2957 78.9334C19.304 78.9458 19.2022 79.0315 19.0102 79.1747C18.8178 79.3178 18.536 79.5189 18.1797 79.7573C17.4671 80.2286 16.4517 80.8683 15.2024 81.3053C13.9515 81.7419 12.7179 81.7998 11.8659 81.6393C11.4389 81.5635 11.1037 81.4539 10.8827 81.3566C10.6609 81.2602 10.5472 81.1899 10.5529 81.1783C10.5678 81.1394 11.0491 81.3798 11.8887 81.4886C12.7225 81.6061 13.9126 81.5267 15.1321 81.1017C16.3519 80.6755 17.3674 80.0656 18.0978 79.6286C18.8269 79.1854 19.2783 78.9069 19.2957 78.9334Z" fill="#1D2A30"/>
<path d="M20.3455 81.3332C20.3526 81.3311 20.3728 81.3849 20.4051 81.4892C20.4407 81.5926 20.4771 81.749 20.5152 81.9534C20.588 82.361 20.6269 82.9714 20.4986 83.7084C20.3633 84.4387 20.0468 85.3007 19.4228 86.0778C18.8083 86.859 17.8611 87.4988 16.7583 87.8104C15.653 88.1158 14.5114 88.0595 13.5807 87.7102C12.6443 87.3688 11.9268 86.7957 11.4323 86.2408C10.9407 85.6772 10.658 85.1351 10.5087 84.7491C10.4354 84.5542 10.3854 84.4019 10.3622 84.2947C10.3357 84.1888 10.3249 84.1329 10.3324 84.1309C10.3833 84.1019 10.5529 85.0557 11.5452 86.1386C12.0401 86.665 12.7444 87.2054 13.6473 87.5232C14.5436 87.8484 15.6373 87.896 16.7004 87.6026C17.7605 87.3026 18.6709 86.6952 19.2688 85.9524C19.8767 85.2129 20.1986 84.3858 20.3493 83.679C20.6364 82.2386 20.2872 81.3348 20.3455 81.3332Z" fill="#1D2A30"/>
<path d="M12.4087 23.9357L12.4633 39.3547C12.4724 41.977 14.6742 44.058 17.2928 43.919C19.7363 43.7898 21.648 41.7622 21.6369 39.3154C21.6315 38.1547 21.6294 37.1868 21.6369 37.0672C21.6369 37.0672 25.5605 36.6841 25.8303 32.7981C25.9607 30.9202 25.9143 27.0301 25.8315 23.512C25.7426 19.7331 22.762 16.6578 18.9881 16.4426L18.6128 16.4215C14.5538 16.4273 12.2908 19.878 12.4087 23.9357Z" fill="#C67C6C"/>
<path d="M21.6457 37.0117C21.6457 37.0117 19.1766 37.0713 16.6582 35.2816C16.6582 35.2816 17.6968 38.1488 21.5973 38.0197L21.6457 37.0117Z" fill="#BE5444"/>
<path d="M24.8674 25.7984C24.8608 26.0926 24.6072 26.3293 24.2997 26.3285C23.9935 26.3272 23.7498 26.0889 23.756 25.7951C23.7626 25.5013 24.0163 25.2642 24.3229 25.265C24.6299 25.2658 24.8737 25.505 24.8674 25.7984Z" fill="#1D2A30"/>
<path d="M24.9764 25.1419C24.9036 25.2106 24.5006 24.875 23.9026 24.8423C23.3059 24.8013 22.8499 25.0839 22.7895 25.007C22.7593 24.973 22.8371 24.846 23.0361 24.7181C23.2319 24.5903 23.56 24.474 23.9324 24.4968C24.3044 24.5199 24.6098 24.6747 24.7815 24.8253C24.9574 24.9768 25.0124 25.1113 24.9764 25.1419Z" fill="#1D2A30"/>
<path d="M19.0623 25.7515C19.0561 26.0457 18.8021 26.2824 18.495 26.2816C18.1884 26.2804 17.9451 26.042 17.9513 25.7482C17.9575 25.454 18.2116 25.2169 18.5182 25.2181C18.8252 25.219 19.069 25.4577 19.0623 25.7515Z" fill="#1D2A30"/>
<path d="M19.0295 25.0069C18.9562 25.0756 18.5528 24.74 17.9553 24.7077C17.359 24.6667 16.903 24.9489 16.8421 24.872C16.8123 24.8376 16.8893 24.711 17.0888 24.5831C17.2845 24.4553 17.613 24.339 17.985 24.3613C18.3571 24.3849 18.6624 24.5397 18.8346 24.6903C19.0096 24.8418 19.0651 24.9762 19.0295 25.0069Z" fill="#1D2A30"/>
<path d="M20.9238 29.705C20.923 29.6706 21.2983 29.6276 21.9045 29.5854C22.0581 29.578 22.2041 29.556 22.236 29.4534C22.2782 29.3454 22.2236 29.177 22.1599 28.9953C22.0374 28.6179 21.9095 28.2219 21.7746 27.8077C21.2425 26.1173 20.8663 24.7315 20.9346 24.7104C21.0029 24.6893 21.4895 26.0424 22.0221 27.7328C22.1495 28.1491 22.272 28.5463 22.3879 28.9262C22.4354 29.1029 22.524 29.3053 22.4325 29.5295C22.3854 29.6413 22.2683 29.7178 22.1694 29.7385C22.0696 29.7629 21.9836 29.7596 21.9078 29.7596C21.3 29.7575 20.9242 29.7393 20.9238 29.705Z" fill="#1D2A30"/>
<path d="M19.2699 23.7674C19.2016 23.9267 18.6091 23.8158 17.9036 23.86C17.1964 23.8903 16.6195 24.0632 16.5347 23.9126C16.497 23.8402 16.6046 23.6933 16.8422 23.5489C17.0776 23.4044 17.4475 23.2762 17.8713 23.253C18.295 23.2315 18.6765 23.32 18.9261 23.4384C19.1772 23.5567 19.2997 23.6916 19.2699 23.7674Z" fill="#1D2A30"/>
<path d="M24.9273 23.716C24.8143 23.8459 24.4104 23.6812 23.9159 23.6464C23.4227 23.5943 22.9965 23.6857 22.9083 23.538C22.8698 23.4668 22.9435 23.3348 23.1343 23.2165C23.3217 23.099 23.6296 23.0117 23.9693 23.041C24.3086 23.0713 24.5966 23.2111 24.7609 23.3597C24.9277 23.5095 24.9773 23.6526 24.9273 23.716Z" fill="#1D2A30"/>
<path d="M12.5603 26.833C12.4953 26.8008 9.93347 25.8904 9.86644 28.554C9.80023 31.2173 12.4879 30.7348 12.4945 30.6586C12.5011 30.5821 12.5603 26.833 12.5603 26.833Z" fill="#C67C6C"/>
<path d="M11.7098 29.6292C11.6982 29.6205 11.6622 29.6607 11.5832 29.6946C11.5058 29.7277 11.3738 29.7488 11.236 29.6934C10.9571 29.5829 10.7316 29.1302 10.7307 28.6498C10.7299 28.4073 10.7866 28.1776 10.8772 27.9885C10.9633 27.7961 11.0928 27.6628 11.2351 27.6413C11.3767 27.6124 11.4747 27.6997 11.5058 27.7754C11.5397 27.8507 11.5211 27.9037 11.5352 27.9082C11.5426 27.9153 11.5935 27.8652 11.5749 27.7547C11.5654 27.7017 11.5356 27.638 11.4743 27.5851C11.4118 27.5317 11.3183 27.5027 11.2194 27.511C11.0138 27.5201 10.8238 27.7042 10.7241 27.9115C10.6132 28.1197 10.5441 28.3775 10.5449 28.6498C10.5487 29.1873 10.8106 29.6963 11.1929 29.8175C11.3791 29.8709 11.5368 29.8183 11.6192 29.7575C11.7032 29.6938 11.7189 29.6342 11.7098 29.6292Z" fill="#BE5444"/>
<path d="M11.0863 26.659C11.4972 26.5841 12.1775 26.9979 12.3285 27.3877C12.4799 27.7771 12.4936 28.2095 12.6442 28.5989C12.7948 28.9891 13.1648 29.3545 13.5765 29.2817C13.86 29.2316 14.0751 28.9804 14.1649 28.7065C14.2547 28.433 14.2415 28.1371 14.2216 27.8495C14.136 26.599 13.9448 25.3531 13.9663 24.0997C13.9878 22.8463 14.2398 21.5577 14.9574 20.5294C15.6745 19.5015 16.9254 18.7869 18.1668 18.9586C18.9894 19.0724 19.7227 19.5462 20.5371 19.708C21.5025 19.9 22.551 19.6149 23.2868 18.9611C23.3116 18.9392 23.36 18.9052 23.4179 18.8676C23.6865 18.6925 23.8214 18.3574 23.7213 18.0528C23.6873 17.9493 23.641 17.8538 23.5789 17.7892C22.0363 16.1907 19.1256 15.6027 16.9436 16.0214C14.7616 16.4402 12.6587 17.8442 11.618 19.8073C10.5777 21.7704 10.6927 24.59 11.0863 26.659Z" fill="#1D2A30"/>
<path d="M19.5129 30.1736C19.6102 30.1678 19.6114 30.8154 20.1655 31.2747C20.7187 31.7361 21.409 31.6632 21.4139 31.7534C21.423 31.7944 21.26 31.8797 20.9691 31.8871C20.6832 31.897 20.2656 31.8052 19.9267 31.5242C19.5887 31.2424 19.4434 30.8663 19.4211 30.6006C19.3962 30.33 19.4687 30.1698 19.5129 30.1736Z" fill="#1D2A30"/>
<path d="M56.6934 52.0705C56.6934 52.0705 59.6094 49.5079 60.1622 49.32C60.7147 49.1321 65.1047 49.051 65.4014 49.2708C65.6977 49.4905 70.1419 51.9282 69.4061 52.3014C68.67 52.6747 65.5868 50.9293 65.5868 50.9293L65.0687 50.9975C65.0687 50.9975 67.7567 52.433 68.2367 52.9863C68.6779 53.4952 68.2558 54.1048 67.7534 53.871C67.2511 53.6372 64.9441 52.3052 64.7621 52.3561C64.5804 52.4065 67.2209 53.9513 67.4638 54.2372C67.7907 54.6216 67.58 55.3664 67.074 55.1517C66.7752 55.0246 64.3392 53.4108 64.3392 53.4108C64.3392 53.4108 66.1781 54.9605 66.3093 55.2133C66.5244 55.6276 66.1115 56.0016 65.6869 55.7418C65.3956 55.5634 64.1438 54.3319 63.7532 54.0936C63.7532 54.0936 63.322 54.063 62.6877 54.7379C62.0537 55.4128 59.5544 56.3409 59.5544 56.3409L56.6934 52.0705Z" fill="#C67C6C"/>
<path d="M69.3948 52.3101C69.394 52.3382 69.029 52.3614 68.4517 52.2509C68.1645 52.1946 67.8257 52.1019 67.4644 51.9554C67.1176 51.7903 66.7423 51.5987 66.3471 51.398C66.0567 51.2474 65.7761 51.1022 65.5113 50.9648L65.5659 50.9785C64.2579 50.9913 63.3103 50.9669 63.3086 50.9143C63.3069 50.8613 64.2525 50.7968 65.563 50.7542L65.5891 50.7533L65.618 50.7674C65.882 50.9007 66.1613 51.0414 66.4506 51.1874C66.835 51.386 67.2008 51.576 67.5492 51.756C67.8923 51.9083 68.2146 52.0142 68.4898 52.0891C69.0406 52.2376 69.3973 52.2741 69.3948 52.3101Z" fill="#BE5444"/>
<path d="M57.7793 52.8117C57.9746 53.1783 58.4703 53.2755 58.8767 53.1895C59.2835 53.103 59.6488 52.8816 60.0482 52.7662C61.242 52.421 62.5699 53.0595 63.7463 52.6577C63.9102 52.6019 64.0947 52.4815 64.0749 52.3089C64.0562 52.1496 63.8766 52.0701 63.7235 52.0213C62.4163 51.605 61.1087 51.1883 59.8015 50.7716" fill="#C67C6C"/>
<path d="M59.8029 50.7716C59.8078 50.7563 59.9634 50.7898 60.2407 50.8634C60.5179 50.9371 60.9168 51.0505 61.4088 51.1961C61.9191 51.3509 62.4988 51.5268 63.1319 51.7188C63.2941 51.7693 63.46 51.8206 63.6289 51.8731C63.7828 51.9339 64.0108 51.9451 64.159 52.1888C64.2272 52.3138 64.1846 52.4855 64.0973 52.5733C64.0141 52.666 63.9156 52.7177 63.8151 52.7574C63.6206 52.822 63.4261 52.8695 63.2225 52.8898C62.4098 52.9722 61.6716 52.7835 61.0087 52.7702C60.6772 52.7578 60.364 52.7814 60.0847 52.8575C59.8058 52.9333 59.5517 53.0553 59.3063 53.1431C58.8197 53.3442 58.3376 53.3094 58.0794 53.1526C57.8108 52.9974 57.7707 52.8091 57.7806 52.8116C57.7993 52.7971 57.8679 52.9577 58.1199 53.0702C58.3707 53.1861 58.787 53.1977 59.2463 52.9883C59.4801 52.8944 59.7305 52.762 60.0317 52.6705C60.3325 52.5791 60.6685 52.5472 61.0141 52.5538C61.7047 52.5588 62.4446 52.7355 63.1965 52.6564C63.3831 52.6387 63.5656 52.5931 63.7323 52.5389C63.8933 52.4814 64.0025 52.3655 63.9516 52.2886C63.9094 52.1963 63.729 52.1388 63.5606 52.0866C63.393 52.032 63.2275 51.9778 63.0661 51.9248C62.4388 51.7155 61.864 51.5235 61.3584 51.3542C60.8734 51.1887 60.4815 51.0505 60.213 50.9503C59.9444 50.8502 59.7975 50.7873 59.8029 50.7716Z" fill="#BE5444"/>
<path d="M40.1294 73.4235L44.9671 72.9443C44.9671 72.9443 51.364 77.3257 50.7504 78.2898C50.1371 79.2536 49.0856 78.2898 49.0856 78.2898C49.0856 78.2898 50.2248 79.6918 48.3847 80.1296C48.3847 80.1296 47.9465 81.0937 47.2455 81.006L46.8073 81.0118C46.8073 81.0118 46.4104 82.2329 45.8203 81.9702C45.2299 81.707 43.4443 80.1296 43.4443 80.1296L38.4824 79.6918L40.1294 73.4235Z" fill="#C67C6C"/>
<path d="M43.1394 78.4103C43.1394 78.4103 41.9005 78.8862 41.6431 79.3836C41.3853 79.881 41.2363 81.0541 42.0354 81.2672C42.3408 81.3487 43.4427 81.2229 43.4427 81.2229L43.1369 79.9207C43.1369 79.9207 43.6004 79.3861 43.876 79.1568C44.1396 78.9375 43.8507 78.0805 43.1394 78.4103Z" fill="#F9AD95"/>
<path d="M44.5353 79.0723C44.5353 79.0723 43.2964 79.5482 43.039 80.0456C42.7816 80.543 42.9517 81.3784 43.7507 81.592C44.0561 81.6735 45.029 81.5481 45.029 81.5481L44.899 81.2957C44.6478 80.8074 44.5407 80.4122 44.9822 80.0857L45.2719 79.8192C45.5148 79.59 45.247 78.7425 44.5353 79.0723Z" fill="#F9AD95"/>
<path d="M44.8327 81.5029C44.6068 81.294 44.5848 80.9215 44.7322 80.6517C44.8791 80.3811 45.1621 80.2061 45.4584 80.1217C45.6533 80.0666 45.8945 80.0592 46.0249 80.2144C46.1089 80.3145 46.1217 80.4569 46.1043 80.5864C46.058 80.9302 45.8341 81.2199 45.6181 81.4914C45.5031 81.6362 45.3607 81.7943 45.1762 81.7897C44.9871 81.7847 44.8513 81.6122 44.745 81.4562" fill="#F9AD95"/>
<path d="M18.6847 42.5008L19.7717 42.0891L20.7152 43.7741L20.1901 45.5724L19.0807 45.8468L17.9746 44.4535L18.6847 42.5008Z" fill="#F03658"/>
<path d="M19.082 45.8469C19.082 45.8469 20.4898 53.5895 21.6633 59.0356C21.6633 59.0356 22.6258 63.5692 23.0156 64.6148C23.4505 65.7822 24.7892 67.5276 24.7892 67.5276L26.1522 68.0552L25.3197 60.4028L20.1914 45.5726L19.082 45.8469Z" fill="#F03658"/>
<path d="M19.0807 45.8468L17.9746 44.4535L18.6847 42.5008L19.7717 42.0891L20.7152 43.7741L20.1901 45.5724L19.0807 45.8468Z" fill="#A02232"/>
<path d="M23.3264 65.2902C23.1675 65.0084 23.0504 64.7659 23.0156 64.6148C23.0942 64.8259 23.2022 65.0555 23.3264 65.2902Z" fill="#909191"/>
<path d="M26.1522 68.0552L24.7892 67.5276C24.7892 67.5276 23.8403 66.2018 23.3264 65.2902C23.2022 65.0555 23.0942 64.8259 23.0156 64.6148C22.7657 63.527 21.6633 59.0356 21.6633 59.0356C20.4898 53.5895 19.082 45.8469 19.082 45.8469L20.1914 45.5726L25.3197 60.4028L26.1522 68.0552Z" fill="#A02232"/>
<path d="M12.1574 37.796L18.6856 42.5009L17.2741 46.3823L11.334 40.2659L12.1574 37.796Z" fill="#F8F8F9"/>
<path d="M19.7734 42.0892L21.5983 38.0198L22.6303 41.3766L21.1969 44.9047L19.7734 42.0892Z" fill="#F8F8F9"/>
<path d="M18.6854 42.5008C18.6962 42.505 18.6697 42.6093 18.6118 42.7992C18.5386 43.0243 18.4508 43.2933 18.3478 43.6107C18.1144 44.3029 17.7743 45.2783 17.3683 46.4171L17.3125 46.5747L17.1991 46.4497C16.7269 45.9296 16.2134 45.3631 15.6771 44.7714C14.4945 43.4588 13.4331 42.2629 12.6729 41.3898C12.3187 40.9768 12.0204 40.6284 11.7808 40.3487C11.5739 40.0996 11.4642 39.9568 11.4754 39.9473C11.4866 39.9369 11.6169 40.0603 11.8428 40.2924C12.0965 40.5601 12.4118 40.8928 12.7859 41.2876C13.575 42.1346 14.6546 43.3148 15.8373 44.627C16.3698 45.222 16.88 45.7914 17.3489 46.3148L17.1792 46.3479C17.5996 45.2145 17.9654 44.2487 18.2311 43.5684C18.3561 43.2585 18.4616 42.9966 18.5497 42.7764C18.6275 42.5935 18.6747 42.4971 18.6854 42.5008Z" fill="#1D2A30"/>
<path d="M22.6279 41.3766C22.6552 41.3878 22.5369 41.7507 22.323 42.3288C22.1094 42.9068 21.8003 43.6993 21.4465 44.5699C21.3944 44.6982 21.3427 44.8248 21.2934 44.9452L21.1863 45.2072L21.0936 44.9402C20.5407 43.3529 19.7367 42.3019 19.7917 42.2667C19.8116 42.2518 20.0355 42.4947 20.3367 42.9461C20.638 43.3959 21.0063 44.0634 21.2955 44.8691L21.0952 44.8645C21.144 44.7441 21.1949 44.6175 21.2471 44.4892C21.6009 43.6186 21.9323 42.8344 22.1819 42.2712C22.4318 41.708 22.6002 41.3654 22.6279 41.3766Z" fill="#1D2A30"/>
<path d="M105.618 163.907L108.135 173.899L112.406 181.227C112.713 181.755 112.509 182.433 111.962 182.704C111.655 182.856 111.296 182.852 110.995 182.689C109.078 181.655 102.044 177.814 101.9 177.073C101.734 176.214 98.5449 166.71 98.5449 166.71L105.618 163.907Z" fill="#F03658"/>
<path d="M111.469 182.826C111.295 182.826 111.122 182.783 110.965 182.698C105.645 179.797 103.304 178.283 102.469 177.716C102.302 177.602 102.159 177.458 102.047 177.293C103.086 178.383 109.224 181.733 110.995 182.689C111.15 182.773 111.321 182.815 111.492 182.815C111.652 182.815 111.813 182.778 111.961 182.704C111.807 182.786 111.639 182.826 111.469 182.826ZM101.87 176.947C101.857 176.909 101.844 176.87 101.833 176.832C101.836 176.832 101.837 176.832 101.839 176.832C101.851 176.874 101.862 176.913 101.87 176.947ZM101.786 176.645C101.784 176.645 101.784 176.645 101.782 176.645L101.717 176.41C101.742 176.495 101.766 176.574 101.786 176.645Z" fill="white"/>
<path d="M101.833 176.832C101.832 176.829 101.831 176.826 101.83 176.823L101.781 176.646C101.783 176.646 101.784 176.646 101.786 176.646C101.806 176.714 101.823 176.776 101.839 176.832C101.837 176.832 101.835 176.832 101.833 176.832Z" fill="#A5ADAD"/>
<path d="M111.494 182.815C111.323 182.815 111.152 182.773 110.997 182.689C109.226 181.733 103.088 178.383 102.049 177.293C101.977 177.186 101.917 177.07 101.872 176.947C101.864 176.913 101.853 176.874 101.841 176.832C101.826 176.776 101.809 176.714 101.788 176.645C101.768 176.574 101.745 176.495 101.719 176.41L101.717 176.403L111.963 182.704C111.815 182.778 111.654 182.815 111.494 182.815Z" fill="#F9A8BF"/>
<path d="M102.676 173.813C102.621 173.813 102.565 173.804 102.512 173.787C102.214 173.689 101.978 173.27 102.102 172.983C102.195 172.766 102.462 172.599 102.702 172.599C102.781 172.599 102.858 172.617 102.924 172.658C103.188 172.784 103.344 173.112 103.259 173.393C103.185 173.639 102.93 173.813 102.676 173.813Z" fill="#F9A8BF"/>
<path d="M108.494 178.993C108.557 179.005 108.638 178.423 109.151 177.98C109.651 177.522 110.239 177.51 110.234 177.445C110.236 177.419 110.089 177.376 109.847 177.407C109.608 177.437 109.281 177.563 109.001 177.811C108.722 178.06 108.559 178.37 108.501 178.605C108.442 178.841 108.467 178.992 108.494 178.993Z" fill="#1D2A30"/>
<path d="M109.568 180.127C109.627 180.157 109.857 179.746 110.33 179.457C110.796 179.157 111.266 179.13 111.265 179.063C111.28 179.005 110.743 178.927 110.21 179.265C109.672 179.598 109.509 180.115 109.568 180.127Z" fill="#1D2A30"/>
<path d="M106.706 177.652C106.765 177.687 107.115 177.053 107.811 176.539C108.5 176.014 109.206 175.855 109.189 175.788C109.191 175.731 108.415 175.797 107.675 176.358C106.931 176.911 106.65 177.638 106.706 177.652Z" fill="#1D2A30"/>
<path d="M105.685 174.679C105.727 174.731 106.213 174.35 106.919 174.127C107.623 173.894 108.239 173.919 108.244 173.852C108.258 173.795 107.607 173.663 106.85 173.912C106.091 174.153 105.64 174.642 105.685 174.679Z" fill="#1D2A30"/>
<path d="M104.872 171.765C104.919 171.814 105.379 171.331 106.143 171.156C106.902 170.965 107.532 171.188 107.551 171.123C107.561 171.098 107.418 171.003 107.153 170.934C106.889 170.865 106.5 170.839 106.09 170.937C105.68 171.036 105.344 171.235 105.141 171.416C104.936 171.598 104.851 171.747 104.872 171.765Z" fill="#1D2A30"/>
<path d="M105.971 170.606C105.983 170.603 105.969 170.463 105.88 170.227C105.791 169.992 105.624 169.658 105.309 169.326C105.152 169.171 104.974 168.964 104.661 168.91C104.504 168.883 104.306 168.965 104.225 169.129C104.143 169.289 104.152 169.462 104.192 169.621C104.377 170.249 105.086 170.708 105.82 170.603C106.554 170.484 107.086 169.9 107.218 169.277C107.24 169.119 107.235 168.935 107.112 168.788C106.989 168.64 106.769 168.628 106.633 168.692C106.35 168.818 106.211 169.039 106.073 169.213C105.807 169.583 105.675 169.93 105.609 170.172C105.542 170.415 105.538 170.555 105.551 170.557C105.593 170.574 105.667 170 106.201 169.31C106.338 169.147 106.493 168.945 106.7 168.868C106.801 168.828 106.901 168.845 106.961 168.918C107.021 168.988 107.035 169.118 107.012 169.244C106.896 169.755 106.409 170.288 105.787 170.379C105.169 170.474 104.546 170.069 104.393 169.565C104.358 169.443 104.356 169.312 104.401 169.221C104.446 169.132 104.538 169.085 104.64 169.097C104.855 169.121 105.042 169.294 105.196 169.439C105.816 170.052 105.929 170.629 105.971 170.606Z" fill="#1D2A30"/>
<path d="M74.414 165.772L74.9474 173.473C74.9474 173.473 67.2999 176.601 67.2598 178.034L82.2273 177.536L81.8884 165.503L74.414 165.772Z" fill="#F03658"/>
<path d="M79.5555 172.67C79.848 172.739 80.0591 173.059 80.0011 173.354C79.944 173.648 79.6213 173.866 79.3279 173.802C79.0341 173.737 78.7692 173.362 78.8599 173.075C78.9497 172.788 79.3428 172.554 79.6117 172.687" fill="#E3E3E2"/>
<path d="M82.2281 177.536L82.1466 176.324L67.8262 177.255C67.8262 177.255 67.1699 177.567 67.2605 178.034L82.2281 177.536Z" fill="#E3E3E2"/>
<path d="M74.7017 173.405C74.7063 173.478 75.0729 173.499 75.4403 173.722C75.8136 173.935 76.0097 174.246 76.076 174.215C76.1426 174.198 76.0193 173.765 75.5695 173.502C75.1221 173.236 74.6835 173.338 74.7017 173.405Z" fill="#1D2A30"/>
<path d="M73.1547 174.107C73.1407 174.178 73.4614 174.291 73.72 174.592C73.9873 174.886 74.061 175.217 74.1338 175.212C74.2029 175.221 74.2393 174.791 73.9107 174.423C73.5851 174.053 73.1543 174.037 73.1547 174.107Z" fill="#1D2A30"/>
<path d="M72.3268 176.015C72.3939 176.028 72.4832 175.66 72.2821 175.266C72.0843 174.87 71.7343 174.724 71.7057 174.785C71.666 174.847 71.8952 175.054 72.055 175.38C72.223 175.702 72.254 176.01 72.3268 176.015Z" fill="#1D2A30"/>
<path d="M74.7763 171.636C74.809 171.702 75.1409 171.59 75.5551 171.604C75.9693 171.61 76.2954 171.738 76.3314 171.674C76.3723 171.62 76.0496 171.36 75.5613 171.35C75.0738 171.336 74.7387 171.58 74.7763 171.636Z" fill="#1D2A30"/>
<path d="M74.6973 170.081C74.6977 170.111 74.9878 170.147 75.4467 170.052C75.6751 170.005 75.9437 169.92 76.223 169.785C76.3628 169.717 76.5052 169.636 76.6459 169.543C76.7133 169.495 76.7936 169.448 76.8664 169.358C76.9451 169.279 76.9844 169.084 76.8871 168.969C76.8068 168.856 76.6695 168.811 76.5615 168.812C76.4506 168.812 76.362 168.837 76.2813 168.86C76.1162 168.906 75.9619 168.967 75.8208 169.036C75.539 169.175 75.3122 169.348 75.1446 169.512C74.8082 169.845 74.6985 170.122 74.7238 170.136C74.7577 170.159 74.9191 169.924 75.2638 169.647C75.4355 169.509 75.6561 169.365 75.9197 169.248C76.0517 169.191 76.1944 169.14 76.3459 169.101C76.5027 169.054 76.6376 169.049 76.681 169.118C76.6964 169.145 76.6988 169.155 76.6674 169.202C76.6343 169.246 76.5714 169.29 76.5052 169.336C76.3757 169.427 76.2449 169.507 76.1166 169.576C75.8601 169.714 75.613 169.811 75.4012 169.878C74.9766 170.012 74.6948 170.041 74.6973 170.081Z" fill="#1D2A30"/>
<path d="M74.7943 170.182C74.8207 170.193 74.9573 169.926 74.9681 169.452C74.973 169.217 74.9391 168.933 74.8385 168.634C74.7876 168.486 74.7202 168.334 74.6325 168.186C74.5398 168.041 74.4264 167.846 74.1417 167.823C73.9936 167.822 73.8744 167.942 73.8359 168.043C73.7896 168.146 73.7825 168.233 73.768 168.32C73.7461 168.496 73.7552 168.667 73.7842 168.825C73.8417 169.142 73.9807 169.403 74.1301 169.588C74.4355 169.967 74.7434 170.044 74.7487 170.019C74.7719 169.981 74.5125 169.849 74.2762 169.483C74.1599 169.303 74.0535 169.064 74.0155 168.787C73.9964 168.649 73.9935 168.502 74.0147 168.354C74.0329 168.194 74.0883 168.063 74.1487 168.078C74.2228 168.074 74.3536 168.189 74.4189 168.314C74.5 168.446 74.5658 168.581 74.618 168.715C74.721 168.982 74.7707 169.239 74.7885 169.458C74.8236 169.896 74.7545 170.172 74.7943 170.182Z" fill="#1D2A30"/>
<path d="M70.332 82.0068L72.7399 171.618L84.5469 171.263L83.6399 94.3526L98.6857 173.402L109.35 170.618L95.5822 82.1777L70.332 82.0068Z" fill="#1D2A30"/>
<path d="M76.7994 171.736C76.7398 171.736 76.6914 153.161 76.6914 130.252C76.6914 107.335 76.7398 88.7637 76.7994 88.7637C76.859 88.7637 76.9074 107.335 76.9074 130.252C76.9074 153.161 76.859 171.736 76.7994 171.736Z" fill="#365462"/>
<path d="M102.054 173.374C101.995 173.383 99.2369 155.574 95.8938 133.6C92.5499 111.619 89.8875 93.799 89.9463 93.7899C90.005 93.7812 92.7626 111.587 96.1069 133.568C99.4496 155.541 102.113 173.365 102.054 173.374Z" fill="#365462"/>
<path d="M87.2495 25.9701C87.6 25.0146 88.0573 24.1179 88.2476 23.1182C88.3891 22.3742 88.6122 21.2577 88.313 20.5621C88.0142 19.8665 87.2917 19.2003 86.3789 19.389C86.1509 17.9175 85.368 16.7229 83.8783 16.0008C82.5388 15.3516 81.2221 15.0333 79.7374 14.9245C79.2888 14.8918 78.5887 14.9208 78.1852 15.1194C77.7813 15.3176 77.4064 15.7174 77.2521 16.1258C76.4717 15.5071 75.3478 15.328 74.209 15.6379C73.0706 15.9474 71.7701 16.5623 71.2706 17.6316C70.9615 18.2933 70.8469 19.1118 71.1804 20.157C71.4022 20.853 72.1379 21.9451 72.8228 21.6906" fill="#1D2A30"/>
<path d="M81.4946 45.2975C78.6141 45.2375 76.3511 42.8093 76.4951 39.9321C76.5667 38.5016 76.6329 37.3483 76.6329 37.3483C76.6329 37.3483 72.7369 36.8423 72.5913 32.9633C72.4464 29.0839 72.8954 20.157 72.8954 20.157C77.3388 18.1141 82.5395 18.6354 86.4888 21.5205L87.0747 21.9488L86.7118 40.2876C86.6555 43.1122 84.3192 45.3562 81.4946 45.2975Z" fill="#F9AD95"/>
<path d="M76.6234 37.2923C76.6234 37.2923 79.0806 37.4301 81.6461 35.7277C81.6461 35.7277 80.449 38.7381 76.5684 38.4857L76.6234 37.2923Z" fill="#F6865E"/>
<path d="M86.6947 25.9796C86.7601 25.9494 89.3414 25.1243 89.3232 27.7792C89.305 30.4342 86.643 29.8681 86.6389 29.7919C86.6347 29.7158 86.6947 25.9796 86.6947 25.9796Z" fill="#F9AD95"/>
<path d="M87.4577 28.7922C87.4693 28.7839 87.5036 28.8249 87.5818 28.8613C87.6575 28.8964 87.7887 28.9213 87.9273 28.8704C88.2083 28.7694 88.4475 28.3258 88.4636 27.8475C88.4723 27.6058 88.4235 27.3753 88.3391 27.1846C88.2592 26.9897 88.1346 26.8531 87.9935 26.827C87.8533 26.7935 87.7527 26.8771 87.72 26.952C87.6836 27.0256 87.7002 27.079 87.6861 27.0836C87.6786 27.0902 87.6294 27.0385 87.6517 26.9288C87.6629 26.8767 87.6944 26.8142 87.7568 26.7633C87.8214 26.712 87.9149 26.6863 88.0134 26.6975C88.2182 26.7132 88.4007 26.9028 88.4938 27.1125C88.5977 27.3232 88.6581 27.5822 88.649 27.8537C88.6283 28.3883 88.3507 28.8873 87.9662 28.9958C87.7792 29.0429 87.6236 28.9854 87.5437 28.9221C87.4622 28.8563 87.4482 28.7967 87.4577 28.7922Z" fill="#F6865E"/>
<path d="M73.9043 26.2168C73.9014 26.5097 74.1468 26.7539 74.4526 26.7626C74.758 26.7713 75.0083 26.5416 75.0117 26.2486C75.0145 25.9557 74.7692 25.7115 74.4638 25.7024C74.1576 25.6937 73.9072 25.9242 73.9043 26.2168Z" fill="#1D2A30"/>
<path d="M73.7653 25.597C73.8361 25.6678 74.2478 25.3463 74.8441 25.333C75.44 25.3111 75.8853 25.607 75.9477 25.5321C75.9792 25.499 75.9059 25.3703 75.7114 25.2366C75.5207 25.1029 75.1975 24.9767 74.8259 24.9875C74.4547 24.9991 74.1456 25.1435 73.9694 25.2879C73.7898 25.4332 73.7306 25.5656 73.7653 25.597Z" fill="#1D2A30"/>
<path d="M79.7442 26.2107C79.7413 26.5037 79.9867 26.7474 80.2925 26.7561C80.5978 26.7648 80.8482 26.5351 80.8511 26.2422C80.8544 25.9496 80.6086 25.7051 80.3036 25.6964C79.9974 25.6873 79.7471 25.9178 79.7442 26.2107Z" fill="#1D2A30"/>
<path d="M79.6306 25.5611C79.7009 25.6319 80.1135 25.3108 80.7094 25.2975C81.3048 25.2756 81.7501 25.5715 81.813 25.4966C81.844 25.4635 81.7716 25.3348 81.5767 25.2011C81.3855 25.067 81.0623 24.9408 80.6907 24.952C80.3196 24.9632 80.0109 25.108 79.8346 25.2524C79.655 25.3977 79.5958 25.5301 79.6306 25.5611Z" fill="#1D2A30"/>
<path d="M77.577 30.0377C77.5791 30.0037 77.2066 29.9491 76.6037 29.8875C76.4515 29.8755 76.3066 29.849 76.2781 29.7455C76.24 29.6363 76.2992 29.4708 76.3687 29.292C76.5024 28.9196 76.6426 28.5298 76.7899 28.1209C77.3738 26.4546 77.7922 25.0857 77.7251 25.063C77.6577 25.0402 77.1297 26.3722 76.5462 28.0386C76.4055 28.4495 76.2715 28.841 76.144 29.2159C76.0906 29.3901 75.9967 29.5891 76.0799 29.8151C76.1237 29.928 76.2375 30.0079 76.3356 30.0319C76.4341 30.0592 76.5197 30.0584 76.5955 30.0613C77.2004 30.0786 77.5758 30.0716 77.577 30.0377Z" fill="#1D2A30"/>
<path d="M79.3436 30.4062C79.2463 30.4028 79.2612 31.0504 78.7191 31.5234C78.1775 31.998 77.4856 31.943 77.4827 32.0332C77.4748 32.0746 77.6395 32.1553 77.9313 32.1557C78.2172 32.1586 78.6318 32.0564 78.9641 31.7667C79.2943 31.4767 79.4309 31.0972 79.4462 30.8311C79.464 30.5597 79.3878 30.4012 79.3436 30.4062Z" fill="#1D2A30"/>
<path d="M79.4158 23.2284C79.4787 23.389 80.0721 23.2971 80.7735 23.3642C81.4769 23.4167 82.0463 23.6075 82.1349 23.4598C82.175 23.389 82.0728 23.2388 81.8411 23.0878C81.6106 22.9363 81.246 22.7968 80.8248 22.7604C80.4039 22.7253 80.0212 22.8014 79.7692 22.9115C79.5143 23.0215 79.3885 23.1519 79.4158 23.2284Z" fill="#1D2A30"/>
<path d="M73.9407 23.8658C74.0491 23.9987 74.4558 23.848 74.9499 23.829C75.4432 23.7926 75.864 23.8973 75.9571 23.7529C75.9973 23.6829 75.9281 23.5493 75.7419 23.4255C75.559 23.3022 75.2553 23.2054 74.916 23.224C74.5767 23.2435 74.2858 23.3734 74.1178 23.5166C73.946 23.6597 73.8927 23.8013 73.9407 23.8658Z" fill="#1D2A30"/>
<path d="M87.2781 22.2539C87.2541 23.3856 87.5376 24.6382 87.3675 25.7542C87.3418 25.9226 86.9177 26.3815 86.8833 26.5487C86.6797 27.5373 86.2825 27.9689 85.673 26.9695C85.4383 26.5847 85.2658 25.5038 85.1685 25.0669C84.9029 23.8784 84.6376 22.69 84.3724 21.5016C83.4575 21.9563 82.4611 22.3118 81.4402 22.2754C80.4194 22.239 79.37 21.7482 78.8813 20.8511C78.4182 21.6663 77.5708 22.2518 76.6447 22.397C75.7186 22.5423 74.7329 22.2443 74.0423 21.61C73.7092 22.1719 72.8898 22.347 72.3233 22.0217C71.7564 21.6965 71.4883 20.9587 71.6501 20.3256C71.8934 19.3722 72.8944 18.833 73.8312 18.5317C77.4942 17.3532 81.5966 18.1018 84.9629 19.9655C85.4541 20.237 85.9382 20.5366 86.3272 20.9409C86.7166 21.3456 87.2541 21.819 87.2843 22.3797" fill="#1D2A30"/>
<path d="M84.4893 21.9441C84.498 21.9818 84.7421 21.8945 85.0914 22.0406C85.2639 22.1113 85.4559 22.2317 85.645 22.3973C85.8337 22.5615 86.0224 22.7788 86.2483 22.989C86.4718 23.2004 86.7288 23.3829 87.0023 23.4628C87.2754 23.5456 87.5365 23.5278 87.738 23.4731C88.1485 23.3581 88.3111 23.1322 88.2917 23.1185C88.2693 23.0875 88.0761 23.2542 87.7041 23.3155C87.5208 23.3453 87.2936 23.3436 87.0673 23.2638C86.8392 23.1856 86.6174 23.0246 86.4031 22.8226C86.1875 22.622 85.9934 22.4072 85.7795 22.2359C85.5676 22.0662 85.3454 21.9475 85.1439 21.8883C84.7268 21.7658 84.4702 21.9255 84.4893 21.9441Z" fill="#365462"/>
<path d="M84.9426 23.1041C84.9468 23.1359 85.1412 23.1086 85.3626 23.2907C85.4723 23.3763 85.577 23.5129 85.7007 23.6747C85.8224 23.8369 85.9933 24.0177 86.2055 24.1439C86.6305 24.41 87.1018 24.4493 87.4138 24.4001C87.7329 24.3517 87.8992 24.2341 87.8881 24.2106C87.8752 24.1766 87.694 24.2358 87.4002 24.2395C87.1109 24.2453 86.6988 24.1845 86.3255 23.9507C85.9469 23.7359 85.7574 23.3341 85.4541 23.1583C85.1574 22.977 84.9224 23.0767 84.9426 23.1041Z" fill="#365462"/>
<path d="M74.7064 15.5576C74.7069 15.5456 74.5815 15.5253 74.3659 15.5899C74.1544 15.6536 73.8557 15.8212 73.6181 16.1514C73.1423 16.8172 73.0334 17.9999 73.4013 19.1436C73.7741 20.3064 74.6233 21.1071 75.3019 21.4808C75.642 21.6769 75.9425 21.7845 76.1518 21.8432C76.3612 21.9024 76.4825 21.9119 76.4854 21.8995C76.4986 21.8594 76.0244 21.7535 75.3859 21.3434C74.7511 20.9461 73.9711 20.1736 73.6177 19.072C73.2672 17.9879 73.3512 16.8611 73.7514 16.242C73.95 15.9313 74.2095 15.7567 74.3969 15.6727C74.5877 15.5878 74.7085 15.5767 74.7064 15.5576Z" fill="#365462"/>
<path d="M71.4931 17.1684C71.467 17.1693 71.4434 17.4581 71.5262 17.9166C71.6069 18.3734 71.8196 18.9945 72.2139 19.5904C72.6112 20.1846 73.1015 20.6208 73.4917 20.872C73.8824 21.1252 74.158 21.2154 74.1687 21.1918C74.2101 21.1314 73.1595 20.6224 72.4034 19.4642C71.628 18.3196 71.5647 17.1535 71.4931 17.1684Z" fill="#365462"/>
<path d="M50.0916 71.2454L44.4139 71.5329C43.6901 71.5698 43.1241 72.1727 43.139 72.8977C43.1659 74.1945 43.3848 75.971 44.3957 75.8021L45.0429 72.975L49.7548 77.1325C50.2311 77.5641 50.8195 77.8521 51.4526 77.9642L52.5595 77.85L50.0916 71.2454Z" fill="#F9AD95"/>
<path d="M77.2448 40.8358L74.2766 41.8161L72.8047 66.46V88.3181L91.0243 90.3367L91.2358 58.8129L90.0589 43.1237L87.2761 39.798L77.2448 40.8358Z" fill="#E3E3E2"/>
<path d="M76.332 42.0154V39.6269L87.1591 38.1199L86.7242 43.6213L84.236 47.9344L80.1704 48.1611L77.2316 46.3462L76.332 42.0154Z" fill="#E3E3E2"/>
<path d="M77.3013 41.7361C77.2418 41.7336 77.2145 41.2449 77.2401 40.6449C77.2658 40.044 77.3349 39.5595 77.3945 39.5624C77.4536 39.5649 77.4809 40.0536 77.4553 40.6536C77.4296 41.254 77.3605 41.7386 77.3013 41.7361Z" fill="#1D2A30"/>
<path d="M80.0091 41.5395C79.9495 41.5358 79.9333 40.9896 79.9726 40.3192C80.012 39.6489 80.0918 39.1085 80.1514 39.1122C80.2106 39.1155 80.2267 39.6617 80.1874 40.3321C80.1485 41.002 80.0682 41.5428 80.0091 41.5395Z" fill="#1D2A30"/>
<path d="M82.6266 41.265C82.5674 41.2608 82.5616 40.6832 82.6137 39.9752C82.6655 39.2672 82.7557 38.6965 82.8153 38.7007C82.8744 38.7052 82.8802 39.2825 82.8281 39.9913C82.7764 40.6989 82.6862 41.2695 82.6266 41.265Z" fill="#1D2A30"/>
<path d="M85.14 40.8523C85.0816 40.8548 85.0134 40.3073 85.0452 39.6303C85.0754 38.9534 85.193 38.4146 85.2509 38.422C85.3109 38.4295 85.2898 38.9732 85.26 39.6403C85.229 40.3069 85.2004 40.8502 85.14 40.8523Z" fill="#1D2A30"/>
<path d="M83.9391 51.2691C83.9527 51.2753 83.9006 51.4193 83.7955 51.6742C83.6908 51.9296 83.5282 52.2933 83.3171 52.739C82.8955 53.6303 82.269 54.8415 81.5001 56.1354C80.7305 57.4294 79.9658 58.5586 79.384 59.354C79.0935 59.7525 78.8514 60.0694 78.6772 60.2829C78.5034 60.4973 78.402 60.6115 78.39 60.6024C78.3643 60.5834 78.7111 60.0831 79.259 59.2667C79.8073 58.4511 80.5488 57.3135 81.3152 56.0249C82.0807 54.7368 82.7258 53.5421 83.1806 52.6707C83.6358 51.8 83.9101 51.2559 83.9391 51.2691Z" fill="#1D2A30"/>
<path d="M87.2197 39.414L90.1589 40.8296L95.8342 42.2179C98.3265 42.6508 100.037 44.9684 99.7152 47.4773L96.7433 70.6535L100.29 93.1224L86.2216 92.7033L85.3965 84.3449V61.1733L87.2197 39.414Z" fill="#365462"/>
<path d="M85.3982 66.5148C85.3912 66.5131 85.4053 66.4142 85.4396 66.2276C85.4806 66.0199 85.5336 65.7492 85.5994 65.4128C85.7525 64.6829 85.9652 63.6686 86.2258 62.4256C86.7803 59.8865 87.5372 56.4188 88.3735 52.5883C88.6081 51.5327 88.8365 50.5052 89.0558 49.5191L89.0827 49.6147C88.75 49.2671 88.4252 48.927 88.1074 48.5947L88.0536 48.5384L88.0938 48.4718C88.6768 47.5019 89.2251 46.5898 89.7303 45.7494L89.7249 45.8309C88.9834 44.0338 88.3656 42.5358 87.9228 41.4616C87.7184 40.9506 87.5546 40.5413 87.4329 40.2372C87.3232 39.9537 87.2686 39.8014 87.2773 39.7977C87.286 39.794 87.3576 39.9392 87.4834 40.2157C87.6166 40.5148 87.7954 40.9179 88.0188 41.4206C88.4794 42.4878 89.1212 43.9759 89.8917 45.7606L89.9095 45.8024L89.8859 45.8425C89.3869 46.6863 88.8452 47.602 88.2692 48.5761L88.2551 48.4536C88.5738 48.7842 88.9002 49.1227 89.2342 49.4691L89.2735 49.5096L89.2611 49.5647C89.0434 50.5507 88.8167 51.579 88.5837 52.6346C87.7234 56.4602 86.945 59.9229 86.3748 62.4587C86.086 63.6955 85.8505 64.7048 85.6813 65.431C85.5989 65.7641 85.5331 66.0314 85.4822 66.2367C85.4338 66.4208 85.4057 66.516 85.3982 66.5148Z" fill="#1D2A30"/>
<path d="M50.334 70.3119L62.7815 63.3725L68.8127 47.1068C69.6552 44.8346 71.4039 43.0143 73.6405 42.0816L75.2415 41.4137L75.2493 84.2413L75.57 94.3868L68.8259 92.3667L72.265 71.975L71.0762 61.9382L69.8948 66.7938C69.4719 68.5297 68.3633 70.0202 66.8223 70.9235L53.8645 77.6536L50.334 70.3119Z" fill="#365462"/>
<path d="M50.4852 70.6267L49.4375 70.9391L52.3846 77.9642L53.7576 77.4321L50.4852 70.6267Z" fill="#E3E3E2"/>
<path d="M65.0338 66.2597C64.9704 66.2804 64.7565 65.4599 64.1027 64.6848C63.4609 63.8994 62.6937 63.5382 62.7256 63.4794C62.7351 63.4264 63.5867 63.7169 64.2686 64.547C64.9589 65.3697 65.0875 66.2606 65.0338 66.2597Z" fill="#1D2A30"/>
<path d="M51.8277 70.4021C51.841 70.4302 51.7665 70.4861 51.759 70.6065C51.7462 70.7311 51.8319 70.866 51.9949 70.8159C52.1592 70.7695 52.1584 70.6098 52.0801 70.5122C52.0086 70.4149 51.9159 70.4083 51.9117 70.3773C51.8972 70.3533 52.0272 70.2846 52.1852 70.4021C52.2564 70.458 52.3326 70.5589 52.3272 70.7025C52.3239 70.8494 52.1997 70.9835 52.0557 71.0228C51.9134 71.0679 51.7367 71.022 51.6543 70.9003C51.5724 70.7828 51.5815 70.6562 51.6109 70.5709C51.6804 70.3868 51.8265 70.3744 51.8277 70.4021Z" fill="#1D2A30"/>
<path d="M52.8297 69.9786C52.8429 70.0071 52.7684 70.063 52.761 70.183C52.7482 70.308 52.8338 70.4425 52.9969 70.3928C53.1611 70.3465 53.1603 70.1867 53.0821 70.0887C53.0105 69.9914 52.9178 69.9852 52.9137 69.9542C52.8996 69.9302 53.0291 69.8611 53.1872 69.9786C53.2584 70.0344 53.3345 70.1358 53.3291 70.2794C53.3258 70.4259 53.2021 70.5604 53.0577 70.5997C52.9153 70.6448 52.7386 70.5989 52.6563 70.4772C52.5744 70.3593 52.5835 70.2331 52.6128 70.1474C52.6824 69.9633 52.8288 69.9509 52.8297 69.9786Z" fill="#1D2A30"/>
<path d="M75.2399 67.1761C75.2329 67.177 75.2143 67.0859 75.1857 66.9117C75.1559 66.7152 75.1179 66.4619 75.0711 66.1487C74.9776 65.4585 74.8477 64.5046 74.6892 63.3373C74.3846 60.9377 73.9692 57.6666 73.5107 54.0525C73.4469 53.5393 73.3849 53.0328 73.3236 52.535L73.3203 52.5082L73.3302 52.4829C73.6439 51.6851 73.9481 50.9121 74.2394 50.1714L74.241 50.2505C73.9269 49.5321 73.6261 48.846 73.3431 48.1992L73.3294 48.1682L73.3385 48.1363C73.8897 46.1431 74.3532 44.4676 74.6867 43.2614C74.851 42.6916 74.9826 42.2339 75.081 41.8938C75.1754 41.5784 75.2304 41.4113 75.2399 41.4137C75.2503 41.4162 75.2143 41.5888 75.1377 41.9086C75.0525 42.2525 74.9379 42.7147 74.7947 43.2903C74.4798 44.5015 74.042 46.184 73.5214 48.1856L73.5165 48.1227C73.8045 48.767 74.1094 49.4514 74.4289 50.1677L74.4463 50.2062L74.4305 50.2467C74.1421 50.9878 73.8409 51.7621 73.5297 52.5611L73.5359 52.509C73.598 53.0064 73.6605 53.5129 73.7242 54.026C74.1587 57.6434 74.5518 60.917 74.8406 63.3187C74.971 64.4893 75.0773 65.446 75.1543 66.1383C75.1849 66.4541 75.2097 66.7085 75.2288 66.9063C75.2432 67.0822 75.2478 67.1753 75.2399 67.1761Z" fill="#1D2A30"/>
<path d="M72.2473 72.0941C72.2398 72.0949 72.2253 72.025 72.2046 71.8918C72.1827 71.7333 72.1558 71.54 72.1235 71.3066C72.0569 70.7646 71.9671 70.0363 71.8583 69.1516C71.6377 67.3317 71.3282 64.8182 70.9566 62.0466C70.5842 59.2741 70.2192 56.7678 69.9515 54.9545C69.8236 54.0718 69.7177 53.346 69.6391 52.8056C69.6085 52.5718 69.5836 52.3786 69.5625 52.2201C69.5476 52.0856 69.5431 52.0148 69.5501 52.0132C69.5576 52.0119 69.5766 52.0806 69.6052 52.213C69.6366 52.3695 69.6755 52.5606 69.7223 52.792C69.8191 53.2955 69.949 54.0263 70.1021 54.9305C70.4083 56.7388 70.7973 59.2431 71.1706 62.0176C71.5426 64.7918 71.8281 67.3093 72.0097 69.1346C72.1012 70.047 72.1682 70.7861 72.2071 71.298C72.2233 71.533 72.2369 71.7275 72.2477 71.8872C72.2547 72.0221 72.2547 72.0937 72.2473 72.0941Z" fill="#1D2A30"/>
<path d="M70.5277 87.3178C70.5467 87.3079 70.5964 87.4763 70.8161 87.6658C71.0279 87.8475 71.4533 88.0399 71.952 87.9207C72.4473 87.8045 72.9339 87.3418 73.1838 86.7091C73.4425 86.0731 73.4731 85.2914 73.5314 84.4825C73.5819 83.6789 73.5629 82.898 73.3005 82.2628C73.0477 81.6248 72.5569 81.201 72.1725 80.8377C71.7778 80.4785 71.4744 80.1562 71.311 79.8996C71.1446 79.6451 71.0979 79.4813 71.1074 79.4775C71.1248 79.4693 71.1972 79.6187 71.3788 79.8504C71.5584 80.085 71.8667 80.3792 72.2747 80.7243C72.6683 81.0715 73.1971 81.4994 73.4839 82.1871C73.7756 82.8657 73.7971 83.6822 73.7462 84.4957C73.687 85.3043 73.6543 86.1042 73.3672 86.7844C73.0895 87.4598 72.547 87.958 71.9855 88.0693C71.4202 88.181 70.9712 87.9427 70.759 87.7279C70.6489 87.6178 70.5914 87.5098 70.5579 87.4374C70.5297 87.3617 70.5206 87.3203 70.5277 87.3178Z" fill="#1D2A30"/>
<path d="M65.9023 71.2455C65.9023 71.2455 66.3041 66.5 70.0726 66.0606C70.0726 66.0606 70.1421 69.9284 65.9023 71.2455Z" fill="#1D2A30"/>
<path d="M86.0469 89.0181C86.2935 89.1828 96.9902 96.1769 96.9902 96.1769L98.2242 95.1891L98.8081 79.1444L88.3857 71.2454L86.9519 71.7395L86.0469 89.0181Z" fill="#F03658"/>
<path d="M88.2689 71.4731L88.696 88.8386H86.3965L87.167 71.8169L88.2689 71.4731Z" fill="#E3E3E2"/>
<path d="M91.7132 92.8237C91.7132 92.8237 91.9565 93.5917 92.9476 93.6633C92.9786 93.6658 93.0088 93.6885 93.0378 93.7386C93.2604 94.1177 93.6386 94.3879 94.0785 94.3862C94.4186 94.385 94.8279 94.3055 95.2516 94.0473C95.8235 93.6989 96.8427 91.4147 96.8427 91.4147L99.256 86.039L95.197 84.9421L90.0406 86.5488C90.0406 86.6424 88.834 91.5244 88.834 91.5244C88.834 91.5244 89.8114 91.7987 90.2827 90.7564C90.754 89.7144 91.1926 89.0532 91.1926 89.0532L91.5767 91.25L90.1106 91.7515C90.1106 91.7515 89.9326 92.5643 90.7383 92.8663L91.7132 92.8237Z" fill="#F9AD95"/>
<path d="M93.5332 55.0763L100.291 67.5143L94.7916 83.84L100.907 87.2832L108.678 69.1236C109.255 67.7771 109.231 66.2489 108.613 64.921L99.0773 44.4404L93.5332 55.0763Z" fill="#365462"/>
<path d="M94.7913 83.8401L94.2207 85.1051L99.9903 88.2148L100.595 87.1079L94.7913 83.8401Z" fill="#E3E3E2"/>
<path d="M94.7915 83.8399C94.7882 83.8387 94.7944 83.8105 94.8093 83.7563C94.8284 83.6914 94.852 83.6128 94.8805 83.5159C94.9517 83.2908 95.0493 82.9829 95.1727 82.5923C95.4408 81.7738 95.8219 80.6102 96.2957 79.1615C97.2731 76.2314 98.6337 72.1513 100.191 67.4807L100.2 67.5676C99.4133 66.2315 98.606 64.8196 97.7899 63.3622C96.3007 60.701 94.9318 58.1371 93.7616 55.7669C93.1839 54.578 92.6448 53.443 92.1892 52.3576C91.693 51.2734 91.5701 50.1354 91.6256 49.1345C91.6901 48.1302 91.8904 47.2268 92.2293 46.4973C92.5632 45.7661 93.0085 45.2207 93.4223 44.8405C93.8419 44.4627 94.2292 44.2475 94.4986 44.1287C94.7688 44.0079 94.9227 43.9781 94.9227 43.9781C94.9438 44.0112 94.2975 44.1415 93.4794 44.9017C93.0821 45.284 92.6555 45.8265 92.3394 46.547C92.0183 47.2624 91.8316 48.1554 91.7778 49.1423C91.734 50.1276 91.861 51.2299 92.3539 52.2876C92.8144 53.3656 93.3586 54.4953 93.9395 55.6791C95.118 58.0403 96.4902 60.598 97.9778 63.2575C98.793 64.7128 99.5991 66.1255 100.381 67.4605L100.406 67.5022L100.39 67.5478C98.8046 72.2088 97.4192 76.2806 96.424 79.2049C95.9254 80.645 95.5244 81.8015 95.2422 82.6155C95.1044 83.0012 94.996 83.3053 94.9161 83.5279C94.8805 83.6223 94.8511 83.6992 94.8271 83.7625C94.8064 83.8147 94.794 83.8412 94.7915 83.8399Z" fill="#1D2A30"/>
<path d="M104.861 67.398C104.843 67.4286 104.603 67.2995 104.195 67.163C103.787 67.0252 103.2 66.9023 102.546 66.9209C101.891 66.9428 101.313 67.1022 100.914 67.2652C100.516 67.427 100.285 67.5706 100.264 67.5412C100.25 67.5226 100.453 67.331 100.852 67.1266C101.248 66.9213 101.852 66.7281 102.539 66.7057C103.226 66.6855 103.841 66.8402 104.249 67.0206C104.659 67.1998 104.875 67.3782 104.861 67.398Z" fill="#1D2A30"/>
<path d="M92.1836 52.1167L97.0391 68.3638L97.7244 63.022L92.1836 52.1167Z" fill="#1D2A30"/>
<path d="M100.203 84.0361C100.216 84.0646 100.142 84.1201 100.134 84.2405C100.121 84.365 100.207 84.4999 100.37 84.4503C100.534 84.4039 100.533 84.2442 100.455 84.1462C100.384 84.0493 100.291 84.0427 100.287 84.0117C100.273 83.9877 100.402 83.919 100.561 84.0361C100.632 84.0924 100.708 84.1933 100.703 84.3369C100.699 84.4834 100.575 84.6179 100.431 84.6572C100.289 84.7023 100.112 84.6564 100.03 84.5347C99.9474 84.4168 99.9565 84.2906 99.9859 84.2053C100.055 84.0208 100.202 84.0084 100.203 84.0361Z" fill="#1D2A30"/>
<path d="M100.691 82.8662C100.704 82.8948 100.63 82.9502 100.622 83.0706C100.61 83.1952 100.695 83.3301 100.858 83.2804C101.022 83.2341 101.021 83.0744 100.943 82.9763C100.872 82.879 100.779 82.8724 100.775 82.8418C100.761 82.8178 100.89 82.7491 101.049 82.8662C101.119 82.9221 101.195 83.0235 101.19 83.1666C101.187 83.3135 101.063 83.448 100.919 83.4873C100.777 83.5324 100.6 83.4861 100.517 83.3648C100.436 83.2469 100.445 83.1207 100.474 83.035C100.544 82.8509 100.69 82.8385 100.691 82.8662Z" fill="#1D2A30"/>
<path d="M107.332 62.1712C106.608 62.5531 106.355 63.6187 106.439 64.433C106.522 65.2474 106.822 66.0394 106.801 66.8579C106.786 67.4422 106.608 68.0078 106.49 68.5805C106.373 69.1532 106.319 69.7665 106.542 70.3069C106.765 70.8469 107.337 71.2794 107.912 71.1722L108.485 70.0127C109.395 68.1734 109.365 66.0088 108.404 64.1955L107.332 62.1712Z" fill="#1D2A30"/>
<path d="M49.0323 3.49438C49.0323 3.489 49.1035 3.48736 49.243 3.48943C49.3985 3.49315 49.6034 3.49853 49.8628 3.50515C50.1368 3.50142 50.4715 3.54322 50.8663 3.60405C51.0633 3.63509 51.2784 3.65453 51.5036 3.7017C51.7274 3.75674 51.9654 3.81591 52.2165 3.87757C53.2121 4.15399 54.4271 4.59261 55.6594 5.41772C56.8925 6.22836 58.1562 7.40109 59.1489 8.98346C60.1433 10.5526 60.8894 12.5301 60.9829 14.7307C61.1194 16.916 60.6146 19.3173 59.3509 21.4451C58.1264 23.5948 56.0765 25.3985 53.6003 26.4487C52.3589 26.9726 50.9971 27.2581 49.6117 27.3268C48.2246 27.4241 46.8011 27.2312 45.4393 26.8079L45.3152 26.7686L45.4132 26.7678C43.0273 27.5941 40.693 28.4031 38.4403 29.1831L38.1568 29.2816L38.2462 28.9953C38.871 26.9887 39.476 25.0472 40.0558 23.1867L40.086 23.3266C38.7486 21.8208 37.8419 20.0431 37.3992 18.2439C36.9494 16.4426 36.9651 14.6335 37.2883 13.0006C37.6139 11.3632 38.2702 9.90416 39.0871 8.70289C39.9047 7.49749 40.8776 6.54824 41.8483 5.82243C42.323 5.44132 42.8311 5.16615 43.2946 4.88435C43.7849 4.65428 44.2322 4.40269 44.6841 4.25413C45.131 4.09399 45.5419 3.93509 45.9392 3.85522C46.3306 3.75756 46.6857 3.66114 47.0146 3.62969C47.3411 3.58666 47.6283 3.53741 47.8787 3.5159C48.1253 3.50804 48.3363 3.50142 48.5134 3.49604C48.6723 3.49273 48.7998 3.49026 48.9007 3.4886C48.9881 3.48819 49.0323 3.49024 49.0323 3.49438C49.0323 3.49852 48.9881 3.50472 48.9012 3.51341C48.8006 3.52169 48.674 3.53204 48.5155 3.54487C48.34 3.55729 48.1307 3.57177 47.8857 3.58874C47.6374 3.61812 47.3531 3.67439 47.0308 3.72445C46.7055 3.76294 46.3559 3.86597 45.9698 3.96942C45.5783 4.05508 45.1745 4.21936 44.735 4.38405C44.2914 4.53716 43.8528 4.79247 43.3715 5.02461C42.918 5.30848 42.4202 5.5849 41.9563 5.96601C41.0079 6.69057 40.0599 7.63321 39.2662 8.82289C38.4726 10.0088 37.8394 11.4435 37.5295 13.0486C37.2225 14.6496 37.2154 16.4203 37.6623 18.1781C38.1022 19.9339 38.9935 21.6664 40.3028 23.1329L40.3574 23.1942L40.3334 23.2728C39.7574 25.1345 39.1566 27.0773 38.5355 29.0851L38.341 28.8968C40.5933 28.1151 42.9271 27.3045 45.3123 26.4765L45.3607 26.4595L45.4112 26.4752L45.532 26.5137C46.8582 26.9263 48.2445 27.115 49.5968 27.0206C50.9474 26.9548 52.2745 26.6784 53.4852 26.1694C55.8998 25.149 57.9051 23.3957 59.1063 21.3002C60.3465 19.2271 60.8505 16.8841 60.7276 14.744C60.6473 12.5889 59.9294 10.6482 58.9644 9.10015C58.0023 7.53888 56.77 6.37321 55.5638 5.56092C54.3584 4.73414 53.1654 4.28433 52.1847 3.99343C51.9368 3.9268 51.7026 3.86432 51.4816 3.80556C51.2598 3.75425 51.0471 3.73026 50.8522 3.69467C50.462 3.62474 50.1301 3.57343 49.8587 3.56722C49.6005 3.54777 49.3969 3.53245 49.2421 3.52087C49.1035 3.50845 49.0323 3.49976 49.0323 3.49438Z" fill="#F03658"/>
<path d="M42.0215 16.2135L43.8559 14.3787L47.3943 17.5236L54.3395 10.8407L56.0431 12.6751L47.1319 21.062L42.0215 16.2135Z" fill="#F03658"/>
</svg>
