<svg width="245" height="177" viewBox="0 0 245 177" fill="none" xmlns="http://www.w3.org/2000/svg">
<path d="M1.7632 24.2224C1.7632 24.2814 1.36852 24.3296 0.881746 24.3296C0.394845 24.3296 0 24.2814 0 24.2224C0 24.1631 0.394845 24.1149 0.881746 24.1149C1.36852 24.1149 1.7632 24.1631 1.7632 24.2224Z" fill="#E3E3E2"/>
<path d="M1.7632 27.965C1.7632 28.0239 1.36852 28.0721 0.881746 28.0721C0.394845 28.0721 0 28.0239 0 27.965C0 27.9057 0.394845 27.8575 0.881746 27.8575C1.36852 27.8575 1.7632 27.9057 1.7632 27.965Z" fill="#E3E3E2"/>
<path d="M1.7632 31.7072C1.7632 31.7661 1.36852 31.8143 0.881746 31.8143C0.394845 31.8143 0 31.7661 0 31.7072C0 31.6479 0.394845 31.6001 0.881746 31.6001C1.36852 31.6001 1.7632 31.6479 1.7632 31.7072Z" fill="#E3E3E2"/>
<path d="M1.7632 35.4498C1.7632 35.5091 1.36852 35.5569 0.881746 35.5569C0.394845 35.5569 0 35.5091 0 35.4498C0 35.3904 0.394845 35.3426 0.881746 35.3426C1.36852 35.3426 1.7632 35.3904 1.7632 35.4498Z" fill="#E3E3E2"/>
<path d="M1.7632 39.1919C1.7632 39.2513 1.36852 39.2991 0.881746 39.2991C0.394845 39.2991 0 39.2513 0 39.1919C0 39.1326 0.394845 39.0848 0.881746 39.0848C1.36852 39.0848 1.7632 39.1326 1.7632 39.1919Z" fill="#E3E3E2"/>
<path d="M40.9538 44.0023C40.9538 44.0616 40.1643 44.1099 39.1906 44.1099C38.2168 44.1099 37.4277 44.0616 37.4277 44.0023C37.4277 43.9434 38.2168 43.8952 39.1906 43.8952C40.1643 43.8952 40.9538 43.9434 40.9538 44.0023Z" fill="#E3E3E2"/>
<path d="M56.4992 44.0023C56.4992 44.0616 55.7096 44.1099 54.7359 44.1099C53.7622 44.1099 52.9727 44.0616 52.9727 44.0023C52.9727 43.9434 53.7622 43.8952 54.7359 43.8952C55.7096 43.8952 56.4992 43.9434 56.4992 44.0023Z" fill="#E3E3E2"/>
<path d="M72.046 44.0023C72.046 44.0616 71.2561 44.1099 70.2828 44.1099C69.3086 44.1099 68.5195 44.0616 68.5195 44.0023C68.5195 43.9434 69.3086 43.8952 70.2828 43.8952C71.2561 43.8952 72.046 43.9434 72.046 44.0023Z" fill="#E3E3E2"/>
<path d="M185.586 140.155C185.586 140.205 172.034 140.246 155.32 140.246C138.602 140.246 125.053 140.205 125.053 140.155C125.053 140.105 138.602 140.064 155.32 140.064C172.034 140.064 185.586 140.105 185.586 140.155Z" fill="#E3E3E2"/>
<path d="M185.586 129.908C185.586 129.959 172.034 130 155.32 130C138.602 130 125.053 129.959 125.053 129.908C125.053 129.858 138.602 129.818 155.32 129.818C172.034 129.818 185.586 129.858 185.586 129.908Z" fill="#E3E3E2"/>
<path d="M185.586 119.662C185.586 119.712 172.034 119.753 155.32 119.753C138.602 119.753 125.053 119.712 125.053 119.662C125.053 119.612 138.602 119.571 155.32 119.571C172.034 119.571 185.586 119.612 185.586 119.662Z" fill="#E3E3E2"/>
<path d="M185.586 109.924C185.586 109.974 172.034 110.015 155.32 110.015C138.602 110.015 125.053 109.974 125.053 109.924C125.053 109.874 138.602 109.834 155.32 109.834C172.034 109.834 185.586 109.874 185.586 109.924Z" fill="#E3E3E2"/>
<path d="M175.658 0.598484C175.658 0.598484 181.959 0.686668 179.262 13.1608C176.566 25.6346 176.914 27.9945 176.914 32.9295C176.914 38.7116 181.573 40.7819 181.573 40.7819H173.029L166.744 11.6646V0.598484H175.658Z" fill="#E3E3E2"/>
<path d="M177.51 98.8092H91.2285L91.997 14.3955L173.265 10.1479L177.51 98.8092Z" fill="#E3E3E2"/>
<path d="M174.547 96.6298H88.2656L89.0341 12.2161L172.81 10.5802L174.547 96.6298Z" fill="#EEEEEE"/>
<path d="M172.76 94.2754H86.6523V9.8617L172.812 9.66022L172.76 94.2754Z" fill="#FCFDFD"/>
<path d="M172.758 94.2755C172.757 93.4872 172.742 60.4137 172.717 9.66035L172.81 9.75306C147.842 9.8157 118.312 9.88988 86.7857 9.96899C86.7403 9.96899 86.695 9.9694 86.6509 9.9694L86.7577 9.86185C86.7527 40.7415 86.7478 69.6976 86.7436 94.2755L86.6505 94.1824C138.245 94.2384 171.961 94.2747 172.758 94.2755C171.962 94.2763 138.245 94.313 86.6505 94.3687H86.5574V94.2755C86.5533 69.6976 86.5483 40.7415 86.543 9.86185V9.75471H86.6501C86.6946 9.75471 86.7399 9.75472 86.7853 9.75431C118.311 9.68591 147.842 9.62203 172.81 9.56805L172.902 9.56763L172.902 9.66077C172.815 60.4137 172.759 93.4876 172.758 94.2755Z" fill="#1D2A30"/>
<path d="M172.813 9.43269C168.366 4.25339 173.526 0.419499 175.267 0.338734L93.2772 0.292175C88.9912 0.289702 85.7317 4.15368 86.4673 8.37698C86.5802 9.02475 86.7998 9.66016 86.7998 9.66016" fill="#F8F8F9"/>
<path d="M174.988 40.7825C174.988 40.7792 175.026 40.7763 175.1 40.773C175.184 40.771 175.293 40.7681 175.431 40.7644C175.735 40.7603 176.165 40.7545 176.719 40.7471C177.857 40.7401 179.501 40.7298 181.575 40.717L181.556 40.8447C180.876 40.6317 180.177 40.2674 179.575 39.7107C178.968 39.159 178.473 38.428 178.097 37.6038C177.716 36.7797 177.437 35.8674 177.213 34.9076C177.101 34.4276 177.002 33.9343 176.91 33.4312C176.866 33.1794 176.814 32.9277 176.792 32.6631C176.757 32.401 176.733 32.1369 176.732 31.8711C176.694 30.8067 176.755 29.7119 176.842 28.5906C176.925 27.4681 177.05 26.3197 177.186 25.1461C177.467 22.7998 177.82 20.3575 178.236 17.8537C178.406 16.7836 178.623 15.7275 178.8 14.6928C178.969 13.6531 179.108 12.6229 179.238 11.6097C179.36 10.5951 179.48 9.59875 179.597 8.62297C179.65 8.13385 179.717 7.65171 179.728 7.17907C179.741 6.70437 179.712 6.23339 179.65 5.77311C179.526 4.85254 179.26 3.97401 178.873 3.18572C178.485 2.40155 177.966 1.69197 177.298 1.22221C176.628 0.751217 175.807 0.606575 175.058 0.72113C174.306 0.835686 173.601 1.10683 173.061 1.55022C172.515 1.98619 172.114 2.53629 171.816 3.09258C171.525 3.65423 171.325 4.22371 171.21 4.77094C170.948 5.86828 171.229 6.84901 171.538 7.56271C171.858 8.28548 172.211 8.79604 172.446 9.13971C172.563 9.30248 172.654 9.43021 172.723 9.52581C172.785 9.61276 172.816 9.6585 172.813 9.66056C172.811 9.66303 172.774 9.62183 172.705 9.53942C172.636 9.45741 172.538 9.33173 172.411 9.16484C172.163 8.82818 171.798 8.3234 171.462 7.59651C171.137 6.88116 170.835 5.87695 171.093 4.74623C171.205 4.18829 171.402 3.60602 171.695 3.02912C171.995 2.45758 172.402 1.88852 172.967 1.43195C173.527 0.966312 174.257 0.679512 175.034 0.557125C175.812 0.43227 176.691 0.580616 177.399 1.07551C178.106 1.56835 178.64 2.29935 179.042 3.10165C179.442 3.9089 179.716 4.80596 179.845 5.7463C179.911 6.21606 179.941 6.69738 179.93 7.18444C179.92 7.67398 179.852 8.15816 179.801 8.64564C179.692 9.62389 179.576 10.6215 179.447 11.6364C179.318 12.6509 179.18 13.6828 179.011 14.7274C178.833 15.7744 178.618 16.8178 178.447 17.8892C178.032 20.3896 177.677 22.8291 177.393 25.1704C177.256 26.342 177.128 27.4879 177.043 28.6063C176.953 29.723 176.89 30.8146 176.924 31.8637C176.923 32.1274 176.947 32.385 176.979 32.6392C176.999 32.8934 177.05 33.1469 177.093 33.3978C177.183 33.8997 177.279 34.3901 177.388 34.8673C177.606 35.8204 177.877 36.7228 178.247 37.5346C178.612 38.3464 179.091 39.0617 179.676 39.6015C180.257 40.1463 180.932 40.5052 181.595 40.7199L181.998 40.8501L181.575 40.8476C179.501 40.8349 177.857 40.8246 176.719 40.8176C176.165 40.8101 175.735 40.8044 175.431 40.8002C175.293 40.7969 175.184 40.7936 175.1 40.7916C175.026 40.7887 174.988 40.7854 174.988 40.7825Z" fill="#1D2A30"/>
<path d="M121.882 2.91971C121.915 2.94319 121.67 3.2708 121.426 3.86954C121.3 4.16746 121.194 4.53831 121.116 4.95615C121.05 5.37646 121.018 5.84457 121.051 6.33493C121.093 6.82488 121.196 7.2827 121.326 7.68776C121.467 8.08912 121.628 8.43979 121.798 8.71464C122.13 9.26929 122.423 9.55567 122.393 9.58369C122.383 9.59441 122.304 9.52972 122.17 9.40197C122.031 9.27794 121.857 9.07026 121.669 8.79582C121.478 8.52262 121.296 8.1666 121.139 7.75329C120.994 7.33628 120.88 6.86034 120.837 6.35143C120.802 5.8417 120.842 5.35421 120.922 4.91989C121.013 4.48804 121.139 4.10812 121.287 3.80895C121.43 3.50897 121.571 3.27738 121.689 3.13357C121.803 2.98687 121.87 2.91105 121.882 2.91971Z" fill="#1D2A30"/>
<path d="M119.833 0.000851631C119.866 0.0346413 119.307 0.427767 118.743 1.33102C118.181 2.21203 117.673 3.68765 117.965 5.28359C118.268 6.87871 119.274 8.07206 120.116 8.69099C120.967 9.33052 121.63 9.49535 121.611 9.53945C121.608 9.55057 121.444 9.51761 121.159 9.41541C120.873 9.31404 120.473 9.12449 120.027 8.81337C119.139 8.21011 118.071 6.98832 117.754 5.32315C117.449 3.65633 118.006 2.13166 118.616 1.24901C118.921 0.798207 119.226 0.476802 119.455 0.279421C119.684 0.0812149 119.826 -0.00862598 119.833 0.000851631Z" fill="#1D2A30"/>
<path d="M166.176 65.8948C166.176 65.8948 166.085 65.9022 165.907 65.9059C165.721 65.908 165.458 65.9117 165.115 65.9162C164.412 65.9212 163.388 65.9278 162.072 65.9364C159.422 65.9447 155.599 65.9562 150.879 65.9706C141.423 65.9785 128.369 65.9896 113.953 66.002C108.361 66.0003 102.976 65.9987 98.028 65.997H97.9258V65.8948C97.9414 55.3446 97.9546 46.2712 97.9641 39.8273C97.9769 36.614 97.9872 34.0567 97.9938 32.2951C98.0012 31.4231 98.0065 30.7498 98.0107 30.2854C98.0144 30.0621 98.0168 29.8906 98.0193 29.767C98.0222 29.6504 98.028 29.5911 98.028 29.5911C98.028 29.5911 98.0337 29.6504 98.037 29.767C98.0391 29.8906 98.0416 30.0621 98.0457 30.2854C98.0494 30.7498 98.0552 31.4231 98.0622 32.2951C98.0692 34.0567 98.0791 36.614 98.0918 39.8273C98.1013 46.2712 98.1145 55.3446 98.1302 65.8948L98.028 65.7926C102.976 65.791 108.361 65.7893 113.953 65.7873C128.369 65.7996 141.423 65.8108 150.879 65.819C155.599 65.8334 159.422 65.845 162.072 65.8532C163.388 65.8618 164.412 65.8684 165.115 65.873C165.458 65.8779 165.721 65.8812 165.907 65.8837C166.085 65.8874 166.176 65.8948 166.176 65.8948Z" fill="#1D2A30"/>
<path d="M110.448 63.8104H103.564V56.9264H110.448V63.8104Z" fill="#F03658"/>
<path d="M120.542 63.8104H113.658V52.005H120.542V63.8104Z" fill="#F03658"/>
<path d="M130.675 63.8104H123.791V46.4145H130.675V63.8104Z" fill="#F03658"/>
<path d="M140.497 63.8104H133.613V40.1914H140.497V63.8104Z" fill="#F03658"/>
<path d="M150.548 63.8104H143.664V32.2232H150.548V63.8104Z" fill="#F03658"/>
<path d="M160.525 63.4833H153.641V26.1465H160.525V63.4833Z" fill="#F03658"/>
<path d="M103.565 49.8682C103.563 49.8657 103.593 49.843 103.652 49.8006C103.72 49.7536 103.808 49.6926 103.921 49.6156C104.168 49.4499 104.519 49.2151 104.969 48.9138C105.898 48.3011 107.237 47.4193 108.914 46.3133C112.302 44.0992 117.058 40.991 122.575 37.3854L122.733 37.2819V37.4711C122.734 38.446 122.735 39.4898 122.736 40.5525L122.572 40.4652C124.311 39.299 126.111 38.0916 127.956 36.8554C135.371 31.9011 142.083 27.4166 146.952 24.1633C149.381 22.5529 151.35 21.2475 152.723 20.3376C153.399 19.8951 153.927 19.5485 154.297 19.3066C154.472 19.1954 154.608 19.108 154.71 19.0429C154.803 18.9844 154.852 18.9564 154.854 18.9593C154.856 18.9621 154.812 18.9968 154.722 19.0614C154.624 19.1303 154.491 19.2234 154.321 19.3425C153.957 19.5926 153.436 19.9499 152.769 20.4073C151.406 21.3303 149.45 22.6551 147.037 24.2894C142.176 27.5559 135.477 32.0585 128.075 37.0335C126.23 38.2688 124.429 39.475 122.689 40.6399L122.525 40.7495V40.5525C122.527 39.4898 122.528 38.446 122.528 37.4711L122.687 37.5572C117.153 41.1368 112.382 44.2228 108.984 46.4208C107.293 47.5054 105.944 48.3707 105.007 48.9715C104.549 49.2608 104.192 49.4862 103.94 49.6453C103.824 49.7165 103.732 49.7726 103.662 49.8154C103.599 49.8529 103.566 49.8707 103.565 49.8682Z" fill="#1D2A30"/>
<path d="M154.856 21.8726C154.828 21.8726 154.802 21.5507 154.783 21.0237C154.765 20.4967 154.751 19.7644 154.749 18.9432L154.856 19.0503C154.772 19.0503 154.683 19.0503 154.593 19.0503C153.711 19.0503 152.914 19.0388 152.335 19.019C151.758 18.9996 151.4 18.9728 151.4 18.9432C151.4 18.9135 151.758 18.8871 152.335 18.8673C152.914 18.848 153.711 18.836 154.593 18.836C154.683 18.836 154.772 18.8364 154.856 18.8364H154.964L154.963 18.9432C154.961 19.7644 154.948 20.4967 154.929 21.0237C154.91 21.5507 154.884 21.8726 154.856 21.8726Z" fill="#1D2A30"/>
<path d="M118.479 71.4468C118.479 71.5061 116.351 71.5543 113.727 71.5543C111.102 71.5543 108.975 71.5061 108.975 71.4468C108.975 71.3874 111.102 71.3396 113.727 71.3396C116.351 71.3396 118.479 71.3874 118.479 71.4468Z" fill="#1D2A30"/>
<path d="M113.597 74.7004C113.538 74.7004 113.49 74.2018 113.49 73.5874C113.49 72.9726 113.538 72.4744 113.597 72.4744C113.657 72.4744 113.705 72.9726 113.705 73.5874C113.705 74.2018 113.657 74.7004 113.597 74.7004Z" fill="#1D2A30"/>
<path d="M125.243 75.814C125.243 75.8729 119.53 75.9211 112.485 75.9211C105.438 75.9211 99.7266 75.8729 99.7266 75.814C99.7266 75.7543 105.438 75.7065 112.485 75.7065C119.53 75.7065 125.243 75.7543 125.243 75.814Z" fill="#1D2A30"/>
<path d="M99.8986 78.9819C99.8392 78.9819 99.791 78.2917 99.791 77.4404C99.791 76.589 99.8392 75.8992 99.8986 75.8992C99.9579 75.8992 100.006 76.589 100.006 77.4404C100.006 78.2917 99.9579 78.9819 99.8986 78.9819Z" fill="#1D2A30"/>
<path d="M108.975 78.6392C108.915 78.6392 108.867 78.045 108.867 77.3123C108.867 76.5788 108.915 75.985 108.975 75.985C109.034 75.985 109.082 76.5788 109.082 77.3123C109.082 78.045 109.034 78.6392 108.975 78.6392Z" fill="#1D2A30"/>
<path d="M118.307 78.8101C118.247 78.8101 118.199 78.1586 118.199 77.355C118.199 76.5511 118.247 75.8992 118.307 75.8992C118.366 75.8992 118.414 76.5511 118.414 77.355C118.414 78.1586 118.366 78.8101 118.307 78.8101Z" fill="#1D2A30"/>
<path d="M125.414 78.8101C125.355 78.8101 125.307 78.1396 125.307 77.3122C125.307 76.4843 125.355 75.8139 125.414 75.8139C125.474 75.8139 125.521 76.4843 125.521 77.3122C125.521 78.1396 125.474 78.8101 125.414 78.8101Z" fill="#1D2A30"/>
<path d="M103.067 79.8382C103.067 79.8972 101.687 79.9449 99.985 79.9449C98.2824 79.9449 96.9023 79.8972 96.9023 79.8382C96.9023 79.7789 98.2824 79.7307 99.985 79.7307C101.687 79.7307 103.067 79.7789 103.067 79.8382Z" fill="#1D2A30"/>
<path d="M110.942 79.8382C110.942 79.8972 109.887 79.9449 108.587 79.9449C107.286 79.9449 106.232 79.8972 106.232 79.8382C106.232 79.7789 107.286 79.7307 108.587 79.7307C109.887 79.7307 110.942 79.7789 110.942 79.8382Z" fill="#1D2A30"/>
<path d="M120.962 80.0949C120.962 80.1538 119.831 80.202 118.436 80.202C117.04 80.202 115.91 80.1538 115.91 80.0949C115.91 80.0356 117.04 79.9873 118.436 79.9873C119.831 79.9873 120.962 80.0356 120.962 80.0949Z" fill="#1D2A30"/>
<path d="M129.098 79.6668C129.098 79.7261 127.89 79.7739 126.401 79.7739C124.911 79.7739 123.703 79.7261 123.703 79.6668C123.703 79.6074 124.911 79.5597 126.401 79.5597C127.89 79.5597 129.098 79.6074 129.098 79.6668Z" fill="#1D2A30"/>
<path d="M99.9845 82.8346C99.9252 82.8346 99.877 82.4324 99.877 81.9355C99.877 81.4389 99.9252 81.0367 99.9845 81.0367C100.043 81.0367 100.092 81.4389 100.092 81.9355C100.092 82.4324 100.043 82.8346 99.9845 82.8346Z" fill="#1D2A30"/>
<path d="M105.846 82.8347C105.846 82.8941 103.354 82.9423 100.281 82.9423C97.2066 82.9423 94.7148 82.8941 94.7148 82.8347C94.7148 82.7758 97.2066 82.7272 100.281 82.7272C103.354 82.7272 105.846 82.7758 105.846 82.8347Z" fill="#1D2A30"/>
<path d="M105.845 85.4032C105.786 85.4032 105.738 84.8284 105.738 84.1192C105.738 83.41 105.786 82.8348 105.845 82.8348C105.904 82.8348 105.953 83.41 105.953 84.1192C105.953 84.8284 105.904 85.4032 105.845 85.4032Z" fill="#1D2A30"/>
<path d="M94.7126 85.5751C94.6537 85.5751 94.6055 84.9611 94.6055 84.2049C94.6055 83.448 94.6537 82.8348 94.7126 82.8348C94.7719 82.8348 94.8197 83.448 94.8197 84.2049C94.8197 84.9611 94.7719 85.5751 94.7126 85.5751Z" fill="#1D2A30"/>
<path d="M118.535 82.8346C118.476 82.8346 118.428 82.4324 118.428 81.9355C118.428 81.4389 118.476 81.0367 118.535 81.0367C118.595 81.0367 118.642 81.4389 118.642 81.9355C118.642 82.4324 118.595 82.8346 118.535 82.8346Z" fill="#1D2A30"/>
<path d="M132.067 82.8347C132.067 82.8941 127.858 82.9423 122.667 82.9423C117.474 82.9423 113.266 82.8941 113.266 82.8347C113.266 82.7758 117.474 82.7272 122.667 82.7272C127.858 82.7272 132.067 82.7758 132.067 82.8347Z" fill="#1D2A30"/>
<path d="M124.396 85.4032C124.337 85.4032 124.289 84.8284 124.289 84.1192C124.289 83.41 124.337 82.8348 124.396 82.8348C124.456 82.8348 124.503 83.41 124.503 84.1192C124.503 84.8284 124.456 85.4032 124.396 85.4032Z" fill="#1D2A30"/>
<path d="M132.449 85.4032C132.39 85.4032 132.342 84.8284 132.342 84.1192C132.342 83.41 132.39 82.8348 132.449 82.8348C132.508 82.8348 132.556 83.41 132.556 84.1192C132.556 84.8284 132.508 85.4032 132.449 85.4032Z" fill="#1D2A30"/>
<path d="M113.266 85.5751C113.206 85.5751 113.158 84.9611 113.158 84.2049C113.158 83.448 113.206 82.8348 113.266 82.8348C113.325 82.8348 113.373 83.448 113.373 84.2049C113.373 84.9611 113.325 85.5751 113.266 85.5751Z" fill="#1D2A30"/>
<path d="M96.9072 87.1535C96.9072 87.2124 95.9253 87.2606 94.7138 87.2606C93.5019 87.2606 92.5195 87.2124 92.5195 87.1535C92.5195 87.0942 93.5019 87.0459 94.7138 87.0459C95.9253 87.0459 96.9072 87.0942 96.9072 87.1535Z" fill="#1D2A30"/>
<path d="M107.808 86.8393C107.808 86.8983 106.746 86.9469 105.437 86.9469C104.127 86.9469 103.066 86.8983 103.066 86.8393C103.066 86.78 104.127 86.7318 105.437 86.7318C106.746 86.7318 107.808 86.78 107.808 86.8393Z" fill="#1D2A30"/>
<path d="M115.685 86.8393C115.685 86.8983 114.75 86.9469 113.597 86.9469C112.444 86.9469 111.51 86.8983 111.51 86.8393C111.51 86.78 112.444 86.7318 113.597 86.7318C114.75 86.7318 115.685 86.78 115.685 86.8393Z" fill="#1D2A30"/>
<path d="M126.301 86.8393C126.301 86.8983 125.287 86.9469 124.036 86.9469C122.786 86.9469 121.771 86.8983 121.771 86.8393C121.771 86.78 122.786 86.7318 124.036 86.7318C125.287 86.7318 126.301 86.78 126.301 86.8393Z" fill="#1D2A30"/>
<path d="M134.796 86.5562C134.796 86.6155 133.765 86.6633 132.495 86.6633C131.225 86.6633 130.195 86.6155 130.195 86.5562C130.195 86.4969 131.225 86.4491 132.495 86.4491C133.765 86.4491 134.796 86.4969 134.796 86.5562Z" fill="#1D2A30"/>
<path d="M137.064 88.2052H166.092V70.2468H137.064V88.2052ZM166.113 88.2262H137.043V70.2262H166.113V88.2262Z" fill="#1D2A30"/>
<path d="M159.089 83.2361C157.075 82.4722 154.758 84.5844 152.783 83.7228C151.634 83.2221 151.113 81.9225 150.55 80.802C149.987 79.6825 149.017 78.5006 147.771 78.6309C146.512 78.7619 145.496 80.2181 144.281 79.8671C143.515 79.6458 143.133 78.7965 142.941 78.0231C142.749 77.2496 142.616 76.395 142.032 75.8523C141.449 75.31 140.233 75.455 140.141 76.2466V85.7782H162.857C162.857 85.7782 159.786 83.5003 159.089 83.2361Z" fill="#F03658"/>
<path d="M163.464 85.7776C163.464 85.7982 157.958 85.8147 151.167 85.8147C144.374 85.8147 138.869 85.7982 138.869 85.7776C138.869 85.7574 144.374 85.7409 151.167 85.7409C157.958 85.7409 163.464 85.7574 163.464 85.7776Z" fill="#E3E3E2"/>
<path d="M163.464 81.6148C163.464 81.6354 157.958 81.6519 151.167 81.6519C144.374 81.6519 138.869 81.6354 138.869 81.6148C138.869 81.5946 144.374 81.5781 151.167 81.5781C157.958 81.5781 163.464 81.5946 163.464 81.6148Z" fill="#1D2A30"/>
<path d="M163.464 77.4518C163.464 77.472 157.958 77.4885 151.167 77.4885C144.374 77.4885 138.869 77.472 138.869 77.4518C138.869 77.4312 144.374 77.4148 151.167 77.4148C157.958 77.4148 163.464 77.4312 163.464 77.4518Z" fill="#1D2A30"/>
<path d="M163.464 73.4958C163.464 73.516 157.958 73.5325 151.167 73.5325C144.374 73.5325 138.869 73.516 138.869 73.4958C138.869 73.4752 144.374 73.4587 151.167 73.4587C157.958 73.4587 163.464 73.4752 163.464 73.4958Z" fill="#1D2A30"/>
<path d="M98.0291 15.7735L98.0691 15.771C98.1 15.771 98.1388 15.771 98.187 15.771C98.2908 15.7681 98.4437 15.7813 98.6394 15.8118C98.8335 15.8505 99.0717 15.9131 99.3239 16.0458C99.5756 16.1777 99.8336 16.387 100.054 16.6726C100.266 16.9627 100.456 17.3191 100.534 17.7431C100.607 18.1663 100.542 18.6365 100.365 19.0844C100.279 19.3094 100.165 19.5303 100.032 19.745C99.9008 19.9592 99.7681 20.1748 99.656 20.4105C99.431 20.8777 99.2472 21.3945 99.1533 21.9388L99.1471 21.9751L99.1116 21.9739C98.7676 21.9656 98.4041 21.957 98.0353 21.9479C97.6484 21.9384 97.2672 21.9289 96.9058 21.9203L96.8659 21.9195L96.8663 21.8783C96.87 21.3294 96.6438 20.8209 96.4031 20.368C96.2811 20.1393 96.1464 19.9246 96.0207 19.7075C95.8983 19.4944 95.7586 19.2896 95.6635 19.0679C95.4661 18.6258 95.4483 18.1441 95.5464 17.7337C95.6408 17.3224 95.7937 16.9524 96.0104 16.6652C96.2263 16.3775 96.4942 16.1822 96.7451 16.0553C96.9973 15.9276 97.2326 15.8629 97.4246 15.8237C97.6175 15.785 97.7699 15.773 97.8726 15.7689C97.9241 15.7681 97.9632 15.7677 97.9896 15.7693L98.0291 15.7735L97.9896 15.7772C97.9591 15.7788 97.9208 15.7813 97.8734 15.7842C97.7716 15.7932 97.6212 15.8101 97.4308 15.8526C97.2417 15.8958 97.0105 15.9642 96.7649 16.0932C96.5201 16.2214 96.2614 16.4155 96.0541 16.6977C95.8464 16.9779 95.6989 17.3438 95.6091 17.7473C95.5168 18.1494 95.5369 18.6118 95.7298 19.0387C95.8233 19.253 95.9601 19.452 96.0866 19.67C96.2111 19.8838 96.3479 20.1006 96.4719 20.3309C96.7159 20.7879 96.9499 21.3042 96.9479 21.8803L96.9079 21.8387C97.2693 21.8474 97.6504 21.8568 98.0374 21.8659C98.4062 21.875 98.7696 21.884 99.1137 21.8923L99.0725 21.9277C99.1693 21.3681 99.356 20.8501 99.5855 20.3763C99.6993 20.1389 99.8361 19.9172 99.9679 19.7054C100.099 19.494 100.212 19.2781 100.298 19.0581C100.473 18.62 100.538 18.1643 100.47 17.7538C100.399 17.3451 100.214 16.9895 100.01 16.7055C99.7977 16.4241 99.5484 16.2168 99.3033 16.0837C99.0581 15.9498 98.8248 15.8839 98.6341 15.841C98.4412 15.8064 98.2896 15.7883 98.1861 15.7866C98.1383 15.7833 98.0996 15.7805 98.0691 15.7788L98.0291 15.7735Z" fill="#1D2A30"/>
<path d="M98.3446 21.8481L98.3392 21.8135C98.3364 21.7892 98.3322 21.7554 98.3269 21.7117C98.3166 21.6211 98.3022 21.4892 98.2832 21.3202C98.2482 20.9803 98.195 20.4879 98.1707 19.8764C98.1658 19.7235 98.1612 19.5632 98.1621 19.3963C98.1633 19.2294 98.1629 19.0551 98.1798 18.875C98.1975 18.6962 98.2342 18.5083 98.3248 18.3352C98.4151 18.165 98.5605 18.0076 98.7571 17.9359C98.952 17.8609 99.1943 17.9137 99.3455 18.0727C99.4201 18.1518 99.4679 18.2631 99.4609 18.376C99.4555 18.4885 99.4077 18.5965 99.3365 18.6834C99.266 18.7724 99.17 18.8388 99.0661 18.8849C98.9623 18.9319 98.8506 18.9591 98.7381 18.9793C98.5127 19.0172 98.2811 19.0341 98.0471 19.0316C97.813 19.0275 97.5819 19.0139 97.3565 18.9702C97.2444 18.9471 97.1339 18.9134 97.0326 18.8623C96.9304 18.8116 96.8385 18.7415 96.7656 18.6558C96.6926 18.5705 96.639 18.4683 96.6193 18.3579C96.5983 18.2479 96.6201 18.1329 96.6712 18.0369C96.7219 17.9409 96.8051 17.8601 96.9077 17.8243C97.0107 17.7876 97.1253 17.8036 97.2176 17.851C97.3103 17.8988 97.3865 17.9726 97.4409 18.0575C97.4957 18.1432 97.5266 18.2384 97.5456 18.3336C97.5827 18.5248 97.574 18.7123 97.5782 18.8915C97.5827 19.2508 97.5864 19.5854 97.5901 19.8916C97.5963 20.5015 97.6012 20.9959 97.6049 21.3392C97.6058 21.509 97.6066 21.6417 97.607 21.7331C97.607 21.7768 97.607 21.811 97.607 21.8353L97.6058 21.8704L97.6033 21.8353C97.6025 21.811 97.6016 21.7772 97.6004 21.7331C97.5984 21.6417 97.5955 21.5094 97.5917 21.3396C97.5856 20.9964 97.5769 20.5023 97.5662 19.892C97.5613 19.5858 97.5559 19.2512 97.5501 18.8919C97.5452 18.7123 97.553 18.5252 97.5163 18.3393C97.4978 18.247 97.4673 18.1547 97.4154 18.074C97.3631 17.9936 97.2905 17.9236 97.2036 17.8791C97.117 17.8345 97.012 17.8205 96.9184 17.8543C96.8249 17.8869 96.7474 17.9619 96.6996 18.0521C96.6518 18.1424 96.6316 18.2495 96.6514 18.3521C96.67 18.4555 96.721 18.5528 96.7911 18.6344C96.9312 18.8009 97.1438 18.894 97.3631 18.9368C97.5843 18.9801 97.8155 18.9937 98.0475 18.9978C98.2795 19.0003 98.5094 18.9834 98.7324 18.9459C98.8432 18.9261 98.952 18.8993 99.0521 18.854C99.1527 18.8099 99.2437 18.7465 99.3109 18.6628C99.3785 18.58 99.423 18.4786 99.4279 18.3748C99.4345 18.2705 99.3913 18.1691 99.322 18.0946C99.1803 17.9458 98.9516 17.8943 98.7678 17.9652C98.5807 18.0328 98.439 18.1844 98.3512 18.3492C98.2626 18.5165 98.2259 18.7007 98.2078 18.8779C98.1905 19.0559 98.1901 19.2298 98.188 19.3963C98.1868 19.5628 98.1905 19.7231 98.1946 19.8755C98.216 20.4862 98.2651 20.9786 98.296 21.319C98.3125 21.4884 98.3248 21.6198 98.3335 21.7113C98.3376 21.7546 98.3405 21.7888 98.3425 21.8131L98.3446 21.8481Z" fill="#1D2A30"/>
<path d="M96.9062 21.8476C96.9115 21.8526 96.9152 21.9832 96.9202 22.2106C96.923 22.4744 96.9263 22.7892 96.9305 23.1568L96.9226 23.1333C97.1316 23.3945 97.3673 23.6896 97.6219 24.0081L97.5848 23.9904C97.8527 23.9862 98.1382 23.9817 98.4345 23.9768L98.3983 23.9937C98.5412 23.8325 98.6896 23.6657 98.8416 23.4951C98.9162 23.411 98.9904 23.3278 99.0637 23.2458L99.051 23.2783C99.0596 22.7809 99.0675 22.3095 99.0753 21.8802L99.1194 21.9259C98.5013 21.9078 97.9656 21.8921 97.5346 21.8793C97.3627 21.8723 97.2119 21.8662 97.0767 21.8608C96.9696 21.8554 96.9099 21.8509 96.9062 21.8476C96.9029 21.8439 96.9556 21.8414 97.0582 21.839C97.1901 21.8377 97.3376 21.8357 97.5057 21.834C97.945 21.8344 98.491 21.8348 99.121 21.8357H99.1659L99.1655 21.8814C99.1614 22.3112 99.1565 22.7822 99.1515 23.2795L99.1511 23.2985L99.1387 23.3125C99.0658 23.3945 98.9916 23.4778 98.9166 23.5618C98.7646 23.732 98.6158 23.8989 98.4724 24.0596L98.4576 24.0761H98.4362C98.1395 24.0786 97.8535 24.081 97.5861 24.0835H97.563L97.549 24.0658C97.2993 23.7427 97.0685 23.444 96.8637 23.1794L96.8555 23.1687L96.8559 23.1559C96.8674 22.7797 96.8773 22.4571 96.8855 22.1876C96.895 21.9622 96.9012 21.8422 96.9062 21.8476Z" fill="#1D2A30"/>
<path d="M99.0466 23.1631C99.0454 23.1652 99.0174 23.1512 98.9675 23.126C98.9172 23.1009 98.8443 23.0663 98.7508 23.03C98.5653 22.9571 98.2946 22.8854 97.9897 22.8825C97.6847 22.8792 97.4124 22.946 97.2257 23.0148C97.1318 23.0494 97.058 23.0824 97.0073 23.1067C96.9566 23.1306 96.929 23.1446 96.9278 23.1425C96.9265 23.1405 96.9525 23.1228 97.0011 23.0947C97.0506 23.0671 97.1235 23.03 97.2171 22.9925C97.4037 22.9167 97.6798 22.845 97.9901 22.8483C98.3004 22.8512 98.5748 22.9283 98.7598 23.0078C98.853 23.0473 98.9255 23.0853 98.9737 23.1141C99.0223 23.1434 99.0479 23.1615 99.0466 23.1631Z" fill="#1D2A30"/>
<path d="M99.0603 22.8235C99.0591 22.8259 99.0315 22.8115 98.9816 22.7864C98.9313 22.7612 98.858 22.7266 98.7649 22.6904C98.5794 22.6174 98.3087 22.5457 98.0038 22.5428C97.6988 22.5395 97.4265 22.6063 97.2398 22.6755C97.1458 22.7097 97.0717 22.7427 97.0214 22.767C96.9707 22.7913 96.9427 22.8049 96.9414 22.8029C96.9402 22.8008 96.9662 22.7835 97.0152 22.7555C97.0642 22.7274 97.1376 22.6908 97.2311 22.6533C97.4178 22.5775 97.6939 22.5058 98.0042 22.5091C98.314 22.5119 98.5885 22.589 98.7739 22.6685C98.867 22.7077 98.9392 22.746 98.9878 22.7748C99.036 22.8037 99.0615 22.8218 99.0603 22.8235Z" fill="#1D2A30"/>
<path d="M99.0525 22.5004C99.0513 22.5025 99.0237 22.488 98.9734 22.4629C98.9235 22.4378 98.8502 22.4032 98.757 22.3669C98.5716 22.2944 98.3009 22.2223 97.996 22.2198C97.691 22.2165 97.4186 22.2828 97.232 22.3521C97.138 22.3863 97.0638 22.4196 97.0136 22.4435C96.9629 22.4679 96.9349 22.4819 96.9336 22.4794C96.9324 22.4778 96.9584 22.46 97.0074 22.432C97.0564 22.404 97.1294 22.3673 97.2233 22.3298C97.41 22.254 97.6861 22.1823 97.996 22.1856C98.3062 22.1885 98.5807 22.2655 98.7661 22.3451C98.8592 22.3846 98.9314 22.4225 98.98 22.4514C99.0282 22.4802 99.0537 22.4984 99.0525 22.5004Z" fill="#1D2A30"/>
<path d="M106.923 31.3734C106.923 31.3734 106.092 38.9745 107.161 43.1364L117.317 42.6926C117.317 42.6926 115.141 35.1941 116.477 31.8724L106.923 31.3734Z" fill="#EEEEEE"/>
<path d="M106.965 31.1292C106.965 31.1292 107.034 39.336 107.452 41.8397L117.745 41.3527C117.745 41.3527 116.84 33.2852 117.188 31.1292H106.965Z" fill="#F03658"/>
<path d="M115.636 34.5767C115.638 34.6142 114.094 34.7382 112.187 34.8528C110.279 34.9678 108.731 35.03 108.729 34.9921C108.726 34.9542 110.27 34.8305 112.178 34.7156C114.085 34.601 115.634 34.5388 115.636 34.5767Z" fill="white"/>
<path d="M115.638 36.3147C115.64 36.3527 114.095 36.4763 112.188 36.5908C110.281 36.7058 108.733 36.768 108.73 36.7301C108.728 36.6922 110.272 36.5686 112.18 36.4536C114.087 36.339 115.636 36.2768 115.638 36.3147Z" fill="white"/>
<path d="M113.888 38.0215C113.889 38.0404 113.67 38.0705 113.315 38.1043C112.959 38.1381 112.468 38.1756 111.925 38.2081C111.381 38.2407 110.889 38.2629 110.532 38.272C110.175 38.2811 109.954 38.2769 109.953 38.258C109.952 38.239 110.171 38.2085 110.526 38.1747C110.882 38.141 111.373 38.1039 111.917 38.0709C112.46 38.0384 112.952 38.0165 113.309 38.0074C113.665 37.9984 113.887 38.0025 113.888 38.0215Z" fill="white"/>
<path d="M130.434 17.8042C130.434 17.8636 124.414 17.9114 116.989 17.9114C109.562 17.9114 103.543 17.8636 103.543 17.8042C103.543 17.7449 109.562 17.6971 116.989 17.6971C124.414 17.6971 130.434 17.7449 130.434 17.8042Z" fill="#1D2A30"/>
<path d="M113.415 20.2548C113.415 20.3141 111.157 20.3623 108.373 20.3623C105.587 20.3623 103.33 20.3141 103.33 20.2548C103.33 20.1958 105.587 20.1476 108.373 20.1476C111.157 20.1476 113.415 20.1958 113.415 20.2548Z" fill="#1D2A30"/>
<path d="M118.773 20.2548C118.773 20.3141 117.903 20.3623 116.83 20.3623C115.757 20.3623 114.887 20.3141 114.887 20.2548C114.887 20.1958 115.757 20.1476 116.83 20.1476C117.903 20.1476 118.773 20.1958 118.773 20.2548Z" fill="#1D2A30"/>
<path d="M174.987 46.1071C174.983 46.1071 174.977 46.0757 174.97 46.0135C174.963 45.9389 174.954 45.8483 174.943 45.7383C174.923 45.477 174.895 45.1234 174.86 44.6776C174.795 43.736 174.704 42.4075 174.593 40.7741C174.387 37.4598 174.104 32.9134 173.792 27.8911C173.505 22.8655 173.244 18.3175 173.055 15.002C172.971 13.3673 172.903 12.0372 172.856 11.0947C172.838 10.6477 172.823 10.2937 172.813 10.032C172.81 9.92117 172.808 9.83052 172.807 9.75511C172.807 9.69289 172.808 9.66074 172.812 9.66033C172.816 9.66033 172.821 9.69206 172.829 9.75387C172.836 9.82887 172.845 9.91952 172.856 10.0295C172.876 10.2904 172.904 10.6439 172.939 11.0902C173.003 12.0314 173.094 13.3603 173.206 14.9933C173.412 18.3076 173.694 22.8544 174.007 27.8783C174.294 32.9019 174.554 37.4495 174.744 40.7646C174.827 42.3997 174.895 43.7298 174.943 44.6722C174.961 45.1193 174.976 45.4737 174.986 45.7354C174.989 45.8458 174.991 45.9369 174.992 46.0123C174.993 46.0745 174.991 46.1066 174.987 46.1071Z" fill="#1D2A30"/>
<path d="M172.81 0.337031C172.81 0.337031 172.729 0.344439 172.571 0.347735C172.405 0.349795 172.173 0.353101 171.871 0.35681C171.246 0.360106 170.339 0.365045 169.176 0.370813C166.827 0.37411 163.442 0.378233 159.264 0.383591C150.888 0.373288 139.33 0.358867 126.563 0.343208C113.145 0.300353 101.064 0.261211 92.7103 0.234838L92.7276 0.232364C90.8568 0.688113 89.3869 1.75784 88.4235 2.91534C87.4465 4.08068 86.9718 5.33625 86.7505 6.36808C86.5276 7.40814 86.5486 8.24052 86.5915 8.79352C86.6166 9.07043 86.6422 9.281 86.6665 9.42151C86.6883 9.56244 86.6941 9.63538 86.6941 9.63538C86.6941 9.63538 86.6129 9.35353 86.5507 8.79723C86.4942 8.243 86.4596 7.40443 86.6726 6.3516C86.8836 5.30782 87.3526 4.03205 88.3354 2.84241C89.3041 1.661 90.7896 0.564897 92.6934 0.0910168L92.7016 0.0889645H92.7107C101.064 0.0984421 113.145 0.112863 126.564 0.128522C139.33 0.168904 150.888 0.205177 159.264 0.231961C163.443 0.255449 166.827 0.274388 169.176 0.287575C170.339 0.2987 171.246 0.307781 171.871 0.313551C172.173 0.318908 172.405 0.32302 172.571 0.325905C172.729 0.329613 172.81 0.337031 172.81 0.337031Z" fill="#1D2A30"/>
<path d="M243.71 166.168C243.71 166.228 240.579 166.275 236.717 166.275C232.854 166.275 229.723 166.228 229.723 166.168C229.723 166.109 232.854 166.061 236.717 166.061C240.579 166.061 243.71 166.109 243.71 166.168Z" fill="#FCFDFD"/>
<path d="M244.106 164.979C244.106 165.038 240.787 165.087 236.695 165.087C232.6 165.087 229.283 165.038 229.283 164.979C229.283 164.92 232.6 164.872 236.695 164.872C240.787 164.872 244.106 164.92 244.106 164.979Z" fill="#FCFDFD"/>
<path d="M182.297 159.34L181.628 167.8C181.628 167.8 173.269 170.486 173.221 172.052L189.572 172.267L190.055 159.323L182.297 159.34Z" fill="#F03658"/>
<path d="M186.667 166.939C186.986 167.016 187.216 167.365 187.152 167.688C187.088 168.009 186.735 168.246 186.414 168.175C186.093 168.103 185.805 167.692 185.905 167.379C186.004 167.066 186.434 166.811 186.728 166.958" fill="#EEEEEE"/>
<path d="M189.572 172.267L189.539 170.956L174.054 171.05C174.054 171.05 173.166 171.579 173.19 172.089L189.572 172.267Z" fill="#EEEEEE"/>
<path d="M181.36 167.725C181.364 167.805 181.765 167.829 182.166 168.074C182.574 168.309 182.787 168.649 182.859 168.615C182.932 168.597 182.799 168.123 182.308 167.834C181.821 167.542 181.34 167.652 181.36 167.725Z" fill="#1D2A30"/>
<path d="M179.667 168.487C179.65 168.565 180.001 168.69 180.282 169.019C180.574 169.341 180.653 169.705 180.733 169.699C180.808 169.709 180.849 169.239 180.491 168.836C180.137 168.429 179.666 168.41 179.667 168.487Z" fill="#1D2A30"/>
<path d="M178.752 170.57C178.826 170.585 178.924 170.183 178.706 169.751C178.491 169.318 178.109 169.156 178.077 169.224C178.034 169.292 178.284 169.519 178.458 169.876C178.64 170.228 178.673 170.564 178.752 170.57Z" fill="#1D2A30"/>
<path d="M181.447 165.792C181.482 165.864 181.845 165.742 182.298 165.76C182.751 165.767 183.107 165.909 183.146 165.839C183.191 165.78 182.838 165.494 182.306 165.482C181.772 165.464 181.405 165.73 181.447 165.792Z" fill="#1D2A30"/>
<path d="M181.367 164.091C181.367 164.125 181.685 164.164 182.187 164.062C182.437 164.011 182.73 163.92 183.036 163.774C183.189 163.699 183.345 163.612 183.499 163.509C183.573 163.459 183.661 163.407 183.741 163.309C183.827 163.223 183.871 163.01 183.765 162.883C183.677 162.76 183.527 162.71 183.409 162.711C183.288 162.711 183.191 162.738 183.103 162.763C182.922 162.813 182.753 162.878 182.599 162.953C182.291 163.104 182.042 163.292 181.858 163.472C181.489 163.835 181.368 164.137 181.396 164.152C181.433 164.177 181.61 163.921 181.988 163.619C182.176 163.47 182.418 163.312 182.706 163.186C182.851 163.123 183.007 163.068 183.172 163.027C183.345 162.975 183.492 162.97 183.539 163.045C183.556 163.075 183.559 163.086 183.524 163.138C183.488 163.186 183.419 163.234 183.346 163.284C183.204 163.383 183.061 163.47 182.92 163.544C182.639 163.695 182.369 163.799 182.137 163.872C181.673 164.017 181.364 164.048 181.367 164.091Z" fill="#1D2A30"/>
<path d="M181.474 164.203C181.502 164.214 181.653 163.923 181.666 163.405C181.672 163.147 181.636 162.838 181.527 162.511C181.472 162.348 181.398 162.182 181.303 162.02C181.203 161.861 181.079 161.648 180.768 161.621C180.606 161.62 180.475 161.751 180.433 161.86C180.382 161.973 180.374 162.068 180.358 162.163C180.333 162.355 180.343 162.543 180.374 162.716C180.436 163.062 180.587 163.348 180.749 163.551C181.082 163.966 181.418 164.051 181.424 164.024C181.449 163.983 181.166 163.837 180.91 163.437C180.783 163.24 180.668 162.978 180.627 162.675C180.607 162.524 180.604 162.363 180.628 162.201C180.648 162.026 180.709 161.884 180.775 161.9C180.856 161.896 180.999 162.022 181.07 162.159C181.158 162.304 181.229 162.451 181.286 162.597C181.397 162.89 181.451 163.172 181.469 163.41C181.506 163.89 181.43 164.192 181.474 164.203Z" fill="#1D2A30"/>
<path d="M217.653 157.932L219.543 167.812L223.29 175.196C223.561 175.728 223.324 176.377 222.775 176.61C222.467 176.741 222.118 176.716 221.834 176.541C220.024 175.424 213.384 171.285 213.287 170.554C213.174 169.707 210.602 160.264 210.602 160.264L217.653 157.932Z" fill="#F03658"/>
<path d="M222.776 176.61L213.145 169.89L213.234 170.306C213.312 170.667 213.513 170.989 213.805 171.213C214.588 171.812 216.784 173.42 221.805 176.548C222.097 176.729 222.463 176.754 222.776 176.61Z" fill="#EEEEEE"/>
<path d="M214.488 166.991C214.771 167.108 214.931 167.463 214.826 167.75C214.72 168.038 214.36 168.205 214.075 168.092C213.79 167.98 213.584 167.56 213.721 167.285C213.858 167.011 214.292 166.839 214.542 167.016" fill="#EEEEEE"/>
<path d="M219.602 172.797C219.663 172.813 219.774 172.25 220.3 171.847C220.813 171.429 221.386 171.45 221.385 171.387C221.389 171.361 221.247 171.311 221.011 171.328C220.775 171.344 220.45 171.448 220.163 171.674C219.877 171.901 219.701 172.194 219.631 172.419C219.56 172.646 219.576 172.795 219.602 172.797Z" fill="#1D2A30"/>
<path d="M220.588 173.964C220.644 173.996 220.89 173.608 221.368 173.353C221.84 173.088 222.299 173.088 222.302 173.023C222.319 172.967 221.801 172.86 221.262 173.16C220.719 173.453 220.531 173.948 220.588 173.964Z" fill="#1D2A30"/>
<path d="M217.935 171.39C217.992 171.427 218.369 170.829 219.076 170.367C219.776 169.895 220.474 169.779 220.461 169.713C220.466 169.657 219.706 169.678 218.954 170.183C218.196 170.68 217.882 171.373 217.935 171.39Z" fill="#1D2A30"/>
<path d="M217.112 168.435C217.151 168.488 217.645 168.144 218.347 167.967C219.046 167.78 219.645 167.838 219.653 167.773C219.67 167.719 219.043 167.553 218.291 167.752C217.538 167.945 217.071 168.396 217.112 168.435Z" fill="#1D2A30"/>
<path d="M216.483 165.549C216.526 165.599 217.001 165.154 217.755 165.027C218.507 164.884 219.107 165.136 219.13 165.074C219.141 165.05 219.008 164.95 218.753 164.868C218.5 164.785 218.122 164.738 217.716 164.81C217.312 164.883 216.973 165.058 216.765 165.224C216.555 165.39 216.464 165.53 216.483 165.549Z" fill="#1D2A30"/>
<path d="M217.62 164.481C217.632 164.479 217.626 164.342 217.553 164.107C217.48 163.873 217.335 163.537 217.048 163.196C216.903 163.036 216.741 162.825 216.439 162.754C216.288 162.718 216.09 162.787 216.002 162.943C215.913 163.094 215.911 163.264 215.942 163.42C216.086 164.042 216.752 164.531 217.473 164.47C218.195 164.395 218.747 163.855 218.91 163.256C218.941 163.103 218.947 162.924 218.834 162.774C218.723 162.622 218.509 162.598 218.374 162.653C218.091 162.759 217.943 162.967 217.798 163.129C217.518 163.474 217.37 163.806 217.292 164.038C217.213 164.27 217.201 164.407 217.213 164.41C217.253 164.428 217.358 163.873 217.917 163.23C218.06 163.079 218.223 162.892 218.429 162.827C218.529 162.796 218.626 162.817 218.68 162.892C218.735 162.963 218.741 163.091 218.711 163.212C218.57 163.704 218.065 164.196 217.453 164.25C216.846 164.308 216.262 163.877 216.141 163.378C216.113 163.257 216.119 163.129 216.168 163.042C216.217 162.958 216.31 162.918 216.408 162.935C216.616 162.971 216.788 163.15 216.931 163.3C217.5 163.933 217.578 164.501 217.62 164.481Z" fill="#1D2A30"/>
<path d="M182.185 81.5997C182.082 81.596 180.828 164.486 180.828 164.486L190.844 164.141L194.311 123.389L195.144 93.4726L201.959 121.141L210.46 164.57L220.462 162.059L207.732 81.0599L195.747 78.7416L182.185 81.5997Z" fill="#1D2A30"/>
<path d="M203.959 30.3883C205.156 28.0201 205.535 23.7709 204.16 21.4159C202.785 19.0613 200.004 17.3632 197.389 16.5889C196.953 16.4595 196.479 16.3586 196.047 16.5032C195.615 16.6478 195.264 17.1238 195.411 17.5552C194.903 17.1807 194.382 16.7999 193.779 16.6124C193.176 16.4241 192.466 16.4616 191.981 16.8658C191.496 17.2705 191.361 18.0946 191.808 18.5405C191.088 18.2133 190.178 18.355 189.591 18.8866C189.005 19.4182 188.774 20.3087 189.028 21.0582C189.272 21.7761 189.844 22.6006 190.362 23.154C190.88 23.7074 190.931 24.2443 190.782 24.9877" fill="#1D2A30"/>
<path d="M194.082 49.8811C194.154 48.7454 194.339 38.468 194.337 38.421C194.337 38.421 190.522 37.9488 190.357 34.1545C190.277 32.3216 190.42 28.5334 190.59 25.1071C190.771 21.424 193.752 18.4995 197.438 18.385L197.804 18.3734C201.76 18.4814 203.88 21.902 203.662 25.8542L203.121 47.8459L194.082 49.8811Z" fill="#F9AD95"/>
<path d="M194.338 38.4211C194.338 38.4211 196.735 38.4874 199.235 36.8062C199.235 36.8062 198.095 39.1809 194.297 38.9568L194.338 38.4211Z" fill="#F6865E"/>
<path d="M191.227 27.6705C191.225 27.9573 191.467 28.1947 191.766 28.2013C192.065 28.2079 192.309 27.9816 192.31 27.6948C192.311 27.4085 192.069 27.1707 191.77 27.1641C191.471 27.1571 191.228 27.3841 191.227 27.6705Z" fill="#1D2A30"/>
<path d="M191.463 26.9404C191.532 27.0092 191.933 26.6924 192.517 26.6759C193.099 26.6507 193.537 26.9375 193.598 26.8642C193.628 26.8316 193.555 26.706 193.365 26.5762C193.177 26.4468 192.86 26.3248 192.496 26.338C192.133 26.3512 191.832 26.4946 191.66 26.6367C191.485 26.7801 191.428 26.9099 191.463 26.9404Z" fill="#1D2A30"/>
<path d="M197.074 27.7549C197.073 28.0413 197.314 28.2786 197.614 28.2856C197.913 28.2922 198.156 28.066 198.157 27.7796C198.158 27.4928 197.917 27.255 197.618 27.248C197.319 27.2414 197.075 27.4685 197.074 27.7549Z" fill="#1D2A30"/>
<path d="M197.201 26.8708C197.27 26.9392 197.672 26.6228 198.255 26.6063C198.838 26.5816 199.275 26.8684 199.336 26.795C199.366 26.762 199.294 26.6368 199.103 26.507C198.915 26.3772 198.598 26.2556 198.235 26.2684C197.872 26.2816 197.57 26.425 197.399 26.5675C197.224 26.7105 197.167 26.8407 197.201 26.8708Z" fill="#1D2A30"/>
<path d="M195.219 31.263C195.22 31.2296 194.856 31.1785 194.266 31.1216C194.117 31.1105 193.974 31.0854 193.946 30.9848C193.908 30.8781 193.965 30.7157 194.032 30.5398C194.161 30.1751 194.295 29.7927 194.437 29.3922C194.998 27.7583 195.4 26.4166 195.334 26.3944C195.268 26.3721 194.759 27.6788 194.198 29.3131C194.063 29.7156 193.934 30.0997 193.811 30.4668C193.76 30.6379 193.669 30.8332 193.752 31.054C193.796 31.1641 193.908 31.2415 194.004 31.2642C194.1 31.2902 194.184 31.2893 194.258 31.2914C194.85 31.305 195.218 31.2959 195.219 31.263Z" fill="#1D2A30"/>
<path d="M196.948 31.6135C196.853 31.6106 196.871 32.2439 196.344 32.71C195.816 33.1781 195.139 33.1278 195.137 33.2168C195.13 33.2564 195.291 33.3347 195.577 33.3339C195.856 33.3347 196.262 33.2321 196.585 32.9469C196.906 32.661 197.037 32.2889 197.051 32.0284C197.067 31.7626 196.991 31.6081 196.948 31.6135Z" fill="#1D2A30"/>
<path d="M196.978 24.5895C197.041 24.7461 197.621 24.653 198.308 24.7144C198.996 24.7614 199.555 24.9447 199.641 24.7997C199.679 24.7304 199.578 24.5842 199.351 24.4375C199.124 24.2912 198.767 24.1564 198.355 24.1231C197.942 24.0913 197.568 24.168 197.322 24.2776C197.074 24.3864 196.951 24.5149 196.978 24.5895Z" fill="#1D2A30"/>
<path d="M191.624 25.2454C191.731 25.3748 192.128 25.2244 192.611 25.203C193.093 25.1646 193.506 25.2644 193.597 25.1226C193.636 25.0542 193.567 24.9236 193.384 24.8037C193.204 24.6842 192.906 24.591 192.575 24.6116C192.243 24.6323 191.959 24.7612 191.795 24.9026C191.629 25.0439 191.577 25.1819 191.624 25.2454Z" fill="#1D2A30"/>
<path d="M203.439 28.6744C203.502 28.6444 206.023 27.8219 206.02 30.42C206.018 33.0177 203.411 32.4795 203.407 32.4049C203.402 32.3307 203.439 28.6744 203.439 28.6744Z" fill="#F9AD95"/>
<path d="M204.202 31.4216C204.213 31.413 204.247 31.4533 204.323 31.4884C204.398 31.5226 204.526 31.546 204.662 31.4954C204.936 31.3952 205.168 30.9597 205.18 30.4912C205.187 30.255 205.138 30.0296 205.055 29.843C204.975 29.653 204.852 29.5203 204.714 29.4956C204.577 29.4639 204.479 29.5463 204.447 29.6192C204.412 29.6922 204.429 29.7437 204.415 29.7486C204.408 29.7548 204.359 29.7045 204.381 29.5974C204.391 29.5459 204.421 29.4845 204.483 29.4346C204.545 29.3843 204.637 29.3584 204.733 29.3691C204.934 29.3827 205.113 29.5673 205.205 29.7721C205.308 29.9773 205.369 30.2307 205.362 30.4961C205.345 31.0194 205.076 31.5094 204.7 31.6173C204.518 31.6651 204.365 31.6095 204.287 31.5485C204.206 31.4842 204.193 31.4261 204.202 31.4216Z" fill="#F6865E"/>
<path d="M188.934 20.1998C188.63 23.5685 192.778 24.974 194.599 23.0909C195.441 22.2202 196.175 21.1315 197.321 20.7392C198.092 20.4755 198.963 20.6168 199.689 20.9885L199.711 20.9996C200.781 21.5563 201.413 22.7958 201.579 23.99C201.81 25.6552 201.543 27.1238 201.976 28.653C202.038 28.8726 202.111 29.1091 202.296 29.2422C202.611 29.4689 203.065 29.2703 203.323 28.9818C203.738 28.5199 203.885 27.8816 203.975 27.2676C204.181 25.8695 204.171 24.4276 203.819 23.0591C203.467 21.6902 202.759 20.3967 201.708 19.4527C200.393 18.2725 198.585 17.6952 196.821 17.7776C195.057 17.8596 193.348 18.5762 191.972 19.6835C191.333 20.1973 190.75 20.8125 190.435 21.5691" fill="#1D2A30"/>
<path d="M191.682 18.3474C191.683 18.34 191.553 18.3161 191.323 18.3626C191.095 18.4071 190.77 18.5468 190.465 18.8402C190.165 19.132 189.887 19.5852 189.82 20.149C189.753 20.7123 189.94 21.3411 190.317 21.8603C190.696 22.3811 191.211 22.7508 191.723 22.9568C192.234 23.1682 192.729 23.2448 193.14 23.2712C193.552 23.2939 193.885 23.2696 194.112 23.2415C194.34 23.2131 194.463 23.1822 194.462 23.1698C194.459 23.1332 193.954 23.2061 193.151 23.1303C192.753 23.087 192.278 22.998 191.795 22.787C191.312 22.5826 190.834 22.2311 190.479 21.7433C190.127 21.2578 189.951 20.6797 190.003 20.1679C190.054 19.6541 190.297 19.2234 190.565 18.9391C190.838 18.6531 191.131 18.5027 191.343 18.4376C191.556 18.3709 191.684 18.3672 191.682 18.3474Z" fill="#365462"/>
<path d="M193.422 17.1578C193.422 17.1479 193.326 17.1289 193.174 17.2014C193.026 17.274 192.838 17.4586 192.769 17.7561C192.7 18.0553 192.792 18.4171 192.967 18.7504C193.143 19.0842 193.376 19.4312 193.678 19.7443C194.279 20.3789 194.997 20.7539 195.536 20.922C196.077 21.0992 196.433 21.0934 196.434 21.0745C196.44 21.039 196.095 20.9945 195.584 20.7889C195.073 20.5924 194.398 20.2137 193.823 19.6071C193.534 19.3075 193.306 18.9783 193.129 18.6647C192.955 18.3532 192.866 18.038 192.908 17.7825C192.949 17.527 193.096 17.3502 193.214 17.2682C193.335 17.1845 193.424 17.1742 193.422 17.1578Z" fill="#365462"/>
<path d="M170.803 50.8016L152.937 49.1067L150.109 48.4276C150.109 48.4276 143.648 47.2718 143.042 47.0818C142.34 46.8622 142.066 47.1473 142.003 47.4111C141.905 47.8223 142.311 48.2624 142.907 48.4697C143.113 48.541 146.406 49.539 146.406 49.539C146.406 49.539 146.088 49.6045 145.321 49.8987C144.555 50.1929 143.848 51.2244 143.521 52.407C143.193 53.5892 143.206 53.9494 143.66 54.0981C143.841 54.1579 144.02 54.1006 144.173 54.0062C144.422 53.8517 144.598 53.5987 144.68 53.3173C145.23 51.4304 146.39 51.238 146.39 51.238L146.76 51.327C146.76 51.327 145.59 52.2133 145.651 53.2278C145.661 53.3935 145.703 53.5357 145.762 53.6601C145.611 54.1599 145.731 54.734 146.077 55.1258C146.436 55.5342 147.023 55.7279 147.554 55.6141C147.809 55.5597 148.079 55.3978 148.106 55.1394C148.12 55.003 148.062 54.8708 148.008 54.7447C147.98 54.6783 147.952 54.6095 147.936 54.5391L149.008 54.6429C149.008 54.6429 151.427 54.7471 152.475 54.912L169.314 59.2704C171.649 59.8745 174.026 58.4471 174.589 56.102C175.201 53.5513 173.414 51.0492 170.803 50.8016Z" fill="#F9AD95"/>
<path d="M152.541 49.5757C152.528 49.9494 152.166 50.2239 151.803 50.3149C151.44 50.4056 151.058 50.371 150.689 50.4357C149.588 50.6281 148.767 51.669 147.657 51.8087C147.503 51.8281 147.305 51.8037 147.253 51.6566C147.206 51.5206 147.319 51.3855 147.424 51.2858C148.316 50.4324 149.208 49.579 150.1 48.726" fill="#F9AD95"/>
<path d="M150.102 48.7261C150.092 48.7154 149.979 48.804 149.784 48.973C149.589 49.1423 149.311 49.392 148.972 49.7036C148.621 50.0303 148.221 50.4016 147.785 50.8067C147.674 50.9117 147.56 51.0189 147.445 51.1277C147.344 51.2377 147.164 51.337 147.141 51.5925C147.135 51.7206 147.237 51.8426 147.342 51.8789C147.447 51.9209 147.546 51.9238 147.643 51.9164C147.826 51.8916 148.002 51.8537 148.174 51.789C148.864 51.5344 149.386 51.0906 149.917 50.8178C150.18 50.6773 150.442 50.5722 150.698 50.5236C150.954 50.4745 151.207 50.4725 151.44 50.4465C151.913 50.4168 152.289 50.1984 152.435 49.9693C152.591 49.7382 152.549 49.57 152.542 49.5758C152.521 49.5713 152.529 49.7287 152.37 49.9191C152.213 50.1119 151.882 50.2858 151.427 50.2982C151.201 50.3142 150.947 50.306 150.667 50.3513C150.388 50.3962 150.104 50.5034 149.827 50.6447C149.271 50.9216 148.742 51.3572 148.103 51.59C147.946 51.6498 147.78 51.6844 147.624 51.707C147.471 51.7239 147.337 51.6737 147.348 51.5912C147.346 51.5002 147.468 51.3819 147.584 51.2735C147.698 51.1627 147.81 51.0539 147.92 50.9476C148.344 50.5302 148.733 50.1482 149.075 49.8115C149.401 49.486 149.664 49.2198 149.841 49.0327C150.019 48.8452 150.112 48.7368 150.102 48.7261Z" fill="#F6865E"/>
<path d="M146.789 51.288C146.787 51.3161 146.51 51.1813 146.09 51.3066C145.884 51.3688 145.666 51.5176 145.497 51.7487C145.325 51.9778 145.201 52.2745 145.093 52.596C144.983 52.9178 144.879 53.2351 144.723 53.498C144.567 53.7596 144.374 53.9677 144.163 54.0806C143.952 54.1981 143.735 54.1717 143.62 54.1144C143.502 54.0572 143.456 54.0003 143.459 53.9962C143.467 53.985 143.524 54.0267 143.639 54.0646C143.752 54.1021 143.934 54.1099 144.116 53.9966C144.297 53.887 144.473 53.6851 144.614 53.4353C144.756 53.1844 144.854 52.8766 144.964 52.5519C145.073 52.2267 145.207 51.9144 145.398 51.6725C145.584 51.4269 145.836 51.2687 146.063 51.2139C146.291 51.1554 146.483 51.178 146.607 51.2093C146.731 51.2423 146.792 51.281 146.789 51.288Z" fill="#F6865E"/>
<path d="M142.676 48.3861C142.683 48.368 142.931 48.4487 143.332 48.5802C143.778 48.7248 144.31 48.8971 144.899 49.0875C145.49 49.2688 146.024 49.4332 146.473 49.5708C146.876 49.6928 147.126 49.7694 147.122 49.7884C147.117 49.8061 146.859 49.7624 146.448 49.6639C146.036 49.5659 145.473 49.4109 144.858 49.2172C144.242 49.0232 143.692 48.8266 143.299 48.6708C142.905 48.5155 142.669 48.403 142.676 48.3861Z" fill="#F6865E"/>
<path d="M147.299 52.2599C147.306 52.2674 147.253 52.3242 147.166 52.4277C147.084 52.5282 146.949 52.7 146.984 52.925C147 53.0338 147.08 53.1273 147.204 53.1801C147.325 53.2361 147.475 53.2534 147.638 53.2815C147.797 53.3087 147.995 53.3573 148.128 53.5196C148.255 53.6795 148.289 53.9012 148.232 54.1011C148.174 54.3059 148.018 54.4596 147.849 54.5457C147.678 54.6314 147.495 54.6685 147.317 54.6458C146.981 54.5927 146.706 54.4789 146.48 54.371C146.256 54.2593 146.089 54.139 145.992 54.0351C145.894 53.9313 145.868 53.8542 145.874 53.8522C145.884 53.8456 145.925 53.9099 146.028 53.9968C146.131 54.0833 146.299 54.1864 146.521 54.2836C146.743 54.3767 147.022 54.4789 147.331 54.5214C147.619 54.5519 148.004 54.392 148.101 54.0636C148.148 53.9029 148.118 53.7228 148.024 53.6033C147.929 53.483 147.77 53.4339 147.615 53.4051C147.459 53.3742 147.297 53.3523 147.155 53.2819C147.012 53.2197 146.9 53.0795 146.889 52.9394C146.863 52.6572 147.034 52.4837 147.127 52.3918C147.23 52.2962 147.293 52.2542 147.299 52.2599Z" fill="#F6865E"/>
<path d="M147.767 54.461C147.767 54.4544 147.843 54.4581 147.947 54.5368C148.046 54.6134 148.172 54.7815 148.165 55.023C148.158 55.26 147.997 55.5319 147.718 55.6733C147.442 55.8158 147.085 55.8274 146.754 55.7248C146.421 55.6209 146.144 55.4124 145.965 55.1705C145.783 54.9282 145.703 54.6604 145.677 54.4379C145.652 54.2137 145.682 54.0312 145.714 53.9117C145.748 53.7913 145.782 53.7312 145.789 53.7341C145.816 53.739 145.705 54.0019 145.773 54.4247C145.808 54.6324 145.892 54.8767 146.064 55.0943C146.234 55.3119 146.49 55.4998 146.794 55.5946C147.097 55.6885 147.42 55.6794 147.662 55.5608C147.905 55.445 148.052 55.2159 148.069 55.0168C148.086 54.8149 147.991 54.6563 147.911 54.5763C147.829 54.4939 147.762 54.4721 147.767 54.461Z" fill="#F6865E"/>
<path d="M150.666 52.8841C150.654 52.8812 150.667 52.7555 150.768 52.5717C150.867 52.3904 151.071 52.1522 151.395 52.0171L151.393 52.1374C151.26 52.0801 151.118 52.0101 150.977 51.9281C150.191 51.474 149.786 50.8373 149.818 50.8237C149.849 50.7957 150.289 51.3742 151.046 51.8106C151.182 51.8897 151.318 51.959 151.445 52.0175L151.587 52.0826L151.443 52.1382C151.149 52.252 150.949 52.4568 150.837 52.6154C150.723 52.7757 150.683 52.8898 150.666 52.8841Z" fill="#F6865E"/>
<path d="M145.058 51.2024C145.083 51.1761 145.279 51.3763 145.312 51.7035C145.349 52.0307 145.2 52.2676 145.17 52.2475C145.133 52.2314 145.21 52.0023 145.177 51.7179C145.15 51.4332 145.026 51.2255 145.058 51.2024Z" fill="#F6865E"/>
<path d="M171.122 59.5356L182.774 56.8461C182.774 56.8461 182.171 78.2073 182.173 78.4096C182.175 78.612 181.211 78.9474 181.294 80.4972L182.131 82.3416L207.681 82.6844L208.37 61.938L210.702 45.8512L205.342 42.5349L203.456 39.9751L196.086 47.7484L194.254 41.1149L194.306 39.1407L192.485 41.1173L182.658 43.9511L169.676 50.0045L160.898 49.3336L158.619 57.0138L171.122 59.5356Z" fill="#F03658"/>
<path d="M195.066 45.3596C195.086 45.3835 194.74 45.4647 194.539 45.9476C194.437 46.1829 194.384 46.4854 194.379 46.8455C194.362 47.2007 194.386 47.628 194.205 48.0673L194.117 48.2808L194.025 48.0681C193.78 47.5032 193.612 46.8579 193.449 46.178C193.138 44.8429 192.939 43.6207 192.807 42.7351C192.676 41.8488 192.624 41.2966 192.652 41.2925C192.682 41.2879 192.788 41.8315 192.956 42.7096C193.127 43.5873 193.349 44.8029 193.657 46.1285C193.819 46.8023 193.982 47.4467 194.204 47.9874L194.024 47.9878C194.191 47.6095 194.186 47.1978 194.214 46.8369C194.232 46.473 194.305 46.1396 194.431 45.8973C194.553 45.6513 194.721 45.4968 194.852 45.4272C194.983 45.3567 195.065 45.3522 195.066 45.3596Z" fill="#1D2A30"/>
<path d="M204.526 42.1008C204.537 42.1103 204.448 42.2376 204.277 42.4589C204.105 42.6802 203.852 42.9962 203.536 43.3836C202.903 44.1583 202.018 45.2189 201.031 46.3818C200.467 47.0394 199.933 47.6617 199.458 48.2171L199.336 48.3589L199.291 48.1788C199.067 47.2838 198.886 46.5264 198.764 45.9957C198.715 45.7291 198.565 45.577 198.422 45.5737C198.352 45.5675 198.305 45.5848 198.274 45.6021C198.243 45.619 198.228 45.6363 198.224 45.6306C198.214 45.6343 198.253 45.5218 198.424 45.5131C198.503 45.5107 198.609 45.5375 198.695 45.624C198.78 45.7072 198.835 45.8317 198.875 45.9648C199.03 46.491 199.237 47.2389 199.477 48.1302L199.31 48.0923C199.781 47.5327 200.309 46.9059 200.867 46.2429C201.855 45.0801 202.758 44.0346 203.42 43.2855C203.752 42.9105 204.022 42.6097 204.213 42.4049C204.404 42.2001 204.514 42.0913 204.526 42.1008Z" fill="#1D2A30"/>
<path d="M193.658 76.2212C193.651 76.2212 193.644 76.126 193.637 75.9447C193.632 75.7415 193.626 75.4786 193.619 75.1523C193.606 74.4637 193.606 73.4669 193.621 72.2357C193.649 69.7735 193.766 66.3715 194.045 62.6237C194.326 58.8747 194.717 55.4929 195.055 53.0538C195.223 51.8341 195.372 50.8488 195.487 50.1697C195.543 49.8479 195.588 49.5887 195.623 49.3885C195.656 49.2105 195.677 49.1173 195.684 49.1186C195.692 49.1194 195.685 49.215 195.665 49.3951C195.641 49.5966 195.609 49.8578 195.57 50.1817C195.481 50.8905 195.357 51.8716 195.205 53.0732C194.907 55.5155 194.54 58.8953 194.259 62.6398C193.981 66.383 193.84 69.7793 193.773 72.2389C193.743 73.4496 193.72 74.4386 193.703 75.1523C193.693 75.4786 193.686 75.7415 193.68 75.9447C193.672 76.126 193.665 76.2212 193.658 76.2212Z" fill="#1D2A30"/>
<path d="M191.58 81.2273C191.521 81.2384 191.356 80.4159 191.389 79.3936C191.419 78.3741 191.547 77.5607 191.601 77.5648C191.666 77.5694 191.632 78.3923 191.603 79.3989C191.571 80.4056 191.638 81.2182 191.58 81.2273Z" fill="#1D2A30"/>
<path d="M202.046 75.2313C202.051 75.2453 201.817 75.3331 201.388 75.4793C200.962 75.6277 200.337 75.8238 199.56 76.0497C198.008 76.5029 195.837 77.0465 193.406 77.4799C190.974 77.9106 188.748 78.1483 187.135 78.2575C186.328 78.3127 185.674 78.3436 185.222 78.3519C184.77 78.3618 184.52 78.3605 184.52 78.3457C184.519 78.3305 184.768 78.3041 185.218 78.2682C185.704 78.227 186.345 78.1722 187.123 78.1063C188.729 77.9584 190.944 77.6979 193.368 77.2681C195.792 76.8363 197.961 76.3183 199.52 75.9034C200.272 75.6977 200.894 75.528 201.364 75.3994C201.799 75.2778 202.042 75.2173 202.046 75.2313Z" fill="#1D2A30"/>
<path d="M182.645 61.3512C182.585 61.3508 182.548 58.3196 182.561 54.5817C182.574 50.8418 182.633 47.8114 182.693 47.8118C182.752 47.8118 182.789 50.8426 182.776 54.5821C182.763 58.3204 182.704 61.3512 182.645 61.3512Z" fill="#1D2A30"/>
<path d="M210.225 45.5568C210.225 45.5568 213.445 48.318 213.656 49.8814C213.819 51.0904 216.986 62.443 218.412 67.5254C218.857 69.109 218.762 70.7944 218.143 72.3186L214.029 82.4976L207.373 78.5598L210.701 69.013L207.945 60.9125L210.225 45.5568Z" fill="#F03658"/>
<path d="M214.027 82.4973C214.025 82.501 213.983 82.4804 213.902 82.4371C213.811 82.3864 213.693 82.3217 213.547 82.2409C213.224 82.0555 212.773 81.798 212.201 81.4708C211.026 80.7855 209.36 79.8143 207.329 78.6304L207.271 78.5962L207.293 78.5319C208.224 75.8407 209.357 72.5697 210.599 68.9777L210.6 69.0494C210.21 68.0023 209.802 66.9078 209.386 65.792C208.412 63.1671 207.482 60.6609 206.634 58.3772L206.638 58.385C205.794 56.6135 205.064 54.9038 204.861 53.2642C204.764 52.4491 204.782 51.6662 204.93 50.9636C205.073 50.2602 205.315 49.6392 205.598 49.113C206.164 48.0573 206.834 47.3659 207.317 46.9431C207.559 46.7288 207.757 46.5796 207.895 46.4844C208.033 46.3892 208.106 46.3419 208.109 46.3464C208.112 46.3513 208.045 46.4074 207.915 46.5112C207.785 46.6142 207.593 46.7712 207.361 46.9909C206.895 47.4252 206.248 48.1228 205.706 49.1691C205.435 49.6903 205.205 50.3027 205.073 50.9921C204.936 51.6798 204.926 52.4446 205.027 53.2428C205.239 54.8482 205.968 56.5332 206.818 58.2997L206.82 58.3034L206.822 58.3075C207.673 60.5896 208.608 63.0941 209.587 65.7174C210.002 66.8332 210.409 67.9281 210.798 68.9756L210.812 69.0115L210.799 69.0477C209.54 72.6335 208.393 75.8996 207.449 78.5867L207.413 78.4882C209.429 79.6981 211.082 80.6907 212.249 81.3904C212.81 81.7337 213.254 82.0048 213.572 82.1993C213.713 82.2887 213.826 82.36 213.914 82.4161C213.991 82.4664 214.03 82.4935 214.027 82.4973Z" fill="#1D2A30"/>
<path d="M198.833 49.8997C198.441 49.8997 198.104 49.5131 197.999 49.1171C197.883 48.6808 197.945 48.2159 197.863 47.7717C197.781 47.3279 197.325 47.0593 196.873 47.0477L196.873 47.0073C196.934 46.9847 197.383 46.5108 197.588 46.2388C197.766 46.0019 198.1 45.6281 198.387 45.6281C198.431 45.6281 198.473 45.6368 198.513 45.6549C198.627 45.7073 198.704 45.8482 198.764 45.9949C198.764 45.9953 198.764 45.9953 198.764 45.9957C198.886 46.5265 199.068 47.2838 199.291 48.1789L199.336 48.3589L199.458 48.2172C199.934 47.6617 200.467 47.0395 201.031 46.3818C201.228 46.1494 201.421 45.9215 201.609 45.699C201.105 46.9769 200.423 48.3119 199.587 49.3899C199.418 49.6063 199.223 49.8317 198.955 49.8873C198.914 49.8959 198.873 49.8997 198.833 49.8997Z" fill="#BC283B"/>
<path d="M199.336 48.3589L199.29 48.1788C199.067 47.2838 198.885 46.5264 198.764 45.9957C198.764 45.9953 198.764 45.9953 198.764 45.9948C198.804 46.0942 198.837 46.1964 198.868 46.2759C199.104 46.8849 199.31 47.5327 199.38 48.1821L201.662 45.5622C201.644 45.6075 201.626 45.6532 201.609 45.699C201.421 45.9215 201.227 46.1494 201.03 46.3818C200.466 47.0394 199.933 47.6617 199.457 48.2171L199.336 48.3589Z" fill="#161C1E"/>
<path d="M195.802 46.7275L195.787 46.6723C195.792 46.6904 195.797 46.709 195.802 46.7275Z" fill="#C07A62"/>
<path d="M194.46 49.4049C194.369 49.4049 194.275 49.3658 194.206 49.3044C194.098 49.2084 194.038 49.0699 193.984 48.9352C193.463 47.6462 193.239 46.1945 193.158 44.8029C193.243 45.2401 193.339 45.702 193.45 46.178C193.614 46.8579 193.781 47.5032 194.026 48.0682L194.118 48.2808L194.206 48.0673C194.387 47.6281 194.363 47.2007 194.38 46.8455C194.385 46.4854 194.439 46.1829 194.54 45.9476C194.568 45.8817 194.598 45.8228 194.63 45.7709C194.736 45.6518 194.866 45.5603 194.992 45.5393C195.012 45.536 195.032 45.5343 195.052 45.5343C195.252 45.5343 195.433 45.6967 195.523 45.8813C195.603 46.0449 195.698 46.3506 195.788 46.6725L195.803 46.7277C195.952 47.272 196.081 47.8432 196.081 47.8432C196.081 47.8432 195.227 47.8976 195.015 48.486C194.979 48.5861 194.696 49.3035 194.607 49.3625C194.563 49.3917 194.512 49.4049 194.46 49.4049Z" fill="#BC283B"/>
<path d="M194.119 48.2808L194.027 48.0681C193.782 47.5032 193.614 46.8579 193.45 46.178C193.34 45.702 193.243 45.2401 193.159 44.8029C193.157 44.7679 193.155 44.7328 193.153 44.6974L193.148 44.6587C193.413 45.641 193.738 46.9967 194.138 48.1221C194.294 47.7533 194.278 47.2683 194.407 46.2109C194.424 46.07 194.512 45.9035 194.63 45.7708C194.599 45.8228 194.568 45.8817 194.541 45.9476C194.439 46.1829 194.386 46.4854 194.381 46.8455C194.364 47.2007 194.388 47.628 194.207 48.0673L194.119 48.2808Z" fill="#161C1E"/>
<path d="M186.059 78.4072C186.075 78.3776 186.091 78.3483 186.108 78.3195C186.413 78.3038 186.757 78.2832 187.134 78.2576C188.323 78.1773 189.842 78.0269 191.532 77.7817C191.53 77.7941 191.528 77.8068 191.525 77.8204C188.586 78.2234 186.059 78.4072 186.059 78.4072ZM186.191 78.1855C186.79 77.2777 187.868 76.747 188.946 76.5377C189.659 76.3996 190.385 76.3786 191.112 76.3786C191.273 76.3786 191.432 76.3794 191.593 76.3807C191.753 76.3815 191.913 76.3823 192.074 76.3823C192.214 76.3823 192.353 76.3819 192.493 76.3794C193.678 76.3601 194.908 76.2191 195.918 75.5986C196.329 75.3464 196.69 75.0225 197.08 74.7402C197.47 74.458 197.906 74.2128 198.383 74.1526C198.449 74.1444 198.516 74.1402 198.583 74.1402C199.002 74.1402 199.428 74.3042 199.67 74.6417C199.95 75.0336 199.898 75.6859 199.473 75.9134C199.469 75.915 199.466 75.9171 199.463 75.9187C197.908 76.3308 195.762 76.8418 193.368 77.2683C190.944 77.698 188.729 77.9585 187.122 78.1064C186.786 78.1348 186.475 78.1616 186.191 78.1855ZM191.634 77.8052C191.634 77.792 191.634 77.7792 191.633 77.7669C192.207 77.6824 192.8 77.5872 193.406 77.4801C195.287 77.1442 197.013 76.7433 198.417 76.3687C196.646 77.0029 194.014 77.4755 191.634 77.8052Z" fill="#BC283B"/>
<path d="M191.525 77.8203C191.528 77.8067 191.53 77.7939 191.532 77.7816C191.566 77.7766 191.6 77.7717 191.634 77.7667C191.634 77.7791 191.635 77.7919 191.635 77.8051C191.598 77.81 191.562 77.8154 191.525 77.8203Z" fill="#161C1E"/>
<path d="M186.105 78.3192C186.132 78.2735 186.159 78.229 186.188 78.1853C186.472 78.1614 186.783 78.1346 187.12 78.1062C188.726 77.9582 190.941 77.6978 193.365 77.268C195.759 76.8415 197.905 76.3306 199.46 75.9185C199.163 76.0767 198.81 76.2267 198.414 76.3685C197.01 76.7431 195.285 77.144 193.403 77.4798C192.797 77.587 192.205 77.6822 191.631 77.7666C191.597 77.7716 191.563 77.7765 191.53 77.7815C189.84 78.0266 188.32 78.177 187.132 78.2574C186.754 78.283 186.411 78.3036 186.105 78.3192Z" fill="#161C1E"/>
<path d="M206.095 90.7952C204.657 89.8548 204.028 88.9512 203.442 88.0607L203.445 87.9713C203.426 87.9383 203.389 87.921 203.344 87.9099C203.019 87.4034 202.763 86.9427 202.567 86.5488C203.394 86.0106 204.475 85.1972 203.3 85.0299C201.854 84.8239 200.819 84.1209 200.672 83.7364C200.524 83.3511 201.006 83.0058 201.388 83.2518C201.695 83.4504 202.312 83.6219 202.78 83.7323C203.166 83.8234 203.564 83.8506 203.959 83.8069C204.204 83.7797 205.066 83.1888 205.988 82.7557C206.119 82.6943 206.266 82.6766 206.408 82.7001L206.761 82.6757C207.14 82.6498 207.479 82.4273 207.655 82.0894L208.991 79.5172L213.03 81.906L209.834 86.3428C209.834 86.3428 207.632 89.2689 206.095 90.7952Z" fill="#F9AD95"/>
<path d="M206.928 91.2601C206.919 91.2819 206.547 91.1467 205.997 90.8208C205.449 90.4965 204.736 89.9587 204.084 89.2314C203.433 88.5008 202.978 87.7332 202.717 87.1521C202.454 86.5703 202.361 86.185 202.384 86.1776C202.449 86.1446 202.952 87.6615 204.244 89.088C205.517 90.5299 206.968 91.1987 206.928 91.2601Z" fill="#365462"/>
<path d="M194.206 93.8589C194.204 93.8659 194.165 93.8536 194.093 93.8235C194.022 93.793 193.923 93.7341 193.807 93.6414C193.577 93.453 193.322 93.09 193.147 92.5943C192.97 92.0977 192.853 91.4932 192.7 90.829C192.552 90.1618 192.397 89.4275 192.246 88.6541C191.942 87.1072 191.711 85.6991 191.562 84.6772C191.489 84.1662 191.435 83.7517 191.404 83.4641C191.373 83.1769 191.363 83.017 191.378 83.0149C191.392 83.0128 191.43 83.1686 191.487 83.4513C191.549 83.7814 191.624 84.1819 191.712 84.6525C191.898 85.667 192.153 87.0688 192.456 88.6133C192.61 89.3814 192.758 90.1132 192.893 90.7874C193.036 91.4541 193.138 92.0623 193.291 92.5453C193.442 93.0307 193.663 93.3822 193.863 93.5795C194.066 93.7753 194.216 93.8412 194.206 93.8589Z" fill="#365462"/>
<path d="M193.862 84.6056C193.863 84.5936 193.931 84.5804 194.045 84.6188C194.158 84.6554 194.315 84.7584 194.421 84.9525C194.53 85.1363 194.568 85.4553 194.383 85.707C194.212 85.951 193.871 86.1245 193.517 86.0363C193.167 85.9386 192.954 85.6271 192.912 85.3358C192.863 85.0321 193.011 84.7675 193.171 84.6278C193.513 84.3336 193.821 84.4201 193.805 84.4399C193.812 84.4754 193.535 84.4609 193.278 84.735C193.156 84.868 193.06 85.0766 193.107 85.3032C193.147 85.5261 193.324 85.7627 193.572 85.829C193.818 85.8933 194.089 85.7692 194.223 85.5908C194.366 85.4107 194.357 85.1821 194.285 85.0193C194.132 84.6752 193.846 84.6369 193.862 84.6056Z" fill="#365462"/>
<path d="M185.099 82.9509C185.119 82.9463 185.219 83.3044 185.207 83.8999C185.197 84.4928 185.032 85.3203 184.6 86.1259C184.166 86.9302 183.566 87.524 183.077 87.859C182.587 88.1982 182.233 88.3115 182.225 88.2921C182.208 88.2579 182.534 88.0968 182.986 87.7379C183.438 87.3818 183.993 86.7967 184.412 86.0245C184.825 85.2498 185.007 84.464 185.055 83.8912C185.106 83.3168 185.061 82.9554 185.099 82.9509Z" fill="#365462"/>
<path d="M169.109 54.038C169.049 54.0264 169.177 53.1154 169.316 51.9912C169.457 50.8667 169.555 49.9519 169.616 49.9556C169.673 49.9581 169.671 50.8848 169.529 52.0176C169.39 53.15 169.165 54.0495 169.109 54.038Z" fill="#1D2A30"/>
<path d="M160.897 49.3338C160.902 49.3354 160.892 49.3844 160.869 49.4788C160.841 49.5884 160.805 49.7252 160.761 49.8934C160.654 50.2753 160.507 50.8007 160.322 51.4596C159.927 52.8269 159.371 54.7446 158.707 57.0399L158.641 56.9245C160.97 57.5026 163.778 57.9732 166.772 58.525C168.264 58.8023 169.704 59.1052 171.03 59.4352L170.982 59.4348C174.339 58.6758 177.247 58.0181 179.341 57.5442C180.363 57.3213 181.186 57.1421 181.775 57.0135C182.045 56.9583 182.261 56.9142 182.428 56.8804C182.577 56.852 182.655 56.84 182.657 56.8462C182.658 56.852 182.582 56.8759 182.436 56.9154C182.272 56.9579 182.058 57.0131 181.791 57.0823C181.205 57.2249 180.387 57.4243 179.37 57.672C177.281 58.164 174.378 58.8476 171.028 59.6363L171.005 59.6421L170.98 59.6359C169.658 59.312 168.222 59.0129 166.733 58.7359C163.743 58.185 160.93 57.7025 158.596 57.1033L158.502 57.0794L158.53 56.9875C159.225 54.701 159.805 52.791 160.219 51.4291C160.424 50.7764 160.588 50.256 160.707 49.8773C160.761 49.712 160.806 49.5781 160.842 49.4706C160.874 49.3791 160.893 49.3325 160.897 49.3338Z" fill="#1D2A30"/>
<path d="M45.6276 144.521L44.4375 166.572L52.4255 168.502L54.0161 146.961L45.6276 144.521Z" fill="#BE5444"/>
<path d="M44.2001 166.385L42.8398 172.368H52.0319L52.4254 168.473L44.2001 166.385Z" fill="#F03658"/>
<path d="M52.2205 171.499C52.2205 171.533 51.7087 171.568 50.8813 171.576C50.0534 171.585 48.9107 171.563 47.6506 171.517C46.4359 171.465 45.3373 171.419 44.4254 171.38C43.6004 171.34 43.0898 171.308 43.0898 171.272C43.0898 171.238 43.6016 171.206 44.4291 171.2C45.2565 171.192 46.3996 171.216 47.6597 171.262C48.8741 171.312 49.9726 171.358 50.8846 171.396C51.7091 171.434 52.2205 171.463 52.2205 171.499Z" fill="#1D2A30"/>
<path d="M48.3274 167.551C48.3974 167.556 48.3962 168.423 48.3245 169.488C48.2528 170.554 48.1374 171.414 48.0674 171.409C47.9973 171.404 47.9985 170.537 48.0702 169.471C48.1419 168.406 48.2573 167.546 48.3274 167.551Z" fill="#1D2A30"/>
<path d="M52.0352 172.338L52.1172 171.526L52.0352 172.338Z" fill="white"/>
<path d="M42.8398 172.344V172.265L43.0055 171.272L43.0887 171.274L42.8456 172.344C42.8423 172.344 42.8431 172.344 42.8398 172.344Z" fill="white"/>
<path d="M42.8398 172.368V172.344C42.8431 172.344 42.8423 172.344 42.8456 172.344L42.8398 172.368Z" fill="#A5ADAD"/>
<path d="M52.0319 172.368H42.8398L42.8456 172.344L43.0887 171.274H43.0896C43.1085 171.31 43.6154 171.341 44.4247 171.38C45.3366 171.419 46.4352 171.465 47.6499 171.517C48.7267 171.556 49.7177 171.578 50.4994 171.578C50.6329 171.578 50.7598 171.578 50.8806 171.576C51.49 171.57 51.9285 171.55 52.1168 171.526L52.0348 172.338L52.0319 172.368Z" fill="#F9A8BF"/>
<path d="M50.4997 171.578C49.718 171.578 48.727 171.556 47.6502 171.517C46.4354 171.465 45.3369 171.419 44.425 171.38C43.6156 171.341 43.1088 171.31 43.0898 171.274L48.0528 171.398C48.0569 171.405 48.0611 171.409 48.0656 171.409H48.066C48.0705 171.409 48.0755 171.406 48.0804 171.399L52.1199 171.499L52.117 171.526C51.9287 171.55 51.4903 171.57 50.8808 171.577C50.7601 171.578 50.6332 171.578 50.4997 171.578Z" fill="#A5ADAD"/>
<path d="M48.0659 171.409H48.0655C48.061 171.409 48.0569 171.405 48.0527 171.398L48.0803 171.398C48.0754 171.406 48.0705 171.409 48.0659 171.409Z" fill="#A5ADAD"/>
<path d="M75.957 155.242L77.8958 169.853L84.9661 169.361L83.4798 155.966L75.957 155.242Z" fill="#BE5444"/>
<path d="M85.0407 167.776C85.0407 167.776 92.9837 170.46 93.1152 171.908L77.9255 172.351L77.7891 168.38L78.3511 168.491C80.6018 168.938 82.9354 168.688 85.0407 167.776Z" fill="#F03658"/>
<path d="M79.7286 170.223C79.4752 170.223 79.2226 170.042 79.1575 169.792C79.0858 169.516 79.2502 169.204 79.5102 169.092C79.5708 169.058 79.6388 169.042 79.7092 169.042C79.9474 169.042 80.212 169.219 80.2964 169.438C80.406 169.722 80.1613 170.119 79.8679 170.204C79.8222 170.216 79.7756 170.223 79.7286 170.223Z" fill="#F9A8BF"/>
<path d="M78.7812 172.326L93.1134 171.908C93.0945 171.699 92.9128 171.464 92.6157 171.215C92.8097 171.321 93.1588 171.56 93.1134 171.908L78.7812 172.326Z" fill="white"/>
<path d="M77.9258 172.351L77.9315 171.119L92.4933 171.155C92.4933 171.155 92.5444 171.175 92.6177 171.215C92.9148 171.464 93.0965 171.699 93.1155 171.908L78.7833 172.326L77.9258 172.351Z" fill="#F9A8BF"/>
<path d="M85.2823 167.691C85.2819 167.765 84.9123 167.81 84.5542 168.058C84.1895 168.298 84.0107 168.625 83.9419 168.598C83.8731 168.586 83.9707 168.139 84.4096 167.845C84.8451 167.547 85.2963 167.623 85.2823 167.691Z" fill="#1D2A30"/>
<path d="M86.8945 168.303C86.9134 168.375 86.5957 168.51 86.3534 168.831C86.1008 169.145 86.0472 169.486 85.9735 169.485C85.9038 169.499 85.84 169.066 86.1494 168.672C86.4552 168.277 86.8907 168.232 86.8945 168.303Z" fill="#1D2A30"/>
<path d="M87.8558 170.184C87.7887 170.202 87.6749 169.834 87.8534 169.422C88.0289 169.009 88.3742 168.838 88.4072 168.899C88.4509 168.959 88.2321 169.184 88.0907 169.524C87.9416 169.861 87.9292 170.174 87.8558 170.184Z" fill="#1D2A30"/>
<path d="M85.1175 167.653C85.1191 167.684 84.8274 167.738 84.3564 167.671C84.1223 167.638 83.8454 167.57 83.5533 167.45C83.4078 167.39 83.2582 167.318 83.1099 167.231C83.0386 167.188 82.9541 167.145 82.875 167.059C82.7905 166.984 82.7378 166.788 82.8293 166.665C82.9038 166.546 83.0398 166.492 83.1494 166.486C83.2611 166.479 83.3526 166.499 83.4358 166.517C83.6064 166.553 83.7663 166.605 83.9134 166.666C84.2076 166.789 84.4483 166.949 84.6284 167.106C84.9906 167.422 85.1187 167.695 85.0936 167.711C85.0606 167.736 84.8826 167.509 84.5163 167.25C84.3333 167.121 84.1009 166.989 83.8265 166.887C83.6893 166.837 83.5413 166.795 83.3856 166.765C83.2236 166.728 83.0868 166.731 83.0477 166.804C83.0332 166.831 83.032 166.842 83.067 166.888C83.1029 166.93 83.1692 166.971 83.2393 167.014C83.3765 167.097 83.5141 167.169 83.648 167.232C83.9171 167.355 84.173 167.438 84.3918 167.492C84.8303 167.601 85.1175 167.612 85.1175 167.653Z" fill="#1D2A30"/>
<path d="M85.0246 167.762C84.9986 167.774 84.8437 167.513 84.8025 167.033C84.7827 166.795 84.7992 166.506 84.8816 166.197C84.9241 166.044 84.983 165.885 85.0621 165.729C85.1466 165.577 85.2496 165.373 85.536 165.331C85.6864 165.322 85.8149 165.435 85.8599 165.534C85.9134 165.635 85.9258 165.723 85.9464 165.811C85.9794 165.988 85.981 166.162 85.9616 166.323C85.9233 166.648 85.7989 166.921 85.66 167.119C85.3744 167.521 85.0675 167.618 85.0605 167.594C85.0345 167.557 85.2892 167.406 85.5051 167.021C85.6118 166.832 85.7041 166.582 85.7251 166.3C85.7358 166.158 85.7292 166.009 85.6979 165.86C85.6695 165.7 85.6052 165.571 85.5455 165.589C85.47 165.591 85.3448 165.716 85.2867 165.846C85.2125 165.985 85.1544 166.126 85.1103 166.264C85.023 166.542 84.9892 166.805 84.985 167.028C84.9772 167.474 85.0646 167.749 85.0246 167.762Z" fill="#1D2A30"/>
<path d="M51.5347 81.282C51.5347 81.282 45.929 90.6483 45.929 96.2512L44.5469 164.492L53.4064 166.604L60.1651 99.9162C60.1651 99.9162 76.5338 166.777 77.0588 166.777C77.5841 166.777 85.6438 165.331 85.6438 165.331L73.421 81.582L51.5347 81.282Z" fill="#1D2A30"/>
<path d="M55.0255 98.0828C55.0297 98.0836 55.0239 98.1421 55.0086 98.255C54.9905 98.3803 54.9662 98.546 54.9357 98.7565C54.8636 99.2106 54.761 99.8563 54.6304 100.68C54.3563 102.35 53.976 104.768 53.526 107.759C52.6252 113.724 51.5015 122.009 50.5575 131.2C49.6204 140.384 49.041 148.722 48.7134 154.761C48.5486 157.781 48.4308 160.226 48.3607 161.915C48.322 162.749 48.2911 163.402 48.2701 163.861C48.2573 164.074 48.2474 164.241 48.24 164.367C48.2317 164.481 48.2256 164.539 48.2214 164.539C48.2173 164.538 48.2153 164.48 48.2148 164.366C48.2165 164.24 48.2181 164.072 48.2206 163.859C48.2313 163.4 48.2466 162.747 48.2659 161.912C48.3067 160.221 48.3982 157.774 48.5412 154.752C48.8247 148.708 49.3769 140.364 50.3148 131.175C51.258 121.991 52.4085 113.708 53.3554 107.732C53.8276 104.744 54.2335 102.33 54.5368 100.665C54.6868 99.8436 54.8042 99.2007 54.8871 98.7479C54.9279 98.5394 54.96 98.375 54.9843 98.2509C55.0074 98.1393 55.0214 98.082 55.0255 98.0828Z" fill="#365462"/>
<path d="M69.0462 99.2119C69.1125 99.2004 71.8153 114.177 75.0822 132.659C78.3499 151.147 80.9447 166.139 80.8779 166.152C80.812 166.163 78.1096 151.19 74.8419 132.702C71.575 114.22 68.9798 99.2239 69.0462 99.2119Z" fill="#365462"/>
<path d="M59.8506 99.8002C59.8436 99.8035 59.8119 99.7445 59.7579 99.6308C59.7043 99.5162 59.626 99.3469 59.5321 99.126C59.3549 98.6802 59.1027 98.0303 58.8744 97.2008C58.4088 95.5501 58.0359 93.1642 58.2415 90.5389C58.2856 89.8833 58.375 89.2479 58.4768 88.636C58.5885 88.0224 58.7442 87.4467 58.8992 86.9003C59.2103 85.8083 59.535 84.84 59.814 84.0299C60.0946 83.2197 60.3348 82.5691 60.5066 82.1216C60.5878 81.9184 60.6554 81.7495 60.7119 81.6089C60.7613 81.4927 60.7906 81.433 60.7976 81.4359C60.8046 81.4379 60.7889 81.503 60.7522 81.6238C60.7065 81.7676 60.6517 81.9411 60.5853 82.1496C60.4267 82.6379 60.2149 83.2885 59.9582 84.0776C59.6982 84.8927 59.3887 85.8644 59.0895 86.9535C58.9408 87.4978 58.79 88.0723 58.6836 88.6722C58.5864 89.2767 58.499 89.9064 58.4554 90.555C58.2522 93.1522 58.5963 95.5138 59.0211 97.1621C59.2288 97.9899 59.4575 98.6427 59.61 99.0959C59.7756 99.5443 59.8646 99.794 59.8506 99.8002Z" fill="#365462"/>
<path d="M62.3591 88.3394C62.3624 88.3427 62.3669 88.3872 62.3727 88.47C62.378 88.5689 62.3846 88.6876 62.392 88.831C62.4065 89.1664 62.4258 89.6172 62.4502 90.1784C62.4909 91.3491 62.5482 92.9785 62.617 94.9259L62.5598 94.8431C63.5982 95.2663 64.7487 95.7352 65.9696 96.2326L65.8761 96.2396C66.7538 95.7055 67.6855 95.1385 68.6448 94.5542C68.7054 94.5175 68.7659 94.4809 68.8249 94.4446L68.7738 94.5266C68.9827 92.2738 69.1788 90.1582 69.3482 88.3307L69.4421 88.4337C67.3558 88.414 65.6033 88.3975 64.3436 88.3855C63.7375 88.3752 63.2508 88.367 62.8902 88.3608C62.7349 88.3567 62.6067 88.353 62.5004 88.3501C62.411 88.3464 62.3628 88.3427 62.3591 88.3394C62.3517 88.3324 62.5227 88.3254 62.8503 88.318C63.2059 88.3118 63.6851 88.3035 64.2822 88.2928C65.5572 88.2813 67.3307 88.2648 69.4421 88.245L69.5452 88.2442L69.5361 88.348C69.3742 90.176 69.1871 92.2924 68.9876 94.546L68.9831 94.5999L68.9365 94.628C68.8772 94.6638 68.817 94.7009 68.7565 94.7376C67.7959 95.3198 66.8626 95.8852 65.9841 96.418L65.9391 96.4452L65.8905 96.4254C64.6729 95.9198 63.5252 95.4434 62.4897 95.0132L62.4337 94.9902L62.4328 94.9308C62.4024 92.9578 62.3772 91.3075 62.3595 90.1216C62.3554 89.5682 62.3521 89.1244 62.3496 88.7939C62.3496 88.4906 62.3521 88.3324 62.3591 88.3394Z" fill="#365462"/>
<path d="M49.5361 86.5372C49.5419 86.5455 49.5208 86.7054 49.478 86.9963C49.4298 87.3095 49.3659 87.7265 49.2864 88.2445C49.1108 89.3294 48.8673 90.8339 48.5764 92.6322L48.5405 92.5432C49.3263 93.1254 50.1954 93.7703 51.1164 94.4531L51.027 94.4362C52.0126 94.1618 53.0683 93.8684 54.1579 93.5651C54.2118 93.5503 54.265 93.5354 54.3177 93.521L54.2436 93.5939C54.8423 91.5525 55.4052 89.6348 55.891 87.9795L55.9603 88.0978C54.0697 87.6465 52.4803 87.2678 51.3344 86.9942C50.7871 86.8591 50.3462 86.7503 50.0166 86.6687C49.7096 86.5908 49.5419 86.5459 49.5361 86.5372C49.5307 86.529 49.6873 86.5574 49.9865 86.6184C50.3137 86.6864 50.7509 86.7775 51.294 86.8908C52.4605 87.1442 54.0779 87.4957 56.0023 87.914L56.0999 87.935L56.0719 88.0318C55.5935 89.69 55.0393 91.6102 54.4496 93.6541L54.4331 93.7118L54.375 93.7279C54.3227 93.7423 54.2687 93.7571 54.2151 93.7719C53.1252 94.0728 52.0687 94.3641 51.0822 94.6361L51.0327 94.6497L50.9923 94.6192C50.0763 93.9298 49.2118 93.2787 48.4305 92.6907L48.3848 92.6561L48.3947 92.6008C48.7284 90.7849 49.0078 89.266 49.2089 88.1699C49.3066 87.6643 49.3853 87.2571 49.4442 86.951C49.4994 86.6732 49.5307 86.5294 49.5361 86.5372Z" fill="#365462"/>
<path d="M67.4319 98.4761C67.4442 98.5342 65.7568 98.9496 63.6627 99.4041C61.5681 99.8594 59.8601 100.181 59.8477 100.123C59.835 100.065 61.5224 99.6497 63.6169 99.1943C65.7111 98.7398 67.4191 98.418 67.4319 98.4761Z" fill="#365462"/>
<path d="M56.417 98.7723C56.4162 98.799 56.0458 98.8168 55.4499 98.7718C54.854 98.7278 54.0344 98.614 53.146 98.41C52.2564 98.2077 51.4697 97.9498 50.9151 97.7293C50.3592 97.508 50.0341 97.3308 50.0452 97.3061C50.0584 97.2764 50.4029 97.4042 50.9662 97.5863C51.5295 97.7685 52.3136 98.0004 53.1938 98.2007C54.0736 98.4026 54.88 98.539 55.4664 98.621C56.0523 98.7038 56.4183 98.7401 56.417 98.7723Z" fill="#365462"/>
<path d="M55.4325 27.6821C55.7383 28.5648 54.6928 29.316 53.783 29.5249C52.8727 29.7334 51.7696 29.8644 51.353 30.6997C50.9912 31.4245 51.358 32.3447 51.0287 33.0847C50.4024 34.4924 47.8735 34.1981 47.3778 35.6573C47.0378 36.6586 47.9777 37.6909 47.8599 38.7416C47.7585 39.6469 46.9299 40.263 46.2026 40.811C45.4748 41.3595 44.71 42.1157 44.825 43.0193C44.9573 44.0627 46.231 44.7855 46.1144 45.8309C45.9994 46.8598 44.6115 47.3399 44.4117 48.3556C44.1752 49.5609 45.6842 50.336 46.1692 51.4651C46.5396 52.3272 46.3113 53.4377 46.9373 54.137C47.5785 54.8536 48.717 54.713 49.6578 54.514C52.7845 53.851 55.9113 53.188 59.0381 52.5249C58.4039 51.0423 59.0002 49.3071 59.9043 47.972C60.8079 46.6365 62.012 45.509 62.7884 44.0956C63.5647 42.6827 63.8198 40.7917 62.8032 39.5402" fill="#1D2A30"/>
<path d="M71.9307 35.1832C71.8772 35.1898 71.9245 34.5803 71.6233 33.7018C71.5413 33.4921 71.4338 33.2494 71.2479 33.0932C71.0633 32.9172 70.8219 33.0289 70.6694 33.2819C70.3653 33.7822 70.2631 34.4827 70.2557 35.1828C70.2631 35.8833 70.3653 36.5842 70.6694 37.0845C70.8223 37.3375 71.0633 37.4488 71.2479 37.2732C71.4338 37.117 71.5413 36.8739 71.6233 36.6646C71.9245 35.7856 71.8772 35.1766 71.9307 35.1832C71.9443 35.1828 71.9678 35.3299 71.9625 35.5977C71.9567 35.8643 71.932 36.2554 71.7865 36.721C71.7057 36.9493 71.6143 37.2114 71.3773 37.4286C71.264 37.5349 71.0621 37.6136 70.8787 37.5452C70.6991 37.4834 70.5775 37.3474 70.4823 37.2093C70.1222 36.6353 70.0233 35.9167 70.0117 35.1828C70.0233 34.4493 70.1222 33.7311 70.4823 33.1571C70.5775 33.019 70.6991 32.883 70.8787 32.8212C71.0621 32.7524 71.264 32.8315 71.3773 32.9378C71.6143 33.1546 71.7057 33.4167 71.7865 33.6449C71.932 34.111 71.9567 34.502 71.9625 34.7687C71.9678 35.0365 71.9443 35.1832 71.9307 35.1832Z" fill="#1D2A30"/>
<path d="M56.6269 43.8218C54.93 40.9546 54.4437 37.1347 54.0148 33.8303C53.8128 32.2756 53.4581 30.0611 54.5517 29.0882C55.7232 28.0465 55.8361 26.4399 57.1823 25.6355C58.5282 24.832 60.354 24.7648 61.6236 25.6854" fill="#1D2A30"/>
<path d="M61.3277 53.9789C63.9295 54.1866 66.1818 52.1897 66.2902 49.5817C66.3936 47.0772 66.4851 44.5454 66.4851 44.5454C66.4851 44.5454 70.2815 44.2009 70.5675 40.4453C70.8539 36.6901 70.7538 28.0186 70.7538 28.0186C66.5222 25.8708 61.4599 26.1811 57.5234 28.8299L57.7188 42.0503L57.6982 49.1627C57.7159 51.5481 58.9492 53.7894 61.3277 53.9789Z" fill="#BE5444"/>
<path d="M66.84 35.849C66.1943 35.0442 65.1418 34.7211 64.2748 35.2811C63.4078 35.8407 63.0716 37.0889 63.5393 38.0086C63.8698 38.6576 64.6243 39.2469 65.3779 39.4072C66.0871 39.558 66.5878 40.2441 66.5029 40.964C66.392 41.9064 64.8229 42.2558 64.1129 43.0342C63.0081 44.2449 60.5901 44.7513 58.9624 44.9392C57.362 45.1234 57.5548 45.1395 56.6281 43.8217C55.9535 42.8632 55.7442 41.9414 55.7232 40.7695C55.6741 38 55.6247 35.2305 55.5756 32.4609C55.5579 31.4625 55.5414 30.4513 55.7734 29.48C56.0058 28.5088 56.5172 27.566 57.3533 27.0196C58.2685 26.4208 59.426 26.3726 60.4677 26.0392C61.7699 25.6226 62.8775 24.7626 64.0964 24.1437C65.3153 23.5244 66.8087 23.1568 68.0288 23.7737C68.9044 24.2167 69.49 25.0935 70.3417 25.5814C71.554 26.2754 73.2073 26.1237 73.792 27.9109C73.9939 28.5285 73.9766 29.206 73.766 29.8208C72.9357 32.2483 69.9231 33.2196 67.7585 32.1626C67.7148 32.5743 68.1174 33.4915 67.6802 34.7904C67.5405 35.2053 67.4894 35.8391 66.84 35.849Z" fill="#1D2A30"/>
<path d="M66.1585 38.1917C66.1737 38.1975 66.1733 38.263 66.1062 38.3541C66.0411 38.4423 65.8981 38.5502 65.6871 38.5622C65.2664 38.5997 64.7323 38.146 64.7167 37.5225C64.6989 37.2188 64.8119 36.9213 64.9948 36.7285C65.1749 36.5327 65.3958 36.4314 65.5837 36.3918C65.971 36.3119 66.1931 36.4549 66.177 36.4796C66.1676 36.522 65.9463 36.4614 65.6356 36.5739C65.3298 36.6712 64.9487 37.0136 64.9849 37.5102C64.9965 38.0001 65.3879 38.3582 65.6887 38.3722C66.0031 38.392 66.1313 38.1682 66.1585 38.1917Z" fill="#AD402C"/>
<path d="M71.9382 35.0026C71.949 35.0694 70.8174 35.31 69.4106 35.5403C68.0038 35.7707 66.855 35.9034 66.8438 35.837C66.8331 35.7707 67.9642 35.53 69.3715 35.2997C70.7779 35.0694 71.9271 34.9363 71.9382 35.0026Z" fill="#1D2A30"/>
<path d="M56.9277 47.4867C57.1152 47.9651 57.7375 48.146 58.2332 48.0105C58.7289 47.8753 59.1241 47.5102 59.4949 47.1546C59.8662 46.7994 60.2548 46.4293 60.7464 46.2802C61.7486 45.9761 62.9745 46.6444 63.8171 46.0226C64.5844 45.4569 64.4843 44.1757 65.2375 43.591C65.6377 43.2807 66.1952 43.2412 66.6023 42.9403C67.3638 42.3775 67.2381 41.1211 66.5982 40.423C65.9587 39.725 64.9957 39.4423 64.0833 39.1897L56.0117 42.6297L56.9277 47.4867Z" fill="#1D2A30"/>
<path d="M66.516 32.9001C66.5185 32.9039 66.4958 32.9207 66.4488 32.9496C66.4023 32.9788 66.3326 33.0229 66.2358 33.0691C66.0442 33.1668 65.7487 33.2879 65.3519 33.388C64.9555 33.4902 64.4598 33.5636 63.8857 33.6209C63.3121 33.6831 62.657 33.7222 61.9589 33.887C61.2708 34.0494 60.5031 34.3428 59.9657 34.9762C59.421 35.6074 59.2178 36.5165 58.7963 37.395C58.5845 37.833 58.2808 38.2686 57.8568 38.5781C57.4397 38.8933 56.9498 39.1018 56.4516 39.2703C55.4593 39.6029 54.3678 39.8023 53.542 40.5028C53.1332 40.844 52.8645 41.3113 52.7965 41.8235C52.7195 42.3357 52.7829 42.8636 52.7957 43.391C52.8093 43.9135 52.7698 44.4756 52.4949 44.9392C52.2386 45.4077 51.8232 45.7406 51.4058 45.9895C50.5615 46.4865 49.6772 46.7498 48.9709 47.1998C48.6182 47.4211 48.3136 47.686 48.1018 48.0013C47.8995 48.3218 47.7887 48.677 47.7726 49.0298C47.7339 49.7361 47.9193 50.3768 48.0351 50.9389C48.1587 51.5051 48.2082 52.0107 48.1694 52.4215C48.1344 52.8332 48.0128 53.1402 47.9003 53.3244C47.787 53.5094 47.6964 53.5819 47.6964 53.5819C47.663 53.5712 48.0338 53.2279 48.0746 52.4149C48.0981 52.0161 48.0367 51.5249 47.902 50.9694C47.7755 50.4119 47.5719 49.7703 47.6003 49.0195C47.6115 48.6453 47.7256 48.2522 47.9436 47.8995C48.1698 47.5517 48.4962 47.2637 48.8625 47.0292C49.5956 46.5532 50.4832 46.2809 51.2896 45.7971C51.6885 45.5556 52.0647 45.2453 52.2901 44.8267C52.5336 44.415 52.5711 43.9082 52.5563 43.3976C52.5439 42.8842 52.4747 42.3452 52.5563 41.7868C52.6276 41.2256 52.9387 40.6841 53.3829 40.3174C54.2783 39.5633 55.4091 39.3688 56.375 39.0441C56.8628 38.8805 57.3293 38.6823 57.7162 38.3918C58.1094 38.1075 58.3867 37.7152 58.5948 37.2949C59.0081 36.4571 59.2199 35.523 59.812 34.8443C60.4013 34.1664 61.2143 33.8751 61.9206 33.7189C62.6392 33.5611 63.3014 33.5339 63.873 33.4853C64.4466 33.4404 64.9369 33.3819 65.3301 33.2957C66.12 33.1255 66.5049 32.875 66.516 32.9001Z" fill="#365462"/>
<path d="M64.3426 34.2465C64.3426 34.2728 64.0529 34.246 63.5564 34.3594C63.066 34.4686 62.3585 34.7739 61.7462 35.441C61.4412 35.7711 61.1783 36.2009 61.0254 36.7024C60.8672 37.2026 60.8759 37.7812 60.8783 38.3886C60.8738 38.9914 60.9031 39.6701 60.599 40.3162C60.4485 40.6339 60.1947 40.915 59.8943 41.1086C59.5976 41.3093 59.2721 41.449 58.9634 41.6064C58.6556 41.7622 58.3606 41.9328 58.1611 42.1772C57.9518 42.4149 57.8694 42.7252 57.8455 43.0417C57.8014 43.668 57.9382 44.3661 57.6296 44.966C57.3387 45.5512 56.8384 45.9253 56.374 46.2105C55.9001 46.4928 55.4411 46.7004 55.0513 46.9353C54.661 47.1681 54.3363 47.4228 54.1204 47.7063C53.8987 47.9865 53.7771 48.2758 53.7194 48.5193C53.6144 49.0167 53.7627 49.2932 53.733 49.2973C53.7285 49.2998 53.6877 49.238 53.6506 49.1044C53.6127 48.9722 53.5843 48.7637 53.6263 48.5008C53.6725 48.2403 53.7879 47.9284 54.0112 47.6243C54.2304 47.3148 54.5663 47.0367 54.9606 46.7886C55.3554 46.5381 55.8144 46.3189 56.2681 46.0382C56.7127 45.7564 57.1759 45.3909 57.4268 44.8684C57.6951 44.3483 57.569 43.7059 57.6069 43.0239C57.6288 42.6844 57.7256 42.3053 57.9741 42.0218C58.2118 41.7325 58.5382 41.5492 58.853 41.3889C59.4872 41.0823 60.1234 40.7984 60.3847 40.2107C60.6579 39.6437 60.6455 38.9906 60.6533 38.3882C60.6579 37.7824 60.6538 37.1816 60.8322 36.6431C61.004 36.1098 61.2916 35.6623 61.6196 35.3236C62.2785 34.64 63.026 34.3503 63.537 34.2666C63.7937 34.2176 63.9989 34.2143 64.1349 34.2217C64.2717 34.23 64.343 34.2382 64.3426 34.2465Z" fill="#365462"/>
<path d="M67.407 48.0541L66.43 46.044L57.9447 45.7238L56.6133 48.3339H67.269" fill="#F03658"/>
<path d="M96.5695 66.2024C96.5085 65.8975 98.8141 53.9161 99.4499 50.6262C99.5327 50.1964 99.2035 49.7979 98.7654 49.7979H81.7762C81.4536 49.7979 81.1729 50.0196 81.0984 50.3336L77.6193 65L69.0449 65.6399L69.3461 66.2024H96.5695Z" fill="#365462"/>
<path d="M95.8271 65.1394L98.576 50.614L81.8749 50.7149L78.207 65.16L95.8271 65.1394Z" fill="#EEEEEE"/>
<path d="M81.8826 50.7251L78.2197 65.1496L95.8184 65.129L98.5632 50.6245L81.8826 50.7251ZM78.1934 65.1702L78.1967 65.1574L81.8666 50.7045H81.8744L98.5883 50.6035L98.5859 50.6159L95.8353 65.1496H95.8266L78.1934 65.1702Z" fill="#1D2A30"/>
<path d="M95.8094 65.24C95.8094 65.2993 90.9223 65.3475 84.8954 65.3475C78.8664 65.3475 73.9805 65.2993 73.9805 65.24C73.9805 65.1807 78.8664 65.1328 84.8954 65.1328C90.9223 65.1328 95.8094 65.1807 95.8094 65.24Z" fill="#1D2A30"/>
<path d="M94.6572 61.5726C94.6572 61.58 94.5822 61.587 94.4392 61.594C94.2715 61.5993 94.0646 61.6063 93.8133 61.6142C93.2384 61.6228 92.4596 61.6344 91.5115 61.6484C89.5681 61.6677 86.8831 61.6797 83.9178 61.6797C83.076 61.6789 82.2576 61.6776 81.4809 61.6768H81.3457L81.3795 61.547C81.9704 59.26 82.4871 57.2611 82.8654 55.7978C83.0525 55.1059 83.2054 54.5418 83.3195 54.1199C83.4295 53.7284 83.4955 53.517 83.5078 53.5199C83.5202 53.5232 83.4782 53.7408 83.39 54.1376C83.2907 54.5633 83.158 55.1323 82.9956 55.8304C82.6359 57.2986 82.1443 59.3037 81.5818 61.5977L81.4809 61.4679C82.2576 61.4671 83.076 61.4662 83.9178 61.465C86.8831 61.465 89.5681 61.4774 91.5115 61.4967C92.4596 61.5107 93.2384 61.5223 93.8133 61.5305C94.0651 61.5388 94.2715 61.5454 94.4392 61.5507C94.5822 61.5577 94.6572 61.5651 94.6572 61.5726Z" fill="#365462"/>
<path d="M82.5586 61.0211L82.8709 59.6205H85.0203L84.7459 61.0211H82.5586Z" fill="#F03658"/>
<path d="M85.4805 61.0211L86.1295 58.264H88.2788L87.6673 61.0211H85.4805Z" fill="#F03658"/>
<path d="M88.4062 61.0211L88.7186 59.6205H90.868L90.5931 61.0211H88.4062Z" fill="#F03658"/>
<path d="M91.3281 61.0211L92.559 55.6642H94.7083L93.515 61.0211H91.3281Z" fill="#F03658"/>
<path d="M84.247 62.5869C84.2437 62.6463 83.8547 62.6904 83.3783 62.6863C82.902 62.6817 82.5138 62.6298 82.5117 62.5705C82.5097 62.5115 82.8983 62.467 83.3804 62.4716C83.8621 62.4761 84.2503 62.5276 84.247 62.5869Z" fill="#365462"/>
<path d="M87.0786 62.5825C87.0757 62.6418 86.6867 62.6863 86.2103 62.6818C85.7336 62.6773 85.3458 62.6254 85.3438 62.5664C85.3413 62.5071 85.7303 62.4626 86.2124 62.4671C86.6941 62.4717 87.0819 62.5236 87.0786 62.5825Z" fill="#365462"/>
<path d="M89.913 62.578C89.9097 62.6373 89.5211 62.6818 89.0443 62.6773C88.568 62.6728 88.1802 62.6208 88.1777 62.5619C88.1757 62.5026 88.5647 62.4581 89.0464 62.4626C89.5281 62.4671 89.9163 62.5191 89.913 62.578Z" fill="#365462"/>
<path d="M92.747 62.5735C92.7437 62.6328 92.3547 62.6773 91.8783 62.6728C91.402 62.6682 91.0138 62.6167 91.0117 62.5574C91.0097 62.4981 91.3987 62.4536 91.8804 62.4581C92.3621 62.4626 92.7503 62.5145 92.747 62.5735Z" fill="#365462"/>
<path d="M88.5796 52.8899C88.5796 52.9493 87.5029 52.9971 86.1748 52.9971C84.8459 52.9971 83.7695 52.9493 83.7695 52.8899C83.7695 52.8306 84.8459 52.7824 86.1748 52.7824C87.5029 52.7824 88.5796 52.8306 88.5796 52.8899Z" fill="#365462"/>
<path d="M86.0504 52.2948C86.0504 52.3541 85.5732 52.4023 84.9844 52.4023C84.3956 52.4023 83.918 52.3541 83.918 52.2948C83.918 52.2359 84.3956 52.1877 84.9844 52.1877C85.5732 52.1877 86.0504 52.2359 86.0504 52.2948Z" fill="#365462"/>
<path d="M81.4415 75.0356L91.2731 67.9192L90.9076 67.3242C90.3702 66.4498 89.5638 65.7731 88.6099 65.3961L87.072 65.6722L77.957 67.0609L81.4415 75.0356Z" fill="#F03658"/>
<path d="M46.4901 73.3997L54.6585 70.1542L52.8351 63.3884L46.1777 65.6515L46.4901 73.3997Z" fill="#F03658"/>
<path d="M81.104 75.2263C83.1392 74.2151 83.6622 71.7863 82.6682 69.7425L74.2043 51.6538C74.0098 51.2072 73.7206 50.8062 73.3526 50.4864C70.0247 47.597 66.3515 48.089 66.3515 48.089L57.5246 47.8579C57.5246 47.8579 50.5907 47.8579 47.9893 53.3227C47.7989 53.7228 43.7681 61.717 41.111 66.9845C39.8839 69.4169 41.0521 72.3748 43.6098 73.3139C45.8568 74.1388 48.3585 73.0852 49.3384 70.9012L52.2258 64.4655L54.0434 73.6843L51.4264 81.2821L73.3126 81.582L71.6297 71.4188L71.0982 64.1721L75.537 73.325C76.5416 75.3965 79.0424 76.2503 81.104 75.2263Z" fill="#F03658"/>
<path d="M57.7841 74.3442C56.6843 74.3442 55.6306 74.1427 54.7826 73.5081C54.488 73.2873 54.8176 73.1249 54.8176 73.1249C55.2894 73.2176 55.767 73.2621 56.2454 73.2621C59.1167 73.2621 61.9823 71.6472 63.3623 69.1122C63.8716 68.1768 64.3813 66.9909 65.4391 66.8639C65.4915 66.8578 65.5434 66.8545 65.5949 66.8545C66.452 66.8545 67.1847 67.6988 67.2613 68.572C67.3421 69.4975 66.8657 70.3875 66.2682 71.0996C64.9376 72.6848 62.9638 73.6561 60.9216 73.9952C59.9248 74.1613 58.8337 74.3446 57.7841 74.3442Z" fill="#D82B43"/>
<path d="M71.7125 71.9215L71.6292 71.4188L71.2464 66.2024H71.2588L71.7125 71.9215ZM71.1933 65.4796L71.0977 64.1721L71.2011 65.4788L71.1933 65.4796Z" fill="#CECDCC"/>
<path d="M71.2569 66.2024H71.2446L71.1914 65.4796L71.1992 65.4788L71.2569 66.2024Z" fill="#2A414C"/>
<path d="M71.7848 72.8649C70.3925 71.3423 69.8737 69.2349 69.4468 67.2162C68.5781 63.112 68.8089 63.4285 68.293 59.2649L71.0954 64.1723L71.1911 65.4798L71.2442 66.2025L71.627 71.4189L71.7103 71.9216L71.7848 72.8649Z" fill="#D82B43"/>
<path d="M51.428 81.2821L50.8008 79.4545L52.4313 78.3683L72.5078 76.713L73.9237 79.3725L73.3142 81.582L51.428 81.2821Z" fill="#F03658"/>
<path d="M55.5718 46.8364C54.7369 47.1607 54.0653 47.8798 53.7982 48.7352C53.5312 49.5903 53.675 50.564 54.1774 51.3057C54.3512 51.5629 54.5762 51.8249 54.5602 52.1352C54.5214 52.8761 53.3231 52.8963 52.9453 53.5354C52.6931 53.9628 52.9094 54.5318 53.2663 54.8767C53.6231 55.2216 54.0933 55.4202 54.5016 55.7025C54.9096 55.9844 55.2809 56.4133 55.2599 56.9091C55.6785 56.8975 55.9262 56.3907 55.8623 55.9765C55.798 55.5624 55.5347 55.2117 55.3472 54.8368C55.1597 54.4622 55.0546 53.985 55.2953 53.6422C55.5693 53.2528 56.1277 53.2367 56.5715 53.0644C57.4331 52.7303 57.8913 51.616 57.5143 50.7725C57.2452 50.1701 56.618 49.561 56.9234 48.9763C57.0936 48.6499 57.4846 48.5251 57.8069 48.3471C58.4695 47.9807 58.9273 47.2687 58.9866 46.5142C59.0451 45.7593 58.7031 44.9846 58.1052 44.5202" fill="#1D2A30"/>
<path d="M52.1716 65.3474C52.1975 65.3602 52.0306 65.7545 51.7265 66.3751C51.4224 66.9957 50.977 67.8412 50.4392 68.749C49.9011 69.6576 49.3736 70.4546 48.9764 71.0199C48.5779 71.5849 48.3125 71.9203 48.289 71.9042C48.2639 71.8869 48.4848 71.5214 48.8495 70.9363C49.2141 70.3507 49.7189 69.5439 50.2546 68.6398C50.7895 67.7362 51.2543 66.9054 51.5922 66.3046C51.9301 65.7034 52.1448 65.3334 52.1716 65.3474Z" fill="#1D2A30"/>
<path d="M50.2452 68.8195C50.2992 68.8133 50.3709 69.518 50.1059 70.3339C49.8471 71.1522 49.3799 71.6838 49.3391 71.6471C49.2863 71.6105 49.6564 71.0476 49.9015 70.2684C50.1545 69.492 50.1809 68.8187 50.2452 68.8195Z" fill="#1D2A30"/>
<path d="M82.3094 69.0923C82.2555 69.117 80.5433 65.5345 78.4859 61.0907C76.4276 56.6457 74.8032 53.0232 74.8568 52.9981C74.9107 52.9734 76.6221 56.5555 78.6803 61.0005C80.7382 65.4442 82.363 69.0671 82.3094 69.0923Z" fill="#1D2A30"/>
<path d="M71.8829 50.6139C71.8956 50.6481 71.5137 50.7828 70.9685 51.1228C70.425 51.4582 69.7269 52.0318 69.1912 52.8477C68.6555 53.6636 68.4071 54.5327 68.3156 55.1648C68.2204 55.8002 68.2488 56.204 68.2122 56.2057C68.1899 56.209 68.1067 55.8051 68.1648 55.1462C68.2196 54.4927 68.4536 53.58 69.012 52.7299C69.5699 51.8798 70.3137 51.302 70.8918 50.9918C71.4729 50.6765 71.8771 50.592 71.8829 50.6139Z" fill="#1D2A30"/>
<path d="M54.0167 73.7746C53.959 73.7874 52.9746 69.5938 51.8183 64.4091C50.6616 59.2224 49.7711 55.0086 49.8288 54.9958C49.8869 54.983 50.8709 59.1758 52.0276 64.3626C53.1839 69.5472 54.0744 73.7619 54.0167 73.7746Z" fill="#1D2A30"/>
<path d="M91.2744 67.9189L95.2653 66.2023H89.9492L91.1104 67.7071" fill="#BE5444"/>
<path d="M83.0762 68.3629C83.0276 68.4004 82.6307 67.9586 82.1082 67.453C81.587 66.945 81.1341 66.5617 81.17 66.5119C81.2029 66.4653 81.7238 66.7785 82.2578 67.2989C82.7931 67.8173 83.1219 68.3287 83.0762 68.3629Z" fill="#1D2A30"/>
<path d="M75.7177 73.6616C75.7045 73.6682 75.5854 73.4708 75.3818 73.1065C75.177 72.7431 74.8915 72.2115 74.5453 71.5514C73.8526 70.2311 72.9313 68.3892 71.9233 66.3515C70.9146 64.313 69.9903 62.4747 69.305 61.152C68.9762 60.5166 68.703 59.9895 68.4937 59.5857C68.3025 59.2153 68.2032 59.0068 68.2159 58.9997C68.2291 58.9923 68.3532 59.1868 68.5666 59.5453C68.7813 59.903 69.0796 60.4276 69.439 61.0807C70.1593 62.387 71.1066 64.217 72.1154 66.2563C73.1089 68.2804 74.008 70.1116 74.6805 71.4826C74.9953 72.1258 75.2557 72.6594 75.4556 73.0682C75.6369 73.4436 75.7308 73.6546 75.7177 73.6616Z" fill="#1D2A30"/>
<path d="M67.8309 68.0641C67.8383 68.0653 67.8358 68.1144 67.8247 68.2079C67.8095 68.3002 67.8025 68.4407 67.7559 68.6138C67.6838 68.9645 67.5181 69.4623 67.2111 70.0276C66.6099 71.1616 65.309 72.4926 63.5161 73.3069C61.7232 74.1149 59.948 74.3614 58.6916 74.5109C58.0591 74.5822 57.5461 74.6238 57.1917 74.6473C56.8369 74.6708 56.6403 74.6758 56.6387 74.6613C56.637 74.6465 56.8311 74.6131 57.183 74.5641C57.5766 74.5101 58.076 74.4421 58.6718 74.3605C59.9196 74.1734 61.6713 73.904 63.4267 73.1115C65.178 72.3154 66.4591 71.0397 67.0793 69.9522C67.7184 68.8623 67.7798 68.0489 67.8309 68.0641Z" fill="#1D2A30"/>
<path d="M63.4272 78.6808C63.4313 78.7397 60.7166 78.9783 57.364 79.2132C54.0102 79.4485 51.2893 79.5911 51.2852 79.5317C51.281 79.4728 53.9953 79.2346 57.3488 78.9993C60.7014 78.764 63.4231 78.6215 63.4272 78.6808Z" fill="#1D2A30"/>
<path d="M66.9289 77.0531C66.9833 77.0391 67.2486 77.9489 67.369 79.1077C67.4926 80.2664 67.4225 81.2113 67.3661 81.2092C67.3043 81.2084 67.2779 80.2734 67.1555 79.1303C67.0372 77.9868 66.8679 77.0667 66.9289 77.0531Z" fill="#1D2A30"/>
<path d="M68.3355 75.7431C68.3618 75.7382 68.4479 76.0518 68.518 76.5722C68.5881 77.0918 68.6301 77.8196 68.5749 78.6198C68.518 79.4204 68.375 80.1354 68.2329 80.6402C68.0915 81.1458 67.9625 81.4437 67.937 81.4359C67.8723 81.4169 68.2563 80.182 68.3606 78.6046C68.4768 77.0292 68.2691 75.7522 68.3355 75.7431Z" fill="#1D2A30"/>
<path d="M67.4281 48.1977C67.4248 48.2571 65.4646 48.1949 63.0499 48.0593C60.6348 47.9233 58.6799 47.7655 58.6836 47.7061C58.6865 47.6472 60.6467 47.709 63.0623 47.845C65.4766 47.9806 67.4314 48.1384 67.4281 48.1977Z" fill="#1D2A30"/>
</svg>
