<svg width="174" height="184" viewBox="0 0 174 184" fill="none" xmlns="http://www.w3.org/2000/svg">
<g clip-path="url(#clip0_2683_9488)">
<path d="M98.4397 130.043H13.374C11.7554 130.043 10.4434 128.731 10.4434 127.112V8.47517C10.4434 6.85674 11.7554 5.54449 13.374 5.54449H98.4397C100.058 5.54449 101.37 6.85674 101.37 8.47517V127.112C101.37 128.731 100.058 130.043 98.4397 130.043Z" fill="#F3F2F1"/>
<path d="M167.488 12.9599L167.659 13.8243L165.946 23.0887C164.718 23.9897 163.172 24.3435 161.674 24.0666L151.984 22.2756C151.984 22.2756 150.444 21.9315 150.873 19.932C150.873 19.932 150.949 18.8771 151.853 18.8066C151.853 18.8066 149.975 18.0436 150.183 16.597C150.391 15.1508 151.457 15.1696 151.457 15.1696C151.457 15.1696 149.697 14.7254 149.88 13.0959C150.062 11.4669 151.013 11.4645 151.013 11.4645C151.013 11.4645 148.967 10.9673 149.479 9.16121C149.991 7.35508 151.75 7.7993 151.75 7.7993L158.642 9.07165L164.683 10.1885C166.098 10.4503 167.21 11.5484 167.488 12.9599Z" fill="#E7E8E5"/>
<path d="M165.783 10.5902C165.783 10.5902 163.661 8.67007 162.914 6.58179C162.372 5.06556 162.41 3.35674 162.41 3.35674C162.425 3.2745 162.549 2.54448 162.651 1.9476C162.734 1.4582 162.416 0.995269 161.931 0.888188C160.911 0.663847 159.117 1.24932 158.577 3.11001C157.772 5.88597 158.461 7.77801 158.484 8.62326C158.507 9.4685 158.507 9.46849 158.507 9.46849L165.783 10.5902Z" fill="#E7E8E5"/>
<path d="M164.451 24.4732L171.219 25.7244L173.761 11.9736L166.993 10.7225L164.451 24.4732Z" fill="#E7E8E5"/>
<path d="M164.451 24.4731C164.437 24.4707 164.994 21.3898 165.696 17.5935C166.398 13.7956 166.979 10.72 166.993 10.7224C167.008 10.7253 166.451 13.805 165.749 17.6033C165.047 21.4 164.466 24.476 164.451 24.4731Z" fill="#DADBD8"/>
<path d="M171.219 25.7244C171.204 25.7215 171.761 22.641 172.463 18.8443C173.165 15.0464 173.746 11.9708 173.761 11.9736C173.776 11.9761 173.218 15.0562 172.516 18.8541C171.815 22.6508 171.234 25.7272 171.219 25.7244Z" fill="#DADBD8"/>
<path d="M168.799 14.312C168.67 15.0115 169.132 15.6833 169.831 15.8124C170.531 15.9418 171.202 15.4797 171.332 14.7802C171.461 14.0807 170.999 13.409 170.299 13.2795C169.6 13.1504 168.928 13.6125 168.799 14.312Z" fill="white"/>
<path d="M157.057 8.77914C157.059 8.76448 157.799 8.88865 158.709 9.05681C159.62 9.22537 160.355 9.37358 160.353 9.38823C160.35 9.40289 159.61 9.2783 158.7 9.11014C157.79 8.94199 157.054 8.79379 157.057 8.77914Z" fill="#DADBD8"/>
<path d="M151.307 15.2095C151.31 15.1949 151.783 15.2702 152.365 15.3777C152.947 15.4852 153.416 15.5841 153.414 15.5988C153.411 15.6134 152.937 15.5381 152.355 15.4306C151.773 15.3231 151.304 15.2242 151.307 15.2095Z" fill="#DADBD8"/>
<path d="M150.887 11.4062C150.889 11.3916 151.561 11.5036 152.387 11.6562C153.212 11.8089 153.88 11.9445 153.877 11.9592C153.874 11.9738 153.203 11.8618 152.377 11.7092C151.551 11.5565 150.884 11.4209 150.887 11.4062Z" fill="#DADBD8"/>
<path d="M151.426 18.7457C151.429 18.7311 152.1 18.843 152.926 18.9957C153.752 19.1484 154.419 19.284 154.416 19.2986C154.413 19.3133 153.742 19.2013 152.916 19.0486C152.091 18.896 151.423 18.7604 151.426 18.7457Z" fill="#DADBD8"/>
<path d="M168.518 11.4071C168.52 11.3925 169.468 11.5553 170.634 11.7711C171.801 11.9865 172.745 12.1734 172.742 12.188C172.739 12.2027 171.791 12.0398 170.625 11.8241C169.459 11.6087 168.515 11.4218 168.518 11.4071Z" fill="white"/>
<path d="M150.526 13.7907C150.522 13.792 150.511 13.7643 150.495 13.713C150.478 13.6621 150.462 13.5855 150.45 13.4898C150.437 13.3942 150.436 13.2785 150.447 13.1511C150.46 13.0241 150.487 12.8856 150.535 12.7456C150.584 12.6063 150.649 12.4805 150.717 12.3726C150.788 12.2659 150.861 12.1764 150.93 12.1092C150.999 12.0416 151.059 11.9915 151.104 11.9622C151.149 11.9321 151.174 11.917 151.176 11.9199C151.182 11.928 151.085 11.9964 150.958 12.1357C150.893 12.2045 150.826 12.2944 150.759 12.3991C150.695 12.5058 150.634 12.6279 150.586 12.7635C150.54 12.8991 150.512 13.033 150.496 13.1564C150.483 13.2802 150.48 13.3925 150.488 13.4862C150.502 13.6743 150.535 13.7883 150.526 13.7907Z" fill="white"/>
<path d="M150.17 10.1226C150.166 10.1263 150.102 10.0689 150.035 9.94837C149.968 9.82907 149.909 9.64261 149.912 9.43129C149.916 9.22039 149.983 9.03595 150.054 8.91909C150.126 8.80143 150.192 8.74647 150.195 8.75013C150.203 8.75624 150.148 8.81974 150.088 8.9374C150.027 9.05466 149.97 9.23097 149.966 9.43251C149.963 9.63364 150.013 9.81197 150.069 9.93127C150.125 10.051 150.177 10.1165 150.17 10.1226Z" fill="white"/>
<path d="M151.032 17.7365C151.03 17.741 150.942 17.6926 150.844 17.5672C150.746 17.445 150.646 17.2353 150.648 16.9894C150.653 16.7435 150.759 16.5367 150.86 16.4174C150.962 16.2952 151.051 16.2488 151.053 16.2533C151.059 16.261 150.98 16.3176 150.89 16.4406C150.8 16.5615 150.706 16.759 150.703 16.9902C150.7 17.2215 150.788 17.4214 150.874 17.5448C150.961 17.6706 151.038 17.7292 151.032 17.7365Z" fill="white"/>
<path d="M151.805 21.2561C151.8 21.2597 151.739 21.1966 151.674 21.0712C151.609 20.9471 151.55 20.7561 151.549 20.5395C151.548 20.3229 151.606 20.1315 151.671 20.0069C151.734 19.8811 151.796 19.8176 151.8 19.8213C151.807 19.8266 151.758 19.897 151.705 20.0228C151.652 20.1478 151.603 20.3318 151.603 20.5395C151.604 20.7467 151.654 20.9308 151.709 21.0554C151.763 21.1803 151.812 21.2508 151.805 21.2561Z" fill="white"/>
<path d="M158.652 6.32518C158.648 6.3264 158.632 6.27184 158.605 6.17249C158.591 6.12241 158.575 6.06134 158.562 5.98928C158.548 5.91762 158.529 5.83578 158.517 5.74417C158.488 5.56217 158.469 5.34231 158.463 5.09801C158.461 4.85372 158.475 4.58499 158.514 4.30528C158.556 4.02638 158.62 3.76458 158.691 3.53088C158.766 3.29839 158.847 3.09321 158.928 2.92709C158.964 2.84199 159.006 2.76952 159.04 2.70478C159.073 2.63923 159.106 2.58507 159.134 2.54151C159.188 2.45397 159.219 2.40633 159.222 2.40837C159.226 2.4104 159.2 2.46172 159.152 2.5521C159.127 2.59689 159.097 2.65226 159.067 2.71862C159.036 2.78458 158.996 2.85746 158.962 2.94255C158.887 3.10949 158.81 3.31429 158.739 3.54555C158.671 3.77763 158.609 4.03699 158.568 4.31303C158.529 4.5899 158.514 4.85575 158.513 5.0976C158.516 5.33944 158.531 5.55728 158.555 5.73928C158.564 5.83048 158.58 5.9115 158.591 5.98357C158.602 6.05604 158.615 6.11752 158.625 6.1676C158.646 6.26817 158.656 6.32436 158.652 6.32518Z" fill="white"/>
<path d="M102.529 124.604H17.4639C15.8453 124.604 14.5332 123.292 14.5332 121.673V3.03622C14.5332 1.41738 15.8453 0.105148 17.4639 0.105148H102.529C104.148 0.105148 105.46 1.41738 105.46 3.03622V121.673C105.46 123.292 104.148 124.604 102.529 124.604Z" fill="white"/>
<path d="M102.531 124.604C102.525 124.58 102.919 124.65 103.601 124.388C103.935 124.255 104.338 124.025 104.694 123.622C105.056 123.231 105.356 122.65 105.427 121.947C105.448 119.115 105.421 114.929 105.421 109.543C105.413 98.7673 105.401 83.1778 105.387 63.9147C105.383 54.2823 105.379 43.7317 105.374 32.4056C105.373 26.7425 105.371 20.8852 105.369 14.8521C105.368 11.8355 105.367 8.77491 105.367 5.67282C105.366 4.8972 105.366 4.11871 105.366 3.3382C105.415 2.56543 105.203 1.79672 104.7 1.21328C104.211 0.629829 103.479 0.255653 102.714 0.211678C102.212 0.199463 101.699 0.201103 101.185 0.202736C100.904 0.203545 100.621 0.204361 100.34 0.202736C74.8696 0.205582 46.8678 0.208435 17.4759 0.211281C16.5883 0.208023 15.7118 0.642456 15.194 1.3623C14.9292 1.71571 14.7515 2.13303 14.683 2.56869C14.6151 2.99783 14.6502 3.46484 14.641 3.91962C14.641 5.74611 14.641 7.56689 14.6408 9.38156C14.6408 13.0109 14.6407 16.6167 14.6405 20.1959C14.6401 27.3541 14.6394 34.4076 14.639 41.3385C14.6367 55.2004 14.6346 68.5709 14.6327 81.3078C14.6292 94.0447 14.626 106.148 14.623 117.475C14.6227 118.891 14.6224 120.295 14.6221 121.686C14.6251 122.363 14.878 123.028 15.3168 123.533C15.7511 124.044 16.373 124.383 17.0282 124.482C17.2749 124.522 17.5316 124.52 17.7906 124.519C17.872 124.519 17.9537 124.518 18.0355 124.519C18.3755 124.519 18.7146 124.519 19.053 124.52C19.7298 124.52 20.4033 124.52 21.0737 124.52C22.4142 124.521 23.742 124.521 25.0563 124.522C30.314 124.525 35.3596 124.527 40.1758 124.529C59.4386 124.543 75.0268 124.555 85.8017 124.562C91.1867 124.571 95.3685 124.578 98.2064 124.582C99.6228 124.587 100.703 124.59 101.432 124.593C102.159 124.597 102.531 124.604 102.531 124.604C102.531 124.604 102.159 124.611 101.432 124.614C100.703 124.617 99.6228 124.621 98.2064 124.625C95.3685 124.63 91.1867 124.636 85.8017 124.645C75.0268 124.653 59.4386 124.665 40.1758 124.679C35.3596 124.681 30.314 124.683 25.0563 124.685C23.742 124.686 22.4142 124.687 21.0737 124.687C20.4033 124.687 19.7298 124.688 19.053 124.688C18.7146 124.688 18.3755 124.688 18.0355 124.688C17.9534 124.687 17.871 124.688 17.7881 124.689C17.5302 124.69 17.2684 124.692 17.0023 124.649C16.3075 124.546 15.6481 124.187 15.1873 123.646C14.7216 123.11 14.4525 122.404 14.4492 121.687C14.4486 120.295 14.4478 118.891 14.4471 117.475C14.4441 106.148 14.4408 94.0447 14.4374 81.3078C14.4354 68.5709 14.4333 55.2004 14.4312 41.3385C14.4307 34.4076 14.4301 27.3541 14.4296 20.1959C14.4295 16.6167 14.4293 13.0109 14.4291 9.38156C14.4291 7.56689 14.4291 5.74611 14.429 3.91962C14.4392 3.4628 14.4007 3.00964 14.4739 2.53368C14.5478 2.06545 14.739 1.61678 15.0233 1.2365C15.5794 0.463318 16.5236 -0.00491333 17.4759 -0.000839233C46.8678 0.00200653 74.8696 0.00485992 100.34 0.00770569C100.623 0.00892639 100.904 0.00852203 101.185 0.00770569C101.697 0.00608063 102.208 0.00485992 102.726 0.0178833C103.543 0.0651169 104.327 0.46534 104.848 1.08868C105.384 1.70308 105.611 2.55444 105.558 3.3382C105.558 4.11871 105.558 4.8972 105.557 5.67282C105.557 8.77491 105.556 11.8355 105.555 14.8521C105.553 20.8852 105.552 26.7425 105.55 32.4056C105.545 43.7317 105.541 54.2823 105.537 63.9147C105.523 83.1778 105.511 98.7673 105.503 109.543C105.491 114.931 105.505 119.112 105.47 121.951C105.394 122.663 105.086 123.25 104.718 123.643C104.355 124.048 103.946 124.277 103.608 124.408C103.269 124.544 102.99 124.574 102.808 124.595C102.624 124.603 102.531 124.604 102.531 124.604Z" fill="#17282F"/>
<path d="M88.8313 42.5111H48.5257C47.108 42.5111 45.959 41.3621 45.959 39.9448V39.6997C45.959 38.2824 47.108 37.1335 48.5257 37.1335H88.8313C90.249 37.1335 91.3979 38.2824 91.3979 39.6997V39.9448C91.3979 41.3621 90.249 42.5111 88.8313 42.5111Z" fill="#DADBD8"/>
<path d="M38.9681 46.3872H30.6916C29.5363 46.3872 28.5996 45.4508 28.5996 44.2953V36.0187C28.5996 34.8636 29.5363 33.9267 30.6916 33.9267H38.9681C40.1236 33.9267 41.0604 34.8636 41.0604 36.0187V44.2953C41.0604 45.4508 40.1236 46.3872 38.9681 46.3872Z" fill="#F2575D"/>
<path d="M30.5254 40.3362L31.7806 39.0814L34.2012 41.2332L38.2436 37.1751L39.4091 38.4303L34.022 43.6537L30.5254 40.3362Z" fill="white"/>
<path d="M88.8313 61.8408H48.5257C47.108 61.8408 45.959 60.6918 45.959 59.2741V59.0294C45.959 57.6121 47.108 56.4628 48.5257 56.4628H88.8313C90.249 56.4628 91.3979 57.6121 91.3979 59.0294V59.2741C91.3979 60.6918 90.249 61.8408 88.8313 61.8408Z" fill="#DADBD8"/>
<path d="M38.9681 65.7169H30.6916C29.5363 65.7169 28.5996 64.7801 28.5996 63.6246V55.3484C28.5996 54.1929 29.5363 53.2564 30.6916 53.2564H38.9681C40.1236 53.2564 41.0604 54.1929 41.0604 55.3484V63.6246C41.0604 64.7801 40.1236 65.7169 38.9681 65.7169Z" fill="#F2575D"/>
<path d="M30.5254 59.6657L31.7806 58.4104L34.2012 60.5622L38.2436 56.5046L39.4091 57.7594L34.022 62.9832L30.5254 59.6657Z" fill="white"/>
<path d="M88.8313 81.17H48.5257C47.108 81.17 45.959 80.0207 45.959 78.6034V78.3587C45.959 76.941 47.108 75.792 48.5257 75.792H88.8313C90.249 75.792 91.3979 76.941 91.3979 78.3587V78.6034C91.3979 80.0207 90.249 81.17 88.8313 81.17Z" fill="#DADBD8"/>
<path d="M38.9681 85.0459H30.6916C29.5363 85.0459 28.5996 84.1094 28.5996 82.9539V74.6774C28.5996 73.5223 29.5363 72.5854 30.6916 72.5854H38.9681C40.1236 72.5854 41.0604 73.5223 41.0604 74.6774V82.9539C41.0604 84.1094 40.1236 85.0459 38.9681 85.0459Z" fill="#F2575D"/>
<path d="M30.5254 78.9949L31.7806 77.7397L34.2012 79.8915L38.2436 75.8334L39.4091 77.0887L34.022 82.312L30.5254 78.9949Z" fill="white"/>
<path d="M88.8313 100.499H48.5257C47.108 100.499 45.959 99.3504 45.959 97.9327V97.688C45.959 96.2707 47.108 95.1213 48.5257 95.1213H88.8313C90.249 95.1213 91.3979 96.2707 91.3979 97.688V97.9327C91.3979 99.3504 90.249 100.499 88.8313 100.499Z" fill="#DADBD8"/>
<path d="M38.9681 104.375H30.6916C29.5363 104.375 28.5996 103.439 28.5996 102.283V94.0068C28.5996 92.8513 29.5363 91.9149 30.6916 91.9149H38.9681C40.1236 91.9149 41.0604 92.8513 41.0604 94.0068V102.283C41.0604 103.439 40.1236 104.375 38.9681 104.375Z" fill="#F2575D"/>
<path d="M30.5254 98.3243L31.7806 97.069L34.2012 99.2208L38.2436 95.1631L39.4091 96.4184L34.022 101.642L30.5254 98.3243Z" fill="white"/>
<path d="M121.47 163.015L121.121 172.207C121.121 172.207 130.347 175.65 130.447 177.354L112.6 177.317L112.557 162.972L121.47 163.015Z" fill="#17282F"/>
<path d="M115.603 171.422C115.257 171.516 115.018 171.904 115.097 172.253C115.177 172.602 115.569 172.85 115.916 172.762C116.263 172.674 116.565 172.217 116.447 171.879C116.329 171.541 115.853 171.276 115.537 171.445" fill="#DADBD8"/>
<path d="M112.6 177.317L112.652 175.871L129.744 176.448C129.744 176.448 130.538 176.795 130.447 177.354L112.6 177.317Z" fill="#33535F"/>
<path d="M121.41 172.117C121.407 172.205 120.971 172.243 120.542 172.522C120.105 172.79 119.883 173.167 119.803 173.133C119.723 173.116 119.853 172.595 120.38 172.266C120.902 171.932 121.429 172.037 121.41 172.117Z" fill="white"/>
<path d="M123.279 172.895C123.299 172.98 122.921 173.127 122.625 173.495C122.317 173.854 122.241 174.253 122.155 174.249C122.073 174.262 122.013 173.752 122.391 173.301C122.765 172.848 123.278 172.812 123.279 172.895Z" fill="white"/>
<path d="M124.338 175.138C124.259 175.156 124.139 174.721 124.364 174.244C124.585 173.766 124.996 173.578 125.033 173.651C125.082 173.722 124.817 173.978 124.638 174.372C124.451 174.762 124.425 175.13 124.338 175.138Z" fill="white"/>
<path d="M121.256 170.014C121.219 170.093 120.82 169.972 120.327 170.004C119.834 170.027 119.45 170.191 119.405 170.116C119.354 170.053 119.729 169.732 120.31 169.701C120.891 169.667 121.299 169.945 121.256 170.014Z" fill="white"/>
<path d="M99.6226 161.765L98.656 172.852L100.42 181.842C100.548 182.49 100.099 183.11 99.4442 183.193C99.0774 183.239 98.7138 183.108 98.4638 182.835C96.8731 181.101 91.0536 174.692 91.1697 173.885C91.3044 172.95 91.4127 162.122 91.4127 162.122L99.6226 161.765Z" fill="#17282F"/>
<path d="M99.4418 183.193L91.2153 173.135L91.1852 173.606C91.1591 174.013 91.2764 174.416 91.5199 174.742C92.1721 175.616 94.0255 177.99 98.4276 182.833C98.6837 183.115 99.0656 183.251 99.4418 183.193Z" fill="#33535F"/>
<path d="M93.3272 170.867C93.194 170.867 93.0625 170.828 92.9563 170.747C92.6867 170.542 92.5943 170.032 92.8227 169.782C92.9473 169.645 93.1562 169.567 93.3549 169.567C93.5206 169.567 93.6794 169.622 93.7763 169.741C94.0006 169.962 94.0446 170.353 93.8585 170.61C93.7376 170.776 93.5312 170.867 93.3272 170.867Z" fill="#9BA6A6"/>
<path d="M97.2181 178.178C97.2792 178.212 97.5667 177.647 98.2474 177.376C98.92 177.085 99.5234 177.281 99.5418 177.213C99.5532 177.187 99.418 177.091 99.1607 177.038C98.9054 176.984 98.5275 176.996 98.1538 177.15C97.7808 177.306 97.5052 177.564 97.3635 177.784C97.219 178.004 97.1913 178.167 97.2181 178.178Z" fill="white"/>
<path d="M97.914 179.715C97.9637 179.766 98.3431 179.428 98.9282 179.3C99.5104 179.16 99.9994 179.298 100.022 179.23C100.058 179.175 99.5381 178.906 98.8732 179.062C98.2076 179.212 97.8582 179.681 97.914 179.715Z" fill="white"/>
<path d="M95.8667 176.177C95.9151 176.232 96.4965 175.709 97.389 175.431C98.277 175.139 99.0539 175.227 99.0608 175.153C99.0828 175.095 98.2676 174.888 97.3145 175.199C96.3581 175.5 95.815 176.142 95.8667 176.177Z" fill="white"/>
<path d="M95.8781 172.781C95.9034 172.85 96.5332 172.633 97.3337 172.656C98.1342 172.667 98.7543 172.911 98.7828 172.843C98.8165 172.791 98.1993 172.426 97.3386 172.411C96.4787 172.389 95.846 172.728 95.8781 172.781Z" fill="white"/>
<path d="M96.0812 169.52C96.1113 169.586 96.7522 169.255 97.5929 169.348C98.4357 169.422 98.9992 169.872 99.042 169.812C99.0615 169.79 98.9492 169.643 98.7028 169.479C98.4581 169.314 98.0701 169.15 97.617 169.105C97.1638 169.061 96.7509 169.145 96.4794 169.259C96.2054 169.372 96.0661 169.494 96.0812 169.52Z" fill="white"/>
<path d="M97.6121 168.727C97.6264 168.727 97.661 168.58 97.6545 168.307C97.6471 168.037 97.5946 167.636 97.3911 167.186C97.2844 166.971 97.1765 166.699 96.8756 166.532C96.7266 166.448 96.4949 166.462 96.354 166.601C96.214 166.736 96.161 166.915 96.146 167.091C96.1122 167.797 96.6736 168.518 97.4603 168.67C98.2505 168.808 99.0009 168.4 99.3556 167.811C99.4345 167.658 99.4948 167.468 99.4207 167.275C99.3478 167.08 99.1271 166.99 98.9663 167.007C98.6333 167.035 98.413 167.212 98.2102 167.341C97.8076 167.624 97.5498 167.932 97.3967 168.155C97.2428 168.379 97.1891 168.521 97.2017 168.527C97.2388 168.559 97.5173 168 98.3059 167.484C98.5042 167.367 98.7334 167.216 98.9724 167.21C99.0889 167.206 99.1854 167.258 99.2208 167.354C99.2574 167.447 99.2253 167.585 99.1573 167.704C98.8588 168.186 98.172 168.557 97.5055 168.43C96.8414 168.308 96.3491 167.674 96.3707 167.105C96.3781 166.969 96.4228 166.834 96.5014 166.757C96.5784 166.682 96.6891 166.667 96.7889 166.715C96.9994 166.816 97.1293 167.059 97.2355 167.261C97.6508 168.106 97.5625 168.734 97.6121 168.727Z" fill="white"/>
<path d="M130.067 85.5265C130.067 85.5265 131.42 90.7657 130.929 97.1486C130.739 99.6184 122.404 167.947 122.404 167.947H111.151L114.314 103.728L113.393 103.928C113.393 103.928 107.25 131.317 106.749 135.752C106.298 139.738 101.117 168.695 101.117 168.695L90.8281 168.814L94.1143 130.511L97.9382 93.7579L99.3771 83.0595L130.067 85.5265Z" fill="#17282F"/>
<path d="M113.905 99.3699C113.9 99.376 113.925 99.4017 113.978 99.4469C114.033 99.488 114.122 99.5433 114.252 99.5763C114.507 99.6496 114.931 99.6122 115.319 99.3239C115.724 99.0401 115.966 98.4746 116.048 97.8695C116.129 97.258 116.141 96.6005 116.186 95.905C116.262 94.515 116.318 93.2561 116.348 92.3445C116.378 91.4329 116.381 90.8682 116.351 90.8665C116.32 90.8649 116.263 91.4264 116.193 92.3359C116.124 93.2455 116.043 94.5032 115.967 95.8928C115.922 96.5854 115.915 97.2564 115.848 97.8419C115.779 98.4237 115.57 98.9367 115.225 99.2013C114.885 99.4766 114.506 99.5348 114.27 99.4933C114.027 99.455 113.917 99.3499 113.905 99.3699Z" fill="#33535F"/>
<path d="M97.3497 92.7633C97.3464 92.7768 97.4572 92.8212 97.6648 92.8769C97.8725 92.9331 98.1794 92.9934 98.5642 93.0276C99.3292 93.1005 100.427 93.0284 101.53 92.585C102.635 92.1416 103.477 91.434 103.979 90.8526C104.233 90.5615 104.413 90.3054 104.524 90.1213C104.636 89.9373 104.685 89.8286 104.673 89.8213C104.641 89.8001 104.391 90.204 103.865 90.7471C103.345 91.2895 102.516 91.9531 101.449 92.3814C100.383 92.8102 99.3244 92.905 98.5736 92.8733C97.8183 92.8444 97.3582 92.7263 97.3497 92.7633Z" fill="#33535F"/>
<path d="M125.582 89.9049C125.559 89.9073 125.578 90.3471 125.753 91.0343C125.925 91.7204 126.285 92.6462 126.885 93.5518C127.487 94.4552 128.202 95.1458 128.767 95.5704C129.333 95.9979 129.731 96.1856 129.742 96.1653C129.793 96.1078 128.24 95.2215 127.067 93.4304C125.87 91.6561 125.655 89.8805 125.582 89.9049Z" fill="#33535F"/>
<path d="M159.958 70.5716L162.541 71.3883L167.232 68.7952L169.894 76.2078L163.51 77.7273L158.674 77.1951L159.958 70.5716Z" fill="#BA6258"/>
<path d="M129.922 40.8101C129.922 40.8101 132.56 42.3939 134.745 47.7756C139.038 58.3477 141.734 64.0544 141.734 64.0544L161.441 70.2789L159.867 78.1785C159.867 78.1785 139.891 75.3956 137.216 74.3924C133.556 73.0203 130.842 65.8023 130.842 65.8023L129.922 40.8101Z" fill="#DADBD8"/>
<path d="M124.504 17.0924C125.521 17.1568 126.521 16.3616 126.686 15.3559C126.852 14.3511 126.162 13.2766 125.178 13.0103C125.775 12.334 125.879 11.2693 125.424 10.4905C124.97 9.71198 123.992 9.27796 123.11 9.46363C123.028 8.57726 122.454 7.75235 121.652 7.36759C120.849 6.98283 119.847 7.05205 119.104 7.54307C118.08 6.75116 116.495 6.79962 115.521 7.65301C114.65 7.53738 113.732 8.04469 113.366 8.84393C113.001 9.64358 113.217 10.6696 113.875 11.2535" fill="#17282F"/>
<path d="M115.182 9.72483L115.638 9.70242C120.23 9.47401 124.227 12.8098 124.824 17.3683C125.378 21.6084 125.937 26.3 126.022 28.5849C126.199 33.3168 121.505 34.2871 121.505 34.2871L122.188 39.9485L110.694 40.1631L108.654 19.6092C107.987 14.7202 110.276 10.257 115.182 9.72483Z" fill="#BA6258"/>
<path d="M121.54 34.2785C121.54 34.2785 118.529 34.61 115.254 32.7729C115.254 32.7729 116.88 36.1034 121.578 35.443L121.54 34.2785Z" fill="#6F3530"/>
<path d="M123.121 21.7308C123.152 22.0871 122.875 22.4059 122.504 22.4446C122.133 22.4829 121.808 22.2263 121.778 21.8701C121.748 21.5142 122.024 21.1946 122.394 21.1563C122.765 21.1177 123.091 21.375 123.121 21.7308Z" fill="#17282F"/>
<path d="M123.921 19.7328C123.842 19.8248 123.311 19.4718 122.584 19.5097C121.858 19.5374 121.343 19.9376 121.26 19.8525C121.22 19.8151 121.297 19.6518 121.521 19.4714C121.741 19.2915 122.123 19.1083 122.575 19.0879C123.028 19.068 123.417 19.2157 123.645 19.3754C123.877 19.5358 123.96 19.6913 123.921 19.7328Z" fill="#17282F"/>
<path d="M116.49 21.9144C116.521 22.2703 116.244 22.5895 115.873 22.6277C115.503 22.6664 115.177 22.4095 115.147 22.0537C115.117 21.6978 115.393 21.3782 115.764 21.3395C116.135 21.3008 116.46 21.5582 116.49 21.9144Z" fill="#17282F"/>
<path d="M116.783 20.2229C116.703 20.3153 116.172 19.9623 115.446 20.0002C114.72 20.0279 114.205 20.4281 114.122 20.343C114.081 20.3056 114.158 20.1423 114.382 19.9619C114.603 19.782 114.984 19.5991 115.437 19.5784C115.89 19.5584 116.279 19.7058 116.506 19.8658C116.738 20.0258 116.822 20.1814 116.783 20.2229Z" fill="#17282F"/>
<path d="M119.689 25.4813C119.683 25.4402 120.131 25.3397 120.858 25.2098C121.043 25.1813 121.217 25.1357 121.242 25.0074C121.279 24.871 121.191 24.6752 121.09 24.4635C120.894 24.0233 120.688 23.5616 120.472 23.0779C119.61 21.1041 118.976 19.4771 119.056 19.4433C119.135 19.4095 119.899 20.9815 120.761 22.9554C120.969 23.4423 121.168 23.9065 121.357 24.3507C121.438 24.5583 121.571 24.7912 121.49 25.0742C121.446 25.2155 121.315 25.323 121.198 25.3608C121.081 25.4028 120.976 25.4101 120.885 25.4199C120.15 25.4964 119.694 25.5225 119.689 25.4813Z" fill="#17282F"/>
<path d="M117.277 17.3955C117.19 17.5844 116.557 17.4159 115.789 17.4293C115.021 17.4252 114.382 17.6015 114.302 17.4138C114.268 17.3239 114.396 17.1516 114.665 16.9904C114.931 16.8296 115.343 16.6944 115.803 16.6915C116.264 16.6891 116.67 16.8186 116.931 16.977C117.193 17.1349 117.315 17.3055 117.277 17.3955Z" fill="#17282F"/>
<path d="M123.805 16.7343C123.66 16.9069 123.052 16.7652 122.331 16.7933C121.608 16.7998 121.004 16.97 120.855 16.8047C120.789 16.7237 120.877 16.5535 121.136 16.3841C121.391 16.2152 121.825 16.0661 122.321 16.0543C122.817 16.0429 123.254 16.1708 123.514 16.3275C123.777 16.4847 123.869 16.6504 123.805 16.7343Z" fill="#17282F"/>
<path d="M124.26 15.2221C124.26 15.2221 122.865 12.3228 121.403 11.7027C119.633 10.9519 118.983 12.8867 117.312 12.508C115.642 12.129 113.952 11.4087 112.332 12.7657C110.558 14.251 111.47 15.1863 111.46 17.29C111.422 25.8194 109.988 28.3022 109.346 24.3174C109.276 23.8806 108.041 23.5923 107.768 21.7467C107.415 19.353 107.177 16.4378 107.629 14.7042C108.01 13.2433 108.781 12.2083 110.197 11.0398C112.433 9.1946 115.62 8.99917 117.797 9.1095C119.974 9.21943 124.273 11.5044 124.26 15.2221Z" fill="#17282F"/>
<path d="M109.643 24.1739C109.577 23.4455 108.919 22.9008 108.195 23.0058C107.317 23.1332 106.361 23.6829 106.51 25.5025C106.774 28.7304 109.96 27.7996 109.958 27.7064C109.956 27.6433 109.765 25.5236 109.643 24.1739Z" fill="#BA6258"/>
<path d="M109.156 26.5495C109.141 26.5401 109.102 26.5934 109.011 26.6447C108.922 26.6948 108.765 26.7372 108.591 26.6879C108.24 26.5902 107.908 26.0727 107.845 25.4921C107.813 25.1989 107.852 24.9143 107.937 24.6741C108.016 24.4298 108.156 24.2527 108.325 24.2079C108.492 24.1546 108.622 24.2474 108.669 24.335C108.72 24.4217 108.704 24.4877 108.722 24.4921C108.732 24.4995 108.787 24.4323 108.75 24.3008C108.731 24.2381 108.687 24.1648 108.606 24.109C108.524 24.0524 108.407 24.0296 108.289 24.0524C108.041 24.0899 107.836 24.3374 107.742 24.6008C107.635 24.8667 107.585 25.1871 107.621 25.5165C107.695 26.1651 108.077 26.7465 108.555 26.8434C108.787 26.8842 108.971 26.7999 109.062 26.716C109.156 26.628 109.167 26.5543 109.156 26.5495Z" fill="#6F3530"/>
<path d="M109.392 17.907C109.826 18.1729 110.284 18.4465 110.792 18.4713C111.301 18.4961 111.865 18.1769 111.926 17.6717C111.952 17.4445 111.885 17.1859 112.024 17.0047C112.19 16.7885 112.519 16.8374 112.792 16.8529C113.736 16.9058 114.783 15.813 114.977 14.8867C115.234 15.2336 115.765 15.3159 116.116 15.0643C116.467 14.8122 116.593 14.6722 116.861 14.333C117.129 13.9939 117.512 13.6832 117.943 13.7227C118.183 13.7447 118.414 13.8762 118.654 13.8428C119.076 13.7838 119.259 13.2765 119.302 12.8518C119.345 12.4275 119.371 11.9333 119.719 11.6865C120.042 11.4573 120.48 11.5587 120.874 11.597C121.267 11.6352 121.767 11.5184 121.848 11.1312C121.891 10.928 121.794 10.7216 121.674 10.5518C121.132 9.78432 120.016 9.48709 119.163 9.88203C118.794 8.82954 117.754 8.04782 116.64 7.98593C115.526 7.92405 114.406 8.58566 113.922 9.59092C113.208 9.00503 112.202 8.79412 111.313 9.04411C110.424 9.2941 109.675 9.99766 109.37 10.8702C108.573 10.702 107.692 11.051 107.226 11.7183C106.76 12.3856 106.736 13.3331 107.168 14.0236C106.603 14.3843 106.134 14.9865 106.155 15.6563C106.177 16.326 106.861 16.9604 107.499 16.7523C107.263 17.2861 107.511 17.9827 108.03 18.249C108.549 18.5149 109.259 18.3088 109.555 17.806" fill="#17282F"/>
<path d="M119.451 10.8213C119.454 10.8213 119.455 10.8416 119.453 10.8807C119.451 10.9194 119.452 10.9785 119.441 11.0542C119.419 11.2052 119.37 11.4292 119.238 11.6889C119.104 11.945 118.892 12.2435 118.558 12.489C118.232 12.7365 117.778 12.9348 117.253 12.9324L117.304 12.8579C117.418 13.1294 117.407 13.4625 117.284 13.7536C117.168 14.0492 116.975 14.3159 116.77 14.5764C116.665 14.7018 116.575 14.8476 116.427 14.9653C116.282 15.0785 116.106 15.1485 115.924 15.1807C115.561 15.2454 115.145 15.1534 114.865 14.8598L114.984 14.8191C114.934 15.4657 114.6 16.1273 114.039 16.5479C113.742 16.7853 113.369 16.94 112.994 16.9485C112.62 16.9636 112.267 16.8712 111.937 16.771L112.021 16.7287C111.867 17.1391 111.617 17.4953 111.305 17.7645C111 18.0328 110.583 18.2021 110.195 18.1272C109.424 18.0035 108.886 17.3943 108.754 16.8015L108.829 16.8321C108.461 17.0572 108.055 17.0971 107.726 17.0507C107.393 17.0063 107.126 16.8756 106.934 16.7433C106.742 16.6085 106.624 16.4656 106.554 16.3663C106.488 16.2629 106.46 16.2051 106.463 16.2034C106.479 16.1892 106.583 16.4436 106.965 16.6981C107.155 16.8194 107.416 16.9379 107.736 16.9725C108.052 17.0108 108.436 16.9636 108.776 16.7486L108.834 16.7111L108.851 16.7791C108.981 17.3312 109.498 17.8992 110.212 18.0059C110.564 18.0702 110.93 17.9188 111.22 17.6651C111.511 17.4114 111.75 17.0682 111.892 16.6822L111.915 16.6212L111.977 16.6399C112.302 16.7372 112.643 16.8239 112.988 16.8089C113.335 16.7991 113.67 16.6615 113.953 16.4363C114.483 16.0381 114.796 15.4193 114.847 14.8069L114.859 14.653L114.966 14.7666C115.202 15.0178 115.576 15.1074 115.901 15.05C116.065 15.0219 116.221 14.9604 116.347 14.8627C116.47 14.7686 116.564 14.6245 116.671 14.4979C116.876 14.2418 117.063 13.9853 117.174 13.71C117.292 13.4381 117.302 13.1449 117.204 12.899L117.174 12.8229L117.256 12.8245C117.75 12.833 118.188 12.6518 118.508 12.4194C118.834 12.1893 119.046 11.9051 119.184 11.6604C119.454 11.1572 119.428 10.8152 119.451 10.8213Z" fill="#33535F"/>
<path d="M119.653 27.9755C119.629 27.8562 118.842 28.0618 118.106 27.5358C117.369 27.0109 117.236 26.149 117.125 26.1718C117.073 26.1738 117.021 26.399 117.105 26.7557C117.184 27.1058 117.43 27.5834 117.879 27.9055C118.33 28.2259 118.833 28.2821 119.163 28.2243C119.5 28.1673 119.672 28.0284 119.653 27.9755Z" fill="#17282F"/>
<path d="M138.846 57.8701C138.773 57.6148 134.564 46.156 133.22 43.6479C131.614 40.6476 128.236 39.3203 126.14 39.1912C124.043 39.0621 101.606 40.85 101.606 40.85C101.606 40.85 94.9041 42.3515 94.0499 48.1152C93.0666 54.7505 92.2051 69.9406 92.2051 69.9406L102.418 64.7062L103.741 61.3749L124.87 66.0889L130.03 58.4572L138.846 57.8701Z" fill="#DADBD8"/>
<path d="M100.123 41.5034L108.887 37.64L109.869 33.8604L120.098 38.6965L122.241 36.3289L123.139 38.997L125.38 39.7299L130.62 48.9445L130.603 68.5802L131.664 85.5178L130.528 88.1915L121.142 89.5762C120.116 89.7277 119.073 89.7285 118.046 89.5795L98.9949 86.4648L98.5039 80.8693L100.539 65.4452L100.123 41.5034Z" fill="#DADBD8"/>
<path d="M109.868 33.8603C109.868 33.8603 111.012 34.1909 113.95 35.7584C116.827 37.2938 120.098 38.6964 120.098 38.6964L119.85 43.3156L108.963 37.8504L109.868 33.8603Z" fill="#DADBD8"/>
<path d="M122.24 36.329L120.098 38.6966L121.243 43.6479L123.152 39.1729L122.24 36.329Z" fill="#DADBD8"/>
<path d="M120.802 44.9054L109.916 38.3287L119.85 43.3155L120.138 39.2073C120.23 39.2757 120.787 44.5357 120.826 44.9017L120.802 44.9054Z" fill="#8F9192"/>
<path d="M119.85 43.3156L109.916 38.3288V38.3284L119.85 43.3156Z" fill="#8F9192"/>
<path d="M120.063 60.2704C119.899 55.9538 120.579 44.9411 120.579 44.9411L122.002 44.7123C122.002 44.7123 124.659 55.4175 125.651 68.5356C126.053 73.844 126.053 79.9932 126.053 79.9932L123.195 86.1257L120.037 80.0331C120.037 80.0331 120.262 65.5157 120.063 60.2704Z" fill="#33535F"/>
<path d="M99.4713 42.1712C99.4546 42.1927 99.7669 42.4358 100.209 42.891C100.651 43.3446 101.206 44.0298 101.665 44.8808C102.121 45.7337 102.387 46.5745 102.522 47.1938C102.657 47.8131 102.688 48.208 102.715 48.2056C102.725 48.2047 102.726 48.1058 102.717 47.9267C102.711 47.7475 102.682 47.489 102.627 47.1726C102.518 46.5403 102.264 45.6771 101.799 44.8091C101.331 43.9427 100.752 43.2546 100.284 42.8149C100.051 42.5942 99.8516 42.4269 99.7055 42.323C99.5605 42.2172 99.4779 42.163 99.4713 42.1712Z" fill="#17282F"/>
<path d="M120.064 40.9053L121.039 40.525L121.962 42.1093L122.129 44.7122L120.828 44.9219L119.85 43.3157L120.064 40.9053Z" fill="#33535F"/>
<path d="M130.601 48.6482C130.559 48.6482 130.525 54.2823 130.525 61.2308C130.525 68.1813 130.559 73.8142 130.601 73.8142C130.643 73.8142 130.677 68.1813 130.677 61.2308C130.677 54.2823 130.643 48.6482 130.601 48.6482Z" fill="#17282F"/>
<path d="M119.995 38.6561C119.976 38.6692 120.205 39.0193 120.551 39.5975C120.897 40.176 121.353 40.9875 121.79 41.9178C121.825 41.994 121.86 42.0697 121.893 42.1409L121.961 42.2871L122.03 42.1418C122.45 41.2582 122.753 40.4358 122.941 39.8352C123.036 39.5348 123.103 39.2905 123.145 39.1203C123.186 38.9505 123.204 38.8552 123.194 38.8528C123.173 38.8467 123.056 39.2127 122.843 39.8019C122.63 40.391 122.313 41.2004 121.894 42.0766L122.031 42.0778C121.998 42.0066 121.963 41.93 121.927 41.8531C121.488 40.9166 121.012 40.1072 120.642 39.5409C120.457 39.2575 120.299 39.0336 120.185 38.8821C120.071 38.7306 120.004 38.6504 119.995 38.6561Z" fill="#17282F"/>
<path d="M108.885 37.6399C108.883 37.6443 108.934 37.6753 109.034 37.7294C109.15 37.7897 109.296 37.8662 109.476 37.9603C109.878 38.1687 110.429 38.4542 111.102 38.8031C112.474 39.5164 114.353 40.5331 116.435 41.6458C117.704 42.3213 118.905 42.9475 119.95 43.4703L120.046 43.5183L120.047 43.4116C120.06 42.0562 120.071 40.9146 120.079 40.0889C120.079 39.7004 120.078 39.3873 120.078 39.152C120.075 38.9354 120.07 38.8194 120.063 38.8194C120.055 38.8194 120.046 38.935 120.036 39.1512C120.027 39.3865 120.015 39.6996 120 40.0872C119.978 40.9129 119.948 42.0542 119.913 43.4092L120.01 43.3506C118.972 42.8184 117.775 42.1873 116.507 41.5119C114.425 40.3995 112.537 39.3971 111.151 38.7074C110.459 38.3613 109.894 38.0902 109.502 37.9074C109.317 37.8239 109.167 37.7555 109.048 37.7017C108.943 37.6566 108.887 37.635 108.885 37.6399Z" fill="#17282F"/>
<path d="M129.285 41.1992C129.263 41.2126 129.435 41.5029 129.655 41.9964C129.876 42.4891 130.13 43.1947 130.279 44.0045C130.427 44.8147 130.441 45.5643 130.41 46.1033C130.38 46.6432 130.323 46.9751 130.348 46.9799C130.358 46.982 130.382 46.901 130.416 46.7515C130.452 46.6029 130.488 46.3839 130.517 46.1119C130.577 45.5679 130.579 44.8025 130.429 43.9768C130.276 43.1519 130.001 42.4378 129.752 41.9508C129.628 41.7065 129.517 41.5148 129.43 41.3885C129.345 41.2611 129.294 41.1939 129.285 41.1992Z" fill="#17282F"/>
<path d="M121.066 45.0898C121.088 45.1253 121.336 45.0092 121.619 44.8305C121.902 44.6521 122.113 44.4787 122.09 44.4433C122.068 44.4078 121.821 44.5239 121.538 44.7026C121.255 44.881 121.044 45.0544 121.066 45.0898Z" fill="#17282F"/>
<path d="M120.598 44.4545C120.636 44.4712 120.933 43.8812 121.259 43.137C121.587 42.3923 121.821 41.775 121.782 41.7583C121.744 41.7412 121.448 42.3312 121.121 43.0759C120.794 43.8202 120.56 44.4378 120.598 44.4545Z" fill="#17282F"/>
<path d="M98.327 42.4721C98.327 42.4721 94.9501 44.9023 94.5283 46.2451C94.1061 47.5879 92.3122 69.4088 91.9954 72.0048C91.6791 74.6012 91.3623 79.4553 93.3675 81.0383C95.3723 82.6209 99.6987 83.8077 99.6987 83.8077L103.695 75.5511L101.579 71.1193L103.695 54.5466L98.327 42.4721Z" fill="#DADBD8"/>
<path d="M98.7363 83.5167C98.7363 83.511 98.8104 83.5057 98.9521 83.5008C99.0938 83.4959 99.3039 83.4984 99.5734 83.4609C100.103 83.3941 100.917 83.2553 101.733 82.6796C102.556 82.1242 103.312 81.1336 103.794 79.8592C104.279 78.5885 104.561 77.0564 104.576 75.4176L104.594 75.4742C103.634 74.1445 102.586 72.693 101.493 71.1812L101.469 71.1474L101.474 71.1059C101.488 70.9955 101.503 70.8762 101.518 70.7569C102.115 66.1093 102.655 61.903 103.049 58.8339C103.245 57.3242 103.405 56.0954 103.518 55.2217C103.572 54.8104 103.615 54.4835 103.647 54.24C103.674 54.0165 103.689 53.898 103.696 53.898C103.7 53.898 103.701 53.9277 103.7 53.986C103.699 54.0438 103.697 54.1309 103.689 54.2441C103.667 54.4888 103.637 54.8178 103.6 55.231C103.515 56.0877 103.376 57.3246 103.198 58.8522C102.841 61.9079 102.322 66.1264 101.729 70.7838C101.714 70.9031 101.698 71.0224 101.685 71.1323L101.665 71.057C102.754 72.5716 103.799 74.0256 104.756 75.3574L104.776 75.3842L104.776 75.414C104.753 77.0878 104.458 78.6276 103.952 79.9211C103.449 81.2142 102.659 82.2256 101.803 82.7818C101.381 83.0684 100.954 83.2463 100.572 83.3518C100.477 83.3778 100.384 83.4035 100.296 83.4279C100.205 83.4434 100.119 83.4585 100.035 83.4727C99.8694 83.5065 99.7172 83.5208 99.5795 83.5269C99.3055 83.5541 99.0942 83.5407 98.9517 83.5346C98.8092 83.5285 98.7359 83.5224 98.7363 83.5167Z" fill="#17282F"/>
<path d="M94.6567 72.649C94.6428 72.6311 94.9576 72.3542 95.5435 72.0187C96.1265 71.6828 96.9962 71.3127 98.0104 71.114C99.0254 70.9186 99.9704 70.9357 100.637 71.029C101.306 71.121 101.701 71.2598 101.695 71.2814C101.69 71.3555 100.048 70.9202 98.0507 71.3221C96.0496 71.6971 94.6893 72.7154 94.6567 72.649Z" fill="#17282F"/>
<path d="M121.151 50.9244H121.152C121.163 50.9228 121.344 51.6487 121.653 52.9276C122.341 51.9329 123.227 51.0864 124.256 50.4374L124.242 50.4399C124.242 50.4399 129.456 45.2613 131.121 39.8157C132.33 35.8622 132.029 31.4845 132.029 31.4845C131.98 31.2752 131.573 29.4186 131.241 27.8996C130.969 26.6545 131.73 25.4285 132.961 25.0971C135.549 24.3993 142.557 23.0353 144.164 27.7424C146.563 34.7653 142.686 42.351 142.728 44.5215C142.736 44.9315 142.742 45.2638 142.747 45.5333C144.802 45.0581 146.395 44.7157 146.403 44.7499L146.401 44.7516L159.895 41.6031C159.895 41.6031 164.353 40.2538 165.883 44.824C167.412 49.3947 162.223 50.9142 162.223 50.9142C162.223 50.9142 164.662 50.8067 165.325 54.9633C165.988 59.1204 161.529 60.4697 161.529 60.4697C161.529 60.4697 164.26 60.2938 164.966 63.9785C165.654 67.5647 161.197 69.7267 160.959 69.839C161.619 69.6978 162.029 69.6192 162.033 69.6375C162.038 69.6534 161.73 69.7405 161.216 69.8724C163.294 70.1387 163.595 72.6138 163.595 72.6138C164.935 77.6906 161.027 78.7573 161.027 78.7573L136.39 84.5108C133.911 85.0897 131.349 84.9814 128.963 84.2416C129.199 85.2913 129.327 85.882 129.316 85.8857L112.109 89.9043C112.071 89.9132 110.213 82.0931 107.959 72.4403C105.704 62.7839 103.906 54.9515 103.944 54.943L121.151 50.9244Z" fill="#F2575D"/>
<path d="M112.109 89.9043C112.07 89.9043 110.212 82.0878 107.959 72.4403C105.726 62.8784 103.942 55.1046 103.943 54.9454C103.943 54.9438 103.944 54.943 103.944 54.943L121.152 50.9244H121.152C121.164 50.9244 121.345 51.6504 121.653 52.9276C122.341 51.9329 123.227 51.0865 124.256 50.4375L124.243 50.4399C124.243 50.4399 129.456 45.2613 131.121 39.8157C131.929 37.1749 132.062 34.3448 132.062 32.7565C132.062 31.967 132.029 31.4845 132.029 31.4845C131.98 31.2753 131.573 29.4186 131.242 27.8996C131.204 27.7294 131.186 27.5596 131.186 27.3923C131.186 26.3357 131.898 25.3834 132.961 25.0971C133.842 24.8598 135.234 24.545 136.751 24.4188C135.847 24.9164 135.34 25.9534 135.571 27.0046C135.902 28.5237 136.309 30.3803 136.358 30.5892C136.358 30.5892 136.659 34.9673 135.45 38.9208C133.813 44.2732 128.749 49.3679 128.576 49.5405C126.401 50.915 124.872 53.1878 124.478 55.8273L124.145 58.0642L129.646 81.6192C131.991 83.1769 134.725 83.9876 137.493 83.9876C137.98 83.9876 138.467 83.9627 138.954 83.9122L136.39 84.5108C135.327 84.7591 134.249 84.8809 133.177 84.8809C131.747 84.8809 130.326 84.6643 128.963 84.2416C129.19 85.2522 129.317 85.8377 129.317 85.8829C129.317 85.8845 129.317 85.8853 129.317 85.8857L115.373 89.1421L112.109 89.9043Z" fill="#CC4341"/>
<path d="M147.077 44.7087C147.076 44.6721 147.075 44.6338 147.074 44.5943L159.894 41.6034C159.894 41.6034 160.419 41.4446 161.171 41.4206L147.077 44.7087Z" fill="#CC4341"/>
<path d="M124.476 55.8273L124.143 58.0642L129.644 81.6192C132.902 83.7828 136.908 84.5055 140.717 83.6158L165.354 77.862C165.354 77.862 169.262 76.7956 167.922 71.7189C167.922 71.7189 167.601 69.0223 165.274 68.9494C165.274 68.9494 170 66.7679 169.293 63.0836C168.587 59.3989 165.856 59.5743 165.856 59.5743C165.856 59.5743 170.315 58.2254 169.652 54.0684C168.989 49.9118 166.55 50.0193 166.55 50.0193C166.55 50.0193 171.739 48.4994 170.21 43.9291C168.681 39.3588 164.222 40.7077 164.222 40.7077L146.698 44.7964L131.338 48.3838C127.741 49.2237 125.021 52.1739 124.476 55.8273Z" fill="#F2575D"/>
<path d="M128.572 49.545C128.572 49.545 133.785 44.3665 135.451 38.9208C136.66 34.9674 136.359 30.5893 136.359 30.5893C136.31 30.3804 135.903 28.5238 135.571 27.0047C135.299 25.7592 136.06 24.5337 137.291 24.2019C139.879 23.5044 144.549 24.791 146.157 29.4977C148.555 36.5207 147.016 41.4562 147.057 43.6263C147.099 45.7968 147.099 45.7968 147.099 45.7968L128.572 49.545Z" fill="#F2575D"/>
<path d="M133.646 84.9909L116.438 89.0095L108.273 54.0482L125.481 50.0292L133.646 84.9909Z" fill="#F2575D"/>
<path d="M133.644 84.991C133.682 84.982 131.884 77.148 129.629 67.4952C127.374 57.8388 125.517 50.0207 125.479 50.0292C125.442 50.0382 127.239 57.8706 129.494 67.5266C131.749 77.1798 133.607 84.9995 133.644 84.991Z" fill="#17282F"/>
<path d="M116.435 89.0095C116.472 89.001 114.674 81.167 112.42 71.5138C110.165 61.8578 108.307 54.0392 108.27 54.0482C108.233 54.0568 110.03 61.8891 112.285 71.5456C114.539 81.1983 116.398 89.0181 116.435 89.0095Z" fill="#17282F"/>
<path d="M121.273 59.4511C121.689 61.2291 120.584 63.0076 118.805 63.4229C117.027 63.8382 115.249 62.7332 114.833 60.9547C114.418 59.1767 115.523 57.3983 117.301 56.983C119.08 56.5677 120.858 57.6727 121.273 59.4511Z" fill="white"/>
<path d="M150.73 43.8551C150.721 43.8176 148.838 44.2256 146.525 44.7663C144.21 45.3066 142.341 45.7748 142.35 45.8122C142.359 45.8493 144.241 45.4417 146.556 44.901C148.87 44.3607 150.739 43.8921 150.73 43.8551Z" fill="#17282F"/>
<path d="M166.243 59.6588C166.235 59.6217 165.028 59.8717 163.55 60.217C162.07 60.5626 160.878 60.8725 160.887 60.9099C160.895 60.947 162.101 60.6974 163.581 60.3517C165.06 60.0065 166.252 59.6962 166.243 59.6588Z" fill="#17282F"/>
<path d="M166.87 49.8554C166.862 49.8179 165.153 50.1852 163.054 50.6754C160.954 51.166 159.259 51.5935 159.268 51.631C159.276 51.668 160.985 51.3008 163.085 50.8106C165.184 50.3204 166.879 49.8924 166.87 49.8554Z" fill="#17282F"/>
<path d="M166.363 68.7424C166.354 68.7054 164.645 69.0726 162.545 69.5628C160.446 70.0534 158.751 70.481 158.76 70.518C158.768 70.5555 160.477 70.1882 162.577 69.6976C164.677 69.2074 166.372 68.7799 166.363 68.7424Z" fill="#17282F"/>
<path d="M139.291 36.423C139.035 36.423 138.799 36.3387 138.63 36.1286C138.32 35.7434 138.455 35.1836 138.557 34.6995C138.891 33.1153 138.685 31.4219 137.981 29.9639C137.663 29.3043 137.244 28.6863 137.041 27.9827C136.838 27.2788 136.899 26.4335 137.435 25.9335C138.062 25.4527 138.665 25.2715 139.22 25.2715C140.015 25.2715 140.712 25.6432 141.24 26.0365C142.139 26.7039 142.705 27.747 142.977 28.832C143.624 31.4073 142.614 34.3213 140.512 35.9434C140.17 36.2068 139.703 36.423 139.291 36.423Z" fill="#F57E87"/>
<path d="M152.177 47.626C151.843 47.626 151.514 47.5808 151.205 47.4521C150.585 47.1932 150.105 46.4798 150.333 45.8475C150.355 44.6908 152.482 44.4343 153.616 44.1461C157.082 43.2658 160.548 42.3855 164.015 41.5053C164.464 41.3913 164.927 41.2764 165.385 41.2764C165.536 41.2764 165.685 41.2887 165.834 41.3176C166.438 41.4332 167.022 41.899 167.063 42.5126C167.091 42.9319 166.862 43.3362 166.548 43.6155C166.234 43.8948 165.843 44.0695 165.455 44.2307C162.841 45.317 160.08 45.9953 157.327 46.6529C155.957 46.9802 154.585 47.3035 153.194 47.5262C152.86 47.5796 152.516 47.626 152.177 47.626Z" fill="#F57E87"/>
<path d="M121.651 51.9682C121.642 51.9312 119.23 52.4625 116.265 53.1551C113.299 53.8476 110.901 54.4392 110.91 54.4767C110.919 54.5137 113.33 53.9824 116.296 53.2898C119.262 52.5973 121.659 52.0053 121.651 51.9682Z" fill="white"/>
<path d="M168.074 55.9272C168.084 55.9296 168.107 55.8576 168.142 55.7236C168.181 55.5909 168.213 55.3926 168.231 55.1459C168.253 54.8991 168.243 54.6027 168.2 54.2774C168.15 53.9529 168.064 53.6007 167.925 53.2477C167.782 52.8964 167.601 52.5816 167.413 52.3129C167.219 52.0482 167.021 51.8272 166.835 51.6631C166.651 51.4978 166.491 51.3765 166.372 51.3068C166.254 51.2344 166.187 51.1985 166.182 51.2067C166.167 51.2282 166.425 51.3919 166.767 51.7339C166.94 51.9029 167.125 52.1248 167.308 52.3858C167.485 52.6512 167.657 52.9582 167.797 53.299C167.931 53.6418 168.019 53.9826 168.074 54.2965C168.122 54.6117 168.142 54.8999 168.133 55.1418C168.122 55.6259 168.049 55.9215 168.074 55.9272Z" fill="white"/>
<path d="M168.554 46.4763C168.563 46.4853 168.721 46.3301 168.878 46.0138C169.036 45.6999 169.166 45.2137 169.132 44.673C169.095 44.1319 168.903 43.667 168.706 43.3767C168.509 43.0831 168.332 42.95 168.324 42.9602C168.306 42.9773 168.454 43.1328 168.622 43.4276C168.791 43.7207 168.958 44.1665 168.993 44.682C169.026 45.1979 168.918 45.6616 168.788 45.9739C168.66 46.2878 168.533 46.4617 168.554 46.4763Z" fill="white"/>
<path d="M167.252 66.1069C167.259 66.1183 167.478 65.9827 167.715 65.6501C167.951 65.3247 168.183 64.7755 168.146 64.1448C168.106 63.5141 167.809 62.9971 167.535 62.7027C167.26 62.4014 167.026 62.2935 167.02 62.3057C167.006 62.3257 167.216 62.4612 167.461 62.7662C167.705 63.0655 167.971 63.561 168.008 64.1534C168.043 64.7454 167.84 65.2694 167.633 65.5963C167.427 65.9285 167.235 66.089 167.252 66.1069Z" fill="white"/>
<path d="M165.691 75.2266C165.702 75.2348 165.852 75.0658 166.003 74.7368C166.155 74.4099 166.284 73.9132 166.26 73.3578C166.235 72.8025 166.064 72.3188 165.884 72.0061C165.705 71.6914 165.541 71.5362 165.531 71.5456C165.512 71.5602 165.646 71.7353 165.797 72.0513C165.949 72.3652 166.098 72.8314 166.122 73.3639C166.144 73.8961 166.036 74.3733 165.912 74.6994C165.789 75.0271 165.67 75.2132 165.691 75.2266Z" fill="white"/>
<path d="M146.345 37.7534C146.354 37.7554 146.39 37.6137 146.447 37.3552C146.478 37.2261 146.51 37.0673 146.536 36.8809C146.564 36.6948 146.603 36.4839 146.621 36.2473C146.675 35.7763 146.697 35.2107 146.682 34.5833C146.658 33.9567 146.591 33.2686 146.456 32.5565C146.315 31.8456 146.121 31.182 145.909 30.5912C145.689 30.0037 145.457 29.4874 145.231 29.0705C145.126 28.8579 145.011 28.6768 144.916 28.5143C144.823 28.351 144.733 28.2159 144.657 28.1076C144.507 27.8889 144.421 27.7713 144.413 27.7765C144.405 27.7818 144.476 27.9101 144.611 28.1361C144.68 28.2484 144.763 28.3869 144.849 28.553C144.937 28.7183 145.046 28.9011 145.144 29.1153C145.357 29.5346 145.578 30.0501 145.789 30.6343C145.992 31.2215 146.181 31.8794 146.32 32.583C146.453 33.2873 146.524 33.9677 146.555 34.5882C146.577 35.2091 146.564 35.7698 146.523 36.2384C146.512 36.4737 146.479 36.6842 146.459 36.8699C146.442 37.0564 146.416 37.2155 146.394 37.3454C146.354 37.606 146.335 37.7514 146.345 37.7534Z" fill="white"/>
<path d="M107.059 79.0036C107.059 79.0036 108.412 77.956 109.416 77.9124C110.42 77.8689 111.729 78.2618 111.991 78.1307C112.253 77.9996 112.864 77.4255 113.257 77.9092C113.65 78.3925 114.13 80.1387 112.035 80.6188H110.595C110.595 80.6188 110.769 82.0593 111.118 82.6269C111.468 83.194 116.356 89.3489 116.356 89.3489C116.356 89.3489 116.967 89.9601 116.662 90.5712C116.356 91.1823 115.047 90.833 115.047 90.833C115.047 90.833 114.13 91.6624 113.083 91.2695C112.035 90.8766 111.599 90.5712 111.599 90.5712C111.599 90.5712 110.463 91.4877 109.241 90.5712C108.019 89.6543 103.943 84.547 103.943 84.547L105.4 78.8289L107.059 79.0036Z" fill="#BA6258"/>
<path d="M102.814 75.6255L107.057 79.0036L103.941 84.547L97.7285 82.2914C97.7285 82.2914 97.9073 75.7444 102.814 75.6255Z" fill="#BA6258"/>
<path d="M168.988 68.0781C168.988 68.0781 168.854 66.559 168.005 66.8717C167.156 67.1844 166.799 68.9718 166.799 68.9718L168.988 68.0781Z" fill="#BA6258"/>
<path d="M165.95 69.5767C165.95 69.5767 167.424 67.9236 169.48 68.0576C171.535 68.1915 170.24 69.9341 170.24 69.9341C170.24 69.9341 171.761 70.8726 170.643 72.213L170.463 72.5704C170.463 72.5704 171.759 73.0623 170.419 74.4474C170.419 74.4474 170.91 75.3411 170.24 76.0113C169.569 76.6815 167.894 75.7878 167.894 75.7878C167.894 75.7878 166.352 76.1452 166.218 75.5199C166.084 74.8941 166.442 74.4474 166.575 74.3578C166.709 74.2687 167.514 73.956 167.514 73.956C167.514 73.956 165.727 74.1791 165.682 73.7325C165.637 73.2854 165.459 72.794 166.799 72.3473L167.514 72.156C167.514 72.156 165.661 72.213 165.649 71.7663C165.637 71.3193 165.548 71.1405 166.218 70.8278C166.888 70.5151 167.424 70.1577 167.424 70.1577C167.424 70.1577 165.682 70.5151 165.95 69.5767Z" fill="#BA6258"/>
<path d="M165.62 71.3211C165.655 71.3716 166.49 70.5569 167.831 70.1892C169.166 69.8008 170.304 70.0573 170.307 69.9958C170.312 69.9763 170.039 69.8839 169.577 69.8395C169.117 69.7939 168.465 69.82 167.781 70.0121C167.097 70.2068 166.528 70.5255 166.16 70.8053C165.79 71.085 165.606 71.3069 165.62 71.3211Z" fill="#6F3530"/>
<path d="M165.826 73.8771C165.837 73.8645 165.783 73.8205 165.74 73.7175C165.697 73.6157 165.682 73.4467 165.744 73.2529C165.806 73.0611 165.926 72.8392 166.149 72.6923C166.368 72.5343 166.654 72.426 166.966 72.3515C168.234 72.0583 169.308 72.1267 169.308 72.0693C169.31 72.0461 169.045 71.9993 168.61 71.992C168.176 71.9846 167.574 72.0225 166.923 72.1723C166.597 72.2501 166.287 72.3714 166.048 72.5555C165.797 72.7354 165.669 73.0021 165.619 73.2195C165.565 73.4422 165.604 73.6417 165.677 73.7504C165.749 73.8608 165.823 73.8844 165.826 73.8771Z" fill="#6F3530"/>
<path d="M166.578 75.841C166.583 75.8267 166.514 75.8011 166.423 75.7152C166.334 75.6313 166.222 75.4782 166.201 75.2608C166.179 75.0462 166.234 74.7706 166.463 74.5971C166.683 74.4216 167.017 74.3007 167.34 74.1904C168.008 74.0043 168.663 74.089 169.129 74.0963C169.601 74.1155 169.894 74.0813 169.892 74.056C169.891 74.0304 169.603 74.0186 169.138 73.9664C168.678 73.9282 168.012 73.8146 167.288 74.0137C166.938 74.135 166.617 74.2502 166.353 74.4676C166.224 74.5751 166.132 74.7221 166.091 74.8687C166.053 75.0161 166.051 75.1541 166.072 75.2795C166.116 75.5328 166.265 75.6964 166.378 75.7713C166.495 75.8487 166.576 75.8507 166.578 75.841Z" fill="#6F3530"/>
<path d="M165.921 69.6482C165.934 69.6494 165.96 69.592 166.052 69.5081C166.14 69.4234 166.279 69.3086 166.459 69.1779C166.819 68.9247 167.34 68.5721 167.973 68.3636C168.623 68.1576 169.228 68.0424 169.661 68.1189C170.093 68.1853 170.332 68.3457 170.348 68.3152C170.359 68.3042 170.142 68.0977 169.684 67.9907C169.226 67.8746 168.573 67.9797 167.919 68.1877C166.584 68.6669 165.81 69.5879 165.921 69.6482Z" fill="#6F3530"/>
<path d="M23.503 19.3893H24.8672C25.118 19.3893 25.2592 19.2366 25.3219 19.0839L26.0902 17.4351H30.7784L31.5467 19.0839C31.6564 19.2977 31.7662 19.3893 32.0014 19.3893H33.3655C33.6007 19.3893 33.7261 19.1908 33.6321 18.9923L28.8027 8.7175C28.7557 8.6259 28.693 8.54956 28.5362 8.54956H28.3794C28.2383 8.54956 28.1599 8.6259 28.1128 8.7175L23.2365 18.9923C23.1424 19.1908 23.2679 19.3893 23.503 19.3893ZM26.8585 15.7404L28.3951 12.3816H28.4421L30.0101 15.7404H26.8585Z" fill="black"/>
<path d="M34.6738 17.5725C34.6738 18.8091 35.2069 19.5419 36.4142 19.5419C37.1825 19.5419 38.2017 19.1908 38.2801 19.145C38.4369 19.0839 38.5153 18.9312 38.4525 18.7786L38.139 17.8167C38.0919 17.6641 37.9665 17.5877 37.794 17.6488C37.6215 17.7099 37.2923 17.8167 37.0257 17.8167C36.7748 17.8167 36.5396 17.7557 36.5396 17.3282V14.8854H37.9194C38.0919 14.8854 38.2174 14.748 38.2174 14.5954V13.5725C38.2174 13.4045 38.0919 13.2824 37.9194 13.2824H36.5396V11.5725C36.5396 11.4198 36.4142 11.2824 36.2574 11.2824L34.9717 11.2977C34.8149 11.2977 34.6738 11.4351 34.6738 11.5877V13.2824H34.1407C33.9839 13.2824 33.8584 13.4045 33.8584 13.5725V14.5954C33.8584 14.748 33.9839 14.8854 34.1407 14.8854H34.6738V17.5725Z" fill="black"/>
<path d="M40.0789 17.5725C40.0789 18.8091 40.612 19.5419 41.8194 19.5419C42.5877 19.5419 43.6068 19.1908 43.6852 19.145C43.842 19.0839 43.9204 18.9312 43.8577 18.7786L43.5441 17.8167C43.4971 17.6641 43.3716 17.5877 43.1992 17.6488C43.0267 17.7099 42.6974 17.8167 42.4309 17.8167C42.18 17.8167 41.9448 17.7557 41.9448 17.3282V14.8854H43.3246C43.4971 14.8854 43.6225 14.748 43.6225 14.5954V13.5725C43.6225 13.4045 43.4971 13.2824 43.3246 13.2824H41.9448V11.5725C41.9448 11.4198 41.8194 11.2824 41.6626 11.2824L40.3768 11.2977C40.22 11.2977 40.0789 11.4351 40.0789 11.5877V13.2824H39.5458C39.389 13.2824 39.2636 13.4045 39.2636 13.5725V14.5954C39.2636 14.748 39.389 14.8854 39.5458 14.8854H40.0789V17.5725Z" fill="black"/>
<path d="M44.6844 16.3358C44.6844 18.0915 46.0172 19.5419 47.8988 19.5419C48.9179 19.5419 49.7176 19.1755 50.235 18.7022C50.3918 18.5801 50.3604 18.4122 50.2507 18.3053L49.6078 17.5877C49.4981 17.4656 49.357 17.4961 49.2002 17.5877C48.9179 17.7862 48.4632 17.9694 47.9771 17.9694C47.0677 17.9694 46.5189 17.2671 46.4719 16.6412H50.4859C50.627 16.6412 50.7681 16.5343 50.7838 16.3816C50.7995 16.2748 50.8152 16.0763 50.8152 15.9694C50.8152 14.3206 49.4981 13.1297 47.8831 13.1297C46.0172 13.1297 44.6844 14.6106 44.6844 16.3358ZM46.613 15.5725C46.6914 14.9923 47.2088 14.5343 47.836 14.5343C48.4319 14.5343 48.9336 15.0076 48.9806 15.5725H46.613Z" fill="black"/>
<path d="M52.1371 19.0992C52.1371 19.2519 52.2783 19.3893 52.4351 19.3893H53.5953C53.8933 19.3893 53.9873 19.3129 53.9873 19.0992V15.7404C54.1441 15.3282 54.6459 14.7786 55.4612 14.7786C56.2138 14.7786 56.6372 15.2824 56.6372 16.0763V19.0992C56.6372 19.2519 56.7626 19.3893 56.9351 19.3893H58.2208C58.3776 19.3893 58.5187 19.2519 58.5187 19.0992V16.1679C58.5187 14.5801 57.7191 13.1297 55.7278 13.1297C54.5204 13.1297 53.7521 13.7862 53.5169 14.0305L53.2974 13.4656C53.2504 13.3587 53.172 13.2824 53.0309 13.2824H52.4351C52.2783 13.2824 52.1371 13.4045 52.1371 13.5725V19.0992Z" fill="black"/>
<path d="M59.7975 16.3358C59.7975 18.0915 61.0989 19.5419 62.8079 19.5419C64.125 19.5419 64.862 18.6259 64.862 18.6259L65.0188 19.0992C65.0658 19.2671 65.1756 19.3893 65.3167 19.3893H65.9282C66.085 19.3893 66.2261 19.2519 66.2261 19.0992V8.99231C66.2261 8.83964 66.085 8.70223 65.9282 8.70223H64.5954C64.4386 8.70223 64.2975 8.83964 64.2975 8.99231V13.4045C64.0153 13.2977 63.5292 13.1297 62.902 13.1297C61.0362 13.1297 59.7975 14.5496 59.7975 16.3358ZM61.6163 16.3358C61.6163 15.4809 62.2592 14.7786 63.1372 14.7786C63.9212 14.7786 64.3602 15.1297 64.3602 15.1297V16.9007C64.2505 17.2671 63.8742 17.8931 63.0431 17.8931C62.2121 17.8931 61.6163 17.1908 61.6163 16.3358Z" fill="black"/>
<path d="M67.6529 17.4503C67.6529 18.748 68.5153 19.5419 69.7697 19.5419C70.7418 19.5419 71.322 19.0839 71.6826 18.7633L71.8707 19.1755C71.9491 19.3435 72.0275 19.3893 72.1373 19.3893H72.7018C72.8586 19.3893 72.9997 19.2519 72.9997 19.0992V15.7862C72.9997 14.1221 72.545 13.1297 70.585 13.1297C69.5815 13.1297 68.578 13.374 68.4526 13.4198C68.3115 13.4656 68.186 13.5725 68.2331 13.8015L68.3742 14.5954C68.4056 14.7938 68.5153 14.9312 68.7348 14.8702C69.0955 14.7633 69.9108 14.6412 70.4909 14.6412C71.0711 14.6412 71.322 14.916 71.3063 15.6946C71.3063 15.6946 70.7889 15.5267 70.1617 15.5267C68.5624 15.5267 67.6529 16.3664 67.6529 17.4503ZM69.3777 17.4503C69.3777 16.9618 69.7854 16.6259 70.3969 16.6259C70.8516 16.6259 71.2749 16.8091 71.2749 16.8091V17.6488C71.1808 17.832 70.6948 18.2442 70.193 18.2442C69.707 18.2442 69.3777 17.9083 69.3777 17.4503Z" fill="black"/>
<path d="M74.799 19.0992C74.799 19.2519 74.9401 19.3893 75.0969 19.3893H76.2572C76.5551 19.3893 76.6492 19.3129 76.6492 19.0992V15.7404C76.806 15.3282 77.3078 14.7786 78.1231 14.7786C78.8757 14.7786 79.2991 15.2824 79.2991 16.0763V19.0992C79.2991 19.2519 79.4245 19.3893 79.597 19.3893H80.8827C81.0395 19.3893 81.1806 19.2519 81.1806 19.0992V16.1679C81.1806 14.5801 80.381 13.1297 78.3896 13.1297C77.1823 13.1297 76.414 13.7862 76.1788 14.0305L75.9593 13.4656C75.9123 13.3587 75.8339 13.2824 75.6928 13.2824H75.0969C74.9401 13.2824 74.799 13.4045 74.799 13.5725V19.0992Z" fill="black"/>
<path d="M82.4437 16.3358C82.4437 18.1679 83.996 19.5419 85.7677 19.5419C86.881 19.5419 87.712 19.0686 88.2451 18.2595C88.3549 18.1068 88.2922 17.9541 88.1354 17.832L87.4611 17.2671C87.3357 17.1755 87.1789 17.206 87.0691 17.3129C86.7869 17.5725 86.489 17.8931 85.8148 17.8931C84.9681 17.8931 84.2939 17.206 84.2939 16.3358C84.2939 15.4809 84.9838 14.7786 85.8305 14.7786C86.2695 14.7786 86.6615 14.9923 86.9124 15.2671C87.0221 15.3587 87.1632 15.4351 87.3043 15.3129L88.0256 14.6412C88.1824 14.5343 88.2138 14.3511 88.104 14.2137C87.5082 13.5114 86.7556 13.1297 85.7834 13.1297C84.0273 13.1297 82.4437 14.5343 82.4437 16.3358Z" fill="black"/>
<path d="M89.1354 16.3358C89.1354 18.0915 90.4682 19.5419 92.3497 19.5419C93.3689 19.5419 94.1686 19.1755 94.686 18.7022C94.8428 18.5801 94.8114 18.4122 94.7017 18.3053L94.0588 17.5877C93.9491 17.4656 93.8079 17.4961 93.6511 17.5877C93.3689 17.7862 92.9142 17.9694 92.4281 17.9694C91.5187 17.9694 90.9699 17.2671 90.9229 16.6412H94.9369C95.078 16.6412 95.2191 16.5343 95.2348 16.3816C95.2505 16.2748 95.2661 16.0763 95.2661 15.9694C95.2661 14.3206 93.9491 13.1297 92.3341 13.1297C90.4682 13.1297 89.1354 14.6106 89.1354 16.3358ZM91.064 15.5725C91.1424 14.9923 91.6598 14.5343 92.287 14.5343C92.8829 14.5343 93.3846 15.0076 93.4316 15.5725H91.064Z" fill="black"/>
</g>
<defs>
<clipPath id="clip0_2683_9488">
<rect width="173.764" height="183.206" fill="white"/>
</clipPath>
</defs>
</svg>
