<svg width="202" height="162" viewBox="0 0 202 162" fill="none" xmlns="http://www.w3.org/2000/svg">
<path d="M142.013 107.22H44.2442C41.1894 107.22 38.7129 104.741 38.7129 101.682V22.0391C38.7129 18.9807 41.1894 16.5016 44.2442 16.5016H142.013C145.068 16.5016 147.544 18.9807 147.544 22.0391V101.682C147.544 104.741 145.068 107.22 142.013 107.22Z" fill="white"/>
<path d="M44.2451 16.6746C41.2905 16.6746 38.8865 19.081 38.8865 22.0392V101.682C38.8865 104.64 41.2905 107.047 44.2451 107.047H142.014C144.968 107.047 147.372 104.64 147.372 101.682V22.0392C147.372 19.081 144.968 16.6746 142.014 16.6746H44.2451ZM142.014 107.393H44.2451C41.0998 107.393 38.541 104.831 38.541 101.682V22.0392C38.541 18.8905 41.0998 16.3287 44.2451 16.3287H142.014C145.159 16.3287 147.718 18.8905 147.718 22.0392V101.682C147.718 104.831 145.159 107.393 142.014 107.393Z" fill="#17282F"/>
<path d="M58.2418 99.8799H55.9414V83.9241H58.2418V99.8799Z" fill="#F2575D"/>
<path d="M53.8801 99.8799H51.5801V95.8908H53.8801V99.8799Z" fill="#F2575D"/>
<path d="M62.218 99.8799H59.918V91.902H62.218V99.8799Z" fill="#F2575D"/>
<path d="M66.1343 99.8799H63.834V87.2554H66.1343V99.8799Z" fill="#F2575D"/>
<path d="M70.6457 99.8799H68.3457V96.5054H70.6457V99.8799Z" fill="#F2575D"/>
<path d="M142.285 96.947C142.328 96.8868 142.349 96.8034 142.349 96.698C142.349 96.5921 142.328 96.5091 142.285 96.4486C142.243 96.3884 142.184 96.358 142.11 96.358C142.036 96.358 141.977 96.3881 141.935 96.4472C141.892 96.5067 141.871 96.59 141.871 96.698C141.871 96.8055 141.892 96.8892 141.935 96.9484C141.977 97.0078 142.036 97.0376 142.11 97.0376C142.184 97.0376 142.243 97.0075 142.285 96.947ZM141.773 97.085C141.688 96.9867 141.645 96.8577 141.645 96.698C141.645 96.5382 141.688 96.4092 141.773 96.3109C141.858 96.2124 141.971 96.1633 142.11 96.1633C142.249 96.1633 142.361 96.2124 142.448 96.3109C142.534 96.4092 142.577 96.5382 142.577 96.698C142.577 96.8577 142.534 96.9867 142.448 97.085C142.361 97.1832 142.249 97.2323 142.11 97.2323C141.971 97.2323 141.858 97.1832 141.773 97.085ZM142.001 95.264H142.274L140.944 97.2129H140.672L142.001 95.264ZM141.01 96.0294C141.051 95.9703 141.073 95.8869 141.073 95.779C141.073 95.6714 141.051 95.5877 141.01 95.5283C140.968 95.4691 140.909 95.439 140.833 95.439C140.761 95.439 140.703 95.4695 140.659 95.5296C140.616 95.5902 140.594 95.6732 140.594 95.779C140.594 95.8848 140.616 95.9678 140.659 96.0284C140.703 96.0886 140.761 96.1186 140.833 96.1186C140.909 96.1186 140.968 96.0889 141.01 96.0294ZM140.497 96.166C140.412 96.0678 140.369 95.9388 140.369 95.779C140.369 95.6192 140.412 95.4902 140.497 95.392C140.582 95.2938 140.694 95.2443 140.833 95.2443C140.972 95.2443 141.085 95.2931 141.171 95.3906C141.257 95.4881 141.3 95.6175 141.3 95.779C141.3 95.9405 141.257 96.0702 141.171 96.1674C141.085 96.2649 140.972 96.3134 140.833 96.3134C140.694 96.3134 140.582 96.2646 140.497 96.166Z" fill="#F2575D"/>
<path d="M129.169 86.4102H136.762C137.075 86.4102 137.233 86.0325 137.014 85.8087L133.218 81.9265C133.079 81.7847 132.851 81.7847 132.713 81.9265L128.916 85.8087C128.697 86.0325 128.855 86.4102 129.169 86.4102Z" fill="#E7E8E5"/>
<path d="M135.504 93.4143H130.635V85.6858H135.504V93.4143Z" fill="#E7E8E5"/>
<path d="M133.879 99.8948V101.471H129.054V100.222L131.23 98.207C131.419 98.0292 131.545 97.877 131.608 97.7504C131.671 97.6245 131.703 97.5007 131.703 97.3804C131.703 97.231 131.653 97.1148 131.553 97.0314C131.452 96.9484 131.307 96.9069 131.118 96.9069C130.935 96.9069 130.762 96.9553 130.602 97.0528C130.441 97.1507 130.318 97.2884 130.232 97.4665L128.701 96.7001C128.93 96.2695 129.266 95.9292 129.707 95.6794C130.149 95.4297 130.682 95.3049 131.307 95.3049C131.783 95.3049 132.205 95.3824 132.572 95.5376C132.939 95.6926 133.226 95.9132 133.432 96.2007C133.638 96.4877 133.742 96.8177 133.742 97.1908C133.742 97.5239 133.671 97.8352 133.531 98.1253C133.39 98.4152 133.116 98.7437 132.709 99.1114L131.849 99.8948H133.879Z" fill="#F2575D"/>
<path d="M137.708 98.457C137.708 97.4408 137.478 96.9328 137.02 96.9328C136.561 96.9328 136.331 97.4408 136.331 98.457C136.331 99.4731 136.561 99.9812 137.02 99.9812C137.478 99.9812 137.708 99.4731 137.708 98.457ZM135.605 101.234C135.195 100.984 134.873 100.623 134.642 100.149C134.409 99.6754 134.293 99.1117 134.293 98.457C134.293 97.8023 134.409 97.2385 134.642 96.7647C134.873 96.2912 135.195 95.9294 135.605 95.6797C136.015 95.43 136.486 95.3052 137.02 95.3052C137.553 95.3052 138.025 95.43 138.435 95.6797C138.845 95.9294 139.166 96.2912 139.398 96.7647C139.63 97.2385 139.746 97.8023 139.746 98.457C139.746 99.1117 139.63 99.6754 139.398 100.149C139.166 100.623 138.845 100.984 138.435 101.234C138.025 101.484 137.553 101.609 137.02 101.609C136.486 101.609 136.015 101.484 135.605 101.234Z" fill="#F2575D"/>
<path d="M62.8928 53.4416C62.9353 53.3814 62.9567 53.2984 62.9567 53.1926C62.9567 53.0868 62.9353 53.0038 62.8928 52.9436C62.8499 52.8831 62.7919 52.853 62.7176 52.853C62.643 52.853 62.585 52.8827 62.5421 52.9422C62.4997 53.0017 62.4782 53.085 62.4782 53.1926C62.4782 53.3002 62.4997 53.3839 62.5421 53.4433C62.585 53.5028 62.643 53.5322 62.7176 53.5322C62.7919 53.5322 62.8499 53.5021 62.8928 53.4416ZM62.3808 53.5796C62.2955 53.4814 62.253 53.3524 62.253 53.1926C62.253 53.0332 62.2955 52.9042 62.3808 52.8056C62.4662 52.7074 62.5781 52.6579 62.7176 52.6579C62.8569 52.6579 62.9691 52.7074 63.0551 52.8056C63.1419 52.9042 63.185 53.0332 63.185 53.1926C63.185 53.3524 63.1419 53.4814 63.0551 53.5796C62.9691 53.6782 62.8569 53.7273 62.7176 53.7273C62.5781 53.7273 62.4662 53.6782 62.3808 53.5796ZM62.6092 51.7587H62.8814L61.5521 53.7079H61.2795L62.6092 51.7587ZM61.6174 52.5244C61.6588 52.4649 61.6802 52.3816 61.6802 52.2737C61.6802 52.1661 61.6588 52.0827 61.6174 52.0233C61.5756 51.9638 61.5169 51.934 61.4405 51.934C61.3687 51.934 61.3103 51.9645 61.2667 52.0246C61.2232 52.0852 61.2015 52.1678 61.2015 52.2737C61.2015 52.3798 61.2232 52.4625 61.2667 52.523C61.3103 52.5832 61.3687 52.6136 61.4405 52.6136C61.5169 52.6136 61.5756 52.5839 61.6174 52.5244ZM61.1044 52.661C61.0191 52.5625 60.9766 52.4334 60.9766 52.2737C60.9766 52.1142 61.0191 51.9852 61.1044 51.887C61.1897 51.7884 61.302 51.739 61.4405 51.739C61.5797 51.739 61.6927 51.7881 61.7787 51.8853C61.8651 51.9828 61.9082 52.1121 61.9082 52.2737C61.9082 52.4355 61.8651 52.5649 61.7787 52.6624C61.6927 52.7596 61.5797 52.8083 61.4405 52.8083C61.302 52.8083 61.1897 52.7592 61.1044 52.661Z" fill="#F2575D"/>
<path d="M42.4335 52.1942H49.3808C49.6672 52.1942 49.8123 51.849 49.6119 51.6439L46.1381 48.092C46.0113 47.9623 45.803 47.9623 45.6759 48.092L42.2024 51.6439C42.002 51.849 42.1467 52.1942 42.4335 52.1942Z" fill="#E7E8E5"/>
<path d="M48.2303 58.603H43.7754V51.5316H48.2303V58.603Z" fill="#E7E8E5"/>
<path d="M54.2652 52.0132V58.0411H52.2353V53.5457H51.2031V52.0132H54.2652Z" fill="#F2575D"/>
<path d="M58.4206 55.0268C58.4206 54.0107 58.1913 53.5026 57.7325 53.5026C57.2737 53.5026 57.0444 54.0107 57.0444 55.0268C57.0444 56.0433 57.2737 56.551 57.7325 56.551C58.1913 56.551 58.4206 56.0433 58.4206 55.0268ZM56.3175 57.804C55.9075 57.5543 55.5866 57.1926 55.3541 56.7191C55.1219 56.2456 55.0059 55.6815 55.0059 55.0268C55.0059 54.3724 55.1219 53.8083 55.3541 53.3349C55.5866 52.861 55.9075 52.4996 56.3175 52.2496C56.7276 51.9999 57.1991 51.875 57.7325 51.875C58.2659 51.875 58.7374 51.9999 59.1475 52.2496C59.5572 52.4996 59.8788 52.861 60.1106 53.3349C60.3431 53.8083 60.4591 54.3724 60.4591 55.0268C60.4591 55.6815 60.3431 56.2456 60.1106 56.7191C59.8788 57.1926 59.5572 57.5543 59.1475 57.804C58.7374 58.0537 58.2659 58.1786 57.7325 58.1786C57.1991 58.1786 56.7276 58.0537 56.3175 57.804Z" fill="#F2575D"/>
<path d="M71.9302 99.9566C71.9302 100.006 67.2455 100.047 61.4685 100.047C55.6891 100.047 51.0059 100.006 51.0059 99.9566C51.0059 99.9071 55.6891 99.8667 61.4685 99.8667C67.2455 99.8667 71.9302 99.9071 71.9302 99.9566Z" fill="#17282F"/>
<path d="M157.091 30.4083H110.729C109.176 30.4083 107.918 29.1484 107.918 27.5941V2.90369C107.918 1.34975 109.176 0.0894413 110.729 0.0894413H157.091C158.644 0.0894413 159.902 1.34975 159.902 2.90369V27.5941C159.902 29.1484 158.644 30.4083 157.091 30.4083Z" fill="white"/>
<path d="M157.091 30.408C157.091 30.3994 157.232 30.4073 157.5 30.3655C157.767 30.3254 158.169 30.224 158.614 29.9356C159.048 29.6458 159.535 29.147 159.756 28.3996C159.874 28.0289 159.879 27.6111 159.871 27.1618C159.87 26.7132 159.868 26.236 159.867 25.7303C159.86 21.6814 159.85 15.8284 159.838 8.59688C159.837 6.78839 159.835 4.89379 159.832 2.91964C159.842 1.9547 159.298 0.980074 158.411 0.501408C157.971 0.262421 157.47 0.144827 156.954 0.162811C156.432 0.163158 155.905 0.163513 155.374 0.163858C151.126 0.166626 146.587 0.169384 141.811 0.172152C132.258 0.174572 121.756 0.176645 110.732 0.179413C110.064 0.179413 109.404 0.433619 108.912 0.879774C108.417 1.32247 108.093 1.94813 108.025 2.60526C107.99 3.94753 108.015 5.31644 108.007 6.65594C108.007 9.3436 108.006 11.9925 108.006 14.5948C108.005 17.1973 108.004 19.7539 108.004 22.2572C108.003 23.5092 108.002 24.7477 108.002 25.9724C108.006 26.5818 107.991 27.1999 108.011 27.7923C108.049 28.3792 108.288 28.9437 108.669 29.3812C109.046 29.8225 109.568 30.1296 110.125 30.2566C110.406 30.3192 110.686 30.3313 110.983 30.3264C111.276 30.3268 111.568 30.3268 111.859 30.3268C113.023 30.3275 114.17 30.3281 115.302 30.3288C117.565 30.3302 119.762 30.3319 121.886 30.3333C126.134 30.3371 130.091 30.3409 133.704 30.3444C140.927 30.3565 146.773 30.3662 150.817 30.3731C152.834 30.3804 154.402 30.3859 155.469 30.39C155.998 30.3939 156.403 30.397 156.679 30.399C156.951 30.4018 157.091 30.408 157.091 30.408C157.091 30.408 156.951 30.4143 156.679 30.4174C156.403 30.4194 155.998 30.4222 155.469 30.426C154.402 30.4302 152.834 30.4357 150.817 30.443C146.773 30.4499 140.927 30.4596 133.704 30.4717C130.091 30.4751 126.134 30.4786 121.886 30.4827C119.762 30.4841 117.565 30.4855 115.302 30.4872C114.17 30.4879 113.023 30.4886 111.859 30.4893C111.568 30.4893 111.276 30.4897 110.983 30.4897C110.694 30.4952 110.383 30.4831 110.089 30.4167C109.497 30.2828 108.944 29.9574 108.544 29.4898C108.139 29.0267 107.885 28.427 107.844 27.8044C107.823 27.1878 107.838 26.5873 107.833 25.9724C107.833 24.7477 107.832 23.5092 107.832 22.2572C107.831 19.7539 107.83 17.1973 107.829 14.5948C107.829 11.9925 107.829 9.3436 107.828 6.65594C107.836 5.30745 107.81 3.9669 107.846 2.58589C107.919 1.88518 108.265 1.21733 108.791 0.745922C109.315 0.270369 110.021 -0.00112343 110.732 -0.000778198C121.756 0.00164413 132.258 0.00407028 141.811 0.00614548C146.587 0.00925827 151.126 0.0120258 155.374 0.0147934C155.905 0.0151386 156.432 0.0154762 156.954 0.0158234C157.482 -0.00216103 158.021 0.122351 158.481 0.375174C159.413 0.87978 159.983 1.90766 159.971 2.91964C159.969 4.89379 159.968 6.78839 159.965 8.59688C159.953 15.8284 159.944 21.6814 159.937 25.7303C159.935 26.236 159.934 26.7132 159.933 27.1618C159.938 27.6069 159.931 28.0393 159.807 28.4149C159.577 29.1751 159.077 29.6776 158.634 29.966C158.18 30.2531 157.772 30.3492 157.503 30.3838C157.368 30.408 157.264 30.4039 157.195 30.4073C157.126 30.4094 157.091 30.408 157.091 30.408Z" fill="#17282F"/>
<path d="M116.065 24.6887H114.574V19.2688H116.065V24.6887Z" fill="#F2575D"/>
<path d="M121.378 24.6887H119.887V14.885H121.378V24.6887Z" fill="#F2575D"/>
<path d="M118.896 24.6887H117.055V8.45556H118.896V24.6887Z" fill="#33535F"/>
<path d="M126.69 24.6887H125.199V20.9794H126.69V24.6887Z" fill="#F2575D"/>
<path d="M124.034 24.6887H122.543V20.9794H124.034V24.6887Z" fill="#33535F"/>
<path d="M132.002 24.6887H130.512V18.6144H132.002V24.6887Z" fill="#F2575D"/>
<path d="M129.344 24.6887H127.854V13.3408H129.344V24.6887Z" fill="#33535F"/>
<path d="M139.968 24.6887H138.477V13.3408H139.968V24.6887Z" fill="#33535F"/>
<path d="M134.657 24.6887H133.166V7.59679H134.657V24.6887Z" fill="#33535F"/>
<path d="M137.311 24.6887H135.82V20.4558H137.311V24.6887Z" fill="#F2575D"/>
<path d="M150.592 24.6887H149.102V21.5805H150.592V24.6887Z" fill="#33535F"/>
<path d="M145.28 24.6887H143.789V7.92018H145.28V24.6887Z" fill="#33535F"/>
<path d="M147.936 24.6887H146.445V11.35H147.936V24.6887Z" fill="#F2575D"/>
<path d="M142.623 24.6887H141.133V10.8655H142.623V24.6887Z" fill="#F2575D"/>
<path d="M153.246 24.6887H151.756V13.3408H153.246V24.6887Z" fill="#F2575D"/>
<path d="M117.906 26.9125H114.824C114.708 26.9125 114.613 26.8181 114.613 26.7015V26.5071C114.613 26.3906 114.708 26.2962 114.824 26.2962H117.906C118.023 26.2962 118.117 26.3906 118.117 26.5071V26.7015C118.117 26.8181 118.023 26.9125 117.906 26.9125Z" fill="#DADBD8"/>
<path d="M128.06 26.9125H124.978C124.862 26.9125 124.768 26.8181 124.768 26.7015V26.5071C124.768 26.3906 124.862 26.2962 124.978 26.2962H128.06C128.177 26.2962 128.271 26.3906 128.271 26.5068V26.7015C128.271 26.8181 128.177 26.9125 128.06 26.9125Z" fill="#DADBD8"/>
<path d="M137.02 26.9125H133.937C133.821 26.9125 133.727 26.8181 133.727 26.7015V26.5071C133.727 26.3906 133.821 26.2962 133.937 26.2962H137.02C137.136 26.2962 137.23 26.3906 137.23 26.5068V26.7015C137.23 26.8181 137.136 26.9125 137.02 26.9125Z" fill="#DADBD8"/>
<path d="M146.25 26.9125H143.168C143.051 26.9125 142.957 26.8181 142.957 26.7015V26.5071C142.957 26.3906 143.051 26.2962 143.168 26.2962H146.25C146.366 26.2962 146.461 26.3906 146.461 26.5071V26.7015C146.461 26.8181 146.366 26.9125 146.25 26.9125Z" fill="#DADBD8"/>
<path d="M154.072 26.9125H150.99C150.874 26.9125 150.779 26.8181 150.779 26.7015V26.5071C150.779 26.3906 150.874 26.2962 150.99 26.2962H154.072C154.189 26.2962 154.283 26.3906 154.283 26.5071V26.7015C154.283 26.8181 154.189 26.9125 154.072 26.9125Z" fill="#DADBD8"/>
<path d="M155.158 24.6886C155.158 24.7385 145.564 24.7786 133.73 24.7786C121.894 24.7786 112.301 24.7385 112.301 24.6886C112.301 24.6388 121.894 24.5984 133.73 24.5984C145.564 24.5984 155.158 24.6388 155.158 24.6886Z" fill="#17282F"/>
<path d="M113.702 4.3766C113.702 4.82933 113.335 5.19629 112.883 5.19629C112.431 5.19629 112.064 4.82933 112.064 4.3766C112.064 3.92387 112.431 3.55691 112.883 3.55691C113.335 3.55691 113.702 3.92387 113.702 4.3766Z" fill="#DADBD8"/>
<path d="M115.926 4.3766C115.926 4.82933 115.56 5.19629 115.108 5.19629C114.656 5.19629 114.289 4.82933 114.289 4.3766C114.289 3.92387 114.656 3.55691 115.108 3.55691C115.56 3.55691 115.926 3.92387 115.926 4.3766Z" fill="#DADBD8"/>
<path d="M118.127 4.3766C118.127 4.82933 117.761 5.19629 117.309 5.19629C116.857 5.19629 116.49 4.82933 116.49 4.3766C116.49 3.92387 116.857 3.55691 117.309 3.55691C117.761 3.55691 118.127 3.92387 118.127 4.3766Z" fill="#DADBD8"/>
<path d="M73.1816 70.4575L78.2712 81.0812L80.9332 80.3888L97.9435 94.9916L102.963 85.5009C102.963 85.5009 92.8326 80.8343 91.0152 77.1035C89.1978 73.3724 90.906 73.4806 90.906 73.4806L86.6974 66.9432L73.1816 70.4575Z" fill="#17282F"/>
<path d="M79.7637 56.2953C79.7637 56.2953 85.0999 54.7262 93.6356 48.673C99.8779 44.2457 104.758 38.9734 106.93 36.4601C107.972 35.2527 109.783 35.0656 111 36.0921C112.877 37.6768 115.466 41.6545 118.286 51.7643C123.258 69.5884 119.691 72.9781 118.195 72.709C116.699 72.4393 106.855 69.182 100.378 68.905C93.9002 68.6283 84.0283 70.5585 84.0283 70.5585L79.7637 56.2953Z" fill="#DADBD8"/>
<path d="M79.7644 56.295C79.7596 56.2926 79.7792 56.3725 79.8231 56.5316C79.8722 56.7062 79.9385 56.9424 80.0238 57.2454C80.2114 57.8953 80.4812 58.8301 80.8291 60.0365C81.5524 62.5069 82.6002 66.0862 83.9191 70.592L83.9481 70.6913L84.0507 70.6726C86.8586 70.1597 90.0709 69.6624 93.6208 69.3203C95.3957 69.1553 97.257 69.0253 99.1894 69.0343C101.121 69.0384 103.114 69.2864 105.155 69.6523C109.248 70.3741 113.477 71.6137 117.949 72.836L118.166 72.8844L118.422 72.8906C118.594 72.8982 118.744 72.8183 118.905 72.7803C119.041 72.6969 119.185 72.6195 119.313 72.5257L119.652 72.1954C120.029 71.7043 120.324 71.1509 120.486 70.5637C120.843 69.3985 120.992 68.1745 120.999 66.9519C121.05 64.5008 120.724 62.0307 120.29 59.5616C120.186 59.0138 120.083 58.4677 119.98 57.9233C119.869 57.381 119.738 56.8449 119.618 56.3081C119.387 55.2325 119.113 54.1756 118.831 53.129C118.296 51.0279 117.677 48.9832 117.011 46.9925C116.338 45.0052 115.608 43.0715 114.731 41.2481C113.855 39.4324 112.862 37.6806 111.476 36.2965C111.128 35.9672 110.73 35.6266 110.257 35.4619C109.792 35.2873 109.289 35.2188 108.804 35.2852C108.321 35.3485 107.85 35.5138 107.451 35.7881C107.041 36.0544 106.736 36.44 106.446 36.7717C105.252 38.1333 104.047 39.414 102.847 40.6169C100.45 43.0258 98.0705 45.1169 95.8033 46.8998C91.2302 50.4185 87.1943 52.8018 84.3302 54.2662C82.8959 54.998 81.7511 55.5019 80.9676 55.8229C80.5762 55.9851 80.2736 56.0982 80.0705 56.175C79.8701 56.2497 79.7578 56.2922 79.7644 56.295C79.7706 56.2981 79.8718 56.2774 80.0822 56.2106C80.2898 56.1452 80.5973 56.0432 80.9938 55.8917C81.788 55.5922 82.945 55.1077 84.3927 54.3938C87.2848 52.964 91.348 50.6108 95.9588 47.1049C98.2446 45.3286 100.643 43.241 103.058 40.8334C104.266 39.6306 105.48 38.3498 106.683 36.9858C106.989 36.6378 107.262 36.2954 107.628 36.0606C107.986 35.8147 108.41 35.6688 108.843 35.6127C109.726 35.4958 110.607 35.8545 111.246 36.5403C112.576 37.8733 113.559 39.6025 114.421 41.4007C115.286 43.2067 116.008 45.13 116.676 47.1083C117.337 49.0898 117.953 51.1293 118.484 53.2231C118.765 54.2662 119.037 55.3197 119.267 56.3904C119.386 56.9248 119.517 57.4585 119.627 57.9983C119.729 58.5396 119.831 59.0826 119.934 59.627C120.366 62.0801 120.689 64.5333 120.64 66.9429C120.635 68.1454 120.486 69.3404 120.148 70.4506C119.995 71.0133 119.716 71.521 119.384 71.9599L119.095 72.2442C118.988 72.3206 118.873 72.3805 118.764 72.4521C118.511 72.5275 118.314 72.5828 118.023 72.487C113.592 71.282 109.318 70.0394 105.211 69.3276C103.161 68.9651 101.142 68.7206 99.1908 68.7234C97.2421 68.7216 95.3739 68.8603 93.5938 69.0336C90.0329 69.3933 86.8213 69.9093 84.0072 70.444L84.1388 70.5246C82.7764 66.063 81.6944 62.519 80.9479 60.0731C80.5734 58.8633 80.2833 57.9254 80.0815 57.2731C79.9837 56.9649 79.9078 56.7245 79.8518 56.5468C79.7986 56.3828 79.7692 56.2978 79.7644 56.295Z" fill="#17282F"/>
<path d="M65.8306 71.3877L69.2958 70.8575L67.3043 66.2514L64.3887 67.8088L65.8306 71.3877Z" fill="#F2575D"/>
<path d="M66.8417 65.7853L68.3928 69.3729L69.2395 71.3308C70.4006 74.0164 73.4326 75.3109 76.1392 74.2761L90.2139 70.4174L84.496 52.5604L70.2496 57.8306C67.5161 59.0633 65.6634 62.3112 66.8417 65.7853Z" fill="#F2575D"/>
<path d="M117.769 71.0195C115.638 71.0195 112.036 63.9796 109.551 54.8355C106.967 45.332 106.568 37.1546 108.658 36.5708C108.737 36.5486 108.819 36.5376 108.903 36.5376C111.034 36.5376 114.636 43.5771 117.122 52.7213C119.705 62.2247 120.104 70.4022 118.014 70.9863C117.935 71.0085 117.853 71.0195 117.769 71.0195Z" fill="#8F9192"/>
<path d="M108.229 49.2525C108.229 49.2525 113.256 47.1003 114.793 53.7729C116.33 60.4455 111.35 60.7122 111.35 60.7122C109.856 57.2979 108.803 53.49 108.229 49.2525Z" fill="white"/>
<path d="M81.6799 59.5083C81.7103 59.6006 79.2942 60.495 76.2847 61.506C73.2741 62.5172 70.8096 63.2622 70.7796 63.1699C70.7495 63.0775 73.1649 62.1831 76.1755 61.1719C79.1851 60.1613 81.6499 59.4159 81.6799 59.5083Z" fill="#17282F"/>
<path d="M82.303 61.4747C82.333 61.5667 79.9173 62.4614 76.9077 63.4724C73.8971 64.4836 71.4327 65.2283 71.4026 65.1359C71.3722 65.0439 73.7876 64.1496 76.7986 63.1383C79.8081 62.1273 82.2729 61.3823 82.303 61.4747Z" fill="#17282F"/>
<path d="M82.926 63.441C82.9561 63.5334 80.5403 64.4278 77.5304 65.4387C74.5198 66.4503 72.0557 67.195 72.0257 67.1026C71.9953 67.0103 74.4107 66.1162 77.4213 65.1046C80.4308 64.0937 82.8956 63.3487 82.926 63.441Z" fill="#17282F"/>
<path d="M83.5452 65.4072C83.5756 65.4995 81.1595 66.3943 78.1499 67.4052C75.1393 68.4165 72.6752 69.1611 72.6448 69.0688C72.6148 68.9768 75.0301 68.0824 78.0407 67.0711C81.0503 66.0602 83.5151 65.3152 83.5452 65.4072Z" fill="#17282F"/>
<path d="M126.068 57.7903C126.048 57.8505 128.951 58.9223 132.553 60.184C136.156 61.446 139.092 62.42 139.112 62.3598C139.133 62.2996 136.23 61.2278 132.627 59.9658C129.026 58.7041 126.089 57.7298 126.068 57.7903Z" fill="#17282F"/>
<path d="M124.898 50.9684C124.908 51.0314 129.542 50.3846 135.247 49.5234C140.955 48.6622 145.573 47.9131 145.563 47.8498C145.554 47.7869 140.921 48.4336 135.214 49.2952C129.508 50.156 124.889 50.9055 124.898 50.9684Z" fill="#17282F"/>
<path d="M123.864 43.9668C123.907 44.0138 125.531 42.5626 127.49 40.7264C129.45 38.8896 131.004 37.363 130.961 37.3159C130.919 37.2693 129.295 38.7198 127.335 40.5566C125.376 42.3931 123.822 43.9201 123.864 43.9668Z" fill="#17282F"/>
<path d="M107.66 37.6026C107.647 37.6019 107.63 37.7205 107.61 37.9471C107.59 38.2161 107.566 38.5437 107.537 38.939C107.506 39.3703 107.478 39.8984 107.477 40.5123C107.472 41.1262 107.446 41.8262 107.482 42.5985C107.508 44.1448 107.644 45.9841 107.898 48.0136C108.174 50.04 108.58 52.2552 109.167 54.541C109.771 56.8233 110.498 58.9531 111.246 60.8532C112.016 62.745 112.793 64.4121 113.525 65.7696C113.87 66.4592 114.234 67.0544 114.538 67.5857C114.837 68.119 115.119 68.5641 115.357 68.9231C115.575 69.2523 115.755 69.5252 115.904 69.7493C116.032 69.9358 116.105 70.0302 116.115 70.0236C116.125 70.0167 116.073 69.9084 115.965 69.7096C115.833 69.4758 115.672 69.1918 115.477 68.8484C115.258 68.479 114.995 68.0249 114.713 67.484C114.427 66.9448 114.08 66.3437 113.751 65.6495C113.052 64.2834 112.303 62.6147 111.555 60.7277C110.829 58.8327 110.117 56.7143 109.517 54.4476C108.933 52.177 108.52 49.9791 108.228 47.9679C107.958 45.9533 107.795 44.1272 107.737 42.5895C107.685 41.8214 107.693 41.1248 107.679 40.5133C107.66 39.9015 107.668 39.3748 107.678 38.9438C107.68 38.5478 107.681 38.2203 107.682 37.9509C107.679 37.7233 107.672 37.6036 107.66 37.6026Z" fill="#17282F"/>
<path d="M154.26 81.8265C147.513 81.8265 142.043 76.3506 142.043 69.5953C142.043 62.8404 147.513 57.3641 154.26 57.3641C161.007 57.3641 166.477 62.8404 166.477 69.5953C166.477 76.3506 161.007 81.8265 154.26 81.8265Z" fill="#F2575D"/>
<path d="M159.001 71.8378C158.975 72.4067 158.88 72.7155 158.8 72.921C158.695 73.1935 158.569 73.3875 158.364 73.5919C158.161 73.796 157.966 73.9222 157.695 74.0281C157.489 74.108 157.181 74.2031 156.613 74.229C155.998 74.257 155.814 74.2629 154.258 74.2629C152.702 74.2629 152.518 74.257 151.904 74.229C151.335 74.2031 151.027 74.108 150.822 74.0281C150.55 73.9222 150.356 73.796 150.152 73.5919C149.948 73.3875 149.822 73.1935 149.716 72.921C149.636 72.7155 149.541 72.4067 149.515 71.8378C149.487 71.2228 149.481 71.0381 149.481 69.4807C149.481 67.923 149.487 67.7387 149.515 67.1234C149.541 66.5544 149.636 66.2456 149.716 66.0401C149.822 65.768 149.948 65.5736 150.152 65.3695C150.356 65.1651 150.55 65.0389 150.822 64.9331C151.027 64.8532 151.335 64.758 151.904 64.7321C152.518 64.7041 152.702 64.6982 154.258 64.6982L156.613 64.7321C157.181 64.758 157.489 64.8532 157.695 64.9331C157.966 65.0389 158.161 65.1651 158.364 65.3695C158.569 65.5736 158.695 65.768 158.8 66.0401C158.88 66.2456 158.975 66.5544 159.001 67.1234C159.029 67.7387 159.035 67.923 159.035 69.4807C159.035 71.0381 159.029 71.2228 159.001 71.8378ZM160.05 67.0753C160.022 66.4545 159.923 66.0305 159.779 65.6594C159.63 65.2761 159.431 64.9504 159.107 64.6263C158.783 64.3019 158.458 64.1023 158.075 63.9532C157.704 63.8094 157.281 63.7105 156.66 63.6821C156.039 63.6537 155.841 63.6472 154.258 63.6472C152.676 63.6472 152.477 63.6537 151.856 63.6821C151.236 63.7105 150.812 63.8094 150.441 63.9532C150.058 64.1023 149.733 64.3019 149.41 64.6263C149.086 64.9504 148.886 65.2761 148.737 65.6594C148.593 66.0305 148.495 66.4545 148.467 67.0753C148.438 67.6978 148.432 67.8964 148.432 69.4807C148.432 71.0651 148.438 71.2636 148.467 71.8858C148.495 72.5066 148.593 72.9307 148.737 73.3018C148.886 73.6853 149.086 74.0108 149.41 74.3352C149.733 74.6593 150.058 74.8588 150.441 75.0079C150.812 75.1521 151.236 75.2507 151.856 75.279C152.477 75.3074 152.676 75.314 154.258 75.314C155.841 75.314 156.039 75.3074 156.66 75.279C157.281 75.2507 157.704 75.1521 158.075 75.0079C158.458 74.8588 158.783 74.6593 159.107 74.3352C159.431 74.0108 159.63 73.6853 159.779 73.3018C159.923 72.9307 160.022 72.5066 160.05 71.8858C160.078 71.2636 160.085 71.0651 160.085 69.4807C160.085 67.8964 160.078 67.6978 160.05 67.0753Z" fill="white"/>
<path d="M154.26 71.4253C153.187 71.4253 152.317 70.5544 152.317 69.4808C152.317 68.4066 153.187 67.5361 154.26 67.5361C155.332 67.5361 156.202 68.4066 156.202 69.4808C156.202 70.5544 155.332 71.4253 154.26 71.4253ZM154.26 66.485C152.607 66.485 151.268 67.8263 151.268 69.4808C151.268 71.1351 152.607 72.4763 154.26 72.4763C155.912 72.4763 157.252 71.1351 157.252 69.4808C157.252 67.8263 155.912 66.485 154.26 66.485Z" fill="white"/>
<path d="M157.369 65.6664C156.983 65.6664 156.67 65.9797 156.67 66.3664C156.67 66.7531 156.983 67.0664 157.369 67.0664C157.755 67.0664 158.068 66.7531 158.068 66.3664C158.068 65.9797 157.755 65.6664 157.369 65.6664Z" fill="white"/>
<path d="M143.497 70.2286L127.287 70.0004L127.292 69.6545L143.502 69.8828L143.497 70.2286Z" fill="#F2575D"/>
<path d="M127.969 68.9204C128.469 69.2974 128.57 70.0085 128.193 70.5093C127.817 71.0101 127.106 71.1107 126.606 70.7337C126.106 70.3571 126.006 69.6457 126.382 69.1452C126.758 68.6444 127.469 68.5438 127.969 68.9204Z" fill="#F2575D"/>
<path d="M114.488 115.819C107.741 115.819 102.271 110.343 102.271 103.587C102.271 96.8325 107.741 91.3562 114.488 91.3562C121.236 91.3562 126.706 96.8325 126.706 103.587C126.706 110.343 121.236 115.819 114.488 115.819Z" fill="#F2575D"/>
<path d="M108.957 107.866C109.962 108.511 111.154 108.887 112.436 108.887C116.65 108.887 119.031 105.323 118.888 102.127C119.331 101.807 119.716 101.407 120.02 100.951C119.613 101.131 119.175 101.254 118.716 101.309C119.185 101.028 119.545 100.583 119.714 100.051C119.276 100.312 118.79 100.501 118.273 100.603C117.859 100.161 117.269 99.8857 116.616 99.8857C115.151 99.8857 114.075 101.254 114.405 102.676C112.519 102.581 110.847 101.677 109.727 100.301C109.133 101.323 109.419 102.659 110.43 103.335C110.058 103.324 109.707 103.221 109.401 103.051C109.377 104.104 110.131 105.088 111.222 105.308C110.902 105.395 110.553 105.415 110.197 105.347C110.486 106.25 111.324 106.906 112.317 106.925C111.363 107.674 110.161 108.008 108.957 107.866Z" fill="white"/>
<path d="M113.149 93.463L109.924 82.5038L110.255 82.406L113.481 93.3651L113.149 93.463Z" fill="#F2575D"/>
<path d="M111.224 82.2153C111.224 82.842 110.716 83.3497 110.09 83.3497C109.464 83.3497 108.957 82.842 108.957 82.2153C108.957 81.5886 109.464 81.0806 110.09 81.0806C110.716 81.0806 111.224 81.5886 111.224 82.2153Z" fill="#F2575D"/>
<path d="M84.3666 28.5676C77.4548 28.5676 71.8516 22.9578 71.8516 16.0383V16.0379C71.8516 9.118 77.4548 3.50854 84.3666 3.50854C91.2783 3.50854 96.8815 9.118 96.8815 16.0379V16.0383C96.8815 22.9578 91.2783 28.5676 84.3666 28.5676Z" fill="#F2575D"/>
<path d="M82.7652 21.6365H85.3219V15.2264H87.1058L87.2958 13.0803H85.3219C85.3219 13.0803 85.3219 12.279 85.3219 11.858C85.3219 11.3521 85.4234 11.1522 85.9122 11.1522C86.3054 11.1522 87.2958 11.1522 87.2958 11.1522V8.92449C87.2958 8.92449 85.8373 8.92449 85.5257 8.92449C83.6229 8.92449 82.7652 9.76355 82.7652 11.369C82.7652 12.7677 82.7652 13.0803 82.7652 13.0803H81.4355V15.2533H82.7652V21.6365Z" fill="white"/>
<path d="M84.822 40.9833H84.4766V26.3054H84.822V40.9833Z" fill="#F2575D"/>
<path d="M83.491 41.2596C83.6468 40.6526 84.2645 40.287 84.8704 40.443C85.4767 40.599 85.8421 41.217 85.6863 41.824C85.5305 42.431 84.9129 42.7965 84.3066 42.6409C83.7007 42.4849 83.3352 41.8665 83.491 41.2596Z" fill="#F2575D"/>
<path d="M55.0798 48.6901C48.3328 48.6901 42.8633 43.2141 42.8633 36.4588C42.8633 29.7035 48.3328 24.2276 55.0798 24.2276C61.8271 24.2276 67.297 29.7035 67.297 36.4588C67.297 43.2141 61.8271 48.6901 55.0798 48.6901Z" fill="#F2575D"/>
<path fill-rule="evenodd" clip-rule="evenodd" d="M55.1475 41.6219C54.0234 41.6219 52.9791 41.2888 52.1044 40.7123L49.9792 41.3909L50.669 39.3493C50.0068 38.4424 49.6154 37.3295 49.6154 36.1266C49.6154 35.9478 49.6248 35.7689 49.6434 35.5932C49.9142 32.8115 52.2799 30.6312 55.1475 30.6312C58.052 30.6312 60.4394 32.8669 60.6609 35.698C60.6733 35.8402 60.6795 35.9817 60.6795 36.1266C60.6795 39.158 58.1968 41.6219 55.1475 41.6219ZM61.7238 35.9602C61.6343 32.4259 58.7267 29.5892 55.1475 29.5892C51.6114 29.5892 48.7283 32.3612 48.5746 35.8402C48.5715 35.9357 48.5684 36.0311 48.5684 36.1266C48.5684 37.3634 48.9135 38.5168 49.5107 39.5035L48.7739 41.6828C48.5877 42.233 49.1055 42.7615 49.6586 42.5855L51.9686 41.8502C52.9114 42.3683 53.9954 42.6643 55.1475 42.6643C58.7823 42.6643 61.7269 39.738 61.7269 36.1266C61.7269 36.0712 61.7269 36.0159 61.7238 35.9602Z" fill="white"/>
<path fill-rule="evenodd" clip-rule="evenodd" d="M58.1645 37.4466C58.0011 37.3667 57.2093 36.978 57.0615 36.9257C56.9136 36.87 56.8058 36.8455 56.698 37.006C56.5903 37.1661 56.279 37.5272 56.1868 37.632C56.0914 37.7395 55.9988 37.752 55.8358 37.6721C55.6755 37.5919 55.1549 37.4252 54.539 36.8763C54.0616 36.454 53.7351 35.9297 53.6425 35.7692C53.5503 35.6087 53.6332 35.5226 53.7133 35.4424C53.7873 35.3683 53.8736 35.2542 53.9565 35.1619L54.0153 35.0847C54.0522 35.0259 54.0799 34.9706 54.1168 34.8935C54.1724 34.7856 54.1448 34.6929 54.1047 34.6126C54.0647 34.5327 53.741 33.7432 53.6056 33.4225C53.4733 33.1019 53.3378 33.1573 53.2421 33.1573C53.1496 33.1573 53.0418 33.1417 52.934 33.1417C52.8262 33.1417 52.6507 33.1818 52.5029 33.3423C52.355 33.5024 51.9395 33.8912 51.9395 34.6808C51.9395 34.8658 51.9733 35.0505 52.0224 35.2265C52.1858 35.791 52.5367 36.2565 52.5986 36.3367C52.6784 36.4415 53.7133 38.1131 55.3522 38.7574C56.9937 39.3959 56.9937 39.1831 57.2894 39.1551C57.5851 39.1306 58.2446 38.7698 58.3766 38.3936C58.5123 38.0204 58.5123 37.6998 58.4723 37.632C58.4322 37.567 58.3244 37.5272 58.1645 37.4466Z" fill="white"/>
<path d="M67.6504 51.6315L60.1797 42.9947L60.4409 42.7682L67.9116 51.4053L67.6504 51.6315Z" fill="#F2575D"/>
<path d="M66.8503 52.2066C66.5908 51.6363 66.8423 50.9636 67.412 50.7039C67.9816 50.4445 68.6538 50.6962 68.9129 51.2666C69.1724 51.8369 68.9209 52.5096 68.3509 52.7693C67.7812 53.0291 67.1093 52.7769 66.8503 52.2066Z" fill="#F2575D"/>
<path d="M193.971 152.55H171.507C168.968 152.55 166.91 150.489 166.91 147.947V128.372C166.91 125.83 168.968 123.769 171.507 123.769H193.971C194.902 123.769 195.658 124.525 195.658 125.458V150.861C195.658 151.794 194.902 152.55 193.971 152.55Z" fill="#33535F"/>
<path d="M193.969 152.55H171.506C170.642 152.55 169.833 152.311 169.143 151.896L172.617 149.995L171.181 146.473C172.98 145.287 174.841 144.061 176.75 142.804L176.813 142.762L176.78 142.694C175.841 140.709 174.897 138.665 173.957 136.584C173.125 134.739 172.319 132.91 171.558 131.1C171.059 129.92 170.586 128.747 170.148 127.577C175.355 126.501 182.588 124.937 186.602 123.769H193.969C194.901 123.769 195.656 124.525 195.656 125.458V150.861C195.656 151.794 194.901 152.55 193.969 152.55Z" fill="#20353D"/>
<path d="M187.585 152.55H163.146C162.373 152.55 161.746 151.923 161.746 151.148V125.17C161.746 124.396 162.373 123.769 163.146 123.769H187.585C188.358 123.769 188.985 124.396 188.985 125.17V151.148C188.985 151.923 188.358 152.55 187.585 152.55Z" fill="#33535F"/>
<path d="M158.363 89.0671C158.363 89.0671 155.329 86.4223 154.516 85.9668C153.703 85.5113 152.315 85.7849 151.087 85.5968C149.858 85.4086 148.111 84.5796 147.669 84.8203C147.145 85.1056 147.692 86.2975 149.573 87.0379L149.026 86.9888L147.688 87.096C147.688 87.096 147.194 86.3666 146.772 86.3718C146.169 86.3794 146.186 86.8761 146.186 86.8761C146.186 86.8761 145.272 85.798 144.97 86.9636C144.97 86.9636 143.895 86.5569 143.821 87.371C143.821 87.371 143.583 88.024 145.883 88.2024C145.883 88.2024 147.839 90.0417 148.319 90.2288C148.799 90.4163 150.462 90.159 150.462 90.159C150.462 90.159 150.948 90.8583 151.459 90.8877C152.43 90.943 154.922 90.7746 154.922 90.7746L155.905 91.9474L158.363 89.0671Z" fill="#F9A78D"/>
<path d="M150.519 90.1781C150.529 90.1705 150.438 90.036 150.283 89.7911C150.135 89.5459 149.893 89.1827 149.823 88.6802C149.751 88.1773 149.979 87.5749 150.408 87.0533C150.514 86.9208 150.629 86.7894 150.75 86.6573C150.874 86.5273 150.993 86.3796 151.129 86.2824C151.265 86.18 151.427 86.1679 151.548 86.28C151.672 86.3854 151.718 86.5643 151.71 86.7486C151.686 87.2591 151.413 87.7329 151.041 88.0117L150.957 88.0743L151.037 88.1417C151.291 88.3572 151.504 88.5993 151.675 88.8486L151.719 88.9123L151.782 88.8694C152.569 88.3368 153.35 88.0926 153.899 87.9802C154.452 87.8678 154.783 87.865 154.781 87.8429C154.781 87.8349 154.699 87.8284 154.545 87.8291C154.391 87.8315 154.165 87.8446 153.882 87.8892C153.319 87.9771 152.514 88.2047 151.696 88.7407L151.803 88.7618C151.628 88.499 151.409 88.243 151.145 88.0151L151.14 88.1448C151.554 87.8387 151.855 87.3258 151.882 86.7545C151.893 86.5466 151.839 86.3021 151.661 86.1503C151.577 86.0749 151.459 86.0247 151.339 86.0292C151.22 86.033 151.115 86.0846 151.032 86.144C150.863 86.2682 150.753 86.4152 150.628 86.5466C150.507 86.6815 150.391 86.8167 150.283 86.9551C149.846 87.4988 149.607 88.1538 149.703 88.6968C149.795 89.235 150.063 89.5919 150.227 89.8288C150.402 90.0643 150.51 90.1843 150.519 90.1781Z" fill="#F57F62"/>
<path d="M147.516 86.9312C147.48 86.962 147.889 87.5095 148.43 88.1538C148.569 88.3136 148.688 88.4689 148.83 88.6034C148.975 88.7397 149.149 88.8092 149.296 88.8289C149.449 88.8472 149.563 88.8106 149.637 88.7877C149.712 88.7628 149.751 88.7424 149.748 88.731C149.746 88.7189 149.702 88.7175 149.625 88.7217C149.549 88.7248 149.438 88.7383 149.318 88.7089C149.196 88.6771 149.056 88.61 148.94 88.4886C148.822 88.3665 148.699 88.2012 148.562 88.0424C148.021 87.3981 147.553 86.9007 147.516 86.9312Z" fill="#F57F62"/>
<path d="M148.422 89.9761C148.459 89.9401 147.855 89.2902 147.224 88.4021C146.589 87.5167 146.17 86.7343 146.124 86.7575C146.084 86.7752 146.439 87.6031 147.084 88.5024C147.724 89.404 148.392 90.0082 148.422 89.9761Z" fill="#F57F62"/>
<path d="M146.51 88.7792C146.536 88.7471 146.163 88.34 145.728 87.8077C145.287 87.2806 144.93 86.8525 144.892 86.8794C144.852 86.9071 145.151 87.3865 145.596 87.9184C146.035 88.4548 146.475 88.8211 146.51 88.7792Z" fill="#F57F62"/>
<path d="M150.123 87.1219C150.129 87.0749 149.85 87.0175 149.5 86.9939C149.15 86.9704 148.865 86.9901 148.863 87.0379C148.862 87.0856 149.141 87.143 149.486 87.1658C149.832 87.189 150.117 87.1693 150.123 87.1219Z" fill="#F57F62"/>
<path d="M175.771 80.9419C175.771 80.9419 172.539 80.7012 170.662 84.4731C169.421 86.9674 165.646 93.693 165.646 93.693L158.222 87.4502L153.871 92.1622C153.871 92.1622 161.301 101.022 164.188 101.694C167.074 102.366 170.476 100.404 171.541 98.8929C172.607 97.3815 176.153 93.693 176.153 93.693L175.771 80.9419Z" fill="#F2575D"/>
<path d="M176.672 88.9287L177.188 80.5756C177.203 74.0911 176.536 66.5888 177.329 64.4683C178.792 60.5522 184.045 59.7117 184.045 59.7117C191.133 58.9878 192.567 64.4143 193.435 69.3705C193.582 70.2113 193.985 71.7009 194.493 73.4219C195.654 77.0025 197.087 80.671 199.789 83.0467C200.82 83.9532 201.533 85.2509 201.802 86.598C202.07 87.9454 201.401 89.5993 200.055 89.8667C200.765 90.5044 201.16 91.4794 201.093 92.4326C201.026 93.3854 200.499 94.2957 199.707 94.8277C198.59 95.5771 197.137 95.5367 195.798 95.4229C194.467 95.3098 193.07 95.1251 192 94.3248C190.927 93.5227 190.353 92.2275 189.907 90.9637C189.371 89.4416 188.956 87.877 188.666 86.2895L176.672 88.9287Z" fill="#17282F"/>
<path d="M183.79 61.5456L184.295 61.1946L188.748 63.8449C189.429 63.9891 189.886 64.6314 189.801 65.3234L186.869 80.6923C186.713 81.7437 186.862 82.7359 186.1 83.4754L180.88 88.3834C179.049 90.1584 179.873 85.7549 179.01 83.354C178.95 83.1863 179.403 82.6657 179.395 82.5519C179.391 82.4098 179.367 82.3133 179.378 82.1947C179.429 80.9264 179.588 79.8446 179.588 79.8446C179.714 78.4632 179.773 77.8974 179.771 77.9102C179.771 77.9102 176.914 77.1254 176.704 73.266C176.6 71.3465 177.068 68.8007 177.567 66.3008C178.256 62.8408 180.994 61.1098 183.79 61.5456Z" fill="#F9A78D"/>
<path d="M182.688 69.5641C182.652 69.8204 182.84 70.0618 183.106 70.104C183.372 70.1462 183.617 69.9733 183.653 69.717C183.689 69.4607 183.501 69.219 183.235 69.1768C182.969 69.1346 182.724 69.3079 182.688 69.5641Z" fill="#17282F"/>
<path d="M177.938 68.8146C177.902 69.0709 178.09 69.3123 178.356 69.3545C178.622 69.3967 178.867 69.2238 178.903 68.9675C178.938 68.7112 178.751 68.4695 178.485 68.4273C178.219 68.3851 177.974 68.5583 177.938 68.8146Z" fill="#17282F"/>
<path d="M177.89 67.5536C177.944 67.6235 178.341 67.3887 178.864 67.444C179.388 67.4921 179.744 67.8016 179.807 67.7435C179.838 67.7179 179.789 67.5969 179.634 67.4575C179.482 67.3191 179.213 67.1721 178.887 67.1393C178.561 67.1075 178.274 67.1991 178.104 67.306C177.93 67.4129 177.864 67.5221 177.89 67.5536Z" fill="#17282F"/>
<path d="M182.947 68.2422C183.008 68.3061 183.379 68.0315 183.905 68.0333C184.43 68.027 184.816 68.2982 184.874 68.2339C184.901 68.2052 184.841 68.09 184.672 67.9676C184.506 67.8451 184.224 67.7265 183.896 67.7279C183.569 67.7296 183.293 67.8503 183.134 67.9738C182.973 68.0983 182.917 68.2138 182.947 68.2422Z" fill="#17282F"/>
<path d="M180.773 71.7466C180.779 71.7172 180.459 71.627 179.939 71.5049C179.807 71.4772 179.683 71.4374 179.67 71.3437C179.649 71.2438 179.719 71.1054 179.8 70.9567C179.959 70.6458 180.126 70.32 180.301 69.9786C181 68.5848 181.521 67.4331 181.464 67.4054C181.408 67.3778 180.796 68.4852 180.097 69.8787C179.928 70.2228 179.766 70.5507 179.612 70.8647C179.546 71.0113 179.441 71.1749 179.489 71.3824C179.514 71.4862 179.605 71.5689 179.688 71.601C179.771 71.636 179.846 71.6453 179.912 71.656C180.439 71.7397 180.768 71.776 180.773 71.7466Z" fill="#17282F"/>
<path d="M179.768 77.91C179.768 77.91 182.303 78.3395 184.988 77.0803C184.988 77.0803 183.439 79.5763 179.68 78.8275L179.768 77.91Z" fill="#F57F62"/>
<path d="M183.006 66.1002C183.054 66.2447 183.581 66.1922 184.196 66.2849C184.813 66.3647 185.305 66.5602 185.39 66.4343C185.429 66.3737 185.346 66.2368 185.149 66.0922C184.953 65.948 184.639 65.8072 184.27 65.755C183.901 65.7035 183.56 65.7526 183.332 65.8373C183.103 65.9224 182.986 66.0313 183.006 66.1002Z" fill="#17282F"/>
<path d="M178.227 65.4481C178.305 65.5909 178.396 65.5494 178.899 65.6694C179.406 65.7742 180.163 66.0042 180.291 65.9074C180.348 65.859 180.31 65.7262 180.152 65.5698C179.996 65.4145 179.713 65.2485 179.366 65.1711C179.019 65.0939 178.694 65.1244 178.49 65.1998C178.283 65.2748 178.195 65.3796 178.227 65.4481Z" fill="#17282F"/>
<path d="M188.686 71.9198C188.686 71.9198 186.35 72.3459 184.198 65.8714C183.471 63.6856 183.439 61.0623 183.439 61.0623L184.322 60.9385C184.322 60.9385 189.34 63.2294 189.418 63.3093C189.496 63.3892 190.322 66.2304 190.322 66.2304L188.686 71.9198Z" fill="#17282F"/>
<path d="M188.068 71.5733C188.098 71.2904 188.494 70.6579 188.777 70.6433C189.534 70.6043 190.87 70.8031 190.687 72.6984C190.436 75.2889 187.89 74.5024 187.893 74.4277C187.895 74.3693 187.965 72.5494 188.068 71.5733Z" fill="#F9A78D"/>
<path d="M188.777 73.5231C188.789 73.5159 188.819 73.5591 188.891 73.6016C188.963 73.6428 189.088 73.6788 189.228 73.6411C189.511 73.5674 189.783 73.1551 189.841 72.6893C189.87 72.4541 189.843 72.2248 189.777 72.0308C189.717 71.8336 189.607 71.6894 189.471 71.6517C189.338 71.6067 189.232 71.6797 189.194 71.7492C189.152 71.8184 189.163 71.872 189.149 71.8748C189.141 71.8806 189.098 71.8264 189.129 71.7212C189.145 71.6707 189.181 71.6126 189.247 71.5687C189.314 71.5241 189.407 71.5075 189.502 71.5268C189.7 71.56 189.862 71.7613 189.934 71.9744C190.017 72.1892 190.054 72.4475 190.021 72.7118C189.954 73.2319 189.639 73.6947 189.255 73.7666C189.068 73.7964 188.921 73.7268 188.849 73.658C188.775 73.5864 188.767 73.5269 188.777 73.5231Z" fill="#F57F62"/>
<path d="M189.229 74.7062C189.234 75.0749 188.939 75.3772 188.571 75.3817C188.203 75.3862 187.901 75.0911 187.897 74.7225C187.892 74.3541 188.187 74.0518 188.555 74.0473C188.923 74.0428 189.225 74.3379 189.229 74.7062Z" fill="#33535F"/>
<path d="M197.322 62.6276C196.608 61.7408 195.365 61.3383 194.254 61.5835C193.155 61.8263 192.212 62.6833 191.865 63.7554L191.551 70.2752C191.982 70.464 192.523 70.3634 192.858 70.0324C193.192 69.7014 193.299 69.1608 193.116 68.7271C193.425 69.2335 194.058 69.5302 194.638 69.4102C195.218 69.2905 195.691 68.7427 195.693 68.1496C195.694 67.6692 195.37 67.2092 194.933 67.0286C195.936 67.1995 197.032 66.7025 197.565 65.8254C198.156 64.8525 198.036 63.514 197.322 62.6276Z" fill="#17282F"/>
<path d="M192.653 68.8072C192.656 68.812 192.615 68.837 192.534 68.8802C192.453 68.9193 192.338 68.994 192.174 69.0535C191.857 69.1935 191.368 69.3405 190.747 69.4028C190.127 69.4678 189.373 69.4163 188.578 69.1901C187.785 68.9628 186.956 68.5451 186.232 67.9194C185.516 67.2861 184.976 66.5363 184.607 65.8C184.234 65.0637 184.015 64.3481 183.892 63.739C183.768 63.1296 183.727 62.6267 183.72 62.2798C183.712 62.1066 183.722 61.9717 183.723 61.8807C183.727 61.7894 183.731 61.7417 183.736 61.7417C183.749 61.7417 183.756 61.9333 183.782 62.2767C183.807 62.6202 183.865 63.1161 184.001 63.7152C184.136 64.3138 184.363 65.0145 184.736 65.7336C185.106 66.4526 185.638 67.1827 186.336 67.8008C187.04 68.4091 187.847 68.821 188.619 69.0503C189.394 69.2786 190.129 69.3412 190.738 69.2914C191.967 69.198 192.64 68.7619 192.653 68.8072Z" fill="#33535F"/>
<path d="M192.762 69.6346C192.778 69.6443 192.709 69.8023 192.535 70.0189C192.363 70.235 192.074 70.4992 191.698 70.6988C191.322 70.8973 190.941 70.9869 190.666 71.0077C190.389 71.0295 190.22 70.9976 190.221 70.9793C190.217 70.9298 190.905 70.9482 191.625 70.5594C192.35 70.1835 192.724 69.6035 192.762 69.6346Z" fill="#33535F"/>
<path d="M193.386 69.4396C193.363 69.4427 193.305 69.1037 193.201 68.5587C193.098 68.0136 192.943 67.2638 192.731 66.4458C192.517 65.6275 192.287 64.8971 192.112 64.371C191.937 63.845 191.823 63.5206 191.844 63.5116C191.863 63.504 192.014 63.8142 192.217 64.333C192.42 64.8518 192.669 65.5822 192.883 66.406C193.097 67.2295 193.236 67.9883 193.311 68.5407C193.387 69.0927 193.406 69.4371 193.386 69.4396Z" fill="#33535F"/>
<path d="M182.211 73.4379C182.212 73.2439 182.129 73.061 182.01 72.9268C181.772 72.658 181.381 72.5812 181.065 72.7407C180.749 72.9005 180.527 73.2868 180.529 73.6745C180.661 73.9197 180.888 74.1044 181.159 74.1663C181.201 74.1756 181.244 74.1833 181.287 74.1881C181.496 74.2113 181.717 74.1701 181.897 74.0383C182.077 73.9069 182.209 73.6773 182.211 73.4379Z" fill="#F57F62"/>
<path d="M182.041 72.4608C181.959 72.4494 181.913 72.9993 181.41 73.3511C180.909 73.7045 180.328 73.5942 180.317 73.671C180.307 73.7049 180.439 73.7886 180.686 73.8155C180.927 73.8439 181.288 73.7951 181.595 73.58C181.902 73.3642 182.052 73.0547 182.089 72.8305C182.129 72.6023 182.079 72.4608 182.041 72.4608Z" fill="#17282F"/>
<path d="M175.398 80.939C175.398 80.939 171.409 86.3295 171.08 88.1986C170.751 90.0676 171.677 102.147 172.155 104.235L169.066 111.189L174.347 112.427L191.894 112.127L191.155 100.564L192.932 92.8797L193.113 82.7707L186.871 80.6924C185.235 84.003 179.844 82.9166 179.555 80.2684L175.398 80.939Z" fill="#F2575D"/>
<path d="M193.109 82.7707C193.109 82.7707 195.258 83.5454 196.491 86.0259C197.485 88.0246 200.212 96.6832 200.889 98.8735C201.635 101.289 201.874 103.341 200.512 105.003C200.119 105.481 200.053 106.057 197.182 107.256C194.34 108.443 186.802 110.729 186.802 110.729L185.23 106.824L194.491 101.136L191.815 93.9184L193.109 82.7707Z" fill="#F2575D"/>
<path d="M193.804 90.1775C193.851 90.1896 193.291 92.5051 192.555 95.3487C191.817 98.1934 191.182 100.489 191.135 100.477C191.089 100.465 191.648 98.1495 192.386 95.3048C193.122 92.4612 193.757 90.1654 193.804 90.1775Z" fill="#17282F"/>
<path d="M177.284 107.898L178.038 107.542L177.756 107.886C177.756 107.886 177.391 108.274 177.504 108.701C177.616 109.129 178.4 109.221 178.4 109.221C178.4 109.221 178.331 109.672 178.625 110.063C178.899 110.429 179.945 110.161 179.945 110.161L179.801 110.474C179.624 110.808 180.05 111.222 180.248 111.272C180.446 111.323 181.213 111.106 181.559 110.879C181.905 110.651 183.177 110.753 183.177 110.753C183.177 110.753 184.77 111.262 185.448 111.019C186.125 110.776 186.322 110.283 186.322 110.283C186.322 110.283 186.208 107.298 185.232 106.824C184.735 106.582 181.839 105.47 180.977 105.102C180.686 104.977 180.359 104.97 180.063 105.082C179.126 105.436 177.426 106.145 177.001 106.47C177.001 106.47 176.258 106.938 176.406 107.384C176.492 107.641 176.731 108.009 177.284 107.898Z" fill="#F9A78D"/>
<path d="M179.476 106.537C179.488 106.554 179.15 106.817 178.722 107.126C178.294 107.435 177.938 107.672 177.926 107.656C177.914 107.64 178.252 107.376 178.68 107.067C179.108 106.758 179.465 106.521 179.476 106.537Z" fill="#F57F62"/>
<path d="M180.245 108.186C180.254 108.206 179.82 108.397 179.314 108.687C178.809 108.978 178.413 109.24 178.401 109.221C178.395 109.213 178.488 109.139 178.645 109.027C178.802 108.917 179.023 108.77 179.278 108.624C179.534 108.478 179.774 108.363 179.951 108.289C180.129 108.214 180.242 108.177 180.245 108.186Z" fill="#F57F62"/>
<path d="M181.321 109.387C181.33 109.405 181.009 109.602 180.604 109.828C180.198 110.055 179.861 110.224 179.852 110.207C179.842 110.189 180.163 109.991 180.569 109.765C180.974 109.539 181.311 109.37 181.321 109.387Z" fill="#F57F62"/>
<path d="M171.876 85.0835C171.883 85.0845 171.88 85.1437 171.87 85.2557C171.855 85.3878 171.837 85.549 171.815 85.7437C171.761 86.1667 171.692 86.7796 171.617 87.5377C171.467 89.0536 171.33 91.1554 171.35 93.4792C171.373 95.8037 171.549 97.903 171.729 99.4158C171.817 100.172 171.898 100.784 171.959 101.206C171.985 101.4 172.006 101.56 172.023 101.693C172.036 101.804 172.04 101.863 172.033 101.864C172.027 101.866 172.012 101.808 171.988 101.699C171.961 101.568 171.929 101.409 171.89 101.217C171.807 100.798 171.708 100.188 171.603 99.4317C171.39 97.9196 171.193 95.8137 171.17 93.4809C171.15 91.1488 171.308 89.0398 171.491 87.5242C171.582 86.7657 171.671 86.1543 171.746 85.7337C171.781 85.5407 171.81 85.3813 171.834 85.2502C171.856 85.1399 171.87 85.0825 171.876 85.0835Z" fill="#17282F"/>
<path d="M163.488 148.184L167.374 154.117C167.374 154.117 162.855 160.055 163.47 161.221L174.85 154.109L169.162 144.616L163.488 148.184Z" fill="#33535F"/>
<path d="M170.582 151.408C170.84 151.332 171.148 151.494 171.236 151.756C171.325 152.018 171.173 152.337 170.916 152.417C170.659 152.497 170.285 152.315 170.225 152.045C170.166 151.775 170.365 151.411 170.634 151.396" fill="#DADBD8"/>
<path d="M174.849 154.109L174.24 153.175L163.556 160.343C163.556 160.343 163.188 160.888 163.469 161.221L174.849 154.109Z" fill="#17282F"/>
<path d="M167.151 154.173C167.187 154.229 167.481 154.081 167.866 154.096C168.252 154.099 168.544 154.26 168.581 154.205C168.626 154.162 168.335 153.87 167.868 153.862C167.401 153.849 167.107 154.127 167.151 154.173Z" fill="white"/>
<path d="M166.27 155.43C166.291 155.493 166.591 155.441 166.927 155.566C167.266 155.681 167.473 155.914 167.527 155.877C167.585 155.853 167.419 155.493 166.999 155.345C166.579 155.194 166.238 155.374 166.27 155.43Z" fill="white"/>
<path d="M166.485 157.331C166.543 157.312 166.447 156.976 166.113 156.751C165.781 156.522 165.444 156.562 165.449 156.624C165.447 156.692 165.718 156.755 165.989 156.945C166.264 157.127 166.427 157.36 166.485 157.331Z" fill="white"/>
<path d="M166.411 152.723C166.466 152.76 166.673 152.522 167.001 152.348C167.324 152.166 167.635 152.122 167.634 152.055C167.641 151.994 167.274 151.93 166.891 152.141C166.506 152.348 166.356 152.695 166.411 152.723Z" fill="white"/>
<path d="M175.191 112.127C175.191 112.127 156.497 118.367 153.424 120.852C150.949 122.853 151.276 128.593 152.712 130.884C153.297 131.816 166.209 153.503 166.209 153.503L172.619 149.995L163.984 128.819C163.984 128.819 185.074 124.719 188.976 122.96C193.807 120.782 192.26 115.76 192.26 115.76L191.414 112.127H175.191Z" fill="#17282F"/>
<path d="M168.254 142.298L172.14 148.231C172.14 148.231 167.62 154.169 168.235 155.335L179.616 148.223L173.928 138.73L168.254 142.298Z" fill="#33535F"/>
<path d="M175.348 145.522C175.606 145.446 175.914 145.607 176.002 145.87C176.091 146.132 175.938 146.451 175.682 146.531C175.425 146.611 175.05 146.429 174.991 146.159C174.932 145.888 175.131 145.524 175.399 145.51" fill="#DADBD8"/>
<path d="M179.617 148.223L179.008 147.288L168.324 154.457C168.324 154.457 167.956 155.002 168.236 155.335L179.617 148.223Z" fill="#17282F"/>
<path d="M172.135 148.287C172.172 148.343 172.465 148.195 172.851 148.209C173.237 148.213 173.528 148.374 173.566 148.319C173.61 148.276 173.319 147.984 172.852 147.975C172.386 147.963 172.091 148.241 172.135 148.287Z" fill="white"/>
<path d="M171.238 149.576C171.259 149.64 171.559 149.587 171.895 149.712C172.235 149.827 172.442 150.061 172.496 150.024C172.554 150 172.388 149.639 171.967 149.492C171.548 149.341 171.206 149.521 171.238 149.576Z" fill="white"/>
<path d="M171.456 151.504C171.514 151.485 171.417 151.149 171.084 150.924C170.752 150.696 170.414 150.735 170.42 150.798C170.417 150.864 170.688 150.928 170.959 151.118C171.235 151.3 171.397 151.533 171.456 151.504Z" fill="white"/>
<path d="M171.526 147.202C171.581 147.239 171.788 147.001 172.116 146.827C172.44 146.646 172.75 146.602 172.749 146.535C172.756 146.473 172.389 146.409 172.006 146.62C171.622 146.827 171.472 147.174 171.526 147.202Z" fill="white"/>
<path d="M155.059 112.667C153.985 113.659 152.342 116.909 154.091 120.725C155.2 123.145 170.497 146.823 170.497 146.823L176.704 142.731C176.704 142.731 171.386 131.569 169.612 126.343C168.263 122.367 165.263 116.24 165.07 115.838L174.71 112.293C174.71 112.293 164.406 109.017 160.655 109.82C156.905 110.622 155.059 112.667 155.059 112.667Z" fill="#17282F"/>
<path d="M155.058 112.667C155.058 112.667 155.138 112.568 155.318 112.401C155.497 112.233 155.774 111.994 156.163 111.716C156.937 111.163 158.176 110.441 159.92 109.96C160.139 109.905 160.364 109.85 160.594 109.792C160.829 109.749 161.073 109.723 161.321 109.687C161.82 109.654 162.346 109.638 162.892 109.678C163.984 109.739 165.16 109.897 166.408 110.132C168.905 110.596 171.701 111.3 174.73 112.228L174.925 112.287L174.733 112.358C171.822 113.432 168.568 114.632 165.096 115.913L165.14 115.804C165.885 117.334 166.63 118.925 167.367 120.572C168.099 122.221 168.83 123.924 169.477 125.705C170.089 127.496 170.793 129.29 171.559 131.1C172.32 132.91 173.126 134.739 173.957 136.584C174.897 138.665 175.841 140.709 176.781 142.694L176.814 142.762L176.751 142.804C174.615 144.211 172.538 145.579 170.543 146.894L170.472 146.94L170.426 146.869C167.341 142.083 164.479 137.609 161.927 133.585C159.377 129.561 157.129 125.992 155.321 122.987C154.873 122.232 154.443 121.521 154.085 120.816C153.759 120.098 153.531 119.388 153.408 118.706C153.296 118.023 153.268 117.378 153.309 116.79C153.363 116.203 153.459 115.673 153.6 115.213C153.875 114.288 154.262 113.64 154.553 113.235C154.851 112.831 155.058 112.667 155.058 112.667C155.058 112.667 155.016 112.717 154.929 112.81C154.84 112.901 154.721 113.049 154.577 113.252C154.295 113.661 153.92 114.309 153.655 115.229C153.519 115.687 153.429 116.214 153.379 116.795C153.343 117.378 153.375 118.016 153.49 118.691C153.616 119.365 153.846 120.067 154.171 120.776C154.528 121.469 154.962 122.181 155.413 122.932C157.231 125.927 159.49 129.489 162.049 133.508C164.609 137.525 167.479 141.995 170.567 146.778L170.45 146.753C172.445 145.437 174.521 144.068 176.655 142.659L176.625 142.769C175.683 140.782 174.739 138.738 173.799 136.656C172.966 134.809 172.16 132.98 171.399 131.168C170.634 129.357 169.927 127.552 169.317 125.763C168.673 123.988 167.945 122.286 167.216 120.639C166.482 118.993 165.74 117.403 164.997 115.873L164.959 115.794L165.042 115.764C168.516 114.49 171.772 113.296 174.686 112.228L174.688 112.359C171.668 111.425 168.876 110.713 166.388 110.24C165.144 110.001 163.972 109.838 162.886 109.773C162.344 109.73 161.823 109.743 161.329 109.773C161.084 109.807 160.844 109.831 160.612 109.872C160.382 109.928 160.158 109.982 159.94 110.035C158.204 110.502 156.965 111.209 156.187 111.749C155.796 112.021 155.515 112.254 155.331 112.416C155.174 112.56 155.101 112.628 155.058 112.667Z" fill="#33535F"/>
<path d="M162.808 113.545C162.832 113.508 163.48 113.911 164.124 114.59C164.771 115.266 165.143 115.932 165.104 115.954C165.061 115.983 164.631 115.372 163.997 114.71C163.367 114.046 162.777 113.587 162.808 113.545Z" fill="#33535F"/>
<path d="M168.252 142.298C168.249 142.297 168.279 142.276 168.342 142.233C168.413 142.187 168.507 142.126 168.625 142.048C168.887 141.878 169.259 141.639 169.734 141.332C170.72 140.702 172.136 139.798 173.892 138.677L173.946 138.642L173.979 138.698C175.5 141.222 177.474 144.5 179.688 148.178L179.733 148.251L179.66 148.297C178.183 149.221 176.617 150.2 175.006 151.208C172.639 152.685 170.37 154.102 168.278 155.407L168.196 155.458L168.158 155.375C168.058 155.156 168.091 154.94 168.129 154.748C168.168 154.551 168.232 154.367 168.3 154.186C168.44 153.827 168.606 153.488 168.78 153.161C169.13 152.506 169.508 151.897 169.883 151.316C170.638 150.158 171.385 149.118 172.086 148.192L172.083 148.267C170.895 146.426 169.931 144.933 169.259 143.889C168.935 143.383 168.682 142.986 168.503 142.707C168.423 142.579 168.359 142.477 168.311 142.401C168.269 142.332 168.248 142.297 168.252 142.298C168.255 142.299 168.281 142.335 168.329 142.404C168.382 142.482 168.452 142.583 168.539 142.713C168.727 142.991 168.991 143.386 169.33 143.89C170.012 144.916 170.988 146.385 172.191 148.196L172.216 148.233L172.189 148.27C171.497 149.198 170.757 150.242 170.011 151.399C169.64 151.979 169.267 152.588 168.923 153.236C168.752 153.561 168.59 153.896 168.455 154.246C168.389 154.42 168.329 154.599 168.293 154.781C168.254 154.959 168.24 155.154 168.308 155.296L168.188 155.263C170.279 153.955 172.546 152.536 174.911 151.056C176.523 150.049 178.09 149.071 179.567 148.149L179.538 148.268C177.34 144.58 175.381 141.294 173.872 138.762L173.959 138.784C172.201 139.872 170.785 140.749 169.797 141.36C169.31 141.659 168.929 141.892 168.66 142.057C168.534 142.133 168.435 142.192 168.36 142.238C168.291 142.278 168.255 142.299 168.252 142.298Z" fill="#17282F"/>
<path d="M191.912 114.265L191.416 112.135L191.912 114.265ZM191.894 112.126L191.847 111.406H191.848L191.894 112.126Z" fill="#A7A9A8"/>
<path d="M174.813 112.253L174.729 112.227C173.76 111.931 172.815 111.657 171.896 111.406H191.846L191.892 112.126H191.412L191.414 112.135L191.412 112.126H175.189C175.189 112.126 175.056 112.171 174.813 112.253Z" fill="#CC4341"/>
<path d="M191.909 114.265L172.992 112.999C173.584 112.781 174.164 112.567 174.731 112.357L174.923 112.287L174.812 112.253C175.056 112.171 175.188 112.126 175.188 112.126H191.411L191.413 112.135L191.909 114.265Z" fill="#0F191D"/>
<path d="M172.646 112.976L169.851 112.789L155.676 112.128C155.819 112.014 155.988 111.886 156.186 111.749C156.342 111.641 156.518 111.525 156.711 111.406H171.404C172.403 111.676 173.434 111.974 174.494 112.299C173.892 112.519 173.275 112.745 172.646 112.976Z" fill="#0F191D"/>
<path d="M172.992 112.999L172.645 112.976C173.274 112.745 173.891 112.519 174.492 112.299C173.433 111.974 172.402 111.676 171.403 111.406H171.896C172.815 111.657 173.76 111.931 174.729 112.228L174.813 112.253L174.923 112.287L174.731 112.358C174.164 112.567 173.584 112.781 172.992 112.999ZM155.675 112.128L155.65 112.127L156.664 111.406H156.71C156.516 111.525 156.341 111.641 156.185 111.749C155.987 111.887 155.818 112.014 155.675 112.128Z" fill="#20353D"/>
<path d="M192.868 96.7498C192.877 96.7467 192.928 96.8566 193.014 97.0638C193.107 97.2976 193.226 97.5964 193.371 97.9599C193.677 98.7609 194.091 99.8442 194.573 101.107L194.597 101.17L194.538 101.206C193.796 101.664 192.986 102.165 192.137 102.689C190.372 103.773 188.77 104.745 187.605 105.442C187.041 105.775 186.575 106.05 186.222 106.258C185.893 106.447 185.708 106.547 185.701 106.536C185.695 106.526 185.868 106.406 186.185 106.198C186.53 105.978 186.987 105.686 187.539 105.333C188.686 104.609 190.278 103.62 192.042 102.536C192.895 102.015 193.707 101.519 194.451 101.064L194.416 101.165C193.959 99.8933 193.566 98.8021 193.276 97.9952C193.149 97.6251 193.045 97.3208 192.963 97.0825C192.893 96.8694 192.86 96.7532 192.868 96.7498Z" fill="#17282F"/>
<path d="M153.054 94.8286L171.885 95.7642C172.496 95.7898 173.067 96.1079 173.134 96.7166L174.623 110.547L184.325 110.95C184.637 110.963 184.88 111.227 184.867 111.54C184.854 111.853 184.59 112.096 184.278 112.083L174.745 111.687L172.936 111.612L153.29 110.795L151.773 96.2006C151.691 95.447 152.298 94.7971 153.054 94.8286Z" fill="#DADBD8"/>
<path d="M153.051 94.8289C153.051 94.8289 152.949 94.8117 152.754 94.8445C152.563 94.8805 152.261 94.9846 152.014 95.2921C151.891 95.4425 151.794 95.6462 151.756 95.8845C151.715 96.1259 151.775 96.385 151.794 96.663C151.849 97.2219 151.913 97.8652 151.986 98.5884C152.281 101.487 152.706 105.665 153.229 110.802L153.234 110.852L153.285 110.854C161.303 111.192 171.84 111.636 183.347 112.121C183.618 112.132 183.887 112.143 184.156 112.155C184.281 112.165 184.455 112.165 184.588 112.091C184.725 112.023 184.833 111.903 184.892 111.762C185.017 111.48 184.896 111.121 184.631 110.967C184.506 110.884 184.334 110.87 184.211 110.87L183.812 110.853C182.75 110.809 181.7 110.766 180.663 110.723C178.589 110.637 176.57 110.554 174.623 110.474L174.693 110.54C174.156 105.586 173.655 100.965 173.206 96.8204C173.195 96.5586 173.089 96.2712 172.887 96.0875C172.69 95.8973 172.435 95.7901 172.18 95.7396C171.919 95.6888 171.669 95.6998 171.421 95.6811C171.173 95.669 170.926 95.6573 170.682 95.6455C169.704 95.5981 168.758 95.5525 167.847 95.5086C166.024 95.4211 164.339 95.3405 162.808 95.2671C159.751 95.1243 157.313 95.0105 155.635 94.9324C154.801 94.896 154.156 94.868 153.716 94.849C153.5 94.8411 153.336 94.8348 153.22 94.8307C153.108 94.8272 153.051 94.8289 153.051 94.8289C153.051 94.8289 153.108 94.8362 153.219 94.8438C153.335 94.8511 153.499 94.8611 153.714 94.8746C154.155 94.8995 154.799 94.9355 155.633 94.9822C157.31 95.0707 159.747 95.199 162.804 95.3602C164.334 95.439 166.02 95.5255 167.842 95.6196C168.753 95.6659 169.699 95.7143 170.677 95.7645C170.921 95.7769 171.167 95.7894 171.416 95.8022C171.663 95.8209 171.919 95.8122 172.155 95.8599C172.393 95.9077 172.627 96.0083 172.8 96.1774C172.979 96.3462 173.067 96.5755 173.08 96.8339C173.523 100.98 174.017 105.601 174.547 110.555L174.554 110.618L174.617 110.621C176.563 110.702 178.583 110.787 180.657 110.874C181.694 110.917 182.744 110.961 183.805 111.005L184.204 111.022C184.345 111.024 184.449 111.034 184.553 111.097C184.754 111.215 184.846 111.488 184.751 111.704C184.707 111.811 184.623 111.903 184.519 111.955C184.411 112.011 184.305 112.012 184.163 112.002C183.894 111.991 183.624 111.98 183.354 111.969C171.846 111.498 161.308 111.066 153.29 110.738L153.345 110.79C152.801 105.656 152.358 101.479 152.051 98.5818C151.973 97.859 151.903 97.2161 151.843 96.6578C151.821 96.3787 151.761 96.1207 151.798 95.8904C151.832 95.66 151.923 95.4612 152.041 95.3131C152.277 95.0105 152.57 94.9023 152.757 94.8615C152.949 94.8234 153.052 94.8362 153.051 94.8289Z" fill="#17282F"/>
<path d="M163.295 103.058C163.268 103.71 162.718 104.216 162.067 104.19C161.416 104.163 160.91 103.612 160.937 102.96C160.964 102.308 161.514 101.801 162.165 101.828C162.816 101.855 163.322 102.406 163.295 103.058Z" fill="white"/>
<path d="M173.817 111.521C173.79 111.525 173.336 108 172.802 103.649C172.268 99.2974 171.857 95.7679 171.884 95.7644C171.911 95.7613 172.365 99.2853 172.899 103.637C173.433 107.988 173.844 111.518 173.817 111.521Z" fill="#17282F"/>
<path d="M23.5418 142.406L23.2769 149.383C23.2769 149.383 30.2709 151.995 30.3472 153.289L16.818 153.261L16.7852 142.374L23.5418 142.406Z" fill="#17282F"/>
<path d="M19.0962 148.787C18.834 148.858 18.6526 149.153 18.7127 149.418C18.7728 149.683 19.0703 149.87 19.3335 149.804C19.5967 149.737 19.8254 149.391 19.7359 149.134C19.6465 148.877 19.2855 148.676 19.0457 148.804" fill="#DADBD8"/>
<path d="M16.8184 153.261L16.8581 152.163L29.8149 152.601C29.8149 152.601 30.4167 152.865 30.3476 153.289L16.8184 153.261Z" fill="#33535F"/>
<path d="M23.4985 149.314C23.4961 149.38 23.1655 149.409 22.8401 149.621C22.5092 149.825 22.3409 150.111 22.2801 150.085C22.2193 150.072 22.3188 149.676 22.7175 149.427C23.1137 149.174 23.5127 149.253 23.4985 149.314Z" fill="white"/>
<path d="M24.9144 149.905C24.9293 149.969 24.6429 150.081 24.418 150.36C24.1849 150.633 24.1275 150.935 24.0619 150.932C23.9997 150.943 23.9548 150.555 24.2412 150.213C24.5244 149.869 24.9131 149.842 24.9144 149.905Z" fill="white"/>
<path d="M25.7174 151.607C25.6576 151.621 25.5661 151.29 25.7367 150.928C25.9046 150.565 26.2162 150.423 26.2442 150.478C26.2815 150.533 26.0805 150.727 25.9451 151.026C25.8027 151.322 25.7834 151.601 25.7174 151.607Z" fill="white"/>
<path d="M23.3812 147.718C23.3536 147.778 23.0506 147.686 22.6772 147.711C22.3031 147.728 22.0122 147.853 21.978 147.796C21.94 147.748 22.224 147.504 22.6644 147.481C23.1042 147.455 23.4137 147.666 23.3812 147.718Z" fill="white"/>
<path d="M6.97917 141.458L6.24657 149.872L7.58385 156.695C7.68033 157.187 7.34055 157.657 6.84424 157.72C6.56612 157.755 6.29017 157.655 6.10073 157.449C4.895 156.133 0.48349 151.269 0.571614 150.656C0.673626 149.946 0.755808 141.729 0.755808 141.729L6.97917 141.458Z" fill="#17282F"/>
<path d="M6.84377 157.72L0.60759 150.087L0.584755 150.444C0.564926 150.752 0.653742 151.059 0.838593 151.307C1.3329 151.97 2.73778 153.772 6.07487 157.447C6.26904 157.661 6.5585 157.764 6.84377 157.72Z" fill="#33535F"/>
<path d="M2.20884 148.366C2.10817 148.366 2.0083 148.336 1.92774 148.275C1.72344 148.119 1.65342 147.732 1.8267 147.542C1.92101 147.439 2.07929 147.38 2.22991 147.38C2.35565 147.38 2.47615 147.421 2.54956 147.512C2.71959 147.68 2.75278 147.976 2.61163 148.171C2.52016 148.297 2.36349 148.366 2.20884 148.366Z" fill="#9BA6A6"/>
<path d="M5.15738 153.913C5.20353 153.94 5.42158 153.511 5.93762 153.305C6.44729 153.085 6.90488 153.233 6.91876 153.182C6.9274 153.162 6.82498 153.089 6.62986 153.049C6.43648 153.008 6.14976 153.017 5.86662 153.134C5.58394 153.252 5.37477 153.449 5.26737 153.615C5.15807 153.782 5.13686 153.905 5.15738 153.913Z" fill="white"/>
<path d="M5.6841 155.081C5.72172 155.12 6.00954 154.863 6.45297 154.766C6.89438 154.66 7.26505 154.765 7.28194 154.713C7.30906 154.672 6.91528 154.467 6.41141 154.586C5.90646 154.699 5.64171 155.056 5.6841 155.081Z" fill="white"/>
<path d="M4.1334 152.395C4.17037 152.438 4.61095 152.041 5.28741 151.83C5.96066 151.608 6.54966 151.675 6.55494 151.618C6.57152 151.574 5.95351 151.417 5.2309 151.653C4.50611 151.881 4.0944 152.369 4.1334 152.395Z" fill="white"/>
<path d="M4.14345 149.819C4.16259 149.871 4.64018 149.706 5.24686 149.723C5.85381 149.732 6.32397 149.916 6.34529 149.865C6.37106 149.825 5.90294 149.548 5.25076 149.537C4.59872 149.521 4.11927 149.778 4.14345 149.819Z" fill="white"/>
<path d="M4.29381 147.343C4.31675 147.394 4.80239 147.143 5.43974 147.213C6.07869 147.269 6.50577 147.61 6.53803 147.565C6.55299 147.549 6.46784 147.437 6.28095 147.312C6.09568 147.187 5.8015 147.063 5.45795 147.028C5.11426 146.995 4.80159 147.059 4.59539 147.145C4.38784 147.231 4.28234 147.324 4.29381 147.343Z" fill="white"/>
<path d="M5.45441 146.741C5.46508 146.742 5.49151 146.63 5.4864 146.423C5.48087 146.217 5.4409 145.913 5.28666 145.572C5.20585 145.409 5.12395 145.202 4.89616 145.076C4.78282 145.012 4.60726 145.022 4.50052 145.128C4.39443 145.23 4.35435 145.366 4.34288 145.5C4.31739 146.035 4.74285 146.582 5.33903 146.698C5.93831 146.803 6.50724 146.493 6.77576 146.046C6.8358 145.93 6.88129 145.786 6.82516 145.639C6.77009 145.491 6.60262 145.423 6.48078 145.436C6.22829 145.458 6.06136 145.592 5.90767 145.689C5.60243 145.904 5.40718 146.138 5.29111 146.307C5.17439 146.477 5.13379 146.585 5.14309 146.59C5.17117 146.614 5.38235 146.19 5.98042 145.798C6.13045 145.709 6.30439 145.595 6.48537 145.59C6.5736 145.587 6.64701 145.627 6.67361 145.699C6.70155 145.77 6.67709 145.874 6.62555 145.965C6.39928 146.33 5.87866 146.612 5.37343 146.516C4.87025 146.424 4.49672 145.942 4.51319 145.511C4.51872 145.407 4.55285 145.304 4.61223 145.246C4.67054 145.189 4.75459 145.178 4.83018 145.214C4.98981 145.291 5.08816 145.475 5.16862 145.628C5.4837 146.27 5.41648 146.747 5.45441 146.741Z" fill="white"/>
<path d="M30.0594 83.5964C30.0594 83.5964 31.0851 87.5727 30.713 92.4171C30.569 94.2917 24.2507 146.149 24.2507 146.149H15.7201L18.1179 97.4103L17.4194 97.5621C17.4194 97.5621 12.7627 118.349 12.3827 121.715C12.0414 124.74 8.11421 146.717 8.11421 146.717L0.314453 146.807L2.80546 117.737L5.70428 89.844L6.79487 81.7243L30.0594 83.5964Z" fill="#17282F"/>
<path d="M18.3422 94.1673C18.3387 94.1714 18.3574 94.1911 18.3975 94.2254C18.4393 94.2565 18.507 94.2987 18.6054 94.3239C18.7982 94.3793 19.1202 94.3509 19.4145 94.132C19.7212 93.9165 19.9047 93.4873 19.9669 93.0284C20.028 92.5642 20.037 92.0651 20.0719 91.5374C20.1292 90.4825 20.1717 89.5269 20.1942 88.8352C20.2166 88.1431 20.2194 87.7146 20.1962 87.7132C20.1734 87.7122 20.1296 88.1383 20.0771 88.8286C20.0242 89.5189 19.9631 90.4735 19.9057 91.5284C19.8715 92.0537 19.8656 92.5628 19.8152 93.0073C19.763 93.4489 19.6048 93.838 19.3426 94.039C19.0856 94.2482 18.7979 94.2921 18.6189 94.2603C18.4348 94.2316 18.3519 94.1517 18.3422 94.1673Z" fill="#33535F"/>
<path d="M5.79498 89.153C5.79242 89.163 5.87633 89.1969 6.03396 89.2391C6.19142 89.2816 6.42408 89.3276 6.71567 89.3536C7.29565 89.4089 8.1277 89.3543 8.96421 89.0174C9.80127 88.6812 10.4399 88.1441 10.8206 87.7028C11.013 87.4818 11.1495 87.2878 11.2337 87.1477C11.3183 87.008 11.3555 86.9257 11.3466 86.9201C11.3226 86.9042 11.1327 87.2107 10.7344 87.6229C10.3401 88.0345 9.71111 88.5381 8.90227 88.8632C8.09399 89.1886 7.29202 89.2605 6.72282 89.2363C6.15027 89.2145 5.80133 89.1246 5.79498 89.153Z" fill="#33535F"/>
<path d="M27.1975 86.9837C27.1798 86.9857 27.1944 87.3195 27.3267 87.8411C27.4576 88.3616 27.7301 89.064 28.1848 89.7512C28.6418 90.4374 29.1831 90.961 29.6118 91.2834C30.0409 91.6078 30.3424 91.7506 30.3511 91.7351C30.3898 91.6915 29.2118 91.0188 28.3229 89.6592C27.4158 88.3128 27.2524 86.965 27.1975 86.9837Z" fill="#33535F"/>
<path d="M25.8412 31.6589C26.6119 31.7076 27.3695 31.1041 27.4952 30.3411C27.621 29.5778 27.0976 28.7627 26.3521 28.5607C26.804 28.0474 26.8827 27.2395 26.5383 26.6481C26.1942 26.0574 25.4529 25.7278 24.7841 25.8689C24.7219 25.1962 24.287 24.5702 23.6783 24.2783C23.07 23.9864 22.3103 24.0386 21.7476 24.4114C20.971 23.8103 19.7696 23.8473 19.0313 24.4948C18.3708 24.4069 17.6751 24.7922 17.3977 25.3985C17.1206 26.0051 17.2847 26.7844 17.7829 27.227" fill="#17282F"/>
<path d="M18.7723 26.0676L19.118 26.0503C22.5988 25.877 25.6291 28.4087 26.0813 31.8687C26.5017 35.0865 26.9252 38.6471 26.9898 40.3813C27.1235 43.9726 23.5661 44.709 23.5661 44.709L24.0832 49.0056L15.3699 49.1685L13.8244 33.5693C13.3183 29.8586 15.0535 26.4712 18.7723 26.0676Z" fill="#BA6258"/>
<path d="M23.5952 44.7027C23.5952 44.7027 21.3128 44.9545 18.8301 43.56C18.8301 43.56 20.1186 46.1535 23.6795 45.6524L23.5952 44.7027Z" fill="#6F3530"/>
<path d="M25.3248 35.2966C25.3479 35.5667 25.1386 35.8091 24.857 35.8382C24.5762 35.8672 24.3295 35.6725 24.3064 35.4024C24.2836 35.1323 24.4929 34.8899 24.7738 34.8605C25.055 34.8311 25.302 35.0265 25.3248 35.2966Z" fill="#17282F"/>
<path d="M25.3976 33.6631C25.3375 33.7329 24.9357 33.4649 24.3847 33.4936C23.8341 33.5147 23.4437 33.8183 23.3809 33.754C23.3501 33.7253 23.4088 33.6015 23.5781 33.4645C23.7453 33.3279 24.0348 33.1892 24.3778 33.1733C24.7212 33.1584 25.0159 33.2705 25.1883 33.3916C25.3641 33.5133 25.4277 33.6312 25.3976 33.6631Z" fill="#17282F"/>
<path d="M20.4537 35.513C20.4769 35.7831 20.2672 36.0255 19.986 36.0546C19.7051 36.084 19.4581 35.8889 19.4353 35.6188C19.4122 35.3487 19.6219 35.1059 19.9027 35.0768C20.1839 35.0474 20.4309 35.2428 20.4537 35.513Z" fill="#17282F"/>
<path d="M20.2418 34.0351C20.1816 34.1053 19.7788 33.8372 19.2285 33.8663C18.6782 33.887 18.2879 34.191 18.2247 34.1264C18.1939 34.098 18.252 33.9738 18.4223 33.8369C18.5891 33.7006 18.8786 33.5616 19.2216 33.546C19.565 33.5308 19.86 33.6429 20.0324 33.7639C20.2075 33.8857 20.2715 34.0039 20.2418 34.0351Z" fill="#17282F"/>
<path d="M22.1904 38.0256C22.1859 37.9945 22.5255 37.918 23.0768 37.8195C23.2167 37.798 23.3487 37.7634 23.3673 37.6659C23.3957 37.5628 23.3293 37.4138 23.253 37.2533C23.1038 36.9192 22.9476 36.5688 22.7839 36.2015C22.1303 34.7036 21.6498 33.4689 21.7102 33.443C21.771 33.4174 22.3496 34.6106 23.0029 36.1085C23.1608 36.4782 23.3114 36.8307 23.4551 37.1675C23.5162 37.3249 23.6168 37.502 23.5553 37.7168C23.5228 37.8236 23.4233 37.9052 23.3342 37.9343C23.2454 37.9661 23.1666 37.9717 23.0972 37.9793C22.54 38.037 22.1938 38.0567 22.1904 38.0256Z" fill="#17282F"/>
<path d="M20.3603 31.8895C20.2946 32.0327 19.8148 31.9047 19.2327 31.9147C18.6503 31.9116 18.166 32.0455 18.1059 31.903C18.0793 31.8348 18.1763 31.7041 18.3802 31.5817C18.5826 31.4596 18.8942 31.3572 19.2434 31.3548C19.5923 31.3531 19.9001 31.4513 20.0977 31.5713C20.2971 31.6913 20.3893 31.821 20.3603 31.8895Z" fill="#17282F"/>
<path d="M25.3128 31.3872C25.203 31.5183 24.7418 31.4107 24.195 31.4318C23.6474 31.437 23.1894 31.5664 23.0764 31.4408C23.0267 31.3793 23.093 31.2503 23.2895 31.1216C23.483 30.9936 23.8115 30.8802 24.1877 30.8712C24.5639 30.8626 24.8952 30.9597 25.0918 31.0787C25.2911 31.1977 25.3612 31.3236 25.3128 31.3872Z" fill="#17282F"/>
<path d="M25.6563 30.2398C25.6563 30.2398 24.5996 28.0395 23.491 27.5687C22.149 26.9991 21.6563 28.4673 20.3903 28.1799C19.1238 27.8925 17.8426 27.3457 16.6145 28.3756C15.27 29.5028 15.9612 30.2125 15.954 31.8093C15.9246 38.2827 14.8375 40.1669 14.3514 37.1428C14.2982 36.8114 13.3617 36.5922 13.1552 35.1914C12.8871 33.375 12.7068 31.1622 13.0494 29.8469C13.3382 28.7377 13.9224 27.9526 14.9964 27.0655C16.6912 25.6651 19.1073 25.5168 20.7571 25.6005C22.407 25.6842 25.6663 27.4183 25.6563 30.2398Z" fill="#17282F"/>
<path d="M14.5761 37.0334C14.526 36.4808 14.0275 36.0671 13.4789 36.147C12.8136 36.2438 12.0885 36.6609 12.2011 38.042C12.4011 40.4917 14.8165 39.7851 14.8148 39.7145C14.8141 39.6668 14.6687 38.0579 14.5761 37.0334Z" fill="#BA6258"/>
<path d="M14.2072 38.8364C14.1958 38.8295 14.1668 38.87 14.0973 38.9091C14.03 38.9468 13.9108 38.9789 13.7795 38.9416C13.5132 38.8679 13.262 38.4747 13.214 38.034C13.1895 37.8116 13.2189 37.5955 13.2835 37.4136C13.3436 37.2278 13.4489 37.0933 13.5774 37.0598C13.7042 37.0189 13.8027 37.0895 13.8383 37.1559C13.8769 37.222 13.8652 37.2721 13.8787 37.2752C13.8859 37.2808 13.9277 37.2296 13.8997 37.1303C13.8856 37.0822 13.8524 37.0269 13.7909 36.9847C13.7284 36.9415 13.64 36.9242 13.5501 36.9415C13.3626 36.9702 13.2071 37.1576 13.136 37.3579C13.0548 37.5595 13.0164 37.8027 13.0441 38.0527C13.1 38.5449 13.3899 38.9862 13.7522 39.0595C13.9281 39.0906 14.0673 39.0266 14.1367 38.963C14.2075 38.8963 14.2158 38.8402 14.2072 38.8364Z" fill="#6F3530"/>
<path d="M14.3859 32.2773C14.7148 32.4792 15.0623 32.6868 15.4475 32.7058C15.833 32.7245 16.2606 32.4824 16.3062 32.0988C16.327 31.9266 16.2755 31.7305 16.3809 31.5928C16.507 31.4285 16.7564 31.4655 16.963 31.4773C17.6791 31.5174 18.4726 30.6881 18.6197 29.9853C18.8146 30.2485 19.217 30.3111 19.483 30.1198C19.7494 29.9286 19.8447 29.8224 20.0475 29.5651C20.2506 29.3074 20.5415 29.0719 20.8679 29.1016C21.0503 29.1185 21.2251 29.2182 21.4068 29.1929C21.7271 29.1483 21.8656 28.763 21.8984 28.4407C21.9312 28.1187 21.9506 27.7434 22.2145 27.5563C22.4591 27.3827 22.7911 27.4595 23.0895 27.4885C23.388 27.5172 23.7669 27.4287 23.8284 27.1351C23.8606 26.9808 23.7877 26.8238 23.6968 26.6955C23.2854 26.1131 22.4397 25.8869 21.7934 26.1871C21.5132 25.3881 20.7246 24.7946 19.8803 24.748C19.036 24.7009 18.1865 25.2031 17.82 25.9661C17.2787 25.5213 16.5163 25.3615 15.842 25.551C15.168 25.7406 14.6004 26.2749 14.3693 26.9365C13.7655 26.8093 13.0974 27.0738 12.744 27.5805C12.3906 28.0869 12.3723 28.8062 12.6994 29.3302C12.2714 29.6038 11.9163 30.061 11.9322 30.5694C11.9484 31.0775 12.4676 31.5589 12.9505 31.4009C12.7723 31.8062 12.9599 32.335 13.3533 32.5367C13.7472 32.7386 14.2854 32.5823 14.5096 32.2008" fill="#17282F"/>
<path d="M22.0119 26.8998L22.0133 26.9447C22.0116 26.9745 22.0123 27.0191 22.0043 27.0765C21.9874 27.191 21.9501 27.3611 21.8499 27.5579C21.7487 27.7523 21.5881 27.9792 21.3352 28.1653C21.0879 28.3531 20.7434 28.5038 20.3455 28.5018L20.3845 28.4454C20.4709 28.6515 20.4626 28.9043 20.369 29.1254C20.2809 29.3498 20.1348 29.5518 19.9793 29.7496C19.8995 29.8447 19.8315 29.9554 19.7192 30.0446C19.6097 30.1308 19.4763 30.184 19.3378 30.2082C19.0632 30.2573 18.7471 30.1875 18.535 29.9647L18.6255 29.934C18.5871 30.4247 18.3343 30.9266 17.909 31.2458C17.6845 31.426 17.4012 31.5436 17.1173 31.5498C16.8333 31.5612 16.5656 31.491 16.3155 31.4149L16.3797 31.3831C16.263 31.6947 16.0736 31.9648 15.837 32.1692C15.6052 32.3729 15.2895 32.5013 14.9948 32.4445C14.4103 32.3505 14.0027 31.8881 13.9028 31.4384L13.9598 31.4616C13.6804 31.6325 13.3733 31.6629 13.1238 31.6273C12.871 31.5941 12.6689 31.4945 12.5234 31.3942C12.3773 31.2918 12.2885 31.1832 12.2347 31.1081C12.1849 31.0296 12.1635 30.9857 12.1663 30.9843C12.178 30.9736 12.2568 31.1666 12.5466 31.3599C12.691 31.4519 12.8882 31.5419 13.1311 31.5681C13.3712 31.5972 13.6617 31.5612 13.9194 31.398L13.964 31.37L13.9761 31.4211C14.0749 31.8403 14.4666 32.2716 15.0083 32.3525C15.2753 32.401 15.5527 32.2865 15.7724 32.0935C15.9932 31.9009 16.1738 31.6408 16.2819 31.3478L16.2989 31.3015L16.3459 31.3157C16.5922 31.3897 16.8506 31.455 17.1128 31.444C17.3753 31.4364 17.6296 31.3319 17.8437 31.1611C18.2455 30.8588 18.4832 30.3895 18.5215 29.9246L18.5308 29.8077L18.6117 29.8938C18.791 30.0848 19.0739 30.1525 19.3209 30.109C19.4449 30.0879 19.5634 30.0408 19.6587 29.9668C19.752 29.8956 19.8232 29.7863 19.9043 29.6901C20.0598 29.4954 20.2018 29.301 20.2857 29.0921C20.3752 28.8853 20.3831 28.6633 20.3085 28.4765L20.2857 28.4188L20.3476 28.4198C20.7224 28.4264 21.0547 28.2891 21.2965 28.1123C21.5439 27.938 21.7048 27.7222 21.8095 27.5365C22.014 27.1543 21.994 26.8949 22.0119 26.8998Z" fill="#33535F"/>
<path d="M22.1646 39.9191C22.1463 39.8281 21.5497 39.9844 20.9918 39.585C20.4328 39.1869 20.3323 38.5329 20.248 38.5502C20.2083 38.5516 20.1693 38.7224 20.2328 38.9929C20.2929 39.2588 20.4788 39.6213 20.8201 39.8658C21.1617 40.1089 21.5431 40.1518 21.7932 40.1076C22.0485 40.0647 22.1788 39.9588 22.1646 39.9191Z" fill="#17282F"/>
<path d="M41.6022 74.5788H43.1187C43.4935 74.0102 43.8735 73.903 44.6622 73.4357C46.6717 72.246 49.3499 71.2852 49.9206 71.7428C50.4913 72.2003 49.789 72.7036 49.5693 72.8409C49.3499 72.9782 47.4182 73.7311 47.5059 74.3612C47.5937 74.9914 53.8999 76.1279 54.1793 76.7304C54.5552 77.5404 53.886 77.8714 51.2078 77.4138L50.4474 77.2792C50.4474 77.2792 50.8865 77.9201 50.4036 78.4233C49.9206 78.9266 49.5254 78.6979 49.5254 78.6979C49.5254 78.6979 49.5693 79.2928 48.9547 79.5671C48.3402 79.8417 48.0783 79.5671 48.0783 79.5671C48.0783 79.5671 48.2238 81.0785 46.891 80.8485C45.6906 80.6413 44.8684 80.6413 43.6849 80.3944C43.1522 80.2834 42.6948 80.0236 42.6948 80.0236L41.1942 79.4502C40.9489 78.3697 41.4871 74.8707 41.6022 74.5788Z" fill="#BA6258"/>
<path d="M49.5265 78.6976C49.5047 78.7125 49.3182 78.3998 48.8173 78.1193C48.5741 77.972 48.2622 77.8264 47.9419 77.6012C47.7878 77.4895 47.6106 77.3612 47.498 77.1541C47.4445 77.052 47.4085 76.933 47.4148 76.8061C47.4193 76.6788 47.4776 76.5502 47.5657 76.4592C47.7433 76.2707 48.0037 76.2178 48.2207 76.2327C48.4428 76.2465 48.637 76.3008 48.8239 76.3503C49.1966 76.4533 49.5192 76.5951 49.7721 76.7425C50.026 76.8895 50.2098 77.0416 50.3273 77.1547C50.4451 77.2678 50.4972 77.3425 50.49 77.3495C50.4692 77.3726 50.2195 77.1098 49.7134 76.8504C49.4616 76.721 49.1462 76.5962 48.7824 76.5045C48.601 76.4606 48.4055 76.4115 48.2127 76.4025C48.021 76.3918 47.822 76.4402 47.6918 76.5782C47.5585 76.711 47.5612 76.912 47.6483 77.0752C47.7333 77.2381 47.8863 77.3602 48.0359 77.4722C48.3343 77.6932 48.6418 77.8516 48.8829 78.0159C49.1268 78.1764 49.3037 78.3428 49.4035 78.4738C49.503 78.6063 49.5348 78.6931 49.5265 78.6976Z" fill="#6F3530"/>
<path d="M47.0021 74.7774C47.0218 74.7816 46.9962 75.0077 46.8725 75.3526C46.7502 75.6963 46.5129 76.1529 46.1478 76.579C45.7809 77.0044 45.3653 77.307 45.0437 77.4792C44.7217 77.6529 44.502 77.7117 44.4948 77.693C44.4675 77.6439 45.3118 77.298 46.0165 76.4659C46.7333 75.6452 46.9499 74.7573 47.0021 74.7774Z" fill="#6F3530"/>
<path d="M48.0811 79.5672C48.0701 79.5876 47.8777 79.508 47.5958 79.3285C47.4552 79.2379 47.2911 79.1245 47.1222 78.9772C46.9546 78.835 46.7715 78.6306 46.6934 78.3674C46.6105 78.1094 46.6268 77.8223 46.7584 77.6114C46.8886 77.3962 47.1108 77.2997 47.2845 77.28C47.6541 77.2413 47.8241 77.4447 47.8041 77.4502C47.792 77.4775 47.6117 77.3361 47.3049 77.4011C47.1581 77.4329 46.9885 77.5228 46.8959 77.6926C46.7998 77.8604 46.7878 78.0931 46.8586 78.3152C46.9266 78.5414 47.0728 78.7129 47.2296 78.8592C47.3847 79.0059 47.5377 79.1269 47.6662 79.2282C47.925 79.4295 48.0932 79.5457 48.0811 79.5672Z" fill="#6F3530"/>
<path d="M47.1716 80.6412C47.1568 80.6599 47.0034 80.5703 46.7664 80.4095C46.5388 80.2549 46.1702 80.0253 45.9978 79.5739C45.9173 79.3505 45.9211 79.1098 46.003 78.9158C46.081 78.7183 46.2503 78.5889 46.3985 78.5457C46.5488 78.498 46.6814 78.5166 46.7595 78.5512C46.839 78.5858 46.869 78.6245 46.8631 78.6328C46.8538 78.6584 46.6852 78.5533 46.4417 78.6605C46.3236 78.7121 46.2068 78.8155 46.1512 78.9746C46.0935 79.1305 46.0938 79.3294 46.1608 79.5148C46.3014 79.8952 46.6296 80.1346 46.8445 80.3151C47.0601 80.4991 47.1865 80.6226 47.1716 80.6412Z" fill="#6F3530"/>
<path d="M36.1215 72.2231L35.4648 71.7814L33.1389 55.4521C32.935 54.0234 30.768 50.2777 26.5059 48.8397L27.3671 58.0806L30.9207 77.8394C30.9207 77.8394 32.1516 78.4734 34.4236 79.2737C36.6956 80.0737 41.2376 80.9421 41.2376 80.9421L42.7013 74.1664L36.1215 72.2231Z" fill="#DADBD8"/>
<path d="M7.71375 49.8651L14.0015 47.2536L14.746 44.385L22.501 48.0556L23.7992 45.9811L24.8051 48.2839L26.5047 48.84L30.4764 55.8332L30.464 70.7355L31.2678 83.5904L30.4066 85.6195L23.2917 86.6702C22.5138 86.7854 21.7234 86.7861 20.9451 86.673L6.50319 84.309L6.13086 80.0623L7.67354 68.3564L7.71375 49.8651Z" fill="#DADBD8"/>
<path d="M22.0291 63.5605C21.9048 60.2845 22.4205 51.9265 22.4205 51.9265L23.499 51.7529C23.499 51.7529 25.5133 59.8774 26.2654 69.8333C26.5697 73.8622 26.5697 78.5288 26.5697 78.5288L24.4037 83.1833L22.0098 78.5592C22.0098 78.5592 22.1801 67.5413 22.0291 63.5605Z" fill="#F2575D"/>
<path d="M22.1397 49.1285L23.0427 48.7757L23.9071 49.925L23.6096 52.0178L22.5315 52.1914L21.4668 50.873L22.1397 49.1285Z" fill="#F2575D"/>
<path d="M7.88392 49.865C7.88392 49.865 3.76469 50.9337 2.5884 54.9979C2.29138 56.0237 0.73067 71.2241 0.49072 73.1948C0.250804 75.1651 -0.463967 78.0742 1.93692 80.0846C3.42221 81.3283 15.8543 82.6218 15.8543 82.6218L18.3775 76.6181L8.55012 72.7856L10.0557 59.6721L7.88392 49.865Z" fill="#DADBD8"/>
<path d="M27.2608 82.8658L20.7473 76.3256C20.5936 76.1714 20.5891 75.923 20.7366 75.7632C20.8931 75.5941 21.1587 75.5893 21.3211 75.7525L27.8349 82.293C27.9883 82.4473 27.9928 82.6953 27.8453 82.855C27.6888 83.0242 27.4235 83.029 27.2608 82.8658Z" fill="#17282F"/>
<path d="M18.0733 76.5916C18.1158 76.6231 20.9408 76.7272 21.8135 76.9157C22.6861 77.1038 24.757 77.6264 25.4189 78.0968C26.0812 78.5675 27.4156 80.2732 27.0799 80.5223C26.7437 80.7709 26.3333 80.7253 26.1167 80.5223C25.934 80.3511 24.3111 79.1108 24.3111 79.1108C24.3111 79.1108 23.3372 78.784 23.3072 79.0351C23.2771 79.2858 25.7257 80.6163 25.3343 81.2119C24.9432 81.8078 23.89 81.6511 23.89 81.6511C23.89 81.6511 24.1909 82.6054 23.8599 83.0847C23.529 83.5641 22.7013 83.8152 22.7013 83.8152C22.7013 83.8152 22.97 84.6283 22.1658 84.9544C21.583 85.1906 20.7039 84.5992 20.7039 84.5992L16.9388 82.6859L15.8555 82.622L18.0733 76.5916Z" fill="#BA6258"/>
<path d="M3.70118 80.8008C3.70156 80.7987 3.72128 80.8001 3.75987 80.8046C3.8063 80.8112 3.86188 80.8188 3.93083 80.8285C4.0925 80.8544 4.313 80.8897 4.59393 80.9346C5.18513 81.0356 6.02879 81.1792 7.09119 81.36C9.24418 81.7391 12.2809 82.2731 15.8694 82.9046L15.7779 82.9583C16.4557 80.9972 17.2029 78.8356 17.9884 76.5623L18.0406 76.6754C17.4592 76.4492 16.8412 76.2088 16.2163 75.9661C13.3318 74.841 10.5936 73.7726 8.1464 72.8181L8.08543 72.7942L8.095 72.7295C8.63598 69.1101 9.09439 66.0427 9.4196 63.8666C9.58583 62.7944 9.71782 61.9426 9.81037 61.346C9.85708 61.0631 9.89376 60.841 9.92064 60.6785C9.93332 60.6093 9.94372 60.5536 9.95221 60.5073C9.96002 60.4689 9.96517 60.4495 9.96745 60.4499C9.96976 60.4502 9.96907 60.4703 9.96568 60.509C9.96071 60.556 9.95463 60.6124 9.94706 60.6823C9.92644 60.8459 9.89822 61.0689 9.86219 61.3536C9.78056 61.9519 9.66397 62.8058 9.51729 63.8808C9.20801 66.0593 8.77188 69.1302 8.25719 72.7534L8.20579 72.6652C10.6547 73.6153 13.395 74.6781 16.2812 75.798C16.9061 76.0411 17.5241 76.2818 18.1055 76.508L18.1864 76.5395L18.1577 76.6211C17.367 78.8927 16.6149 81.0522 15.9323 83.0122L15.9092 83.0786L15.8408 83.0658C12.2567 82.4083 9.22407 81.8519 7.07378 81.4572C6.01487 81.257 5.17394 81.0979 4.58477 80.9862C4.30572 80.9305 4.0867 80.8869 3.9261 80.8551C3.85812 80.8399 3.80333 80.8281 3.75745 80.8177C3.7198 80.8087 3.70076 80.8032 3.70118 80.8008Z" fill="#17282F"/>
<path d="M8.13419 72.7646C8.14362 72.8216 7.21632 72.8891 6.23756 73.4252C5.25157 73.9485 4.68521 74.6865 4.64282 74.6474C4.60223 74.6319 5.12552 73.8136 6.1523 73.2668C7.17301 72.7092 8.14348 72.722 8.13419 72.7646Z" fill="#17282F"/>
<path d="M9.66445 56.2296C9.63395 56.2265 9.6619 55.9038 9.62963 55.3881C9.59889 54.8731 9.48402 54.1641 9.20431 53.4292C8.92159 52.6949 8.53365 52.0907 8.21263 51.6871C7.89239 51.2821 7.65638 51.0608 7.67704 51.0383C7.68892 51.0234 7.95717 51.2122 8.31018 51.6055C8.6632 51.9963 9.08136 52.6088 9.3723 53.3649C9.66055 54.1216 9.75838 54.8569 9.75676 55.3836C9.75662 55.9124 9.68321 56.2324 9.66445 56.2296Z" fill="#17282F"/>
<path d="M30.7949 56.7509C30.8446 56.7509 30.8851 61.9381 30.8851 68.3357C30.8851 74.7351 30.8446 79.9213 30.7949 79.9213C30.7452 79.9213 30.7051 74.7351 30.7051 68.3357C30.7051 61.9381 30.7452 56.7509 30.7949 56.7509Z" fill="#17282F"/>
<path d="M24.8077 48.2836C24.8173 48.2888 24.7427 48.4472 24.5969 48.7339C24.4349 49.0441 24.2214 49.4529 23.9603 49.9527L23.9185 50.0322L23.8629 49.9596C23.4639 49.4391 22.9816 48.81 22.4399 48.103L22.5774 48.0844C22.222 49.0016 21.8178 50.0443 21.3884 51.1518L21.3521 51.2455L21.263 51.1985C21.1559 51.1417 21.0405 51.0809 20.9248 51.0196C19.002 50.0014 17.2658 49.0707 16.0135 48.3891C15.4086 48.0556 14.9098 47.7807 14.535 47.5739C14.1875 47.3778 13.9982 47.2643 14.004 47.2533C14.0099 47.2422 14.2103 47.3349 14.5675 47.512C14.9492 47.7056 15.457 47.9636 16.0729 48.2767C17.3404 48.9293 19.086 49.842 21.0091 50.8602C21.1248 50.9218 21.2399 50.9826 21.3469 51.0394L21.2212 51.086C21.6572 49.9817 22.0679 48.9414 22.4292 48.0263L22.4821 47.8924L22.5667 48.0072C23.0956 48.7238 23.5661 49.3619 23.9558 49.8897L23.8584 49.897C24.1385 49.4076 24.3679 49.0074 24.542 48.7038C24.7047 48.4264 24.798 48.278 24.8077 48.2836Z" fill="#17282F"/>
</svg>
