<svg width="300" height="272" viewBox="0 0 300 272" fill="none" xmlns="http://www.w3.org/2000/svg">
<g filter="url(#filter0_dddii_2578_9772)">
<circle cx="153.998" cy="136.181" r="43.4531" fill="#FF8831" fill-opacity="0.5"/>
<circle cx="153.998" cy="136.181" r="43.4531" fill="url(#paint0_linear_2578_9772)" fill-opacity="0.9"/>
</g>
<circle cx="153.998" cy="136.181" r="43.4531" fill="#FF8831" fill-opacity="0.5"/>
<circle cx="153.998" cy="136.181" r="43.4531" fill="url(#paint1_linear_2578_9772)" fill-opacity="0.9"/>
<g filter="url(#filter1_dii_2578_9772)">
<circle cx="226.998" cy="131.661" r="20.8575" fill="#FF8831" fill-opacity="0.5"/>
<circle cx="226.998" cy="131.661" r="20.8575" fill="url(#paint2_linear_2578_9772)" fill-opacity="0.9"/>
</g>
<g filter="url(#filter2_dii_2578_9772)">
<circle cx="203.187" cy="98.811" r="10.9502" fill="#FF8831" fill-opacity="0.5"/>
<circle cx="203.187" cy="98.811" r="10.9502" fill="url(#paint3_linear_2578_9772)" fill-opacity="0.9"/>
</g>
<g filter="url(#filter3_dii_2578_9772)">
<circle cx="123.579" cy="78.3009" r="15.1217" fill="#FF8831" fill-opacity="0.5"/>
<circle cx="123.579" cy="78.3009" r="15.1217" fill="url(#paint4_linear_2578_9772)" fill-opacity="0.9"/>
</g>
<g filter="url(#filter4_dii_2578_9772)">
<circle cx="93.8565" cy="145.566" r="10.4287" fill="#FF8831" fill-opacity="0.5"/>
<circle cx="93.8565" cy="145.566" r="10.4287" fill="url(#paint5_linear_2578_9772)" fill-opacity="0.9"/>
</g>
<g filter="url(#filter5_dii_2578_9772)">
<circle cx="230.474" cy="95.5085" r="3.47625" fill="#FF8831" fill-opacity="0.5"/>
<circle cx="230.474" cy="95.5085" r="3.47625" fill="url(#paint6_linear_2578_9772)" fill-opacity="0.9"/>
</g>
<g filter="url(#filter6_dii_2578_9772)">
<circle cx="213.441" cy="168.857" r="3.47625" fill="#FF8831" fill-opacity="0.5"/>
<circle cx="213.441" cy="168.857" r="3.47625" fill="url(#paint7_linear_2578_9772)" fill-opacity="0.9"/>
</g>
<g filter="url(#filter7_dii_2578_9772)">
<circle cx="92.4665" cy="65.613" r="3.47625" fill="#FF8831" fill-opacity="0.5"/>
<circle cx="92.4665" cy="65.613" r="3.47625" fill="url(#paint8_linear_2578_9772)" fill-opacity="0.9"/>
</g>
<g filter="url(#filter8_dii_2578_9772)">
<circle cx="41.3669" cy="192.496" r="3.47625" fill="#FF8831" fill-opacity="0.5"/>
<circle cx="41.3669" cy="192.496" r="3.47625" fill="url(#paint9_linear_2578_9772)" fill-opacity="0.9"/>
</g>
<g filter="url(#filter9_dii_2578_9772)">
<circle cx="51.2738" cy="151.998" r="17.555" fill="#FF8831" fill-opacity="0.5"/>
<circle cx="51.2738" cy="151.998" r="17.555" fill="url(#paint10_linear_2578_9772)" fill-opacity="0.9"/>
</g>
<circle cx="275.143" cy="141.569" r="17.555" fill="#FF8831" fill-opacity="0.5"/>
<circle cx="275.143" cy="141.569" r="17.555" fill="url(#paint11_linear_2578_9772)" fill-opacity="0.9"/>
<g filter="url(#filter10_dii_2578_9772)">
<circle cx="188.934" cy="198.579" r="20.336" fill="#FF8831" fill-opacity="0.5"/>
<circle cx="188.934" cy="198.579" r="20.336" fill="url(#paint12_linear_2578_9772)" fill-opacity="0.9"/>
</g>
<circle cx="96.464" cy="197.884" r="30.4171" fill="#FF8831" fill-opacity="0.5"/>
<circle cx="96.464" cy="197.884" r="30.4171" fill="url(#paint13_linear_2578_9772)" fill-opacity="0.9"/>
<g filter="url(#filter11_dii_2578_9772)">
<circle cx="76.3044" cy="102.634" r="24.8552" fill="#FF8831" fill-opacity="0.5"/>
<circle cx="76.3044" cy="102.634" r="24.8552" fill="url(#paint14_linear_2578_9772)" fill-opacity="0.9"/>
</g>
<circle cx="175.029" cy="64.3962" r="24.8552" fill="#FF8831" fill-opacity="0.5"/>
<circle cx="175.029" cy="64.3962" r="24.8552" fill="url(#paint15_linear_2578_9772)" fill-opacity="0.9"/>
<path d="M146.831 135.834C146.831 136.128 146.76 136.384 146.617 136.601C146.475 136.818 146.266 136.986 145.993 137.103C145.721 137.221 145.391 137.28 145.001 137.28C144.829 137.28 144.661 137.268 144.495 137.246C144.332 137.223 144.175 137.19 144.024 137.147C143.874 137.102 143.732 137.047 143.596 136.981V136.003C143.831 136.107 144.076 136.201 144.329 136.285C144.583 136.369 144.834 136.411 145.083 136.411C145.255 136.411 145.393 136.388 145.497 136.343C145.603 136.298 145.68 136.235 145.728 136.156C145.775 136.077 145.799 135.986 145.799 135.885C145.799 135.76 145.757 135.654 145.673 135.565C145.59 135.477 145.474 135.395 145.327 135.318C145.182 135.241 145.018 135.158 144.835 135.07C144.719 135.015 144.594 134.95 144.458 134.873C144.322 134.794 144.193 134.698 144.071 134.584C143.949 134.471 143.848 134.334 143.769 134.174C143.692 134.011 143.654 133.816 143.654 133.59C143.654 133.293 143.721 133.04 143.857 132.829C143.993 132.619 144.187 132.458 144.438 132.347C144.691 132.234 144.99 132.177 145.334 132.177C145.592 132.177 145.837 132.208 146.071 132.269C146.306 132.328 146.552 132.414 146.807 132.527L146.468 133.345C146.239 133.252 146.034 133.181 145.853 133.131C145.672 133.079 145.488 133.053 145.3 133.053C145.169 133.053 145.057 133.075 144.964 133.118C144.871 133.159 144.801 133.217 144.753 133.294C144.706 133.369 144.682 133.456 144.682 133.556C144.682 133.673 144.716 133.773 144.784 133.854C144.854 133.934 144.958 134.011 145.096 134.085C145.237 134.16 145.411 134.247 145.619 134.347C145.873 134.467 146.089 134.592 146.267 134.724C146.449 134.853 146.588 135.005 146.685 135.182C146.782 135.356 146.831 135.573 146.831 135.834ZM149.3 136.455C149.413 136.455 149.523 136.444 149.63 136.421C149.738 136.398 149.846 136.37 149.952 136.336V137.107C149.841 137.156 149.703 137.197 149.538 137.229C149.375 137.263 149.196 137.28 149.002 137.28C148.775 137.28 148.572 137.244 148.39 137.171C148.212 137.096 148.07 136.969 147.966 136.788C147.864 136.604 147.813 136.35 147.813 136.024V134.194H147.318V133.756L147.888 133.41L148.187 132.609H148.849V133.417H149.911V134.194H148.849V136.024C148.849 136.169 148.889 136.277 148.971 136.35C149.055 136.42 149.164 136.455 149.3 136.455ZM152.893 133.345C152.945 133.345 153.005 133.349 153.073 133.355C153.143 133.36 153.2 133.367 153.243 133.376L153.165 134.347C153.131 134.335 153.082 134.327 153.019 134.323C152.958 134.316 152.904 134.313 152.859 134.313C152.726 134.313 152.596 134.33 152.469 134.364C152.344 134.398 152.232 134.453 152.133 134.53C152.033 134.605 151.954 134.704 151.895 134.829C151.838 134.951 151.81 135.101 151.81 135.28V137.212H150.775V133.417H151.559L151.712 134.055H151.763C151.837 133.926 151.93 133.808 152.041 133.702C152.154 133.593 152.282 133.507 152.425 133.444C152.57 133.378 152.726 133.345 152.893 133.345ZM155.549 133.345C155.9 133.345 156.202 133.413 156.455 133.549C156.709 133.682 156.905 133.877 157.043 134.133C157.181 134.389 157.25 134.701 157.25 135.07V135.572H154.802C154.814 135.864 154.901 136.094 155.064 136.261C155.229 136.427 155.457 136.509 155.749 136.509C155.992 136.509 156.213 136.484 156.415 136.435C156.616 136.385 156.823 136.31 157.036 136.21V137.012C156.848 137.104 156.651 137.172 156.445 137.215C156.242 137.258 155.994 137.28 155.702 137.28C155.322 137.28 154.984 137.21 154.69 137.069C154.398 136.929 154.169 136.715 154.001 136.428C153.836 136.14 153.753 135.778 153.753 135.341C153.753 134.898 153.828 134.529 153.977 134.235C154.129 133.938 154.339 133.716 154.609 133.569C154.878 133.42 155.191 133.345 155.549 133.345ZM155.556 134.082C155.354 134.082 155.187 134.146 155.053 134.275C154.922 134.404 154.846 134.607 154.826 134.883H156.279C156.277 134.729 156.248 134.592 156.194 134.472C156.142 134.352 156.063 134.257 155.956 134.187C155.852 134.117 155.719 134.082 155.556 134.082ZM160.792 136.085C160.792 136.343 160.731 136.561 160.609 136.74C160.489 136.917 160.309 137.051 160.069 137.144C159.829 137.235 159.53 137.28 159.173 137.28C158.908 137.28 158.68 137.263 158.49 137.229C158.302 137.195 158.112 137.138 157.92 137.059V136.204C158.126 136.296 158.346 136.373 158.582 136.435C158.819 136.493 159.028 136.523 159.206 136.523C159.408 136.523 159.552 136.493 159.638 136.435C159.726 136.373 159.77 136.294 159.77 136.197C159.77 136.134 159.752 136.077 159.716 136.027C159.682 135.975 159.607 135.917 159.492 135.854C159.376 135.788 159.195 135.704 158.948 135.599C158.711 135.5 158.515 135.399 158.361 135.297C158.21 135.195 158.096 135.075 158.022 134.937C157.949 134.797 157.913 134.619 157.913 134.404C157.913 134.054 158.049 133.79 158.32 133.613C158.594 133.435 158.96 133.345 159.417 133.345C159.652 133.345 159.876 133.369 160.089 133.417C160.304 133.464 160.525 133.54 160.751 133.644L160.439 134.391C160.251 134.309 160.073 134.243 159.906 134.191C159.741 134.139 159.572 134.112 159.4 134.112C159.248 134.112 159.134 134.133 159.057 134.174C158.98 134.214 158.942 134.277 158.942 134.36C158.942 134.421 158.961 134.476 158.999 134.523C159.04 134.571 159.117 134.624 159.23 134.683C159.346 134.739 159.514 134.813 159.736 134.903C159.951 134.992 160.138 135.085 160.296 135.182C160.455 135.277 160.577 135.396 160.663 135.538C160.749 135.679 160.792 135.861 160.792 136.085ZM164.3 136.085C164.3 136.343 164.239 136.561 164.117 136.74C163.997 136.917 163.817 137.051 163.577 137.144C163.337 137.235 163.038 137.28 162.681 137.28C162.416 137.28 162.188 137.263 161.998 137.229C161.81 137.195 161.62 137.138 161.428 137.059V136.204C161.634 136.296 161.854 136.373 162.09 136.435C162.327 136.493 162.536 136.523 162.714 136.523C162.916 136.523 163.06 136.493 163.146 136.435C163.234 136.373 163.278 136.294 163.278 136.197C163.278 136.134 163.26 136.077 163.224 136.027C163.19 135.975 163.115 135.917 163 135.854C162.884 135.788 162.703 135.704 162.456 135.599C162.219 135.5 162.023 135.399 161.869 135.297C161.718 135.195 161.604 135.075 161.53 134.937C161.457 134.797 161.421 134.619 161.421 134.404C161.421 134.054 161.557 133.79 161.828 133.613C162.102 133.435 162.468 133.345 162.925 133.345C163.16 133.345 163.384 133.369 163.597 133.417C163.812 133.464 164.033 133.54 164.259 133.644L163.947 134.391C163.759 134.309 163.581 134.243 163.414 134.191C163.249 134.139 163.08 134.112 162.908 134.112C162.756 134.112 162.642 134.133 162.565 134.174C162.488 134.214 162.45 134.277 162.45 134.36C162.45 134.421 162.469 134.476 162.507 134.523C162.548 134.571 162.625 134.624 162.738 134.683C162.854 134.739 163.022 134.813 163.244 134.903C163.459 134.992 163.646 135.085 163.804 135.182C163.963 135.277 164.085 135.396 164.171 135.538C164.257 135.679 164.3 135.861 164.3 136.085Z" fill="black"/>
<path d="M82.1286 195.755H83.6733C84.3341 195.755 84.8343 195.848 85.1738 196.033C85.5132 196.219 85.683 196.545 85.683 197.011C85.683 197.199 85.6524 197.369 85.5913 197.52C85.5325 197.672 85.4465 197.796 85.3333 197.894C85.2202 197.991 85.0821 198.054 84.9191 198.084V198.118C85.0844 198.152 85.2337 198.211 85.3673 198.294C85.5008 198.376 85.6072 198.496 85.6864 198.654C85.7678 198.81 85.8086 199.019 85.8086 199.279C85.8086 199.58 85.735 199.838 85.5879 200.053C85.4408 200.268 85.2303 200.433 84.9565 200.549C84.6849 200.662 84.3613 200.718 83.9856 200.718H82.1286V195.755ZM83.181 197.721H83.7921C84.0976 197.721 84.3092 197.673 84.4269 197.578C84.5446 197.481 84.6034 197.338 84.6034 197.15C84.6034 196.96 84.5333 196.824 84.393 196.743C84.2549 196.659 84.0354 196.617 83.7344 196.617H83.181V197.721ZM83.181 198.556V199.849H83.8668C84.1836 199.849 84.4043 199.788 84.5287 199.666C84.6532 199.544 84.7155 199.38 84.7155 199.174C84.7155 199.051 84.6883 198.944 84.634 198.851C84.5797 198.758 84.488 198.686 84.359 198.634C84.2323 198.582 84.0569 198.556 83.8328 198.556H83.181ZM90.2536 196.923V200.718H89.4592L89.32 200.233H89.2657C89.1842 200.362 89.0824 200.467 88.9601 200.549C88.8379 200.63 88.7033 200.69 88.5562 200.728C88.4091 200.767 88.2563 200.786 88.0979 200.786C87.8263 200.786 87.5898 200.739 87.3884 200.644C87.1869 200.546 87.0297 200.396 86.9165 200.192C86.8056 199.988 86.7502 199.724 86.7502 199.398V196.923H87.7856V199.14C87.7856 199.411 87.8342 199.616 87.9315 199.754C88.0288 199.892 88.1839 199.961 88.3966 199.961C88.6071 199.961 88.7723 199.914 88.8923 199.819C89.0122 199.721 89.0959 199.58 89.1435 199.394C89.1933 199.206 89.2181 198.978 89.2181 198.709V196.923H90.2536ZM93.5104 196.852C93.5624 196.852 93.6224 196.855 93.6903 196.862C93.7604 196.866 93.817 196.873 93.86 196.882L93.7819 197.853C93.748 197.842 93.6993 197.834 93.636 197.829C93.5749 197.823 93.5217 197.819 93.4764 197.819C93.3429 197.819 93.2128 197.836 93.086 197.87C92.9615 197.904 92.8495 197.959 92.7499 198.036C92.6504 198.111 92.5711 198.211 92.5123 198.335C92.4557 198.457 92.4274 198.608 92.4274 198.787V200.718H91.392V196.923H92.1762L92.329 197.561H92.3799C92.4546 197.432 92.5474 197.314 92.6583 197.208C92.7714 197.099 92.8993 197.013 93.0419 196.95C93.1867 196.884 93.3429 196.852 93.5104 196.852ZM96.757 196.852C97.1621 196.852 97.488 196.963 97.7347 197.184C97.9814 197.404 98.1047 197.757 98.1047 198.243V200.718H97.0693V198.501C97.0693 198.23 97.0195 198.025 96.9199 197.887C96.8226 197.749 96.6687 197.68 96.4582 197.68C96.1414 197.68 95.9253 197.787 95.8098 198.002C95.6944 198.217 95.6367 198.528 95.6367 198.933V200.718H94.6013V196.923H95.3923L95.5315 197.408H95.5892C95.6707 197.277 95.7714 197.171 95.8913 197.089C96.0135 197.008 96.1482 196.948 96.2953 196.909C96.4447 196.871 96.5986 196.852 96.757 196.852ZM102.672 198.814C102.672 199.131 102.629 199.411 102.543 199.656C102.459 199.9 102.336 200.107 102.173 200.277C102.012 200.444 101.818 200.571 101.589 200.657C101.363 200.743 101.107 200.786 100.822 200.786C100.555 200.786 100.309 200.743 100.085 200.657C99.8633 200.571 99.6698 200.444 99.5046 200.277C99.3416 200.107 99.2149 199.9 99.1244 199.656C99.0361 199.411 98.992 199.131 98.992 198.814C98.992 198.393 99.0667 198.036 99.216 197.744C99.3654 197.452 99.5781 197.231 99.8542 197.079C100.13 196.927 100.46 196.852 100.842 196.852C101.197 196.852 101.512 196.927 101.786 197.079C102.062 197.231 102.278 197.452 102.434 197.744C102.593 198.036 102.672 198.393 102.672 198.814ZM100.048 198.814C100.048 199.063 100.075 199.272 100.129 199.442C100.184 199.612 100.268 199.739 100.384 199.825C100.499 199.911 100.65 199.954 100.835 199.954C101.019 199.954 101.167 199.911 101.28 199.825C101.395 199.739 101.479 199.612 101.531 199.442C101.586 199.272 101.613 199.063 101.613 198.814C101.613 198.563 101.586 198.354 101.531 198.189C101.479 198.022 101.395 197.896 101.28 197.812C101.165 197.729 101.014 197.687 100.829 197.687C100.555 197.687 100.356 197.781 100.231 197.968C100.109 198.156 100.048 198.438 100.048 198.814ZM107.063 196.923V200.718H106.268L106.129 200.233H106.075C105.993 200.362 105.891 200.467 105.769 200.549C105.647 200.63 105.512 200.69 105.365 200.728C105.218 200.767 105.065 200.786 104.907 200.786C104.635 200.786 104.399 200.739 104.197 200.644C103.996 200.546 103.839 200.396 103.726 200.192C103.615 199.988 103.559 199.724 103.559 199.398V196.923H104.595V199.14C104.595 199.411 104.643 199.616 104.741 199.754C104.838 199.892 104.993 199.961 105.206 199.961C105.416 199.961 105.581 199.914 105.701 199.819C105.821 199.721 105.905 199.58 105.952 199.394C106.002 199.206 106.027 198.978 106.027 198.709V196.923H107.063ZM109.8 199.961C109.913 199.961 110.023 199.95 110.129 199.927C110.238 199.905 110.345 199.876 110.452 199.842V200.613C110.341 200.663 110.203 200.704 110.038 200.735C109.875 200.769 109.696 200.786 109.501 200.786C109.275 200.786 109.071 200.75 108.89 200.678C108.711 200.603 108.57 200.475 108.466 200.294C108.364 200.111 108.313 199.856 108.313 199.53V197.7H107.817V197.262L108.388 196.916L108.686 196.115H109.348V196.923H110.411V197.7H109.348V199.53C109.348 199.675 109.389 199.784 109.471 199.856C109.554 199.926 109.664 199.961 109.8 199.961Z" fill="white"/>
<path d="M163.445 64.2868C163.445 64.9422 163.267 65.4437 162.91 65.7913C162.555 66.1372 162.044 66.3101 161.376 66.3101H160.276V62.3395H161.492C162.11 62.3395 162.59 62.5106 162.932 62.8528C163.274 63.195 163.445 63.673 163.445 64.2868ZM162.956 64.3031C162.956 63.7853 162.826 63.3951 162.565 63.1326C162.306 62.87 161.921 62.7388 161.408 62.7388H160.737V65.9108H161.3C161.85 65.9108 162.264 65.7759 162.541 65.5062C162.818 65.2346 162.956 64.8336 162.956 64.3031ZM165.676 66.3644C165.236 66.3644 164.888 66.2304 164.633 65.9624C164.379 65.6945 164.252 65.3224 164.252 64.8462C164.252 64.3664 164.37 63.9853 164.606 63.7029C164.843 63.4204 165.16 63.2792 165.559 63.2792C165.932 63.2792 166.227 63.4023 166.444 63.6486C166.661 63.893 166.77 64.2162 166.77 64.6181V64.9033H164.72C164.729 65.2527 164.816 65.5179 164.983 65.699C165.151 65.8801 165.388 65.9706 165.692 65.9706C166.012 65.9706 166.329 65.9036 166.642 65.7696V66.1716C166.483 66.2404 166.332 66.2892 166.189 66.3182C166.048 66.349 165.877 66.3644 165.676 66.3644ZM165.553 63.6567C165.314 63.6567 165.123 63.7346 164.98 63.8903C164.839 64.046 164.756 64.2614 164.73 64.5366H166.287C166.287 64.2524 166.223 64.0351 166.097 63.8848C165.97 63.7327 165.789 63.6567 165.553 63.6567ZM169.079 66.3644C168.886 66.3644 168.708 66.3291 168.547 66.2585C168.388 66.186 168.254 66.0756 168.145 65.9271H168.113C168.134 66.1009 168.145 66.2657 168.145 66.4214V67.6462H167.694V63.3335H168.061L168.123 63.7409H168.145C168.261 63.5779 168.396 63.4603 168.55 63.3878C168.704 63.3154 168.88 63.2792 169.079 63.2792C169.474 63.2792 169.778 63.4141 169.992 63.6839C170.207 63.9536 170.315 64.332 170.315 64.8191C170.315 65.3079 170.206 65.6881 169.986 65.9597C169.769 66.2295 169.467 66.3644 169.079 66.3644ZM169.014 63.6621C168.71 63.6621 168.49 63.7463 168.354 63.9147C168.218 64.0831 168.149 64.351 168.145 64.7186V64.8191C168.145 65.2373 168.215 65.537 168.354 65.718C168.494 65.8973 168.717 65.9869 169.025 65.9869C169.282 65.9869 169.483 65.8828 169.628 65.6746C169.775 65.4663 169.848 65.1794 169.848 64.8136C169.848 64.4425 169.775 64.1582 169.628 63.9609C169.483 63.7617 169.279 63.6621 169.014 63.6621ZM172.616 63.2792C172.748 63.2792 172.867 63.2901 172.972 63.3118L172.91 63.73C172.786 63.7029 172.678 63.6893 172.584 63.6893C172.343 63.6893 172.136 63.7871 171.964 63.9826C171.794 64.1781 171.709 64.4217 171.709 64.7132V66.3101H171.258V63.3335H171.63L171.682 63.8848H171.704C171.814 63.6911 171.947 63.5417 172.103 63.4367C172.259 63.3317 172.43 63.2792 172.616 63.2792ZM174.939 66.3644C174.499 66.3644 174.152 66.2304 173.896 65.9624C173.643 65.6945 173.516 65.3224 173.516 64.8462C173.516 64.3664 173.634 63.9853 173.869 63.7029C174.106 63.4204 174.424 63.2792 174.822 63.2792C175.195 63.2792 175.49 63.4023 175.708 63.6486C175.925 63.893 176.034 64.2162 176.034 64.6181V64.9033H173.983C173.992 65.2527 174.08 65.5179 174.247 65.699C174.415 65.8801 174.651 65.9706 174.955 65.9706C175.276 65.9706 175.593 65.9036 175.906 65.7696V66.1716C175.747 66.2404 175.595 66.2892 175.452 66.3182C175.311 66.349 175.14 66.3644 174.939 66.3644ZM174.817 63.6567C174.578 63.6567 174.387 63.7346 174.244 63.8903C174.103 64.046 174.019 64.2614 173.994 64.5366H175.55C175.55 64.2524 175.487 64.0351 175.36 63.8848C175.233 63.7327 175.052 63.6567 174.817 63.6567ZM178.878 65.498C178.878 65.775 178.775 65.9887 178.568 66.139C178.362 66.2892 178.072 66.3644 177.699 66.3644C177.305 66.3644 176.997 66.3019 176.776 66.177V65.7587C176.919 65.8312 177.072 65.8882 177.235 65.9298C177.4 65.9715 177.558 65.9923 177.71 65.9923C177.945 65.9923 178.127 65.9552 178.253 65.881C178.38 65.8049 178.443 65.6899 178.443 65.5361C178.443 65.4202 178.393 65.3215 178.291 65.24C178.192 65.1567 177.996 65.059 177.705 64.9467C177.428 64.8435 177.23 64.7539 177.113 64.6779C176.997 64.6 176.91 64.5122 176.852 64.4144C176.796 64.3166 176.768 64.1999 176.768 64.0641C176.768 63.8215 176.866 63.6305 177.064 63.491C177.261 63.3498 177.532 63.2792 177.876 63.2792C178.196 63.2792 178.509 63.3444 178.815 63.4747L178.655 63.8414C178.356 63.7183 178.086 63.6567 177.843 63.6567C177.63 63.6567 177.468 63.6902 177.36 63.7572C177.251 63.8242 177.197 63.9165 177.197 64.0342C177.197 64.1139 177.217 64.1818 177.257 64.2379C177.298 64.294 177.364 64.3474 177.455 64.3981C177.545 64.4488 177.719 64.5221 177.976 64.6181C178.329 64.7467 178.567 64.8761 178.691 65.0065C178.815 65.1368 178.878 65.3007 178.878 65.498ZM181.687 65.498C181.687 65.775 181.584 65.9887 181.377 66.139C181.171 66.2892 180.881 66.3644 180.508 66.3644C180.114 66.3644 179.806 66.3019 179.585 66.177V65.7587C179.728 65.8312 179.881 65.8882 180.044 65.9298C180.209 65.9715 180.367 65.9923 180.519 65.9923C180.755 65.9923 180.936 65.9552 181.062 65.881C181.189 65.8049 181.252 65.6899 181.252 65.5361C181.252 65.4202 181.202 65.3215 181.1 65.24C181.001 65.1567 180.805 65.059 180.514 64.9467C180.237 64.8435 180.039 64.7539 179.922 64.6779C179.806 64.6 179.719 64.5122 179.661 64.4144C179.605 64.3166 179.577 64.1999 179.577 64.0641C179.577 63.8215 179.675 63.6305 179.873 63.491C180.07 63.3498 180.341 63.2792 180.685 63.2792C181.005 63.2792 181.318 63.3444 181.624 63.4747L181.464 63.8414C181.166 63.7183 180.895 63.6567 180.652 63.6567C180.439 63.6567 180.277 63.6902 180.169 63.7572C180.06 63.8242 180.006 63.9165 180.006 64.0342C180.006 64.1139 180.026 64.1818 180.066 64.2379C180.107 64.294 180.173 64.3474 180.264 64.3981C180.354 64.4488 180.528 64.5221 180.785 64.6181C181.138 64.7467 181.376 64.8761 181.5 65.0065C181.624 65.1368 181.687 65.3007 181.687 65.498ZM183.027 66.3101H182.576V63.3335H183.027V66.3101ZM182.538 62.5269C182.538 62.4237 182.563 62.3486 182.614 62.3015C182.665 62.2526 182.728 62.2282 182.804 62.2282C182.876 62.2282 182.939 62.2526 182.991 62.3015C183.044 62.3504 183.07 62.4255 183.07 62.5269C183.07 62.6283 183.044 62.7044 182.991 62.7551C182.939 62.8039 182.876 62.8284 182.804 62.8284C182.728 62.8284 182.665 62.8039 182.614 62.7551C182.563 62.7044 182.538 62.6283 182.538 62.5269ZM186.705 64.8191C186.705 65.3043 186.583 65.6836 186.338 65.957C186.094 66.2286 185.756 66.3644 185.325 66.3644C185.059 66.3644 184.823 66.3019 184.616 66.177C184.41 66.0521 184.251 65.8728 184.138 65.6393C184.026 65.4057 183.97 65.1323 183.97 64.8191C183.97 64.3338 184.091 63.9564 184.334 63.6866C184.577 63.415 184.913 63.2792 185.344 63.2792C185.761 63.2792 186.091 63.4177 186.335 63.6947C186.582 63.9717 186.705 64.3465 186.705 64.8191ZM184.437 64.8191C184.437 65.1993 184.513 65.489 184.665 65.6881C184.817 65.8873 185.041 65.9869 185.336 65.9869C185.631 65.9869 185.855 65.8882 186.007 65.6909C186.161 65.4917 186.238 65.2011 186.238 64.8191C186.238 64.4407 186.161 64.1537 186.007 63.9582C185.855 63.7608 185.629 63.6621 185.331 63.6621C185.035 63.6621 184.813 63.759 184.663 63.9527C184.512 64.1465 184.437 64.4352 184.437 64.8191ZM189.688 66.3101V64.3845C189.688 64.1419 189.632 63.9609 189.522 63.8414C189.412 63.7219 189.239 63.6621 189.003 63.6621C188.692 63.6621 188.464 63.7463 188.319 63.9147C188.174 64.0831 188.102 64.361 188.102 64.7485V66.3101H187.651V63.3335H188.017L188.091 63.7409H188.112C188.205 63.5942 188.334 63.4811 188.501 63.4014C188.667 63.3199 188.853 63.2792 189.058 63.2792C189.416 63.2792 189.686 63.3661 189.867 63.5399C190.048 63.7119 190.138 63.988 190.138 64.3682V66.3101H189.688Z" fill="white"/>
<path d="M220.039 133.552L219.545 132.289H217.953L217.465 133.552H216.997L218.567 129.565H218.955L220.517 133.552H220.039ZM219.401 131.873L218.939 130.643C218.879 130.487 218.818 130.296 218.755 130.07C218.715 130.244 218.658 130.435 218.583 130.643L218.116 131.873H219.401ZM223.185 133.552V131.626C223.185 131.384 223.13 131.203 223.019 131.083C222.909 130.964 222.736 130.904 222.501 130.904C222.189 130.904 221.961 130.988 221.816 131.156C221.671 131.325 221.599 131.603 221.599 131.99V133.552H221.148V130.575H221.515L221.588 130.983H221.61C221.702 130.836 221.832 130.723 221.998 130.643C222.165 130.562 222.35 130.521 222.555 130.521C222.913 130.521 223.183 130.608 223.364 130.782C223.545 130.954 223.636 131.23 223.636 131.61V133.552H223.185ZM225.434 132.028L224.4 130.575H224.913L225.698 131.716L226.48 130.575H226.988L225.953 132.028L227.042 133.552H226.532L225.698 132.346L224.856 133.552H224.345L225.434 132.028ZM228.238 133.552H227.787V130.575H228.238V133.552ZM227.749 129.769C227.749 129.665 227.775 129.59 227.825 129.543C227.876 129.494 227.939 129.47 228.015 129.47C228.088 129.47 228.15 129.494 228.203 129.543C228.255 129.592 228.281 129.667 228.281 129.769C228.281 129.87 228.255 129.946 228.203 129.997C228.15 130.046 228.088 130.07 228.015 130.07C227.939 130.07 227.876 130.046 227.825 129.997C227.775 129.946 227.749 129.87 227.749 129.769ZM230.604 133.606C230.164 133.606 229.817 133.472 229.562 133.204C229.308 132.936 229.181 132.564 229.181 132.088C229.181 131.608 229.299 131.227 229.534 130.945C229.772 130.662 230.089 130.521 230.488 130.521C230.861 130.521 231.156 130.644 231.373 130.89C231.59 131.135 231.699 131.458 231.699 131.86V132.145H229.648C229.657 132.494 229.745 132.76 229.912 132.941C230.08 133.122 230.317 133.212 230.621 133.212C230.941 133.212 231.258 133.145 231.571 133.011V133.413C231.412 133.482 231.261 133.531 231.118 133.56C230.976 133.591 230.805 133.606 230.604 133.606ZM230.482 130.898C230.243 130.898 230.052 130.976 229.909 131.132C229.768 131.288 229.685 131.503 229.659 131.778H231.215C231.215 131.494 231.152 131.277 231.025 131.127C230.899 130.974 230.718 130.898 230.482 130.898ZM233.585 133.234C233.664 133.234 233.741 133.229 233.815 133.218C233.89 133.205 233.948 133.192 233.992 133.18V133.525C233.943 133.548 233.871 133.567 233.775 133.582C233.68 133.598 233.595 133.606 233.519 133.606C232.944 133.606 232.656 133.303 232.656 132.696V130.926H232.229V130.708L232.656 130.521L232.846 129.885H233.107V130.575H233.97V130.926H233.107V132.677C233.107 132.857 233.149 132.994 233.234 133.09C233.319 133.186 233.436 133.234 233.585 133.234ZM234.27 130.575H234.753L235.405 132.273C235.548 132.66 235.637 132.94 235.671 133.112H235.693C235.716 133.019 235.765 132.862 235.84 132.639C235.916 132.415 236.162 131.727 236.578 130.575H237.062L235.782 133.965C235.656 134.3 235.507 134.537 235.337 134.676C235.169 134.817 234.961 134.888 234.715 134.888C234.578 134.888 234.442 134.873 234.308 134.842V134.481C234.407 134.502 234.519 134.513 234.642 134.513C234.951 134.513 235.172 134.339 235.304 133.992L235.47 133.568L234.27 130.575Z" fill="white"/>
<path d="M66.3192 104.498L65.8249 103.235H64.2334L63.7446 104.498H63.2774L64.8472 100.511H65.2355L66.7971 104.498H66.3192ZM65.6809 102.819L65.2192 101.589C65.1595 101.433 65.0979 101.242 65.0346 101.016C64.9947 101.19 64.9377 101.381 64.8635 101.589L64.3964 102.819H65.6809ZM69.4541 104.098H69.4296C69.2214 104.401 68.91 104.552 68.4954 104.552C68.1061 104.552 67.8029 104.419 67.5856 104.153C67.3701 103.886 67.2624 103.508 67.2624 103.017C67.2624 102.527 67.371 102.146 67.5883 101.874C67.8056 101.602 68.1079 101.467 68.4954 101.467C68.8991 101.467 69.2087 101.613 69.4242 101.907H69.4595L69.4405 101.692L69.4296 101.483V100.272H69.8805V104.498H69.5138L69.4541 104.098ZM68.5524 104.174C68.8602 104.174 69.0829 104.091 69.2205 103.925C69.3599 103.756 69.4296 103.485 69.4296 103.112V103.017C69.4296 102.596 69.359 102.295 69.2178 102.116C69.0784 101.935 68.8548 101.844 68.547 101.844C68.2827 101.844 68.0799 101.947 67.9386 102.154C67.7992 102.358 67.7295 102.648 67.7295 103.023C67.7295 103.403 67.7992 103.69 67.9386 103.884C68.0781 104.078 68.2827 104.174 68.5524 104.174ZM73.0181 104.098H72.9937C72.7854 104.401 72.474 104.552 72.0594 104.552C71.6701 104.552 71.3669 104.419 71.1496 104.153C70.9342 103.886 70.8264 103.508 70.8264 103.017C70.8264 102.527 70.9351 102.146 71.1523 101.874C71.3696 101.602 71.672 101.467 72.0594 101.467C72.4632 101.467 72.7728 101.613 72.9882 101.907H73.0235L73.0045 101.692L72.9937 101.483V100.272H73.4445V104.498H73.0778L73.0181 104.098ZM72.1164 104.174C72.4242 104.174 72.6469 104.091 72.7845 103.925C72.9239 103.756 72.9937 103.485 72.9937 103.112V103.017C72.9937 102.596 72.923 102.295 72.7818 102.116C72.6424 101.935 72.4188 101.844 72.111 101.844C71.8467 101.844 71.6439 101.947 71.5027 102.154C71.3633 102.358 71.2936 102.648 71.2936 103.023C71.2936 103.403 71.3633 103.69 71.5027 103.884C71.6421 104.078 71.8467 104.174 72.1164 104.174ZM75.0069 104.498H74.5561V101.521H75.0069V104.498ZM74.5181 100.714C74.5181 100.611 74.5434 100.536 74.5941 100.489C74.6448 100.44 74.7082 100.416 74.7842 100.416C74.8567 100.416 74.9191 100.44 74.9716 100.489C75.0241 100.538 75.0504 100.613 75.0504 100.714C75.0504 100.816 75.0241 100.892 74.9716 100.943C74.9191 100.991 74.8567 101.016 74.7842 101.016C74.7082 101.016 74.6448 100.991 74.5941 100.943C74.5434 100.892 74.5181 100.816 74.5181 100.714ZM77.3054 104.552C76.8745 104.552 76.5404 104.42 76.3033 104.155C76.0679 103.889 75.9502 103.514 75.9502 103.028C75.9502 102.53 76.0697 102.146 76.3087 101.874C76.5495 101.602 76.8917 101.467 77.3353 101.467C77.4783 101.467 77.6213 101.482 77.7644 101.513C77.9074 101.544 78.0197 101.58 78.1011 101.622L77.9626 102.004C77.863 101.965 77.7544 101.932 77.6367 101.907C77.519 101.88 77.4149 101.866 77.3244 101.866C76.7197 101.866 76.4173 102.252 76.4173 103.023C76.4173 103.389 76.4906 103.669 76.6373 103.865C76.7858 104.06 77.0048 104.158 77.2945 104.158C77.5426 104.158 77.797 104.105 78.0577 103.998V104.397C77.8585 104.5 77.6078 104.552 77.3054 104.552ZM79.8809 104.18C79.9605 104.18 80.0375 104.174 80.1117 104.164C80.1859 104.151 80.2448 104.138 80.2882 104.125V104.47C80.2393 104.494 80.1669 104.513 80.071 104.527C79.9768 104.544 79.8917 104.552 79.8157 104.552C79.2399 104.552 78.952 104.249 78.952 103.642V101.871H78.5257V101.654L78.952 101.467L79.1422 100.831H79.4029V101.521H80.2665V101.871H79.4029V103.623C79.4029 103.802 79.4454 103.94 79.5305 104.036C79.6156 104.132 79.7324 104.18 79.8809 104.18ZM81.4895 104.498H81.0387V101.521H81.4895V104.498ZM81.0006 100.714C81.0006 100.611 81.026 100.536 81.0767 100.489C81.1274 100.44 81.1907 100.416 81.2668 100.416C81.3392 100.416 81.4017 100.44 81.4542 100.489C81.5067 100.538 81.5329 100.613 81.5329 100.714C81.5329 100.816 81.5067 100.892 81.4542 100.943C81.4017 100.991 81.3392 101.016 81.2668 101.016C81.1907 101.016 81.1274 100.991 81.0767 100.943C81.026 100.892 81.0006 100.816 81.0006 100.714ZM85.1676 103.007C85.1676 103.492 85.0454 103.871 84.8009 104.145C84.5565 104.416 84.2188 104.552 83.7879 104.552C83.5218 104.552 83.2855 104.489 83.0791 104.364C82.8727 104.24 82.7134 104.06 82.6011 103.827C82.4889 103.593 82.4327 103.32 82.4327 103.007C82.4327 102.521 82.5541 102.144 82.7967 101.874C83.0393 101.602 83.376 101.467 83.8069 101.467C84.2234 101.467 84.5538 101.605 84.7982 101.882C85.0445 102.159 85.1676 102.534 85.1676 103.007ZM82.8999 103.007C82.8999 103.387 82.9759 103.676 83.128 103.876C83.2801 104.075 83.5037 104.174 83.7988 104.174C84.0939 104.174 84.3175 104.076 84.4696 103.878C84.6235 103.679 84.7005 103.389 84.7005 103.007C84.7005 102.628 84.6235 102.341 84.4696 102.146C84.3175 101.948 84.0921 101.85 83.7934 101.85C83.4983 101.85 83.2756 101.947 83.1253 102.14C82.975 102.334 82.8999 102.623 82.8999 103.007ZM88.1504 104.498V102.572C88.1504 102.329 88.0952 102.148 87.9847 102.029C87.8743 101.909 87.7014 101.85 87.466 101.85C87.1546 101.85 86.9265 101.934 86.7816 102.102C86.6368 102.271 86.5644 102.549 86.5644 102.936V104.498H86.1135V101.521H86.4802L86.5535 101.928H86.5752C86.6676 101.782 86.797 101.669 86.9636 101.589C87.1302 101.507 87.3157 101.467 87.5203 101.467C87.8788 101.467 88.1486 101.554 88.3297 101.727C88.5107 101.899 88.6012 102.176 88.6012 102.556V104.498H88.1504Z" fill="white"/>
<defs>
<filter id="filter0_dddii_2578_9772" x="82.735" y="66.3082" width="163.384" height="182.85" filterUnits="userSpaceOnUse" color-interpolation-filters="sRGB">
<feFlood flood-opacity="0" result="BackgroundImageFix"/>
<feColorMatrix in="SourceAlpha" type="matrix" values="0 0 0 0 0 0 0 0 0 0 0 0 0 0 0 0 0 0 127 0" result="hardAlpha"/>
<feOffset dy="1.3905"/>
<feGaussianBlur stdDeviation="13.905"/>
<feColorMatrix type="matrix" values="0 0 0 0 0.970833 0 0 0 0 0 0 0 0 0 0.466 0 0 0 0.48 0"/>
<feBlend mode="normal" in2="BackgroundImageFix" result="effect1_dropShadow_2578_9772"/>
<feColorMatrix in="SourceAlpha" type="matrix" values="0 0 0 0 0 0 0 0 0 0 0 0 0 0 0 0 0 0 127 0" result="hardAlpha"/>
<feOffset dx="20.8575" dy="41.7149"/>
<feGaussianBlur stdDeviation="13.905"/>
<feColorMatrix type="matrix" values="0 0 0 0 0.02 0 0 0 0 0 0 0 0 0 1 0 0 0 0.2 0"/>
<feBlend mode="normal" in2="effect1_dropShadow_2578_9772" result="effect2_dropShadow_2578_9772"/>
<feColorMatrix in="SourceAlpha" type="matrix" values="0 0 0 0 0 0 0 0 0 0 0 0 0 0 0 0 0 0 127 0" result="hardAlpha"/>
<feOffset/>
<feGaussianBlur stdDeviation="3.47625"/>
<feColorMatrix type="matrix" values="0 0 0 0 1 0 0 0 0 0.575 0 0 0 0 0.575 0 0 0 0.13 0"/>
<feBlend mode="normal" in2="effect2_dropShadow_2578_9772" result="effect3_dropShadow_2578_9772"/>
<feBlend mode="normal" in="SourceGraphic" in2="effect3_dropShadow_2578_9772" result="shape"/>
<feColorMatrix in="SourceAlpha" type="matrix" values="0 0 0 0 0 0 0 0 0 0 0 0 0 0 0 0 0 0 127 0" result="hardAlpha"/>
<feOffset dx="3.47625" dy="6.95249"/>
<feGaussianBlur stdDeviation="17.3812"/>
<feComposite in2="hardAlpha" operator="arithmetic" k2="-1" k3="1"/>
<feColorMatrix type="matrix" values="0 0 0 0 1 0 0 0 0 0 0 0 0 0 0 0 0 0 1 0"/>
<feBlend mode="normal" in2="shape" result="effect4_innerShadow_2578_9772"/>
<feColorMatrix in="SourceAlpha" type="matrix" values="0 0 0 0 0 0 0 0 0 0 0 0 0 0 0 0 0 0 127 0" result="hardAlpha"/>
<feOffset dy="0.695249"/>
<feGaussianBlur stdDeviation="1.73812"/>
<feComposite in2="hardAlpha" operator="arithmetic" k2="-1" k3="1"/>
<feColorMatrix type="matrix" values="0 0 0 0 1 0 0 0 0 1 0 0 0 0 1 0 0 0 0.58 0"/>
<feBlend mode="normal" in2="effect4_innerShadow_2578_9772" result="effect5_innerShadow_2578_9772"/>
</filter>
<filter id="filter1_dii_2578_9772" x="178.331" y="84.3844" width="97.3348" height="97.3349" filterUnits="userSpaceOnUse" color-interpolation-filters="sRGB">
<feFlood flood-opacity="0" result="BackgroundImageFix"/>
<feColorMatrix in="SourceAlpha" type="matrix" values="0 0 0 0 0 0 0 0 0 0 0 0 0 0 0 0 0 0 127 0" result="hardAlpha"/>
<feOffset dy="1.3905"/>
<feGaussianBlur stdDeviation="13.905"/>
<feColorMatrix type="matrix" values="0 0 0 0 0.970833 0 0 0 0 0 0 0 0 0 0.466 0 0 0 0.48 0"/>
<feBlend mode="normal" in2="BackgroundImageFix" result="effect1_dropShadow_2578_9772"/>
<feBlend mode="normal" in="SourceGraphic" in2="effect1_dropShadow_2578_9772" result="shape"/>
<feColorMatrix in="SourceAlpha" type="matrix" values="0 0 0 0 0 0 0 0 0 0 0 0 0 0 0 0 0 0 127 0" result="hardAlpha"/>
<feOffset dx="3.47625" dy="6.95249"/>
<feGaussianBlur stdDeviation="17.3812"/>
<feComposite in2="hardAlpha" operator="arithmetic" k2="-1" k3="1"/>
<feColorMatrix type="matrix" values="0 0 0 0 1 0 0 0 0 0.0208333 0 0 0 0 0.0208333 0 0 0 1 0"/>
<feBlend mode="normal" in2="shape" result="effect2_innerShadow_2578_9772"/>
<feColorMatrix in="SourceAlpha" type="matrix" values="0 0 0 0 0 0 0 0 0 0 0 0 0 0 0 0 0 0 127 0" result="hardAlpha"/>
<feOffset dy="0.695249"/>
<feGaussianBlur stdDeviation="1.73812"/>
<feComposite in2="hardAlpha" operator="arithmetic" k2="-1" k3="1"/>
<feColorMatrix type="matrix" values="0 0 0 0 1 0 0 0 0 1 0 0 0 0 1 0 0 0 0.58 0"/>
<feBlend mode="normal" in2="effect2_innerShadow_2578_9772" result="effect3_innerShadow_2578_9772"/>
</filter>
<filter id="filter2_dii_2578_9772" x="164.426" y="61.4414" width="77.5203" height="77.5203" filterUnits="userSpaceOnUse" color-interpolation-filters="sRGB">
<feFlood flood-opacity="0" result="BackgroundImageFix"/>
<feColorMatrix in="SourceAlpha" type="matrix" values="0 0 0 0 0 0 0 0 0 0 0 0 0 0 0 0 0 0 127 0" result="hardAlpha"/>
<feOffset dy="1.3905"/>
<feGaussianBlur stdDeviation="13.905"/>
<feColorMatrix type="matrix" values="0 0 0 0 0.970833 0 0 0 0 0 0 0 0 0 0.466 0 0 0 0.48 0"/>
<feBlend mode="normal" in2="BackgroundImageFix" result="effect1_dropShadow_2578_9772"/>
<feBlend mode="normal" in="SourceGraphic" in2="effect1_dropShadow_2578_9772" result="shape"/>
<feColorMatrix in="SourceAlpha" type="matrix" values="0 0 0 0 0 0 0 0 0 0 0 0 0 0 0 0 0 0 127 0" result="hardAlpha"/>
<feOffset dx="3.47625" dy="6.95249"/>
<feGaussianBlur stdDeviation="5.21437"/>
<feComposite in2="hardAlpha" operator="arithmetic" k2="-1" k3="1"/>
<feColorMatrix type="matrix" values="0 0 0 0 1 0 0 0 0 0.0208333 0 0 0 0 0.0208333 0 0 0 1 0"/>
<feBlend mode="normal" in2="shape" result="effect2_innerShadow_2578_9772"/>
<feColorMatrix in="SourceAlpha" type="matrix" values="0 0 0 0 0 0 0 0 0 0 0 0 0 0 0 0 0 0 127 0" result="hardAlpha"/>
<feOffset dy="0.695249"/>
<feGaussianBlur stdDeviation="1.73812"/>
<feComposite in2="hardAlpha" operator="arithmetic" k2="-1" k3="1"/>
<feColorMatrix type="matrix" values="0 0 0 0 1 0 0 0 0 1 0 0 0 0 1 0 0 0 0.58 0"/>
<feBlend mode="normal" in2="effect2_innerShadow_2578_9772" result="effect3_innerShadow_2578_9772"/>
</filter>
<filter id="filter3_dii_2578_9772" x="80.6471" y="36.7597" width="85.8631" height="85.8632" filterUnits="userSpaceOnUse" color-interpolation-filters="sRGB">
<feFlood flood-opacity="0" result="BackgroundImageFix"/>
<feColorMatrix in="SourceAlpha" type="matrix" values="0 0 0 0 0 0 0 0 0 0 0 0 0 0 0 0 0 0 127 0" result="hardAlpha"/>
<feOffset dy="1.3905"/>
<feGaussianBlur stdDeviation="13.905"/>
<feColorMatrix type="matrix" values="0 0 0 0 0.970833 0 0 0 0 0 0 0 0 0 0.466 0 0 0 0.48 0"/>
<feBlend mode="normal" in2="BackgroundImageFix" result="effect1_dropShadow_2578_9772"/>
<feBlend mode="normal" in="SourceGraphic" in2="effect1_dropShadow_2578_9772" result="shape"/>
<feColorMatrix in="SourceAlpha" type="matrix" values="0 0 0 0 0 0 0 0 0 0 0 0 0 0 0 0 0 0 127 0" result="hardAlpha"/>
<feOffset dx="3.47625" dy="6.95249"/>
<feGaussianBlur stdDeviation="8.69061"/>
<feComposite in2="hardAlpha" operator="arithmetic" k2="-1" k3="1"/>
<feColorMatrix type="matrix" values="0 0 0 0 1 0 0 0 0 0.0208333 0 0 0 0 0.0208333 0 0 0 1 0"/>
<feBlend mode="normal" in2="shape" result="effect2_innerShadow_2578_9772"/>
<feColorMatrix in="SourceAlpha" type="matrix" values="0 0 0 0 0 0 0 0 0 0 0 0 0 0 0 0 0 0 127 0" result="hardAlpha"/>
<feOffset dy="0.695249"/>
<feGaussianBlur stdDeviation="1.73812"/>
<feComposite in2="hardAlpha" operator="arithmetic" k2="-1" k3="1"/>
<feColorMatrix type="matrix" values="0 0 0 0 1 0 0 0 0 1 0 0 0 0 1 0 0 0 0.58 0"/>
<feBlend mode="normal" in2="effect2_innerShadow_2578_9772" result="effect3_innerShadow_2578_9772"/>
</filter>
<filter id="filter4_dii_2578_9772" x="55.6178" y="108.718" width="76.4773" height="76.4773" filterUnits="userSpaceOnUse" color-interpolation-filters="sRGB">
<feFlood flood-opacity="0" result="BackgroundImageFix"/>
<feColorMatrix in="SourceAlpha" type="matrix" values="0 0 0 0 0 0 0 0 0 0 0 0 0 0 0 0 0 0 127 0" result="hardAlpha"/>
<feOffset dy="1.3905"/>
<feGaussianBlur stdDeviation="13.905"/>
<feColorMatrix type="matrix" values="0 0 0 0 0.970833 0 0 0 0 0 0 0 0 0 0.466 0 0 0 0.48 0"/>
<feBlend mode="normal" in2="BackgroundImageFix" result="effect1_dropShadow_2578_9772"/>
<feBlend mode="normal" in="SourceGraphic" in2="effect1_dropShadow_2578_9772" result="shape"/>
<feColorMatrix in="SourceAlpha" type="matrix" values="0 0 0 0 0 0 0 0 0 0 0 0 0 0 0 0 0 0 127 0" result="hardAlpha"/>
<feOffset dx="3.47625" dy="6.95249"/>
<feGaussianBlur stdDeviation="8.69061"/>
<feComposite in2="hardAlpha" operator="arithmetic" k2="-1" k3="1"/>
<feColorMatrix type="matrix" values="0 0 0 0 1 0 0 0 0 0.0208333 0 0 0 0 0.0208333 0 0 0 1 0"/>
<feBlend mode="normal" in2="shape" result="effect2_innerShadow_2578_9772"/>
<feColorMatrix in="SourceAlpha" type="matrix" values="0 0 0 0 0 0 0 0 0 0 0 0 0 0 0 0 0 0 127 0" result="hardAlpha"/>
<feOffset dy="0.695249"/>
<feGaussianBlur stdDeviation="1.73812"/>
<feComposite in2="hardAlpha" operator="arithmetic" k2="-1" k3="1"/>
<feColorMatrix type="matrix" values="0 0 0 0 1 0 0 0 0 1 0 0 0 0 1 0 0 0 0.58 0"/>
<feBlend mode="normal" in2="effect2_innerShadow_2578_9772" result="effect3_innerShadow_2578_9772"/>
</filter>
<filter id="filter5_dii_2578_9772" x="199.188" y="65.6128" width="62.5721" height="62.5724" filterUnits="userSpaceOnUse" color-interpolation-filters="sRGB">
<feFlood flood-opacity="0" result="BackgroundImageFix"/>
<feColorMatrix in="SourceAlpha" type="matrix" values="0 0 0 0 0 0 0 0 0 0 0 0 0 0 0 0 0 0 127 0" result="hardAlpha"/>
<feOffset dy="1.3905"/>
<feGaussianBlur stdDeviation="13.905"/>
<feColorMatrix type="matrix" values="0 0 0 0 0.970833 0 0 0 0 0 0 0 0 0 0.466 0 0 0 0.48 0"/>
<feBlend mode="normal" in2="BackgroundImageFix" result="effect1_dropShadow_2578_9772"/>
<feBlend mode="normal" in="SourceGraphic" in2="effect1_dropShadow_2578_9772" result="shape"/>
<feColorMatrix in="SourceAlpha" type="matrix" values="0 0 0 0 0 0 0 0 0 0 0 0 0 0 0 0 0 0 127 0" result="hardAlpha"/>
<feOffset dx="3.47625" dy="6.95249"/>
<feGaussianBlur stdDeviation="17.3812"/>
<feComposite in2="hardAlpha" operator="arithmetic" k2="-1" k3="1"/>
<feColorMatrix type="matrix" values="0 0 0 0 1 0 0 0 0 0.0208333 0 0 0 0 0.0208333 0 0 0 1 0"/>
<feBlend mode="normal" in2="shape" result="effect2_innerShadow_2578_9772"/>
<feColorMatrix in="SourceAlpha" type="matrix" values="0 0 0 0 0 0 0 0 0 0 0 0 0 0 0 0 0 0 127 0" result="hardAlpha"/>
<feOffset dy="0.695249"/>
<feGaussianBlur stdDeviation="1.73812"/>
<feComposite in2="hardAlpha" operator="arithmetic" k2="-1" k3="1"/>
<feColorMatrix type="matrix" values="0 0 0 0 1 0 0 0 0 1 0 0 0 0 1 0 0 0 0.58 0"/>
<feBlend mode="normal" in2="effect2_innerShadow_2578_9772" result="effect3_innerShadow_2578_9772"/>
</filter>
<filter id="filter6_dii_2578_9772" x="182.155" y="138.961" width="62.5721" height="62.5724" filterUnits="userSpaceOnUse" color-interpolation-filters="sRGB">
<feFlood flood-opacity="0" result="BackgroundImageFix"/>
<feColorMatrix in="SourceAlpha" type="matrix" values="0 0 0 0 0 0 0 0 0 0 0 0 0 0 0 0 0 0 127 0" result="hardAlpha"/>
<feOffset dy="1.3905"/>
<feGaussianBlur stdDeviation="13.905"/>
<feColorMatrix type="matrix" values="0 0 0 0 0.970833 0 0 0 0 0 0 0 0 0 0.466 0 0 0 0.48 0"/>
<feBlend mode="normal" in2="BackgroundImageFix" result="effect1_dropShadow_2578_9772"/>
<feBlend mode="normal" in="SourceGraphic" in2="effect1_dropShadow_2578_9772" result="shape"/>
<feColorMatrix in="SourceAlpha" type="matrix" values="0 0 0 0 0 0 0 0 0 0 0 0 0 0 0 0 0 0 127 0" result="hardAlpha"/>
<feOffset dx="3.47625" dy="6.95249"/>
<feGaussianBlur stdDeviation="17.3812"/>
<feComposite in2="hardAlpha" operator="arithmetic" k2="-1" k3="1"/>
<feColorMatrix type="matrix" values="0 0 0 0 1 0 0 0 0 0.0208333 0 0 0 0 0.0208333 0 0 0 1 0"/>
<feBlend mode="normal" in2="shape" result="effect2_innerShadow_2578_9772"/>
<feColorMatrix in="SourceAlpha" type="matrix" values="0 0 0 0 0 0 0 0 0 0 0 0 0 0 0 0 0 0 127 0" result="hardAlpha"/>
<feOffset dy="0.695249"/>
<feGaussianBlur stdDeviation="1.73812"/>
<feComposite in2="hardAlpha" operator="arithmetic" k2="-1" k3="1"/>
<feColorMatrix type="matrix" values="0 0 0 0 1 0 0 0 0 1 0 0 0 0 1 0 0 0 0.58 0"/>
<feBlend mode="normal" in2="effect2_innerShadow_2578_9772" result="effect3_innerShadow_2578_9772"/>
</filter>
<filter id="filter7_dii_2578_9772" x="61.1803" y="35.7173" width="62.5721" height="62.5724" filterUnits="userSpaceOnUse" color-interpolation-filters="sRGB">
<feFlood flood-opacity="0" result="BackgroundImageFix"/>
<feColorMatrix in="SourceAlpha" type="matrix" values="0 0 0 0 0 0 0 0 0 0 0 0 0 0 0 0 0 0 127 0" result="hardAlpha"/>
<feOffset dy="1.3905"/>
<feGaussianBlur stdDeviation="13.905"/>
<feColorMatrix type="matrix" values="0 0 0 0 0.970833 0 0 0 0 0 0 0 0 0 0.466 0 0 0 0.48 0"/>
<feBlend mode="normal" in2="BackgroundImageFix" result="effect1_dropShadow_2578_9772"/>
<feBlend mode="normal" in="SourceGraphic" in2="effect1_dropShadow_2578_9772" result="shape"/>
<feColorMatrix in="SourceAlpha" type="matrix" values="0 0 0 0 0 0 0 0 0 0 0 0 0 0 0 0 0 0 127 0" result="hardAlpha"/>
<feOffset dx="3.47625" dy="6.95249"/>
<feGaussianBlur stdDeviation="17.3812"/>
<feComposite in2="hardAlpha" operator="arithmetic" k2="-1" k3="1"/>
<feColorMatrix type="matrix" values="0 0 0 0 1 0 0 0 0 0.0208333 0 0 0 0 0.0208333 0 0 0 1 0"/>
<feBlend mode="normal" in2="shape" result="effect2_innerShadow_2578_9772"/>
<feColorMatrix in="SourceAlpha" type="matrix" values="0 0 0 0 0 0 0 0 0 0 0 0 0 0 0 0 0 0 127 0" result="hardAlpha"/>
<feOffset dy="0.695249"/>
<feGaussianBlur stdDeviation="1.73812"/>
<feComposite in2="hardAlpha" operator="arithmetic" k2="-1" k3="1"/>
<feColorMatrix type="matrix" values="0 0 0 0 1 0 0 0 0 1 0 0 0 0 1 0 0 0 0.58 0"/>
<feBlend mode="normal" in2="effect2_innerShadow_2578_9772" result="effect3_innerShadow_2578_9772"/>
</filter>
<filter id="filter8_dii_2578_9772" x="10.0807" y="162.6" width="62.5721" height="62.5724" filterUnits="userSpaceOnUse" color-interpolation-filters="sRGB">
<feFlood flood-opacity="0" result="BackgroundImageFix"/>
<feColorMatrix in="SourceAlpha" type="matrix" values="0 0 0 0 0 0 0 0 0 0 0 0 0 0 0 0 0 0 127 0" result="hardAlpha"/>
<feOffset dy="1.3905"/>
<feGaussianBlur stdDeviation="13.905"/>
<feColorMatrix type="matrix" values="0 0 0 0 0.970833 0 0 0 0 0 0 0 0 0 0.466 0 0 0 0.48 0"/>
<feBlend mode="normal" in2="BackgroundImageFix" result="effect1_dropShadow_2578_9772"/>
<feBlend mode="normal" in="SourceGraphic" in2="effect1_dropShadow_2578_9772" result="shape"/>
<feColorMatrix in="SourceAlpha" type="matrix" values="0 0 0 0 0 0 0 0 0 0 0 0 0 0 0 0 0 0 127 0" result="hardAlpha"/>
<feOffset dx="3.47625" dy="6.95249"/>
<feGaussianBlur stdDeviation="17.3812"/>
<feComposite in2="hardAlpha" operator="arithmetic" k2="-1" k3="1"/>
<feColorMatrix type="matrix" values="0 0 0 0 1 0 0 0 0 0.0208333 0 0 0 0 0.0208333 0 0 0 1 0"/>
<feBlend mode="normal" in2="shape" result="effect2_innerShadow_2578_9772"/>
<feColorMatrix in="SourceAlpha" type="matrix" values="0 0 0 0 0 0 0 0 0 0 0 0 0 0 0 0 0 0 127 0" result="hardAlpha"/>
<feOffset dy="0.695249"/>
<feGaussianBlur stdDeviation="1.73812"/>
<feComposite in2="hardAlpha" operator="arithmetic" k2="-1" k3="1"/>
<feColorMatrix type="matrix" values="0 0 0 0 1 0 0 0 0 1 0 0 0 0 1 0 0 0 0.58 0"/>
<feBlend mode="normal" in2="effect2_innerShadow_2578_9772" result="effect3_innerShadow_2578_9772"/>
</filter>
<filter id="filter9_dii_2578_9772" x="5.90879" y="108.023" width="90.7303" height="90.73" filterUnits="userSpaceOnUse" color-interpolation-filters="sRGB">
<feFlood flood-opacity="0" result="BackgroundImageFix"/>
<feColorMatrix in="SourceAlpha" type="matrix" values="0 0 0 0 0 0 0 0 0 0 0 0 0 0 0 0 0 0 127 0" result="hardAlpha"/>
<feOffset dy="1.3905"/>
<feGaussianBlur stdDeviation="13.905"/>
<feColorMatrix type="matrix" values="0 0 0 0 0.970833 0 0 0 0 0 0 0 0 0 0.466 0 0 0 0.48 0"/>
<feBlend mode="normal" in2="BackgroundImageFix" result="effect1_dropShadow_2578_9772"/>
<feBlend mode="normal" in="SourceGraphic" in2="effect1_dropShadow_2578_9772" result="shape"/>
<feColorMatrix in="SourceAlpha" type="matrix" values="0 0 0 0 0 0 0 0 0 0 0 0 0 0 0 0 0 0 127 0" result="hardAlpha"/>
<feOffset dx="3.47625" dy="6.95249"/>
<feGaussianBlur stdDeviation="17.3812"/>
<feComposite in2="hardAlpha" operator="arithmetic" k2="-1" k3="1"/>
<feColorMatrix type="matrix" values="0 0 0 0 1 0 0 0 0 0.0208333 0 0 0 0 0.0208333 0 0 0 1 0"/>
<feBlend mode="normal" in2="shape" result="effect2_innerShadow_2578_9772"/>
<feColorMatrix in="SourceAlpha" type="matrix" values="0 0 0 0 0 0 0 0 0 0 0 0 0 0 0 0 0 0 127 0" result="hardAlpha"/>
<feOffset dy="0.695249"/>
<feGaussianBlur stdDeviation="1.73812"/>
<feComposite in2="hardAlpha" operator="arithmetic" k2="-1" k3="1"/>
<feColorMatrix type="matrix" values="0 0 0 0 1 0 0 0 0 1 0 0 0 0 1 0 0 0 0.58 0"/>
<feBlend mode="normal" in2="effect2_innerShadow_2578_9772" result="effect3_innerShadow_2578_9772"/>
</filter>
<filter id="filter10_dii_2578_9772" x="140.788" y="151.824" width="96.2918" height="96.292" filterUnits="userSpaceOnUse" color-interpolation-filters="sRGB">
<feFlood flood-opacity="0" result="BackgroundImageFix"/>
<feColorMatrix in="SourceAlpha" type="matrix" values="0 0 0 0 0 0 0 0 0 0 0 0 0 0 0 0 0 0 127 0" result="hardAlpha"/>
<feOffset dy="1.3905"/>
<feGaussianBlur stdDeviation="13.905"/>
<feColorMatrix type="matrix" values="0 0 0 0 0.970833 0 0 0 0 0 0 0 0 0 0.466 0 0 0 0.48 0"/>
<feBlend mode="normal" in2="BackgroundImageFix" result="effect1_dropShadow_2578_9772"/>
<feBlend mode="normal" in="SourceGraphic" in2="effect1_dropShadow_2578_9772" result="shape"/>
<feColorMatrix in="SourceAlpha" type="matrix" values="0 0 0 0 0 0 0 0 0 0 0 0 0 0 0 0 0 0 127 0" result="hardAlpha"/>
<feOffset dx="3.47625" dy="6.95249"/>
<feGaussianBlur stdDeviation="17.3812"/>
<feComposite in2="hardAlpha" operator="arithmetic" k2="-1" k3="1"/>
<feColorMatrix type="matrix" values="0 0 0 0 1 0 0 0 0 0.0208333 0 0 0 0 0.0208333 0 0 0 1 0"/>
<feBlend mode="normal" in2="shape" result="effect2_innerShadow_2578_9772"/>
<feColorMatrix in="SourceAlpha" type="matrix" values="0 0 0 0 0 0 0 0 0 0 0 0 0 0 0 0 0 0 127 0" result="hardAlpha"/>
<feOffset dy="0.695249"/>
<feGaussianBlur stdDeviation="1.73812"/>
<feComposite in2="hardAlpha" operator="arithmetic" k2="-1" k3="1"/>
<feColorMatrix type="matrix" values="0 0 0 0 1 0 0 0 0 1 0 0 0 0 1 0 0 0 0.58 0"/>
<feBlend mode="normal" in2="effect2_innerShadow_2578_9772" result="effect3_innerShadow_2578_9772"/>
</filter>
<filter id="filter11_dii_2578_9772" x="23.6393" y="51.3598" width="105.33" height="105.33" filterUnits="userSpaceOnUse" color-interpolation-filters="sRGB">
<feFlood flood-opacity="0" result="BackgroundImageFix"/>
<feColorMatrix in="SourceAlpha" type="matrix" values="0 0 0 0 0 0 0 0 0 0 0 0 0 0 0 0 0 0 127 0" result="hardAlpha"/>
<feOffset dy="1.3905"/>
<feGaussianBlur stdDeviation="13.905"/>
<feColorMatrix type="matrix" values="0 0 0 0 0.970833 0 0 0 0 0 0 0 0 0 0.466 0 0 0 0.48 0"/>
<feBlend mode="normal" in2="BackgroundImageFix" result="effect1_dropShadow_2578_9772"/>
<feBlend mode="normal" in="SourceGraphic" in2="effect1_dropShadow_2578_9772" result="shape"/>
<feColorMatrix in="SourceAlpha" type="matrix" values="0 0 0 0 0 0 0 0 0 0 0 0 0 0 0 0 0 0 127 0" result="hardAlpha"/>
<feOffset dx="3.47625" dy="6.95249"/>
<feGaussianBlur stdDeviation="17.3812"/>
<feComposite in2="hardAlpha" operator="arithmetic" k2="-1" k3="1"/>
<feColorMatrix type="matrix" values="0 0 0 0 1 0 0 0 0 0.0208333 0 0 0 0 0.0208333 0 0 0 1 0"/>
<feBlend mode="normal" in2="shape" result="effect2_innerShadow_2578_9772"/>
<feColorMatrix in="SourceAlpha" type="matrix" values="0 0 0 0 0 0 0 0 0 0 0 0 0 0 0 0 0 0 127 0" result="hardAlpha"/>
<feOffset dy="0.695249"/>
<feGaussianBlur stdDeviation="1.73812"/>
<feComposite in2="hardAlpha" operator="arithmetic" k2="-1" k3="1"/>
<feColorMatrix type="matrix" values="0 0 0 0 1 0 0 0 0 1 0 0 0 0 1 0 0 0 0.58 0"/>
<feBlend mode="normal" in2="effect2_innerShadow_2578_9772" result="effect3_innerShadow_2578_9772"/>
</filter>
<linearGradient id="paint0_linear_2578_9772" x1="203.708" y1="36.4125" x2="139.745" y2="203.272" gradientUnits="userSpaceOnUse">
<stop stop-color="#7947F7"/>
<stop offset="1" stop-color="white" stop-opacity="0.9"/>
</linearGradient>
<linearGradient id="paint1_linear_2578_9772" x1="203.708" y1="36.4125" x2="139.745" y2="203.272" gradientUnits="userSpaceOnUse">
<stop stop-color="#7947F7"/>
<stop offset="1" stop-color="white" stop-opacity="0.9"/>
</linearGradient>
<linearGradient id="paint2_linear_2578_9772" x1="250.859" y1="83.7725" x2="220.157" y2="163.865" gradientUnits="userSpaceOnUse">
<stop stop-color="#7947F7"/>
<stop offset="1" stop-color="white" stop-opacity="0.9"/>
</linearGradient>
<linearGradient id="paint3_linear_2578_9772" x1="215.714" y1="73.6694" x2="199.595" y2="115.718" gradientUnits="userSpaceOnUse">
<stop stop-color="#7947F7"/>
<stop offset="1" stop-color="white" stop-opacity="0.9"/>
</linearGradient>
<linearGradient id="paint4_linear_2578_9772" x1="140.878" y1="43.5815" x2="118.619" y2="101.649" gradientUnits="userSpaceOnUse">
<stop stop-color="#7947F7"/>
<stop offset="1" stop-color="white" stop-opacity="0.9"/>
</linearGradient>
<linearGradient id="paint5_linear_2578_9772" x1="105.787" y1="121.622" x2="90.4358" y2="161.668" gradientUnits="userSpaceOnUse">
<stop stop-color="#7947F7"/>
<stop offset="1" stop-color="white" stop-opacity="0.9"/>
</linearGradient>
<linearGradient id="paint6_linear_2578_9772" x1="234.451" y1="87.527" x2="229.334" y2="100.876" gradientUnits="userSpaceOnUse">
<stop stop-color="#7947F7"/>
<stop offset="1" stop-color="white" stop-opacity="0.9"/>
</linearGradient>
<linearGradient id="paint7_linear_2578_9772" x1="217.418" y1="160.876" x2="212.301" y2="174.224" gradientUnits="userSpaceOnUse">
<stop stop-color="#7947F7"/>
<stop offset="1" stop-color="white" stop-opacity="0.9"/>
</linearGradient>
<linearGradient id="paint8_linear_2578_9772" x1="96.4433" y1="57.6315" x2="91.3263" y2="70.9803" gradientUnits="userSpaceOnUse">
<stop stop-color="#7947F7"/>
<stop offset="1" stop-color="white" stop-opacity="0.9"/>
</linearGradient>
<linearGradient id="paint9_linear_2578_9772" x1="45.3437" y1="184.514" x2="40.2267" y2="197.863" gradientUnits="userSpaceOnUse">
<stop stop-color="#7947F7"/>
<stop offset="1" stop-color="white" stop-opacity="0.9"/>
</linearGradient>
<linearGradient id="paint10_linear_2578_9772" x1="71.3568" y1="111.691" x2="45.5157" y2="179.103" gradientUnits="userSpaceOnUse">
<stop stop-color="#7947F7"/>
<stop offset="1" stop-color="white" stop-opacity="0.9"/>
</linearGradient>
<linearGradient id="paint11_linear_2578_9772" x1="295.226" y1="101.262" x2="269.385" y2="168.674" gradientUnits="userSpaceOnUse">
<stop stop-color="#7947F7"/>
<stop offset="1" stop-color="white" stop-opacity="0.9"/>
</linearGradient>
<linearGradient id="paint12_linear_2578_9772" x1="212.198" y1="151.888" x2="182.263" y2="229.978" gradientUnits="userSpaceOnUse">
<stop stop-color="#7947F7"/>
<stop offset="1" stop-color="white" stop-opacity="0.9"/>
</linearGradient>
<linearGradient id="paint13_linear_2578_9772" x1="131.261" y1="128.046" x2="86.4872" y2="244.848" gradientUnits="userSpaceOnUse">
<stop stop-color="#7947F7"/>
<stop offset="1" stop-color="white" stop-opacity="0.9"/>
</linearGradient>
<linearGradient id="paint14_linear_2578_9772" x1="104.739" y1="45.567" x2="68.1519" y2="141.011" gradientUnits="userSpaceOnUse">
<stop stop-color="#7947F7"/>
<stop offset="1" stop-color="white" stop-opacity="0.9"/>
</linearGradient>
<linearGradient id="paint15_linear_2578_9772" x1="203.463" y1="7.32873" x2="166.876" y2="102.773" gradientUnits="userSpaceOnUse">
<stop stop-color="#7947F7"/>
<stop offset="1" stop-color="white" stop-opacity="0.9"/>
</linearGradient>
</defs>
</svg>
