<svg width="279" height="240" viewBox="0 0 279 240" fill="none" xmlns="http://www.w3.org/2000/svg">
<rect width="278.182" height="240" rx="58.72" fill="#C5CFFF"/>
<mask id="mask0_2433_9945" style="mask-type:alpha" maskUnits="userSpaceOnUse" x="0" y="0" width="279" height="240">
<rect width="278.182" height="240" rx="58.72" fill="#C5CFFF"/>
</mask>
<g mask="url(#mask0_2433_9945)">
<circle cx="37.5002" cy="26.591" r="45.6818" fill="#96A8FF"/>
<circle cx="37.5002" cy="64.7726" r="45.6818" fill="#96A8FF"/>
<circle cx="77.0453" cy="41.5909" r="53.8636" fill="#96A8FF"/>
<circle cx="143.182" cy="39.5455" r="58.6364" fill="#96A8FF"/>
<circle cx="242.727" cy="49.0909" r="81.8182" fill="#96A8FF"/>
<path d="M162.504 240.185C160.522 240.059 161.666 223.337 161.932 221.847C162.862 216.183 164.764 210.724 167.523 205.635C167.683 205.341 167.56 204.98 167.241 204.878C166.876 204.762 166.491 205.052 166.553 205.43C167.037 208.36 168.394 210.974 170.658 213.498C171.287 214.149 172.292 213.401 171.663 212.751C169.445 210.302 168.196 207.655 167.853 204.792C167.81 204.272 166.782 203.776 166.461 204.348C162.906 210.691 160.695 217.631 159.989 224.882C159.61 228.696 159.644 232.529 160.137 236.452C160.286 237.736 160.036 241.366 162.51 241.479C163.494 241.455 163.472 240.212 162.504 240.185Z" fill="#96A8FF"/>
<path d="M172.108 212.668C172.521 206.336 176.731 201.438 181.46 197.099C185.694 193.221 190.243 189.667 194.855 186.134C203.604 179.418 212.535 172.76 219.954 164.938C220.194 164.686 220.109 164.278 219.777 164.172C219.454 164.069 219.107 164.32 219.134 164.658C219.91 174.412 219.398 184.022 217.436 193.385C216.433 198.067 215.033 202.68 213.459 207.181C212.681 209.406 212.137 211.987 210.869 214C209.406 216.401 206.499 216.992 203.481 217.492C202.893 217.586 202.81 218.065 203.172 218.461C203.832 219.234 204.496 219.558 205.556 219.952C206.126 220.133 206.934 220.222 207.471 220.506C210.141 221.974 209.129 223.619 208.484 224.988C206.951 228.265 205.039 231.422 202.843 234.376C198.516 240.079 193.036 245.022 186.596 249.041C185.895 249.492 186.919 250.436 187.62 249.985C195.288 245.177 201.617 239.1 206.24 232.029C207.299 230.456 208.248 228.791 209.07 227.085C209.795 225.686 210.95 224.031 210.788 222.349C210.441 219.123 206.617 219.85 204.552 218.087C204.376 217.936 204.087 217.998 204.016 218.218C203.949 218.43 204.131 218.637 204.349 218.597C208.326 217.861 211.392 216.768 212.745 213.361C214.897 207.92 216.749 202.328 218.125 196.696C220.729 186.115 221.511 175.123 220.518 164.015C220.444 163.373 219.541 163.142 219.126 163.571C210.823 172.561 200.391 179.917 190.481 187.607C182.038 194.192 171.304 201.62 170.57 212.459C170.58 213.305 172.07 213.443 172.108 212.668Z" fill="#96A8FF"/>
<path d="M217.952 165.726C208.323 194.416 180.957 215.093 174.112 244.894C173.948 245.629 175.341 246.073 175.568 245.358C182.413 215.557 209.779 194.879 219.407 166.19C219.651 165.425 218.195 164.961 217.952 165.726Z" fill="#96A8FF"/>
<path d="M204.696 236.678C204.017 236.562 206.331 229.404 206.594 228.772C207.576 226.345 208.88 224.038 210.445 221.921C210.516 221.826 210.493 221.693 210.388 221.637C210.272 221.574 210.12 221.64 210.102 221.771C209.917 223.08 210.089 224.273 210.603 225.456C210.749 225.755 211.186 225.465 211.04 225.166C210.545 224.042 210.411 222.865 210.618 221.622C210.663 221.397 210.36 221.151 210.182 221.387C208.212 224.004 206.644 226.919 205.567 230.016C204.998 231.645 204.572 233.295 204.295 234.998C204.2 235.555 203.697 237.108 204.55 237.235C204.897 237.256 205.031 236.72 204.696 236.678Z" fill="#96A8FF"/>
<path d="M211.205 225.143C212.074 222.433 214.108 220.459 216.259 218.741C218.185 217.206 220.183 215.821 222.201 214.446C226.051 211.82 229.959 209.224 233.464 206.071C233.555 205.988 233.545 205.844 233.436 205.785C233.33 205.728 233.191 205.786 233.168 205.904C232.323 210.149 231.04 214.29 229.272 218.277C228.385 220.259 227.367 222.2 226.302 224.086C225.774 225.019 225.289 226.112 224.615 226.938C223.828 227.924 222.743 228.087 221.63 228.207C221.414 228.229 221.33 228.432 221.411 228.614C221.554 228.967 221.749 229.128 222.075 229.33C222.253 229.427 222.526 229.49 222.681 229.629C223.447 230.345 222.905 231.021 222.523 231.589C221.611 232.951 220.581 234.248 219.474 235.45C217.308 237.767 214.825 239.72 212.111 241.246C211.814 241.418 212.065 241.857 212.362 241.685C215.595 239.858 218.505 237.443 220.932 234.547C221.482 233.904 222.005 233.218 222.488 232.51C222.901 231.931 223.495 231.255 223.631 230.527C223.874 229.151 222.505 229.314 221.964 228.537C221.909 228.458 221.779 228.453 221.733 228.538C221.689 228.62 221.756 228.717 221.848 228.704C223.305 228.512 224.489 228.132 225.344 226.722C226.72 224.449 228.008 222.102 229.134 219.723C231.256 215.253 232.788 210.55 233.712 205.74C233.759 205.462 233.47 205.334 233.276 205.505C229.342 209.111 224.85 211.946 220.502 214.942C216.794 217.509 212.188 220.366 210.691 225.005C210.597 225.369 211.103 225.476 211.205 225.143Z" fill="#96A8FF"/>
<path d="M232.618 206.396C225.965 218.433 214.023 226.466 208.218 239.069C208.076 239.38 208.513 239.615 208.674 239.315C214.48 226.711 226.422 218.679 233.074 206.641C233.247 206.319 232.791 206.074 232.618 206.396Z" fill="#96A8FF"/>
<rect x="175.909" y="196.364" width="107.727" height="43.6364" rx="21.8182" fill="url(#paint0_linear_2433_9945)"/>
</g>
<path d="M159.134 169.458C153.16 170.368 148.096 174.967 147.81 181.003C147.173 194.421 147.59 201.248 149.07 201.483C150.324 201.683 152.345 197.145 155.122 187.869C156.444 183.45 159.938 179.995 164.414 178.883C164.497 178.862 164.581 178.841 164.664 178.821C169.72 177.565 175.36 171.759 171.21 168.609C168.974 166.931 165.843 168.407 159.134 169.458Z" fill="#7C8BD3" stroke="#7C8BD3" stroke-width="3" stroke-miterlimit="10"/>
<path d="M137.508 133.118C134.471 135.88 134.771 142.517 138.004 150.093C139.38 153.316 142.871 154.88 146.364 155.168C147.37 155.258 150.523 155.571 158.574 158.5C159.144 158.713 159.79 158.955 160.502 159.227C162.106 159.84 161.965 162.091 160.306 162.533C159.452 162.761 158.878 163.573 158.982 164.45C159.248 166.677 159.666 169.12 160.318 171.695C160.539 172.572 160.775 173.426 161.024 174.255C163.173 181.408 171.094 184.517 178.12 181.982C185.254 179.365 189.033 177.487 192.656 174.96C196.525 172.254 198.56 169.973 199.186 167.11C199.544 165.455 199.342 164.024 199.275 163.51C198.828 160.737 197.285 158.858 195.675 157.069C192.141 153.111 190.375 151.143 187.49 148.951C180.893 143.964 174.877 141.348 168.19 138.507C163.024 136.316 159.58 134.862 154.571 133.655C146.565 131.798 140.549 130.345 137.508 133.118Z" fill="#7C8BD3"/>
<path opacity="0.11" d="M140.143 149.196C139.802 145.203 143.441 142.069 147.26 143.287C147.561 143.383 147.866 143.482 148.176 143.584C150.837 144.456 155.869 146.222 167.431 152.059C167.896 152.294 168.378 152.539 168.877 152.794C174.527 155.678 174.197 163.701 168.413 166.305C166.957 166.96 165.501 167.615 164.046 168.271C161.881 169.246 159.346 168.001 159.156 165.634C159.133 165.359 159.115 165.086 159.101 164.819C159.058 163.966 159.6 163.202 160.403 162.91C162.12 162.288 162.195 159.93 160.498 159.256C157.231 157.956 154.581 157.086 152.648 156.51C150.971 155.995 149.294 155.548 147.147 155.302C147.01 155.286 146.873 155.271 146.738 155.257C143.421 154.914 140.427 152.519 140.143 149.196Z" fill="#7C8BD3"/>
<path opacity="0.11" d="M140.571 154.855C144.261 154.295 150.031 153.871 156.852 155.324C159.593 155.902 162.044 156.687 164.183 157.535C166.964 158.639 167.022 162.337 164.452 163.868C163.434 164.474 162.415 165.08 161.396 165.686C160.483 166.229 159.311 165.68 159.145 164.631C159.034 163.927 159.433 163.241 160.101 162.991C160.224 162.945 160.346 162.899 160.469 162.854C162.135 162.231 162.184 159.924 160.525 159.282C158.146 158.359 156.072 157.648 154.369 157.113C151.462 156.174 150.053 155.861 149.226 155.682C145.67 154.944 142.673 154.832 140.571 154.855Z" fill="#7C8BD3"/>
<path d="M113.284 171.603C112.365 174.419 113.856 177.465 116.652 178.442C116.948 178.545 117.243 178.649 117.538 178.752C119.984 179.608 121.659 181.868 121.812 184.455C122.491 195.985 123.419 201.777 124.58 201.817C125.952 201.875 127.657 194.142 129.71 178.602C130.307 174.085 127.368 169.86 122.94 168.784C121.867 168.523 120.795 168.262 119.722 168.002C116.964 167.332 114.164 168.906 113.284 171.603Z" fill="#7C8BD3" stroke="#7C8BD3" stroke-width="3" stroke-miterlimit="10"/>
<path d="M125.02 156.48C133.191 154.499 140.502 147.828 138.981 139.558C137.483 131.351 136.186 130.054 135.046 129.517C132.563 128.377 130.036 130.568 123.73 133.453C118.564 135.824 119.235 134.817 110.379 138.149C103.893 140.587 96.0662 143.941 87.747 148.817C85.958 149.868 81.7536 152.395 77.7059 156.957C73.9041 161.228 73.6357 163.487 73.6357 164.583C73.6357 165.701 73.9041 168.206 77.5717 171.963C81.8878 176.368 86.763 178.269 100.83 182.764C101.447 182.961 102.057 183.154 102.657 183.345C107.713 184.949 113.232 182.697 115.321 177.822C117.96 171.65 118.519 168.742 118.743 167.266C118.865 166.458 118.953 165.715 119.015 165.057C119.109 164.046 118.433 163.147 117.451 162.892C115.551 162.398 115.253 159.927 117.055 159.147C118.546 158.501 120.167 157.887 121.918 157.337C122.971 157.01 124.006 156.726 125.02 156.48Z" fill="#7C8BD3"/>
<path opacity="0.13" d="M135.963 142.98C126.347 147.654 120.018 150.941 117.178 152.306C114.698 153.479 112.237 154.62 109.797 155.731C107.59 156.736 107.553 166.399 108.769 168.497C111.19 172.653 111.061 177.833 108.611 181.967C107.873 183.212 108.293 184.961 109.654 185.453C110.594 185.793 111.648 185.395 112.103 184.505C113.051 182.653 113.796 181.074 114.36 179.857C116.127 175.988 117.268 173.484 118.14 170.062C118.561 168.432 118.824 166.969 118.989 165.752C119.138 164.649 118.448 163.622 117.392 163.27C115.381 162.599 115.17 159.894 117.126 159.076C117.877 158.761 118.655 158.457 119.459 158.165C125.589 155.939 131.312 155.156 136.05 155.002C138.501 154.922 140.566 152.94 140.391 150.494C140.277 148.656 140.12 146.875 139.932 145.156C139.721 143.233 137.715 142.157 135.963 142.98Z" fill="#7C8BD3"/>
<path opacity="0.15" d="M139.876 154.81C139.876 154.609 134.262 153.983 127.151 154.989C122.064 155.712 117.696 157.041 114.162 158.447C111.787 159.391 111.509 162.527 113.552 164.062C114.584 164.837 115.1 166.12 114.892 167.393C114.814 167.872 114.736 168.35 114.658 168.829C114.066 172.462 117.496 173.53 118.25 169.928C118.551 168.495 118.767 167.12 118.916 165.808C119.078 164.387 118.153 163.087 116.774 162.704C115.184 162.267 114.918 160.117 116.43 159.458C116.853 159.273 117.296 159.087 117.758 158.903C129.454 154.095 139.876 155.079 139.876 154.81Z" fill="#7C8BD3"/>
<path d="M156.961 81.0107C158.101 80.6305 159.823 82.3972 160.852 83.4259C162.507 85.1032 163.335 86.8028 163.581 87.3172C166.622 93.6236 166.085 91.1189 168.657 96.9781C171.724 104.004 173.839 110.648 173.952 111.007C173.956 111.019 173.959 111.028 173.963 111.04C175.01 114.363 175.66 116.842 177.692 119.901C179.995 123.345 181.896 124.261 182.679 124.575C183.438 124.889 184.186 125.071 184.892 125.164C187.473 125.504 189.843 123.962 191.557 122.003C192.832 120.549 193.368 119.766 194.375 119.655C194.598 119.632 195.627 119.52 196.164 120.124C196.41 120.393 196.455 120.683 196.701 120.75C197.014 120.84 197.327 120.482 197.707 120.124C197.864 119.968 198.892 119.006 199.966 118.559C200.525 118.313 201.598 118 201.911 118.402C202.224 118.805 201.531 119.655 201.844 119.968C202.157 120.281 202.918 119.565 203.723 119.901C204.17 120.102 204.55 120.594 204.573 121.063C204.617 121.645 204.125 121.779 204.036 122.539C203.946 123.166 204.237 123.277 204.192 123.792C204.103 124.575 203.387 124.686 202.403 125.827C201.844 126.475 202.001 126.52 200.994 128.018C200.614 128.578 200.122 129.316 199.742 129.74C198.266 131.395 195.761 131.53 194.442 131.619C193.718 131.657 193.038 131.623 192.409 131.543C190.053 131.241 187.564 131.407 185.318 132.178C181.449 133.453 178.05 132.558 176.663 132.178C171.139 130.635 167.897 126.453 165.75 123.591C162.552 119.341 161.389 115.652 159.287 108.943C158.638 106.907 156.693 100.444 155.932 91.7898C155.619 87.8539 155.105 81.6369 156.961 81.0107Z" fill="#FBCAAF"/>
<path d="M157.587 81.8154C159.555 82.4639 160.919 84.0517 162.06 85.729C163.245 87.451 164.296 89.2624 165.303 91.1185C167.338 94.9203 169.037 98.8786 170.625 102.882C172.235 106.907 173.711 110.977 175.21 115.025C176.417 118.245 177.871 121.667 180.666 123.814C183.26 125.804 186.95 126.632 189.858 124.82C190.215 124.596 189.88 124.015 189.522 124.239C186.436 126.162 182.455 124.82 180.062 122.382C177.334 119.565 176.171 115.651 174.852 112.073C172.056 104.425 169.194 96.6423 165.191 89.5084C163.446 86.3999 161.389 82.3745 157.766 81.1669C157.364 81.0327 157.185 81.6812 157.587 81.8154Z" fill="#7C8BD3"/>
<path d="M157.364 103.486C159.355 110.374 161.032 117.575 165.125 123.568C168.501 128.533 173.511 132.491 179.661 132.983C182.993 133.252 186.37 132.446 189.053 130.434C189.389 130.188 189.053 129.584 188.718 129.852C185.587 132.223 181.539 132.827 177.737 132.044C173.98 131.261 170.738 129.092 168.166 126.319C162.329 119.99 160.383 111.358 158.058 103.329C157.901 102.904 157.253 103.083 157.364 103.486Z" fill="#7C8BD3"/>
<path d="M189.924 124.91C190.863 123.59 191.736 122.069 192.876 120.929C193.547 120.258 194.643 119.587 195.605 120.124C196.432 120.593 196.499 121.667 196.007 122.382C195.761 122.74 196.343 123.076 196.588 122.718C197.64 121.22 196.544 119.207 194.71 119.296C193.614 119.363 192.72 120.057 192.049 120.884C191.087 122.047 190.26 123.344 189.365 124.574C189.097 124.91 189.678 125.245 189.924 124.91Z" fill="#7C8BD3"/>
<path d="M193.033 121.98C192.541 122.964 193.144 124.105 194.24 124.284C195.56 124.485 196.521 123.367 196.745 122.182C196.834 121.757 196.186 121.578 196.096 122.003C195.962 122.718 195.582 123.456 194.799 123.613C194.061 123.769 193.234 123.121 193.614 122.338C193.793 121.936 193.212 121.6 193.033 121.98Z" fill="#7C8BD3"/>
<path d="M188.605 130.635C191.177 131.149 193.614 132.334 196.275 131.775C198.422 131.328 200.256 130.009 201.441 128.197C201.687 127.839 201.106 127.504 200.86 127.862C199.697 129.628 197.863 130.858 195.761 131.194C193.346 131.574 191.087 130.456 188.761 129.986C188.359 129.919 188.18 130.568 188.605 130.635Z" fill="#7C8BD3"/>
<path d="M194.933 123.613C194.217 124.038 194.307 125.022 194.911 125.536C195.425 125.961 196.118 125.894 196.744 125.894C197.818 125.871 198.712 126.05 199.652 126.587C200.032 126.788 200.367 126.229 199.987 126.006C199.294 125.603 198.556 125.335 197.751 125.245C197.371 125.201 196.99 125.223 196.588 125.223C196.342 125.223 196.096 125.245 195.872 125.201C195.604 125.133 194.732 124.53 195.268 124.217C195.626 123.971 195.291 123.389 194.933 123.613Z" fill="#7C8BD3"/>
<path d="M195.384 123.904C197.061 122.942 199.118 123.143 200.549 124.463C200.863 124.754 201.332 124.284 201.019 123.993C199.364 122.473 196.994 122.204 195.048 123.322C194.668 123.546 195.003 124.127 195.384 123.904Z" fill="#7C8BD3"/>
<path d="M196.836 121.176C197.573 120.639 198.289 120.125 199.027 119.588C199.34 119.364 199.631 119.141 199.966 118.94C200.19 118.805 200.414 118.671 200.66 118.582C201.404 118.328 201.744 118.512 201.674 119.133C201.599 119.789 200.929 120.982 201.554 120.773C202.762 120.348 203.187 118.716 201.934 118.023C201.241 117.62 200.414 117.911 199.787 118.269C198.647 118.917 197.596 119.834 196.522 120.594C196.142 120.863 196.478 121.444 196.836 121.176Z" fill="#7C8BD3"/>
<path d="M198.264 122.964C199.159 122.405 200.053 121.824 200.948 121.265C201.351 121.019 201.753 120.728 202.2 120.527C202.536 120.348 202.894 120.281 203.274 120.281C203.678 120.281 203.951 120.406 204.093 120.654C204.432 121.246 204.19 122.669 204.616 122.137C205.465 121.063 204.705 119.744 203.408 119.632C202.558 119.543 201.798 119.968 201.105 120.392C200.031 121.041 198.98 121.734 197.929 122.405C197.549 122.606 197.884 123.188 198.264 122.964Z" fill="#7C8BD3"/>
<path d="M200.884 124.015C201.488 123.68 202.092 123.367 202.695 123.076C202.897 122.964 203.568 122.562 203.769 122.607C204.328 122.718 203.948 123.277 203.814 123.501C203.59 123.859 204.171 124.217 204.395 123.837C204.753 123.255 205.066 122.115 204.104 121.936C203.59 121.824 203.031 122.182 202.584 122.405C201.89 122.741 201.197 123.076 200.526 123.456C200.168 123.658 200.526 124.239 200.884 124.015Z" fill="#7C8BD3"/>
<path d="M199.942 123.859C201.552 124.754 201.865 126.744 200.591 128.086C200.3 128.399 200.77 128.869 201.06 128.556C202.626 126.923 202.268 124.374 200.278 123.278C199.92 123.077 199.562 123.658 199.942 123.859Z" fill="#7C8BD3"/>
<path d="M204.061 123.613C203.345 124.53 202.518 125.335 201.601 126.006C201.266 126.252 201.579 126.833 201.937 126.587C202.921 125.872 203.793 125.044 204.553 124.083C204.799 123.747 204.329 123.278 204.061 123.613Z" fill="#7C8BD3"/>
<path d="M193.189 126.23C194.598 126.342 195.917 126.789 197.102 127.572C197.46 127.818 197.796 127.236 197.438 126.99C196.141 126.163 194.732 125.693 193.189 125.559C192.764 125.537 192.764 126.207 193.189 126.23Z" fill="#7C8BD3"/>
<path opacity="0.09" d="M158.262 97.7688C157.923 96.7586 156.507 97.096 156.715 98.1412C157.341 101.272 157.788 103.576 158.616 106.639C159.868 111.291 160.897 115.204 163.312 119.744C164.9 122.719 165.973 124.754 168.21 126.945C169.797 128.488 173.957 132.558 180.219 132.648C181.52 132.663 182.728 132.505 183.825 132.246C187.102 131.474 190.674 131.488 194.039 131.552C195.135 131.574 197.193 131.597 199.138 130.255C199.809 129.785 201.598 128.578 201.732 126.543C201.755 126.23 201.844 124.53 200.636 123.635C199.295 122.651 197.103 123.233 196.924 123.926C196.768 124.575 198.378 125.111 198.333 126.028C198.266 127.191 195.627 127.907 195.135 128.041C180.047 132.113 171.634 125.813 170.96 125.281C170.926 125.255 170.899 125.232 170.867 125.205C168.326 123.069 166.96 120.723 163.804 112.834C162.159 108.728 160.249 103.677 158.262 97.7688Z" fill="#7C8BD3"/>
<path d="M87.2101 130.121C89.5126 129.861 91.8799 130.262 94.0539 131.063C95.2411 131.501 96.6764 131.831 98.3024 131.821C101.791 131.799 104.251 130.211 105.638 129.316C107.941 127.84 109.26 126.208 110.468 124.642C114.225 119.879 115.723 114.914 116.797 111.314C117.758 108.093 117.378 108.272 118.295 105.477C120.017 100.244 121.493 99.0586 122.969 95.3239C125.407 89.1516 125.563 81.7941 123.64 80.989C122.745 80.6312 121.426 81.6822 118.81 83.8291C118.027 84.4777 116.64 85.6182 115.187 87.3849C114.024 88.8161 111.989 91.6339 109.73 98.3653C107.896 103.867 108.299 104.761 106.13 110.844C104.788 114.623 103.938 116.167 102.909 117.575C101.746 119.141 99.823 121.69 96.3344 123.032C96.0369 123.147 95.7427 123.248 95.453 123.335C92.2734 124.295 89.9707 120.853 87.0983 119.186C86.584 118.872 85.3316 118.157 84.4371 118.694C83.9575 118.986 83.1269 119.178 82.7188 118.792C82.0513 118.161 81.4252 117.825 81.0155 117.643C80.434 117.397 79.2488 116.86 78.7568 117.352C78.3272 117.781 77.6761 118.637 77.1328 118.909C77.0519 118.95 76.9742 118.997 76.9006 119.051C76.5204 119.342 76.0955 119.924 76.2521 120.55C76.3949 121.092 76.6403 121.696 76.6577 122.256C76.6638 122.455 76.6959 122.664 76.7664 122.876C76.8783 123.189 77.0124 123.39 77.8175 124.284C78.8462 125.447 78.8686 125.403 79.0699 125.693C79.629 126.521 79.5171 126.968 79.8749 127.706C80.5011 129.07 81.8429 129.719 82.2902 129.92C83.7214 130.613 85.0409 130.434 87.2101 130.121Z" fill="#FBCAAF"/>
<path d="M123.572 80.3849C120.151 82.1069 117.064 84.4774 114.672 87.4965C112.279 90.5155 110.624 94.0042 109.371 97.6271C108.119 101.295 107.225 105.074 106.263 108.809C105.346 112.432 103.803 116.189 101.388 119.074C98.57 122.45 94.1868 123.747 89.9154 123.255C89.4905 123.211 89.4905 123.882 89.9154 123.926C93.2922 124.307 96.8033 123.658 99.5987 121.668C102.551 119.566 104.407 116.054 105.726 112.745C107.135 109.234 107.761 105.41 108.79 101.787C109.886 97.8731 111.228 93.9818 113.375 90.5155C115.924 86.3783 119.569 83.158 123.908 80.9887C124.31 80.7651 123.952 80.1837 123.572 80.3849Z" fill="#7C8BD3"/>
<path d="M118.765 102.346C116.73 110.083 115.075 118.425 109.976 124.843C107.763 127.616 104.878 129.987 101.389 130.926C97.7661 131.91 93.8525 131.351 90.9229 128.936C90.5875 128.667 90.1178 129.137 90.4533 129.405C94.9036 133.073 101.255 132.693 105.906 129.562C111.005 126.14 114.024 120.371 115.992 114.713C117.379 110.732 118.34 106.595 119.414 102.525C119.526 102.1 118.877 101.921 118.765 102.346Z" fill="#7C8BD3"/>
<path d="M90.2744 123.591C89.4917 122.383 88.7537 121.108 87.8816 119.968C87.2777 119.163 86.4727 118.402 85.3992 118.313C83.5431 118.201 82.738 120.326 83.6325 121.734C83.8562 122.092 84.4376 121.757 84.214 121.399C83.7891 120.728 83.8114 119.61 84.5718 119.14C85.6452 118.469 86.741 119.565 87.3225 120.326C88.1946 121.466 88.9103 122.718 89.693 123.926C89.9166 124.284 90.4981 123.948 90.2744 123.591Z" fill="#7C8BD3"/>
<path d="M86.3391 121.354C86.6969 122.115 85.9589 122.875 85.1762 122.607C84.5276 122.383 84.2369 121.645 84.1251 121.019C84.058 120.594 83.4094 120.773 83.4765 121.198C83.6778 122.316 84.4829 123.479 85.7576 123.322C86.8534 123.188 87.3454 121.958 86.9205 121.019C86.7416 120.616 86.1602 120.952 86.3391 121.354Z" fill="#7C8BD3"/>
<path d="M90.744 129.025C88.6865 129.472 86.6738 130.568 84.527 130.233C82.4919 129.919 80.7923 128.622 79.7636 126.9C79.5399 126.52 78.9585 126.878 79.1821 127.236C80.2332 129.003 81.8881 130.344 83.9232 130.814C86.3831 131.373 88.5747 130.188 90.9229 129.673C91.3478 129.584 91.1689 128.935 90.744 129.025Z" fill="#7C8BD3"/>
<path d="M84.8382 123.211C84.9948 123.323 85.0171 123.546 84.9501 123.703C84.8159 124.15 84.3239 124.195 83.9213 124.24C83.4964 124.262 83.0715 124.195 82.6243 124.24C81.8639 124.329 81.1707 124.597 80.5221 125C80.1643 125.224 80.4998 125.805 80.8576 125.581C81.685 125.067 82.5124 124.866 83.4964 124.888C84.0779 124.91 84.6817 124.955 85.1513 124.553C85.7551 124.061 85.8222 123.054 85.1513 122.629C84.8159 122.406 84.4804 122.987 84.8382 123.211Z" fill="#7C8BD3"/>
<path d="M85.0864 122.361C83.3197 121.221 81.0833 121.534 79.6074 123.032C79.2943 123.345 79.7863 123.815 80.077 123.502C81.3517 122.227 83.2079 121.959 84.7509 122.943C85.1087 123.166 85.4442 122.585 85.0864 122.361Z" fill="#7C8BD3"/>
<path d="M83.8315 119.677C82.9146 118.939 82.0201 118.156 81.0584 117.485C80.477 117.083 79.739 116.68 79.0234 116.949C77.6145 117.463 77.9052 119.342 79.1352 119.811C79.1468 119.816 79.1582 119.82 79.1694 119.823C79.8067 120.005 78.9716 118.948 78.7708 118.317C78.7128 118.134 78.7368 118.001 78.8429 117.917C79.1981 117.636 79.7626 117.594 80.1924 117.738C80.3883 117.804 80.5526 117.928 80.7224 118.045C81.0039 118.24 81.2725 118.506 81.5281 118.693C82.1319 119.185 82.758 119.677 83.3619 120.169C83.6749 120.415 84.1669 119.945 83.8315 119.677Z" fill="#7C8BD3"/>
<path d="M82.4457 121.421C81.4841 120.75 80.5225 120.057 79.5608 119.408C78.9347 118.983 78.2414 118.581 77.481 118.648C76.2734 118.76 75.5354 120.079 76.2734 121.108C76.5194 121.443 77.1009 121.108 76.8549 120.773C76.5043 120.135 76.6079 119.714 77.1493 119.508C77.6961 119.3 78.3293 119.407 78.8228 119.721C79.1359 119.9 79.4267 120.124 79.7174 120.325C80.5225 120.884 81.3275 121.443 82.1326 122.002C82.4681 122.248 82.8035 121.667 82.4457 121.421Z" fill="#7C8BD3"/>
<path d="M80.053 122.473C79.4492 122.092 78.8231 121.735 78.1745 121.422C77.7496 121.198 77.1682 120.795 76.6538 120.974C75.8487 121.265 76.1618 122.338 76.4749 122.875C76.6762 123.255 77.2576 122.92 77.0564 122.54C76.9893 122.406 76.7433 122.003 76.8103 121.846C76.8998 121.623 77.2576 121.757 77.4142 121.802C77.5931 121.846 77.772 121.981 77.9509 122.07C78.5547 122.383 79.1361 122.719 79.7176 123.076C80.0754 123.278 80.4332 122.696 80.053 122.473Z" fill="#7C8BD3"/>
<path d="M80.2761 122.316C78.3976 123.479 78.1516 125.962 79.5605 127.594C79.8512 127.93 80.3209 127.438 80.0301 127.125C78.912 125.827 79.1132 123.815 80.6116 122.898C80.9694 122.674 80.634 122.093 80.2761 122.316Z" fill="#7C8BD3"/>
<path d="M76.3406 123.054C77.0115 123.994 77.7942 124.843 78.7111 125.581C79.0465 125.85 79.5162 125.38 79.1807 125.112C78.3086 124.419 77.5706 123.636 76.922 122.719C76.6537 122.361 76.0722 122.697 76.3406 123.054Z" fill="#7C8BD3"/>
<path d="M86.7395 124.597C85.3306 124.732 84.0112 125.201 82.8483 126.029C82.4905 126.275 82.8259 126.856 83.1837 126.61C84.2572 125.85 85.4201 125.38 86.7395 125.268C87.1868 125.224 87.1868 124.553 86.7395 124.597Z" fill="#7C8BD3"/>
<path opacity="0.17" d="M119.19 102.838C119.507 101.525 117.76 100.968 117.271 102.227C116.852 103.304 116.477 104.278 116.148 105.141C112.95 113.46 112.056 116.368 109.037 120.192C106.465 123.434 103.423 127.482 98.2799 128.265C97.9827 128.31 97.6897 128.343 97.4014 128.365C93.1948 128.681 88.2316 129.935 84.3028 128.399C82.6479 127.751 81.0154 126.073 81.3508 125.045C81.6863 123.994 83.9226 124.061 83.9002 123.569C83.8779 123.166 82.3348 122.607 80.9483 123.032C80.747 123.099 79.3828 123.546 78.9356 124.776C78.3541 126.409 79.8748 128.086 80.2774 128.533C82.3348 130.814 85.488 130.703 86.0471 130.68C89.0196 130.592 92.2718 130.658 95.1432 131.432C95.4114 131.504 95.6892 131.567 95.9764 131.619C100.516 132.469 104.184 129.92 106.196 128.667C111.944 125.022 114.113 119.208 115.88 114.825C116.73 112.7 117.11 111.314 119.19 102.838Z" fill="#7C8BD3"/>
<path opacity="0.17" d="M77.3002 119.119C77.7057 119.047 78.1749 119.586 78.6262 120.349C79.4591 121.757 80.2617 124.523 78.642 124.754C77.7475 124.911 76.2268 122.719 76.4952 120.729C76.5175 120.572 76.6964 119.23 77.3002 119.119Z" fill="#7C8BD3"/>
<path d="M123.328 80.5416C119.101 85.3945 119.012 91.3878 118.989 101.899C118.979 107.729 119.453 113.138 120.203 118.054C121.68 127.731 129.35 135.578 139.139 135.578C139.356 135.578 139.572 135.576 139.786 135.574C148.982 135.46 155.923 127.847 157.186 118.738C160.116 97.9627 162.039 84.2987 154.413 77.5897C146.72 70.8359 130.551 72.2448 123.328 80.5416Z" fill="#54FFE0"/>
<path d="M134.353 68.4428C133.615 69.4491 133.973 70.366 133.816 74.1231C133.657 77.6229 135.096 81.4644 138.592 81.6843C138.8 81.6973 139.011 81.7042 139.228 81.7042C140.567 81.7042 141.739 81.4413 142.717 81.0829C144.774 80.3287 145.326 77.9063 144.908 75.7556C144.081 71.4842 144.931 70.1648 143.969 68.7111C142.247 66.1393 136.119 66.0275 134.353 68.4428Z" fill="#FBCAAF" stroke="#7C8BD3" stroke-width="3" stroke-miterlimit="10"/>
<path d="M125.295 56.3887C125.205 59.5643 125.921 61.9348 126.502 63.8357C127.375 66.6311 128.336 69.762 131.109 72.6245C131.143 72.6596 131.177 72.6944 131.211 72.729C135.126 76.7156 141.819 76.3351 145.601 72.2219C148.374 69.2029 149.425 66.1391 150.208 63.8357C150.878 61.8453 152.019 58.2448 151.549 53.5485C151.214 50.2611 150.856 46.7054 148.038 43.9547C143.879 39.9069 137.796 40.958 136.946 41.1145C131.042 42.2103 128.068 46.8843 127.352 48.159C125.429 51.424 125.339 54.622 125.295 56.3887Z" fill="#FBCAAF" stroke="#7C8BD3" stroke-width="3" stroke-miterlimit="10"/>
<path d="M137.033 58.8262C136.899 61.6887 137.168 64.5288 137.861 67.3019C137.928 67.5255 138.263 67.6374 138.42 67.4584C138.934 66.8546 139.27 66.2061 139.426 65.4234C139.516 64.9985 138.867 64.8196 138.778 65.2445C138.661 65.8477 138.46 66.3155 138.115 66.7804C138.041 66.879 138.086 67.0213 138.205 67.0522C138.335 67.0859 138.466 66.9688 138.436 66.8384C137.821 64.2091 137.597 61.5392 137.704 58.8486C137.704 58.4013 137.033 58.4013 137.033 58.8262Z" fill="#7C8BD3"/>
<path d="M141.73 59.8096C143.318 61.4869 146.516 61.9565 147.365 59.2505C147.5 58.848 146.851 58.6691 146.717 59.0716C146.024 61.2856 143.43 60.5923 142.222 59.3176C141.886 59.0269 141.417 59.4965 141.73 59.8096Z" fill="#7C8BD3"/>
<path d="M135.56 69.1588C137.148 70.8137 139.675 70.769 141.173 69.0023C141.442 68.6668 140.972 68.1972 140.704 68.5326C139.451 70.0086 137.394 70.0981 136.03 68.6892C135.739 68.3761 135.27 68.8457 135.56 69.1588Z" fill="#7C8BD3"/>
<path d="M131.443 55.6059C132.114 54.8679 133.053 54.5548 134.037 54.7561C134.462 54.8455 134.641 54.197 134.216 54.1075C133.008 53.8615 131.801 54.2193 130.973 55.1362C130.683 55.4493 131.152 55.919 131.443 55.6059Z" fill="#7C8BD3"/>
<path d="M141.956 54.2422C142.985 54.1303 143.924 54.3763 144.752 54.9802C145.11 55.2262 145.445 54.6447 145.087 54.3987C144.17 53.7278 143.075 53.4371 141.956 53.5713C141.531 53.616 141.531 54.2869 141.956 54.2422Z" fill="#7C8BD3"/>
<path d="M130.237 60.0123C131.825 61.6895 135.023 62.1591 135.873 59.4532C136.007 59.0506 135.358 58.8717 135.224 59.2743C134.531 61.4882 131.937 60.795 130.729 59.5203C130.416 59.2072 129.924 59.6992 130.237 60.0123Z" fill="#7C8BD3"/>
<path d="M131.695 50.7529C134.588 47.3205 139.587 48.4806 142.917 51.4914C143.244 51.7881 143.571 52.0772 143.896 52.3587C148.019 55.9291 151.124 61.1898 148.933 66.1842C148.363 67.4924 147.723 68.649 147.073 69.66C145.367 72.3148 143.418 75.3656 144.773 78.2156C146.808 82.487 152.667 84.4103 157.162 82.9567C157.699 82.7778 161.479 81.5031 162.708 78.1038C163.044 77.1646 163.223 76.024 162.708 73.005C161.971 68.6441 160.673 65.4462 160.293 64.4622C159.22 61.7339 157.833 57.7979 156.581 52.6543C156.178 50.8653 154.523 44.447 148.709 40.7347C147.188 39.7507 143.923 37.6709 139.808 38.2971C136.983 38.7209 134.22 39.7455 131.513 40.6587C130.177 41.1094 128.729 41.7875 127.307 42.8145C123.267 45.7144 121.528 49.9056 120.784 53.2299C120.02 56.6418 120.019 60.2113 118.966 63.5453C117.311 68.7336 115.924 69.3821 115.611 72.5801C115.522 73.3852 115.119 77.4553 117.803 80.7874C118.362 81.4807 120.084 83.5605 123.014 84.1419C126.905 84.9247 131.087 82.733 132.809 79.2891C134.217 76.4715 132.223 73.4309 130.52 70.7807C128.91 68.2753 127.371 64.6224 127.755 60.1013C128.091 56.0966 129.794 53.0075 131.695 50.7529Z" fill="#7C8BD3"/>
<path opacity="0.16" d="M150.923 57.7755C150.745 57.7312 150.26 59.9983 148.789 63.3976C148.766 63.4509 148.743 63.5034 148.719 63.5564C148.521 64.0004 147.504 66.2515 146.361 68.1969C145.276 70.0386 143.218 73.0224 139.484 76.2233C138.995 76.6421 139.098 77.4305 139.685 77.6944C139.825 77.7577 139.979 77.782 140.132 77.7657C140.675 77.7081 141.218 77.6532 141.761 77.5989C143.161 77.4586 144.192 76.234 144.104 74.8291C144.057 74.0891 144.334 73.3789 144.829 72.8265C146.454 71.0116 148.389 68.3484 149.671 64.7529C150.878 61.2419 151.147 57.8203 150.923 57.7755Z" fill="#7C8BD3"/>
<path opacity="0.29" d="M115.97 70.7994C116.243 69.8761 117.66 70.1787 118.049 71.059C118.922 73.0047 120.957 75.1292 123.148 75.1068C124.892 75.0922 126.761 73.7042 127.804 71.4654C128.16 70.7026 130.183 70.3675 130.662 71.059C130.988 71.5308 131.321 71.9671 131.654 72.369C132.955 73.9414 134.05 75.8664 133.435 77.8128C133.212 78.5284 132.653 79.982 131.4 81.3462C130.864 81.9276 129.119 83.8062 126.302 84.2758C122.209 84.9467 119.123 82.1065 118.564 81.5698C114.896 78.0588 115.522 73.0941 115.634 72.3338C115.714 71.7844 115.83 71.2723 115.97 70.7994Z" fill="#7C8BD3"/>
<path opacity="0.12" d="M150.269 62.6817C150.445 62.0228 151.627 62.0381 151.683 62.7178C152.063 67.4141 151.683 68.6664 152.443 71.0593C152.555 71.4395 154.277 76.7172 156.804 76.762C157.842 76.7856 158.942 75.9381 159.878 74.4658C160.667 73.2258 162.81 73.2646 162.954 74.7269C163.178 76.9409 162.976 77.6789 162.887 78.0367C162.261 80.0717 160.606 81.1899 159.734 81.7937C156.648 83.8959 153.315 83.5828 152.823 83.5157C152.041 83.4263 148.418 82.9566 146.003 79.9152C145.622 79.4456 144.415 77.8578 144.057 75.4873C143.879 74.2398 144.5 73.0727 145.321 72.1164C146.413 70.8433 147.609 69.1742 148.641 67.0786C149.386 65.5353 149.906 64.0472 150.269 62.6817Z" fill="#7C8BD3"/>
<path d="M38.3235 149.502C38.8948 148.051 46.2351 144.832 47.6835 145.409C49.0764 145.964 51.1964 150.92 50.6471 152.315C50.0759 153.766 42.7358 156.985 41.2874 156.408C39.8944 155.853 37.7742 150.897 38.3235 149.502Z" fill="#96A8FF"/>
<defs>
<linearGradient id="paint0_linear_2433_9945" x1="283.636" y1="196.364" x2="114.546" y2="255" gradientUnits="userSpaceOnUse">
<stop stop-color="#96A8FF"/>
<stop offset="1" stop-color="#96A8FF" stop-opacity="0"/>
</linearGradient>
</defs>
</svg>
