<svg width="72" height="72" viewBox="0 0 72 72" fill="none" xmlns="http://www.w3.org/2000/svg">
<path d="M72 36C72 45.3707 68.4199 53.9048 62.5525 60.31L62.5521 60.3104C62.5302 60.3343 62.5083 60.3581 62.486 60.3819C62.3947 60.4819 62.3019 60.5811 62.2091 60.6797C61.7067 61.2131 61.1883 61.7305 60.6549 62.2324C58.9997 63.7885 57.1972 65.1896 55.2704 66.413C52.1898 68.3694 48.7914 69.8706 45.17 70.8219C44.8732 70.8996 44.5749 70.9739 44.2751 71.0444C43.851 71.1445 43.424 71.2368 42.994 71.3213C41.5671 71.6021 40.1101 71.7984 38.6283 71.9057C38.4952 71.915 38.3621 71.9242 38.2285 71.9325C37.4915 71.9772 36.7482 72 36 72C33.6068 72 31.2685 71.7663 29.006 71.3213C27.9425 71.1119 26.8955 70.8554 25.868 70.5542C25.697 70.5046 25.5265 70.4531 25.3564 70.4006C24.5801 70.1606 23.8149 69.8954 23.0619 69.6049C22.9317 69.5553 22.8024 69.5043 22.6732 69.4528C20.589 68.6215 18.6005 67.6013 16.7296 66.413C14.8028 65.1896 13.0003 63.7885 11.3451 62.2324C11.1581 62.0565 10.9729 61.8787 10.7898 61.6985C10.6683 61.5799 10.5483 61.4604 10.4283 61.3394C9.85409 60.7598 9.29879 60.1608 8.76437 59.5428C3.30364 53.2309 0 45.0015 0 36C0 16.1179 16.1179 0 36 0C55.8821 0 72 16.1179 72 36Z" fill="#E2E8FF"/>
<path d="M62.599 60.4363L62.4863 60.3819C62.3949 60.4819 62.3021 60.5811 62.2093 60.6797C61.707 61.2131 61.1886 61.7305 60.6552 62.2324C59 63.7885 57.1975 65.1896 55.2707 66.413C52.1901 68.3694 48.7917 69.8706 45.1703 70.8219C44.8735 70.8996 44.5752 70.9739 44.2754 71.0444C43.8513 71.1445 43.4243 71.2368 42.9943 71.3213C41.5674 71.6021 40.1104 71.7984 38.6286 71.9057C38.4955 71.915 38.3624 71.9242 38.2288 71.9325C37.4918 71.9772 36.7485 72 36.0003 72C33.6071 72 31.2688 71.7663 29.0063 71.3213C27.9428 71.1119 26.8958 70.8554 25.8683 70.5542C25.6973 70.5046 25.5268 70.4531 25.3567 70.4006C24.5804 70.1606 23.8152 69.8954 23.0621 69.6049C22.9319 69.5553 22.8027 69.5043 22.6735 69.4528C20.5893 68.6215 18.6008 67.6013 16.7298 66.413C14.803 65.1896 13.0006 63.7885 11.3454 62.2324C11.1583 62.0565 10.9732 61.8787 10.7901 61.6985C10.6686 61.5799 10.5486 61.4604 10.4286 61.3394C9.85437 60.7598 9.29906 60.1608 8.76465 59.5428C8.76659 59.5385 8.76806 59.5336 8.77 59.5292C8.80449 59.4394 8.83898 59.3495 8.87396 59.2596C8.89777 59.1984 8.92157 59.1372 8.94537 59.076C8.99881 58.9404 9.05225 58.8049 9.10667 58.6698C9.16448 58.5255 9.22278 58.3817 9.28156 58.2389C9.301 58.1913 9.32092 58.1436 9.34036 58.0965C9.39914 57.9542 9.45841 57.8128 9.51865 57.6724C9.53857 57.6253 9.5585 57.5786 9.57891 57.532C9.59883 57.4853 9.61874 57.4387 9.63914 57.3925C9.65906 57.3464 9.67947 57.2998 9.69987 57.2541C9.78829 57.052 9.87768 56.8528 9.96805 56.6575C9.99185 56.606 10.0157 56.5555 10.039 56.5045C10.0487 56.4836 10.0589 56.4622 10.0686 56.4413C10.1099 56.3543 10.1507 56.2683 10.192 56.1828C10.2416 56.0794 10.2921 55.9773 10.3421 55.8763C10.4087 55.7427 10.4757 55.6115 10.5423 55.4837C10.6361 55.304 10.7308 55.13 10.8251 54.9624C10.8464 54.925 10.8673 54.8876 10.8887 54.8507C10.9101 54.8138 10.931 54.7773 10.9523 54.7409C10.9737 54.7049 10.9946 54.669 11.016 54.6335C11.0364 54.599 11.0568 54.565 11.0772 54.5315C11.152 54.4091 11.2268 54.291 11.3016 54.1783C11.3162 54.1564 11.3308 54.1346 11.3454 54.1132C11.4639 53.9368 11.5825 53.7736 11.7005 53.6259C11.7151 53.6074 11.7297 53.589 11.7447 53.571C11.7967 53.5064 11.8492 53.4452 11.9016 53.3874C11.9221 53.364 11.9429 53.3412 11.9638 53.3194C12.1611 53.1095 12.3724 52.9234 12.5974 52.7572C12.6153 52.7441 12.6333 52.7305 12.6523 52.7174C12.6717 52.7028 12.6916 52.6892 12.7115 52.6756C12.7266 52.6649 12.7421 52.6543 12.7577 52.644C12.7781 52.6304 12.799 52.6164 12.8199 52.6023C12.9734 52.5017 13.1323 52.4099 13.296 52.3249C13.3183 52.3132 13.3412 52.302 13.3635 52.2904C13.3864 52.2792 13.4087 52.268 13.432 52.2568C13.4451 52.2505 13.4578 52.2442 13.4714 52.2384C13.4874 52.2301 13.5044 52.2223 13.5209 52.2151C13.5622 52.1956 13.603 52.1772 13.6443 52.1587C13.6657 52.15 13.6866 52.1407 13.708 52.132C13.7196 52.1266 13.7308 52.1218 13.7425 52.1174C13.7677 52.1067 13.7925 52.0965 13.8178 52.0868C13.877 52.0625 13.9368 52.0392 13.997 52.0168C14.0446 51.9994 14.0923 51.9823 14.1404 51.9658C14.1608 51.959 14.1807 51.9517 14.2016 51.9449C14.2317 51.9347 14.2618 51.9245 14.2924 51.9148C14.3327 51.9017 14.3726 51.8886 14.4134 51.8764C14.4479 51.8657 14.4829 51.8555 14.5188 51.8449C14.5727 51.8288 14.6267 51.8138 14.6806 51.7992C14.7549 51.7788 14.8302 51.7594 14.906 51.7404C14.958 51.7273 15.0105 51.7151 15.0634 51.7025C15.0736 51.7006 15.0838 51.6981 15.094 51.6957C15.1334 51.687 15.1727 51.6777 15.2126 51.67C15.3802 51.633 15.5502 51.6 15.7227 51.5699C15.7708 51.5616 15.8189 51.5534 15.8675 51.5451L15.8787 51.5436C15.9899 51.5252 16.1021 51.5082 16.2153 51.4912L16.2221 51.4902C16.3956 51.4649 16.5715 51.4421 16.7498 51.4207C16.8139 51.413 16.878 51.4057 16.9426 51.3979C17.0063 51.3911 17.0704 51.3838 17.1345 51.377C17.2011 51.3702 17.2672 51.3629 17.3337 51.3561C17.3969 51.3493 17.4595 51.343 17.5227 51.3367C17.8642 51.3032 18.2116 51.2726 18.5624 51.241C18.6892 51.2298 18.817 51.2186 18.9452 51.207C19.4029 51.1657 19.8659 51.1215 20.3323 51.0675C20.3988 51.0598 20.4649 51.052 20.5319 51.0437C20.5747 51.0384 20.617 51.0335 20.6602 51.0277C20.7127 51.0209 20.7656 51.0141 20.8181 51.0073C20.9337 50.9917 21.0484 50.9757 21.164 50.9592C21.2034 50.9534 21.2427 50.9475 21.2821 50.9417C21.3374 50.933 21.3938 50.9247 21.4492 50.9155C21.5065 50.9062 21.5629 50.897 21.6202 50.8873C21.6668 50.88 21.7135 50.8717 21.7601 50.863C21.8111 50.8542 21.8612 50.846 21.9117 50.8363C21.9331 50.8324 21.954 50.8285 21.9749 50.8246C22.0264 50.8149 22.0774 50.8052 22.1289 50.795C22.2532 50.7707 22.3771 50.7449 22.502 50.7172C22.5545 50.7061 22.6074 50.6944 22.6599 50.6818C22.8163 50.6463 22.9723 50.6074 23.1272 50.5666C23.1705 50.555 23.2137 50.5433 23.257 50.5317C23.2934 50.5219 23.3303 50.5113 23.3668 50.5011C23.4197 50.4865 23.4717 50.4719 23.5237 50.4568C23.5883 50.4389 23.6519 50.4199 23.7156 50.401C23.8429 50.3631 23.9682 50.3242 24.0911 50.2844C24.148 50.2664 24.2038 50.2479 24.2602 50.2295L24.2718 50.2256C24.3321 50.2057 24.3919 50.1853 24.4511 50.1649C24.5104 50.1445 24.5687 50.1236 24.6265 50.1032C24.6829 50.0828 24.7397 50.0623 24.7951 50.0419L24.798 50.0405C24.8544 50.0201 24.9102 49.9992 24.9656 49.9778C25.0089 49.9613 25.0521 49.9448 25.0944 49.9273C25.1065 49.9229 25.1182 49.9181 25.1303 49.9132C25.175 49.8962 25.2192 49.8782 25.2629 49.8602C25.2819 49.8525 25.3004 49.8452 25.3193 49.8369C25.363 49.8189 25.4063 49.8015 25.449 49.783C25.4587 49.7791 25.4675 49.7752 25.4767 49.7708C25.5195 49.7534 25.5622 49.7349 25.6035 49.7164C25.654 49.6941 25.7046 49.6717 25.7546 49.6494C25.8042 49.627 25.8532 49.6042 25.9023 49.5814C26.0043 49.5338 26.1039 49.4852 26.2016 49.4366C26.2992 49.388 26.3945 49.3389 26.4868 49.2894C26.5213 49.2714 26.5553 49.253 26.5893 49.2345C26.6772 49.1864 26.7622 49.1383 26.8463 49.0892C26.9328 49.0387 27.0173 48.9882 27.0999 48.9367C27.1271 48.9206 27.1533 48.9036 27.18 48.8866C27.455 48.7122 27.7052 48.5344 27.9321 48.3551C28.0531 48.2589 28.1677 48.1628 28.2756 48.067C28.2892 48.0544 28.3033 48.0423 28.3164 48.0296C28.3504 47.9995 28.3834 47.9694 28.416 47.9388H28.4165C29.0796 47.315 29.4848 46.6883 29.703 46.1315C29.9488 45.5067 30.0377 44.0113 30.0605 42.5286C30.0663 42.1618 30.0678 41.7955 30.0664 41.4432C30.0664 41.3947 30.0659 41.3466 30.0659 41.2989C30.0654 41.2144 30.0649 41.1304 30.0639 41.0478C30.0639 41.0177 30.0634 40.987 30.0629 40.9569C30.0625 40.8806 30.0615 40.8049 30.0605 40.7305C30.0586 40.5994 30.0566 40.4716 30.0547 40.3487C30.0537 40.3074 30.0532 40.267 30.0523 40.2272V40.2248C30.0518 40.1845 30.0508 40.1451 30.0498 40.1062V40.1043C30.0493 40.0654 30.0484 40.027 30.0474 39.9896C30.0469 39.9697 30.0464 39.9503 30.0459 39.9304C30.0455 39.8934 30.0445 39.8575 30.0435 39.8215C30.0425 39.7851 30.0416 39.7496 30.0406 39.7147C30.0401 39.6797 30.0391 39.6457 30.0382 39.6121C30.0367 39.5621 30.0352 39.514 30.0338 39.4674C30.0333 39.4363 30.0323 39.4062 30.0314 39.3765C30.0309 39.3619 30.0304 39.3474 30.0299 39.3333C30.0294 39.3046 30.0285 39.2774 30.0275 39.2507V39.2497C30.027 39.2235 30.026 39.1977 30.0251 39.1734V39.1725C30.0246 39.1477 30.0236 39.1239 30.0226 39.1015V39.1011C30.0217 39.0666 30.0207 39.0345 30.0192 39.0049C30.0182 38.9747 30.0168 38.947 30.0163 38.9218C30.0124 38.8047 30.0095 38.7401 30.0095 38.7401L33.9501 37.1708L35.5144 36.548L37.7813 37.4502L41.0199 38.7401C41.0199 38.7401 41.0184 38.777 41.0155 38.8455C41.0155 38.8543 41.015 38.8635 41.0145 38.8732C41.0136 38.8965 41.0126 38.9223 41.0116 38.9509C41.0111 38.965 41.0106 38.9801 41.0102 38.9956C41.0092 39.0267 41.0077 39.0602 41.0068 39.0967C41.0063 39.1054 41.0063 39.1147 41.0058 39.1244C41.0053 39.1336 41.0053 39.1428 41.0048 39.1526C41.0043 39.1623 41.0043 39.172 41.0038 39.1822C41.0033 39.1919 41.0034 39.2021 41.0029 39.2118C41.0024 39.2342 41.0014 39.2575 41.0009 39.2813C41 39.3032 40.9995 39.326 40.9985 39.3493C40.998 39.3692 40.9975 39.3891 40.997 39.4096C40.9961 39.429 40.9956 39.4484 40.9951 39.4683C40.9941 39.5072 40.9931 39.5475 40.9917 39.5888C40.9912 39.6136 40.9907 39.6389 40.9898 39.6646C40.9888 39.6986 40.9878 39.7336 40.9868 39.7691C40.9859 39.805 40.9849 39.8415 40.9844 39.8784C40.9839 39.8988 40.9834 39.9192 40.983 39.9396C40.982 39.9697 40.9815 39.9998 40.981 40.0309C40.9805 40.0533 40.98 40.0761 40.9795 40.0989C40.9791 40.1218 40.9786 40.1451 40.9781 40.1684C40.9771 40.2087 40.9762 40.2496 40.9757 40.2909C40.9752 40.3001 40.9752 40.3093 40.9752 40.3185C40.9747 40.3346 40.9742 40.3511 40.9742 40.3676C40.9723 40.4847 40.9703 40.6057 40.9684 40.7305C40.9679 40.8034 40.9669 40.8777 40.966 40.9535C40.9655 40.9982 40.965 41.0439 40.9645 41.0896C40.9645 41.1206 40.9645 41.1517 40.964 41.1828C40.963 41.3888 40.9621 41.6011 40.9625 41.8164C40.9625 41.9164 40.963 42.0175 40.964 42.1185C40.965 42.2186 40.966 42.3187 40.9669 42.4193C40.9689 42.5738 40.9718 42.7283 40.9752 42.8823C41.0068 44.2436 41.1 45.5558 41.3259 46.1315C41.5446 46.6883 41.9493 47.315 42.6129 47.9388H42.6134C42.6455 47.9694 42.6785 47.9995 42.7125 48.0296C42.7261 48.0423 42.7402 48.0544 42.7533 48.067C42.8927 48.1909 43.0434 48.3153 43.2046 48.4382C43.4024 48.5893 43.6171 48.7394 43.8494 48.8866C43.8756 48.9036 43.9023 48.9206 43.929 48.9367C44.0116 48.9882 44.0962 49.0387 44.1831 49.0892C44.2667 49.1383 44.3517 49.1864 44.4396 49.2345C44.4736 49.253 44.5076 49.2714 44.5421 49.2894C44.6344 49.3389 44.7297 49.388 44.8273 49.4366C44.925 49.4852 45.0251 49.5338 45.1266 49.5814C45.1757 49.6042 45.2247 49.627 45.2743 49.6494C45.3248 49.6717 45.3749 49.6941 45.4254 49.7164C45.4672 49.7349 45.5094 49.7534 45.5522 49.7708C45.5614 49.7752 45.5706 49.7791 45.5804 49.783C45.6231 49.8015 45.6659 49.8189 45.7096 49.8369C45.7285 49.8452 45.7475 49.8525 45.7664 49.8602C45.8102 49.8782 45.8544 49.8962 45.8991 49.9132C45.9107 49.9181 45.9229 49.9229 45.9345 49.9273C45.9773 49.9448 46.0205 49.9613 46.0633 49.9778C46.1191 49.9992 46.1745 50.0201 46.2314 50.0405L46.2338 50.0419C46.2892 50.0623 46.346 50.0828 46.4029 50.1032C46.4602 50.1236 46.5185 50.1445 46.5778 50.1649C46.637 50.1853 46.6973 50.2057 46.7575 50.2256C46.8173 50.2455 46.877 50.2649 46.9382 50.2844C46.9562 50.2902 46.9742 50.296 46.9922 50.3014C47.0976 50.3354 47.2045 50.3684 47.3133 50.401C47.377 50.4199 47.4406 50.4389 47.5052 50.4568C47.5572 50.4719 47.6097 50.4865 47.6621 50.5011C47.6991 50.5113 47.7355 50.5219 47.7724 50.5317C47.8157 50.5433 47.8584 50.555 47.9017 50.5666C47.9619 50.5827 48.0221 50.5977 48.0824 50.6128C48.1242 50.6235 48.1664 50.6342 48.2087 50.6439C48.2626 50.657 48.3161 50.6696 48.3695 50.6818C48.403 50.69 48.437 50.6978 48.471 50.7051C48.4895 50.7095 48.5085 50.7134 48.5274 50.7172C48.6518 50.7449 48.7762 50.7707 48.9005 50.795C48.9515 50.8052 49.003 50.8149 49.054 50.8246C49.0754 50.8285 49.0963 50.8324 49.1172 50.8363C49.1677 50.846 49.2183 50.8542 49.2688 50.863C49.3159 50.8717 49.3621 50.88 49.4092 50.8873C49.466 50.897 49.5229 50.9062 49.5797 50.9155C49.6356 50.9247 49.6915 50.933 49.7473 50.9417C49.7867 50.9475 49.826 50.9534 49.8654 50.9592C49.9805 50.9757 50.0957 50.9917 50.2108 51.0073C50.2638 51.0141 50.3167 51.0209 50.3687 51.0277C50.4119 51.0335 50.4547 51.0384 50.4974 51.0437C50.5587 51.0515 50.6194 51.0583 50.6801 51.0656C50.6855 51.0661 50.6913 51.067 50.6966 51.0675C50.8132 51.0811 50.9298 51.0938 51.0459 51.1064C51.1426 51.1166 51.2388 51.1263 51.3355 51.136C51.5862 51.1613 51.8359 51.1846 52.0837 51.207C52.2119 51.2186 52.3392 51.2298 52.4665 51.241C52.8178 51.2726 53.1651 51.3032 53.5062 51.3367C53.5694 51.343 53.6325 51.3493 53.6957 51.3561C53.7617 51.3629 53.8283 51.3702 53.8944 51.377C53.9585 51.3838 54.0226 51.3911 54.0863 51.3979C54.1514 51.4057 54.2155 51.413 54.2796 51.4207C54.4574 51.4421 54.6333 51.4649 54.8068 51.4902L54.814 51.4912C54.9272 51.5082 55.0395 51.5252 55.1502 51.5436L55.1619 51.5451C55.2105 51.5534 55.2581 51.5616 55.3062 51.5699C55.4787 51.6 55.6487 51.633 55.8163 51.67C55.8562 51.6777 55.8955 51.687 55.9349 51.6957C55.9455 51.6981 55.9558 51.7006 55.966 51.7025C56.0184 51.7151 56.0709 51.7273 56.1234 51.7404C56.1987 51.7594 56.2744 51.7788 56.3488 51.7992C56.4032 51.8138 56.4571 51.8293 56.5106 51.8449C56.546 51.8555 56.581 51.8657 56.6155 51.8764C56.6568 51.8886 56.6966 51.9017 56.737 51.9148C56.7671 51.9245 56.7972 51.9347 56.8273 51.9449C56.8487 51.9517 56.8686 51.959 56.889 51.9658C56.9371 51.9823 56.9842 51.9994 57.0319 52.0168C57.0921 52.0392 57.1523 52.0625 57.2116 52.0868C57.2369 52.0965 57.2617 52.1067 57.2864 52.1174C57.2981 52.1218 57.3098 52.1266 57.3209 52.132C57.3423 52.1407 57.3637 52.15 57.3846 52.1587C57.4259 52.1772 57.4672 52.1956 57.508 52.2151C57.525 52.2223 57.5415 52.2301 57.5575 52.2384C57.5711 52.2442 57.5843 52.2505 57.5969 52.2568C57.6202 52.268 57.643 52.2792 57.6654 52.2904C57.6882 52.302 57.7111 52.3132 57.7329 52.3249C57.8966 52.4099 58.056 52.5017 58.209 52.6023C58.2299 52.6164 58.2513 52.6304 58.2717 52.644C58.2868 52.6543 58.3023 52.6649 58.3174 52.6756C58.3373 52.6892 58.3572 52.7028 58.3766 52.7174C58.3956 52.7305 58.414 52.7441 58.432 52.7572C58.6565 52.9234 58.8683 53.1095 59.0656 53.3194C59.1695 53.4296 59.274 53.5535 59.3789 53.6891C59.3998 53.7158 59.4207 53.743 59.4411 53.7707C59.4853 53.8295 59.5295 53.8897 59.5732 53.9519C59.5932 53.9796 59.6126 54.0078 59.632 54.0364C59.651 54.0636 59.6699 54.0913 59.6884 54.1195C59.701 54.138 59.7131 54.156 59.7253 54.1744C59.7476 54.2079 59.77 54.2419 59.7919 54.2759C59.8055 54.2973 59.8191 54.3187 59.8332 54.3401C59.8507 54.3678 59.8686 54.3964 59.8861 54.4246C59.9075 54.4586 59.9289 54.4931 59.9498 54.5281C59.9711 54.5626 59.9925 54.5981 60.0134 54.6335C60.1839 54.9187 60.3544 55.2277 60.5235 55.5547C60.5609 55.627 60.5988 55.7009 60.6362 55.7752C60.6489 55.8005 60.662 55.8262 60.6746 55.8515C60.6902 55.8826 60.7057 55.9142 60.7212 55.9457C60.7805 56.0653 60.8393 56.1867 60.8981 56.3096C60.9263 56.3694 60.9549 56.4296 60.9831 56.4904C61.0477 56.6293 61.1128 56.7702 61.177 56.9126C61.2309 57.0316 61.2843 57.1516 61.3378 57.273C61.366 57.3372 61.3941 57.4018 61.4218 57.4664C61.4466 57.5228 61.4709 57.5796 61.4952 57.6369C61.5316 57.7215 61.5676 57.806 61.6026 57.891C61.6254 57.9449 61.6482 57.9994 61.6706 58.0533C61.6968 58.1155 61.7221 58.1772 61.7473 58.2389C61.7639 58.2782 61.7799 58.3176 61.7959 58.3574C61.9159 58.6513 62.0335 58.9467 62.1481 59.2421C62.1671 59.2902 62.1856 59.3378 62.204 59.3859C62.2225 59.4335 62.2409 59.4811 62.2589 59.5292C62.2992 59.6347 62.3396 59.7401 62.3789 59.845C62.4042 59.9111 62.4289 59.9772 62.4532 60.0428C62.478 60.1093 62.5028 60.1759 62.5276 60.2419C62.5358 60.2648 62.5446 60.2871 62.5528 60.31C62.5616 60.3343 62.5708 60.3585 62.5795 60.3828C62.5859 60.4008 62.5927 60.4183 62.599 60.4363Z" fill="#FFC9BB"/>
<path d="M40.9749 42.8822C39.6622 43.9151 37.5226 45.1394 34.9026 44.9587C32.2441 44.7755 30.7949 43.5119 30.0603 42.5286C30.0894 40.6241 30.0088 38.7396 30.0088 38.7396L33.9498 37.1708C35.2528 37.266 36.601 37.3656 37.7811 37.4502L41.0196 38.7396C41.0196 38.7396 40.9288 40.8651 40.9749 42.8822Z" fill="#F79781"/>
<path d="M47.285 26.3455C47.285 35.1405 42.933 42.27 35.5143 42.27C28.0962 42.27 23.7441 35.1405 23.7441 26.3455C23.7441 17.5505 25.5242 9.82727 35.5143 9.82727C45.5045 9.82727 47.285 17.5505 47.285 26.3455Z" fill="#FFC9BB"/>
<path d="M23.9907 23.7735C23.9907 23.7735 22.8529 22.1912 20.9242 22.8835C18.9954 23.5758 19.1932 27.5324 20.9242 29.0161C22.6552 30.4999 24.3862 29.1148 24.3862 29.1148L23.9907 23.7735Z" fill="#FFC9BB"/>
<path d="M23.231 28.6101C22.9667 28.6106 22.6227 28.5358 22.1884 28.3084C21.4859 27.9406 20.9762 27.175 20.9485 26.4472C20.9262 25.8642 21.2026 25.3628 21.7258 25.0359C22.1233 24.7876 22.5187 24.7147 22.9025 24.8201C23.5944 25.0096 23.9684 25.7199 23.984 25.7505C24.0501 25.8788 24 26.0367 23.8718 26.1027C23.7435 26.1688 23.5861 26.1193 23.5195 25.991C23.5161 25.9852 23.231 25.4512 22.7617 25.3239C22.5221 25.2593 22.2744 25.3099 22.0033 25.4794C21.6404 25.7063 21.4562 26.0337 21.4713 26.4273C21.4922 26.968 21.8954 27.5646 22.4308 27.8449C23.2382 28.2676 23.5458 28.0048 23.5482 28.0018C23.6444 27.8935 23.8096 27.8838 23.9174 27.98C24.0258 28.0757 24.0355 28.2414 23.9393 28.3492C23.9048 28.3881 23.6871 28.6101 23.231 28.6101Z" fill="#F79781"/>
<path d="M47.0376 23.7735C47.0376 23.7735 48.1749 22.1912 50.1036 22.8835C52.0324 23.5758 51.8346 27.5324 50.1036 29.0161C48.3726 30.4999 46.6416 29.1148 46.6416 29.1148L47.0376 23.7735Z" fill="#FFC9BB"/>
<path d="M47.7983 28.6101C47.3416 28.6101 47.124 28.3881 47.0895 28.3492L47.4806 28.0018C47.4806 28.0018 47.4786 27.9989 47.4738 27.9941C47.4767 27.997 47.7818 28.2725 48.598 27.8449C49.1333 27.5646 49.5371 26.968 49.5575 26.4273C49.5725 26.0337 49.3884 25.7063 49.026 25.4794C48.7539 25.3094 48.5047 25.2589 48.2647 25.3249C47.7988 25.4522 47.5126 25.9852 47.5097 25.9905C47.4436 26.1188 47.2857 26.1693 47.157 26.1027C47.0287 26.0367 46.9787 25.8788 47.0448 25.7505C47.0603 25.7199 47.4344 25.0096 48.1262 24.8201C48.51 24.7147 48.906 24.7876 49.3029 25.0359C49.8266 25.3628 50.1026 25.8642 50.0802 26.4472C50.0525 27.175 49.5429 27.9406 48.8409 28.3084C48.4061 28.5358 48.0621 28.6101 47.7983 28.6101Z" fill="#F79781"/>
<path d="M33.041 32.676C33.0906 32.676 37.9868 32.676 37.9868 32.676C37.9868 32.676 37.7395 34.9016 35.5139 34.9016C33.2883 34.9016 33.041 32.676 33.041 32.676Z" fill="white"/>
<path d="M31.5829 25.4555C31.5829 26.138 31.2729 26.6914 30.8905 26.6914C30.5082 26.6914 30.1982 26.138 30.1982 25.4555C30.1982 24.7724 30.5082 24.219 30.8905 24.219C31.2729 24.219 31.5829 24.7724 31.5829 25.4555Z" fill="#210B1F"/>
<path d="M40.8309 25.4555C40.8309 26.138 40.5209 26.6914 40.1386 26.6914C39.7562 26.6914 39.4463 26.138 39.4463 25.4555C39.4463 24.7724 39.7562 24.219 40.1386 24.219C40.5209 24.219 40.8309 24.7724 40.8309 25.4555Z" fill="#210B1F"/>
<path d="M31.756 23.0322C31.6657 23.0322 31.5792 22.9827 31.5355 22.8967C31.5219 22.8709 31.2299 22.3307 30.4569 22.2899C29.6582 22.2476 29.2866 22.7305 29.2831 22.7354C29.201 22.8447 29.0461 22.8666 28.9368 22.7845C28.8275 22.7028 28.8056 22.5479 28.8872 22.4385C28.9086 22.4099 29.424 21.7404 30.4831 21.7958C31.5539 21.8521 31.9601 22.6406 31.9771 22.6742C32.0383 22.7961 31.9888 22.9448 31.8663 23.006C31.8309 23.0235 31.7929 23.0322 31.756 23.0322Z" fill="#210B1F"/>
<path d="M39.2725 23.0308C39.2346 23.0308 39.1967 23.0225 39.1608 23.004C39.0398 22.9423 38.9907 22.7956 39.0514 22.6742C39.0685 22.6406 39.4746 21.8521 40.5458 21.7958C41.6054 21.7404 42.1199 22.4099 42.1413 22.4385C42.2229 22.5478 42.2011 22.7028 42.0918 22.7844C41.9824 22.8666 41.8275 22.8447 41.7454 22.7354C41.7313 22.7169 41.3586 22.2481 40.5716 22.2899C39.7967 22.3307 39.5052 22.8738 39.4931 22.8972C39.4488 22.9817 39.3624 23.0308 39.2725 23.0308Z" fill="#210B1F"/>
<path d="M35.7119 30.4153C35.7065 30.4153 35.7012 30.4148 35.6963 30.4148C35.655 30.4124 34.6838 30.3463 34.3792 29.5549C34.3297 29.4261 34.198 29.0831 34.645 26.7716C34.8597 25.66 35.1085 24.6135 35.1109 24.6033C35.1444 24.4629 35.2853 24.3759 35.4257 24.4095C35.5666 24.443 35.6531 24.5839 35.62 24.7248C35.1429 26.7278 34.731 29.0122 34.8675 29.3673C35.0501 29.842 35.7211 29.892 35.7279 29.8925C35.8717 29.9018 35.981 30.0261 35.9722 30.1699C35.9635 30.3084 35.8489 30.4153 35.7119 30.4153Z" fill="#F79781"/>
<path d="M29.9507 29.9558C29.9507 31.1577 28.9766 32.1318 27.7747 32.1318C26.5727 32.1318 25.5986 31.1577 25.5986 29.9558C25.5986 28.7539 26.5727 27.7798 27.7747 27.7798C28.9766 27.7798 29.9507 28.7539 29.9507 29.9558Z" fill="#FFAFA9"/>
<path d="M45.4302 29.9558C45.4302 31.1577 44.4561 32.1318 43.2542 32.1318C42.0527 32.1318 41.0781 31.1577 41.0781 29.9558C41.0781 28.7539 42.0527 27.7798 43.2542 27.7798C44.4561 27.7798 45.4302 28.7539 45.4302 29.9558Z" fill="#FFAFA9"/>
<path d="M62.599 60.4363L62.4863 60.3819C62.3949 60.4819 62.3021 60.5811 62.2093 60.6797C61.707 61.2131 61.1886 61.7305 60.6552 62.2324C60.3438 62.5249 60.0275 62.812 59.7059 63.0933C59.5888 63.1958 59.4717 63.2973 59.3532 63.3974C58.0677 64.4954 56.7034 65.5035 55.2707 66.413C55.2042 66.4552 55.1371 66.4975 55.0701 66.5393C54.954 66.6121 54.8379 66.684 54.7208 66.755C52.5243 68.0954 50.1724 69.207 47.6986 70.0562C47.6267 70.081 47.5548 70.1053 47.4824 70.1296C47.4377 70.1451 47.393 70.1602 47.3483 70.1747C47.3191 70.1845 47.2905 70.1937 47.2613 70.2029C47.1292 70.2471 46.9961 70.2899 46.8629 70.3321C46.7274 70.3749 46.5919 70.4172 46.4558 70.458C46.0307 70.5872 45.6022 70.7087 45.1703 70.8219C44.8735 70.8996 44.5752 70.9739 44.2754 71.0444C43.8513 71.1445 43.4243 71.2368 42.9943 71.3213C41.8934 71.538 40.7745 71.7041 39.6401 71.8183C39.4837 71.8343 39.3267 71.8489 39.1698 71.8625C38.9901 71.8785 38.8093 71.8926 38.6286 71.9057C38.6179 71.9067 38.6068 71.9072 38.5961 71.9082C38.4736 71.9164 38.3517 71.9247 38.2288 71.9325C37.4918 71.9772 36.7485 72 36.0003 72C34.7881 72 33.5901 71.9402 32.409 71.8232C31.2581 71.709 30.1227 71.5409 29.0063 71.3213C27.9428 71.1119 26.8958 70.8554 25.8683 70.5542C25.6973 70.5046 25.5268 70.4531 25.3567 70.4006C24.9787 70.2836 24.6032 70.1606 24.2301 70.0319C24.0887 69.9828 23.9478 69.9333 23.8074 69.8828C23.5577 69.7929 23.3094 69.7001 23.0621 69.6049C22.9319 69.5553 22.8027 69.5043 22.6735 69.4528C20.5893 68.6215 18.6008 67.6013 16.7298 66.413C15.2349 65.4641 13.8148 64.4079 12.4808 63.2551C12.3724 63.1618 12.265 63.0675 12.1577 62.9733C11.8832 62.7304 11.6126 62.4831 11.3454 62.2324C11.1583 62.0565 10.9732 61.8787 10.7901 61.6985C10.6686 61.5799 10.5486 61.4604 10.4286 61.3394C9.85437 60.7598 9.29906 60.1608 8.76465 59.5428L8.77 59.5292C8.80449 59.4394 8.83898 59.3495 8.87396 59.2596L8.94537 59.076C8.99881 58.9404 9.05225 58.8049 9.10667 58.6698C9.16448 58.5255 9.22278 58.3817 9.28156 58.2389C9.301 58.1913 9.32092 58.1436 9.34036 58.0965C9.39914 57.9542 9.45841 57.8128 9.51865 57.6724C9.53857 57.6253 9.5585 57.5786 9.57891 57.532C9.5964 57.4907 9.61388 57.4499 9.63186 57.4091C9.63428 57.4037 9.63671 57.3979 9.63914 57.3925C9.65906 57.3464 9.67947 57.2998 9.69987 57.2541C9.73728 57.1686 9.77518 57.0836 9.81307 56.999C9.86409 56.8839 9.91606 56.7702 9.96805 56.6575C9.99185 56.606 10.0157 56.5555 10.039 56.5045C10.0487 56.4836 10.0589 56.4622 10.0686 56.4413C10.1099 56.3543 10.1507 56.2683 10.192 56.1828C10.2416 56.0794 10.2921 55.9773 10.3421 55.8763C10.4087 55.7427 10.4757 55.6115 10.5423 55.4837C10.6361 55.304 10.7308 55.13 10.8251 54.9624C10.8464 54.925 10.8673 54.8876 10.8887 54.8507C10.9101 54.8138 10.931 54.7773 10.9523 54.7409C10.9737 54.7049 10.9946 54.669 11.016 54.6335C11.0364 54.599 11.0568 54.565 11.0772 54.5315C11.152 54.4091 11.2268 54.291 11.3016 54.1783C11.3162 54.1564 11.3308 54.1346 11.3454 54.1132C11.4639 53.9368 11.5825 53.7736 11.7005 53.6259C11.7151 53.6074 11.7297 53.589 11.7447 53.571C11.7967 53.5064 11.8492 53.4452 11.9016 53.3874C11.9221 53.364 11.9429 53.3412 11.9638 53.3194C12.1611 53.1095 12.3724 52.9234 12.5974 52.7572C12.6153 52.7441 12.6333 52.7305 12.6523 52.7174C12.6717 52.7028 12.6916 52.6892 12.7115 52.6756C12.7266 52.6649 12.7421 52.6543 12.7577 52.644C12.7781 52.6304 12.799 52.6164 12.8199 52.6023C12.9734 52.5017 13.1323 52.4099 13.296 52.3249C13.3183 52.3132 13.3412 52.302 13.3635 52.2904C13.3864 52.2792 13.4087 52.268 13.432 52.2568C13.4451 52.2505 13.4578 52.2442 13.4714 52.2384C13.4874 52.2301 13.5044 52.2223 13.5209 52.2151C13.5622 52.1956 13.603 52.1772 13.6443 52.1587C13.6657 52.15 13.6866 52.1407 13.708 52.132C13.7196 52.1266 13.7308 52.1218 13.7425 52.1174C13.7677 52.1067 13.7925 52.0965 13.8178 52.0868C13.877 52.0625 13.9368 52.0392 13.997 52.0168C14.0446 51.9994 14.0923 51.9823 14.1404 51.9658C14.1608 51.959 14.1807 51.9517 14.2016 51.9449C14.2317 51.9347 14.2618 51.9245 14.2924 51.9148C14.3327 51.9017 14.3726 51.8886 14.4134 51.8764C14.4479 51.8657 14.4829 51.8555 14.5188 51.8449C14.5727 51.8288 14.6267 51.8138 14.6806 51.7992C14.7549 51.7788 14.8302 51.7594 14.906 51.7404C14.958 51.7273 15.0105 51.7151 15.0634 51.7025C15.0736 51.7006 15.0838 51.6981 15.094 51.6957C15.1334 51.687 15.1727 51.6777 15.2126 51.67C15.3802 51.633 15.5502 51.6 15.7227 51.5699C15.7708 51.5616 15.8189 51.5534 15.8675 51.5451L15.8787 51.5436C15.9899 51.5252 16.1021 51.5082 16.2153 51.4912L16.2221 51.4902C16.3956 51.4649 16.5715 51.4421 16.7498 51.4207C16.8139 51.413 16.878 51.4057 16.9426 51.3979C17.0063 51.3911 17.0704 51.3838 17.1345 51.377C17.2011 51.3702 17.2672 51.3629 17.3337 51.3561C17.3969 51.3493 17.4595 51.343 17.5227 51.3367C17.8642 51.3032 18.2116 51.2726 18.5624 51.241C18.6892 51.2298 18.817 51.2186 18.9452 51.207C19.4029 51.1657 19.8659 51.1215 20.3323 51.0675C20.3988 51.0598 20.4649 51.052 20.5319 51.0437C20.5747 51.0384 20.617 51.0335 20.6602 51.0277C20.7127 51.0209 20.7656 51.0141 20.8181 51.0073C20.9337 50.9917 21.0484 50.9757 21.164 50.9592L21.2821 50.9417C21.3374 50.933 21.3938 50.9247 21.4492 50.9155C21.5065 50.9062 21.5629 50.897 21.6202 50.8873C21.6668 50.88 21.7135 50.8717 21.7601 50.863C21.8111 50.8542 21.8612 50.846 21.9117 50.8363C21.9331 50.8324 21.954 50.8285 21.9749 50.8246C22.0264 50.8149 22.0774 50.8052 22.1289 50.795C22.1804 50.7848 22.2314 50.7746 22.2829 50.7639C22.3557 50.7493 22.4286 50.7333 22.502 50.7172C22.5545 50.7061 22.6074 50.6944 22.6599 50.6818C22.6783 50.6774 22.6968 50.6735 22.7153 50.6691C22.8532 50.6371 22.9907 50.6026 23.1272 50.5666C23.1705 50.555 23.2137 50.5433 23.257 50.5317C23.2934 50.5219 23.3303 50.5113 23.3668 50.5011C23.4197 50.4865 23.4717 50.4719 23.5237 50.4568C23.5883 50.4389 23.6519 50.4199 23.7156 50.401C23.8429 50.3631 23.9682 50.3242 24.0911 50.2844C24.148 50.2664 24.2038 50.2479 24.2602 50.2295L24.2718 50.2256C24.3088 50.2134 24.3457 50.2008 24.3821 50.1882C24.405 50.1804 24.4283 50.1726 24.4511 50.1649C24.5104 50.1445 24.5687 50.1236 24.6265 50.1032C24.6678 50.0881 24.7091 50.0735 24.7499 50.0585C24.765 50.0531 24.78 50.0473 24.7951 50.0419L24.798 50.0405C24.8544 50.0201 24.9102 49.9992 24.9656 49.9778C25.0089 49.9613 25.0521 49.9448 25.0944 49.9273C25.1065 49.9229 25.1182 49.9181 25.1303 49.9132C25.175 49.8962 25.2192 49.8782 25.2629 49.8602C25.2819 49.8525 25.3004 49.8452 25.3193 49.8369C25.363 49.8189 25.4063 49.8015 25.449 49.783C25.4587 49.7791 25.4675 49.7752 25.4767 49.7708C25.5195 49.7534 25.5622 49.7349 25.6035 49.7164C25.654 49.6941 25.7046 49.6717 25.7546 49.6494C25.8042 49.627 25.8532 49.6042 25.9023 49.5814C25.9995 49.5357 26.0947 49.4896 26.188 49.4434C26.1928 49.441 26.1972 49.439 26.2016 49.4366C26.2992 49.388 26.3945 49.3389 26.4868 49.2894C26.5213 49.2714 26.5553 49.253 26.5893 49.2345C26.6772 49.1864 26.7622 49.1383 26.8463 49.0892C26.9328 49.0387 27.0173 48.9882 27.0999 48.9367C27.1271 48.9206 27.1533 48.9036 27.18 48.8866C27.455 48.7122 27.7052 48.5344 27.9321 48.3551C28.6759 50.9466 30.4817 54.7647 35.6816 54.7647C41.2273 54.7647 42.9535 49.5352 43.2046 48.4382C43.4024 48.5893 43.6171 48.7394 43.8494 48.8866C43.8756 48.9036 43.9023 48.9206 43.929 48.9367C44.0116 48.9882 44.0962 49.0387 44.1831 49.0892C44.2667 49.1383 44.3517 49.1864 44.4396 49.2345C44.4736 49.253 44.5076 49.2714 44.5421 49.2894C44.6344 49.3389 44.7297 49.388 44.8273 49.4366C44.8317 49.439 44.8361 49.441 44.8409 49.4434C44.9342 49.4896 45.0299 49.5357 45.1266 49.5814C45.1757 49.6042 45.2247 49.627 45.2743 49.6494C45.3248 49.6717 45.3749 49.6941 45.4254 49.7164C45.4672 49.7349 45.5094 49.7534 45.5522 49.7708C45.5614 49.7752 45.5706 49.7791 45.5804 49.783C45.6231 49.8015 45.6659 49.8189 45.7096 49.8369C45.7285 49.8452 45.7475 49.8525 45.7664 49.8602C45.8102 49.8782 45.8544 49.8962 45.8991 49.9132C45.9107 49.9181 45.9229 49.9229 45.9345 49.9273C45.9773 49.9448 46.0205 49.9613 46.0633 49.9778C46.1191 49.9992 46.1745 50.0201 46.2314 50.0405L46.2338 50.0419C46.2892 50.0623 46.346 50.0828 46.4029 50.1032C46.4602 50.1236 46.5185 50.1445 46.5778 50.1649C46.637 50.1853 46.6973 50.2057 46.7575 50.2256C46.8173 50.2455 46.877 50.2649 46.9382 50.2844C46.9562 50.2902 46.9742 50.296 46.9922 50.3014C47.0976 50.3354 47.2045 50.3684 47.3133 50.401C47.377 50.4199 47.4406 50.4389 47.5052 50.4568C47.5572 50.4719 47.6097 50.4865 47.6621 50.5011C47.6991 50.5113 47.7355 50.5219 47.7724 50.5317C47.8157 50.5433 47.8584 50.555 47.9017 50.5666C47.9619 50.5827 48.0221 50.5977 48.0824 50.6128C48.1246 50.6235 48.1669 50.6337 48.2087 50.6439C48.2626 50.657 48.3161 50.6696 48.3695 50.6818C48.403 50.69 48.437 50.6978 48.471 50.7051C48.4895 50.7095 48.5085 50.7134 48.5274 50.7172C48.5658 50.726 48.6047 50.7343 48.643 50.742C48.729 50.761 48.8145 50.778 48.9005 50.795C48.9515 50.8052 49.003 50.8149 49.054 50.8246C49.0633 50.8261 49.0725 50.828 49.0813 50.8295C49.0934 50.8319 49.1055 50.8338 49.1172 50.8363C49.1677 50.846 49.2183 50.8542 49.2688 50.863C49.3159 50.8717 49.3621 50.88 49.4092 50.8873C49.466 50.897 49.5229 50.9062 49.5797 50.9155C49.6356 50.9247 49.6915 50.933 49.7473 50.9417L49.8654 50.9592C49.9805 50.9757 50.0957 50.9917 50.2108 51.0073C50.2638 51.0141 50.3167 51.0209 50.3687 51.0277C50.4119 51.0335 50.4547 51.0384 50.4974 51.0437C50.5587 51.0515 50.6194 51.0583 50.6801 51.0656C50.6855 51.0661 50.6913 51.067 50.6966 51.0675C50.8132 51.0811 50.9298 51.0938 51.0459 51.1064C51.1426 51.1166 51.2388 51.1263 51.3355 51.136C51.5862 51.1613 51.8359 51.1846 52.0837 51.207C52.2119 51.2186 52.3392 51.2298 52.4665 51.241C52.8178 51.2726 53.1651 51.3032 53.5062 51.3367C53.5694 51.343 53.6325 51.3493 53.6957 51.3561C53.7617 51.3629 53.8283 51.3702 53.8944 51.377C53.9585 51.3838 54.0226 51.3911 54.0863 51.3979C54.1514 51.4057 54.2155 51.413 54.2796 51.4207C54.4574 51.4421 54.6333 51.4649 54.8068 51.4902L54.814 51.4912C54.9272 51.5082 55.0395 51.5252 55.1502 51.5436L55.1619 51.5451C55.2105 51.5534 55.2581 51.5616 55.3062 51.5699C55.4787 51.6 55.6487 51.633 55.8163 51.67C55.8562 51.6777 55.8955 51.687 55.9349 51.6957C55.9455 51.6981 55.9558 51.7006 55.966 51.7025C56.0184 51.7151 56.0709 51.7273 56.1234 51.7404C56.1987 51.7594 56.2744 51.7788 56.3488 51.7992C56.4032 51.8138 56.4571 51.8293 56.5106 51.8449C56.546 51.8555 56.581 51.8657 56.6155 51.8764C56.6568 51.8886 56.6966 51.9017 56.737 51.9148C56.7671 51.9245 56.7972 51.9347 56.8273 51.9449C56.8487 51.9517 56.8686 51.959 56.889 51.9658C56.9371 51.9823 56.9842 51.9994 57.0319 52.0168C57.0921 52.0392 57.1523 52.0625 57.2116 52.0868C57.2369 52.0965 57.2617 52.1067 57.2864 52.1174C57.2981 52.1218 57.3098 52.1266 57.3209 52.132C57.3423 52.1407 57.3637 52.15 57.3846 52.1587C57.4259 52.1772 57.4672 52.1956 57.508 52.2151C57.525 52.2223 57.5415 52.2301 57.5575 52.2384C57.5711 52.2442 57.5843 52.2505 57.5969 52.2568C57.6202 52.268 57.643 52.2792 57.6654 52.2904C57.6882 52.302 57.7111 52.3132 57.7329 52.3249C57.8966 52.4099 58.056 52.5017 58.209 52.6023C58.2299 52.6164 58.2513 52.6304 58.2717 52.644C58.2868 52.6543 58.3023 52.6649 58.3174 52.6756C58.3373 52.6892 58.3572 52.7028 58.3766 52.7174C58.3956 52.7305 58.414 52.7441 58.432 52.7572C58.6565 52.9234 58.8683 53.1095 59.0656 53.3194C59.1695 53.4296 59.274 53.5535 59.3789 53.6891C59.3998 53.7158 59.4207 53.743 59.4411 53.7707C59.4853 53.8295 59.5295 53.8897 59.5732 53.9519C59.5932 53.9796 59.6126 54.0078 59.632 54.0364C59.651 54.0636 59.6699 54.0913 59.6884 54.1195C59.701 54.138 59.7131 54.156 59.7253 54.1744C59.7476 54.2079 59.77 54.2419 59.7919 54.2759C59.8055 54.2973 59.8191 54.3187 59.8332 54.3401C59.8507 54.3678 59.8686 54.3964 59.8861 54.4246C59.9075 54.4586 59.9289 54.4931 59.9498 54.5281C59.9711 54.5626 59.9925 54.5981 60.0134 54.6335C60.1839 54.9187 60.3544 55.2277 60.5235 55.5547C60.5609 55.627 60.5988 55.7009 60.6362 55.7752C60.6489 55.8005 60.662 55.8262 60.6746 55.8515C60.6902 55.8826 60.7057 55.9142 60.7212 55.9457C60.7805 56.0653 60.8393 56.1867 60.8981 56.3096C60.9214 56.3597 60.9457 56.4097 60.969 56.4607C60.9739 56.4704 60.9783 56.4806 60.9831 56.4904C61.0336 56.5992 61.0847 56.7095 61.1347 56.8202C61.1493 56.8509 61.1629 56.8819 61.177 56.9126C61.2309 57.0316 61.2843 57.1516 61.3378 57.273C61.366 57.3372 61.3941 57.4018 61.4218 57.4664C61.4466 57.5228 61.4709 57.5796 61.4952 57.6369C61.5316 57.7215 61.5676 57.806 61.6026 57.891C61.6254 57.9449 61.6482 57.9994 61.6706 58.0533C61.6968 58.1155 61.7221 58.1772 61.7473 58.2389C61.7639 58.2782 61.7799 58.3176 61.7959 58.3574C61.9159 58.6513 62.0335 58.9467 62.1481 59.2421C62.1671 59.2902 62.1856 59.3378 62.204 59.3859C62.2225 59.4335 62.2409 59.4811 62.2589 59.5292C62.2992 59.6347 62.3396 59.7401 62.3789 59.845C62.4042 59.9111 62.4289 59.9772 62.4532 60.0428C62.478 60.1093 62.5028 60.1759 62.5276 60.2419C62.5358 60.2648 62.5441 60.2876 62.5523 60.3104C62.5616 60.3347 62.5703 60.359 62.5795 60.3828C62.5859 60.4008 62.5927 60.4183 62.599 60.4363Z" fill="#FF5B8D"/>
<path d="M47.2157 23.5677L44.119 26.2893C44.119 26.2893 44.599 18.8474 43.0788 17.2125C41.5582 15.5782 35.9114 17.5099 32.3677 17.5099C28.8236 17.5099 22.0682 16.6067 21.7252 14.9379C21.3822 13.2691 24.2286 12.9372 24.2286 12.9372C24.2286 12.9372 20.2847 12.3193 20.2502 9.82745C20.2162 7.33514 25.3145 7.51878 28.9723 8.11344C32.6306 8.70809 34.5851 9.45093 37.2945 9.31344C41.4474 9.10259 44.2905 7.46194 46.828 9.17644C49.7935 11.18 47.2157 23.5677 47.2157 23.5677Z" fill="#FFFAF3"/>
<path d="M24.2672 15.7191C24.2672 15.7191 22.9467 19.6484 23.7444 23.4986L26.2333 25.4556C26.2333 25.4556 26.4009 19.3467 28.1538 16.5114L24.2672 15.7191Z" fill="#FFFAF3"/>
<path d="M44.8404 49.4434L44.2545 51.5509L44.1467 51.9396L42.234 58.8199L42.1256 59.2086L40.2134 66.0889L40.1051 66.4776L38.5956 71.9082C38.4732 71.9164 38.3512 71.9247 38.2283 71.9325C37.4913 71.9772 36.748 72 35.9998 72C34.7877 72 33.5896 71.9402 32.4086 71.8232L30.9195 66.4659L30.8111 66.0772L28.8975 59.1916L28.7891 58.8029L26.8754 51.9177L26.7671 51.5286L26.1875 49.4434C26.1924 49.441 26.1967 49.439 26.2011 49.4366C26.2988 49.388 26.394 49.3389 26.4863 49.2894C26.5208 49.2714 26.5548 49.253 26.5888 49.2345C26.6767 49.1864 26.7618 49.1383 26.8458 49.0892C26.9323 49.0387 27.0168 48.9882 27.0994 48.9367C27.1266 48.9206 27.1528 48.9036 27.1796 48.8866C27.4545 48.7122 27.7047 48.5344 27.9316 48.3551C28.2115 49.3302 28.6414 50.4787 29.3459 51.532C29.4338 51.6636 29.5261 51.7934 29.6228 51.9211C30.8111 53.4938 32.6811 54.7647 35.6811 54.7647C38.5028 54.7647 40.3358 53.4107 41.4887 51.9362C41.5893 51.8074 41.6845 51.6777 41.7754 51.548C42.6853 50.2431 43.0919 48.9284 43.2042 48.4382C43.4019 48.5893 43.6167 48.7394 43.8489 48.8866C43.8751 48.9036 43.9018 48.9206 43.9285 48.9367C44.0111 48.9882 44.0957 49.0387 44.1826 49.0892C44.2662 49.1383 44.3512 49.1864 44.4392 49.2345C44.4732 49.253 44.5072 49.2714 44.5417 49.2894C44.634 49.3389 44.7292 49.388 44.8268 49.4366C44.8312 49.439 44.8356 49.441 44.8404 49.4434Z" fill="white"/>
<path d="M40.2138 66.0889L40.1054 66.4775L30.9199 66.4659L30.8115 66.0772L40.2138 66.0889Z" fill="#816AD6"/>
<path d="M42.2339 58.8198L42.1256 59.2085L28.8974 59.1915L28.7891 58.8028L42.2339 58.8198Z" fill="#816AD6"/>
<path d="M29.3463 51.532C29.4343 51.6637 29.5266 51.7934 29.6233 51.9211L26.8759 51.9177L26.7676 51.5286L29.3463 51.532Z" fill="#816AD6"/>
<path d="M44.2551 51.551L44.1472 51.9397L41.4893 51.9363C41.5898 51.8076 41.685 51.6778 41.7759 51.5481L44.2551 51.551Z" fill="#816AD6"/>
<path d="M26.9221 66.4441L24.2296 70.032C24.0882 69.9829 23.9473 69.9334 23.8069 69.8828C23.8137 69.8624 23.8244 69.843 23.838 69.8245L26.2677 66.5874L22.1221 64.3478L22.2824 50.764C22.3553 50.7494 22.4282 50.7334 22.5015 50.7173C22.554 50.7062 22.6069 50.6945 22.6594 50.6819C22.6779 50.6775 22.6963 50.6736 22.7148 50.6692C22.7187 50.6857 22.7201 50.7023 22.7201 50.7198L22.5627 64.0888L26.9221 66.4441Z" fill="#E23971"/>
<path d="M45.0948 66.5873L47.6984 70.0562C47.6265 70.0809 47.5546 70.1052 47.4822 70.1295C47.4375 70.1451 47.3928 70.1601 47.3481 70.1747C47.319 70.1844 47.2903 70.1937 47.2611 70.2029L44.4404 66.444L48.7998 64.0887L48.6429 50.742C48.7289 50.7609 48.8144 50.7779 48.9003 50.7949C48.9514 50.8051 49.0028 50.8149 49.0539 50.8246C49.0631 50.826 49.0723 50.828 49.0811 50.8294L49.2404 64.3477L45.0948 66.5873Z" fill="#E23971"/>
</svg>
