<svg width="320" height="233" viewBox="0 0 320 233" fill="none" xmlns="http://www.w3.org/2000/svg">
<path d="M255.657 9C255.596 9 255.545 8.98184 255.503 8.94553C255.466 8.90317 255.448 8.85173 255.448 8.79121V8.50071C255.448 8.44624 255.463 8.38572 255.494 8.31915C255.524 8.25258 255.584 8.17995 255.675 8.10128L257.6 6.17674C257.908 5.9165 258.15 5.6956 258.326 5.51404C258.507 5.32643 258.635 5.1479 258.707 4.97844C258.786 4.80898 258.825 4.63347 258.825 4.45191C258.825 4.10695 258.728 3.83461 258.535 3.63489C258.341 3.42913 258.054 3.32624 257.672 3.32624C257.43 3.32624 257.221 3.37768 257.046 3.48057C256.87 3.5774 256.731 3.71357 256.628 3.88908C256.531 4.05853 256.468 4.2522 256.438 4.47007C256.426 4.54875 256.392 4.60321 256.338 4.63347C256.289 4.66373 256.244 4.67887 256.202 4.67887H255.73C255.675 4.67887 255.63 4.66373 255.593 4.63347C255.557 4.59716 255.539 4.5548 255.539 4.50638C255.545 4.27641 255.593 4.04643 255.684 3.81645C255.775 3.58043 255.908 3.3686 256.084 3.18099C256.265 2.99338 256.486 2.84208 256.746 2.72709C257.013 2.60605 257.321 2.54553 257.672 2.54553C258.15 2.54553 258.541 2.63329 258.843 2.80879C259.152 2.97825 259.379 3.2052 259.524 3.48964C259.669 3.77409 259.742 4.08577 259.742 4.42468C259.742 4.69097 259.697 4.93608 259.606 5.16C259.515 5.37787 259.382 5.59272 259.206 5.80454C259.037 6.01031 258.825 6.22213 258.571 6.44L256.828 8.21021H259.66C259.727 8.21021 259.778 8.22837 259.815 8.26468C259.857 8.30099 259.878 8.35243 259.878 8.41901V8.79121C259.878 8.85173 259.857 8.90317 259.815 8.94553C259.778 8.98184 259.727 9 259.66 9H255.657ZM263.209 9.09078C262.791 9.09078 262.437 9.02723 262.147 8.90014C261.862 8.767 261.629 8.58544 261.448 8.35546C261.266 8.12548 261.133 7.86222 261.048 7.56567C260.97 7.26913 260.924 6.95442 260.912 6.62156C260.906 6.45816 260.9 6.28567 260.894 6.10411C260.894 5.92255 260.894 5.74099 260.894 5.55943C260.9 5.37182 260.906 5.19329 260.912 5.02383C260.918 4.69097 260.964 4.37626 261.048 4.07972C261.139 3.77712 261.272 3.51385 261.448 3.28993C261.629 3.05995 261.865 2.88142 262.156 2.75433C262.446 2.62118 262.798 2.55461 263.209 2.55461C263.627 2.55461 263.978 2.62118 264.262 2.75433C264.553 2.88142 264.789 3.05995 264.97 3.28993C265.152 3.51385 265.285 3.77712 265.37 4.07972C265.46 4.37626 265.509 4.69097 265.515 5.02383C265.521 5.19329 265.524 5.37182 265.524 5.55943C265.53 5.74099 265.53 5.92255 265.524 6.10411C265.524 6.28567 265.521 6.45816 265.515 6.62156C265.509 6.95442 265.46 7.26913 265.37 7.56567C265.285 7.86222 265.152 8.12548 264.97 8.35546C264.795 8.58544 264.562 8.767 264.271 8.90014C263.987 9.02723 263.633 9.09078 263.209 9.09078ZM263.209 8.31915C263.681 8.31915 264.029 8.16482 264.253 7.85617C264.483 7.54147 264.601 7.1148 264.607 6.57617C264.619 6.40066 264.625 6.23121 264.625 6.0678C264.625 5.89834 264.625 5.73191 264.625 5.56851C264.625 5.39905 264.619 5.23262 264.607 5.06922C264.601 4.54269 264.483 4.12208 264.253 3.80738C264.029 3.48662 263.681 3.32624 263.209 3.32624C262.743 3.32624 262.395 3.48662 262.165 3.80738C261.941 4.12208 261.823 4.54269 261.811 5.06922C261.811 5.23262 261.808 5.39905 261.802 5.56851C261.802 5.73191 261.802 5.89834 261.802 6.0678C261.808 6.23121 261.811 6.40066 261.811 6.57617C261.823 7.1148 261.944 7.54147 262.174 7.85617C262.404 8.16482 262.749 8.31915 263.209 8.31915ZM266.747 9C266.687 9 266.635 8.98184 266.593 8.94553C266.557 8.90317 266.539 8.85173 266.539 8.79121V8.50071C266.539 8.44624 266.554 8.38572 266.584 8.31915C266.614 8.25258 266.675 8.17995 266.765 8.10128L268.69 6.17674C268.999 5.9165 269.241 5.6956 269.416 5.51404C269.598 5.32643 269.725 5.1479 269.798 4.97844C269.876 4.80898 269.916 4.63347 269.916 4.45191C269.916 4.10695 269.819 3.83461 269.625 3.63489C269.431 3.42913 269.144 3.32624 268.763 3.32624C268.521 3.32624 268.312 3.37768 268.136 3.48057C267.961 3.5774 267.822 3.71357 267.719 3.88908C267.622 4.05853 267.558 4.2522 267.528 4.47007C267.516 4.54875 267.483 4.60321 267.428 4.63347C267.38 4.66373 267.334 4.67887 267.292 4.67887H266.82C266.765 4.67887 266.72 4.66373 266.684 4.63347C266.647 4.59716 266.629 4.5548 266.629 4.50638C266.635 4.27641 266.684 4.04643 266.775 3.81645C266.865 3.58043 266.998 3.3686 267.174 3.18099C267.356 2.99338 267.576 2.84208 267.837 2.72709C268.103 2.60605 268.412 2.54553 268.763 2.54553C269.241 2.54553 269.631 2.63329 269.934 2.80879C270.242 2.97825 270.469 3.2052 270.615 3.48964C270.76 3.77409 270.832 4.08577 270.832 4.42468C270.832 4.69097 270.787 4.93608 270.696 5.16C270.605 5.37787 270.472 5.59272 270.297 5.80454C270.127 6.01031 269.916 6.22213 269.661 6.44L267.918 8.21021H270.751C270.817 8.21021 270.869 8.22837 270.905 8.26468C270.947 8.30099 270.969 8.35243 270.969 8.41901V8.79121C270.969 8.85173 270.947 8.90317 270.905 8.94553C270.869 8.98184 270.817 9 270.751 9H266.747ZM273.927 9C273.867 9 273.815 8.98184 273.773 8.94553C273.737 8.90317 273.718 8.85173 273.718 8.79121V3.70752L272.212 4.8695C272.163 4.90582 272.112 4.92095 272.057 4.91489C272.003 4.90884 271.957 4.88161 271.921 4.83319L271.685 4.53362C271.649 4.47915 271.634 4.42468 271.64 4.37021C271.652 4.31574 271.682 4.27035 271.73 4.23404L273.709 2.70894C273.752 2.67868 273.791 2.66052 273.827 2.65447C273.864 2.64842 273.903 2.64539 273.945 2.64539H274.408C274.469 2.64539 274.517 2.66657 274.554 2.70894C274.59 2.74525 274.608 2.79366 274.608 2.85418V8.79121C274.608 8.85173 274.59 8.90317 274.554 8.94553C274.517 8.98184 274.469 9 274.408 9H273.927Z" fill="black"/>
<path d="M290.928 6.80859H281.418L286.173 11.5637L290.928 6.80859Z" fill="#C4C4C4"/>
<path opacity="0.404436" fill-rule="evenodd" clip-rule="evenodd" d="M168.46 32.8633L247.051 69.2246L266.462 150.928L212.075 216.448H124.846L70.459 150.928L89.8693 69.2246L168.46 32.8633Z" fill="#F0F3FF"/>
<path fill-rule="evenodd" clip-rule="evenodd" d="M171.038 62.5005L128.424 88.9704L102.266 140.298L144.868 175.893L206.096 194.33L228.405 134.492L206.096 100.37L171.038 62.5005Z" fill="url(#paint0_linear_2578_9808)" fill-opacity="0.05" stroke="#0272FA" stroke-width="1.3742"/>
<path fill-rule="evenodd" clip-rule="evenodd" d="M170.608 66.6167C172.27 66.6167 173.617 65.3267 173.617 63.7354C173.617 62.144 172.27 60.854 170.608 60.854C168.947 60.854 167.6 62.144 167.6 63.7354C167.6 65.3267 168.947 66.6167 170.608 66.6167Z" fill="#0272FA"/>
<path fill-rule="evenodd" clip-rule="evenodd" d="M128.37 92.9351C130.032 92.9351 131.379 91.6451 131.379 90.0537C131.379 88.4624 130.032 87.1724 128.37 87.1724C126.708 87.1724 125.361 88.4624 125.361 90.0537C125.361 91.6451 126.708 92.9351 128.37 92.9351Z" fill="#0272FA"/>
<path fill-rule="evenodd" clip-rule="evenodd" d="M102.694 143.179C104.356 143.179 105.703 141.889 105.703 140.298C105.703 138.707 104.356 137.417 102.694 137.417C101.033 137.417 99.6855 138.707 99.6855 140.298C99.6855 141.889 101.033 143.179 102.694 143.179Z" fill="#0272FA"/>
<path fill-rule="evenodd" clip-rule="evenodd" d="M145.474 179.669C147.135 179.669 148.482 178.379 148.482 176.788C148.482 175.197 147.135 173.907 145.474 173.907C143.812 173.907 142.465 175.197 142.465 176.788C142.465 178.379 143.812 179.669 145.474 179.669Z" fill="#0272FA"/>
<path fill-rule="evenodd" clip-rule="evenodd" d="M205.853 196.69C207.514 196.69 208.861 195.4 208.861 193.809C208.861 192.218 207.514 190.928 205.853 190.928C204.191 190.928 202.844 192.218 202.844 193.809C202.844 195.4 204.191 196.69 205.853 196.69Z" fill="#0272FA"/>
<path fill-rule="evenodd" clip-rule="evenodd" d="M227.493 137.852C229.155 137.852 230.502 136.562 230.502 134.97C230.502 133.379 229.155 132.089 227.493 132.089C225.831 132.089 224.484 133.379 224.484 134.97C224.484 136.562 225.831 137.852 227.493 137.852Z" fill="#0272FA"/>
<path fill-rule="evenodd" clip-rule="evenodd" d="M206.714 103.663C208.376 103.663 209.723 102.373 209.723 100.782C209.723 99.1904 208.376 97.9004 206.714 97.9004C205.052 97.9004 203.705 99.1904 203.705 100.782C203.705 102.373 205.052 103.663 206.714 103.663Z" fill="#0272FA"/>
<path d="M184.164 215.243V227.216H182.601V221.788H176.503V227.216H174.94V215.243H176.503V220.499H182.601V215.243H184.164ZM186.249 222.475C186.249 221.513 186.444 220.671 186.833 219.95C187.223 219.217 187.755 218.65 188.431 218.249C189.118 217.848 189.879 217.648 190.715 217.648C191.54 217.648 192.256 217.825 192.863 218.18C193.469 218.535 193.922 218.982 194.22 219.52V217.803H195.8V227.216H194.22V225.464C193.91 226.013 193.447 226.471 192.828 226.838C192.221 227.193 191.511 227.37 190.698 227.37C189.862 227.37 189.106 227.164 188.431 226.752C187.755 226.34 187.223 225.761 186.833 225.017C186.444 224.273 186.249 223.425 186.249 222.475ZM194.22 222.492C194.22 221.782 194.076 221.164 193.79 220.637C193.504 220.11 193.114 219.709 192.622 219.434C192.141 219.148 191.609 219.005 191.025 219.005C190.441 219.005 189.908 219.142 189.427 219.417C188.946 219.692 188.562 220.093 188.276 220.62C187.99 221.146 187.847 221.765 187.847 222.475C187.847 223.196 187.99 223.826 188.276 224.364C188.562 224.891 188.946 225.298 189.427 225.584C189.908 225.859 190.441 225.996 191.025 225.996C191.609 225.996 192.141 225.859 192.622 225.584C193.114 225.298 193.504 224.891 193.79 224.364C194.076 223.826 194.22 223.202 194.22 222.492ZM200.005 219.537C200.314 218.999 200.772 218.553 201.379 218.198C201.997 217.831 202.713 217.648 203.526 217.648C204.362 217.648 205.118 217.848 205.793 218.249C206.481 218.65 207.019 219.217 207.408 219.95C207.798 220.671 207.992 221.513 207.992 222.475C207.992 223.425 207.798 224.273 207.408 225.017C207.019 225.761 206.481 226.34 205.793 226.752C205.118 227.164 204.362 227.37 203.526 227.37C202.724 227.37 202.014 227.193 201.396 226.838C200.789 226.471 200.325 226.019 200.005 225.481V231.682H198.441V217.803H200.005V219.537ZM206.395 222.475C206.395 221.765 206.252 221.146 205.965 220.62C205.679 220.093 205.29 219.692 204.797 219.417C204.316 219.142 203.784 219.005 203.2 219.005C202.627 219.005 202.095 219.148 201.602 219.434C201.121 219.709 200.732 220.116 200.434 220.654C200.148 221.181 200.005 221.793 200.005 222.492C200.005 223.202 200.148 223.826 200.434 224.364C200.732 224.891 201.121 225.298 201.602 225.584C202.095 225.859 202.627 225.996 203.2 225.996C203.784 225.996 204.316 225.859 204.797 225.584C205.29 225.298 205.679 224.891 205.965 224.364C206.252 223.826 206.395 223.196 206.395 222.475ZM211.613 219.537C211.922 218.999 212.38 218.553 212.987 218.198C213.605 217.831 214.321 217.648 215.134 217.648C215.97 217.648 216.726 217.848 217.402 218.249C218.089 218.65 218.627 219.217 219.016 219.95C219.406 220.671 219.6 221.513 219.6 222.475C219.6 223.425 219.406 224.273 219.016 225.017C218.627 225.761 218.089 226.34 217.402 226.752C216.726 227.164 215.97 227.37 215.134 227.37C214.333 227.37 213.623 227.193 213.004 226.838C212.397 226.471 211.934 226.019 211.613 225.481V231.682H210.05V217.803H211.613V219.537ZM218.003 222.475C218.003 221.765 217.86 221.146 217.573 220.62C217.287 220.093 216.898 219.692 216.405 219.417C215.924 219.142 215.392 219.005 214.808 219.005C214.235 219.005 213.703 219.148 213.21 219.434C212.729 219.709 212.34 220.116 212.042 220.654C211.756 221.181 211.613 221.793 211.613 222.492C211.613 223.202 211.756 223.826 212.042 224.364C212.34 224.891 212.729 225.298 213.21 225.584C213.703 225.859 214.235 225.996 214.808 225.996C215.392 225.996 215.924 225.859 216.405 225.584C216.898 225.298 217.287 224.891 217.573 224.364C217.86 223.826 218.003 223.196 218.003 222.475ZM229.766 217.803L224.097 231.648H222.482L224.338 227.113L220.541 217.803H222.276L225.231 225.429L228.151 217.803H229.766Z" fill="black" fill-opacity="0.8"/>
<path d="M246.175 137.649C245.543 137.649 244.975 137.539 244.471 137.32C243.976 137.091 243.587 136.779 243.303 136.385C243.019 135.982 242.873 135.519 242.863 134.997H244.196C244.242 135.446 244.425 135.826 244.746 136.138C245.076 136.44 245.552 136.591 246.175 136.591C246.771 136.591 247.238 136.445 247.577 136.152C247.925 135.849 248.099 135.464 248.099 134.997C248.099 134.631 247.998 134.333 247.797 134.104C247.595 133.875 247.343 133.701 247.041 133.582C246.739 133.463 246.331 133.334 245.818 133.197C245.186 133.032 244.677 132.867 244.293 132.702C243.917 132.537 243.592 132.281 243.317 131.933C243.051 131.575 242.918 131.099 242.918 130.504C242.918 129.981 243.051 129.519 243.317 129.116C243.583 128.713 243.954 128.401 244.43 128.181C244.916 127.961 245.47 127.851 246.093 127.851C246.991 127.851 247.723 128.076 248.291 128.525C248.869 128.974 249.194 129.569 249.267 130.311H247.893C247.847 129.945 247.655 129.624 247.316 129.349C246.977 129.065 246.528 128.923 245.969 128.923C245.447 128.923 245.021 129.061 244.691 129.336C244.361 129.601 244.196 129.977 244.196 130.462C244.196 130.81 244.293 131.094 244.485 131.314C244.686 131.534 244.929 131.704 245.213 131.823C245.506 131.933 245.914 132.061 246.436 132.208C247.068 132.382 247.577 132.556 247.962 132.73C248.346 132.895 248.676 133.156 248.951 133.513C249.226 133.861 249.363 134.338 249.363 134.942C249.363 135.409 249.24 135.849 248.992 136.261C248.745 136.674 248.378 137.008 247.893 137.265C247.407 137.521 246.835 137.649 246.175 137.649ZM250.736 133.76C250.736 132.991 250.892 132.318 251.204 131.74C251.515 131.154 251.941 130.701 252.482 130.38C253.031 130.059 253.64 129.899 254.309 129.899C254.969 129.899 255.541 130.041 256.027 130.325C256.513 130.609 256.874 130.966 257.113 131.397V130.023H258.377V137.553H257.113V136.152C256.865 136.591 256.494 136.958 256 137.251C255.514 137.535 254.946 137.677 254.296 137.677C253.627 137.677 253.022 137.512 252.482 137.182C251.941 136.852 251.515 136.39 251.204 135.794C250.892 135.199 250.736 134.521 250.736 133.76ZM257.113 133.774C257.113 133.206 256.998 132.711 256.769 132.29C256.54 131.869 256.229 131.548 255.835 131.328C255.45 131.099 255.024 130.985 254.557 130.985C254.089 130.985 253.663 131.094 253.279 131.314C252.894 131.534 252.587 131.855 252.358 132.276C252.129 132.698 252.014 133.192 252.014 133.76C252.014 134.338 252.129 134.841 252.358 135.272C252.587 135.693 252.894 136.019 253.279 136.248C253.663 136.468 254.089 136.578 254.557 136.578C255.024 136.578 255.45 136.468 255.835 136.248C256.229 136.019 256.54 135.693 256.769 135.272C256.998 134.841 257.113 134.342 257.113 133.774ZM260.023 133.76C260.023 132.991 260.179 132.318 260.49 131.74C260.802 131.154 261.228 130.701 261.768 130.38C262.318 130.059 262.932 129.899 263.61 129.899C264.196 129.899 264.741 130.036 265.245 130.311C265.749 130.577 266.134 130.93 266.399 131.369V127.384H267.663V137.553H266.399V136.138C266.152 136.587 265.785 136.958 265.3 137.251C264.814 137.535 264.246 137.677 263.596 137.677C262.927 137.677 262.318 137.512 261.768 137.182C261.228 136.852 260.802 136.39 260.49 135.794C260.179 135.199 260.023 134.521 260.023 133.76ZM266.399 133.774C266.399 133.206 266.285 132.711 266.056 132.29C265.827 131.869 265.515 131.548 265.121 131.328C264.736 131.099 264.31 130.985 263.843 130.985C263.376 130.985 262.95 131.094 262.565 131.314C262.18 131.534 261.874 131.855 261.644 132.276C261.415 132.698 261.301 133.192 261.301 133.76C261.301 134.338 261.415 134.841 261.644 135.272C261.874 135.693 262.18 136.019 262.565 136.248C262.95 136.468 263.376 136.578 263.843 136.578C264.31 136.578 264.736 136.468 265.121 136.248C265.515 136.019 265.827 135.693 266.056 135.272C266.285 134.841 266.399 134.342 266.399 133.774Z" fill="#3E3E3E"/>
<path d="M4.99062 79.0098V85.0149C4.99062 85.6834 4.78462 86.2198 4.37262 86.624C3.96062 87.0205 3.41647 87.2187 2.74017 87.2187C2.0561 87.2187 1.50807 87.0166 1.09607 86.6124C0.684072 86.2004 0.478073 85.6407 0.478073 84.9333H1.53916C1.54694 85.3297 1.64799 85.6523 1.84233 85.9011C2.04444 86.1498 2.34372 86.2742 2.74017 86.2742C3.13663 86.2742 3.43202 86.1576 3.62636 85.9244C3.8207 85.6834 3.91787 85.3803 3.91787 85.0149V79.0098H4.99062ZM9.86782 87.242C9.26925 87.242 8.72511 87.106 8.23537 86.8339C7.75341 86.5618 7.37251 86.1771 7.09266 85.6795C6.82059 85.1743 6.68455 84.5912 6.68455 83.9305C6.68455 83.2775 6.82447 82.7023 7.10432 82.2048C7.39194 81.6995 7.78062 81.3147 8.27035 81.0504C8.76009 80.7783 9.30812 80.6423 9.91446 80.6423C10.5208 80.6423 11.0688 80.7783 11.5586 81.0504C12.0483 81.3147 12.4331 81.6956 12.7129 82.1931C13.0006 82.6906 13.1444 83.2697 13.1444 83.9305C13.1444 84.5912 12.9967 85.1743 12.7013 85.6795C12.4137 86.1771 12.0211 86.5618 11.5236 86.8339C11.0261 87.106 10.4742 87.242 9.86782 87.242ZM9.86782 86.3092C10.2487 86.3092 10.6063 86.2198 10.9406 86.041C11.2748 85.8622 11.543 85.594 11.7451 85.2365C11.955 84.8789 12.06 84.4436 12.06 83.9305C12.06 83.4174 11.9589 82.9821 11.7568 82.6245C11.5547 82.267 11.2904 82.0027 10.9639 81.8316C10.6374 81.6528 10.2837 81.5635 9.9028 81.5635C9.51412 81.5635 9.15654 81.6528 8.83005 81.8316C8.51133 82.0027 8.25481 82.267 8.06047 82.6245C7.86613 82.9821 7.76896 83.4174 7.76896 83.9305C7.76896 84.4513 7.86224 84.8905 8.04881 85.2481C8.24315 85.6057 8.49967 85.8739 8.81839 86.0527C9.1371 86.2237 9.48691 86.3092 9.86782 86.3092ZM20.0432 80.7472L16.1953 90.1454H15.0992L16.3585 87.0671L13.7816 80.7472H14.9593L16.9649 85.9244L18.9471 80.7472H20.0432ZM23.7101 81.6218H22.3691V87.1371H21.308V81.6218H20.4802V80.7472H21.308V80.2925C21.308 79.5773 21.4907 79.0565 21.8561 78.73C22.2292 78.3957 22.8239 78.2286 23.6401 78.2286V79.1148C23.1737 79.1148 22.8433 79.2081 22.649 79.3946C22.4624 79.5734 22.3691 79.8727 22.3691 80.2925V80.7472H23.7101V81.6218ZM30.6142 80.7472V87.1371H29.5531V86.1926C29.351 86.5191 29.0672 86.7756 28.7019 86.9622C28.3443 87.141 27.9478 87.2304 27.5125 87.2304C27.015 87.2304 26.568 87.1293 26.1716 86.9272C25.7751 86.7173 25.4603 86.4064 25.2271 85.9944C25.0017 85.5824 24.8889 85.081 24.8889 84.4902V80.7472H25.9384V84.3503C25.9384 84.9799 26.0977 85.4658 26.4165 85.8078C26.7352 86.1421 27.1705 86.3092 27.7224 86.3092C28.2899 86.3092 28.7369 86.1343 29.0633 85.7845C29.3898 85.4347 29.5531 84.9255 29.5531 84.257V80.7472H30.6142ZM33.4668 78.5084V87.1371H32.4058V78.5084H33.4668Z" fill="#3E3E3E" fill-opacity="0.3"/>
<path d="M21.2611 144.698H16.0392L15.0772 147.361H13.4282L17.7569 135.457H19.5606L23.8721 147.361H22.2231L21.2611 144.698ZM20.8145 143.427L18.6501 137.381L16.4858 143.427H20.8145ZM30.3451 137.776C31.4902 137.776 32.4178 138.125 33.1278 138.824C33.8378 139.511 34.1928 140.507 34.1928 141.813V147.361H32.6469V142.036C32.6469 141.097 32.4121 140.381 31.9426 139.889C31.4731 139.385 30.8318 139.133 30.0187 139.133C29.1942 139.133 28.5357 139.39 28.0433 139.906C27.5623 140.421 27.3218 141.171 27.3218 142.156V147.361H25.7587V137.948H27.3218V139.287C27.631 138.806 28.049 138.434 28.5758 138.171C29.114 137.907 29.7038 137.776 30.3451 137.776ZM41.659 147.361L39.4259 143.857L37.2787 147.361H35.6469L38.6873 142.689L35.6469 137.948H37.4162L39.6492 141.435L41.7792 137.948H43.4111L40.3879 142.603L43.4283 147.361H41.659ZM45.7733 136.419C45.4755 136.419 45.2236 136.316 45.0175 136.11C44.8113 135.903 44.7083 135.652 44.7083 135.354C44.7083 135.056 44.8113 134.804 45.0175 134.598C45.2236 134.392 45.4755 134.289 45.7733 134.289C46.0596 134.289 46.3001 134.392 46.4947 134.598C46.7009 134.804 46.8039 135.056 46.8039 135.354C46.8039 135.652 46.7009 135.903 46.4947 136.11C46.3001 136.316 46.0596 136.419 45.7733 136.419ZM46.5291 137.948V147.361H44.9659V137.948H46.5291ZM53.2986 147.515C52.4169 147.515 51.6152 147.315 50.8938 146.914C50.1838 146.513 49.6226 145.947 49.2104 145.214C48.8096 144.469 48.6092 143.61 48.6092 142.637C48.6092 141.675 48.8153 140.828 49.2276 140.095C49.6513 139.35 50.2239 138.784 50.9453 138.394C51.6668 137.993 52.4741 137.793 53.3673 137.793C54.2606 137.793 55.0679 137.993 55.7894 138.394C56.5108 138.784 57.0777 139.345 57.4899 140.078C57.9137 140.81 58.1255 141.664 58.1255 142.637C58.1255 143.61 57.9079 144.469 57.4728 145.214C57.0491 145.947 56.4707 146.513 55.7378 146.914C55.0049 147.315 54.1919 147.515 53.2986 147.515ZM53.2986 146.141C53.8598 146.141 54.3865 146.01 54.879 145.746C55.3714 145.483 55.7665 145.088 56.0642 144.561C56.3734 144.034 56.528 143.393 56.528 142.637C56.528 141.881 56.3791 141.24 56.0814 140.713C55.7836 140.186 55.3943 139.797 54.9133 139.545C54.4323 139.282 53.9113 139.15 53.3502 139.15C52.7776 139.15 52.2508 139.282 51.7698 139.545C51.3003 139.797 50.9224 140.186 50.6361 140.713C50.3498 141.24 50.2067 141.881 50.2067 142.637C50.2067 143.404 50.3441 144.051 50.6189 144.578C50.9052 145.105 51.2831 145.5 51.7527 145.763C52.2222 146.015 52.7375 146.141 53.2986 146.141ZM68.529 137.948V147.361H66.9659V145.969C66.6681 146.45 66.2502 146.828 65.7119 147.103C65.1852 147.367 64.6011 147.498 63.9598 147.498C63.2269 147.498 62.5684 147.349 61.9844 147.052C61.4004 146.742 60.9366 146.284 60.593 145.677C60.2609 145.071 60.0949 144.332 60.0949 143.462V137.948H61.6409V143.255C61.6409 144.183 61.8756 144.899 62.3451 145.403C62.8147 145.895 63.4559 146.141 64.269 146.141C65.105 146.141 65.7635 145.884 66.2444 145.368C66.7254 144.853 66.9659 144.103 66.9659 143.118V137.948H68.529ZM74.5008 147.515C73.7793 147.515 73.1323 147.395 72.5597 147.155C71.9871 146.903 71.5348 146.559 71.2027 146.124C70.8706 145.677 70.6874 145.168 70.653 144.595H72.2677C72.3135 145.065 72.5311 145.448 72.9204 145.746C73.3212 146.044 73.8423 146.193 74.4836 146.193C75.0791 146.193 75.5486 146.061 75.8921 145.798C76.2357 145.534 76.4075 145.202 76.4075 144.801C76.4075 144.389 76.2242 144.086 75.8578 143.891C75.4913 143.685 74.9245 143.484 74.1572 143.29C73.4587 143.107 72.8861 142.923 72.4395 142.74C72.0043 142.545 71.6264 142.265 71.3058 141.898C70.9966 141.52 70.842 141.028 70.842 140.421C70.842 139.94 70.9851 139.499 71.2714 139.098C71.5577 138.698 71.9642 138.383 72.491 138.154C73.0178 137.913 73.619 137.793 74.2946 137.793C75.3367 137.793 76.1784 138.056 76.8197 138.583C77.461 139.11 77.8046 139.831 77.8504 140.748H76.2872C76.2529 140.255 76.0525 139.86 75.686 139.562C75.331 139.265 74.85 139.116 74.2431 139.116C73.682 139.116 73.2354 139.236 72.9033 139.476C72.5712 139.717 72.4051 140.032 72.4051 140.421C72.4051 140.73 72.5025 140.988 72.6971 141.194C72.9033 141.389 73.1552 141.549 73.4529 141.675C73.7621 141.79 74.1858 141.921 74.7241 142.07C75.3997 142.253 75.9494 142.437 76.3731 142.62C76.7968 142.792 77.1576 143.055 77.4553 143.41C77.7645 143.765 77.9248 144.229 77.9363 144.801C77.9363 145.317 77.7931 145.781 77.5068 146.193C77.2205 146.605 76.814 146.931 76.2872 147.172C75.7719 147.401 75.1764 147.515 74.5008 147.515Z" fill="black" fill-opacity="0.8"/>
<path d="M221.442 93.4511H217.897L217.244 95.2584H216.125L219.063 87.1778H220.288L223.214 95.2584H222.095L221.442 93.4511ZM221.139 92.5882L219.67 88.4838L218.201 92.5882H221.139ZM227.608 88.752C228.386 88.752 229.015 88.9891 229.497 89.4632C229.979 89.9297 230.22 90.606 230.22 91.4921V95.2584H229.171V91.6437C229.171 91.0063 229.012 90.5204 228.693 90.1862C228.374 89.8441 227.939 89.6731 227.387 89.6731C226.827 89.6731 226.38 89.848 226.046 90.1978C225.719 90.5477 225.556 91.0568 225.556 91.7253V95.2584H224.495V88.8686H225.556V89.7781C225.766 89.4516 226.05 89.1989 226.407 89.0202C226.773 88.8414 227.173 88.752 227.608 88.752ZM234.589 88.7636C235.141 88.7636 235.623 88.8841 236.035 89.1251C236.455 89.3661 236.765 89.6692 236.968 90.0346V88.8686H238.04V95.3983C238.04 95.9814 237.916 96.4983 237.667 96.9492C237.418 97.4078 237.061 97.7654 236.594 98.0219C236.136 98.2784 235.599 98.4067 234.985 98.4067C234.146 98.4067 233.446 98.2085 232.886 97.812C232.327 97.4156 231.996 96.8753 231.895 96.1912H232.945C233.061 96.5799 233.302 96.8909 233.668 97.1241C234.033 97.3651 234.472 97.4855 234.985 97.4855C235.568 97.4855 236.043 97.3029 236.408 96.9375C236.781 96.5722 236.968 96.0591 236.968 95.3983V94.0574C236.758 94.4305 236.447 94.7415 236.035 94.9902C235.623 95.239 235.141 95.3634 234.589 95.3634C234.021 95.3634 233.504 95.2234 233.038 94.9436C232.579 94.6637 232.218 94.2712 231.954 93.7659C231.689 93.2606 231.557 92.6854 231.557 92.0402C231.557 91.3872 231.689 90.8158 231.954 90.3261C232.218 89.8286 232.579 89.4438 233.038 89.1717C233.504 88.8997 234.021 88.7636 234.589 88.7636ZM236.968 92.0518C236.968 91.5699 236.87 91.1501 236.676 90.7925C236.482 90.4349 236.217 90.1629 235.883 89.9763C235.557 89.782 235.195 89.6848 234.799 89.6848C234.402 89.6848 234.041 89.7781 233.714 89.9646C233.388 90.1512 233.127 90.4233 232.933 90.7809C232.739 91.1384 232.642 91.5582 232.642 92.0402C232.642 92.5299 232.739 92.9575 232.933 93.3228C233.127 93.6804 233.388 93.9564 233.714 94.1507C234.041 94.3373 234.402 94.4305 234.799 94.4305C235.195 94.4305 235.557 94.3373 235.883 94.1507C236.217 93.9564 236.482 93.6804 236.676 93.3228C236.87 92.9575 236.968 92.5338 236.968 92.0518ZM240.895 89.9063C241.081 89.541 241.345 89.2572 241.687 89.0551C242.037 88.853 242.461 88.752 242.958 88.752V89.848H242.679C241.489 89.848 240.895 90.4932 240.895 91.7836V95.2584H239.833V88.8686H240.895V89.9063ZM249.687 88.8686L245.839 98.2668H244.743L246.002 95.1885L243.425 88.8686H244.603L246.609 94.0457L248.591 88.8686H249.687Z" fill="#3E3E3E" fill-opacity="0.3"/>
<path d="M122.932 41.8287C122.395 41.8287 121.913 41.7354 121.486 41.5488C121.066 41.3545 120.736 41.0902 120.495 40.7559C120.254 40.4139 120.129 40.0213 120.122 39.5783H121.253C121.292 39.9592 121.447 40.2818 121.719 40.5461C121.999 40.8026 122.403 40.9308 122.932 40.9308C123.437 40.9308 123.834 40.8065 124.121 40.5577C124.417 40.3012 124.564 39.9747 124.564 39.5783C124.564 39.2673 124.479 39.0147 124.308 38.8203C124.137 38.626 123.923 38.4783 123.666 38.3772C123.41 38.2762 123.064 38.1674 122.629 38.0507C122.092 37.9108 121.661 37.7709 121.334 37.631C121.016 37.4911 120.74 37.2734 120.506 36.978C120.281 36.6748 120.168 36.2706 120.168 35.7653C120.168 35.3222 120.281 34.9297 120.506 34.5876C120.732 34.2456 121.047 33.9813 121.451 33.7947C121.863 33.6082 122.333 33.5149 122.862 33.5149C123.624 33.5149 124.246 33.7053 124.727 34.0862C125.217 34.4671 125.493 34.9724 125.555 35.6021H124.389C124.35 35.2911 124.187 35.0191 123.9 34.7859C123.612 34.5449 123.231 34.4244 122.757 34.4244C122.314 34.4244 121.952 34.541 121.672 34.7742C121.393 34.9996 121.253 35.3183 121.253 35.7303C121.253 36.0257 121.334 36.2667 121.498 36.4533C121.669 36.6399 121.875 36.7837 122.116 36.8847C122.364 36.978 122.71 37.0868 123.153 37.2112C123.69 37.3589 124.121 37.5066 124.448 37.6543C124.774 37.7942 125.054 38.0158 125.287 38.3189C125.52 38.6143 125.637 39.0186 125.637 39.5316C125.637 39.9281 125.532 40.3012 125.322 40.651C125.112 41.0008 124.801 41.2845 124.389 41.5022C123.977 41.7199 123.492 41.8287 122.932 41.8287ZM128.493 36.2317V39.998C128.493 40.309 128.559 40.5305 128.691 40.6627C128.823 40.787 129.052 40.8492 129.379 40.8492H130.16V41.7471H129.204C128.613 41.7471 128.17 41.611 127.875 41.339C127.579 41.0669 127.432 40.6199 127.432 39.998V36.2317H126.604V35.3572H127.432V33.7481H128.493V35.3572H130.16V36.2317H128.493ZM132.507 36.395C132.693 36.0296 132.958 35.7459 133.3 35.5438C133.65 35.3417 134.073 35.2406 134.571 35.2406V36.3367H134.291C133.102 36.3367 132.507 36.9819 132.507 38.2723V41.7471H131.446V35.3572H132.507V36.395ZM141.626 38.3073C141.626 38.5094 141.614 38.7232 141.591 38.9486H136.484C136.523 39.5783 136.736 40.0719 137.125 40.4295C137.521 40.7793 137.999 40.9542 138.559 40.9542C139.018 40.9542 139.399 40.8492 139.702 40.6393C140.013 40.4217 140.23 40.1341 140.355 39.7765H141.498C141.327 40.3906 140.985 40.892 140.471 41.2807C139.958 41.6616 139.321 41.852 138.559 41.852C137.953 41.852 137.409 41.716 136.927 41.4439C136.453 41.1718 136.079 40.787 135.807 40.2895C135.535 39.7842 135.399 39.2012 135.399 38.5405C135.399 37.8797 135.531 37.3006 135.796 36.8031C136.06 36.3056 136.429 35.9247 136.903 35.6604C137.385 35.3883 137.937 35.2523 138.559 35.2523C139.166 35.2523 139.702 35.3844 140.168 35.6487C140.635 35.913 140.992 36.2784 141.241 36.7448C141.498 37.2034 141.626 37.7243 141.626 38.3073ZM140.53 38.0857C140.53 37.6815 140.44 37.3356 140.262 37.048C140.083 36.7526 139.838 36.531 139.527 36.3833C139.224 36.2279 138.886 36.1501 138.513 36.1501C137.976 36.1501 137.518 36.3211 137.137 36.6632C136.763 37.0052 136.55 37.4794 136.495 38.0857H140.53ZM145.289 41.852C144.799 41.852 144.36 41.7704 143.971 41.6071C143.582 41.4361 143.275 41.2029 143.05 40.9075C142.824 40.6044 142.7 40.2584 142.677 39.8698H143.773C143.804 40.1885 143.952 40.4489 144.216 40.651C144.488 40.8531 144.842 40.9542 145.277 40.9542C145.681 40.9542 146 40.8648 146.233 40.686C146.466 40.5072 146.583 40.2818 146.583 40.0097C146.583 39.7298 146.458 39.5238 146.21 39.3917C145.961 39.2518 145.576 39.1157 145.055 38.9836C144.581 38.8592 144.192 38.7348 143.889 38.6104C143.594 38.4783 143.337 38.2878 143.12 38.0391C142.91 37.7826 142.805 37.4483 142.805 37.0363C142.805 36.7098 142.902 36.4105 143.096 36.1385C143.291 35.8664 143.567 35.6526 143.924 35.4971C144.282 35.3339 144.69 35.2523 145.149 35.2523C145.856 35.2523 146.427 35.4311 146.863 35.7886C147.298 36.1462 147.531 36.636 147.562 37.2578H146.501C146.478 36.9236 146.342 36.6554 146.093 36.4533C145.852 36.2512 145.526 36.1501 145.114 36.1501C144.733 36.1501 144.43 36.2317 144.204 36.395C143.979 36.5582 143.866 36.772 143.866 37.0363C143.866 37.2462 143.932 37.4211 144.064 37.561C144.204 37.6932 144.375 37.802 144.577 37.8875C144.787 37.9652 145.075 38.0546 145.44 38.1557C145.899 38.2801 146.272 38.4044 146.56 38.5288C146.847 38.6454 147.092 38.8242 147.294 39.0652C147.504 39.3062 147.613 39.621 147.621 40.0097C147.621 40.3595 147.523 40.6743 147.329 40.9542C147.135 41.234 146.859 41.4556 146.501 41.6188C146.151 41.7743 145.747 41.852 145.289 41.852ZM151.381 41.852C150.891 41.852 150.452 41.7704 150.063 41.6071C149.674 41.4361 149.367 41.2029 149.142 40.9075C148.916 40.6044 148.792 40.2584 148.769 39.8698H149.865C149.896 40.1885 150.044 40.4489 150.308 40.651C150.58 40.8531 150.934 40.9542 151.369 40.9542C151.773 40.9542 152.092 40.8648 152.325 40.686C152.558 40.5072 152.675 40.2818 152.675 40.0097C152.675 39.7298 152.551 39.5238 152.302 39.3917C152.053 39.2518 151.668 39.1157 151.147 38.9836C150.673 38.8592 150.285 38.7348 149.981 38.6104C149.686 38.4783 149.429 38.2878 149.212 38.0391C149.002 37.7826 148.897 37.4483 148.897 37.0363C148.897 36.7098 148.994 36.4105 149.188 36.1385C149.383 35.8664 149.659 35.6526 150.016 35.4971C150.374 35.3339 150.782 35.2523 151.241 35.2523C151.948 35.2523 152.519 35.4311 152.955 35.7886C153.39 36.1462 153.623 36.636 153.654 37.2578H152.593C152.57 36.9236 152.434 36.6554 152.185 36.4533C151.944 36.2512 151.618 36.1501 151.206 36.1501C150.825 36.1501 150.522 36.2317 150.296 36.395C150.071 36.5582 149.958 36.772 149.958 37.0363C149.958 37.2462 150.024 37.4211 150.156 37.561C150.296 37.6932 150.467 37.802 150.669 37.8875C150.879 37.9652 151.167 38.0546 151.532 38.1557C151.991 38.2801 152.364 38.4044 152.652 38.5288C152.939 38.6454 153.184 38.8242 153.386 39.0652C153.596 39.3062 153.705 39.621 153.713 40.0097C153.713 40.3595 153.616 40.6743 153.421 40.9542C153.227 41.234 152.951 41.4556 152.593 41.6188C152.243 41.7743 151.839 41.852 151.381 41.852ZM161.041 38.3073C161.041 38.5094 161.029 38.7232 161.006 38.9486H155.899C155.937 39.5783 156.151 40.0719 156.54 40.4295C156.936 40.7793 157.414 40.9542 157.974 40.9542C158.433 40.9542 158.814 40.8492 159.117 40.6393C159.428 40.4217 159.645 40.1341 159.77 39.7765H160.912C160.741 40.3906 160.399 40.892 159.886 41.2807C159.373 41.6616 158.736 41.852 157.974 41.852C157.368 41.852 156.824 41.716 156.342 41.4439C155.867 41.1718 155.494 40.787 155.222 40.2895C154.95 39.7842 154.814 39.2012 154.814 38.5405C154.814 37.8797 154.946 37.3006 155.211 36.8031C155.475 36.3056 155.844 35.9247 156.318 35.6604C156.8 35.3883 157.352 35.2523 157.974 35.2523C158.58 35.2523 159.117 35.3844 159.583 35.6487C160.05 35.913 160.407 36.2784 160.656 36.7448C160.912 37.2034 161.041 37.7243 161.041 38.3073ZM159.945 38.0857C159.945 37.6815 159.855 37.3356 159.676 37.048C159.498 36.7526 159.253 36.531 158.942 36.3833C158.639 36.2279 158.301 36.1501 157.927 36.1501C157.391 36.1501 156.932 36.3211 156.552 36.6632C156.178 37.0052 155.965 37.4794 155.91 38.0857H159.945ZM162.045 38.5288C162.045 37.8758 162.177 37.3045 162.441 36.8148C162.706 36.3172 163.067 35.9325 163.526 35.6604C163.992 35.3883 164.513 35.2523 165.088 35.2523C165.586 35.2523 166.048 35.3689 166.476 35.6021C166.903 35.8275 167.23 36.1268 167.455 36.4999V33.1184H168.528V41.7471H167.455V40.5461C167.245 40.927 166.934 41.2418 166.522 41.4905C166.11 41.7315 165.628 41.852 165.077 41.852C164.509 41.852 163.992 41.7121 163.526 41.4322C163.067 41.1524 162.706 40.7598 162.441 40.2545C162.177 39.7493 162.045 39.174 162.045 38.5288ZM167.455 38.5405C167.455 38.0585 167.358 37.6388 167.164 37.2812C166.969 36.9236 166.705 36.6515 166.371 36.4649C166.044 36.2706 165.683 36.1734 165.286 36.1734C164.89 36.1734 164.529 36.2667 164.202 36.4533C163.876 36.6399 163.615 36.9119 163.421 37.2695C163.226 37.6271 163.129 38.0469 163.129 38.5288C163.129 39.0186 163.226 39.4461 163.421 39.8115C163.615 40.169 163.876 40.445 164.202 40.6393C164.529 40.8259 164.89 40.9192 165.286 40.9192C165.683 40.9192 166.044 40.8259 166.371 40.6393C166.705 40.445 166.969 40.169 167.164 39.8115C167.358 39.4461 167.455 39.0224 167.455 38.5405Z" fill="#3E3E3E" fill-opacity="0.3"/>
<path d="M77.7467 200.634H76.6856L72.4179 194.163V200.634H71.3568V192.495H72.4179L76.6856 198.955V192.495H77.7467V200.634ZM85.3857 197.194C85.3857 197.397 85.374 197.61 85.3507 197.836H80.2434C80.2823 198.465 80.4961 198.959 80.8848 199.317C81.2812 199.666 81.7593 199.841 82.319 199.841C82.7776 199.841 83.1585 199.736 83.4617 199.527C83.7726 199.309 83.9903 199.021 84.1147 198.664H85.2574C85.0864 199.278 84.7443 199.779 84.2313 200.168C83.7182 200.549 83.0808 200.739 82.319 200.739C81.7126 200.739 81.1685 200.603 80.6865 200.331C80.2124 200.059 79.8392 199.674 79.5672 199.177C79.2951 198.671 79.159 198.088 79.159 197.428C79.159 196.767 79.2912 196.188 79.5555 195.69C79.8198 195.193 80.189 194.812 80.6632 194.548C81.1452 194.276 81.6971 194.139 82.319 194.139C82.9253 194.139 83.4617 194.272 83.9281 194.536C84.3945 194.8 84.7521 195.166 85.0009 195.632C85.2574 196.091 85.3857 196.611 85.3857 197.194ZM84.2896 196.973C84.2896 196.569 84.2002 196.223 84.0214 195.935C83.8426 195.64 83.5977 195.418 83.2868 195.271C82.9836 195.115 82.6455 195.037 82.2723 195.037C81.736 195.037 81.2773 195.208 80.8964 195.55C80.5233 195.892 80.3095 196.367 80.2551 196.973H84.2896ZM92.4532 194.244V200.634H91.3921V199.69C91.19 200.016 90.9062 200.273 90.5409 200.459C90.1833 200.638 89.7868 200.728 89.3515 200.728C88.854 200.728 88.407 200.627 88.0106 200.424C87.6141 200.215 87.2993 199.904 87.0661 199.492C86.8407 199.08 86.728 198.578 86.728 197.987V194.244H87.7774V197.847C87.7774 198.477 87.9367 198.963 88.2555 199.305C88.5742 199.639 89.0095 199.806 89.5614 199.806C90.1289 199.806 90.5759 199.631 90.9023 199.282C91.2288 198.932 91.3921 198.423 91.3921 197.754V194.244H92.4532ZM95.5391 195.119V198.885C95.5391 199.196 95.6051 199.418 95.7373 199.55C95.8694 199.674 96.0987 199.736 96.4252 199.736H97.2065V200.634H96.2503C95.6595 200.634 95.2165 200.498 94.9211 200.226C94.6257 199.954 94.478 199.507 94.478 198.885V195.119H93.6501V194.244H94.478V192.635H95.5391V194.244H97.2065V195.119H95.5391ZM99.5532 195.282C99.7398 194.917 100.004 194.633 100.346 194.431C100.696 194.229 101.12 194.128 101.617 194.128V195.224H101.337C100.148 195.224 99.5532 195.869 99.5532 197.16V200.634H98.4921V194.244H99.5532V195.282ZM102.446 197.416C102.446 196.763 102.578 196.192 102.842 195.702C103.106 195.204 103.468 194.82 103.926 194.548C104.393 194.276 104.91 194.139 105.477 194.139C106.037 194.139 106.523 194.26 106.935 194.501C107.347 194.742 107.654 195.045 107.856 195.41V194.244H108.929V200.634H107.856V199.445C107.646 199.818 107.331 200.129 106.911 200.378C106.499 200.619 106.017 200.739 105.466 200.739C104.898 200.739 104.385 200.599 103.926 200.319C103.468 200.04 103.106 199.647 102.842 199.142C102.578 198.636 102.446 198.061 102.446 197.416ZM107.856 197.428C107.856 196.946 107.759 196.526 107.564 196.168C107.37 195.811 107.106 195.539 106.771 195.352C106.445 195.158 106.084 195.061 105.687 195.061C105.291 195.061 104.929 195.154 104.603 195.34C104.276 195.527 104.016 195.799 103.821 196.157C103.627 196.514 103.53 196.934 103.53 197.416C103.53 197.906 103.627 198.333 103.821 198.699C104.016 199.056 104.276 199.332 104.603 199.527C104.929 199.713 105.291 199.806 105.687 199.806C106.084 199.806 106.445 199.713 106.771 199.527C107.106 199.332 107.37 199.056 107.564 198.699C107.759 198.333 107.856 197.91 107.856 197.428ZM111.783 192.006V200.634H110.722V192.006H111.783Z" fill="#3E3E3E" fill-opacity="0.4"/>
<defs>
<linearGradient id="paint0_linear_2578_9808" x1="165.335" y1="62.5005" x2="169.778" y2="151.02" gradientUnits="userSpaceOnUse">
<stop stop-color="#0272FA"/>
<stop offset="1" stop-color="#0272FA" stop-opacity="0"/>
</linearGradient>
</defs>
</svg>
