<svg width="79" height="250" viewBox="0 0 79 250" fill="none" xmlns="http://www.w3.org/2000/svg">
<path d="M39.2622 241.679C50.4411 244.33 65.5691 247.572 76.9009 248.275M76.9009 248.275C78.2065 248.356 75.8816 238.816 75.7373 238.385C72.5803 228.933 68.2837 220.182 63.7133 211.357M76.9009 248.275C20.7791 220.894 -6.69112 164.054 7.09477 121.769C8.46109 117.578 9.95261 113.018 11.8437 108.611M11.8437 108.611C14.8554 101.592 18.8805 94.9619 25.0274 90.8277C30.7005 87.0126 39.7012 84.4341 46.1021 87.6446C58.0589 93.6424 55.9268 111.242 44.3741 116.935C34.2221 121.939 17.9911 117.983 11.8437 108.611ZM11.8437 108.611C11.7141 108.413 11.5889 108.213 11.4683 108.01C-17.6263 59.1374 26.5723 9.05682 72.5227 1.84979" stroke="#BDBDBD" stroke-width="3" stroke-miterlimit="1.5" stroke-linecap="round" stroke-linejoin="round" stroke-dasharray="12 12"/>
</svg>
