<svg width="72" height="72" viewBox="0 0 72 72" fill="none" xmlns="http://www.w3.org/2000/svg">
<path d="M72.0001 35.8066C72.0001 45.127 68.4392 53.6152 62.6033 59.986L62.6029 59.9865C62.5811 60.0102 62.5594 60.0339 62.5371 60.0575C62.4463 60.1571 62.354 60.2557 62.2617 60.3537C61.7621 60.8843 61.2465 61.399 60.7159 61.8981C59.0696 63.4459 57.2768 64.8395 55.3604 66.0562C52.2962 68.0022 48.9161 69.4953 45.3142 70.4415C45.0189 70.5188 44.7222 70.5927 44.4241 70.6628C44.0022 70.7623 43.5775 70.8541 43.1498 70.9382C41.7306 71.2175 40.2814 71.4127 38.8076 71.5195C38.6752 71.5287 38.5428 71.5379 38.4099 71.5461C37.6769 71.5906 36.9376 71.6133 36.1934 71.6133C33.813 71.6133 31.4873 71.3809 29.2369 70.9382C28.1792 70.73 27.1378 70.4748 26.1158 70.1752C25.9457 70.1259 25.7761 70.0747 25.607 70.0225C24.8348 69.7838 24.0737 69.52 23.3247 69.231C23.1952 69.1817 23.0667 69.131 22.9382 69.0798C20.8651 68.253 18.8873 67.2382 17.0264 66.0562C15.11 64.8395 13.3172 63.4459 11.6709 61.8981C11.4849 61.7232 11.3007 61.5463 11.1186 61.3671C10.9978 61.2492 10.8784 61.1303 10.7591 61.01C10.1879 60.4335 9.63557 59.8377 9.10402 59.223C3.67262 52.945 0.386719 44.7597 0.386719 35.8066C0.386719 16.0313 16.4181 -6.10352e-05 36.1934 -6.10352e-05C55.9687 -6.10352e-05 72.0001 16.0313 72.0001 35.8066Z" fill="#FFE2E2"/>
<path d="M40.385 65.734L40.2772 66.1206L31.141 66.109L31.0332 65.7224L40.385 65.734Z" fill="#816AD6"/>
<mask id="mask0_2433_10631" style="mask-type:alpha" maskUnits="userSpaceOnUse" x="0" y="0" width="72" height="72">
<path d="M71.6133 36.1933C71.6133 45.5137 68.0525 54.002 62.2166 60.3727C62.1949 60.3964 62.1726 60.4206 62.1504 60.4443C62.0596 60.5438 61.9673 60.6424 61.875 60.7405C61.3753 61.271 60.8597 61.7857 60.3292 62.2848C58.6828 63.8326 56.8901 65.2262 54.9736 66.443C51.9095 68.3889 48.5294 69.882 44.9275 70.8282C44.6322 70.9055 44.3355 70.9794 44.0374 71.0495C43.6155 71.149 43.1908 71.2409 42.7631 71.3249C41.3439 71.6042 39.8947 71.7995 38.4209 71.9063C38.2885 71.9154 38.1561 71.9246 38.0232 71.9328C37.2902 71.9773 36.5508 72 35.8067 72C33.4263 72 31.1006 71.7676 28.8502 71.3249C27.7924 71.1167 26.7511 70.8615 25.7291 70.5619C25.559 70.5126 25.3894 70.4614 25.2203 70.4092C24.4481 70.1705 23.687 69.9067 22.938 69.6177C22.8085 69.5684 22.68 69.5177 22.5514 69.4665C20.4784 68.6397 18.5006 67.6249 16.6397 66.443C14.7233 65.2262 12.9305 63.8326 11.2842 62.2848C11.0981 62.1099 10.914 61.9331 10.7318 61.7538C10.611 61.6359 10.4917 61.517 10.3723 61.3967C9.80117 60.8202 9.24885 60.2244 8.71731 59.6097C3.2859 53.3317 0 45.1464 0 36.1933C0 16.418 16.0313 0.386658 35.8067 0.386658C55.582 0.386658 71.6133 16.418 71.6133 36.1933Z" fill="black"/>
</mask>
<g mask="url(#mask0_2433_10631)">
<path d="M35.3115 19.0237C35.3115 19.0237 31.8897 16.135 27.543 17.8584C23.1968 19.5818 21.4031 24.7525 21.4031 27.2592C21.4031 29.7663 21.4276 32.4815 19.7824 34.3114C18.1372 36.141 17.3294 37.3554 17.9562 41.6642C18.583 45.9729 21.2869 47.0804 21.6673 49.4393C22.0594 51.8678 20.1495 52.475 19.9539 56.6273L51.8386 58.0764C51.8386 58.0764 53.1309 55.6089 52.9744 53.5325C52.8179 51.4566 50.4282 47.579 50.546 44.9154C50.6633 42.2518 53.0526 39.5096 52.8179 35.5533C52.5828 31.5975 50.9767 30.7356 49.4098 28.2285C47.8433 25.7218 48.5483 20.3847 43.5736 18.0836C37.804 15.4146 35.3115 19.0237 35.3115 19.0237Z" fill="#3F153B"/>
<path d="M58.7166 64.5442L58.62 64.4976C58.5418 64.5833 58.4623 64.6682 58.3828 64.7527C57.9525 65.2097 57.5084 65.6529 57.0515 66.0828C55.6335 67.4158 54.0895 68.6161 52.4389 69.6641C49.7999 71.34 46.8886 72.6261 43.7864 73.4409C43.5321 73.5075 43.2766 73.5712 43.0198 73.6316C42.6565 73.7173 42.2906 73.7964 41.9223 73.8688C40.7 74.1093 39.4518 74.2775 38.1825 74.3695C38.0684 74.3774 37.9544 74.3853 37.84 74.3923C37.2086 74.4306 36.5718 74.4502 35.9309 74.4502C33.8808 74.4502 31.8777 74.25 29.9395 73.8688C29.0285 73.6894 28.1316 73.4697 27.2514 73.2116C27.1049 73.1692 26.9588 73.1251 26.8131 73.0801C26.1481 72.8745 25.4926 72.6473 24.8475 72.3984C24.736 72.356 24.6253 72.3123 24.5146 72.2681C22.7291 71.556 21.0257 70.6821 19.423 69.6641C17.7724 68.6161 16.2283 67.4158 14.8104 66.0828C14.6501 65.9321 14.4916 65.7798 14.3347 65.6254C14.2306 65.5239 14.1278 65.4215 14.025 65.3179C13.5331 64.8214 13.0574 64.3082 12.5996 63.7788C12.6013 63.7751 12.6025 63.7709 12.6042 63.7672C12.6337 63.6902 12.6633 63.6132 12.6933 63.5362C12.7136 63.4837 12.734 63.4313 12.7544 63.3789C12.8002 63.2627 12.846 63.1466 12.8926 63.0309C12.9421 62.9073 12.9921 62.7841 13.0424 62.6618C13.0591 62.621 13.0761 62.5802 13.0928 62.5398C13.1431 62.4179 13.1939 62.2968 13.2455 62.1765C13.2626 62.1361 13.2797 62.0962 13.2971 62.0562C13.3142 62.0163 13.3313 61.9763 13.3487 61.9368C13.3658 61.8972 13.3833 61.8573 13.4008 61.8182C13.4765 61.645 13.5531 61.4744 13.6305 61.3071C13.6509 61.263 13.6713 61.2197 13.6913 61.176C13.6996 61.1581 13.7083 61.1398 13.7166 61.1219C13.752 61.0474 13.787 60.9737 13.8224 60.9005C13.8648 60.8118 13.9081 60.7244 13.951 60.6379C14.008 60.5234 14.0654 60.411 14.1224 60.3016C14.2027 60.1476 14.2839 59.9986 14.3647 59.855C14.383 59.823 14.4009 59.7909 14.4192 59.7593C14.4375 59.7277 14.4554 59.6965 14.4737 59.6652C14.492 59.6344 14.5099 59.6036 14.5282 59.5733C14.5457 59.5437 14.5632 59.5146 14.5806 59.4859C14.6447 59.381 14.7088 59.2799 14.7729 59.1833C14.7854 59.1646 14.7979 59.1458 14.8104 59.1275C14.9119 58.9765 15.0135 58.8366 15.1146 58.7101C15.1271 58.6943 15.1396 58.6785 15.1525 58.6631C15.197 58.6077 15.242 58.5553 15.2869 58.5058C15.3044 58.4858 15.3223 58.4662 15.3402 58.4475C15.5092 58.2677 15.6902 58.1083 15.8829 57.966C15.8983 57.9547 15.9137 57.9431 15.9299 57.9318C15.9466 57.9193 15.9636 57.9077 15.9807 57.896C15.9936 57.8869 16.0069 57.8777 16.0202 57.869C16.0377 57.8573 16.0556 57.8453 16.0735 57.8332C16.205 57.747 16.3411 57.6684 16.4814 57.5956C16.5005 57.5856 16.5201 57.576 16.5392 57.566C16.5588 57.5564 16.5779 57.5469 16.5979 57.5373C16.6091 57.5319 16.62 57.5265 16.6316 57.5215C16.6453 57.5144 16.6599 57.5077 16.6741 57.5015C16.7094 57.4849 16.7444 57.469 16.7798 57.4532C16.7981 57.4457 16.816 57.4378 16.8343 57.4303C16.8443 57.4258 16.8539 57.4216 16.8638 57.4178C16.8855 57.4087 16.9067 57.4 16.9284 57.3916C16.9791 57.3708 17.0303 57.3508 17.0819 57.3317C17.1227 57.3167 17.1635 57.3021 17.2047 57.288C17.2222 57.2822 17.2392 57.2759 17.2571 57.2701C17.2829 57.2614 17.3087 57.2526 17.335 57.2443C17.3695 57.2331 17.4036 57.2218 17.4386 57.2114C17.4681 57.2023 17.4981 57.1935 17.5289 57.1844C17.5751 57.1706 17.6213 57.1577 17.6675 57.1452C17.7312 57.1278 17.7957 57.1111 17.8606 57.0949C17.9051 57.0837 17.9501 57.0732 17.9954 57.0624C18.0042 57.0608 18.0129 57.0587 18.0217 57.0566C18.0554 57.0491 18.0891 57.0412 18.1232 57.0345C18.2668 57.0029 18.4125 56.9746 18.5602 56.9488C18.6014 56.9417 18.6426 56.9347 18.6842 56.9276L18.6938 56.9263C18.7891 56.9105 18.8853 56.896 18.9822 56.8814L18.988 56.8806C19.1366 56.8589 19.2873 56.8394 19.44 56.821C19.495 56.8144 19.5499 56.8081 19.6052 56.8015C19.6598 56.7957 19.7147 56.7894 19.7696 56.7836C19.8267 56.7778 19.8833 56.7715 19.9403 56.7657C19.9944 56.7599 20.0481 56.7544 20.1022 56.749C20.3947 56.7203 20.6923 56.6941 20.9928 56.6671C21.1014 56.6575 21.2109 56.6479 21.3208 56.6379C21.7128 56.6025 22.1094 56.5647 22.509 56.5185C22.566 56.5118 22.6226 56.5052 22.68 56.4981C22.7166 56.4935 22.7528 56.4893 22.7899 56.4843C22.8348 56.4785 22.8802 56.4727 22.9251 56.4669C23.0242 56.4535 23.1224 56.4398 23.2215 56.4257C23.2552 56.4207 23.2889 56.4157 23.3226 56.4107C23.3701 56.4032 23.4183 56.3961 23.4658 56.3882C23.5149 56.3803 23.5632 56.3724 23.6123 56.3641C23.6522 56.3578 23.6922 56.3507 23.7321 56.3433C23.7758 56.3358 23.8187 56.3287 23.862 56.3204C23.8803 56.317 23.8982 56.3137 23.9161 56.3104C23.9602 56.3021 24.0039 56.2937 24.048 56.285C24.1546 56.2642 24.2607 56.2421 24.3677 56.2184C24.4126 56.2088 24.458 56.1988 24.5029 56.188C24.6369 56.1576 24.7705 56.1243 24.9033 56.0894C24.9403 56.0794 24.9774 56.0694 25.0144 56.0594C25.0456 56.0511 25.0772 56.0419 25.1085 56.0332C25.1538 56.0207 25.1983 56.0082 25.2429 55.9953C25.2982 55.9799 25.3527 55.9637 25.4073 55.9475C25.5163 55.915 25.6237 55.8817 25.729 55.8476C25.7777 55.8322 25.8255 55.8164 25.8738 55.8006L25.8838 55.7972C25.9354 55.7802 25.9866 55.7627 26.0374 55.7452C26.0882 55.7277 26.1381 55.7098 26.1876 55.6923C26.2359 55.6749 26.2846 55.6574 26.332 55.6399L26.3345 55.6387C26.3828 55.6212 26.4307 55.6033 26.4781 55.585C26.5152 55.5708 26.5522 55.5567 26.5884 55.5417C26.5988 55.5379 26.6088 55.5338 26.6192 55.5296C26.6575 55.5151 26.6954 55.4997 26.7328 55.4843C26.749 55.4776 26.7649 55.4713 26.7811 55.4643C26.8186 55.4489 26.8556 55.4339 26.8922 55.4181C26.9005 55.4148 26.908 55.4114 26.9159 55.4077C26.9526 55.3927 26.9892 55.3769 27.0246 55.3611C27.0679 55.3419 27.1111 55.3228 27.154 55.3036C27.1965 55.2845 27.2385 55.2649 27.2805 55.2454C27.3679 55.2046 27.4532 55.163 27.5369 55.1213C27.6206 55.0797 27.7021 55.0377 27.7812 54.9952C27.8107 54.9798 27.8399 54.964 27.869 54.9482C27.9443 54.907 28.0172 54.8658 28.0892 54.8238C28.1633 54.7805 28.2357 54.7372 28.3064 54.6931C28.3297 54.6794 28.3522 54.6648 28.3751 54.6502C28.6106 54.5008 28.825 54.3485 29.0193 54.1949C29.123 54.1125 29.2212 54.0301 29.3136 53.9481C29.3252 53.9373 29.3373 53.9269 29.3485 53.9161C29.3777 53.8903 29.406 53.8645 29.4339 53.8382H29.4343C30.0024 53.3039 30.3495 52.767 30.5363 52.29C30.7469 51.7548 30.8231 50.4738 30.8426 49.2036C30.8476 48.8894 30.8489 48.5756 30.8476 48.2739C30.8476 48.2322 30.8472 48.191 30.8472 48.1503C30.8468 48.0778 30.8464 48.0058 30.8456 47.9351C30.8456 47.9093 30.8451 47.8831 30.8447 47.8573C30.8443 47.7919 30.8435 47.727 30.8426 47.6633C30.841 47.5509 30.8393 47.4415 30.8376 47.3362C30.8368 47.3008 30.8364 47.2663 30.8356 47.2321V47.2301C30.8351 47.1955 30.8343 47.1618 30.8335 47.1285V47.1269C30.8331 47.0936 30.8322 47.0607 30.8314 47.0286C30.831 47.0116 30.8306 46.9949 30.8302 46.9779C30.8297 46.9462 30.8289 46.9154 30.8281 46.8846C30.8272 46.8534 30.8264 46.823 30.8256 46.7931C30.8252 46.7631 30.8243 46.734 30.8235 46.7053C30.8223 46.6624 30.821 46.6212 30.8197 46.5812C30.8193 46.5546 30.8185 46.5288 30.8177 46.5034C30.8173 46.4909 30.8168 46.4784 30.8164 46.4664C30.816 46.4418 30.8152 46.4185 30.8144 46.3956V46.3948C30.8139 46.3723 30.8131 46.3503 30.8123 46.3294V46.3286C30.8119 46.3074 30.811 46.287 30.8102 46.2679V46.2674C30.8094 46.2379 30.8085 46.2104 30.8073 46.185C30.8064 46.1592 30.8052 46.1355 30.8048 46.1139C30.8014 46.0136 30.7989 45.9582 30.7989 45.9582L34.1746 44.6139L35.5147 44.0804L37.4567 44.8532L40.2309 45.9582C40.2309 45.9582 40.2297 45.9898 40.2272 46.0485C40.2272 46.056 40.2268 46.0639 40.2264 46.0722C40.2255 46.0922 40.2247 46.1143 40.2239 46.1388C40.2234 46.1509 40.223 46.1638 40.2226 46.1771C40.2218 46.2038 40.2205 46.2325 40.2197 46.2637C40.2193 46.2712 40.2193 46.2791 40.2189 46.2874C40.2185 46.2953 40.2185 46.3032 40.218 46.3116C40.2176 46.3199 40.2176 46.3282 40.2172 46.3369C40.2168 46.3453 40.2168 46.354 40.2164 46.3623C40.216 46.3815 40.2151 46.4014 40.2147 46.4218C40.2139 46.4406 40.2135 46.4601 40.2126 46.4801C40.2122 46.4972 40.2118 46.5142 40.2114 46.5317C40.2105 46.5484 40.2101 46.565 40.2097 46.5821C40.2089 46.6154 40.208 46.6499 40.2068 46.6853C40.2064 46.7065 40.206 46.7281 40.2051 46.7502C40.2043 46.7793 40.2035 46.8093 40.2026 46.8397C40.2018 46.8705 40.201 46.9017 40.2005 46.9333C40.2001 46.9508 40.1997 46.9683 40.1993 46.9858C40.1985 47.0116 40.1981 47.0374 40.1976 47.064C40.1972 47.0832 40.1968 47.1027 40.1964 47.1223C40.196 47.1418 40.1956 47.1618 40.1952 47.1818C40.1943 47.2163 40.1935 47.2513 40.1931 47.2867C40.1927 47.2946 40.1926 47.3025 40.1926 47.3104C40.1922 47.3241 40.1918 47.3383 40.1918 47.3524C40.1902 47.4527 40.1885 47.5564 40.1868 47.6633C40.1864 47.7257 40.1856 47.7894 40.1847 47.8543C40.1843 47.8926 40.1839 47.9318 40.1835 47.9709C40.1835 47.9975 40.1835 48.0241 40.1831 48.0508C40.1822 48.2272 40.1814 48.4091 40.1818 48.5935C40.1818 48.6792 40.1822 48.7658 40.1831 48.8524C40.1839 48.9381 40.1847 49.0238 40.1856 49.11C40.1872 49.2423 40.1897 49.3747 40.1926 49.5066C40.2197 50.6727 40.2996 51.7969 40.4931 52.29C40.6804 52.767 41.0271 53.3039 41.5956 53.8382H41.596C41.6235 53.8645 41.6518 53.8903 41.6809 53.9161C41.6926 53.9269 41.7046 53.9373 41.7159 53.9481C41.8353 54.0542 41.9643 54.1608 42.1025 54.2661C42.2719 54.3955 42.4559 54.5241 42.6548 54.6502C42.6773 54.6648 42.7002 54.6794 42.723 54.6931C42.7938 54.7372 42.8662 54.7805 42.9407 54.8238C43.0123 54.8658 43.0851 54.907 43.1605 54.9482C43.1896 54.964 43.2187 54.9798 43.2483 54.9952C43.3273 55.0377 43.4089 55.0797 43.4926 55.1213C43.5762 55.163 43.662 55.2046 43.7489 55.2454C43.791 55.2649 43.833 55.2845 43.8755 55.3036C43.9187 55.3228 43.9616 55.3419 44.0049 55.3611C44.0407 55.3769 44.0769 55.3927 44.1135 55.4077C44.1214 55.4114 44.1293 55.4148 44.1377 55.4181C44.1743 55.4339 44.2109 55.4489 44.2484 55.4643C44.2646 55.4713 44.2808 55.4776 44.2971 55.4843C44.3345 55.4997 44.3724 55.5151 44.4107 55.5296C44.4207 55.5338 44.4311 55.5379 44.4411 55.5417C44.4777 55.5567 44.5147 55.5708 44.5514 55.585C44.5992 55.6033 44.6466 55.6212 44.6953 55.6387L44.6974 55.6399C44.7449 55.6574 44.7936 55.6749 44.8423 55.6923C44.8914 55.7098 44.9413 55.7277 44.9921 55.7452C45.0429 55.7627 45.0945 55.7802 45.1461 55.7972C45.1973 55.8143 45.2485 55.8309 45.3009 55.8476C45.3163 55.8526 45.3317 55.8576 45.3471 55.8622C45.4374 55.8913 45.529 55.9196 45.6222 55.9475C45.6767 55.9637 45.7312 55.9799 45.7866 55.9953C45.8311 56.0082 45.8761 56.0207 45.921 56.0332C45.9526 56.0419 45.9839 56.0511 46.0155 56.0594C46.0525 56.0694 46.0891 56.0794 46.1262 56.0894C46.1778 56.1031 46.2294 56.116 46.281 56.1289C46.3168 56.1381 46.353 56.1472 46.3892 56.1556C46.4354 56.1668 46.4812 56.1776 46.527 56.188C46.5557 56.1951 46.5848 56.2018 46.614 56.208C46.6298 56.2117 46.646 56.2151 46.6622 56.2184C46.7688 56.2421 46.8753 56.2642 46.9819 56.285C47.0256 56.2937 47.0697 56.3021 47.1134 56.3104C47.1317 56.3137 47.1496 56.317 47.1675 56.3204C47.2108 56.3287 47.2541 56.3358 47.2973 56.3433C47.3377 56.3507 47.3772 56.3578 47.4176 56.3641C47.4663 56.3724 47.515 56.3803 47.5637 56.3882C47.6116 56.3961 47.6594 56.4032 47.7073 56.4107C47.741 56.4157 47.7747 56.4207 47.8084 56.4257C47.907 56.4398 48.0057 56.4535 48.1043 56.4669C48.1497 56.4727 48.195 56.4785 48.2396 56.4843C48.2766 56.4893 48.3132 56.4935 48.3499 56.4981C48.4023 56.5047 48.4543 56.5106 48.5064 56.5168C48.5109 56.5172 48.5159 56.5181 48.5205 56.5185C48.6204 56.5301 48.7203 56.5409 48.8197 56.5518C48.9026 56.5605 48.985 56.5688 49.0678 56.5772C49.2825 56.5988 49.4965 56.6188 49.7087 56.6379C49.8186 56.6479 49.9276 56.6575 50.0367 56.6671C50.3376 56.6941 50.6351 56.7203 50.9273 56.749C50.9814 56.7544 51.0355 56.7599 51.0896 56.7657C51.1462 56.7715 51.2032 56.7778 51.2598 56.7836C51.3148 56.7894 51.3697 56.7957 51.4242 56.8015C51.48 56.8081 51.5349 56.8144 51.5899 56.821C51.7422 56.8394 51.8928 56.8589 52.0414 56.8806L52.0477 56.8814C52.1446 56.896 52.2408 56.9105 52.3357 56.9263L52.3457 56.9276C52.3873 56.9347 52.4281 56.9417 52.4693 56.9488C52.617 56.9746 52.7627 57.0029 52.9063 57.0345C52.9404 57.0412 52.9741 57.0491 53.0078 57.0566C53.017 57.0587 53.0257 57.0608 53.0344 57.0624C53.0794 57.0732 53.1243 57.0837 53.1693 57.0949C53.2338 57.1111 53.2987 57.1278 53.3624 57.1452C53.409 57.1577 53.4552 57.171 53.501 57.1844C53.5314 57.1935 53.5613 57.2023 53.5909 57.2114C53.6263 57.2218 53.6604 57.2331 53.6949 57.2443C53.7207 57.2526 53.7465 57.2614 53.7723 57.2701C53.7906 57.2759 53.8077 57.2822 53.8252 57.288C53.8664 57.3021 53.9068 57.3167 53.9475 57.3317C53.9992 57.3508 54.0508 57.3708 54.1015 57.3916C54.1232 57.4 54.1444 57.4087 54.1656 57.4178C54.1756 57.4216 54.1856 57.4258 54.1952 57.4303C54.2135 57.4378 54.2318 57.4457 54.2497 57.4532C54.2851 57.469 54.3204 57.4849 54.3554 57.5015C54.37 57.5077 54.3841 57.5144 54.3979 57.5215C54.4095 57.5265 54.4208 57.5319 54.4316 57.5373C54.4515 57.5469 54.4711 57.5564 54.4902 57.566C54.5098 57.576 54.5294 57.5856 54.5481 57.5956C54.6884 57.6684 54.8249 57.747 54.956 57.8332C54.9739 57.8453 54.9922 57.8573 55.0096 57.869C55.0225 57.8777 55.0359 57.8869 55.0488 57.896C55.0658 57.9077 55.0829 57.9193 55.0996 57.9318C55.1158 57.9431 55.1316 57.9547 55.147 57.966C55.3393 58.1083 55.5207 58.2677 55.6897 58.4475C55.7788 58.542 55.8682 58.6481 55.9581 58.7642C55.976 58.7871 55.9939 58.8104 56.0114 58.8341C56.0493 58.8845 56.0872 58.9361 56.1246 58.9894C56.1417 59.0131 56.1583 59.0372 56.175 59.0618C56.1912 59.0851 56.2074 59.1088 56.2232 59.1329C56.2341 59.1488 56.2445 59.1642 56.2549 59.18C56.274 59.2087 56.2932 59.2378 56.3119 59.267C56.3236 59.2853 56.3352 59.3036 56.3473 59.3219C56.3623 59.3456 56.3777 59.3702 56.3926 59.3943C56.4109 59.4234 56.4293 59.453 56.4472 59.483C56.4655 59.5125 56.4838 59.5429 56.5017 59.5733C56.6478 59.8176 56.7938 60.0823 56.9387 60.3624C56.9707 60.4244 57.0032 60.4876 57.0352 60.5513C57.046 60.5729 57.0573 60.595 57.0681 60.6166C57.0814 60.6433 57.0947 60.6703 57.108 60.6974C57.1588 60.7998 57.2092 60.9038 57.2595 61.0091C57.2837 61.0603 57.3082 61.1119 57.3324 61.1639C57.3877 61.283 57.4435 61.4036 57.4984 61.5256C57.5446 61.6276 57.5904 61.7304 57.6362 61.8344C57.6603 61.8893 57.6845 61.9447 57.7082 62C57.7294 62.0483 57.7502 62.097 57.771 62.1461C57.8022 62.2185 57.833 62.2909 57.863 62.3638C57.8826 62.41 57.9021 62.4566 57.9213 62.5028C57.9438 62.5561 57.9654 62.6089 57.987 62.6618C58.0012 62.6955 58.0149 62.7292 58.0287 62.7633C58.1315 63.0151 58.2322 63.2682 58.3304 63.5212C58.3466 63.5624 58.3624 63.6032 58.3783 63.6444C58.3941 63.6852 58.4099 63.726 58.4253 63.7672C58.4598 63.8575 58.4944 63.9478 58.5281 64.0377C58.5497 64.0943 58.5709 64.1509 58.5917 64.2071C58.613 64.2641 58.6342 64.3211 58.6554 64.3777C58.6625 64.3973 58.67 64.4164 58.6771 64.436C58.6846 64.4568 58.6925 64.4776 58.7 64.4984C58.7054 64.5138 58.7112 64.5288 58.7166 64.5442Z" fill="#FFC9BB"/>
<path d="M40.1939 49.5067C39.0694 50.3915 37.2365 51.4403 34.992 51.2855C32.7147 51.1286 31.4732 50.0461 30.8439 49.2037C30.8689 47.5723 30.7998 45.9579 30.7998 45.9579L34.1759 44.614C35.2921 44.6956 36.447 44.7809 37.4579 44.8533L40.2322 45.9579C40.2322 45.9579 40.1544 47.7787 40.1939 49.5067Z" fill="#F79781"/>
<path d="M45.5979 35.3405C45.5979 42.8747 41.8697 48.9822 35.5145 48.9822C29.1598 48.9822 25.4316 42.8747 25.4316 35.3405C25.4316 27.8063 26.9565 21.1902 35.5145 21.1902C44.0725 21.1902 45.5979 27.8063 45.5979 35.3405Z" fill="#FFC9BB"/>
<path d="M25.6443 33.1374C25.6443 33.1374 24.6696 31.7818 23.0173 32.3749C21.3651 32.968 21.5345 36.3574 23.0173 37.6284C24.5002 38.8994 25.9831 37.7129 25.9831 37.7129L25.6443 33.1374Z" fill="#FFC9BB"/>
<path d="M24.9924 37.2803C24.766 37.2807 24.4714 37.2166 24.0993 37.0218C23.4975 36.7068 23.0609 36.0509 23.0372 35.4274C23.0181 34.928 23.2549 34.4985 23.7031 34.2184C24.0435 34.0057 24.3823 33.9433 24.7111 34.0336C25.3038 34.1959 25.6242 34.8044 25.6375 34.8306C25.6941 34.9405 25.6513 35.0757 25.5414 35.1323C25.4315 35.1889 25.2967 35.1465 25.2397 35.0366C25.2368 35.0316 24.9925 34.5742 24.5904 34.4652C24.3852 34.4098 24.173 34.4531 23.9408 34.5984C23.6299 34.7927 23.4721 35.0732 23.485 35.4104C23.5029 35.8736 23.8484 36.3846 24.307 36.6248C24.9987 36.9869 25.2621 36.7617 25.2642 36.7592C25.3466 36.6664 25.4881 36.6581 25.5805 36.7405C25.6733 36.8225 25.6817 36.9644 25.5992 37.0568C25.5697 37.0901 25.3832 37.2803 24.9924 37.2803Z" fill="#F79781"/>
<path d="M33.3975 40.7634C33.4399 40.7634 37.6342 40.7634 37.6342 40.7634C37.6342 40.7634 37.4224 42.6699 35.5158 42.6699C33.6093 42.6699 33.3975 40.7634 33.3975 40.7634Z" fill="white"/>
<path d="M32.1461 34.5782C32.1461 35.1629 31.8806 35.637 31.553 35.637C31.2255 35.637 30.96 35.1629 30.96 34.5782C30.96 33.993 31.2255 33.519 31.553 33.519C31.8806 33.519 32.1461 33.993 32.1461 34.5782Z" fill="#210B1F"/>
<path d="M40.0689 34.5782C40.0689 35.1629 39.8034 35.637 39.4759 35.637C39.1483 35.637 38.8828 35.1629 38.8828 34.5782C38.8828 33.993 39.1483 33.519 39.4759 33.519C39.8034 33.519 40.0689 33.993 40.0689 34.5782Z" fill="#210B1F"/>
<path d="M32.2957 32.5022C32.2183 32.5022 32.1442 32.4597 32.1068 32.3861C32.0951 32.364 31.845 31.9012 31.1828 31.8663C30.4986 31.8301 30.1802 32.2437 30.1773 32.2479C30.107 32.3416 29.9742 32.3603 29.8806 32.2899C29.787 32.22 29.7682 32.0873 29.8381 31.9936C29.8564 31.9691 30.298 31.3956 31.2053 31.443C32.1226 31.4913 32.4705 32.1668 32.4851 32.1955C32.5375 32.2999 32.4951 32.4273 32.3902 32.4797C32.3598 32.4947 32.3273 32.5022 32.2957 32.5022Z" fill="#210B1F"/>
<path d="M38.7341 32.501C38.7017 32.501 38.6692 32.4939 38.6384 32.4781C38.5348 32.4252 38.4928 32.2995 38.5448 32.1955C38.5593 32.1668 38.9073 31.4913 39.825 31.443C40.7327 31.3956 41.1734 31.9691 41.1917 31.9936C41.2616 32.0873 41.2429 32.2201 41.1493 32.29C41.0556 32.3603 40.9229 32.3416 40.8525 32.2479C40.8405 32.2321 40.5212 31.8305 39.847 31.8663C39.1832 31.9013 38.9335 32.3665 38.9231 32.3865C38.8852 32.4589 38.8111 32.501 38.7341 32.501Z" fill="#210B1F"/>
<path d="M35.6845 38.8269C35.6799 38.8269 35.6754 38.8265 35.6712 38.8265C35.6358 38.8244 34.8039 38.7678 34.5429 38.0898C34.5005 37.9796 34.3877 37.6857 34.7706 35.7055C34.9545 34.7533 35.1676 33.8568 35.1697 33.8481C35.1984 33.7278 35.3191 33.6533 35.4394 33.682C35.5601 33.7107 35.6342 33.8314 35.6059 33.9521C35.1972 35.6681 34.8442 37.625 34.9612 37.9292C35.1177 38.3358 35.6924 38.3787 35.6983 38.3791C35.8215 38.387 35.9151 38.4935 35.9076 38.6167C35.9001 38.7353 35.8019 38.8269 35.6845 38.8269Z" fill="#F79781"/>
<path d="M30.7487 38.4333C30.7487 39.4629 29.9142 40.2974 28.8846 40.2974C27.855 40.2974 27.0205 39.4629 27.0205 38.4333C27.0205 37.4036 27.855 36.5692 28.8846 36.5692C29.9142 36.5692 30.7487 37.4036 30.7487 38.4333Z" fill="#FFAFA9"/>
<path d="M44.0094 38.4333C44.0094 39.4629 43.175 40.2974 42.1453 40.2974C41.1161 40.2974 40.2812 39.4629 40.2812 38.4333C40.2812 37.4036 41.1161 36.5692 42.1453 36.5692C43.175 36.5692 44.0094 37.4036 44.0094 38.4333Z" fill="#FFAFA9"/>
<path d="M43.5034 55.1272L43.0015 56.9326L42.9091 57.2655L41.2706 63.1595L41.1778 63.4925L39.5397 69.3865L39.4468 69.7194L38.1538 74.3715C38.0489 74.3786 37.9444 74.3857 37.8391 74.3923C37.2078 74.4306 36.571 74.4502 35.9301 74.4502C34.8917 74.4502 33.8654 74.399 32.8537 74.2987L31.5781 69.7094L31.4852 69.3765L29.8459 63.4779L29.7531 63.145L28.1137 57.2468L28.0209 56.9134L27.5244 55.1272C27.5286 55.1251 27.5323 55.1234 27.5361 55.1213C27.6197 55.0797 27.7013 55.0377 27.7804 54.9952C27.8099 54.9798 27.839 54.964 27.8682 54.9482C27.9435 54.907 28.0163 54.8658 28.0883 54.8238C28.1624 54.7805 28.2348 54.7372 28.3056 54.6931C28.3289 54.6793 28.3514 54.6648 28.3743 54.6502C28.6098 54.5008 28.8242 54.3485 29.0185 54.1949C29.2582 55.0302 29.6266 56.0141 30.23 56.9163C30.3053 57.0291 30.3844 57.1402 30.4672 57.2497C31.4852 58.5969 33.0871 59.6856 35.6571 59.6856C38.0743 59.6856 39.6445 58.5257 40.6321 57.2626C40.7183 57.1523 40.7999 57.0412 40.8777 56.9301C41.6572 55.8122 42.0055 54.686 42.1017 54.2661C42.2711 54.3955 42.455 54.5241 42.654 54.6502C42.6764 54.6648 42.6993 54.6793 42.7222 54.6931C42.793 54.7372 42.8654 54.7805 42.9399 54.8238C43.0115 54.8658 43.0843 54.907 43.1596 54.9482C43.1888 54.964 43.2179 54.9798 43.2474 54.9952C43.3265 55.0377 43.4081 55.0797 43.4917 55.1213C43.4955 55.1234 43.4992 55.1251 43.5034 55.1272Z" fill="white"/>
<path d="M41.2714 63.1597L41.1786 63.4927L29.8467 63.4781L29.7539 63.1452L41.2714 63.1597Z" fill="#816AD6"/>
<path d="M30.2316 56.9164C30.3069 57.0292 30.386 57.1403 30.4688 57.2498L28.1153 57.2468L28.0225 56.9135L30.2316 56.9164Z" fill="#816AD6"/>
<path d="M43.0022 56.9327L42.9097 57.2656L40.6328 57.2627C40.719 57.1524 40.8005 57.0413 40.8784 56.9302L43.0022 56.9327Z" fill="#816AD6"/>
<path d="M35.1694 22.9293C35.1694 22.9293 34.5988 26.6778 28.9387 26.5642C28.9387 26.5642 28.9278 30.6715 25.9517 31.325C25.9517 31.325 25.5026 30.3881 25.8955 27.7949C26.288 25.2012 27.405 21.6041 29.7906 20.4492C32.1757 19.2947 34.1435 19.0488 35.2609 19.1054C36.3784 19.162 40.6759 19.6734 42.6636 21.1688C44.6513 22.6646 45.2002 25.3527 45.2573 26.5072C45.3139 27.6621 44.983 31.3241 44.983 31.3241C44.983 31.3241 41.2881 29.2336 40.8969 25.9395C40.8969 25.9395 36.6868 27.5485 35.1694 22.9293Z" fill="#3F153B"/>
<path d="M52.038 70.0283C51.7297 70.2218 51.4177 70.4097 51.1027 70.5919C51.0144 70.6432 50.9261 70.6936 50.8374 70.7436C50.8273 70.7492 50.8176 70.7548 50.8075 70.7604C49.2717 71.627 47.6573 72.3643 45.9777 72.9586C45.8549 73.0021 45.7317 73.0448 45.6084 73.0866C45.034 73.2818 44.4524 73.4597 43.8637 73.6209C43.743 73.6541 43.6218 73.6864 43.5007 73.7179C41.6083 74.2109 39.6465 74.5263 37.6339 74.6457C37.5149 74.6525 37.3963 74.659 37.2768 74.6646C36.7882 74.6883 36.2966 74.7 35.802 74.7C35.7192 74.7 35.6363 74.6995 35.5535 74.6991C35.5283 74.6987 35.503 74.6987 35.4778 74.6982C35.3807 74.6969 35.2835 74.6956 35.1868 74.6939C32.341 74.6375 29.5882 74.1897 26.9784 73.4016C26.814 73.352 26.65 73.3012 26.4868 73.2486C25.6567 72.9827 24.8417 72.6819 24.0431 72.348C23.8358 72.2618 23.6293 72.1726 23.4241 72.0817C22.7373 71.7766 22.0641 71.4473 21.4038 71.0944C20.6073 70.6682 19.8306 70.208 19.0762 69.715C19.7427 68.396 20.5775 66.6964 21.4619 64.7792C21.5148 64.665 21.5678 64.5499 21.6208 64.4345C22.0313 63.5381 22.451 62.5979 22.8677 61.6296C22.9173 61.5154 22.9665 61.4003 23.0157 61.2848C23.7117 59.6555 24.3963 57.9525 25.0154 56.2516C25.0835 56.2305 25.1512 56.2094 25.2181 56.1878C25.8346 55.9901 26.3863 55.7737 26.8796 55.544C27.1298 55.4277 27.3649 55.3075 27.5857 55.1851C27.8001 55.0662 28.0012 54.9446 28.1896 54.8214C28.2434 54.786 28.2964 54.7503 28.3481 54.7149C28.3531 54.7115 28.3586 54.7076 28.3636 54.7042C28.4663 54.6335 28.5647 54.5624 28.6593 54.4904C28.666 54.4857 28.6727 54.4805 28.6795 54.4754C28.7707 54.4055 28.8582 54.3357 28.9419 54.2659C28.9511 54.2577 28.9604 54.25 28.9696 54.2422C29.0104 54.2082 29.0504 54.1741 29.0891 54.1397L29.0941 54.1354C29.1139 54.1177 29.1332 54.1 29.1526 54.0823C30.206 55.3583 32.373 57.3944 35.4778 57.3944C38.8938 57.3944 41.1743 54.93 42.0856 53.7243C42.3089 53.9621 42.5705 54.2013 42.8741 54.437C42.9099 54.465 42.9469 54.4926 42.9839 54.5206L42.9919 54.5266C43.0285 54.5533 43.0655 54.5805 43.1029 54.6076C43.5525 54.9313 44.0853 55.2458 44.7131 55.5384C45.0622 55.7018 45.4407 55.8582 45.8511 56.0064C46.4932 57.7887 47.2103 59.5771 47.9399 61.2848C47.9891 61.3999 48.0383 61.5149 48.0879 61.6296C48.5047 62.5983 48.9244 63.5386 49.3352 64.4345C49.3882 64.5504 49.4408 64.665 49.4933 64.7792C50.4496 66.8515 51.3475 68.67 52.038 70.0283Z" fill="white"/>
<path d="M52.038 70.0285C51.7297 70.222 51.4177 70.4099 51.1027 70.5922C51.0144 70.6435 50.9261 70.6939 50.8374 70.7439C50.8273 70.7495 50.8176 70.7551 50.8075 70.7607C49.2717 71.6273 47.6573 72.3646 45.9777 72.9588C45.8549 73.0024 45.7317 73.045 45.6084 73.0868C45.034 73.282 44.4524 73.46 43.8637 73.6212C43.743 73.6543 43.6218 73.6867 43.5007 73.7181C41.6083 74.2111 39.6465 74.5265 37.6339 74.6459C37.5149 74.6528 37.3963 74.6593 37.2768 74.6649C36.7882 74.6886 36.2966 74.7002 35.802 74.7002C35.7192 74.7002 35.6363 74.6998 35.5535 74.6993C35.5283 74.6989 35.503 74.6989 35.4778 74.6985C35.3807 74.6972 35.2835 74.6959 35.1868 74.6942C32.341 74.6377 29.5882 74.19 26.9784 73.4018C26.814 73.3523 26.65 73.3014 26.4868 73.2488C25.6567 72.983 24.8417 72.6822 24.0431 72.3482C23.8358 72.262 23.6293 72.1728 23.4241 72.0819C22.7373 71.7768 22.0641 71.4476 21.4038 71.0946C20.6073 70.6685 19.8306 70.2082 19.0762 69.7153C19.7427 68.3962 20.5775 66.6966 21.4619 64.7794C21.5148 64.6652 21.5678 64.5502 21.6208 64.4347C22.0313 63.5384 22.451 62.5981 22.8677 61.6298C22.9173 61.5156 22.9665 61.4006 23.0157 61.2851C23.7117 59.6557 24.3963 57.9527 25.0154 56.2519C25.0835 56.2308 25.1512 56.2096 25.2181 56.1881C25.8346 55.9903 26.3863 55.774 26.8796 55.5443C27.1298 55.4279 27.3649 55.3077 27.5857 55.1853C27.8001 55.0664 28.0012 54.9449 28.1896 54.8216C28.2434 54.7863 28.2964 54.7505 28.3481 54.7152C28.3531 54.7117 28.3586 54.7079 28.3636 54.7044C28.4663 54.6337 28.5647 54.5626 28.6593 54.4907C28.666 54.4859 28.6727 54.4808 28.6795 54.4756C28.7707 54.4058 28.8582 54.336 28.9419 54.2662C28.9511 54.258 28.9604 54.2502 28.9696 54.2425C29.0104 54.2084 29.0504 54.1744 29.0891 54.1399L29.0941 54.1356C29.1139 54.1179 29.1332 54.1003 29.1526 54.0826C30.206 55.3586 32.373 57.3947 35.4778 57.3947C38.8938 57.3947 41.1743 54.9302 42.0856 53.7245C42.3089 53.9624 42.5705 54.2015 42.8741 54.4372C42.9099 54.4653 42.9469 54.4928 42.9839 54.5208L42.9919 54.5269C43.0285 54.5536 43.0655 54.5807 43.1029 54.6079C43.5525 54.9315 44.0853 55.2461 44.7131 55.5387C45.0622 55.702 45.4407 55.8584 45.8511 56.0067C46.4932 57.789 47.2103 59.5773 47.9399 61.2851C47.9891 61.4001 48.0383 61.5152 48.0879 61.6298C48.5047 62.5985 48.9244 63.5388 49.3352 64.4347C49.3882 64.5506 49.4408 64.6652 49.4933 64.7794C50.4496 66.8518 51.3475 68.6703 52.038 70.0285Z" fill="#ED1E31"/>
<path d="M52.038 70.4735C51.7297 70.6485 51.4177 70.8185 51.1027 70.9834C51.0144 71.0298 50.9261 71.0754 50.8374 71.1207C50.8273 71.1257 50.8176 71.1308 50.8075 71.1359C49.2717 71.9199 47.6573 72.587 45.9777 73.1247C45.8549 73.1641 45.7317 73.2026 45.6084 73.2405C45.034 73.4171 44.4524 73.5781 43.8637 73.7239C43.743 73.7539 43.6218 73.7832 43.5007 73.8116C41.6083 74.2577 39.6465 74.5431 37.6339 74.6511C37.5149 74.6573 37.3963 74.6632 37.2768 74.6682C36.7882 74.6897 36.2966 74.7002 35.802 74.7002C35.7192 74.7002 35.6363 74.6998 35.5535 74.6994C35.5283 74.699 35.503 74.699 35.4778 74.6986C35.3807 74.6975 35.2835 74.6963 35.1868 74.6947C32.341 74.6437 29.5882 74.2386 26.9784 73.5255C26.814 73.4806 26.65 73.4346 26.4868 73.3871C25.6567 73.1465 24.8417 72.8744 24.0431 72.5722C23.8358 72.4942 23.6293 72.4135 23.4241 72.3313C22.7373 72.0552 22.0641 71.7573 21.4038 71.438C20.6073 71.0524 19.8306 70.636 19.0762 70.19C19.7427 68.9966 20.5775 67.4589 21.4619 65.7243C21.5148 65.621 21.5678 65.5169 21.6208 65.4124C22.0313 64.6014 22.451 63.7507 22.8677 62.8746C22.9173 62.7713 22.9665 62.6672 23.0157 62.5627C23.7117 61.0885 24.3963 59.5477 25.0154 58.0089C25.0835 57.9897 25.1512 57.9706 25.2181 57.9511C25.8346 57.7722 26.3863 57.5765 26.8796 57.3687C27.1298 57.2634 27.3649 57.1546 27.5857 57.0439C27.8001 56.9363 28.0012 56.8263 28.1896 56.7148C28.2434 56.6829 28.2964 56.6505 28.3481 56.6185C28.3531 56.6154 28.3586 56.6119 28.3636 56.6088C28.4663 56.5448 28.5647 56.4805 28.6593 56.4154C28.666 56.4111 28.6727 56.4064 28.6795 56.4017C28.7707 56.3386 28.8582 56.2754 28.9419 56.2123C28.9511 56.2049 28.9604 56.1978 28.9696 56.1908C29.0104 56.16 29.0504 56.1292 29.0891 56.098L29.0941 56.0941C29.1139 56.0781 29.1332 56.0622 29.1526 56.0462C30.206 57.2006 32.373 59.0428 35.4778 59.0428C38.8938 59.0428 41.1743 56.8131 42.0856 55.7222C42.3089 55.9374 42.5705 56.1538 42.8741 56.367C42.9099 56.3924 42.9469 56.4173 42.9839 56.4427L42.9919 56.4481C43.0285 56.4723 43.0655 56.4969 43.1029 56.5214C43.5525 56.8142 44.0853 57.0989 44.7131 57.3636C45.0622 57.5114 45.4407 57.6529 45.8511 57.787C46.4932 59.3996 47.2103 61.0176 47.9399 62.5627C47.9891 62.6668 48.0383 62.7709 48.0879 62.8746C48.5047 63.7511 48.9244 64.6018 49.3352 65.4124C49.3882 65.5172 49.4408 65.621 49.4933 65.7243C50.4496 67.5992 51.3475 69.2445 52.038 70.4735Z" fill="#F2EF1A"/>
<path d="M52.038 70.9925C51.7297 71.1461 51.4177 71.2952 51.1027 71.4399C51.0144 71.4806 50.9261 71.5206 50.8374 71.5603C50.8273 71.5647 50.8176 71.5691 50.8075 71.5736C49.2717 72.2614 47.6573 72.8465 45.9777 73.3182C45.8549 73.3527 45.7317 73.3866 45.6084 73.4197C45.034 73.5747 44.4524 73.7159 43.8637 73.8438C43.743 73.8702 43.6218 73.8958 43.5007 73.9208C41.6083 74.312 39.6465 74.5624 37.6339 74.6571C37.5149 74.6626 37.3963 74.6677 37.2768 74.6722C36.7882 74.691 36.2966 74.7002 35.802 74.7002C35.7192 74.7002 35.6363 74.6999 35.5535 74.6995C35.5283 74.6992 35.503 74.6992 35.4778 74.6988C35.3807 74.6978 35.2835 74.6968 35.1868 74.6954C32.341 74.6506 29.5882 74.2953 26.9784 73.6697C26.814 73.6304 26.65 73.5901 26.4868 73.5483C25.6567 73.3373 24.8417 73.0986 24.0431 72.8335C23.8358 72.7651 23.6293 72.6943 23.4241 72.6222C22.7373 72.38 22.0641 72.1187 21.4038 71.8386C20.6073 71.5004 19.8306 71.1351 19.0762 70.7439C19.7427 69.697 20.5775 68.3482 21.4619 66.8266C21.5148 66.7359 21.5678 66.6446 21.6208 66.553C22.0313 65.8416 22.451 65.0954 22.8677 64.3269C22.9173 64.2362 22.9665 64.1449 23.0157 64.0533C23.7117 62.7602 24.3963 61.4086 25.0154 60.0587C25.0835 60.0419 25.1512 60.0252 25.2181 60.008C25.8346 59.8511 26.3863 59.6794 26.8796 59.4971C27.1298 59.4048 27.3649 59.3093 27.5857 59.2122C27.8001 59.1178 28.0012 59.0214 28.1896 58.9236C28.2434 58.8955 28.2964 58.8671 28.3481 58.8391C28.3531 58.8363 28.3586 58.8333 28.3636 58.8305C28.4663 58.7744 28.5647 58.718 28.6593 58.6609C28.666 58.6571 28.6727 58.653 28.6795 58.6489C28.7707 58.5935 28.8582 58.5381 28.9419 58.4827C28.9511 58.4762 28.9604 58.4701 28.9696 58.4639C29.0104 58.4369 29.0504 58.4099 29.0891 58.3825L29.0941 58.3791C29.1139 58.3651 29.1332 58.351 29.1526 58.337C30.206 59.3497 32.373 60.9657 35.4778 60.9657C38.8938 60.9657 41.1743 59.0097 42.0856 58.0528C42.3089 58.2416 42.5705 58.4314 42.8741 58.6185C42.9099 58.6407 42.9469 58.6626 42.9839 58.6848L42.9919 58.6896C43.0285 58.7108 43.0655 58.7324 43.1029 58.7539C43.5525 59.0108 44.0853 59.2604 44.7131 59.4927C45.0622 59.6223 45.4407 59.7464 45.8511 59.8641C46.4932 61.2786 47.2103 62.6979 47.9399 64.0533C47.9891 64.1446 48.0383 64.2359 48.0879 64.3269C48.5047 65.0957 48.9244 65.842 49.3352 66.553C49.3882 66.645 49.4408 66.7359 49.4933 66.8266C50.4496 68.4713 51.3475 69.9145 52.038 70.9925Z" fill="#34B640"/>
<path d="M52.038 71.7341C51.7297 71.8569 51.4177 71.9762 51.1027 72.0919C51.0144 72.1245 50.9261 72.1565 50.8374 72.1882C50.8273 72.1918 50.8176 72.1954 50.8075 72.1989C49.2717 72.7491 47.6573 73.2173 45.9777 73.5946C45.8549 73.6222 45.7317 73.6493 45.6084 73.6758C45.034 73.7998 44.4524 73.9128 43.8637 74.0151C43.743 74.0362 43.6218 74.0567 43.5007 74.0767C41.6083 74.3897 39.6465 74.5899 37.6339 74.6657C37.5149 74.6701 37.3963 74.6742 37.2768 74.6778C36.7882 74.6928 36.2966 74.7002 35.802 74.7002C35.7192 74.7002 35.6363 74.6999 35.5535 74.6996C35.5283 74.6994 35.503 74.6994 35.4778 74.6991C35.3807 74.6983 35.2835 74.6975 35.1868 74.6964C32.341 74.6605 29.5882 74.3762 26.9784 73.8758C26.814 73.8444 26.65 73.8121 26.4868 73.7787C25.6567 73.6099 24.8417 73.4189 24.0431 73.2069C23.8358 73.1521 23.6293 73.0955 23.4241 73.0378C22.7373 72.8441 22.0641 72.635 21.4038 72.411C20.6073 72.1404 19.8306 71.8482 19.0762 71.5352C19.7427 70.6977 20.5775 69.6186 21.4619 68.4013C21.5148 68.3288 21.5678 68.2557 21.6208 68.1824C22.0313 67.6133 22.451 67.0163 22.8677 66.4015C22.9173 66.329 22.9665 66.256 23.0157 66.1827C23.7117 65.1482 24.3963 64.0669 25.0154 62.987C25.0835 62.9736 25.1512 62.9602 25.2181 62.9465C25.8346 62.8209 26.3863 62.6835 26.8796 62.5377C27.1298 62.4638 27.3649 62.3875 27.5857 62.3098C27.8001 62.2343 28.0012 62.1571 28.1896 62.0789C28.2434 62.0564 28.2964 62.0337 28.3481 62.0113C28.3531 62.0091 28.3586 62.0067 28.3636 62.0045C28.4663 61.9596 28.5647 61.9144 28.6593 61.8688C28.666 61.8657 28.6727 61.8625 28.6795 61.8592C28.7707 61.8149 28.8582 61.7705 28.9419 61.7262C28.9511 61.721 28.9604 61.7161 28.9696 61.7112C29.0104 61.6895 29.0504 61.6679 29.0891 61.646L29.0941 61.6433C29.1139 61.6321 29.1332 61.6209 29.1526 61.6097C30.206 62.4198 32.373 63.7126 35.4778 63.7126C38.8938 63.7126 41.1743 62.1478 42.0856 61.3823C42.3089 61.5333 42.5705 61.6852 42.8741 61.8348C42.9099 61.8526 42.9469 61.8701 42.9839 61.8879L42.9919 61.8917C43.0285 61.9087 43.0655 61.9259 43.1029 61.9432C43.5525 62.1487 44.0853 62.3484 44.7131 62.5342C45.0622 62.6379 45.4407 62.7372 45.8511 62.8313C46.4932 63.9629 47.2103 65.0984 47.9399 66.1827C47.9891 66.2557 48.0383 66.3288 48.0879 66.4015C48.5047 67.0166 48.9244 67.6136 49.3352 68.1824C49.3882 68.256 49.4408 68.3288 49.4933 68.4013C50.4496 69.7171 51.3475 70.8717 52.038 71.7341Z" fill="#3B4EA9"/>
<path d="M52.038 72.4014C51.7297 72.4967 51.4177 72.5891 51.1027 72.6788C51.0144 72.704 50.9261 72.7288 50.8374 72.7534C50.8273 72.7562 50.8176 72.7589 50.8075 72.7617C49.2717 73.1881 47.6573 73.5509 45.9777 73.8433C45.8549 73.8647 45.7317 73.8857 45.6084 73.9063C45.034 74.0024 44.4524 74.0899 43.8637 74.1692C43.743 74.1856 43.6218 74.2015 43.5007 74.217C41.6083 74.4595 39.6465 74.6147 37.6339 74.6735C37.5149 74.6769 37.3963 74.6801 37.2768 74.6828C36.7882 74.6945 36.2966 74.7002 35.802 74.7002C35.7192 74.7002 35.6363 74.7 35.5535 74.6998C35.5283 74.6996 35.503 74.6996 35.4778 74.6993C35.3807 74.6987 35.2835 74.6981 35.1868 74.6972C32.341 74.6694 29.5882 74.4491 26.9784 74.0613C26.814 74.0369 26.65 74.0119 26.4868 73.986C25.6567 73.8552 24.8417 73.7072 24.0431 73.5429C23.8358 73.5005 23.6293 73.4566 23.4241 73.4118C22.7373 73.2617 22.0641 73.0997 21.4038 72.926C20.6073 72.7163 19.8306 72.4899 19.0762 72.2473C19.7427 71.5982 20.5775 70.7619 21.4619 69.8186C21.5148 69.7624 21.5678 69.7057 21.6208 69.6489C22.0313 69.2079 22.451 68.7452 22.8677 68.2687C22.9173 68.2125 22.9665 68.1559 23.0157 68.0991C23.7117 67.2974 24.3963 66.4594 25.0154 65.6224C25.0835 65.6121 25.1512 65.6017 25.2181 65.5911C25.8346 65.4937 26.3863 65.3873 26.8796 65.2743C27.1298 65.217 27.3649 65.1579 27.5857 65.0976C27.8001 65.0391 28.0012 64.9793 28.1896 64.9187C28.2434 64.9013 28.2964 64.8837 28.3481 64.8663C28.3531 64.8646 28.3586 64.8627 28.3636 64.861C28.4663 64.8262 28.5647 64.7912 28.6593 64.7558C28.666 64.7535 28.6727 64.751 28.6795 64.7484C28.7707 64.7141 28.8582 64.6797 28.9419 64.6454C28.9511 64.6413 28.9604 64.6375 28.9696 64.6337C29.0104 64.6169 29.0504 64.6002 29.0891 64.5832L29.0941 64.5811C29.1139 64.5724 29.1332 64.5637 29.1526 64.555C30.206 65.1829 32.373 66.1848 35.4778 66.1848C38.8938 66.1848 41.1743 64.9721 42.0856 64.3788C42.3089 64.4959 42.5705 64.6135 42.8741 64.7295C42.9099 64.7433 42.9469 64.7569 42.9839 64.7707L42.9919 64.7736C43.0285 64.7868 43.0655 64.8001 43.1029 64.8135C43.5525 64.9728 44.0853 65.1275 44.7131 65.2715C45.0622 65.3519 45.4407 65.4289 45.8511 65.5018C46.4932 66.3788 47.2103 67.2588 47.9399 68.0991C47.9891 68.1557 48.0383 68.2123 48.0879 68.2687C48.5047 68.7454 48.9244 69.2081 49.3352 69.6489C49.3882 69.706 49.4408 69.7624 49.4933 69.8186C50.4496 70.8383 51.3475 71.7331 52.038 72.4014Z" fill="#6A2290"/>
</g>
</svg>
