<svg width="524" height="354" viewBox="0 0 524 354" fill="none" xmlns="http://www.w3.org/2000/svg">
<path d="M0.0429688 134.525C0.0429688 135.794 1.18543 136.936 2.45483 136.936H17.5607C18.957 136.936 19.9726 135.794 19.9726 134.525V101.139H56.2774V134.525C56.2774 135.794 57.2929 136.936 58.6893 136.936H73.7952C75.0646 136.936 76.207 135.794 76.207 134.525V50.4902C76.207 49.2208 75.0646 48.0784 73.7952 48.0784H58.6893C57.2929 48.0784 56.2774 49.2208 56.2774 50.4902V82.4791H19.9726V50.4902C19.9726 49.2208 18.957 48.0784 17.5607 48.0784H2.45483C1.18543 48.0784 0.0429688 49.2208 0.0429688 50.4902V134.525Z" fill="#27AE60"/>
<path d="M87.6346 121.45C87.6346 131.478 95.1241 138.206 105.152 138.206C113.15 138.206 117.592 134.525 120.512 131.859L122.289 135.286C122.924 136.683 123.813 136.936 124.574 136.936H130.16C131.429 136.936 132.571 135.794 132.571 134.525V106.471C132.571 91.4919 126.859 84.891 111.119 84.891C104.264 84.891 95.378 86.4143 94.2355 86.7951C93.093 87.1759 91.9506 88.0645 92.3314 90.2225L93.4738 98.2197C93.7277 100.124 94.6163 101.52 96.5204 100.885C99.8209 99.8699 105.787 98.9813 109.214 98.9813C115.308 98.9813 116.069 101.52 116.069 106.471C116.069 106.471 112.007 104.44 106.295 104.44C94.7432 104.44 87.6346 111.675 87.6346 121.45ZM104.137 120.18C104.137 117.261 106.549 114.849 109.595 114.849C112.642 114.849 115.054 117.261 115.181 120.18C115.181 123.227 112.642 125.766 109.595 125.766C106.549 125.766 104.137 123.227 104.137 120.18Z" fill="#27AE60"/>
<path d="M164.397 135.794C165.92 136.683 170.617 138.206 174.933 138.206C188.515 138.206 200.194 129.447 200.194 111.548C200.194 96.9503 189.404 84.891 175.06 84.891C163.889 84.891 158.05 92.8882 158.05 92.8882L156.526 88.6992C156.019 87.3029 155.13 86.1604 153.861 86.1604H147.894C146.625 86.1604 145.483 87.3029 145.483 88.5723V172.607C145.483 173.876 146.625 175.018 147.894 175.018H161.985C163.254 175.018 164.397 173.876 164.397 172.607V135.794ZM162.366 111.675C162.366 105.836 166.682 101.266 172.521 101.266C178.36 101.266 182.803 105.836 182.803 111.675C182.803 117.388 178.36 121.831 172.521 121.831C166.682 121.831 162.366 117.388 162.366 111.675Z" fill="#27AE60"/>
<path d="M229.106 135.794C230.63 136.683 235.326 138.206 239.642 138.206C253.225 138.206 264.903 129.447 264.903 111.548C264.903 96.9503 254.114 84.891 239.769 84.891C228.599 84.891 222.759 92.8882 222.759 92.8882L221.236 88.6992C220.728 87.3029 219.84 86.1604 218.57 86.1604H212.604C211.335 86.1604 210.192 87.3029 210.192 88.5723V172.607C210.192 173.876 211.335 175.018 212.604 175.018H226.695C227.964 175.018 229.106 173.876 229.106 172.607V135.794ZM227.075 111.675C227.075 105.836 231.391 101.266 237.231 101.266C243.07 101.266 247.513 105.836 247.513 111.675C247.513 117.388 243.07 121.831 237.231 121.831C231.391 121.831 227.075 117.388 227.075 111.675Z" fill="#27AE60"/>
<path d="M287.85 131.732L268.936 171.591C268.047 173.368 269.19 175.018 271.094 175.018H285.311C286.327 175.018 287.088 174.257 287.469 173.495L326.313 89.4608C327.201 87.8106 326.059 86.1604 324.155 86.1604H309.811C308.795 86.1604 307.906 86.7951 307.653 87.5567L297.624 111.168H297.37L287.596 87.5567C287.215 86.7951 286.454 86.1604 285.438 86.1604H270.967C269.063 86.1604 268.047 87.8106 268.809 89.4608L287.85 131.732Z" fill="#27AE60"/>
<path d="M319.54 301.938C319.54 302.784 320.217 303.546 321.148 303.546H331.134C331.98 303.546 332.742 302.784 332.742 301.938V281.374H352.037C352.883 281.374 353.645 280.612 353.645 279.766V270.541C353.645 269.695 352.883 268.934 352.037 268.934H332.742V256.747H356.183C357.114 256.747 357.791 255.986 357.791 255.139V245.915C357.791 245.069 357.114 244.307 356.183 244.307H321.148C320.217 244.307 319.54 245.069 319.54 245.915V301.938Z" fill="#27AE60"/>
<path d="M361.524 286.62C361.524 296.268 366.348 304.392 376.418 304.392C382.935 304.392 385.643 301.346 387.843 299.23L389.112 302.361C389.366 302.953 389.959 303.546 390.72 303.546H394.698C395.544 303.546 396.306 302.784 396.306 301.938V271.303C396.306 270.372 395.544 269.695 394.698 269.695H386.066C385.22 269.695 384.289 269.949 384.289 271.303V287.467C384.289 290.344 382.512 293.475 379.211 293.475C375.741 293.475 373.795 290.429 373.795 286.959V271.303C373.795 270.372 373.033 269.695 372.187 269.695H363.132C362.286 269.695 361.524 270.372 361.524 271.303V286.62Z" fill="#27AE60"/>
<path d="M405.426 301.938C405.426 302.784 406.187 303.546 407.033 303.546H415.919C417.104 303.546 417.443 302.7 417.443 301.938V285.69C417.443 282.22 420.489 279.766 423.874 279.766C427.682 279.766 429.629 282.728 429.629 286.113V301.938C429.629 302.784 430.306 303.546 431.237 303.546H440.292C441.138 303.546 441.9 302.784 441.9 301.938V286.536C441.9 276.888 436.314 268.849 425.821 268.849C419.643 268.849 415.75 272.065 413.888 274.096L412.534 270.711C412.28 270.118 411.519 269.695 411.011 269.695H407.033C406.187 269.695 405.426 270.372 405.426 271.303V301.938Z" fill="#27AE60"/>
<path d="M354.425 87.8325C355.885 89.2923 360.454 92.7197 368.705 92.7197C378.036 92.7197 383.684 86.1188 383.684 79.5814C383.684 70.9494 375.814 67.0778 370.863 65.1102C365.849 63.0792 363.945 61.302 363.945 58.9536C363.945 57.2399 365.659 55.7166 367.944 55.7166C371.816 55.7166 376.449 59.2075 377.02 59.5248C377.591 59.9691 378.734 59.3979 379.178 58.6997L382.415 53.8125C382.669 53.3682 382.796 52.2258 382.034 51.7815C380.13 50.3852 375.053 47.0212 368.452 47.0212C358.677 47.0212 353.79 53.3682 353.79 59.6518C353.79 67.2682 360.645 71.5207 366.103 73.6787C370.419 75.3923 372.641 77.4234 372.641 80.0891C372.641 82.3106 370.8 83.8973 368.261 83.8973C364.072 83.8973 359.502 80.5334 359.248 80.4065C358.804 80.0891 357.598 79.9622 357.09 80.7873L354.107 86.0553C353.6 86.9439 353.79 87.1978 354.425 87.8325Z" fill="#EB5757"/>
<path d="M386.93 84.3416C386.93 89.3558 390.675 92.7197 395.689 92.7197C399.687 92.7197 401.909 90.879 403.369 89.5462L404.257 91.2599C404.574 91.958 405.019 92.085 405.4 92.085H408.192C408.827 92.085 409.398 91.5137 409.398 90.879V76.8522C409.398 69.3627 406.542 66.0623 398.672 66.0623C395.244 66.0623 390.801 66.8239 390.23 67.0143C389.659 67.2047 389.088 67.649 389.278 68.728L389.849 72.7266C389.976 73.6787 390.421 74.3768 391.373 74.0595C393.023 73.5517 396.006 73.1074 397.72 73.1074C400.766 73.1074 401.147 74.3768 401.147 76.8522C401.147 76.8522 399.116 75.8366 396.26 75.8366C390.484 75.8366 386.93 79.4544 386.93 84.3416ZM395.181 83.7069C395.181 82.2471 396.387 81.0412 397.91 81.0412C399.433 81.0412 400.639 82.2471 400.703 83.7069C400.703 85.2302 399.433 86.4996 397.91 86.4996C396.387 86.4996 395.181 85.2302 395.181 83.7069Z" fill="#EB5757"/>
<path d="M414.013 79.391C414.013 86.69 419.408 92.7197 426.58 92.7197C432.166 92.7197 435.085 88.7211 435.085 88.7211L435.847 90.8156C436.101 91.5137 436.545 92.085 437.18 92.085H440.163C440.798 92.085 441.369 91.5137 441.369 90.879V48.8619C441.369 48.2272 440.798 47.6559 440.163 47.6559H433.118C432.483 47.6559 431.912 48.2272 431.912 48.8619V67.2682C431.15 66.8239 428.802 66.0623 426.644 66.0623C419.852 66.0623 414.013 70.4417 414.013 79.391ZM422.709 79.3275C422.709 76.4713 424.93 74.2499 427.85 74.2499C430.769 74.2499 432.927 76.4713 432.927 79.3275C432.927 82.2471 430.769 84.532 427.85 84.532C424.93 84.532 422.709 82.2471 422.709 79.3275Z" fill="#EB5757"/>
<path d="M195.59 236.304C196.685 237.399 200.113 239.97 206.301 239.97C213.298 239.97 217.535 235.019 217.535 230.116C217.535 223.642 211.632 220.738 207.919 219.263C204.159 217.739 202.731 216.406 202.731 214.645C202.731 213.36 204.016 212.217 205.73 212.217C208.633 212.217 212.108 214.835 212.537 215.074C212.965 215.407 213.822 214.978 214.155 214.455L216.583 210.789C216.773 210.456 216.869 209.599 216.297 209.266C214.869 208.219 211.061 205.696 206.11 205.696C198.78 205.696 195.114 210.456 195.114 215.169C195.114 220.881 200.255 224.07 204.349 225.689C207.586 226.974 209.252 228.497 209.252 230.497C209.252 232.163 207.872 233.353 205.968 233.353C202.826 233.353 199.398 230.83 199.208 230.735C198.875 230.497 197.97 230.402 197.59 231.02L195.352 234.971C194.971 235.638 195.114 235.828 195.59 236.304Z" fill="#EB5757"/>
<path d="M221.83 233.353C221.83 237.685 223.925 239.97 227.542 239.97C229.922 239.97 233.302 238.922 233.302 238.922C233.778 238.78 234.016 238.256 233.921 237.828L232.874 233.877C232.731 233.353 232.303 233.162 231.827 233.258C231.351 233.353 230.637 233.591 229.97 233.591C229.399 233.591 228.685 233.496 228.685 232.448V226.498H232.207C232.731 226.498 233.112 226.07 233.112 225.594V221.357C233.112 220.833 232.731 220.453 232.207 220.453H228.685V215.169C228.685 214.693 228.304 214.264 227.828 214.264H222.735C222.258 214.264 221.83 214.693 221.83 215.169V220.453H220.592C220.116 220.453 219.736 220.833 219.736 221.357V225.594C219.736 226.07 220.116 226.498 220.592 226.498H221.83V233.353Z" fill="#EB5757"/>
<path d="M237.432 238.589C237.432 239.065 237.86 239.494 238.336 239.494H243.192C243.953 239.494 244.239 239.16 244.239 238.589V228.735C244.239 227.117 245.334 226.022 246.762 226.022C247.19 226.022 247.666 226.165 247.904 226.26C248.428 226.451 248.761 226.165 248.952 225.832L251.284 222.023C251.951 220.929 250.094 219.977 247.476 219.977C245.001 219.977 243.239 221.738 242.287 223.118L241.43 221.024C241.288 220.738 241.097 220.453 240.574 220.453H238.336C237.86 220.453 237.432 220.833 237.432 221.357V238.589Z" fill="#EB5757"/>
<path d="M252.228 229.973C252.228 235.447 256.512 239.97 262.177 239.97C265.176 239.97 267.556 238.922 269.222 237.256C269.65 236.828 269.555 236.257 269.269 235.876L266.889 233.02C266.604 232.686 266.128 232.686 265.699 233.02C264.938 233.591 263.557 234.162 262.367 234.162C259.892 234.162 258.844 232.306 258.702 231.02H270.126C270.555 231.02 270.983 230.687 271.031 230.211C271.078 229.878 271.126 229.259 271.126 228.926C271.126 223.69 266.937 219.977 262.081 219.977C256.464 219.977 252.228 224.594 252.228 229.973ZM259.32 227.307C259.511 226.07 260.606 225.07 261.891 225.07C263.129 225.07 264.319 226.07 264.414 227.307H259.32Z" fill="#EB5757"/>
<path d="M273.908 238.399C274.86 239.16 277.241 239.97 280.382 239.97C285.761 239.97 288.427 237.256 288.427 233.924C288.427 230.116 285.761 228.593 281.906 227.26C280.287 226.689 279.763 226.212 279.763 225.736C279.763 225.213 280.192 225.07 280.811 225.07C282.667 225.07 284.857 226.165 284.857 226.165C285.238 226.308 285.714 226.165 285.857 225.879L287.618 222.642C287.903 222.166 287.57 221.738 287.142 221.452C286.095 220.786 283.81 219.977 280.811 219.977C275.67 219.977 273.385 222.547 273.385 225.736C273.385 228.688 275.003 230.83 278.716 232.115C281.144 232.972 281.43 233.638 281.43 234.115C281.43 234.686 281.001 234.971 280.525 234.971C278.478 234.971 276.241 233.734 276.241 233.734C275.86 233.543 275.384 233.829 275.241 234.115L273.575 237.399C273.337 237.828 273.575 238.113 273.908 238.399Z" fill="#EB5757"/>
<path d="M291.573 238.399C292.525 239.16 294.906 239.97 298.047 239.97C303.426 239.97 306.092 237.256 306.092 233.924C306.092 230.116 303.426 228.593 299.571 227.26C297.952 226.689 297.428 226.212 297.428 225.736C297.428 225.213 297.857 225.07 298.476 225.07C300.332 225.07 302.522 226.165 302.522 226.165C302.903 226.308 303.379 226.165 303.522 225.879L305.283 222.642C305.568 222.166 305.235 221.738 304.807 221.452C303.76 220.786 301.475 219.977 298.476 219.977C293.335 219.977 291.05 222.547 291.05 225.736C291.05 228.688 292.668 230.83 296.381 232.115C298.809 232.972 299.095 233.638 299.095 234.115C299.095 234.686 298.666 234.971 298.19 234.971C296.143 234.971 293.906 233.734 293.906 233.734C293.525 233.543 293.049 233.829 292.906 234.115L291.24 237.399C291.002 237.828 291.24 238.113 291.573 238.399Z" fill="#EB5757"/>
<path d="M109.737 17.1845C109.737 26.705 117.306 34.2738 126.827 34.2738C136.347 34.2738 143.964 26.705 143.964 17.1845C143.964 7.66401 136.347 0 126.827 0C117.306 0 109.737 7.66401 109.737 17.1845ZM117.354 17.1845C117.354 11.9482 121.638 7.61641 126.827 7.61641C132.063 7.61641 136.347 11.9482 136.347 17.1845C136.347 22.3732 132.063 26.6574 126.827 26.6574C121.638 26.6574 117.354 22.3732 117.354 17.1845Z" fill="#FECD81"/>
<path d="M154.772 33.7978C154.915 34.0358 155.296 34.2738 155.582 34.2738H155.82C156.105 34.2738 156.486 34.0358 156.629 33.7978L165.673 16.0421C166.006 15.4232 165.578 14.7568 164.864 14.7568H160.056C159.39 14.7568 159.057 14.7092 158.771 15.2804L155.772 21.7544C155.724 21.7544 155.677 21.7544 155.629 21.7544L152.821 15.2804C152.678 14.9948 152.297 14.7568 151.964 14.7568H146.632C145.918 14.7568 145.49 15.4232 145.823 16.0421L154.772 33.7978Z" fill="#FECD81"/>
<path d="M166.904 24.2773C166.904 29.7516 171.188 34.2738 176.853 34.2738C179.852 34.2738 182.232 33.2266 183.898 31.5605C184.326 31.1321 184.231 30.5608 183.946 30.18L181.565 27.3239C181.28 26.9906 180.804 26.9906 180.375 27.3239C179.614 27.8951 178.233 28.4663 177.043 28.4663C174.568 28.4663 173.521 26.6098 173.378 25.3245H184.802C185.231 25.3245 185.659 24.9913 185.707 24.5153C185.754 24.1821 185.802 23.5633 185.802 23.23C185.802 17.9938 181.613 14.2808 176.758 14.2808C171.14 14.2808 166.904 18.8982 166.904 24.2773ZM173.997 21.6116C174.187 20.3739 175.282 19.3742 176.567 19.3742C177.805 19.3742 178.995 20.3739 179.09 21.6116H173.997Z" fill="#FECD81"/>
<path d="M189.251 32.8934C189.251 33.3694 189.679 33.7978 190.155 33.7978H195.011C195.773 33.7978 196.058 33.4646 196.058 32.8934V23.0396C196.058 21.4211 197.153 20.3263 198.581 20.3263C199.01 20.3263 199.486 20.4691 199.724 20.5643C200.247 20.7547 200.58 20.4691 200.771 20.1359L203.103 16.3277C203.77 15.2328 201.913 14.2808 199.295 14.2808C196.82 14.2808 195.059 16.0421 194.106 17.4225L193.25 15.328C193.107 15.0424 192.916 14.7568 192.393 14.7568H190.155C189.679 14.7568 189.251 15.1376 189.251 15.6612V32.8934Z" fill="#FECD81"/>
<path d="M205.661 32.8934C205.661 33.3694 206.089 33.7978 206.565 33.7978H211.802C212.278 33.7978 212.706 33.3694 212.706 32.8934V1.38047C212.706 0.904448 212.278 0.476025 211.802 0.476025H206.565C206.089 0.476025 205.661 0.904448 205.661 1.38047V32.8934Z" fill="#FECD81"/>
<path d="M216.365 24.2297C216.365 29.704 220.839 34.2738 226.266 34.2738C231.693 34.2738 236.167 29.704 236.167 24.2297C236.167 18.8506 231.693 14.2808 226.266 14.2808C220.839 14.2808 216.365 18.8506 216.365 24.2297ZM222.505 24.2297C222.505 22.1352 224.172 20.4215 226.266 20.4215C228.361 20.4215 230.027 22.1352 230.027 24.2297C230.027 26.3718 228.361 28.1331 226.266 28.1331C224.172 28.1331 222.505 26.3718 222.505 24.2297Z" fill="#FECD81"/>
<path d="M238.543 27.9903C238.543 31.7509 241.352 34.2738 245.113 34.2738C248.112 34.2738 249.778 32.8934 250.872 31.8937L251.539 33.179C251.777 33.7026 252.11 33.7978 252.396 33.7978H254.49C254.966 33.7978 255.395 33.3694 255.395 32.8934V22.3732C255.395 16.7561 253.253 14.2808 247.35 14.2808C244.779 14.2808 241.447 14.852 241.019 14.9948C240.59 15.1376 240.162 15.4708 240.305 16.2801L240.733 19.279C240.828 19.9931 241.162 20.5167 241.876 20.2787C243.113 19.8979 245.351 19.5646 246.636 19.5646C248.921 19.5646 249.206 20.5167 249.206 22.3732C249.206 22.3732 247.683 21.6116 245.541 21.6116C241.209 21.6116 238.543 24.3249 238.543 27.9903ZM244.732 27.5143C244.732 26.4194 245.636 25.515 246.779 25.515C247.921 25.515 248.826 26.4194 248.873 27.5143C248.873 28.6567 247.921 29.6088 246.779 29.6088C245.636 29.6088 244.732 28.6567 244.732 27.5143Z" fill="#FECD81"/>
<path d="M258.856 24.2773C258.856 29.7516 262.902 34.2738 268.281 34.2738C272.47 34.2738 274.66 31.2749 274.66 31.2749L275.231 32.8457C275.422 33.3694 275.755 33.7978 276.231 33.7978H278.468C278.944 33.7978 279.373 33.3694 279.373 32.8934V1.38047C279.373 0.904448 278.944 0.476025 278.468 0.476025H273.184C272.708 0.476025 272.28 0.904448 272.28 1.38047V15.1852C271.709 14.852 269.947 14.2808 268.329 14.2808C263.235 14.2808 258.856 17.5653 258.856 24.2773ZM265.378 24.2297C265.378 22.0876 267.044 20.4215 269.233 20.4215C271.423 20.4215 273.042 22.0876 273.042 24.2297C273.042 26.4194 271.423 28.1331 269.233 28.1331C267.044 28.1331 265.378 26.4194 265.378 24.2297Z" fill="#FECD81"/>
<path d="M283.074 24.2773C283.074 29.7516 287.359 34.2738 293.023 34.2738C296.022 34.2738 298.402 33.2266 300.069 31.5605C300.497 31.1321 300.402 30.5608 300.116 30.18L297.736 27.3239C297.45 26.9906 296.974 26.9906 296.546 27.3239C295.784 27.8951 294.404 28.4663 293.214 28.4663C290.738 28.4663 289.691 26.6098 289.548 25.3245H300.973C301.401 25.3245 301.83 24.9913 301.878 24.5153C301.925 24.1821 301.973 23.5633 301.973 23.23C301.973 17.9938 297.784 14.2808 292.928 14.2808C287.311 14.2808 283.074 18.8982 283.074 24.2773ZM290.167 21.6116C290.358 20.3739 291.453 19.3742 292.738 19.3742C293.975 19.3742 295.166 20.3739 295.261 21.6116H290.167Z" fill="#FECD81"/>
<path d="M304.041 24.2773C304.041 29.7516 308.087 34.2738 313.466 34.2738C317.656 34.2738 319.845 31.2749 319.845 31.2749L320.416 32.8457C320.607 33.3694 320.94 33.7978 321.416 33.7978H323.653C324.129 33.7978 324.558 33.3694 324.558 32.8934V1.38047C324.558 0.904448 324.129 0.476025 323.653 0.476025H318.37C317.894 0.476025 317.465 0.904448 317.465 1.38047V15.1852C316.894 14.852 315.133 14.2808 313.514 14.2808C308.421 14.2808 304.041 17.5653 304.041 24.2773ZM310.563 24.2297C310.563 22.0876 312.229 20.4215 314.419 20.4215C316.608 20.4215 318.227 22.0876 318.227 24.2297C318.227 26.4194 316.608 28.1331 314.419 28.1331C312.229 28.1331 310.563 26.4194 310.563 24.2297Z" fill="#FECD81"/>
<path d="M65.5293 351.83C65.5293 352.306 65.9101 352.735 66.4337 352.735H78.2392C83.9039 352.735 88.6165 348.879 88.6165 343.548C88.6165 339.168 84.7607 336.836 82.2378 335.788C84.4751 334.598 87.7597 331.933 87.7597 328.267C87.7597 323.269 83.1422 319.413 77.5251 319.413H66.4337C65.9101 319.413 65.5293 319.842 65.5293 320.318V351.83ZM72.9553 332.932V326.268H76.6683C78.4772 326.268 80.0005 327.601 80.0005 329.505C80.0005 331.409 78.4772 332.932 76.6683 332.932H72.9553ZM72.9553 345.928V339.121H76.8111C78.6676 339.121 80.7145 340.549 80.7145 342.453C80.7145 344.404 79.1436 345.928 77.2871 345.928H72.9553Z" fill="#FECD81"/>
<path d="M91.1707 346.927C91.1707 350.688 93.9792 353.211 97.7398 353.211C100.739 353.211 102.405 351.83 103.5 350.831L104.166 352.116C104.404 352.64 104.737 352.735 105.023 352.735H107.118C107.594 352.735 108.022 352.306 108.022 351.83V341.31C108.022 335.693 105.88 333.218 99.9772 333.218C97.4066 333.218 94.0744 333.789 93.646 333.932C93.2176 334.075 92.7892 334.408 92.932 335.217L93.3604 338.216C93.4556 338.93 93.7888 339.454 94.5029 339.216C95.7405 338.835 97.9779 338.502 99.2631 338.502C101.548 338.502 101.834 339.454 101.834 341.31C101.834 341.31 100.31 340.549 98.1683 340.549C93.8364 340.549 91.1707 343.262 91.1707 346.927ZM97.359 346.451C97.359 345.356 98.2635 344.452 99.4059 344.452C100.548 344.452 101.453 345.356 101.5 346.451C101.5 347.594 100.548 348.546 99.4059 348.546C98.2635 348.546 97.359 347.594 97.359 346.451Z" fill="#FECD81"/>
<path d="M112.864 351.83C112.864 352.306 113.292 352.735 113.768 352.735H119.004C119.48 352.735 119.909 352.306 119.909 351.83V320.318C119.909 319.842 119.48 319.413 119.004 319.413H113.768C113.292 319.413 112.864 319.842 112.864 320.318V351.83Z" fill="#FECD81"/>
<path d="M123.758 346.927C123.758 350.688 126.567 353.211 130.327 353.211C133.326 353.211 134.992 351.83 136.087 350.831L136.753 352.116C136.991 352.64 137.325 352.735 137.61 352.735H139.705C140.181 352.735 140.609 352.306 140.609 351.83V341.31C140.609 335.693 138.467 333.218 132.564 333.218C129.994 333.218 126.662 333.789 126.233 333.932C125.805 334.075 125.376 334.408 125.519 335.217L125.948 338.216C126.043 338.93 126.376 339.454 127.09 339.216C128.328 338.835 130.565 338.502 131.85 338.502C134.135 338.502 134.421 339.454 134.421 341.31C134.421 341.31 132.898 340.549 130.756 340.549C126.424 340.549 123.758 343.262 123.758 346.927ZM129.946 346.451C129.946 345.356 130.851 344.452 131.993 344.452C133.136 344.452 134.04 345.356 134.088 346.451C134.088 347.594 133.136 348.546 131.993 348.546C130.851 348.546 129.946 347.594 129.946 346.451Z" fill="#FECD81"/>
<path d="M145.451 351.83C145.451 352.306 145.879 352.735 146.355 352.735H151.354C152.02 352.735 152.211 352.259 152.211 351.83V342.691C152.211 340.739 153.924 339.359 155.828 339.359C157.97 339.359 159.065 341.025 159.065 342.929V351.83C159.065 352.306 159.446 352.735 159.97 352.735H165.063C165.539 352.735 165.968 352.306 165.968 351.83V343.167C165.968 337.74 162.826 333.218 156.923 333.218C153.448 333.218 151.258 335.027 150.211 336.169L149.45 334.265C149.307 333.932 148.878 333.694 148.593 333.694H146.355C145.879 333.694 145.451 334.075 145.451 334.598V351.83Z" fill="#FECD81"/>
<path d="M169.125 343.214C169.125 348.927 173.933 353.211 179.359 353.211C182.787 353.211 185.262 351.878 187.023 349.212C187.356 348.736 187.118 348.26 186.69 347.879L183.834 345.404C183.548 345.166 183.12 345.261 182.787 345.594C182.025 346.356 181.216 347.07 179.55 347.07C177.455 347.07 175.837 345.356 175.837 343.214C175.837 341.12 177.55 339.359 179.645 339.359C180.74 339.359 181.739 339.882 182.406 340.596C182.644 340.834 183.215 340.929 183.453 340.691L186.309 337.978C186.738 337.597 186.88 337.074 186.547 336.645C184.738 334.455 182.406 333.218 179.407 333.218C173.98 333.218 169.125 337.597 169.125 343.214Z" fill="#FECD81"/>
<path d="M189.162 343.214C189.162 348.689 193.446 353.211 199.111 353.211C202.109 353.211 204.49 352.164 206.156 350.498C206.584 350.069 206.489 349.498 206.203 349.117L203.823 346.261C203.538 345.928 203.062 345.928 202.633 346.261C201.871 346.832 200.491 347.403 199.301 347.403C196.826 347.403 195.778 345.547 195.636 344.262H207.06C207.489 344.262 207.917 343.928 207.965 343.452C208.012 343.119 208.06 342.5 208.06 342.167C208.06 336.931 203.871 333.218 199.015 333.218C193.398 333.218 189.162 337.835 189.162 343.214ZM196.254 340.549C196.445 339.311 197.54 338.311 198.825 338.311C200.063 338.311 201.253 339.311 201.348 340.549H196.254Z" fill="#FECD81"/>
<path d="M210.128 343.214C210.128 348.689 214.175 353.211 219.554 353.211C223.743 353.211 225.932 350.212 225.932 350.212L226.504 351.783C226.694 352.306 227.027 352.735 227.503 352.735H229.741C230.217 352.735 230.645 352.306 230.645 351.83V320.318C230.645 319.842 230.217 319.413 229.741 319.413H224.457C223.981 319.413 223.552 319.842 223.552 320.318V334.122C222.981 333.789 221.22 333.218 219.601 333.218C214.508 333.218 210.128 336.502 210.128 343.214ZM216.65 343.167C216.65 341.025 218.316 339.359 220.506 339.359C222.695 339.359 224.314 341.025 224.314 343.167C224.314 345.356 222.695 347.07 220.506 347.07C218.316 347.07 216.65 345.356 216.65 343.167Z" fill="#FECD81"/>
<path d="M7.20117 273.55C7.20117 274.026 7.58199 274.455 8.10562 274.455H27.8131C28.3367 274.455 28.7175 274.026 28.7175 273.55V268.362C28.7175 267.886 28.3367 267.457 27.8131 267.457H14.6272V261.031H25.4805C25.9566 261.031 26.385 260.65 26.385 260.126V254.938C26.385 254.462 25.9566 254.033 25.4805 254.033H14.6272V248.131H27.8131C28.3367 248.131 28.7175 247.702 28.7175 247.226V242.038C28.7175 241.561 28.3367 241.133 27.8131 241.133H8.10562C7.58199 241.133 7.20117 241.561 7.20117 242.038V273.55Z" fill="#2F80ED"/>
<path d="M32.5473 273.55C32.5473 274.026 32.9757 274.455 33.4517 274.455H38.45C39.1164 274.455 39.3069 273.979 39.3069 273.55V264.411C39.3069 262.459 41.0205 261.079 42.9246 261.079C45.0668 261.079 46.1616 262.745 46.1616 264.649V273.55C46.1616 274.026 46.5424 274.455 47.0661 274.455H52.1595C52.6356 274.455 53.064 274.026 53.064 273.55V264.887C53.064 259.46 49.9222 254.938 44.0195 254.938C40.5445 254.938 38.3548 256.747 37.3075 257.889L36.5459 255.985C36.4031 255.652 35.9747 255.414 35.6891 255.414H33.4517C32.9757 255.414 32.5473 255.795 32.5473 256.318V273.55Z" fill="#2F80ED"/>
<path d="M55.6498 272.741C55.6498 276.502 58.6963 277.835 59.3152 278.025V278.168C58.7915 278.453 56.4114 279.882 56.4114 282.738C56.4114 285.737 58.9819 289.212 66.3603 289.212C73.8815 289.212 77.0709 285.499 77.0709 280.929C77.0709 276.692 73.3579 273.979 68.8833 273.979H63.171C62.4569 273.979 61.6477 273.598 61.6477 272.694C61.6477 271.932 62.2189 271.408 63.2186 271.408H66.646C71.6918 271.408 74.8812 267.695 74.8812 264.22C74.8812 261.079 73.0723 259.603 73.0723 259.603L75.8332 258.603C76.1189 258.46 76.3569 258.127 76.3569 257.794V255.842C76.3569 255.319 75.9761 254.938 75.4524 254.938H66.4555C61.8381 254.938 58.0775 258.746 58.0775 263.173C58.0775 266.077 59.458 267.505 59.458 267.505C59.458 267.505 55.6498 268.981 55.6498 272.741ZM64.123 263.601C64.123 262.173 65.2179 261.126 66.646 261.126C68.1216 261.126 69.1689 262.173 69.1689 263.601C69.1689 265.03 68.1216 266.077 66.646 266.077C65.2179 266.077 64.123 265.03 64.123 263.601ZM62.933 281.405C62.933 280.024 64.6466 279.405 66.3603 279.405C68.9309 279.405 69.7877 280.405 69.7877 281.405C69.7877 282.69 68.7405 283.642 66.3603 283.642C64.0754 283.642 62.933 282.738 62.933 281.405Z" fill="#2F80ED"/>
<path d="M78.5392 268.647C78.5392 272.408 81.3477 274.931 85.1083 274.931C88.1073 274.931 89.7734 273.55 90.8682 272.551L91.5346 273.836C91.7727 274.36 92.1059 274.455 92.3915 274.455H94.486C94.962 274.455 95.3904 274.026 95.3904 273.55V263.03C95.3904 257.413 93.2483 254.938 87.3456 254.938C84.7751 254.938 81.4429 255.509 81.0145 255.652C80.5861 255.795 80.1576 256.128 80.3004 256.937L80.7289 259.936C80.8241 260.65 81.1573 261.174 81.8713 260.936C83.109 260.555 85.3463 260.222 86.6316 260.222C88.9165 260.222 89.2021 261.174 89.2021 263.03C89.2021 263.03 87.6788 262.269 85.5367 262.269C81.2049 262.269 78.5392 264.982 78.5392 268.647ZM84.7275 268.171C84.7275 267.076 85.6319 266.172 86.7744 266.172C87.9169 266.172 88.8213 267.076 88.8689 268.171C88.8689 269.314 87.9169 270.266 86.7744 270.266C85.6319 270.266 84.7275 269.314 84.7275 268.171Z" fill="#2F80ED"/>
<path d="M98.1852 272.741C98.1852 276.502 101.232 277.835 101.851 278.025V278.168C101.327 278.453 98.9469 279.882 98.9469 282.738C98.9469 285.737 101.517 289.212 108.896 289.212C116.417 289.212 119.606 285.499 119.606 280.929C119.606 276.692 115.893 273.979 111.419 273.979H105.706C104.992 273.979 104.183 273.598 104.183 272.694C104.183 271.932 104.754 271.408 105.754 271.408H109.181C114.227 271.408 117.417 267.695 117.417 264.22C117.417 261.079 115.608 259.603 115.608 259.603L118.369 258.603C118.654 258.46 118.892 258.127 118.892 257.794V255.842C118.892 255.319 118.512 254.938 117.988 254.938H108.991C104.374 254.938 100.613 258.746 100.613 263.173C100.613 266.077 101.993 267.505 101.993 267.505C101.993 267.505 98.1852 268.981 98.1852 272.741ZM106.658 263.601C106.658 262.173 107.753 261.126 109.181 261.126C110.657 261.126 111.704 262.173 111.704 263.601C111.704 265.03 110.657 266.077 109.181 266.077C107.753 266.077 106.658 265.03 106.658 263.601ZM105.468 281.405C105.468 280.024 107.182 279.405 108.896 279.405C111.466 279.405 112.323 280.405 112.323 281.405C112.323 282.69 111.276 283.642 108.896 283.642C106.611 283.642 105.468 282.738 105.468 281.405Z" fill="#2F80ED"/>
<path d="M120.932 264.934C120.932 270.409 125.216 274.931 130.881 274.931C133.88 274.931 136.26 273.884 137.926 272.218C138.354 271.789 138.259 271.218 137.974 270.837L135.593 267.981C135.308 267.648 134.832 267.648 134.403 267.981C133.642 268.552 132.261 269.123 131.071 269.123C128.596 269.123 127.549 267.267 127.406 265.982H138.83C139.259 265.982 139.687 265.648 139.735 265.172C139.782 264.839 139.83 264.22 139.83 263.887C139.83 258.651 135.641 254.938 130.786 254.938C125.168 254.938 120.932 259.555 120.932 264.934ZM128.025 262.269C128.215 261.031 129.31 260.031 130.595 260.031C131.833 260.031 133.023 261.031 133.118 262.269H128.025Z" fill="#2F80ED"/>
<path d="M141.898 264.934C141.898 270.409 145.945 274.931 151.324 274.931C155.513 274.931 157.703 271.932 157.703 271.932L158.274 273.503C158.464 274.026 158.797 274.455 159.273 274.455H161.511C161.987 274.455 162.415 274.026 162.415 273.55V242.038C162.415 241.561 161.987 241.133 161.511 241.133H156.227C155.751 241.133 155.322 241.561 155.322 242.038V255.842C154.751 255.509 152.99 254.938 151.371 254.938C146.278 254.938 141.898 258.222 141.898 264.934ZM148.42 264.887C148.42 262.745 150.086 261.079 152.276 261.079C154.466 261.079 156.084 262.745 156.084 264.887C156.084 267.076 154.466 268.79 152.276 268.79C150.086 268.79 148.42 267.076 148.42 264.887Z" fill="#2F80ED"/>
<path d="M357.068 197.127C358.526 198.618 363.093 202.118 371.338 202.118C380.66 202.118 386.305 195.377 386.305 188.7C386.305 179.885 378.441 175.931 373.494 173.922C368.484 171.848 366.581 170.033 366.581 167.635C366.581 165.884 368.293 164.329 370.576 164.329C374.445 164.329 379.075 167.894 379.646 168.218C380.216 168.672 381.358 168.088 381.802 167.375L385.036 162.384C385.29 161.931 385.417 160.764 384.656 160.31C382.753 158.884 377.68 155.449 371.084 155.449C361.317 155.449 356.434 161.931 356.434 168.348C356.434 176.126 363.283 180.469 368.737 182.672C373.05 184.422 375.27 186.497 375.27 189.219C375.27 191.488 373.43 193.108 370.894 193.108C366.708 193.108 362.141 189.673 361.888 189.543C361.444 189.219 360.239 189.089 359.731 189.932L356.751 195.312C356.243 196.219 356.434 196.479 357.068 197.127Z" fill="#2F80ED"/>
<path d="M392.027 193.108C392.027 199.007 394.818 202.118 399.638 202.118C402.809 202.118 407.312 200.692 407.312 200.692C407.946 200.497 408.263 199.784 408.136 199.201L406.741 193.821C406.551 193.108 405.98 192.849 405.346 192.979C404.711 193.108 403.76 193.432 402.872 193.432C402.111 193.432 401.16 193.303 401.16 191.877V183.774H405.853C406.551 183.774 407.058 183.191 407.058 182.543V176.774C407.058 176.061 406.551 175.542 405.853 175.542H401.16V168.348C401.16 167.699 400.652 167.116 400.018 167.116H393.232C392.598 167.116 392.027 167.699 392.027 168.348V175.542H390.378C389.744 175.542 389.237 176.061 389.237 176.774V182.543C389.237 183.191 389.744 183.774 390.378 183.774H392.027V193.108Z" fill="#2F80ED"/>
<path d="M412.813 200.238C412.813 200.886 413.384 201.47 414.018 201.47H420.487C421.502 201.47 421.883 201.016 421.883 200.238V186.821C421.883 184.617 423.341 183.126 425.244 183.126C425.815 183.126 426.449 183.321 426.766 183.45C427.464 183.709 427.908 183.321 428.161 182.867L431.269 177.681C432.157 176.191 429.683 174.894 426.195 174.894C422.897 174.894 420.551 177.292 419.282 179.172L418.141 176.32C417.95 175.931 417.697 175.542 416.999 175.542H414.018C413.384 175.542 412.813 176.061 412.813 176.774V200.238Z" fill="#2F80ED"/>
<path d="M432.462 188.441C432.462 195.895 438.424 202.118 445.654 202.118C452.884 202.118 458.846 195.895 458.846 188.441C458.846 181.117 452.884 174.894 445.654 174.894C438.424 174.894 432.462 181.117 432.462 188.441ZM440.644 188.441C440.644 185.589 442.863 183.256 445.654 183.256C448.445 183.256 450.664 185.589 450.664 188.441C450.664 191.358 448.445 193.756 445.654 193.756C442.863 193.756 440.644 191.358 440.644 188.441Z" fill="#2F80ED"/>
<path d="M463.724 200.238C463.724 200.886 464.294 201.47 464.929 201.47H471.588C472.476 201.47 472.729 200.822 472.729 200.238V187.793C472.729 185.135 475.012 183.256 477.549 183.256C480.403 183.256 481.862 185.524 481.862 188.117V200.238C481.862 200.886 482.369 201.47 483.067 201.47H489.853C490.487 201.47 491.058 200.886 491.058 200.238V188.441C491.058 181.052 486.872 174.894 479.008 174.894C474.378 174.894 471.461 177.357 470.066 178.913L469.051 176.32C468.861 175.866 468.29 175.542 467.909 175.542H464.929C464.294 175.542 463.724 176.061 463.724 176.774V200.238Z" fill="#2F80ED"/>
<path d="M494.503 199.136C494.503 204.257 498.562 206.072 499.386 206.331V206.526C498.689 206.914 495.518 208.859 495.518 212.748C495.518 216.832 498.943 221.563 508.773 221.563C518.793 221.563 523.042 216.508 523.042 210.285C523.042 204.516 518.096 200.822 512.134 200.822H504.524C503.572 200.822 502.494 200.303 502.494 199.071C502.494 198.034 503.255 197.321 504.587 197.321H509.153C515.876 197.321 520.125 192.265 520.125 187.534C520.125 183.256 517.715 181.246 517.715 181.246L521.394 179.885C521.774 179.691 522.091 179.237 522.091 178.783V176.126C522.091 175.413 521.584 174.894 520.886 174.894H508.9C502.748 174.894 497.737 180.08 497.737 186.108C497.737 190.062 499.577 192.006 499.577 192.006C499.577 192.006 494.503 194.016 494.503 199.136ZM505.792 186.691C505.792 184.747 507.251 183.321 509.153 183.321C511.119 183.321 512.515 184.747 512.515 186.691C512.515 188.636 511.119 190.062 509.153 190.062C507.251 190.062 505.792 188.636 505.792 186.691ZM504.206 210.933C504.206 209.053 506.49 208.211 508.773 208.211C512.197 208.211 513.339 209.572 513.339 210.933C513.339 212.683 511.944 213.98 508.773 213.98C505.729 213.98 504.206 212.748 504.206 210.933Z" fill="#2F80ED"/>
</svg>
