<svg width="199" height="180" viewBox="0 0 199 180" fill="none" xmlns="http://www.w3.org/2000/svg">
<path d="M63.5854 73.2971C58.7626 77.8689 49.5108 119.323 48.3274 121.804C47.2425 124.076 29.1581 139.141 23.1982 142.579C21.5363 143.538 19.8613 144.338 18.1453 143.63C17.063 143.183 15.7427 142.84 14.4139 142.991C11.2661 143.347 9.98752 145.067 10.7947 145.654C11.6012 146.24 15.0659 144.994 16.8798 147.068C18.6943 149.142 13.1608 152.651 11.3195 150.995C10.3989 150.167 11.7316 146.893 10.6747 146.208C9.61785 145.524 8.49315 148.823 8.17172 149.978C8.03806 150.46 7.99177 151.069 8.01264 151.666C4.91175 151.643 -0.222063 151.666 0.00743958 153.281C0.120235 154.074 1.82064 154.359 4.00221 154.392C2.73278 154.615 1.86172 155.008 1.95625 155.694C2.27443 158.001 16.0217 156.087 16.0217 156.087C16.0217 156.087 16.012 156.08 15.9963 156.068C18.8736 155.504 20.9723 152.88 22.1401 150.991C22.987 149.621 24.201 148.544 25.6302 148.016C35.9004 144.226 55.8488 133.897 59.884 130.585C60.6397 129.965 61.6164 129.041 61.9861 128.121C65.4364 119.531 79.5443 84.6073 81.677 68.6947C74.5298 68.7834 65.7546 71.2408 63.5854 73.2971Z" fill="#FF8F6A"/>
<path d="M61.985 128.121C62.9134 125.809 65.8409 120.236 67.6736 115.228L64.4371 113.897C64.4371 113.897 60.1346 126.701 58.7394 128.734C57.3434 130.767 25.7236 147.935 25.7236 147.935C35.9939 144.145 55.8478 133.896 59.8829 130.585C60.6386 129.965 61.616 129.041 61.985 128.121Z" fill="#EF6E4B"/>
<path d="M135.404 74.1891C140.227 78.7603 149.479 120.215 150.663 122.696C151.747 124.968 169.832 140.033 175.792 143.471C177.454 144.43 179.128 145.23 180.844 144.522C181.927 144.075 183.247 143.732 184.576 143.883C187.723 144.239 189.002 145.959 188.195 146.546C187.388 147.132 183.924 145.886 182.11 147.96C180.296 150.034 185.829 153.543 187.671 151.886C188.591 151.058 187.258 147.785 188.315 147.1C189.372 146.416 190.496 149.715 190.818 150.87C190.952 151.352 190.998 151.961 190.977 152.558C194.078 152.535 199.212 152.558 198.982 154.173C198.869 154.965 197.169 155.25 194.987 155.284C196.257 155.507 197.128 155.9 197.033 156.586C196.716 158.893 182.968 156.979 182.968 156.979C182.968 156.979 182.978 156.972 182.993 156.96C180.116 156.396 178.017 153.772 176.85 151.883C176.003 150.513 174.789 149.436 173.359 148.908C163.089 145.118 143.141 134.789 139.105 131.477C138.35 130.857 137.373 129.932 137.004 129.013C133.553 120.423 119.446 85.4993 117.312 69.5867C124.46 69.6754 133.235 72.1327 135.404 74.1891Z" fill="#FF8F6A"/>
<path d="M137.004 129.013C136.075 126.701 133.148 121.128 131.314 116.121L134.551 114.789C134.551 114.789 138.853 127.593 140.249 129.627C141.645 131.66 173.264 148.828 173.264 148.828C162.994 145.037 143.141 134.789 139.105 131.478C138.35 130.858 137.373 129.933 137.004 129.013Z" fill="#EF6E4B"/>
<path d="M132.682 155.839C132.682 164.828 117.507 172.115 98.7891 172.115C80.0704 172.115 64.8965 164.828 64.8965 155.839C64.8965 146.849 80.0704 139.562 98.7891 139.562C117.507 139.562 132.682 146.849 132.682 155.839Z" fill="#198E7D"/>
<path d="M136.296 75.8476C134.56 72.2394 112.152 65.7527 109.366 63.5496C108.058 62.5156 107.505 54.5501 107.505 54.5501L91.2244 54.215C91.2244 54.215 91.5987 62.3702 89.395 63.4492C87.956 64.154 64.67 69.3296 61.6565 75.1988C58.6436 81.0681 69.543 103.851 71.1828 98.539C73.588 112.936 77.7021 143.135 77.7021 143.135C77.7021 143.135 84.1633 147.043 98.6904 147.025C115.462 147.004 121.892 143.969 121.892 143.969C121.892 143.969 126.04 115.615 129.139 100.2C130.496 105.661 138.778 81.0042 136.296 75.8476Z" fill="#FF8F6A"/>
<path d="M49.1006 110.609C52.2751 112.447 60.3221 115.16 67.4086 116.911L69.2707 110.031L72.8678 143.154L124.644 142.477L129.257 110.764L131.493 118.623C131.528 118.847 131.712 119.07 131.939 119.064C137.731 118.933 148.886 115.137 151.069 113.543C151.069 113.543 145.313 82.5911 134.844 72.1852C127.87 65.2526 109.544 63.5352 109.544 63.5352C109.544 63.5352 107.658 72.5399 99.6771 72.6983C91.9784 72.8509 89.238 63.455 89.238 63.455C89.238 63.455 70.3406 63.4094 61.8758 73.0902C55.3232 80.5842 49.2349 108.092 49.1006 110.609Z" fill="#701A73" fill-opacity="0.8"/>
<path d="M134.833 72.1795C134.492 71.8731 132.788 70.3363 131.836 69.9464C133.321 71.459 133.841 76.8673 133.841 77.7449C133.841 114.925 117.737 140.327 98.7842 140.327C79.8308 140.327 65.1015 111.091 65.1015 73.9105C65.1015 72.6985 65.2085 71.3176 65.2404 70.1212C64.0199 70.942 62.815 72.0406 61.865 73.0845C55.1651 80.4481 49.2235 108.087 49.0898 110.603C52.2638 112.441 60.3224 115.16 67.409 116.911L69.26 110.026L72.8681 143.154C72.8681 143.154 81.3349 150.577 100.085 150.157C115.996 149.801 124.644 142.478 124.644 142.478L129.245 110.759L131.482 118.617C131.517 118.841 131.702 119.064 131.928 119.059C137.719 118.927 148.875 115.132 151.057 113.537C151.057 113.537 145.812 82.0461 134.833 72.1795Z" fill="#701A73" fill-opacity="0.6"/>
<path d="M65.24 70.1207C65.24 70.1207 61.0463 76.9191 61.8033 85.9649C62.8035 97.9159 69.9917 108.88 69.9917 108.88L65.24 70.1207Z" fill="#701A73"/>
<path d="M65.2399 70.1207C65.2399 70.1207 65.0371 70.5771 64.9608 70.7812C64.8885 70.9846 64.7822 71.2832 64.6466 71.6633C64.3884 72.4268 64.0272 73.5131 63.6653 74.8301C63.4691 75.4834 63.3113 76.2064 63.1118 76.9582C62.9338 77.7158 62.774 78.521 62.6006 79.3478C62.4572 80.1823 62.2929 81.0397 62.1879 81.9199C62.1272 82.3587 62.066 82.8007 62.004 83.2441C61.9701 83.6913 61.9362 84.1393 61.9017 84.5878C61.7934 85.4817 61.7987 86.3802 61.7582 87.2649C61.7009 88.1497 61.7634 89.0194 61.7654 89.8651C61.7693 90.0763 61.7726 90.2856 61.7765 90.4936C61.7928 90.7003 61.8091 90.905 61.8247 91.1078C61.8547 91.514 61.8841 91.9117 61.9127 92.299C61.9512 93.0775 62.0568 93.8051 62.1501 94.4806C62.1951 94.8189 62.2374 95.1436 62.2779 95.4527C62.315 95.763 62.3378 96.061 62.403 96.3309C62.5165 96.8753 62.5993 97.3565 62.6717 97.7529C62.8138 98.5477 62.8777 99.0126 62.8777 99.0126C62.8777 99.0126 62.6769 98.5973 62.3548 97.8507C62.1951 97.4771 61.9962 97.0233 61.7863 96.4939C61.5685 95.9671 61.4127 95.3464 61.2132 94.6742C61.116 94.3365 61.0143 93.9844 60.91 93.6206C60.8017 93.2561 60.7613 92.8669 60.6805 92.4724C60.5553 91.6789 60.3349 90.8457 60.3004 89.9655C60.2645 89.5267 60.2273 89.0801 60.1902 88.6283C60.1732 88.402 60.1498 88.1745 60.1387 87.9456C60.1393 87.7168 60.14 87.486 60.1413 87.2552C60.1445 86.3293 60.1374 85.3872 60.241 84.4516C60.2873 83.9841 60.333 83.516 60.3786 83.0504C60.4523 82.5882 60.526 82.1279 60.599 81.6715C60.717 80.7535 60.9804 79.8778 61.1734 79.0211C61.3925 78.1709 61.6604 77.3631 61.9232 76.6042C62.199 75.8485 62.4696 75.1391 62.7695 74.5047C63.0407 73.8599 63.3458 73.2927 63.6092 72.79C63.8759 72.2886 64.1334 71.8648 64.3492 71.5199C64.7828 70.8294 65.2399 70.1207 65.2399 70.1207Z" fill="#701A73"/>
<path d="M65.24 70.1207C65.24 70.1207 61.0463 76.9191 61.8033 85.9649C62.8035 97.9159 69.9917 108.88 69.9917 108.88L65.24 70.1207Z" fill="#701A73"/>
<path d="M57.5739 80.4803C52.8209 91.4723 49.2049 108.649 49.1006 110.606C50.2038 111.245 51.9042 111.99 53.9397 112.763C53.9156 112.678 50.9848 102.099 57.5739 80.4803Z" fill="#701A73"/>
<path d="M126.809 70.0472C126.809 70.0472 127.188 70.3315 127.759 70.9378C128.038 71.2449 128.38 71.6211 128.722 72.0899C129.084 72.5463 129.441 73.096 129.818 73.7056C129.996 74.0166 130.181 74.3406 130.373 74.6764C130.573 75.0096 130.717 75.3818 130.899 75.7502C131.27 76.4876 131.569 77.3 131.879 78.143C132.038 78.5629 132.147 79.005 132.287 79.4451C132.412 79.8884 132.572 80.3318 132.657 80.7941C132.753 81.2544 132.85 81.7186 132.947 82.1841L133.093 82.8844L133.194 83.5918C133.304 84.5391 133.467 85.4825 133.482 86.4208C133.508 86.8882 133.527 87.3531 133.541 87.8115C133.567 88.2698 133.561 88.7223 133.541 89.167C133.519 90.0569 133.482 90.9163 133.426 91.7274C133.34 92.5365 133.239 93.2993 133.143 94.0015C133.095 94.3516 133.049 94.6874 133.005 95.0069C132.937 95.3231 132.872 95.623 132.812 95.9047C132.694 96.468 132.575 96.9551 132.48 97.3567C132.289 98.158 132.16 98.6105 132.16 98.6105C132.16 98.6105 132.145 98.1352 132.151 97.3137C132.156 96.9029 132.156 96.4048 132.177 95.8369C132.185 95.5533 132.194 95.252 132.203 94.9339C132.199 94.6157 132.193 94.2806 132.189 93.9317C132.178 93.2341 132.169 92.4811 132.182 91.6876C132.154 90.8935 132.091 90.0583 132.073 89.1957C132.077 88.3311 131.921 87.449 131.87 86.5479C131.82 85.6449 131.659 84.7432 131.545 83.835L131.463 83.153L131.337 82.4814C131.254 82.0341 131.17 81.5882 131.088 81.1461C130.889 80.2712 130.702 79.4046 130.481 78.5773C130.221 77.7636 130.032 76.9519 129.75 76.2177C129.504 75.4692 129.223 74.782 128.969 74.1391C128.845 73.8164 128.688 73.5276 128.566 73.2368C128.441 72.946 128.317 72.6735 128.183 72.4264C127.932 71.9217 127.698 71.4894 127.495 71.1347C127.284 70.7892 127.125 70.5056 126.998 70.3276C126.875 70.145 126.809 70.0472 126.809 70.0472Z" fill="#701A73"/>
<path d="M109.544 63.5351C109.544 63.5351 107.646 72.5399 99.6654 72.6976C91.9673 72.8502 89.238 63.455 89.238 63.455C89.238 63.455 88.1642 63.4276 84.9805 63.7679C84.9753 68.2263 89.4708 76.8104 99.4632 76.8104C108.34 76.8104 113.458 70.2729 113.458 64.1337C110.96 63.5841 109.544 63.5351 109.544 63.5351Z" fill="white"/>
<path d="M110.403 66.8725C110.403 66.8725 110.373 67.1914 110.235 67.7358C110.095 68.2782 109.848 69.0495 109.399 69.9147C109.174 70.3464 108.912 70.8099 108.575 71.2618C108.249 71.7201 107.867 72.1843 107.415 72.6107C106.533 73.4896 105.378 74.2199 104.125 74.6919C103.812 74.8132 103.486 74.8888 103.168 74.986C102.843 75.0499 102.521 75.1333 102.197 75.1776C101.551 75.28 100.908 75.2976 100.293 75.2839C99.6762 75.2787 99.0894 75.1894 98.5371 75.1085C97.9901 74.9957 97.4737 74.8953 97.0141 74.7408C96.7833 74.6697 96.5603 74.6085 96.353 74.5387C96.1482 74.4585 95.9539 74.3829 95.772 74.3118C95.4062 74.1775 95.0966 74.0386 94.8468 73.9115C94.3442 73.6657 94.0645 73.5164 94.0645 73.5164C94.0645 73.5164 94.3807 73.5731 94.9212 73.6885C95.1891 73.7543 95.5197 73.8111 95.8959 73.8776C96.2708 73.9519 96.6939 74.019 97.1562 74.0777C97.6152 74.1553 98.1179 74.1742 98.6415 74.2329C99.1683 74.2505 99.7198 74.2668 100.286 74.244C100.854 74.2277 101.431 74.1449 102.01 74.053C102.301 74.0067 102.585 73.9245 102.875 73.8626C103.155 73.7687 103.443 73.6957 103.717 73.5842C104.277 73.3886 104.811 73.1304 105.315 72.835C105.807 72.5247 106.298 72.2156 106.718 71.842C107.145 71.4776 107.544 71.102 107.891 70.7115C108.24 70.3242 108.55 69.9336 108.823 69.562C109.364 68.8135 109.758 68.1374 110.016 67.6517C110.277 67.1666 110.403 66.8725 110.403 66.8725Z" fill="white"/>
<path d="M117.093 36.9542C116.399 36.574 115.42 36.885 114.69 37.2958C115.796 26.9636 109.271 16.0858 99.6054 16.4267C89.6801 16.7775 84.118 27.1266 84.5287 36.8805C83.5233 36.1691 82.3276 35.6384 81.6097 36.4534C78.9509 39.4709 82.9581 45.672 85.6065 44.8779C85.9566 44.7729 86.132 44.2043 86.3087 43.8718C86.3087 43.8718 87.1197 51.7329 88.9564 53.4614C95.0213 59.1683 95.0213 59.1683 99.9432 59.1539C104.731 59.1402 104.731 59.0913 110.131 53.5957C111.817 51.8796 112.442 44.4247 112.442 44.4247C112.693 44.9281 113.218 45.151 113.738 45.1791C115.431 45.271 121.273 39.2401 117.093 36.9542Z" fill="#FF8F6A"/>
<path d="M90.0427 36.9958C89.7656 37.1536 89.5882 37.1047 89.5745 36.8035C89.5471 36.2147 89.6925 35.418 90.0453 34.8983C90.6842 33.9562 94.1209 32.6705 94.647 33.2305C95.1739 33.7899 95.2215 34.187 95.2215 34.187C95.2215 34.187 95.273 33.387 95.2182 33.2188C95.2182 33.2188 95.777 33.848 95.6974 34.9733C95.6511 35.6312 95.4549 35.6677 95.4549 35.6677C95.4549 35.6677 93.3698 35.1076 90.0427 36.9958Z" fill="#591C16"/>
<path d="M109.032 37.0795C109.266 37.232 109.453 37.1818 109.465 36.9165C109.49 36.3414 109.43 35.5173 109.106 34.9579C108.547 33.9955 105.323 32.5931 104.785 33.1329C104.247 33.6728 104.178 34.0666 104.178 34.0666C104.178 34.0666 104.175 33.2673 104.237 33.1017C104.237 33.1017 103.714 33.8104 103.682 34.6521C103.656 35.31 103.868 35.5349 103.868 35.5349C103.868 35.5349 105.922 35.0446 109.032 37.0795Z" fill="#591C16"/>
<path d="M90.043 36.9927C93.3701 35.1038 95.4552 35.6646 95.4552 35.6646C95.4552 35.6646 95.6514 35.6281 95.6977 34.9695C95.7766 33.8449 95.2185 33.2157 95.2185 33.2157C95.2733 33.3839 95.2218 34.1839 95.2218 34.1839C95.2218 34.1839 95.1735 33.7868 94.6474 33.2268C94.6474 33.2268 94.8332 33.7862 94.7282 34.3058C94.4811 35.5342 91.6495 35.3073 90.043 36.9927Z" fill="#280803"/>
<path d="M109.032 37.0783C109.266 37.2315 109.454 37.1807 109.466 36.9153C109.49 36.3409 109.43 35.5161 109.106 34.9567C109.001 34.7768 108.803 34.5812 108.547 34.3862C108.547 34.3862 109.865 36.487 107.686 35.7782C105.507 35.0702 103.868 35.5344 103.868 35.5344C103.868 35.5344 105.922 35.0435 109.032 37.0783Z" fill="#280803"/>
<path d="M85.5031 43.0062C84.482 40.1205 82.8384 39.683 82.8384 39.683C82.8384 39.683 80.7944 28.5534 81.4287 26.3027C82.3161 23.1516 90.7992 12.4863 98.8175 12.7791C107.376 13.0907 116 23.1549 116.666 25.7179C117.513 28.985 116.119 40.4106 116.119 40.4106C116.119 40.4106 114.544 41.3006 114.277 41.9584L113.746 43.2533L113.328 43.1379C113.328 43.1379 115.142 31.9073 112.979 30.9247C111.196 30.1136 111.115 30.1684 109.268 27.5696C106.67 23.9145 104.837 26.6926 100.005 26.8661C94.8794 27.0499 92.055 23.6113 90.337 27.1686C88.6991 30.5609 88.6991 30.5609 86.7438 31.4431C83.6886 32.8214 86.0084 42.9553 86.0084 42.9553L85.5031 43.0062Z" fill="#591C16"/>
<path d="M98.0189 0.0591297C101.225 0.0591297 108.178 5.22163 108.757 6.46759C109.571 8.22211 105.482 14.6664 105.34 14.6032C105.198 14.5406 92.4091 14.6032 92.4091 14.6032C92.4091 14.6032 87.6378 9.8221 88.1463 6.90573C88.5167 4.78413 95.0164 0.0591297 98.0189 0.0591297Z" fill="#591C16"/>
<path d="M91.4146 10.1594C91.4146 10.1594 91.2718 9.96578 91.0696 9.59806C90.8669 9.23033 90.6054 8.68853 90.3824 8.00067C90.2755 7.65642 90.164 7.27761 90.0988 6.86555C90.0251 6.45479 89.9723 6.01274 89.9828 5.54982C89.9828 5.08821 90.0336 4.60247 90.1608 4.1213C90.2762 3.63687 90.4946 3.16482 90.7554 2.71951C91.0325 2.28007 91.3865 1.88887 91.7777 1.55766C91.9746 1.39401 92.1859 1.25056 92.3945 1.11364C92.6149 0.996283 92.8242 0.863271 93.0445 0.766124C93.2675 0.676148 93.4781 0.564672 93.6991 0.498169C93.9182 0.431665 94.1334 0.366466 94.3427 0.30257C94.7671 0.206727 95.1668 0.118061 95.5417 0.086113C95.7288 0.0659008 95.9055 0.036561 96.0763 0.0274334C96.2465 0.0215654 96.4075 0.0163498 96.5594 0.0111332C96.7107 0.00722218 96.8515 -0.000622749 96.9826 2.95639e-05C97.113 0.00524521 97.2336 0.0111132 97.3418 0.0163288C97.7748 0.036541 98.0193 0.059371 98.0193 0.059371C98.0193 0.059371 97.7767 0.113486 97.3562 0.18977C97.2512 0.208678 97.1352 0.229552 97.0087 0.252372C96.8835 0.281059 96.7485 0.311688 96.6038 0.344288C96.3156 0.405576 95.9922 0.479261 95.6479 0.579668C95.2991 0.663124 94.9399 0.801989 94.5559 0.924563C94.372 1.0028 94.1829 1.08301 93.9893 1.16516C93.7989 1.24992 93.6157 1.35358 93.424 1.44812C93.2336 1.54592 93.0621 1.67501 92.877 1.78716C92.7876 1.84779 92.7088 1.92018 92.6233 1.98668C92.5405 2.05514 92.446 2.11251 92.3717 2.1901C92.0561 2.48284 91.7653 2.80558 91.5397 3.17135C91.3174 3.53647 91.1218 3.92374 91.0149 4.33776C90.9034 4.74851 90.8088 5.16515 90.7867 5.58112C90.7567 5.99514 90.7495 6.40263 90.7762 6.79122C90.7984 7.17916 90.8447 7.54754 90.893 7.88918C90.951 8.22822 91.0044 8.54248 91.067 8.81892C91.129 9.09472 91.1857 9.33726 91.2385 9.53547C91.3435 9.93253 91.4146 10.1594 91.4146 10.1594Z" fill="#350704"/>
<path d="M91.6201 13.6007C91.6201 13.6007 90.9042 13.1345 89.9868 12.2543C89.758 12.0346 89.5141 11.7914 89.2716 11.5202C89.029 11.2496 88.7748 10.9601 88.5387 10.6394C88.0595 10.0056 87.6044 9.27603 87.3071 8.46495C87.1572 8.06071 87.0587 7.633 87.0229 7.20203C86.9818 6.77301 87.0418 6.3264 87.1415 5.9502C87.2413 5.54987 87.3873 5.17954 87.5947 4.8542C87.8013 4.53146 88.0582 4.25566 88.3458 4.06854C88.6268 3.8736 88.9254 3.76276 89.1907 3.70213C89.4581 3.64084 89.6947 3.6291 89.8864 3.63562C90.0788 3.63953 90.2268 3.66627 90.3265 3.68583C90.4256 3.70539 90.4771 3.72169 90.4771 3.72169C90.4771 3.72169 90.2594 3.70212 89.8942 3.75688C89.5343 3.81165 89.016 3.9564 88.572 4.34108C88.351 4.53146 88.1599 4.78183 88.0061 5.07197C87.8587 5.36471 87.7498 5.7044 87.6801 6.05452C87.6077 6.42811 87.579 6.77954 87.6149 7.15509C87.6488 7.52868 87.7511 7.90488 87.8802 8.27456C88.143 9.01588 88.5557 9.71808 88.9769 10.3531C89.1927 10.6687 89.4039 10.9738 89.6211 11.2535C89.8382 11.5326 90.0429 11.7979 90.2424 12.0366C91.0372 12.9917 91.6201 13.6007 91.6201 13.6007Z" fill="#490F06"/>
<path d="M98.8482 15.9219C98.8482 15.9219 99.066 15.6819 99.4226 15.2503C99.7806 14.8187 100.275 14.1928 100.82 13.4182C101.089 13.0283 101.371 12.6013 101.65 12.1423C101.924 11.6807 102.194 11.1858 102.445 10.6648C102.695 10.1432 102.91 9.58905 103.091 9.02051C103.179 8.73559 103.26 8.4461 103.316 8.15271L103.34 8.04252L103.349 8.00014L103.357 7.94146L103.394 7.7087C103.42 7.54896 103.423 7.42117 103.443 7.27577C103.534 6.10218 103.256 4.91294 102.756 3.90039C102.257 2.88328 101.553 2.0396 100.847 1.42803C100.137 0.817762 99.4239 0.438963 98.8906 0.261621C98.6239 0.170994 98.4055 0.118834 98.2536 0.0921021C98.101 0.0699339 98.0195 0.0588398 98.0195 0.0588398C98.0195 0.0588398 98.1023 0.054286 98.2575 0.0464621C98.4127 0.0458107 98.6454 0.0451384 98.9356 0.0972977C99.5165 0.187273 100.335 0.471553 101.169 1.04335C101.585 1.32762 102.007 1.67838 102.397 2.10218C102.785 2.52533 103.168 3.00391 103.466 3.55549C103.768 4.10447 104.028 4.70495 104.18 5.34782C104.33 5.99068 104.394 6.6642 104.352 7.3364C104.335 7.50462 104.326 7.6924 104.296 7.84301L104.256 8.07577L104.246 8.1338C104.238 8.17944 104.236 8.18139 104.23 8.20681L104.203 8.32743C104.134 8.64952 104.042 8.96444 103.94 9.27218C103.741 9.88896 103.472 10.4679 103.179 11.0071C102.891 11.5483 102.567 12.0458 102.237 12.4989C101.911 12.9546 101.576 13.3654 101.249 13.7286C100.602 14.4614 99.9944 15.0078 99.5582 15.3735C99.1194 15.7393 98.8482 15.9219 98.8482 15.9219Z" fill="#350704"/>
<path d="M98.02 15.1423C98.02 15.1423 98.211 14.9663 98.4842 14.622C98.7581 14.2778 99.1056 13.7601 99.4283 13.1016C99.5861 12.771 99.7387 12.4066 99.8769 12.0147C100.01 11.6209 100.126 11.1991 100.226 10.7583C100.415 9.87552 100.518 8.91317 100.518 7.94496C100.52 7.70633 100.519 7.45206 100.507 7.22647C100.5 6.96893 100.477 6.75181 100.447 6.52622C100.387 6.06852 100.282 5.62451 100.127 5.21245C99.9688 4.80169 99.785 4.41311 99.5587 4.07081C99.3325 3.72917 99.0893 3.41816 98.8337 3.15476C98.3219 2.62729 97.8016 2.26087 97.4215 2.0281C97.0401 1.79534 96.7988 1.69167 96.7988 1.69167C96.7988 1.69167 97.0616 1.72428 97.4991 1.87685C97.934 2.02941 98.5494 2.3026 99.1832 2.79681C99.4974 3.04522 99.8208 3.34253 100.106 3.70373C100.393 4.06363 100.665 4.47308 100.865 4.93339C101.07 5.39044 101.226 5.88661 101.318 6.39973C101.361 6.65988 101.395 6.93501 101.41 7.17364C101.429 7.44422 101.429 7.68937 101.432 7.94952C101.433 8.46329 101.388 8.97706 101.326 9.48106C101.266 9.9857 101.153 10.4767 101.018 10.9435C100.886 11.4116 100.716 11.853 100.523 12.2573C100.335 12.6634 100.12 13.0312 99.8958 13.3533C99.4544 14.002 98.9765 14.4623 98.6185 14.7453C98.2599 15.0315 98.02 15.1423 98.02 15.1423Z" fill="#350704"/>
<path d="M106.541 4.33909C106.541 4.33909 106.715 4.2752 107.041 4.24064C107.204 4.22565 107.407 4.21586 107.639 4.2465C107.871 4.27323 108.138 4.3417 108.401 4.48905C108.665 4.63314 108.915 4.86851 109.082 5.16713C109.17 5.31448 109.234 5.47552 109.286 5.64243L109.319 5.76957L109.344 5.89997C109.358 5.97951 109.374 6.05645 109.381 6.15164C109.419 6.51806 109.407 6.86883 109.352 7.22873C109.297 7.58472 109.217 7.9394 109.114 8.28561C108.9 8.97673 108.615 9.63655 108.306 10.2325C108.156 10.5324 107.992 10.8128 107.835 11.0768C107.68 11.3415 107.521 11.5847 107.371 11.8077C106.774 12.6996 106.281 13.2284 106.281 13.2284C106.281 13.2284 106.596 12.596 107.069 11.648C107.182 11.4106 107.304 11.1531 107.434 10.8812C107.564 10.61 107.687 10.3192 107.821 10.0212C108.077 9.4227 108.338 8.77983 108.529 8.12457C108.625 7.79792 108.712 7.46996 108.767 7.14462C108.818 6.82319 108.849 6.49328 108.837 6.2051C108.818 5.88366 108.771 5.6157 108.662 5.36598C108.555 5.12149 108.389 4.92523 108.199 4.77658C107.806 4.48644 107.348 4.39973 107.04 4.36191C106.727 4.32736 106.541 4.33909 106.541 4.33909Z" fill="#350704"/>
<path d="M109.949 7.22417C109.949 7.22417 110.003 7.32783 110.063 7.52474C110.089 7.62319 110.128 7.7438 110.147 7.88463C110.174 8.02612 110.194 8.18651 110.199 8.3632C110.209 8.54054 110.202 8.73288 110.184 8.93631C110.156 9.13777 110.136 9.35423 110.069 9.56874C110.02 9.78781 109.94 10.0062 109.851 10.226C109.764 10.4463 109.638 10.6537 109.525 10.8669C109.385 11.0631 109.259 11.2698 109.105 11.451C108.947 11.6284 108.791 11.8044 108.627 11.9596C108.459 12.1109 108.289 12.2497 108.131 12.3808C107.965 12.5034 107.796 12.6057 107.645 12.7029C107.569 12.7505 107.496 12.7968 107.427 12.8398C107.355 12.8796 107.283 12.9109 107.217 12.9435C107.086 13.008 106.968 13.0595 106.873 13.1019C106.68 13.186 106.569 13.2284 106.569 13.2284C106.569 13.2284 106.654 13.1436 106.805 13.0048C106.882 12.9363 106.973 12.8522 107.081 12.7616C107.191 12.6735 107.304 12.562 107.426 12.4408C107.547 12.3189 107.682 12.193 107.822 12.0594C107.952 11.914 108.085 11.7607 108.231 11.6108C108.372 11.4563 108.489 11.2757 108.63 11.1107C108.761 10.9379 108.873 10.7502 108.999 10.5709C109.102 10.3798 109.218 10.194 109.308 10.001C109.394 9.80542 109.495 9.61895 109.555 9.424C109.629 9.23362 109.682 9.04389 109.736 8.86329C109.777 8.68073 109.824 8.50664 109.851 8.34364C109.967 7.69034 109.949 7.22417 109.949 7.22417Z" fill="#490F06"/>
<path d="M100.006 26.8656C100.006 26.8656 100.295 26.906 100.795 26.9054C101.29 26.9034 102.014 26.8689 102.774 26.5963C103.152 26.4594 103.523 26.2469 103.84 25.9561C103.998 25.8107 104.134 25.6385 104.254 25.4521C104.38 25.2604 104.461 25.0733 104.571 24.8229C104.748 24.3919 104.867 23.8958 104.926 23.397C104.985 22.8956 104.975 22.3766 104.902 21.8635C104.838 21.3497 104.717 20.8392 104.545 20.3515C104.37 19.8651 104.171 19.3911 103.926 18.9549C103.444 18.0793 102.854 17.3308 102.27 16.7551C101.974 16.4728 101.692 16.2172 101.42 16.0158C101.151 15.811 100.902 15.6474 100.693 15.517C100.479 15.3964 100.311 15.2927 100.19 15.236C100.07 15.1747 100.006 15.1421 100.006 15.1421C100.006 15.1421 100.076 15.159 100.208 15.1916C100.341 15.2216 100.533 15.2764 100.775 15.3605C101.012 15.4505 101.303 15.5646 101.615 15.736C101.933 15.8977 102.272 16.1162 102.622 16.3802C102.975 16.6417 103.33 16.9592 103.669 17.3289C104.01 17.696 104.342 18.11 104.629 18.5735C104.917 19.0358 105.187 19.5352 105.382 20.0738C105.58 20.6104 105.732 21.1763 105.81 21.7559C105.88 22.3355 105.882 22.9269 105.802 23.502C105.725 24.0803 105.545 24.624 105.3 25.143C105.188 25.3628 105.052 25.6418 104.873 25.8557C104.699 26.0773 104.504 26.2788 104.288 26.4438C103.859 26.7795 103.374 26.9719 102.927 27.0736C102.479 27.1805 102.062 27.1955 101.7 27.1844C101.337 27.174 101.028 27.1257 100.777 27.0775C100.525 27.0306 100.333 26.9712 100.203 26.9321C100.074 26.8917 100.006 26.8656 100.006 26.8656Z" fill="#350704"/>
<path d="M86.2487 30.3604C84.3364 31.5125 84.6141 35.2855 85.2218 37.4097C85.2218 37.411 85.2225 37.4117 85.2225 37.4124C85.0608 34.7985 85.2844 32.1071 86.7553 31.4433C88.7106 30.5612 88.7106 30.5612 90.3484 27.1689C91.063 25.6895 91.9693 25.4222 93.1527 25.5989V25.5982C93.1527 25.5982 91.3004 24.7434 89.9012 25.889C88.6969 26.8742 88.9786 28.7154 86.2487 30.3604Z" fill="#350704"/>
<path d="M95.5611 15.2833C95.5611 15.2833 95.4633 15.4515 95.2912 15.7462C95.1217 16.0403 94.8889 16.4621 94.6262 16.9687C94.3673 17.4773 94.0791 18.0719 93.8314 18.7239C93.7029 19.0479 93.5914 19.387 93.4865 19.7312C93.3932 20.0781 93.2974 20.4302 93.2485 20.7862C93.1859 21.1402 93.1611 21.4968 93.1572 21.845C93.1637 22.1932 93.182 22.5368 93.2511 22.8615C93.3665 23.5154 93.6201 24.1003 93.9044 24.5769C93.9683 24.7001 94.0478 24.8077 94.1215 24.9133C94.1952 25.0176 94.2578 25.1245 94.3308 25.2139C94.4821 25.3886 94.5994 25.5594 94.7161 25.6826C94.9476 25.9304 95.0773 26.0836 95.0773 26.0836C95.0773 26.0836 94.9007 25.993 94.5949 25.813C94.4423 25.7231 94.2741 25.592 94.0752 25.4434C93.8907 25.2817 93.6684 25.1037 93.4747 24.867C93.2668 24.6408 93.0679 24.3695 92.8932 24.0618C92.7217 23.7527 92.56 23.4104 92.4596 23.0362C92.4342 22.943 92.4081 22.8484 92.3827 22.7532C92.3657 22.6567 92.3487 22.5596 92.3318 22.4618C92.2914 22.2662 92.2822 22.066 92.2692 21.8646C92.2581 21.6624 92.2659 21.4597 92.2731 21.2569C92.2966 21.0554 92.3038 20.8501 92.3435 20.6519C92.4055 20.2502 92.5137 19.861 92.6376 19.4854C92.7673 19.1118 92.916 18.7532 93.0862 18.4201C93.2479 18.083 93.4402 17.7759 93.6214 17.4871C93.8053 17.1995 93.995 16.9381 94.1802 16.7053C94.5466 16.2359 94.8935 15.8792 95.1471 15.6413C95.4001 15.4026 95.5611 15.2833 95.5611 15.2833Z" fill="#350704"/>
<path d="M99.4996 15.5337C102.063 15.5298 105.282 14.5779 105.341 14.6033C105.482 14.6665 109.572 8.22222 108.757 6.4677C108.179 5.22174 101.225 0.0592403 98.0195 0.0592403C98.0195 0.0592403 104.167 1.14221 105.681 7.33159C106.801 11.9106 99.4996 15.533 99.4996 15.5337Z" fill="#350704"/>
<path d="M113.329 43.1379L113.747 43.2533C114.787 40.9231 116.12 40.4106 116.12 40.4106C116.12 40.4106 117.514 28.985 116.667 25.7179C116.158 23.758 112.611 17.6403 104.768 14.3999L101.441 15.5337C101.799 15.6622 105.829 16.2085 107.179 20.5913C108.068 23.4763 106.505 25.6449 106.505 25.6449C107.258 25.8392 108.092 25.9128 109.269 27.5696C111.116 30.1684 111.197 30.1136 112.98 30.9247C115.143 31.9073 113.329 43.1379 113.329 43.1379Z" fill="#350704"/>
<path d="M90.9414 13.0889L92.3451 14.6034C92.3451 14.6034 97.2038 16.2139 98.8325 16.2139C100.461 16.2139 105.369 14.6178 105.369 14.6178L105.68 14.1712C105.68 14.1712 101.084 14.7958 99.0235 14.8655C96.9626 14.9346 90.9414 13.0889 90.9414 13.0889Z" fill="#42B2A2"/>
<path d="M91.2373 15.2624C91.2373 15.2624 97.5401 16.3806 98.8337 16.2143C100.127 16.0481 105.681 14.1716 105.681 14.1716L106.281 13.2282C106.281 13.2282 100.794 15.593 98.6557 15.6295C96.5165 15.666 92.3151 14.57 92.3151 14.57L91.2373 15.2624Z" fill="#42B2A2"/>
<path d="M106.887 14.9752C106.887 14.9752 107.164 15.0325 107.633 15.1845C108.102 15.337 108.766 15.5828 109.523 15.9603C109.903 16.1455 110.306 16.3646 110.718 16.6182C111.131 16.8712 111.557 17.1541 111.975 17.4769C112.391 17.8003 112.815 18.1452 113.207 18.5357C113.609 18.9171 113.978 19.3396 114.334 19.7719C114.505 19.9929 114.67 20.2198 114.83 20.4473C114.978 20.6821 115.142 20.907 115.273 21.1476C115.409 21.3856 115.55 21.6183 115.659 21.8635C115.775 22.1047 115.891 22.3427 115.983 22.5859C116.08 22.8258 116.18 23.0612 116.247 23.3011C116.322 23.5385 116.401 23.7686 116.451 24.0001C116.504 24.2302 116.573 24.4499 116.606 24.6697C116.642 24.8881 116.677 25.0987 116.71 25.3015C116.753 25.7089 116.798 26.0812 116.8 26.4131C116.803 26.745 116.82 27.0325 116.798 27.2698C116.766 27.7425 116.747 28.0125 116.747 28.0125C116.747 28.0125 116.721 27.7438 116.677 27.2737C116.665 27.039 116.605 26.7574 116.568 26.4333C116.55 26.2716 116.515 26.1015 116.477 25.9222C116.439 25.7429 116.409 25.5538 116.365 25.3588C116.264 24.9709 116.161 24.5517 116.013 24.1181C115.95 23.899 115.859 23.6819 115.772 23.4583C115.689 23.2333 115.591 23.009 115.486 22.7835C115.286 22.3271 115.029 21.8785 114.762 21.4286C114.634 21.2004 114.473 20.9879 114.33 20.7649C114.174 20.5497 114.014 20.3359 113.849 20.1253C113.513 19.7086 113.165 19.2985 112.784 18.9282C112.41 18.552 112.024 18.1967 111.632 17.872C111.237 17.5499 110.847 17.2467 110.462 16.9774C110.075 16.7101 109.703 16.463 109.349 16.2505C108.643 15.8208 108.026 15.5026 107.587 15.2914C107.148 15.0788 106.887 14.9752 106.887 14.9752Z" fill="#350704"/>
<path d="M99.6582 16.2304C99.6582 16.2304 99.7762 16.237 99.9796 16.2826C100.078 16.3106 100.204 16.3367 100.337 16.3915C100.475 16.4384 100.624 16.5036 100.784 16.5845C100.94 16.6679 101.113 16.7599 101.276 16.8805C101.359 16.9405 101.445 17.0024 101.531 17.0657C101.617 17.1308 101.693 17.2091 101.776 17.2828C101.946 17.4282 102.092 17.6042 102.247 17.7783C102.389 17.9608 102.526 18.1538 102.65 18.352C102.757 18.5587 102.886 18.7569 102.967 18.9701C103.051 19.1814 103.139 19.3887 103.195 19.596C103.255 19.8027 103.3 20.0055 103.345 20.1959C103.375 20.3895 103.394 20.5734 103.412 20.7416C103.42 20.8257 103.428 20.9066 103.436 20.9835C103.435 21.0611 103.435 21.1341 103.434 21.2032C103.434 21.3408 103.427 21.4607 103.423 21.5592C103.412 21.7554 103.4 21.8669 103.4 21.8669C103.4 21.8669 103.361 21.7587 103.302 21.5716C103.274 21.4783 103.237 21.3649 103.202 21.2352C103.171 21.1048 103.122 20.9613 103.067 20.8061C103.013 20.6503 102.957 20.4828 102.903 20.3048C102.832 20.1326 102.755 19.952 102.687 19.7629C102.619 19.5739 102.507 19.3952 102.427 19.2022C102.341 19.0105 102.221 18.8326 102.122 18.6448C102.011 18.4635 101.89 18.2888 101.772 18.1154C101.637 17.955 101.528 17.777 101.385 17.6348C101.253 17.4829 101.119 17.3414 100.984 17.213C100.849 17.0839 100.714 16.9685 100.589 16.8616C100.458 16.7612 100.34 16.664 100.227 16.5877C100.117 16.5069 100.015 16.4449 99.9314 16.3889C99.7625 16.2839 99.6582 16.2304 99.6582 16.2304Z" fill="#350704"/>
<path d="M84.6153 29.9089C84.6153 29.9089 84.5573 30.0367 84.4738 30.2603C84.436 30.3738 84.3858 30.5087 84.3388 30.6672C84.286 30.823 84.2436 31.0042 84.1889 31.1966C84.1458 31.3935 84.0917 31.6034 84.0526 31.829C84.0324 31.9412 84.0122 32.0566 83.9913 32.1746C83.9763 32.2932 83.96 32.4145 83.9444 32.5377C83.9007 32.7822 83.9046 33.0411 83.8746 33.2993C83.8603 33.5588 83.859 33.8235 83.8564 34.0875C83.8681 34.3516 83.8635 34.6169 83.8857 34.8771C83.919 35.1366 83.9222 35.3948 83.9548 35.6425C83.9952 35.889 84.0233 36.1302 84.052 36.3591C84.093 36.5866 84.1322 36.8018 84.1687 37C84.2039 37.1995 84.2313 37.3853 84.273 37.5451C84.3115 37.7061 84.3395 37.8489 84.3636 37.9662C84.4099 38.2023 84.4321 38.3398 84.4321 38.3398C84.4321 38.3398 84.3623 38.2205 84.2489 38.0047C84.1928 37.8971 84.1237 37.7661 84.0507 37.6129C83.9705 37.4616 83.8994 37.2849 83.8303 37.088C83.7586 36.8924 83.6732 36.6818 83.6067 36.4523C83.546 36.2209 83.4802 35.9764 83.4234 35.7214C83.3732 35.4652 83.3328 35.1972 83.2983 34.924C83.2683 34.6509 83.2637 34.3705 83.2461 34.0914C83.2552 33.8117 83.2644 33.5314 83.2872 33.2569C83.3211 32.9824 83.353 32.7125 83.415 32.4562C83.4437 32.3278 83.4665 32.2007 83.5004 32.0781C83.5388 31.9575 83.5753 31.8388 83.6119 31.7234C83.6797 31.4926 83.7762 31.2827 83.8583 31.0897C83.9476 30.898 84.0344 30.7258 84.125 30.5791C84.2065 30.4292 84.2984 30.3086 84.3669 30.2069C84.5149 30.0087 84.6153 29.9089 84.6153 29.9089Z" fill="#350704"/>
<path d="M92.7094 15.9218C92.7094 15.9218 92.6253 15.9629 92.4845 16.0398C92.343 16.1142 92.1454 16.225 91.9172 16.36C91.8031 16.4278 91.6825 16.504 91.5567 16.5849C91.4282 16.6612 91.3076 16.7629 91.172 16.8483C91.0442 16.9461 90.9131 17.0465 90.7867 17.1541C90.6634 17.2649 90.5298 17.3686 90.4176 17.4925C90.359 17.5512 90.2964 17.6079 90.2396 17.6679L90.0792 17.8556C89.9664 17.9756 89.8752 18.1073 89.7819 18.2338C89.6835 18.357 89.615 18.4913 89.5348 18.6133C89.454 18.7352 89.3933 18.8578 89.336 18.9732C89.2832 19.0892 89.214 19.1916 89.1762 19.29C89.1391 19.3885 89.0999 19.4739 89.0687 19.5456C89.0048 19.6884 88.9617 19.7719 88.9617 19.7719C88.9617 19.7719 88.9532 19.6832 88.9493 19.5247C88.948 19.4459 88.9454 19.3487 88.9493 19.2379C88.9493 19.1257 88.9787 19.0038 89.0028 18.8682C89.0269 18.7326 89.0543 18.5833 89.1182 18.4366C89.1762 18.2892 89.2212 18.1223 89.3177 17.9736C89.407 17.8224 89.4846 17.6542 89.6078 17.512C89.6652 17.4384 89.7233 17.364 89.7813 17.289C89.8452 17.2193 89.9136 17.1528 89.9801 17.085C90.1118 16.9461 90.2638 16.8294 90.4124 16.7153C90.5604 16.5999 90.7254 16.5125 90.8766 16.4193C91.1922 16.2517 91.5006 16.1252 91.7764 16.0535C92.0496 15.9753 92.2849 15.942 92.4499 15.929C92.6149 15.9146 92.7094 15.9218 92.7094 15.9218Z" fill="#350704"/>
<path d="M92.3138 14.5695C92.3138 14.5695 92.2499 14.589 92.1345 14.634C92.0178 14.6738 91.8528 14.7514 91.6403 14.8374C91.4329 14.9372 91.1786 15.048 90.8983 15.2C90.6127 15.3395 90.3095 15.5299 89.9718 15.7222C89.8062 15.8239 89.6399 15.9393 89.4645 16.0534C89.3772 16.1101 89.2879 16.1682 89.1979 16.2269C89.1112 16.2901 89.0225 16.3553 88.9332 16.4205C88.7558 16.5522 88.5726 16.6872 88.3861 16.8247C88.2082 16.9727 88.0256 17.124 87.8404 17.2772C87.7478 17.3535 87.6546 17.4304 87.5601 17.508C87.4721 17.5921 87.3827 17.6762 87.2934 17.7616C87.1135 17.9299 86.9309 18.1007 86.747 18.2728C86.4002 18.6353 86.0442 19.0017 85.7117 19.3871C85.5493 19.5833 85.387 19.7796 85.2253 19.9745C85.0642 20.1708 84.8967 20.3605 84.7591 20.5698C84.4794 20.9838 84.1619 21.3659 83.9109 21.7708C83.6631 22.1776 83.4134 22.5655 83.1774 22.9352C82.9668 23.3192 82.7673 23.6818 82.5834 24.0169C82.4908 24.1844 82.4015 24.3448 82.3167 24.4981C82.2333 24.6519 82.1681 24.8038 82.0996 24.9434C81.964 25.2237 81.8453 25.4689 81.7475 25.6703C81.5448 26.072 81.4287 26.3021 81.4287 26.3021C81.4287 26.3021 81.503 26.0576 81.6341 25.6293C81.7032 25.4154 81.7873 25.1559 81.8838 24.8586C81.9347 24.7106 81.9816 24.5502 82.0455 24.3866C82.1153 24.2249 82.1883 24.0547 82.2646 23.8774C82.4191 23.5227 82.5814 23.1354 82.7731 22.7338C82.9857 22.3432 83.2087 21.9285 83.4499 21.5054C83.562 21.2883 83.7113 21.0881 83.8483 20.8775C83.9871 20.6669 84.1299 20.4557 84.2766 20.2444C84.4161 20.028 84.585 19.8298 84.7487 19.6257C84.913 19.4223 85.0773 19.2182 85.2422 19.0135C85.591 18.6203 85.9646 18.2454 86.3285 17.8757C86.5234 17.703 86.717 17.5321 86.9087 17.3626C87.0046 17.2785 87.0998 17.1951 87.195 17.1123C87.296 17.036 87.3958 16.9597 87.4949 16.8847C87.6937 16.7354 87.8893 16.588 88.081 16.4446C88.2831 16.3142 88.4807 16.1877 88.6737 16.0639C88.8634 15.9374 89.0544 15.8233 89.2468 15.7242C89.4378 15.6231 89.6184 15.5207 89.7977 15.4321C90.1615 15.2626 90.4921 15.1067 90.8005 14.9985C91.1004 14.8746 91.3768 14.8003 91.5979 14.7292C92.0497 14.606 92.3138 14.5695 92.3138 14.5695Z" fill="#490F06"/>
<path d="M85.9796 43.7768C85.9796 43.7768 85.3752 48.6432 85.1399 49.4719C84.8993 50.2987 83.5659 54.5842 84.0334 57.6297C84.3907 59.9586 86.097 62.0867 87.8495 63.4774C92.6489 67.2857 98.9361 67.6385 99.7015 67.8393C100.132 67.954 100.902 69.0579 100.902 69.0579C100.902 69.0579 100.775 69.0813 100.533 69.0729C100.292 69.0624 99.9369 69.0279 99.4961 68.9366C98.6133 68.7566 97.3693 68.4202 95.9265 67.8862C95.2047 67.6202 85.0258 64.5741 83.5307 57.7516C82.6336 52.7965 85.9796 43.7768 85.9796 43.7768Z" fill="#490F06"/>
<path d="M93.3608 41.9161C91.5743 42.0869 90.0141 40.7542 89.8746 39.3563C89.8452 39.0636 90.9647 40.7986 93.1789 40.5006C95.5972 40.1746 95.8762 38.4331 95.9603 38.7754C96.1957 39.7325 95.1473 41.7459 93.3608 41.9161Z" fill="#1E0502"/>
<path d="M106.398 41.9056C108.181 42.1103 109.767 40.8083 109.933 39.413C109.969 39.1209 108.816 40.8337 106.608 40.4933C104.196 40.121 103.951 38.3744 103.86 38.7153C103.606 39.6679 104.616 41.7002 106.398 41.9056Z" fill="#1E0502"/>
<path d="M113.747 43.2497L113.328 43.1343C109.622 54.3786 103.6 48.3001 103.6 48.3001L96.3557 48.0849C96.3557 48.0849 89.2157 54.5957 86.0099 42.9517L85.5039 43.0026C86.2061 46.5827 82.9337 53.1255 84.7704 58.5964C86.3248 63.2262 96.7463 69.1326 100.904 69.0583C104.99 68.9852 111.838 63.3553 114.136 59.116C117.116 53.6164 112.811 45.3328 113.747 43.2497Z" fill="#591C16"/>
<path d="M115.565 55.0689C115.458 55.7587 115.298 56.3618 115.026 56.7882C115.305 55.6081 115.563 54.2037 115.466 52.7961C115.343 51.0168 114.884 49.5283 114.884 49.5283C115.065 49.9527 115.241 50.385 115.365 50.8421C115.492 51.2985 115.59 51.7705 115.647 52.2484C115.764 53.2042 115.717 54.1764 115.565 55.0689ZM115.713 50.5623C115.442 49.3249 114.645 47.1935 113.748 45.362C113.655 45.171 113.525 43.8188 113.748 43.2509L113.329 43.1355C111.997 47.1765 110.366 48.98 108.823 49.6326C110.065 51.2489 113.195 58.9861 105.681 67.3643C109.158 65.3235 112.813 61.8184 114.347 58.9887C114.402 58.8864 114.45 58.7814 114.5 58.6771C114.68 58.3589 114.88 57.9762 115.074 57.5244C115.363 56.8424 116.51 54.2057 115.713 50.5623Z" fill="#350704"/>
<path d="M106.535 50.3671C101.585 51.9541 95.0691 50.8757 90.5638 48.801C89.6067 50.9076 90.3584 53.0292 91.8939 54.2276C93.5832 55.5465 97.8752 55.5759 99.6487 52.8792C99.9486 52.4228 100.013 52.415 100.316 52.8695C102.166 55.647 107.096 55.4781 108.826 53.7868C110.248 52.3955 110.836 50.3065 109.262 48.4535C108.573 48.8395 107.816 49.9224 107.019 50.2041C106.892 50.2843 106.731 50.3417 106.535 50.3671Z" fill="#350704"/>
<path d="M108.111 47.4783C106.363 46.9711 106.133 47.8623 106.133 47.8623C106.133 47.8623 106.469 47.7619 107.051 48.0573C107.633 48.3526 107.61 49.5595 106.422 49.6286C105.234 49.6977 104.885 48.6415 103.465 47.2586C102.166 45.995 100.332 46.8993 99.938 47.2586C99.4425 46.8198 97.6723 45.8888 96.3507 47.1523C94.9052 48.5352 94.4651 49.6977 93.2563 49.6286C92.0475 49.5595 92.0241 48.3526 92.6167 48.0573C93.2094 47.7619 93.5504 47.8623 93.5504 47.8623C93.5504 47.8623 93.1272 46.8009 91.6896 47.4581C90.0081 48.2268 89.6841 51.7515 91.893 53.4754C93.5823 54.7943 97.8744 54.8237 99.6472 52.127C99.9471 51.6706 100.012 51.6628 100.315 52.1173C102.165 54.8948 106.625 54.7513 108.355 53.06C110.335 51.1243 109.857 47.9856 108.111 47.4783Z" fill="#591C16"/>
<path d="M98.6617 50.9081C98.6617 50.9081 98.5802 51.3215 98.2216 51.8346C98.052 52.098 97.7991 52.3673 97.4946 52.6229C97.3316 52.7356 97.1744 52.8745 96.9815 52.9625C96.7989 53.0688 96.5994 53.1484 96.3966 53.2201C96.1965 53.3003 95.978 53.3166 95.774 53.3655C95.566 53.3974 95.3567 53.3857 95.1591 53.3961C94.9616 53.385 94.7719 53.3518 94.5939 53.3277C94.4159 53.3035 94.2568 53.237 94.1081 53.1946C93.8076 53.1164 93.5865 52.9723 93.4274 52.8934C93.271 52.8074 93.1855 52.7539 93.1855 52.7539C93.1855 52.7539 93.2873 52.7643 93.4653 52.7826C93.6413 52.7982 93.8812 52.8582 94.1753 52.8641C94.3213 52.8687 94.4765 52.8947 94.6401 52.8921C94.8025 52.8876 94.974 52.8837 95.1507 52.8791C95.3234 52.8556 95.5014 52.8308 95.6827 52.8061C95.8574 52.7559 96.0432 52.7389 96.2121 52.6633C96.5668 52.5616 96.8908 52.3803 97.1934 52.2043C97.3355 52.1026 97.4848 52.0152 97.6106 51.9115C97.7384 51.8092 97.8617 51.7133 97.9679 51.6142C98.4028 51.2282 98.6617 50.9081 98.6617 50.9081Z" fill="#350704"/>
<path d="M101.265 51.0096C101.265 51.0096 101.445 51.2606 101.734 51.5723C101.875 51.7307 102.056 51.8937 102.247 52.0573C102.449 52.208 102.66 52.3677 102.901 52.4733C103.012 52.545 103.142 52.5757 103.26 52.6305C103.385 52.6689 103.508 52.7067 103.628 52.7433C103.875 52.7922 104.113 52.8404 104.326 52.8567C104.539 52.8913 104.721 52.8847 104.852 52.9004C104.983 52.9115 105.061 52.9232 105.061 52.9232C105.061 52.9232 104.995 52.9597 104.873 53.0151C104.751 53.0647 104.576 53.1579 104.347 53.1931C104.12 53.2531 103.845 53.2688 103.547 53.2531C103.4 53.227 103.242 53.2173 103.09 53.171C102.942 53.1142 102.781 53.079 102.64 52.9988C102.496 52.9225 102.356 52.841 102.232 52.7413C102.097 52.6546 101.998 52.532 101.889 52.429C101.694 52.2034 101.541 51.9713 101.452 51.7542C101.257 51.3278 101.265 51.0096 101.265 51.0096Z" fill="#350704"/>
<path d="M97.6581 46.5338C97.6581 46.5338 98.6707 40.1456 100.044 40.1208C101.478 40.0947 102.377 46.4771 102.377 46.4771C102.377 46.4771 103.222 46.2554 103.581 47.223C103.983 48.3046 103.254 48.8497 102.928 48.8536C102.368 48.8601 101.71 47.9056 101.302 48.6117C100.691 49.6732 99.7067 49.709 99.0384 48.9547C98.4118 48.2472 98.4725 48.0464 97.8309 48.3874C97.19 48.7284 96.8438 48.8516 96.3874 48.1429C95.931 47.4349 96.7069 45.9744 97.6581 46.5338Z" fill="#EF6E4B"/>
<path d="M99.0318 44.2909C98.8884 45.1841 98.7188 46.1869 98.5311 46.1595C98.3426 46.1314 98.2859 45.1567 98.4287 44.2635C98.5715 43.3703 99.0298 42.1875 99.2176 42.2149C99.406 42.243 99.1746 43.3976 99.0318 44.2909Z" fill="#FF8F6A"/>
<path d="M109.221 55.2221C109.221 55.2221 109.307 55.4125 109.409 55.762C109.463 55.9361 109.517 56.1493 109.573 56.397C109.618 56.6448 109.686 56.9258 109.715 57.2355C109.734 57.3907 109.753 57.5517 109.774 57.7193C109.783 57.8875 109.792 58.0609 109.802 58.2396C109.827 58.5975 109.809 58.9757 109.802 59.3682C109.785 59.5638 109.766 59.762 109.748 59.9634C109.73 60.1642 109.711 60.3683 109.669 60.5711C109.599 60.9786 109.524 61.3926 109.403 61.7975C109.344 62.0003 109.291 62.2043 109.226 62.4038C109.152 62.6007 109.077 62.797 109.002 62.9913C108.867 63.3851 108.667 63.7476 108.485 64.1003C108.317 64.4602 108.084 64.7725 107.882 65.0757C107.778 65.2257 107.685 65.3763 107.581 65.5119C107.467 65.6423 107.359 65.7681 107.254 65.8888C107.042 66.128 106.858 66.3523 106.667 66.5284C106.474 66.7031 106.3 66.8485 106.16 66.9691C105.877 67.2091 105.709 67.3362 105.709 67.3362C105.709 67.3362 105.819 67.1549 106.022 66.8544C106.124 66.7044 106.245 66.5218 106.392 66.3204C106.531 66.1144 106.657 65.8607 106.819 65.6045C106.897 65.4741 106.978 65.3391 107.062 65.1989C107.136 65.0536 107.211 64.9036 107.289 64.7491C107.441 64.44 107.617 64.1232 107.748 63.7724C107.891 63.4268 108.052 63.078 108.166 62.7038C108.23 62.5192 108.294 62.3334 108.359 62.147C108.417 61.9592 108.463 61.7662 108.516 61.5752C108.636 61.197 108.709 60.8078 108.794 60.4263C108.884 60.0462 108.924 59.6629 108.996 59.2958C109.03 58.9255 109.101 58.5675 109.121 58.2246C109.15 57.8823 109.18 57.5569 109.192 57.255C109.213 56.9532 109.213 56.6761 109.225 56.4283C109.223 56.1825 109.234 55.9647 109.23 55.7867C109.227 55.6074 109.225 55.4666 109.224 55.3708C109.222 55.2736 109.221 55.2221 109.221 55.2221Z" fill="#350704"/>
<path d="M107.506 61.0152C107.506 61.0152 107.534 61.171 107.54 61.4468C107.544 61.7219 107.533 62.1184 107.445 62.5858C107.366 63.0553 107.215 63.5977 106.963 64.1513C106.717 64.7061 106.361 65.2681 105.915 65.7643C105.691 66.0121 105.444 66.2416 105.183 66.4469C104.921 66.6497 104.645 66.8303 104.364 66.977C104.085 67.1276 103.801 67.2456 103.527 67.3382C103.388 67.3793 103.257 67.4295 103.124 67.4588C102.991 67.4875 102.864 67.5149 102.741 67.5416C102.493 67.5814 102.268 67.6153 102.065 67.6218C101.863 67.631 101.689 67.6414 101.545 67.6297C101.256 67.6153 101.095 67.5958 101.095 67.5958C101.095 67.5958 101.251 67.5384 101.518 67.4569C101.653 67.4217 101.81 67.3506 101.992 67.2939C102.173 67.2332 102.369 67.142 102.584 67.0605C102.794 66.9633 103.018 66.8603 103.246 66.7358C103.473 66.6139 103.705 66.475 103.933 66.3179C104.164 66.1646 104.385 65.986 104.604 65.8015C104.818 65.6091 105.031 65.4096 105.223 65.1906C106.011 64.3306 106.57 63.273 106.942 62.4463C107.126 62.031 107.265 61.673 107.361 61.4194C107.454 61.1619 107.506 61.0152 107.506 61.0152Z" fill="#350704"/>
<path d="M43.9451 144.602C43.9451 144.602 50.5283 139.607 67.529 143.154C84.5298 146.7 99.1247 157.279 112.017 163.329C126.082 169.928 128.596 170.158 128.596 170.158C128.596 170.158 133.139 169.139 139.34 167C144.471 165.23 151.136 163.121 152.226 164.348C153.76 166.074 151.443 172.878 144.217 175.378C132.802 179.327 128.43 178.246 128.43 178.246C124.81 177.553 71.5877 171.51 62.7695 168.225C51.8831 164.168 39.4065 155.23 43.9451 144.602Z" fill="#FF8F6A"/>
<path d="M124.403 173.502C124.489 173.366 125.96 171.451 127.214 169.815C128.3 170.145 128.596 170.158 128.596 170.158L134.777 168.478C134.777 168.478 128.84 170.243 128.373 173.003C127.813 176.316 135.193 178.014 141.626 176.227C132.862 179.101 128.748 178.301 128.748 178.301C128.216 178.208 126.574 177.857 124.174 177.589C124.231 175.71 124.319 173.635 124.403 173.502Z" fill="#EF6E4B"/>
<path d="M43.5704 144.232C43.5704 144.232 48.8711 136.8 65.8517 140.445C82.8329 144.089 99.6211 156.94 112.48 163.064C119.79 166.545 125.321 168.524 127.831 169.42C128.08 169.508 128.178 169.817 128.029 170.041C127.262 171.193 126.839 171.816 126.487 173.772C126.257 175.05 126.324 176.747 127.087 177.912C127.19 178.069 127.06 178.278 126.878 178.253C116.482 176.817 70.3224 172.159 62.2657 169.104C51.4015 164.985 38.9738 154.832 43.5704 144.232Z" fill="#42B2A2"/>
<path d="M127.829 169.417C126.845 169.066 125.396 168.548 123.559 167.839C123.559 167.839 112.158 173.713 104.794 173.248C87.6378 172.163 68.2142 168.221 63.0778 166.273C55.2819 163.318 45.1453 156.593 42.6064 149.488C43.0857 158.062 54.2028 166.539 63.2506 169.969C71.3073 173.024 116.481 176.821 126.876 178.257C127.059 178.282 127.189 178.073 127.086 177.916C126.685 177.305 126.363 175.63 126.541 173.918C126.746 171.941 127.261 171.191 128.027 170.038C128.176 169.814 128.078 169.506 127.829 169.417Z" fill="#198E7D"/>
<path d="M152.677 143.394C152.677 143.394 148.382 137.782 131.87 141.881C115.357 145.981 99.1128 157.863 86.6832 164.329C73.1237 171.382 70.6735 171.695 70.6735 171.695C70.6735 171.695 66.206 170.825 60.0877 168.889C55.0262 167.288 48.4554 165.398 47.424 166.66C45.9733 168.435 48.4255 175.158 55.5563 177.42C66.8182 180.993 71.0601 179.771 71.0601 179.771C74.5776 178.96 126.413 171.184 134.938 167.613C145.463 163.205 157.406 153.865 152.677 143.394Z" fill="#FF8F6A"/>
<path d="M74.8624 174.899C74.7744 174.766 73.2839 172.901 72.0132 171.306C70.9608 171.672 70.6727 171.695 70.6727 171.695L64.5863 170.217C64.5863 170.217 70.4366 171.787 70.9693 174.53C71.6089 177.822 64.4448 179.76 58.1094 178.185C66.7522 180.77 70.7496 179.836 70.7496 179.836C71.2673 179.726 72.8614 179.321 75.1988 178.975C75.0919 177.098 74.9478 175.028 74.8624 174.899Z" fill="#EF6E4B"/>
<path d="M153.032 143.012C153.032 143.012 147.574 136.375 131.083 140.572C114.593 144.768 98.618 157.541 86.2236 164.08C79.1782 167.797 73.8279 169.956 71.4005 170.932C71.1599 171.029 71.0732 171.34 71.2245 171.559C72.0049 172.686 72.4365 173.294 72.8343 175.238C73.0944 176.506 73.0761 178.205 72.3629 179.393C72.2664 179.554 72.3987 179.759 72.5767 179.728C82.6944 177.953 127.667 171.791 135.454 168.476C145.956 164.006 157.817 153.455 153.032 143.012Z" fill="#42B2A2"/>
<path d="M71.401 170.929C72.3522 170.547 73.7547 169.981 75.53 169.213L91.4557 161.054C91.4557 161.054 76.9488 168.95 77.2774 172.207C77.5551 174.957 80.4272 176.128 87.6096 175.422C104.343 173.779 129.616 167.787 134.582 165.674C142.116 162.467 151.835 155.416 154.119 148.233C153.888 156.816 144.201 164.758 135.455 168.481C127.667 171.795 82.6948 177.958 72.5772 179.732C72.3992 179.763 72.2662 179.559 72.3626 179.398C72.7375 178.774 73.0062 177.09 72.7845 175.385C72.5289 173.416 72.0054 172.683 71.2249 171.557C71.073 171.338 71.1597 171.027 71.401 170.929Z" fill="#198E7D"/>
</svg>
