<svg width="340" height="226" viewBox="0 0 340 226" fill="none" xmlns="http://www.w3.org/2000/svg">
<path d="M271.806 152.921C270.93 152.921 270.044 152.907 269.141 152.88C254.747 152.438 243.415 147.511 233.526 141.528C237.229 127.912 234.665 111.978 227.911 95.054C219.233 73.3102 204.126 67.3255 186.044 67.3255C177.277 67.3255 167.808 68.7335 158.036 70.4334C156.175 70.7574 154.364 70.9095 152.594 70.9095C137.896 70.9095 126.013 60.4272 111.596 50.801C116.105 34.9791 129.596 22.4879 155.689 15.6503C167.232 12.626 177.124 11.5582 186.026 11.5582C196.713 11.5582 205.974 13.0975 214.955 14.6361C223.935 16.1754 232.634 17.7147 242.198 17.7147C248.027 17.7147 254.177 17.1432 260.908 15.6503C264.326 14.8928 267.888 14.5205 271.521 14.5205C308.294 14.5205 352.294 52.702 326.773 116.119C326.773 116.119 317.373 152.919 271.806 152.921Z" fill="#E2F4E1"/>
<path d="M155.405 183.161C144.209 183.161 134.506 181.548 125.098 179.936C115.691 178.323 106.576 176.711 96.5583 176.711C90.4508 176.711 84.0077 177.31 76.9558 178.873C73.3757 179.667 69.6435 180.057 65.8381 180.057C27.3137 180.057 -18.7824 140.058 7.95416 73.6206C7.95416 73.6206 17.8024 35.0648 65.5396 35.0648C66.4572 35.0648 67.3852 35.0792 68.3315 35.1079C86.3776 35.6617 99.8308 42.946 111.596 50.8011C107.86 63.9069 110.286 79.2977 116.816 95.6589C125.101 116.415 139.52 122.128 156.78 122.127C165.149 122.126 174.187 120.783 183.515 119.16C185.291 118.851 187.019 118.706 188.709 118.706C204.621 118.706 217.076 131.577 233.526 141.528C228.951 158.351 214.809 171.635 187.186 178.873C175.094 182.042 164.731 183.161 155.405 183.161Z" fill="#E2F4E1"/>
<path d="M233.526 141.529C217.077 131.577 204.621 118.706 188.709 118.706C187.019 118.706 185.291 118.851 183.515 119.16C174.187 120.783 165.149 122.127 156.78 122.127C139.52 122.128 125.101 116.415 116.817 95.6591C110.287 79.2978 107.86 63.907 111.596 50.8012C126.014 60.4274 137.896 70.9098 152.594 70.9098C154.365 70.9098 156.175 70.7576 158.036 70.4337C167.808 68.7338 177.277 67.3258 186.044 67.3258C204.126 67.3258 219.233 73.3105 227.911 95.0543C234.665 111.978 237.229 127.912 233.526 141.529Z" fill="#CBECD5"/>
<path d="M114.361 198.373C107.562 198.373 100.629 198.344 93.6913 198.287C34.7227 197.804 8.68035 196.061 5.12506 194.731C-0.186329 192.744 4.17158 189.509 33.0293 188.517C33.0293 188.517 53.7635 188.081 80.2166 188.081C113.068 188.081 154.744 188.752 176.513 191.762C211.332 196.576 167.221 198.373 114.361 198.373Z" fill="#E2F4E1"/>
<path d="M264.668 225.227C263.354 225.227 262.039 225.225 260.739 225.22C191.243 224.978 187.18 224.869 184.755 222.164C183.164 220.391 191.244 216.115 213.803 214.128C216.142 209.638 223.019 204.76 222.217 203.523C220.931 201.539 221.601 196.017 229.51 195.44C229.51 195.44 245.976 193.206 266.084 193.206C277.383 193.206 289.834 193.912 301.153 196.116C318.153 199.426 307.175 206.285 288.872 212.15C295.954 212.788 303.372 213.723 310.989 215.054C355.662 222.861 306.874 225.227 264.668 225.227Z" fill="#E2F4E1"/>
<path d="M19.7028 163.787C19.7028 163.787 16.0065 192.896 19.1549 193.289C22.3027 193.683 28.0242 166.72 28.0242 166.72L19.7028 163.787Z" fill="#1B162C"/>
<path d="M168.655 163.787C168.655 163.787 172.352 192.896 169.204 193.289C166.056 193.683 160.334 166.72 160.334 166.72L168.655 163.787Z" fill="#1B162C"/>
<path d="M16.5735 146.932C16.5735 146.932 18.278 112.569 35.4883 101.984C53.108 91.1481 85.7829 90.8523 124.488 95.7209C170.99 101.57 165.494 145.52 165.494 145.52C177.712 145.996 182.975 148.378 184.62 160.907C186.736 177.023 161.745 173.988 131.402 175.359C92.4624 177.12 29.8412 176.851 16.4129 173.871C2.98451 170.89 -1.05145 155.821 16.5735 146.932Z" fill="#379E90"/>
<path d="M85.1281 147.308C85.1281 147.308 206.156 149.661 122.083 160.28C101.403 162.892 48.7327 161.79 40.6158 160.204C32.4988 158.618 -10.2509 151.327 85.1281 147.308Z" fill="#47676A"/>
<path d="M26.943 121.398C26.943 121.398 52.0847 114.124 54.9204 114.26C57.7566 114.394 57.9584 104.569 62.1119 107.801C66.2648 111.033 64.5217 116.14 64.941 118.192C65.3596 120.243 76.0738 135.137 74.2256 139.388C72.3781 143.637 66.3209 150.929 39.3134 154.827C38.7987 154.901 26.943 162.031 28.8898 153.681C28.8898 153.681 26.2579 146.381 20.778 129.24C19.1095 124.018 14.3166 123.981 17.9633 122.546C21.6107 121.112 26.943 121.398 26.943 121.398Z" fill="#1B162C"/>
<path d="M86.5898 63.1043C86.5898 63.1043 91.3899 62.3278 95.0712 68.7703C98.7525 75.2122 92.6784 83.4728 92.9572 87.4683C93.2361 91.4638 94.2327 96.9809 84.7985 98.2694C75.3649 99.5572 79.8391 62.0209 86.5898 63.1043Z" fill="#1B162C"/>
<path d="M75.4431 70.6172C75.4431 70.6172 72.1863 88.1495 69.4623 88.7313C63.3529 90.0355 58.1107 89.1924 50.1616 109.053C42.2125 128.914 45.4883 157.542 66.1526 158.904C72.2085 159.304 108.613 147.26 87.9395 131.426C73.5375 120.393 87.5085 99.9347 86.4251 94.1701C85.3416 88.4054 75.784 98.5071 84.3379 80.3205L75.4431 70.6172Z" fill="#FF8F6A"/>
<path d="M75.7192 67.1892C75.7192 67.1892 86.338 63.8278 89.7725 67.8246C93.207 71.822 92.0001 85.1648 84.7119 86.3051C73.3439 88.084 69.8409 72.046 75.7192 67.1892Z" fill="#FF8F6A"/>
<path d="M63.0555 153.155C63.0555 153.155 81.8756 97.1713 97.0163 96.9075C112.156 96.6443 122.739 150.526 125.86 152.991C128.981 155.456 136.351 154.887 132.885 156.218C129.419 157.55 131.872 157.182 123.398 156.604C114.923 156.027 99.5952 126.022 98.1879 125.728C96.7812 125.433 90.0056 157.934 72.3056 158.654C62.4841 159.053 63.0555 153.155 63.0555 153.155Z" fill="#FF8F6A"/>
<path d="M70.9051 152.835C70.9051 152.835 89.7252 96.8519 104.865 96.5887C120.006 96.3249 130.589 150.207 133.71 152.671C136.831 155.136 144.201 154.568 140.734 155.9C137.268 157.231 139.721 156.862 131.247 156.285C122.772 155.708 107.475 125.395 106.038 125.409C100.052 125.465 97.8546 157.615 80.1552 158.334C70.3337 158.734 70.9051 152.835 70.9051 152.835Z" fill="#FF8F6A"/>
<path d="M84.1386 92.0935C84.1386 92.0935 122.171 90.3518 116.792 105.257C113.685 113.866 97.3972 117.169 85.0451 114.398C72.693 111.627 78.7737 89.8476 84.1386 92.0935Z" fill="#FF8F6A"/>
<path d="M83.4684 75.013C83.4684 75.013 83.2718 76.1068 82.0023 76.2766C81.1637 76.3883 80.8228 75.666 80.2762 75.9677C79.7303 76.2688 79.6395 76.7116 79.7727 77.0381C79.9053 77.3647 80.2899 76.8174 80.7203 76.8004C81.1513 76.7828 82.3582 77.5312 83.3077 76.6548C83.953 76.0598 83.8485 74.5584 83.4684 75.013Z" fill="#1B162C"/>
<path d="M87.6617 74.4858C87.6617 74.4858 88.4441 75.082 89.0351 74.8985C89.6261 74.715 89.8377 74.028 90.2328 73.932C90.6279 73.8366 91.5403 74.6889 91.2666 74.8338C90.9937 74.9788 90.7083 74.8423 90.5496 74.8632C90.3909 74.8835 90.0252 75.6952 89.0299 75.756C88.0353 75.8167 86.8624 74.4485 87.6617 74.4858Z" fill="#1B162C"/>
<path d="M110.925 151.377C111.692 151.205 124.611 150.353 125.931 148.187C127.251 146.021 114.94 100.567 103.411 99.6341C91.8824 98.7009 60.4405 145.569 57.603 152.725C54.7654 159.881 72.6228 159.544 81.4177 158.311C95.9837 156.269 99.6487 129.641 99.9948 132.016C100.993 138.874 107.457 152.157 110.925 151.377Z" fill="#1B162C"/>
<path d="M125.127 149.003C125.127 149.003 132.074 147.761 132.376 146.516C132.677 145.272 121.63 107.348 113.092 100.83C104.554 94.3129 97.9089 104.049 98.7624 107.731C99.6166 111.412 118.792 152.331 125.127 149.003Z" fill="#1B162C"/>
<path d="M70.2757 88.102C70.2757 88.102 73.8343 97.4408 80.5034 96.0994C84.5876 95.2779 81.2772 91.9884 83.2763 91.9368C85.2753 91.8852 89.901 91.8748 92.0391 92.5135C94.1779 93.1522 93.6816 108.309 92.0672 111.895C90.4528 115.481 71.4943 130.647 68.0298 135.789C64.5653 140.931 60.5332 156.501 57.7531 156.427C54.9737 156.353 41.4389 149.255 44.2836 127.826C47.1284 106.398 53.07 95.1747 57.1386 92.0165C61.2066 88.8589 69.0962 85.8535 70.2757 88.102Z" fill="#701A73"/>
<path d="M55.7467 104.571C55.7467 104.571 69.2495 128.474 80.1583 127.341C91.0665 126.208 96.9278 98.5128 106.216 100.054C115.588 101.609 115.316 97.9113 106.301 96.4622C94.8771 94.6264 85.0315 106.709 80.6227 111.832C79.8272 112.757 69.3279 94.5859 64.3842 93.7258C59.4404 92.8651 54.7501 101.877 55.7467 104.571Z" fill="#FF8F6A"/>
<path d="M81.757 86.3632C81.757 86.3632 79.1643 86.3253 76.9798 83.4903C76.5632 82.9496 74.9534 88.6103 81.0543 88.6254C81.0543 88.6254 81.6506 86.8131 81.757 86.3632Z" fill="#1B162C"/>
<path d="M74.6022 104.19C74.6022 104.19 65.9171 113.291 61.4939 115.153C57.0707 117.014 53.5539 106.068 55.4524 99.8301C57.3502 93.592 59.0044 89.4829 64.2368 91.2031C69.4685 92.9232 74.6029 101.759 74.6022 104.19Z" fill="#701A73"/>
<path d="M90.2292 66.8373C90.3676 71.5746 79.6711 70.7204 77.9156 76.6973C76.7101 80.8038 76.3894 85.1127 71.2445 87.93C66.0997 90.7474 65.8568 89.2179 63.4254 94.6579C61.7653 98.3732 54.0271 97.2101 50.3157 106.416C48.8731 109.994 40.4244 102.774 43.9215 93.5327C46.2112 87.4833 50.2014 89.2773 52.1136 86.332C54.0258 83.386 49.1709 71.685 65.6674 68.4086C68.9464 67.7568 70.4635 60.9133 77.1927 58.8914C86.0078 56.2419 90.0907 62.0993 90.2292 66.8373Z" fill="#1B162C"/>
<path d="M84.9927 86.6464C84.9927 86.6464 91.8394 102.551 97.412 101.615C102.985 100.68 114.892 97.0347 110.883 95.2878C105.511 92.9465 98.967 90.6902 91.0094 86.6059C85.4185 83.7357 84.9927 86.6464 84.9927 86.6464Z" fill="#FF8F6A"/>
<path d="M62.9724 115.264C62.9724 115.264 57.0491 110.706 55.0389 106.945C53.0288 103.183 54.6674 115.691 57.7825 120.015C60.897 124.339 71.8456 128.643 74.1346 125.61C74.1346 125.61 69.6696 122.852 62.9724 115.264Z" fill="#701A73" fill-opacity="0.7"/>
<path d="M108.454 149.416C108.454 149.416 123.957 145.06 124.686 146.009C125.415 146.959 126.124 149.568 125.603 149.74C125.083 149.912 111.684 154.372 110.452 153.716C109.22 153.059 107.196 149.813 108.454 149.416Z" fill="#FEFDD2"/>
<path d="M124.869 145.754C124.869 145.754 129.888 143.15 131.132 143.09C132.376 143.03 132.863 145.776 132.966 146.371C133.069 146.966 125.292 149.414 124.344 149.328C123.395 149.242 121.948 147.183 124.869 145.754Z" fill="#FEFDD2"/>
<path d="M125.478 151.458C125.478 151.458 132.678 147.775 133.715 148.561C134.752 149.348 137.121 153.5 141.085 154.62C141.085 154.62 138.175 157.961 137.406 159.424C136.637 160.888 130.071 159.808 127.214 156.211C126.223 154.963 123.89 151.988 125.478 151.458Z" fill="#1B162C"/>
<path d="M128.539 152.615C128.539 152.615 132.448 150.067 133.322 150.537C134.196 151.007 132.813 151.01 130.928 152.518C129.042 154.026 127.105 154.406 128.539 152.615Z" fill="#FFFEF1"/>
<path d="M131.171 154.08C131.171 154.08 135.08 151.531 135.954 152.002C136.829 152.472 135.446 152.474 133.56 153.983C131.674 155.491 129.737 155.872 131.171 154.08Z" fill="#FFFEF1"/>
<path d="M133.245 155.398C133.245 155.398 137.154 152.849 138.028 153.319C138.902 153.79 137.519 153.792 135.634 155.3C133.748 156.809 131.811 157.189 133.245 155.398Z" fill="#FFFEF1"/>
<path d="M140.451 154.385C140.451 154.385 136.861 159.748 133.671 159.113C131.45 158.671 127.214 156.211 127.214 156.211C127.631 157.131 129.649 158.61 131.651 159.659C133.652 160.708 137.042 162.065 140.591 160.414C144.141 158.763 145.372 156.032 140.451 154.385Z" fill="#FEFDD2"/>
<path d="M117.859 153.87C117.859 153.87 125.383 150.675 126.115 151.763C126.848 152.851 128.271 157.894 131.675 160.227C131.675 160.227 127.844 162.542 126.647 163.715C125.448 164.887 119.563 161.771 118.002 157.392C117.461 155.872 117.094 153.77 117.859 153.87Z" fill="#1B162C"/>
<path d="M120.409 154.331C120.409 154.331 124.933 153.099 125.612 153.829C126.292 154.56 124.979 154.127 122.706 154.991C120.434 155.855 118.475 155.612 120.409 154.331Z" fill="#FFFEF1"/>
<path d="M122.438 156.578C122.438 156.578 126.962 155.345 127.642 156.076C128.321 156.807 127.008 156.373 124.735 157.237C122.463 158.102 120.504 157.858 122.438 156.578Z" fill="#FFFEF1"/>
<path d="M123.985 158.507C123.985 158.507 128.509 157.274 129.188 158.005C129.868 158.735 128.555 158.302 126.283 159.166C124.011 160.03 122.051 159.787 123.985 158.507Z" fill="#FFFEF1"/>
<path d="M131.148 159.799C131.148 159.799 126.533 165.807 122.38 162.148C120.676 160.646 118.002 157.391 118.002 157.391C118.103 158.413 119.545 160.48 121.109 162.125C122.674 163.771 125.455 166.154 129.353 165.676C133.25 165.197 135.291 162.944 131.148 159.799Z" fill="#FEFDD2"/>
<path d="M87.2781 79.9102C86.6296 79.9102 85.9746 79.5784 85.8779 79.5275L86.1823 78.9495C86.4376 79.0827 87.2546 79.4119 87.6451 79.1748C87.7659 78.9195 87.2468 77.3377 86.5055 75.8154L87.092 75.5294C87.9077 77.2006 88.7234 79.2865 87.9821 79.7338C87.7692 79.8625 87.5243 79.9102 87.2781 79.9102Z" fill="#1B162C"/>
<path d="M111.6 99.734C109.149 97.3013 105.797 97.7533 105.764 97.7585L105.668 97.1113C105.819 97.091 109.372 96.6019 112.061 99.271L111.6 99.734Z" fill="#1B162C"/>
<path d="M124.633 145.821C124.516 145.403 112.872 103.945 105.793 101.526L105.952 101.063C113.273 103.565 124.625 143.97 125.105 145.689L124.633 145.821Z" fill="#FEFDD2"/>
<path d="M90.6186 86.4107C90.6186 86.4107 91.9319 85.3834 92.8266 83.5255C94.8805 79.2583 92.2617 74.5621 91.2665 74.8338C90.2718 75.1055 88.8358 83.0742 86.5696 84.7173C84.3041 86.3604 84.7528 86.5779 85.816 88.432C86.8792 90.286 90.7989 87.0377 90.6186 86.4107Z" fill="#FF8F6A"/>
<path d="M84.2905 86.9982L84.2114 86.9969L84.2519 86.3451C84.4857 86.3595 90.0022 86.5711 91.0588 77.4151L91.708 77.4895C90.6461 86.6893 85.0265 86.9982 84.2905 86.9982Z" fill="#1B162C"/>
<path d="M93.467 100.074L93.083 99.5459C93.3135 99.3781 98.7902 95.4349 103.842 94.9346C107.46 94.58 111.746 96.596 113.389 99.4382L112.825 99.7647C111.323 97.1681 107.236 95.2514 103.906 95.5851C99.0324 96.0677 93.5219 100.034 93.467 100.074Z" fill="#1B162C"/>
<path d="M105.686 98.0884H105.672C105.312 98.0792 105.312 98.0792 105.312 95.5101H105.965C105.965 96.6353 105.973 97.1826 105.982 97.449L106.042 97.4523C106.025 97.7795 106.009 98.0884 105.686 98.0884Z" fill="#1B162C"/>
<path d="M75.6445 102.616C75.6144 102.546 72.5692 95.4899 66.8418 91.6564L67.2049 91.1138C73.0975 95.0576 76.2153 102.288 76.246 102.361L75.6445 102.616Z" fill="#1B162C"/>
<path d="M83.7288 82.3718L83.2729 81.9042C83.3154 81.8637 84.3107 80.9069 85.5515 80.9318C86.2163 80.9422 86.8204 81.2217 87.3455 81.7638L86.8772 82.219C86.4762 81.8056 86.0269 81.592 85.5417 81.5848C84.5928 81.575 83.7366 82.3639 83.7288 82.3718Z" fill="#1B162C"/>
<path d="M82.6526 79.7098C82.6899 80.6267 81.9767 81.3999 81.0598 81.4378C80.1429 81.475 79.3697 80.7619 79.3324 79.845C79.2952 78.9281 80.0084 78.1542 80.9253 78.117C81.8422 78.0798 82.6154 78.7929 82.6526 79.7098Z" fill="#F25576"/>
<path d="M90.6352 101.446C90.6084 100.192 89.0573 98.2045 88.4624 97.5443L88.9476 97.1067C89.0417 97.2119 91.2503 99.6811 91.2882 101.432L90.6352 101.446Z" fill="#1B162C"/>
<path d="M77.7001 75.5257L77.1064 75.2534C77.7177 73.9205 79.3432 73.624 81.2253 73.2805C82.5243 73.0434 83.9956 72.775 85.307 72.118C88.2817 70.629 88.2928 67.3376 88.2922 67.3042L88.9452 67.2997C88.9465 67.4512 88.9335 71.0326 85.5996 72.7025C84.2046 73.4006 82.6843 73.6782 81.3422 73.9231C79.5698 74.2464 78.1696 74.5017 77.7001 75.5257Z" fill="#1B162C"/>
<path d="M50.0681 89.2843C49.705 79.8677 53.016 77.9151 58.5025 74.6798C59.612 74.026 60.8685 73.2848 62.1831 72.4234C66.1936 69.7935 66.882 67.6861 67.5468 65.6472C68.126 63.8735 68.6727 62.1984 71.3215 60.4965C76.9705 56.8687 81.8209 60.0543 81.8698 60.0863L81.5048 60.6284C81.3213 60.505 76.9542 57.655 71.6742 61.0464C69.2212 62.6222 68.7327 64.1177 68.1678 65.8503C67.5004 67.8957 66.7435 70.2141 62.5404 72.9694C61.214 73.8393 59.9497 74.5851 58.8342 75.2427C53.3779 78.4597 50.3724 80.2321 50.7205 89.2595L50.0681 89.2843Z" fill="#1B162C"/>
<path d="M50.8664 102.308L50.8037 101.657C50.8769 101.651 58.1533 100.914 61.1999 98.1916C62.3297 97.1826 62.794 95.6374 63.2851 94.0028C64.1178 91.2299 65.0628 88.0873 69.5016 86.6846C76.0565 84.6124 75.8482 77.6376 75.8358 77.3424L76.4882 77.315C76.4914 77.3921 76.7357 85.0826 69.6982 87.3069C65.5885 88.6059 64.7356 91.4454 63.9108 94.1909C63.3922 95.9163 62.9024 97.5463 61.6348 98.6788C58.4289 101.543 51.174 102.278 50.8664 102.308Z" fill="#1B162C"/>
<path d="M99.9946 132.016C99.9946 132.016 88.9003 162.027 57.7529 156.427C57.7529 156.427 69.2018 162.409 78.2938 160.248C96.1656 155.999 102.455 139.423 102.455 139.423C102.421 138.176 99.9946 132.016 99.9946 132.016Z" fill="#1B162C"/>
<path d="M102.239 139.536C102.182 139.427 96.5599 128.52 96.0903 122.029L96.5788 121.993C97.0418 128.384 102.617 139.203 102.674 139.311L102.239 139.536Z" fill="#FEFDD2"/>
<path d="M60.6117 141.27L60.0703 140.905C60.1297 140.817 66.0021 132.1 67.9946 129.252C70.0557 126.309 73.8938 125.333 74.0564 125.293L74.2131 125.927C74.1759 125.937 70.4475 126.888 68.5295 129.627C66.5402 132.469 60.6711 141.182 60.6117 141.27Z" fill="#1B162C"/>
<path d="M68.0654 82.6089L67.9805 82.1269C70.5118 81.6802 74.8435 77.0395 76.2914 72.2597C78.3668 65.4052 86.3336 64.9127 86.4139 64.9082L86.4394 65.3973C86.3623 65.4019 78.7345 65.8799 76.7596 72.4021C75.223 77.4777 70.7468 82.1367 68.0654 82.6089Z" fill="#FEFDD2"/>
<path d="M72.7607 71.604L72.3081 71.4159C74.3254 66.5649 76.8116 63.6098 79.6975 62.6322C82.7337 61.6042 85.3263 63.0978 86.1773 63.5896C86.2948 63.6575 86.3771 63.7071 86.4215 63.7234L86.3497 63.9141L86.3693 63.9507L86.6155 64.0121L86.4685 64.1845C86.3294 64.2426 86.238 64.1897 85.9324 64.0134C85.0429 63.5008 82.6794 62.1378 79.8549 63.0959C77.1081 64.0271 74.7212 66.8889 72.7607 71.604Z" fill="#FEFDD2"/>
<path d="M94.3903 73.8343L93.9194 73.7011C94.8762 70.3169 91.076 66.776 91.0381 66.74L91.3685 66.3795C91.5351 66.5324 95.4293 70.1582 94.3903 73.8343Z" fill="#FEFDD2"/>
<path d="M304.305 176.54C304.305 176.54 308.351 204.945 304.905 205.329C301.459 205.712 295.195 179.402 295.195 179.402L304.305 176.54Z" fill="#1B162C"/>
<path d="M249.713 178.755C249.713 178.755 245.652 207.158 242.207 206.76C238.763 206.362 240.089 179.492 240.089 179.492L249.713 178.755Z" fill="#1B162C"/>
<path d="M267.463 94.4917C267.463 94.4917 292.374 93.6773 303.661 102.051C314.947 110.425 313.564 176.391 308.554 183.761C303.543 191.132 231.397 194.041 227.283 183.761C223.169 173.481 236.333 152.6 241.866 145.987C247.399 139.374 253.21 91.7573 267.463 94.4917Z" fill="#379E90"/>
<path d="M236.974 98.9489C236.974 98.9489 220.089 113.182 217.503 111.856C214.917 110.53 200.464 74.9905 199.58 75.4613C198.695 75.9315 199.515 79.0676 199.515 79.0676C199.515 79.0676 196.961 73.5544 196.583 74.7632C196.206 75.972 197.511 79.686 197.511 79.686C197.511 79.686 195.366 74.5993 194.858 75.6122C194.349 76.6244 195.344 80.0818 195.344 80.0818C195.344 80.0818 192.889 76.9046 192.614 78.0808C192.341 79.257 193.801 81.4526 194.273 83.4222C194.743 85.3919 199.573 120.748 208.698 126.156C217.823 131.565 241.501 114.421 243.26 112.196C245.018 109.97 236.974 98.9489 236.974 98.9489Z" fill="#F06172"/>
<path d="M198.849 83.4838C198.35 82.9908 198.125 82.4422 198.179 81.8531C198.291 80.6345 199.599 79.7333 199.655 79.696L200.051 80.2792C200.04 80.2864 198.961 81.0335 198.881 81.9197C198.847 82.2926 198.998 82.6407 199.344 82.9829L198.849 83.4838Z" fill="#1B162C"/>
<path d="M195.972 89.1297C195.972 89.1297 204.579 85.3936 205.273 85.3923C205.967 85.3909 207.568 88.6034 207.188 90.0251C206.808 91.4475 198.838 95.2934 197.093 94.558C195.348 93.822 194.413 89.8004 195.972 89.1297Z" fill="#FEFDD2"/>
<path d="M264.374 67.2383C264.374 67.2383 267.627 66.8341 268.803 70.0811C269.98 73.3282 269.28 82.1302 264.087 80.6562C258.894 79.1829 262.993 66.8915 264.374 67.2383Z" fill="#1B162C"/>
<path d="M254.178 151.975C254.178 151.975 329.442 155.492 277.166 172.282C264.307 176.412 231.553 174.761 226.504 172.282C221.456 169.804 194.867 158.423 254.178 151.975Z" fill="#47676A"/>
<path d="M195.368 93.8082C195.368 93.8082 204.742 87.4675 207.54 88.9467C210.339 90.4253 217.022 107.749 217.022 107.749C218.239 107.617 240.01 86.469 250.301 90.6826C252.677 91.655 249.266 108.973 246.752 110.538C244.237 112.103 219.982 137.362 210.448 132.181C207.039 130.328 193.427 94.9282 195.368 93.8082Z" fill="#F9AC5F"/>
<path d="M264.651 76.2873C264.651 76.2873 264.525 89.4642 265.057 90.018C265.956 90.9538 271.843 90.7743 274.292 93.205C276.739 95.6357 262.74 100.75 255.899 100.332C251.344 100.054 246.711 90.6299 249.934 90.6162C253.156 90.6031 255.266 89.7946 255.192 87.4292C255.119 85.0645 255.098 82.9146 255.098 82.9146C255.098 82.9146 264.172 76.6327 264.651 76.2873Z" fill="#F06172"/>
<path d="M252.59 90.3492C252.59 90.3492 250.005 96.5089 254.719 96.9445C260.262 97.4565 267.229 91.1198 268.302 91.065C277.792 90.5784 280.925 93.8392 283.992 97.6198C287.06 101.4 280.677 159.167 277.451 159.668C274.225 160.169 229.764 147.516 228.21 147.176C226.656 146.836 237.115 94.4459 238.119 94.3211C239.123 94.1971 245.592 88.6356 252.59 90.3492Z" fill="#F9AC5F"/>
<path d="M226.601 206.715C226.601 206.715 229.529 214.784 224.071 215.1C218.613 215.416 210.658 216.767 208.25 215C205.842 213.233 219.812 208.077 220.437 205.272C221.062 202.467 226.601 206.715 226.601 206.715Z" fill="#FF8F6A"/>
<path d="M200.504 188.839C200.504 188.839 199.061 197.79 194.024 195.664C188.987 193.538 180.307 192.051 178.927 189.403C177.546 186.755 193.302 187.482 195.102 185.241C196.901 182.999 200.504 188.839 200.504 188.839Z" fill="#FF8F6A"/>
<path d="M278.257 153.614C278.257 153.614 278.222 137.848 236.015 137.362C216.069 137.133 212.267 200.477 212.267 200.477C216.448 200.938 233.085 205.278 234.343 200.231C235.601 195.184 243.944 166.897 243.944 166.897C249.424 165.89 277.168 174.662 278.257 153.614Z" fill="#1B162C"/>
<path d="M255.782 136.044C255.782 136.044 257.665 127.236 261.266 127.075C264.866 126.914 273.067 129.253 274.429 127.666C275.79 126.079 266.31 91.8498 269.972 91.3737C277.338 90.4163 281.757 93.8782 285.497 99.8055C290.226 107.301 292.579 137.882 288.05 143.116C284.08 147.705 255.809 140.049 255.782 136.044Z" fill="#F9AC5F"/>
<path d="M268.797 128.417C266.73 128.417 262.23 127.586 261.206 127.391L261.325 126.758C264.076 127.28 268.71 128 269.435 127.718C270.636 127.245 270.021 120.15 269.572 114.97C269.189 110.548 268.827 106.372 269.24 104.64L269.867 104.789C269.477 106.42 269.835 110.546 270.215 114.914C270.902 122.85 271.209 127.711 269.671 128.317C269.494 128.387 269.189 128.417 268.797 128.417Z" fill="#1B162C"/>
<path d="M236.883 107.554L236.394 107.135C238.188 105.041 239.604 100.94 239.618 100.898L240.228 101.107C240.168 101.279 238.757 105.368 236.883 107.554Z" fill="#1B162C"/>
<path d="M226.49 103.799L254.718 105.067L253.195 138.975L224.967 137.708L226.49 103.799Z" fill="#F26039"/>
<path d="M258.118 137.882C258.118 137.882 238.302 124.429 224.968 128.651C208.629 133.824 192.344 178.841 192.344 178.841C201.193 185.891 205.19 191.392 208.629 187.606C223.114 171.658 240.087 143.669 241.866 145.987C243.644 148.304 258.697 145.931 258.118 137.882Z" fill="#1B162C"/>
<path d="M256.28 128.032C256.28 128.032 253.85 124.39 253.843 124.559C253.835 124.728 253.085 127.888 253.085 127.888C253.085 127.888 245.926 123.746 245.607 125.593C245.288 127.441 246.094 131.128 248.897 132.777C251.7 134.426 254.758 136.932 255.924 135.969C257.089 135.006 259.346 131.046 256.28 128.032Z" fill="#F06172"/>
<path d="M263.49 65.0444C263.49 65.0444 253.611 61.5688 250.281 65.6374C246.95 69.7067 247.108 83.7032 254.536 84.5339C265.255 85.733 268.878 70.0286 263.49 65.0444Z" fill="#FF8F6A"/>
<path d="M258.12 77.1144C258.072 77.9731 258.729 78.7085 259.588 78.7568C260.446 78.8052 261.182 78.1482 261.23 77.2894C261.278 76.4306 260.621 75.6953 259.763 75.6469C258.905 75.5986 258.169 76.2556 258.12 77.1144Z" fill="#F14673"/>
<path d="M250.619 73.275C250.502 73.7223 250.119 74.009 249.765 73.9156C249.41 73.8223 249.218 73.3834 249.336 72.936C249.454 72.4894 249.837 72.202 250.192 72.2954C250.546 72.3894 250.738 72.8276 250.619 73.275Z" fill="#1B162C"/>
<path d="M257.591 73.7471C257.495 74.1991 257.127 74.5047 256.768 74.4283C256.41 74.3525 256.197 73.9241 256.293 73.4715C256.389 73.019 256.757 72.714 257.116 72.7897C257.474 72.8662 257.687 73.2946 257.591 73.7471Z" fill="#1B162C"/>
<path d="M248.944 62.3493C248.944 62.3493 247.329 66.013 250.715 67.3407C254.742 68.9178 259.762 65.0758 261.53 66.124C263.299 67.1715 260.721 71.5242 264.282 73.7061C266.711 75.1951 268.889 71.3844 267.756 66.7607C266.523 61.7249 262.088 61.9313 261.057 61.096C260.025 60.2608 262.563 60.2131 261.718 58.9272C260.873 57.6413 253.061 54.9396 248.944 62.3493Z" fill="#1B162C"/>
<path d="M265.706 75.0058C265.706 75.0058 266.106 73.1491 267.213 74.0738C268.32 74.9992 267.617 77.8982 266.175 78.3978C264.733 78.8974 265.42 75.732 265.706 75.0058Z" fill="#FF8F6A"/>
<path d="M250.715 80.8215C251.603 80.3859 250.292 78.2053 253.696 77.5836C259.732 76.4806 257.067 80.5636 260.153 81.1781C263.239 81.7933 265.524 70.8916 263.07 68.8658C262.006 67.9875 268.32 67.9444 265.29 78.1538C265.092 78.8218 267.346 87.8681 254.718 88.3213C252.355 88.4062 249.403 86.0846 248.559 84.322C247.079 81.2297 248.063 76.0084 248.368 75.3704C248.368 75.3704 249.302 81.5151 250.715 80.8215Z" fill="#1B162C"/>
<path d="M252.418 77.9069C252.15 77.9069 251.906 77.8637 251.724 77.7501C251.64 77.6972 251.529 77.5934 251.488 77.4001C251.313 76.5818 252.83 74.2268 253.299 73.5248L253.842 73.8879C252.871 75.341 252.107 76.826 252.121 77.2211C252.458 77.3485 253.408 77.1382 254.145 76.8521L254.382 77.4608C254.144 77.5535 253.184 77.9069 252.418 77.9069Z" fill="#1B162C"/>
<path d="M254.061 80.1904C253.38 80.1904 252.847 79.8358 252.819 79.8175L253.094 79.4112C253.101 79.4158 253.755 79.8475 254.445 79.647C254.934 79.504 255.339 79.0749 255.646 78.3722L256.095 78.5688C255.725 79.4132 255.214 79.9344 254.577 80.1185C254.4 80.1695 254.227 80.1904 254.061 80.1904Z" fill="#FEFDD2"/>
<path d="M190.553 186.569C190.553 186.569 189.42 189.432 190.553 189.96C191.686 190.488 199.61 191.01 200 191.083C200.391 191.158 197.545 197.017 196.373 197.184C195.201 197.351 179.298 195.361 177.959 191.083C176.619 186.805 188.739 186.737 190.553 186.569Z" fill="#1B162C"/>
<path d="M215.801 209.041C215.801 209.041 217.087 212.715 218.094 212.747C219.101 212.78 227.371 210.477 227.371 210.477C227.371 210.477 227.54 216.619 226.276 217.239C225.012 217.86 208.61 220.323 205.201 218.298C201.793 216.272 215.801 209.041 215.801 209.041Z" fill="#1B162C"/>
<path d="M250.167 70.4232C248.688 70.4232 247.484 71.6268 247.484 73.106C247.484 74.5845 248.688 75.7881 250.167 75.7881C251.646 75.7881 252.849 74.5845 252.849 73.106C252.849 71.6268 251.646 70.4232 250.167 70.4232ZM250.167 76.2779C248.418 76.2779 246.995 74.8549 246.995 73.106C246.995 71.3564 248.418 69.9334 250.167 69.9334C251.916 69.9334 253.339 71.3564 253.339 73.106C253.339 74.8549 251.916 76.2779 250.167 76.2779Z" fill="#FEFDD2"/>
<path d="M257.876 70.4232C256.397 70.4232 255.193 71.6268 255.193 73.106C255.193 74.5845 256.397 75.7881 257.876 75.7881C259.355 75.7881 260.559 74.5845 260.559 73.106C260.559 71.6268 259.355 70.4232 257.876 70.4232ZM257.876 76.2779C256.127 76.2779 254.704 74.8549 254.704 73.106C254.704 71.3564 256.127 69.9334 257.876 69.9334C259.625 69.9334 261.049 71.3564 261.049 73.106C261.049 74.8549 259.625 76.2779 257.876 76.2779Z" fill="#FEFDD2"/>
<path d="M255.023 73.9434C254.092 73.7056 253.083 73.7644 253.072 73.7644L253.042 73.2759C253.085 73.274 254.136 73.2113 255.144 73.4692L255.023 73.9434Z" fill="#FEFDD2"/>
<path d="M266.17 74.2658L260.785 73.8537L260.822 73.3652L266.207 73.7773L266.17 74.2658Z" fill="#FEFDD2"/>
<path d="M269.597 91.0217C269.597 91.0217 266.737 88.9972 264.086 90.4104C259.41 92.9025 255.009 96.8751 255.009 96.8751C255.009 96.8751 253.442 89.6091 252.358 89.453C251.276 89.2976 246.994 88.6334 247.08 90.3144C247.167 91.9954 247.195 100.425 249.649 100.347C252.104 100.268 255.009 98.1212 255.009 98.1212C255.009 98.1212 255.907 101.442 258.49 101.994C262.7 102.894 270.489 92.7908 269.597 91.0217Z" fill="#FEFDD2"/>
<path d="M261.095 128.351C261.095 128.351 259.628 138.203 258.118 137.882C256.609 137.562 254.718 136.819 254.718 136.819C254.718 136.819 256.892 127.206 257.539 127.206C258.748 127.206 261.095 128.351 261.095 128.351Z" fill="#FEFDD2"/>
<path d="M252.406 64.1328C252.219 62.6504 252.523 61.4396 253.308 60.5338C254.69 58.9383 257.051 58.8802 257.151 58.8789L257.16 59.3687C257.137 59.3687 254.913 59.4268 253.676 60.857C252.987 61.6525 252.724 62.7346 252.892 64.0714L252.406 64.1328Z" fill="#FEFDD2"/>
<path d="M253.452 64.5626C253.409 62.3233 256.323 60.7781 256.448 60.7135L256.675 61.1477C256.646 61.1621 253.904 62.6171 253.941 64.5528L253.452 64.5626Z" fill="#FEFDD2"/>
<path d="M214.721 180.763L214.237 180.692C214.248 180.618 215.347 173.263 217.564 165.713C220.56 155.512 224.069 149.832 227.992 148.832C235.989 146.791 239.187 151.124 242.888 156.142C245.494 159.673 248.448 163.676 253.606 165.786L253.421 166.239C248.135 164.077 245.139 160.016 242.494 156.433C238.897 151.557 235.793 147.347 228.113 149.306C219.13 151.597 214.764 180.472 214.721 180.763Z" fill="#FEFDD2"/>
<path d="M252.138 182.199C252.138 182.199 248.228 149.601 258.808 145.514C263.574 143.672 295.333 136.899 298.958 142.084C302.583 147.269 303.625 180.286 298.958 182.199C294.291 184.113 252.138 182.199 252.138 182.199Z" fill="#379E90"/>
<path d="M191.731 174.203C191.731 174.203 211.245 184.144 210.652 187.267C210.194 189.677 208.968 192.782 205.235 191.881C200.65 190.775 191.782 183.537 189.888 180.586C187.995 177.634 191.731 174.203 191.731 174.203Z" fill="#FEFDD2"/>
<path d="M211.379 199.094C211.379 199.094 233.608 198.977 234.343 200.231C235.584 202.348 234.616 207.228 232.169 207.007C228.077 206.636 216.016 206.885 212.267 206.496C208.779 206.134 211.379 199.094 211.379 199.094Z" fill="#FEFDD2"/>
<path d="M250.468 133.011L249.87 132.75C250.106 132.208 251.707 129.356 251.775 129.235L252.344 129.555C251.773 130.571 250.647 132.601 250.468 133.011Z" fill="#1B162C"/>
<path d="M251.222 130.771C250.047 129.785 246.044 126.431 246.044 126.431L246.464 125.93C246.464 125.93 250.467 129.285 251.642 130.271L251.222 130.771Z" fill="#1B162C"/>
<path d="M250.642 132.007C250.534 131.957 247.972 130.764 245.717 128.339L246.195 127.894C248.358 130.22 250.889 131.402 250.915 131.414L250.642 132.007Z" fill="#1B162C"/>
<path d="M131.611 10.8546C142.874 11.4717 143.866 29.1999 135.305 31.3315C132.063 32.1387 121.364 33.9797 119.78 23.2413C118.93 17.478 123.218 10.3955 131.611 10.8546Z" fill="#379E90"/>
<path d="M133.306 25.3245C133.306 25.3245 133.248 22.1571 131.098 21.9866C128.949 21.8162 128.165 25.4486 128.712 26.1206C129.257 26.7926 130.457 23.4162 131.002 23.9132C131.548 24.4102 133.406 26.1682 133.306 25.3245Z" fill="#1B162C"/>
<path d="M122.91 19.4621C122.91 19.4621 122.968 22.6294 125.117 22.7992C127.266 22.9697 128.051 19.3373 127.504 18.6653C126.958 17.994 125.759 21.3697 125.213 20.8727C124.668 20.3757 122.81 18.6183 122.91 19.4621Z" fill="#1B162C"/>
<path d="M133.479 18.9365C133.479 18.9365 133.538 22.1038 135.687 22.2736C137.836 22.4441 138.62 18.8117 138.074 18.1397C137.527 17.4677 136.329 20.844 135.783 20.3471C135.237 19.8501 133.38 18.0927 133.479 18.9365Z" fill="#1B162C"/>
<path d="M124.743 23.1695C124.743 23.1695 124.595 29.358 121.686 27.8657C118.738 26.3539 123.966 21.354 124.743 23.1695Z" fill="#C0EAED"/>
<path d="M137.539 22.5233C137.539 22.5233 137.374 28.7125 140.355 27.3691C143.376 26.0081 138.408 20.7503 137.539 22.5233Z" fill="#C0EAED"/>
<path d="M167.983 0.0212784C179.246 0.637774 180.238 18.3666 171.677 20.4975C168.436 21.3047 157.736 23.1464 156.152 12.4073C155.302 6.64402 159.59 -0.43848 167.983 0.0212784Z" fill="#F9AC5F"/>
<path d="M169.678 14.4907C169.678 14.4907 169.619 11.3233 167.47 11.1529C165.321 10.9824 164.537 14.6148 165.083 15.2868C165.63 15.9588 166.828 12.5831 167.374 13.0794C167.919 13.5764 169.777 15.3345 169.678 14.4907Z" fill="#1B162C"/>
<path d="M163.571 10.2652C163.647 11.1912 162.945 12.0049 162.003 12.082C161.061 12.1591 160.236 11.4707 160.16 10.5447C160.084 9.61865 160.786 8.80558 161.728 8.72852C162.67 8.65145 163.495 9.33913 163.571 10.2652Z" fill="#1B162C"/>
<path d="M173.475 9.82638C173.551 10.7524 172.849 11.5655 171.907 11.6425C170.965 11.7196 170.14 11.0313 170.065 10.1052C169.989 9.17918 170.691 8.36612 171.633 8.28906C172.574 8.212 173.399 8.90034 173.475 9.82638Z" fill="#1B162C"/>
<path d="M208.497 7.75233C219.682 9.21324 219.339 26.9662 210.643 28.4487C207.35 29.0103 196.542 30.0428 195.769 19.2149C195.354 13.4046 200.161 6.66367 208.497 7.75233Z" fill="#F9AC5F"/>
<path d="M203.328 17.6367C203.334 18.566 202.573 19.3242 201.628 19.3307C200.683 19.3366 199.912 18.5888 199.906 17.6595C199.9 16.7302 200.661 15.972 201.606 15.9661C202.551 15.9596 203.322 16.708 203.328 17.6367Z" fill="#1B162C"/>
<path d="M213.238 17.9422C213.244 18.8715 212.483 19.6297 211.538 19.6356C210.593 19.6421 209.822 18.8937 209.816 17.965C209.81 17.0357 210.571 16.2775 211.516 16.271C212.461 16.2651 213.231 17.0129 213.238 17.9422Z" fill="#1B162C"/>
<path d="M204.999 23.5992C204.999 23.5992 203.361 21.994 203.747 21.0248C204.133 20.0557 205.363 22.8469 206.69 22.5484C208.016 22.25 208.71 20.4671 209.11 20.7858C209.51 21.1045 208.659 25.4801 204.999 23.5992Z" fill="#1B162C"/>
<path d="M242.672 29.0174C253.327 32.7196 249.385 50.033 240.568 49.7176C237.23 49.5987 226.438 48.4134 227.88 37.6548C228.655 31.8811 234.732 26.2575 242.672 29.0174Z" fill="#F9AC5F"/>
<path d="M236.03 40.9684C236.03 40.9684 241.985 41.3825 241.535 42.2125C241.085 43.0419 239.747 45.4354 237.712 45.0952C235.678 44.7549 234.379 40.8169 236.03 40.9684Z" fill="#1B162C"/>
<path d="M232.485 37.7903C232.485 37.7903 233.574 34.1814 235.487 35.7579C236.62 36.6905 236.777 38.6772 235.983 38.5779C235.188 38.478 234.814 36.394 234.237 37.1921C233.454 38.2768 232.079 39.3544 232.485 37.7903Z" fill="#1B162C"/>
<path d="M241.898 39.281C241.898 39.281 243.171 35.6891 245.084 37.2656C246.217 38.1982 246.374 40.1848 245.58 40.0849C244.785 39.9857 244.586 38.063 243.833 38.6998C242.994 39.411 241.492 40.8451 241.898 39.281Z" fill="#1B162C"/>
<path d="M102.379 34.1479C113.658 34.1505 115.614 51.7983 107.182 54.393C103.989 55.3758 93.4055 57.7968 91.2393 47.1603C90.0768 41.4518 93.9724 34.146 102.379 34.1479Z" fill="#EE4C6E"/>
<path d="M104.601 49.4964C104.601 49.4964 104.724 46.3872 102.626 46.0979C100.528 45.8085 99.5526 49.326 100.05 50.0156C100.547 50.7059 101.915 47.4634 102.422 47.982C102.929 48.4998 104.65 50.3297 104.601 49.4964Z" fill="#1B162C"/>
<path d="M100.272 42.4177C100.272 42.4177 97.1768 39.0381 96.4852 39.0544C95.7936 39.0714 96.4839 41.0809 96.4839 41.0809C96.4839 41.0809 94.4359 40.4657 94.4627 41.2775C94.4718 41.555 101.346 44.9066 100.272 42.4177Z" fill="#1B162C"/>
<path d="M103.343 42.7091C103.343 42.7091 106.274 39.1865 106.965 39.1702C107.657 39.1532 107.063 41.194 107.063 41.194C107.063 41.194 109.079 40.4822 109.092 41.2939C109.096 41.5715 102.389 45.2463 103.343 42.7091Z" fill="#1B162C"/>
<path d="M98.8524 45.0058C98.8739 45.9182 98.1392 46.6757 97.2112 46.6979C96.2832 46.7201 95.5139 45.9978 95.4917 45.0855C95.4701 44.1732 96.2048 43.4156 97.1328 43.3941C98.0608 43.3719 98.8308 44.0935 98.8524 45.0058Z" fill="#1B162C"/>
<path d="M108.591 45.1383C108.612 46.0506 107.877 46.8082 106.949 46.8304C106.021 46.8526 105.252 46.1309 105.23 45.2186C105.208 44.3056 105.943 43.5481 106.871 43.5265C107.799 43.5043 108.568 44.2259 108.591 45.1383Z" fill="#1B162C"/>
<path d="M313.019 174.611C313.019 174.611 312.485 160.672 321.598 155.457C327.264 152.214 329.918 148.395 331.496 149.085C333.075 149.775 328.014 161.059 325.386 164.575C322.757 168.092 313.019 174.611 313.019 174.611Z" fill="#1B162C"/>
<path d="M303.889 222.001C303.889 222.001 299.969 202.039 301.425 201.216C302.881 200.392 321 199.248 320.984 201.032C320.968 202.816 320.789 222.156 319.341 222.143C317.892 222.13 305.329 222.981 303.889 222.001Z" fill="#F26039"/>
<path d="M314.8 185.02C314.8 185.02 314.916 173.63 322.951 172.669C330.985 171.708 338.49 176.991 339.872 180.77C341.253 184.549 331.162 178.104 326.418 180.646C321.673 183.189 314.8 185.02 314.8 185.02Z" fill="#1B162C"/>
<path d="M307.722 185.893C307.722 185.893 303.803 175.707 291.358 177.972C283.397 179.421 279.53 188.938 280.036 192.93C280.541 196.922 286.552 186.567 291.935 186.65C297.317 186.735 307.722 185.893 307.722 185.893Z" fill="#1B162C"/>
<path d="M310.364 180.96C310.364 180.96 309.909 171.107 302.14 168.845C294.371 166.583 286.104 170.567 284.123 174.069C282.142 177.571 293.151 172.863 297.415 176.147C301.68 179.431 310.364 180.96 310.364 180.96Z" fill="#1B162C"/>
<path d="M311.93 200.086C311.914 199.909 310.476 182.313 323.08 177.206L323.259 177.648C310.978 182.623 312.388 199.87 312.404 200.044L311.93 200.086Z" fill="#1B162C"/>
<path d="M318.612 189.838C318.612 189.838 324.862 184.691 330.244 188.107C335.626 191.522 333.987 198.072 336.13 200.459C338.273 202.846 334.011 204.287 329.935 201.614C325.859 198.942 325.95 194.265 323.468 193.355C320.986 192.445 318.612 189.838 318.612 189.838Z" fill="#1B162C"/>
<path d="M302.039 189.724C302.039 189.724 295.42 185.26 290.867 189.722C286.315 194.183 288.539 202.517 286.94 205.298C285.341 208.078 289.81 208.601 293.24 205.138C296.67 201.675 294.58 195.271 296.817 193.864C299.055 192.456 302.039 189.724 302.039 189.724Z" fill="#1B162C"/>
<path d="M312.799 200.278L312.329 200.206C313.181 194.589 315.203 191.151 318.339 189.987C320.717 189.103 323.778 189.571 327.19 191.339C329.745 192.664 331.63 194.272 331.649 194.287L331.339 194.649C331.266 194.586 323.967 188.405 318.503 190.433C315.543 191.533 313.623 194.845 312.799 200.278Z" fill="#1B162C"/>
<path d="M311.877 193.451C310.536 181.835 312.831 174.059 314.992 169.58C317.344 164.708 319.981 162.625 320.092 162.538L320.384 162.914C320.278 162.996 309.814 171.43 312.349 193.396L311.877 193.451Z" fill="#1B162C"/>
<path d="M311.482 186.767C309.905 178.682 306.998 175.172 304.837 173.65C302.516 172.015 300.537 172.269 300.517 172.272L300.449 171.801C300.793 171.755 308.847 170.774 311.949 186.676L311.482 186.767Z" fill="#1B162C"/>
<path d="M311.873 195.025C310.605 189.711 308.114 186.019 304.47 184.055C298.581 180.88 291.61 183.345 291.541 183.37L291.378 182.923C291.45 182.897 298.614 180.359 304.693 183.635C308.463 185.665 311.035 189.461 312.336 194.915L311.873 195.025Z" fill="#1B162C"/>
<path d="M311.798 199.8C311.788 199.4 311.439 189.982 301.222 189.916C297.979 189.894 295.569 190.773 294.059 192.525C291.788 195.162 292.345 198.918 292.35 198.955L291.88 199.029C291.855 198.866 291.285 195.017 293.699 192.215C295.303 190.352 297.828 189.4 301.225 189.44C311.908 189.509 312.271 199.686 312.274 199.789L311.798 199.8Z" fill="#1B162C"/>
<path d="M307.492 192.647C307.492 192.647 301.881 189.868 300.459 197.029C299.037 204.189 301.357 214.622 300.011 216.595C298.665 218.569 305.8 216.732 306.64 211.806C307.48 206.88 306.239 194.214 307.492 192.647Z" fill="#1B162C"/>
<path d="M303.566 201.29C303.552 201.022 303.263 194.706 306.269 192.762C307.673 191.853 308.882 191.667 309.862 192.21C312.474 193.657 312.409 199.807 312.405 200.068L311.93 200.061C311.93 200 311.995 193.936 309.631 192.626C308.817 192.176 307.773 192.356 306.527 193.161C303.75 194.957 304.038 201.203 304.041 201.266L303.566 201.29Z" fill="#1B162C"/>
<path d="M310.884 191.007C310.884 191.007 314.59 186.017 318.162 192.834C321.55 199.301 316.389 209.819 317.827 211.726C319.265 213.633 312.052 212.137 310.979 207.256C309.906 202.376 310.864 190.76 310.884 191.007Z" fill="#1B162C"/>
<path d="M314.688 198.245C314.581 196.195 313.98 190.77 312.502 190.298C312.101 190.172 311.62 190.459 311.07 191.155L310.697 190.859C311.383 189.993 312.04 189.654 312.646 189.845C314.703 190.502 315.122 197.432 315.163 198.22L314.688 198.245Z" fill="#1B162C"/>
<path d="M308.185 178.873C303.513 171.638 295.243 171.453 295.16 171.452L295.163 171.135C295.248 171.136 303.685 171.319 308.451 178.701L308.185 178.873Z" fill="#FEFDD2"/>
<path d="M314.385 171.337L314.081 171.248C316.029 164.578 323.077 157.566 323.148 157.496L323.37 157.722C323.3 157.792 316.31 164.746 314.385 171.337Z" fill="#FEFDD2"/>
<path d="M316.851 182.058L316.6 181.865C321.813 175.089 328.817 177.034 328.886 177.054L328.798 177.359C328.781 177.353 327.065 176.867 324.745 177.205C322.609 177.516 319.505 178.61 316.851 182.058Z" fill="#FEFDD2"/>
<path d="M304.368 184.176C299.101 179.686 288.144 182.688 288.034 182.719L287.948 182.414C288.06 182.383 299.178 179.335 304.573 183.935L304.368 184.176Z" fill="#FEFDD2"/>
<path d="M292.192 198.963C292.183 198.767 291.984 194.137 294.503 191.561C295.616 190.424 297.1 189.871 298.89 189.921L298.881 190.237C297.168 190.185 295.778 190.711 294.73 191.783C292.307 194.261 292.507 198.901 292.509 198.947L292.192 198.963Z" fill="#FEFDD2"/>
<path d="M303.409 204.526C301.453 200.371 304.88 194.037 305.027 193.77L305.305 193.923C305.269 193.986 301.809 200.383 303.696 204.391L303.409 204.526Z" fill="#FEFDD2"/>
<path d="M314.333 200.641L314.023 200.578C314.039 200.499 315.608 192.74 313.61 190.84C313.198 190.448 312.667 190.342 311.989 190.518L311.91 190.211C312.69 190.01 313.337 190.143 313.829 190.611C315.952 192.631 314.401 200.315 314.333 200.641Z" fill="#FEFDD2"/>
<path d="M330.01 192.726C325.856 187.268 320.497 189.37 320.443 189.392L320.324 189.098C320.379 189.075 325.962 186.885 330.263 192.534L330.01 192.726Z" fill="#FEFDD2"/>
<path d="M249.073 113.654C249.073 113.013 249.073 112.372 249.073 111.731C242.715 117.513 236.358 106.58 230 111.148V113.071C236.358 108.503 242.715 119.435 249.073 113.654Z" fill="#ED1E31"/>
<path d="M230 113.071V114.993C236.358 110.426 242.715 121.358 249.073 115.577C249.073 114.936 249.073 114.295 249.073 113.654C242.715 119.435 236.358 108.503 230 113.071Z" fill="#F3612B"/>
<path d="M230 114.993V116.916C236.358 112.349 242.715 123.281 249.073 117.5C249.073 116.859 249.073 116.218 249.073 115.577C242.715 121.358 236.358 110.426 230 114.993Z" fill="#F2EF1A"/>
<path d="M230 116.916V118.839C236.358 114.272 242.715 125.204 249.073 119.422C249.073 118.782 249.073 118.141 249.073 117.5C242.715 123.281 236.358 112.349 230 116.916Z" fill="#34B640"/>
<path d="M230 118.839V120.762C236.358 116.194 242.715 127.127 249.073 121.345C249.073 120.704 249.073 120.063 249.073 119.422C242.715 125.204 236.358 114.272 230 118.839Z" fill="#3B4EA9"/>
<path d="M249.073 121.345C242.715 127.127 236.358 116.194 230 120.762V122.685C236.358 118.117 242.715 129.049 249.073 123.268C249.073 122.627 249.073 121.986 249.073 121.345Z" fill="#6A2290"/>
</svg>
