<svg width="133" height="180" viewBox="0 0 133 180" fill="none" xmlns="http://www.w3.org/2000/svg">
<path d="M32.8884 166.586H9.67463C6.88928 166.642 8.07419 161.993 7.83931 160.39C7.83931 159.377 8.66111 158.555 9.67463 158.555H32.8884V166.586Z" fill="white"/>
<path d="M8.22949 161.503H25.0718V161.059H8.22949V161.503Z" fill="#CAEDEF"/>
<path d="M32.889 162.799H31.1147V162.357H32.889V162.799ZM27.9939 162.799H8.22949V162.357H27.9939V162.799Z" fill="#CAEDEF"/>
<path d="M32.8878 165.394H8.39663C8.32512 165.257 8.27394 165.108 8.24805 164.951H27.9928V165.344L28.3873 164.951H30.7189L31.1135 165.344V164.951H32.8878V165.394Z" fill="#CAEDEF"/>
<path d="M25.0718 160.205H8.30664C8.34486 160.046 8.39296 159.898 8.45276 159.763H25.0718V160.205Z" fill="#CAEDEF"/>
<path d="M32.888 164.096H31.1137V163.653H32.888V164.096ZM29.8628 164.096H29.2445L29.5533 163.788L29.8628 164.096ZM27.993 164.096H8.2649C8.26366 163.958 8.25935 163.809 8.25195 163.653H27.993V164.096Z" fill="#CAEDEF"/>
<path d="M32.8883 166.975H9.72142C6.52794 167.003 7.62655 162.372 7.45024 160.437C7.45024 159.184 8.46869 158.166 9.72142 158.166H32.8883V158.944H9.72142C7.34357 158.88 8.47239 163.334 8.22764 164.704C8.22887 165.527 8.89777 166.197 9.72142 166.197H32.8883V166.975Z" fill="#E72B61"/>
<path d="M31.1149 165.344L29.5545 163.788L27.9941 165.344V161.059H31.1149V165.344Z" fill="#E72B61"/>
<path d="M29.8903 175.006H6.67659C3.89123 175.061 5.07615 170.412 4.84126 168.81C4.84126 167.796 5.66306 166.974 6.67659 166.974H29.8903V175.006Z" fill="white"/>
<path d="M5.23047 169.922H29.8905V169.479H5.23047V169.922Z" fill="#CAEDEF"/>
<path d="M5.23047 171.219H29.8905V170.776H5.23047V171.219Z" fill="#CAEDEF"/>
<path d="M5.23047 173.813H29.8905V173.37H5.23047V173.813Z" fill="#CAEDEF"/>
<path d="M5.23047 168.625H29.8905V168.182H5.23047V168.625Z" fill="#CAEDEF"/>
<path d="M5.23047 172.516H29.8905V172.073H5.23047V172.516Z" fill="#CAEDEF"/>
<path d="M29.89 175.395H6.7231C3.52962 175.422 4.62885 170.792 4.45192 168.857C4.45192 167.604 5.47098 166.586 6.7231 166.586H29.89V167.364H6.7231C4.34587 167.3 5.47405 171.753 5.22992 173.124C5.22992 173.947 5.90007 174.617 6.7231 174.617H29.89V175.395Z" fill="#F78F45"/>
<path d="M28.1159 173.764L26.5555 172.207L24.9951 173.764V169.479H28.1159V173.764Z" fill="#E72B61"/>
<path d="M100.462 110.483H96.3236V99.4971L97.5264 99.4866H100.462V110.483ZM33.2141 110.464H29.0762V92.3321L30.1242 92.3346V96.3184H33.2141V110.464ZM100.462 68.91H96.3236V58.0873L100.462 58.0959V68.91ZM33.2141 51.5277H29.0762V36.4524H64.6027C66.086 36.4524 67.3042 35.3969 67.446 34.0468H77.8415V41.0743H67.3554V39.5639H62.5276V41.0743H33.2141V51.5277Z" fill="#145778"/>
<path d="M96.3223 110.483H67.3541V96.3184H89.4206V97.2943C89.4206 98.5323 90.468 99.5366 91.7614 99.5366L96.3223 99.4971V110.483ZM62.5263 110.483H33.3263V110.464H33.2129V96.3184H62.5263V110.483ZM89.4206 91.49H67.3541V41.0743H77.8402V55.4838C77.8402 56.9505 79.1022 58.1391 80.6601 58.1391L87.6056 58.0793H92.5228L96.3223 58.0873V68.91H91.7614C90.468 68.91 89.4206 69.9143 89.4206 71.1522V91.49ZM62.5263 91.49H55.9815C56.5506 90.9505 56.9013 90.2095 56.9013 89.392V54.519C56.9013 52.8674 55.468 51.5277 53.6986 51.5277H33.2129V41.0743H62.5263V91.49Z" fill="#155D83"/>
<path d="M67.3542 110.483H62.5264V96.3184H67.3542V110.483ZM67.3542 91.49H62.5264V41.0743V39.5639H67.3542V41.0743V91.49Z" fill="#145778"/>
<path d="M89.4216 96.3186H30.124V92.3348L53.6996 92.3841C54.5936 92.3841 55.4018 92.0419 55.9826 91.4902H62.5274H67.3552H89.4216V96.3186Z" fill="#145778"/>
<path d="M36.1703 161.841H32.8887V160.98H36.5969C36.4508 161.264 36.3084 161.551 36.1703 161.841Z" fill="#155D83"/>
<path d="M32.8876 161.841H31.1133V161.503H32.8876V161.841ZM27.9925 161.841H25.0703V161.503H27.9925V161.841ZM32.8876 161.059H25.0703V160.205V160.98H32.8876V161.059Z" fill="#85A1B0"/>
<path d="M32.8876 161.503H31.1133V161.059H27.9925V161.503H25.0703V161.059H32.8876V161.503Z" fill="#719BAC"/>
<path d="M31.1149 161.841H27.9941V161.059H31.1149V161.503V161.841Z" fill="#7C3763"/>
<path d="M25.0714 141.275H7.93945V110.464H29.0756V110.483H25.0714V112.958H10.2427V129.023H25.0714V130.51H10.2427V131.508H25.0714V132.168H10.2427V133.165H25.0714V133.824H10.2427V134.823H25.0714V141.275Z" fill="#145778"/>
<path d="M29.0762 110.483H33.2142V110.464H29.0762V110.483Z" fill="#144B67"/>
<path d="M33.2129 110.483H33.3263V110.464H33.2129V110.483Z" fill="#154E6E"/>
<path d="M25.0702 128.687H10.5781V113.295H25.0702V119.008L19.8065 123.984L17.6969 121.996L11.763 127.605H23.6486H23.648H25.0702V128.687ZM19.9422 116.952C19.0236 116.952 18.2795 117.696 18.2795 118.616C18.2795 119.534 19.0236 120.278 19.9422 120.278C20.8614 120.278 21.6055 119.534 21.6055 118.616C21.6055 117.696 20.8614 116.952 19.9422 116.952Z" fill="#145778"/>
<path d="M25.0719 129.023H10.2432V112.959H25.0719V113.295H10.5798V128.687H25.0719V129.023Z" fill="#155D83"/>
<path d="M23.6492 127.605H11.7637L17.6975 121.996L19.8072 123.984L25.0709 119.007V127.605H23.6486H23.6492Z" fill="#155D83"/>
<path d="M19.943 120.278C19.0244 120.278 18.2803 119.533 18.2803 118.615C18.2803 117.696 19.0244 116.952 19.943 116.952C20.8622 116.952 21.6063 117.696 21.6063 118.615C21.6063 119.533 20.8622 120.278 19.943 120.278Z" fill="#155D83"/>
<path d="M10.2432 131.509H25.0719V130.51H10.2432V131.509Z" fill="#155D83"/>
<path d="M10.2432 133.166H25.0719V132.168H10.2432V133.166Z" fill="#155D83"/>
<path d="M10.2432 134.823H25.0719V133.825H10.2432V134.823Z" fill="#155D83"/>
<path d="M25.0703 160.98H101.039V110.483H25.0703V160.98Z" fill="#214C6D"/>
<path d="M29.6641 156.306H96.4472V113.431H29.6641V156.306Z" fill="#37BDCF"/>
<path d="M68.7205 173.285H57.3916V159.254H68.7205V173.285Z" fill="#0C212B"/>
<path d="M73.322 173.136H52.79V174.255H73.322V173.136Z" fill="#0C212B"/>
<path d="M52.6952 135.334H48.7416V131.398C48.7416 129.478 47.1849 127.921 45.2651 127.921H43.0932C41.1734 127.921 39.6167 129.478 39.6167 131.398V135.334H35.6631V118.257H52.6952V135.334ZM44.1788 121.287C42.6283 121.287 41.3713 122.548 41.3713 124.103C41.3713 125.658 42.6283 126.918 44.1788 126.918C45.7299 126.918 46.987 125.658 46.987 124.103C46.987 122.548 45.7299 121.287 44.1788 121.287Z" fill="#A2E0E3"/>
<path d="M48.742 135.406H39.6172V131.398C39.6172 129.478 41.1739 127.921 43.0936 127.921H45.2656C47.1854 127.921 48.742 129.478 48.742 131.398V135.334V135.406Z" fill="#297B96"/>
<path d="M44.1786 126.918C42.6281 126.918 41.3711 125.658 41.3711 124.103C41.3711 122.548 42.6281 121.287 44.1786 121.287C45.7298 121.287 46.9868 122.548 46.9868 124.103C46.9868 125.658 45.7298 126.918 44.1786 126.918Z" fill="#297B96"/>
<path d="M55.5731 135.334H54.5762V118.257H71.6089V134.716C71.0627 134.653 70.7532 134.624 70.7532 134.624H67.6553V131.398C67.6553 129.478 66.0992 127.921 64.1782 127.921H62.0075C60.0871 127.921 58.5298 129.478 58.5298 131.398V134.873C57.7142 134.983 56.7037 135.133 55.5731 135.334ZM63.0932 121.287C61.542 121.287 60.285 122.548 60.285 124.103C60.285 125.658 61.542 126.918 63.0932 126.918C64.6431 126.918 65.9001 125.658 65.9001 124.103C65.9001 122.548 64.6431 121.287 63.0932 121.287Z" fill="#A2E0E3"/>
<path d="M58.5303 134.873V131.398C58.5303 129.478 60.0875 127.921 62.0079 127.921H64.1786C66.0997 127.921 67.6557 129.478 67.6557 131.398V134.624H60.6516C60.6516 134.624 60.5364 134.636 60.3311 134.654H60.328C59.9778 134.692 59.3533 134.762 58.5303 134.873Z" fill="#297B96"/>
<path d="M63.0933 126.918C61.5422 126.918 60.2852 125.658 60.2852 124.103C60.2852 122.548 61.5422 121.287 63.0933 121.287C64.6432 121.287 65.9003 122.548 65.9003 124.103C65.9003 125.658 64.6432 126.918 63.0933 126.918Z" fill="#297B96"/>
<path d="M90.5229 135.334H86.5693V131.398C86.5693 129.478 85.012 127.921 83.0916 127.921H80.9209C78.9999 127.921 77.4433 129.478 77.4433 131.398V135.334H75.8212C74.9637 135.182 74.1758 135.058 73.4902 134.96V118.257H90.5229V135.334ZM82.006 121.287C80.4555 121.287 79.1984 122.548 79.1984 124.103C79.1984 125.658 80.4555 126.918 82.006 126.918C83.5571 126.918 84.8141 125.658 84.8141 124.103C84.8141 122.548 83.5571 121.287 82.006 121.287Z" fill="#A2E0E3"/>
<path d="M86.5704 135.406H77.4443V131.398C77.4443 129.478 79.001 127.921 80.922 127.921H83.0927C85.0131 127.921 86.5704 129.478 86.5704 131.398V135.334V135.406Z" fill="#297B96"/>
<path d="M82.0068 126.918C80.4563 126.918 79.1992 125.658 79.1992 124.103C79.1992 122.548 80.4563 121.287 82.0068 121.287C83.5579 121.287 84.815 122.548 84.815 124.103C84.815 125.658 83.5579 126.918 82.0068 126.918Z" fill="#297B96"/>
<path d="M39.6167 154.129H35.6631V137.052H49.9394C48.2471 137.903 46.7305 139.036 45.4445 140.384C45.0641 140.191 44.6344 140.082 44.1788 140.082C42.6283 140.082 41.3713 141.343 41.3713 142.897C41.3713 143.74 41.7412 144.496 42.3262 145.012C42.0266 145.678 41.7689 146.366 41.5575 147.072C40.4077 147.64 39.6167 148.824 39.6167 150.192V154.129Z" fill="#A2E0E3"/>
<path d="M40.717 154.2H39.6172V150.192C39.6172 148.824 40.4082 147.64 41.5579 147.072C41.1905 148.3 40.9612 149.584 40.8866 150.904L40.717 154.2Z" fill="#297B96"/>
<path d="M42.3261 145.012C41.741 144.496 41.3711 143.74 41.3711 142.897C41.3711 141.343 42.6281 140.082 44.1786 140.082C44.6342 140.082 45.064 140.191 45.4443 140.384C44.1571 141.733 43.0998 143.297 42.3261 145.012Z" fill="#297B96"/>
<path d="M90.5231 141.614C87.4122 139.226 84.5375 137.841 82.4297 137.052H90.5231V141.614Z" fill="#A2E0E3"/>
<path d="M111.188 175.57C110.957 174.843 110.679 174.011 110.363 173.118C109.961 171.977 109.501 170.729 109.004 169.447C108.214 167.41 107.338 165.283 106.475 163.338C107.638 157.687 107.856 150.406 107.693 143.655C109.28 139.558 111.863 135.487 115.808 131.654C115.808 131.654 117.577 133.959 119.436 137.864L119.443 137.871V137.879L119.446 137.882L119.45 137.888L119.456 137.908L119.466 137.929L119.513 138.029L119.56 138.123L119.604 138.22L119.657 138.338L119.704 138.445C120.107 139.304 120.503 140.244 120.885 141.247L120.916 141.324C122.854 146.417 124.375 153.161 123.348 160.656C123.096 160.856 122.843 161.062 122.592 161.276L122.556 161.307C118.95 164.386 115.595 168.982 115.213 175.558L113.299 175.564C113.269 173.403 113.245 170.679 113.256 167.729C113.286 159.372 113.598 149.212 114.816 144.991C114.846 144.895 114.782 144.79 114.675 144.763C114.658 144.759 114.64 144.756 114.624 144.756C114.534 144.756 114.452 144.812 114.43 144.895C113.232 149.044 112.904 158.852 112.86 167.109C112.857 167.404 112.857 167.7 112.857 167.991C112.846 169.961 112.857 171.82 112.873 173.474C112.879 174.215 112.89 174.916 112.897 175.564L112.514 175.567L111.188 175.57Z" fill="#155D83"/>
<path d="M110.755 175.57H110.558C110.552 175.559 110.546 175.546 110.541 175.535L110.635 175.53C109.975 174.091 108.709 171.376 108.093 169.584C108.091 169.58 108.09 169.576 108.088 169.572C107.588 168.115 107.122 166.555 106.736 164.918C107.377 166.424 108.008 167.994 108.591 169.508C109.189 171.065 109.736 172.564 110.189 173.876C110.4 174.487 110.588 175.054 110.755 175.57Z" fill="#155D83"/>
<path d="M113.298 175.564H112.896C112.889 174.916 112.879 174.215 112.872 173.474C112.856 171.82 112.845 169.961 112.856 167.991C112.856 167.7 112.856 167.404 112.859 167.109C112.903 158.852 113.231 149.044 114.429 144.895C114.451 144.812 114.533 144.756 114.623 144.756C114.639 144.756 114.657 144.759 114.674 144.763C114.781 144.79 114.845 144.895 114.815 144.991C113.597 149.212 113.285 159.372 113.255 167.729C113.244 170.679 113.268 173.403 113.298 175.564Z" fill="#145778"/>
<path d="M108.191 175.577H108.184C106.829 174.3 105.231 172.653 103.68 170.718C104.853 169.084 105.715 166.749 106.334 163.988C106.468 164.294 106.601 164.605 106.735 164.918C107.121 166.555 107.587 168.115 108.087 169.572C108.088 169.576 108.09 169.58 108.091 169.584C108.707 171.376 109.974 174.091 110.634 175.53L110.54 175.535L109.657 175.574L108.191 175.577Z" fill="#145778"/>
<path d="M111.188 175.57H110.755C110.588 175.054 110.4 174.487 110.189 173.876C109.736 172.564 109.189 171.065 108.591 169.508C108.008 167.994 107.377 166.424 106.736 164.918C106.603 164.605 106.469 164.294 106.335 163.988C106.382 163.774 106.429 163.557 106.474 163.338C107.338 165.283 108.214 167.41 109.004 169.447C109.501 170.729 109.961 171.977 110.363 173.118C110.678 174.011 110.957 174.843 111.188 175.57Z" fill="#155D83"/>
<path d="M115.212 175.558C115.594 168.982 118.949 164.386 122.555 161.307L122.591 161.276C122.842 161.062 123.095 160.856 123.347 160.657C127.616 157.294 131.957 155.989 131.957 155.989C133.777 166.111 124.266 172.671 118.809 175.547H118.804L117.814 175.551L117.409 175.554H116.353C118.596 172.256 124.144 165.213 126.784 163.177L126.529 162.889C123.959 164.871 118.147 172.174 115.895 175.558H115.214H115.212Z" fill="#145778"/>
<path d="M115.896 175.558C118.149 172.174 123.96 164.871 126.531 162.889L126.786 163.177C124.146 165.213 118.598 172.256 116.355 175.554H116.353L115.896 175.558Z" fill="#155D83"/>
<path d="M125.322 175.611H103.957C103.994 175.598 104.034 175.591 104.075 175.591L108.186 175.577H108.192L109.658 175.574L110.558 175.57H110.755H111.188L112.514 175.567L112.896 175.564H113.299L115.212 175.558H115.215H115.896L116.352 175.554H116.354H117.409L117.815 175.551L118.805 175.547H118.809L125.096 175.53C125.181 175.53 125.26 175.561 125.322 175.611Z" fill="#145778"/>
<path d="M0 179.909H132.944V175.611H0V179.909Z" fill="#214C6D"/>
<path d="M60.3138 134.498C60.5715 137.535 63.0597 140.012 66.2236 140.136C69.7254 140.273 72.6408 137.468 72.6371 133.962L72.6365 133.002L72.6346 132.762V132.76L72.6217 130.4L72.6155 128.946L72.5791 122.34L61.5283 121.908L60.9649 127.198L60.566 130.948L60.3219 133.342C60.2805 133.735 60.2787 134.119 60.3138 134.498Z" fill="#F3A29C"/>
<path d="M127.571 71.1523V97.2944C127.571 98.5323 126.523 99.5366 125.23 99.5366L101.607 99.4867H97.5254L91.7618 99.5366C90.4683 99.5366 89.4209 98.5323 89.4209 97.2944V71.1523C89.4209 69.9143 90.4683 68.9101 91.7618 68.9101H125.23C126.523 68.9101 127.571 69.9143 127.571 71.1523Z" fill="white"/>
<path d="M124.895 72.5814V95.207C124.895 96.0269 124.231 96.6915 123.411 96.6915H93.0535C92.2336 96.6915 91.5684 96.0269 91.5684 95.207V72.5808C91.5684 71.7608 92.2329 71.0956 93.0523 71.0956H123.411C124.231 71.0956 124.895 71.7608 124.895 72.5814Z" fill="#F78F45"/>
<path d="M91.5684 87.8046V77.8881H124.895V84.3022H91.5684V87.8046Z" fill="#F6842D"/>
<path d="M124.895 91.7078H118.927C117.881 89.7818 116.662 88.5679 115.583 87.8047H124.895V91.7078ZM98.8197 91.7078H91.5684V87.8047H102.058C101.04 88.5624 99.8905 89.7738 98.8197 91.7078Z" fill="#F6842D"/>
<path d="M124.895 87.8046H115.583C113.996 86.6831 112.709 86.5358 112.709 86.5358C112.711 86.5487 112.713 86.5623 112.715 86.5759C112.566 86.5241 112.415 86.4766 112.261 86.4341C112.262 86.4224 112.261 86.4144 112.258 86.41C112.073 86.37 111.897 86.3348 111.729 86.3034C110.934 86.1351 110.086 86.0648 109.237 86.0648C108.883 86.0648 108.53 86.0771 108.181 86.0993C108.08 86.1006 107.977 86.1006 107.872 86.1006C107.737 86.1006 107.598 86.0999 107.454 86.0975C107.454 86.0975 106.762 86.2004 105.877 86.3607C105.877 86.3607 105.881 86.37 105.889 86.3866C105.617 86.4372 105.353 86.492 105.102 86.5494C105.102 86.5451 105.103 86.5401 105.104 86.5358C105.104 86.5358 103.763 86.5364 102.058 87.8046H91.5684V84.3022H124.895V87.8046Z" fill="#F57D21"/>
<path d="M119.721 96.6742H116.006V92.6657L118.91 93.3389C119.106 93.8629 119.56 95.6477 119.721 96.6742Z" fill="#F3A29C"/>
<path d="M101.88 92.6657V96.6742H98.3711C98.4858 95.7482 98.5961 95.0244 98.7003 94.448L101.88 92.6657Z" fill="#F3A29C"/>
<path d="M116.009 90.7632C116.008 92.3427 116.006 95.0879 116.005 96.6742H101.873V96.4868L101.871 92.6712C101.594 90.1263 102.432 87.3496 105.102 86.5494C108.964 85.6647 115.631 85.452 116.009 90.7632Z" fill="#2A2E4B"/>
<path d="M109.069 88.4279C111.367 88.4175 112.333 86.502 112.257 86.4101C110.68 86.0661 109.718 86.0803 108.585 86.0951C108.232 86.0994 107.863 86.1043 107.453 86.0976C107.453 86.0976 106.762 86.2005 105.877 86.3608C105.877 86.3608 106.771 88.4378 109.069 88.4279Z" fill="#F3A29C"/>
<path d="M107.253 86.4311C107.462 88.5919 110.876 88.3589 110.757 86.1616C110.727 85.2856 110.664 83.7443 110.631 82.8529L107.48 82.8338C107.425 83.9114 107.244 85.3627 107.253 86.4311Z" fill="#F3A29C"/>
<path d="M107.273 86.1241C108.629 86.2074 110.035 85.3486 110.739 84.8406L110.723 84.4269L107.388 84.0397C107.364 84.6186 107.238 85.5532 107.273 86.1241Z" fill="#EF7691"/>
<path d="M101.058 82.3882L101.02 82.3592L101.021 82.3586L101.058 82.3882Z" fill="#0E2A35"/>
<path d="M104.209 77.7249C105.24 84.319 112.859 84.6994 114.054 78.1213C114.652 77.9709 114.037 74.2737 111.538 73.7676C108.221 72.3354 106.471 73.8465 105.44 74.9284C105.433 74.9395 105.084 75.4025 104.934 75.6713C104.295 76.2077 103.951 76.8618 104.209 77.7249Z" fill="#2A2E4B"/>
<path d="M112.835 80.1027C114.873 77.5621 115.551 82.7561 112.902 81.9843C111.994 81.6199 112.835 80.1027 112.835 80.1027Z" fill="#F3A29C"/>
<path d="M113.569 80.1545C113.997 80.0694 114.234 81.3431 113.295 81.3986C113.42 81.1415 113.427 80.8388 113.295 80.5823L113.569 80.1545Z" fill="#EF7691"/>
<path d="M113.356 81.764C113.632 81.4835 113.746 81.1839 113.743 80.9318C113.74 80.5779 113.553 80.3788 113.529 80.3498L113.304 80.5606L113.579 80.7006L113.588 80.6833C113.611 80.6389 113.68 80.5181 113.754 80.4231L113.851 80.3183L113.863 80.3097L113.865 80.3085L113.813 80.2055V80.3183L113.865 80.3085L113.813 80.2055V80.3183V80.1469L113.732 80.298L113.813 80.3183V80.1469L113.732 80.298L113.793 80.1852L113.698 80.2727L113.732 80.298L113.793 80.1852L113.698 80.2727L113.736 80.2376L113.695 80.269L113.698 80.2727L113.736 80.2376L113.695 80.269L113.708 80.2968L113.738 80.3942C113.778 80.56 113.944 80.6623 114.11 80.6235C114.275 80.5841 114.378 80.4182 114.338 80.2524C114.304 80.1118 114.262 79.9965 114.182 79.8917C114.108 79.7869 113.958 79.6975 113.813 79.7018C113.628 79.7074 113.519 79.7925 113.433 79.8652C113.305 79.9793 113.214 80.1118 113.144 80.2215C113.075 80.3307 113.032 80.4151 113.029 80.4207L112.931 80.6136L113.079 80.7715L113.19 80.6673L113.073 80.7653L113.079 80.7715L113.19 80.6673L113.073 80.7653C113.074 80.7653 113.129 80.8362 113.127 80.9318C113.125 81.0101 113.103 81.1352 112.914 81.3343C112.795 81.4564 112.798 81.6518 112.92 81.7702C113.042 81.8892 113.237 81.8861 113.356 81.764Z" fill="#DE677E"/>
<path d="M105.521 79.9633C103.581 77.3469 102.706 82.5119 105.382 81.8406C106.304 81.5113 105.521 79.9633 105.521 79.9633Z" fill="#F3A29C"/>
<path d="M104.785 79.9868C104.361 79.8863 104.075 81.1501 105.012 81.2407C104.897 80.9793 104.9 80.676 105.043 80.4251L104.785 79.9868Z" fill="#EF7691"/>
<path d="M105.397 81.1914C105.222 80.9947 105.199 80.8702 105.198 80.7925C105.198 80.7321 105.215 80.6871 105.233 80.6544L105.255 80.6211L105.258 80.6168L105.149 80.5182L105.252 80.623L105.258 80.6168L105.149 80.5182L105.252 80.623L105.407 80.4707L105.316 80.274C105.312 80.266 105.242 80.1137 105.132 79.9479C105.077 79.8647 105.012 79.7777 104.927 79.6976C104.843 79.6224 104.732 79.5311 104.542 79.5256C104.398 79.5219 104.253 79.6076 104.178 79.7075C104.098 79.8079 104.052 79.9195 104.013 80.0558C103.968 80.2198 104.064 80.3893 104.228 80.4349C104.392 80.4805 104.562 80.3844 104.608 80.2204L104.641 80.1242L104.655 80.0977L104.633 80.0823L104.652 80.1008L104.655 80.0977L104.633 80.0823L104.652 80.1008L104.542 79.9898V80.1421L104.652 80.1008L104.542 79.9898V80.1421V80.0225L104.485 80.1304L104.542 80.1421V80.0225L104.485 80.1304L104.487 80.1322C104.515 80.1476 104.604 80.2561 104.659 80.3536L104.731 80.4824L104.751 80.5212L104.756 80.5329L105.036 80.4035L104.82 80.184C104.793 80.2124 104.585 80.4183 104.582 80.7925C104.58 81.0379 104.686 81.3258 104.938 81.6038C105.051 81.7302 105.247 81.7407 105.373 81.6266C105.5 81.5132 105.51 81.3184 105.397 81.1914Z" fill="#DE677E"/>
<path d="M109.085 84.9095C112.501 84.8726 112.73 81.7204 112.961 79.0879C113.238 76.8587 111.523 74.8809 109.277 74.8384C107.03 74.7952 105.242 76.707 105.433 78.9449C105.564 81.5829 105.673 84.7443 109.085 84.9095Z" fill="#F3A29C"/>
<path d="M110.669 80.2031C110.646 81.0403 111.26 81.0526 111.27 80.2142C111.292 79.3764 110.677 79.3646 110.669 80.2031Z" fill="#2A2E4B"/>
<path d="M107.063 80.1347C107.04 80.9726 107.655 80.9837 107.665 80.1458C107.687 79.308 107.072 79.2963 107.063 80.1347Z" fill="#2A2E4B"/>
<path d="M108.377 83.5804C109.218 83.541 110.669 83.9793 110.483 82.5854L107.723 82.533C107.651 83.0003 107.814 83.5773 108.377 83.5804Z" fill="#E72B61"/>
<path d="M107.85 78.5429C106.42 78.7427 105.577 78.4116 106.801 78.1373C108.025 77.8642 108.591 78.44 107.85 78.5429Z" fill="#2A2E4B"/>
<path d="M110.48 78.5935C111.902 78.8469 112.756 78.5479 111.544 78.2279C110.331 77.908 109.744 78.4616 110.48 78.5935Z" fill="#2A2E4B"/>
<path d="M108.944 82.9571C109.321 83.0015 109.875 82.9059 109.978 82.5761L108.197 82.5422C108.279 82.7795 108.587 82.9503 108.944 82.9571Z" fill="white"/>
<path d="M105.535 79.964C105.791 78.7372 105.79 75.1399 108.735 75.982C110.782 76.7939 113.27 77.2471 112.859 79.9104C112.859 79.9104 113.931 78.067 113.378 77.0048C112.825 75.9432 112.079 74.4981 110.959 74.1726C109.84 73.8458 105.955 75.3433 105.955 75.3433C105.955 75.3433 104.866 77.358 105.535 79.964Z" fill="#2A2E4B"/>
<path d="M105.911 77.6761C105.911 77.6761 107.467 75.8698 109.949 76.4185C109.949 76.4185 107.166 73.5037 105.911 77.6761Z" fill="#191D32"/>
<path d="M112.941 78.443C112.941 78.443 112.481 79.8992 112.798 81.1125C112.808 81.1723 113.94 77.8573 112.941 78.443Z" fill="#2A2E4B"/>
<path d="M105.492 78.3013C105.492 78.3013 105.896 79.7741 105.534 80.9744C105.521 81.0336 104.517 77.678 105.492 78.3013Z" fill="#2A2E4B"/>
<path d="M105.104 86.5358C105.104 86.5358 100.561 86.5358 97.5645 94.4486L101.873 96.4886C101.873 96.4886 104.86 88.3107 105.104 86.5358Z" fill="#2A2E4B"/>
<path d="M112.708 86.5358C112.708 86.5358 117.511 87.0851 119.997 94.1422L116.009 96.6742C116.009 96.6742 112.952 88.3107 112.708 86.5358Z" fill="#2A2E4B"/>
<path d="M109.179 89.5956C109.177 89.5956 109.175 89.5956 109.172 89.5956C106.853 89.5863 105.069 87.5451 105.051 87.5315L105.282 87.3275L105.358 87.4089C105.41 87.4625 105.486 87.5389 105.585 87.6314C105.782 87.8157 106.068 88.063 106.422 88.3089C107.13 88.8015 108.104 89.2873 109.169 89.2873C109.17 89.2873 109.171 89.2873 109.172 89.2873C110.237 89.2849 111.409 88.8151 112.564 87.3349L112.807 87.5241C111.618 89.0586 110.34 89.5956 109.179 89.5956ZM105.051 87.5315C105.051 87.5315 105.051 87.5315 105.051 87.5315H105.051Z" fill="#8F91A0"/>
<path d="M101.721 97.5107L101.72 96.6914H101.972L101.721 97.5107Z" fill="white"/>
<path d="M101.972 96.6915H101.72V96.6743H101.977L101.972 96.6915Z" fill="#FBC295"/>
<path d="M101.873 96.6742H101.718L101.718 96.4153L101.872 96.4886C101.872 96.4886 101.872 96.488 101.873 96.4868V96.6742Z" fill="#F9CDCB"/>
<path d="M101.977 96.6742H101.873V96.4868C101.892 96.4368 102.347 95.189 102.911 93.5794L102.924 93.5831L101.977 96.6742Z" fill="#8F91A0"/>
<path d="M101.873 96.4886L101.719 96.4153L101.716 95.1052L102.024 95.1046L102.025 95.4665L102.629 93.4925V93.4931L102.911 93.5794C102.347 95.1891 101.892 96.4369 101.874 96.4868C101.873 96.488 101.873 96.4886 101.873 96.4886Z" fill="#8F91A0"/>
<path d="M116.139 96.8413L115.949 96.6915H116.121L116.139 96.8413Z" fill="white"/>
<path d="M116.121 96.6915H115.949L115.928 96.6743H116.005C116.005 96.67 116.005 96.6663 116.005 96.6626C116.005 96.6626 116.005 96.6632 116.005 96.6638V96.6743H116.009H116.119L116.121 96.6915Z" fill="#FBC295"/>
<path d="M116.119 96.6742H116.01L116.112 96.6088L116.119 96.6742ZM116.01 96.6742H116.006V96.6637C116.008 96.6705 116.01 96.6742 116.01 96.6742Z" fill="#F9CDCB"/>
<path d="M116.006 96.6742H115.929L115.076 96.001L115.267 95.7587L115.745 96.136L115.71 95.845C115.875 96.3037 115.984 96.6008 116.006 96.6625C116.006 96.6662 116.006 96.6699 116.006 96.6742Z" fill="#8F91A0"/>
<path d="M116.01 96.6742C116.01 96.6742 116.008 96.6705 116.006 96.6637C116.005 96.6631 116.005 96.6625 116.005 96.6625C115.983 96.6008 115.875 96.3037 115.709 95.845L115.463 93.7927L115.769 93.7563L116.112 96.6088L116.01 96.6742Z" fill="#8F91A0"/>
<path d="M120.698 80.832C118.634 80.8141 115.279 81.3733 115.202 78.3475C115.006 76.8038 116.057 75.2964 117.687 75.3112H120.698C124.017 75.2607 124.018 80.8826 120.698 80.832Z" fill="white"/>
<path d="M119.773 80.5453V81.9059L121.604 80.1001L119.773 80.5453Z" fill="white"/>
<path d="M121.67 77.4894C121.581 77.3957 116.342 77.7095 116.532 77.3088C116.219 76.823 121.612 77.199 121.67 77.0868C121.912 77.0837 121.913 77.4925 121.67 77.4894Z" fill="#86D7E0"/>
<path d="M121.67 78.2945C121.581 78.2014 116.342 78.5146 116.532 78.1139C116.219 77.6281 121.612 78.0035 121.67 77.8919C121.912 77.8888 121.913 78.2982 121.67 78.2945Z" fill="#86D7E0"/>
<path d="M121.67 79.0564C121.581 78.9627 116.342 79.2765 116.532 78.8758C116.219 78.39 121.612 78.766 121.67 78.6538C121.912 78.6507 121.913 79.0595 121.67 79.0564Z" fill="#86D7E0"/>
<path d="M88.6064 110.613L89.7444 108.426C89.8233 108.275 89.7648 108.089 89.6137 108.01C89.4627 107.932 89.2765 107.991 89.1976 108.142L88.0595 110.329C87.9806 110.48 88.0392 110.666 88.1902 110.745C88.3413 110.824 88.5275 110.764 88.6064 110.613ZM90.8831 106.239L92.0218 104.051C92.1001 103.9 92.0415 103.714 91.8905 103.635C91.7394 103.557 91.5532 103.615 91.4749 103.766L90.3363 105.954C90.258 106.105 90.3165 106.291 90.4676 106.37C90.6186 106.448 90.8048 106.39 90.8831 106.239ZM93.1598 101.864L94.0334 100.185C94.1123 100.034 94.0538 99.848 93.9027 99.7697C93.7517 99.6908 93.5655 99.75 93.4866 99.901L92.613 101.579C92.5347 101.73 92.5933 101.916 92.7443 101.995C92.8954 102.074 93.0816 102.015 93.1598 101.864Z" fill="white"/>
<path d="M123.804 24.5306V55.4839C123.804 56.9505 122.542 58.1392 120.984 58.1392L92.5224 58.0794H87.6052L80.6597 58.1392C79.1018 58.1392 77.8398 56.9505 77.8398 55.4839V24.5306C77.8398 23.0645 79.1018 21.8759 80.6597 21.8759H120.984C122.542 21.8759 123.804 23.0645 123.804 24.5306Z" fill="white"/>
<path d="M120.582 26.2981V53.5592C120.582 54.5474 119.781 55.3483 118.792 55.3483H82.2168C81.2286 55.3483 80.4277 54.5474 80.4277 53.5592V26.2975C80.4277 25.3098 81.2286 24.509 82.2156 24.509H118.792C119.781 24.509 120.582 25.3098 120.582 26.2981Z" fill="#37BDCF"/>
<path d="M80.4277 34.2059V32.6924L80.4283 34.2059" fill="#66869B"/>
<path d="M120.582 34.2059H80.4277L80.4283 32.6924H120.582V34.2059Z" fill="#2A7390"/>
<path d="M80.4277 40.4215V38.908L80.4283 40.4215" fill="#66869B"/>
<path d="M120.582 40.4215H80.4277L80.4283 38.908H120.582V40.4215Z" fill="#2A7390"/>
<path d="M114.348 55.3274H109.872V50.4971L113.37 51.309C113.607 51.9403 114.154 54.0901 114.348 55.3274Z" fill="#F3A29C"/>
<path d="M92.8517 50.4971V55.3274H88.625C88.7631 54.2115 88.8969 53.3398 89.0208 52.6456L92.8517 50.4971Z" fill="#F3A29C"/>
<path d="M109.876 48.2056C109.874 50.1087 109.872 53.4162 109.871 55.3274H92.8435V55.1018L92.841 50.5039C92.5069 47.4386 93.5167 44.0923 96.7342 43.1287C101.388 42.0627 109.421 41.8063 109.876 48.2056Z" fill="#E72B61"/>
<path d="M101.513 45.3912C104.282 45.3789 105.446 43.0713 105.354 42.9609C102.862 42.4166 101.644 42.6157 99.5668 42.5843C99.5668 42.5843 98.7333 42.7082 97.668 42.9011C97.668 42.9011 98.7456 45.4035 101.513 45.3912Z" fill="#F3A29C"/>
<path d="M99.3266 42.9856C99.5775 45.5897 103.691 45.3086 103.549 42.6607C103.513 41.6053 103.437 39.7484 103.397 38.6744L99.5997 38.6516C99.5343 39.9493 99.3155 41.6984 99.3266 42.9856Z" fill="#F3A29C"/>
<path d="M99.3487 42.6163C100.985 42.7162 102.678 41.6811 103.526 41.0695L103.506 40.5708L99.4893 40.1041C99.459 40.802 99.308 41.9277 99.3487 42.6163Z" fill="#EF7691"/>
<path d="M91.8607 38.1145L91.8145 38.0794L91.8163 38.0787L91.8607 38.1145Z" fill="#0E2A35"/>
<path d="M95.6586 32.4964C96.9002 40.4406 106.08 40.8993 107.52 32.9736C108.24 32.7923 107.5 28.3369 104.488 27.7284C100.493 26.0022 98.3836 27.8227 97.1419 29.1266C97.1339 29.1396 96.7128 29.6975 96.5316 30.0224C95.7615 30.6679 95.3479 31.4564 95.6586 32.4964Z" fill="#E72B61"/>
<path d="M106.051 35.3613C108.508 32.2997 109.323 38.5578 106.132 37.6269C105.038 37.1886 106.051 35.3613 106.051 35.3613Z" fill="#F3A29C"/>
<path d="M106.936 35.4229C107.451 35.3212 107.737 36.8557 106.605 36.9229C106.756 36.6121 106.766 36.2478 106.606 35.9389L106.936 35.4229Z" fill="#EF7691"/>
<path d="M106.632 37.3187C106.956 36.9889 107.084 36.6461 107.082 36.3595C107.078 35.9587 106.865 35.7306 106.84 35.7016L106.615 35.9125L106.89 36.0524L106.901 36.0302C106.93 35.9754 107.015 35.8274 107.108 35.7084C107.153 35.6486 107.202 35.5975 107.235 35.5716L107.264 35.5518L107.229 35.4754V35.5574L107.264 35.5518L107.229 35.4754V35.5574V35.4137L107.16 35.5401L107.229 35.5574V35.4137L107.16 35.5401L107.204 35.46L107.136 35.5229L107.16 35.5401L107.204 35.46L107.136 35.5229L107.14 35.5284C107.152 35.5457 107.178 35.6018 107.2 35.6979C107.239 35.8632 107.406 35.9655 107.571 35.9267C107.737 35.8872 107.839 35.7214 107.8 35.5555C107.76 35.3915 107.711 35.2602 107.624 35.1455C107.541 35.0303 107.383 34.9366 107.229 34.9409C107.032 34.9464 106.911 35.0389 106.813 35.1215C106.666 35.2522 106.559 35.4082 106.476 35.5377C106.395 35.6665 106.343 35.767 106.34 35.7725L106.242 35.9655L106.39 36.1233L106.478 36.0413L106.386 36.1184L106.39 36.1233L106.478 36.0413L106.386 36.1184C106.391 36.1239 106.467 36.2232 106.465 36.3595C106.463 36.4723 106.428 36.6406 106.19 36.889C106.071 37.0111 106.074 37.2065 106.196 37.3249C106.318 37.4439 106.514 37.4408 106.632 37.3187Z" fill="#DE677E"/>
<path d="M97.2382 35.1936C94.9011 32.0408 93.8475 38.2638 97.0724 37.4549C98.1821 37.0579 97.2382 35.1936 97.2382 35.1936Z" fill="#F3A29C"/>
<path d="M96.3526 35.2214C95.8421 35.1005 95.4969 36.6227 96.6251 36.733C96.4876 36.4168 96.4919 36.0524 96.6627 35.7497L96.3526 35.2214Z" fill="#EF7691"/>
<path d="M97.0419 36.7152C96.8237 36.4698 96.7879 36.3034 96.7861 36.1918C96.7861 36.1067 96.8114 36.0413 96.8367 35.9951L96.8687 35.9464L96.8755 35.9378L96.7904 35.8613L96.8706 35.9427L96.8755 35.9378L96.7904 35.8613L96.8706 35.9427L97.0247 35.7904L96.934 35.5938C96.9303 35.5857 96.8471 35.4045 96.7177 35.2091C96.6523 35.1117 96.5765 35.0099 96.4797 34.9187C96.3835 34.8324 96.2608 34.7344 96.0592 34.7288C95.9063 34.7251 95.7528 34.8145 95.669 34.9242C95.5808 35.0346 95.5278 35.1622 95.4828 35.3213C95.4378 35.4853 95.5334 35.6548 95.698 35.7004C95.862 35.746 96.0315 35.6499 96.0771 35.4859C96.1067 35.3755 96.1406 35.3194 96.1474 35.3139L96.1308 35.3003L96.1443 35.3163L96.1474 35.3139L96.1308 35.3003L96.1443 35.3163L96.0592 35.2165V35.3453L96.1443 35.3163L96.0592 35.2165V35.3453V35.2282L96.0266 35.341L96.0592 35.3453V35.2282L96.0266 35.341L96.0377 35.3034L96.0192 35.3385L96.0266 35.341L96.0377 35.3034L96.0192 35.3385L96.1086 35.4218C96.1739 35.4976 96.2448 35.6098 96.2948 35.6998L96.3545 35.812L96.3743 35.8527L96.6542 35.7232L96.4378 35.5037C96.4113 35.5321 96.1739 35.7676 96.1696 36.1918C96.1684 36.471 96.2873 36.8009 96.5833 37.1276C96.6973 37.254 96.8921 37.2645 97.0185 37.1504C97.1455 37.0364 97.1554 36.8416 97.0419 36.7152Z" fill="#DE677E"/>
<path d="M101.533 41.1521C105.649 41.1083 105.925 37.3101 106.203 34.1388C106.536 31.4527 104.47 29.0687 101.764 29.0175C99.0579 28.9657 96.9026 31.269 97.1331 33.9662C97.2903 37.1448 97.4223 40.9536 101.533 41.1521Z" fill="#F3A29C"/>
<path d="M103.439 35.4814C103.412 36.4912 104.153 36.5048 104.164 35.495C104.191 34.4858 103.451 34.4716 103.439 35.4814Z" fill="#2A2E4B"/>
<path d="M99.0974 35.3988C99.0703 36.4087 99.8107 36.4228 99.8218 35.413C99.8489 34.4032 99.1085 34.389 99.0974 35.3988Z" fill="#2A2E4B"/>
<path d="M100.681 39.551C101.694 39.5029 103.443 40.0312 103.219 38.3525L99.8933 38.289C99.8064 38.8519 100.003 39.5479 100.681 39.551Z" fill="#E72B61"/>
<path d="M100.045 33.4816C98.3217 33.722 97.3064 33.3231 98.781 32.9933C100.256 32.6635 100.938 33.3571 100.045 33.4816Z" fill="#E72B61"/>
<path d="M103.214 33.542C104.926 33.8478 105.957 33.4877 104.495 33.1018C103.034 32.7165 102.326 33.3836 103.214 33.542Z" fill="#E72B61"/>
<path d="M101.363 38.8001C101.816 38.8537 102.485 38.7378 102.61 38.3408L100.464 38.3001C100.561 38.5855 100.933 38.7914 101.363 38.8001Z" fill="white"/>
<path d="M97.2561 35.1936C97.5656 33.7158 97.5644 29.3812 101.112 30.396C103.579 31.3738 106.576 31.92 106.08 35.1289C106.08 35.1289 107.372 32.9082 106.706 31.6284C106.04 30.3485 105.141 28.6081 103.792 28.2154C102.443 27.8227 97.7623 29.626 97.7623 29.626C97.7623 29.626 96.4497 32.0538 97.2561 35.1936Z" fill="#E72B61"/>
<path d="M97.709 32.4377C97.709 32.4377 99.5844 30.2609 102.574 30.9224C102.574 30.9224 99.2206 27.4102 97.709 32.4377Z" fill="#E72B61"/>
<path d="M106.179 33.3614C106.179 33.3614 105.624 35.1153 106.007 36.5777C106.019 36.6492 107.383 32.6555 106.179 33.3614Z" fill="#E72B61"/>
<path d="M97.2047 33.1906C97.2047 33.1906 97.6918 34.9643 97.2547 36.4112C97.2386 36.4821 96.029 32.4391 97.2047 33.1906Z" fill="#E72B61"/>
<path d="M96.7365 43.1119C96.7365 43.1119 91.2632 43.1119 87.6523 52.6461L92.8427 55.1035C92.8427 55.1035 96.4418 45.2512 96.7365 43.1119Z" fill="#E72B61"/>
<path d="M105.899 43.112C105.899 43.112 111.686 43.7742 114.681 52.2769L109.876 55.3274C109.876 55.3274 106.193 45.2513 105.899 43.112Z" fill="#E72B61"/>
<path d="M101.642 46.6902C101.641 46.6902 101.64 46.6902 101.638 46.6902C98.9067 46.6853 96.7607 44.2433 96.7539 44.2396L96.8698 44.1379C96.8704 44.1379 97.0005 44.2858 97.2409 44.5115C97.482 44.7365 97.8309 45.0373 98.2625 45.3376C99.1262 45.9387 100.32 46.5361 101.638 46.5361C102.956 46.5348 104.407 45.9455 105.811 44.1416L105.932 44.2359C104.511 46.0669 103.007 46.6902 101.642 46.6902Z" fill="#F684A9"/>
<path d="M92.7678 55.614L92.7666 55.3483H92.8486L92.7678 55.614Z" fill="white"/>
<path d="M92.8486 55.3483H92.7666V55.3273H92.8554L92.8486 55.3483Z" fill="#8ED9DE"/>
<path d="M92.8433 55.3274H92.7663L92.7656 55.0672L92.8427 55.1036C92.8427 55.1036 92.8433 55.103 92.8433 55.1018V55.3274Z" fill="#F9CDCB"/>
<path d="M92.8555 55.3274H92.8438V55.1018C92.8561 55.0685 93.0632 54.5007 93.377 53.6246L92.8555 55.3274Z" fill="#F684A9"/>
<path d="M92.8425 55.1035L92.7654 55.0671L92.7617 53.4371L92.9158 53.4365L92.9183 54.5931L93.8579 51.526L94.0052 51.571L93.3764 53.6245C93.0626 54.5006 92.8554 55.0684 92.8431 55.1017C92.8431 55.1029 92.8425 55.1035 92.8425 55.1035Z" fill="#F684A9"/>
<path d="M109.844 55.241L108.818 54.4309L108.914 54.3101L109.696 54.9272L109.678 54.7835C109.755 54.9956 109.812 55.1516 109.844 55.241Z" fill="#F684A9"/>
<path d="M109.894 55.2799L109.844 55.2411C109.812 55.1517 109.756 54.9957 109.678 54.7836L109.325 51.8435L109.478 51.825L109.894 55.2799Z" fill="#F684A9"/>
<path d="M105.36 35.489H105.129C105.128 36.2214 104.534 36.8145 103.801 36.8157C103.068 36.8145 102.475 36.2214 102.474 35.489C102.475 34.7553 103.068 34.1623 103.801 34.161C104.534 34.1623 105.128 34.7553 105.129 35.489H105.36H105.591C105.591 34.5001 104.79 33.6987 103.801 33.6987C102.813 33.6987 102.012 34.5001 102.012 35.489C102.012 36.4772 102.813 37.2781 103.801 37.2781C104.79 37.2781 105.591 36.4772 105.591 35.489H105.36Z" fill="white"/>
<path d="M100.902 35.489H100.671C100.67 36.2214 100.076 36.8145 99.344 36.8157C98.6104 36.8145 98.0173 36.2214 98.0161 35.489C98.0173 34.7553 98.6104 34.1623 99.344 34.161C100.076 34.1623 100.67 34.7553 100.671 35.489H100.902H101.133C101.133 34.5001 100.332 33.6993 99.344 33.6987C98.3552 33.6987 97.5537 34.5001 97.5537 35.489C97.5537 36.4772 98.3552 37.2781 99.344 37.2781C100.332 37.2781 101.133 36.4772 101.133 35.489H100.902Z" fill="white"/>
<path d="M101.033 35.6782L101.029 35.6721L101.033 35.6782L101.029 35.6721L101.033 35.6782C101.049 35.6659 101.315 35.5 101.61 35.5031C101.769 35.5044 101.933 35.5432 102.108 35.6733L102.386 35.304C102.129 35.1092 101.851 35.0401 101.61 35.0408C101.127 35.0445 100.788 35.288 100.769 35.2991L101.034 35.6782" fill="white"/>
<path d="M115.524 36.2398C113.038 36.2182 108.996 36.8914 108.903 33.2467C108.667 31.3861 109.933 29.5699 111.897 29.5877H115.524C119.524 29.5273 119.525 36.3008 115.524 36.2398Z" fill="white"/>
<path d="M114.412 35.8933V37.5332L116.617 35.3576L114.412 35.8933Z" fill="white"/>
<path d="M116.698 32.2123C116.59 32.0995 110.277 32.4768 110.506 31.9947C110.129 31.4096 116.626 31.8621 116.698 31.7271C116.988 31.7234 116.99 32.216 116.698 32.2123Z" fill="#86D7E0"/>
<path d="M116.698 33.1826C116.59 33.0698 110.277 33.4471 110.506 32.9644C110.129 32.3799 116.626 32.8318 116.698 32.6974C116.988 32.6937 116.99 33.1863 116.698 33.1826Z" fill="#86D7E0"/>
<path d="M116.698 34.1005C116.59 33.9877 110.277 34.365 110.506 33.8829C110.129 33.2978 116.626 33.7503 116.698 33.6153C116.988 33.6116 116.99 34.1042 116.698 34.1005Z" fill="#86D7E0"/>
<path d="M88.5151 58.4715L87.7876 60.8277C87.7377 60.9905 87.8289 61.1631 87.991 61.2137C88.1538 61.2636 88.3264 61.1724 88.377 61.0096L89.1038 58.6533C89.1544 58.4906 89.0631 58.318 88.9004 58.268C88.7376 58.2181 88.565 58.3087 88.5151 58.4715ZM87.0601 63.1846L86.3333 65.5409C86.2827 65.703 86.374 65.8757 86.5367 65.9262C86.6995 65.9761 86.8721 65.8849 86.922 65.7228L87.6495 63.3659C87.6994 63.2037 87.6088 63.0311 87.4461 62.9806C87.2833 62.9306 87.1107 63.0219 87.0601 63.1846ZM85.6058 67.8972L84.8783 70.2534C84.8284 70.4162 84.9196 70.5888 85.0824 70.6387C85.2451 70.6887 85.4171 70.5981 85.4677 70.4353L86.1952 68.079C86.2451 67.9163 86.1539 67.7437 85.9911 67.6931C85.8284 67.6432 85.6564 67.7344 85.6058 67.8972ZM84.1515 72.6097L83.424 74.966C83.3741 75.1287 83.4647 75.3014 83.6275 75.3513C83.7902 75.4018 83.9628 75.3106 84.0134 75.1478L84.7402 72.7916C84.7908 72.6288 84.6995 72.4562 84.5368 72.4063C84.374 72.3557 84.2014 72.4469 84.1515 72.6097ZM82.6965 77.3222L81.9697 79.6785C81.9191 79.8413 82.0103 80.0139 82.1731 80.0638C82.3359 80.1144 82.5085 80.0231 82.5584 79.8604L83.2859 77.5041C83.3358 77.3414 83.2452 77.1687 83.0824 77.1188C82.9197 77.0682 82.7471 77.1595 82.6965 77.3222ZM81.2422 82.0348L80.5147 84.3911C80.4648 84.5538 80.556 84.7264 80.7188 84.777C80.8815 84.8269 81.0535 84.7357 81.1041 84.5729L81.8316 82.2167C81.8815 82.0539 81.7903 81.8813 81.6275 81.8313C81.4647 81.7814 81.2927 81.872 81.2422 82.0348ZM79.7879 86.7473L79.0604 89.1042C79.0105 89.2663 79.1011 89.439 79.2638 89.4895C79.4266 89.5395 79.5992 89.4482 79.6498 89.2855L80.3766 86.9292C80.4272 86.7664 80.3359 86.5944 80.1732 86.5439C80.0104 86.4939 79.8378 86.5852 79.7879 86.7473ZM78.3329 91.4605L77.9895 92.5745C77.939 92.7373 78.0302 92.9099 78.193 92.9598C78.3557 93.0104 78.5283 92.9191 78.5783 92.7564L78.9223 91.6423C78.9722 91.4796 78.8816 91.307 78.7189 91.2564C78.5561 91.2065 78.3835 91.2977 78.3329 91.4605Z" fill="white"/>
<path d="M37.4822 110.335L36.4532 108.094C36.3823 107.94 36.1992 107.872 36.0445 107.943C35.8897 108.014 35.8219 108.197 35.8928 108.351L36.9217 110.592C36.9926 110.747 37.1757 110.815 37.3305 110.744C37.4852 110.673 37.5531 110.49 37.4822 110.335ZM35.4243 105.853L34.3947 103.612C34.3238 103.458 34.1407 103.39 33.9859 103.461C33.8312 103.532 33.7634 103.715 33.8349 103.869L34.8639 106.11C34.9348 106.265 35.1179 106.333 35.2726 106.262C35.4273 106.191 35.4951 106.008 35.4243 105.853ZM33.3658 101.371L32.3368 99.1304C32.2659 98.9757 32.0828 98.9079 31.9281 98.9788C31.7733 99.0497 31.7055 99.2328 31.7764 99.3875L32.8054 101.629C32.8769 101.783 33.0593 101.851 33.2141 101.78C33.3688 101.709 33.4367 101.526 33.3658 101.371ZM31.3079 96.8895L30.2789 94.6485C30.2074 94.4937 30.0249 94.4259 29.8702 94.4968C29.7155 94.5677 29.6476 94.7508 29.7185 94.9056L30.7475 97.1465C30.8184 97.3013 31.0015 97.3691 31.1562 97.2982C31.311 97.2267 31.3788 97.0442 31.3079 96.8895Z" fill="white"/>
<path d="M56.902 54.5191V89.3922C56.902 91.0444 55.4686 92.384 53.6992 92.384L21.3841 92.3162H15.8017L7.91661 92.384C6.14725 92.384 4.71387 91.0444 4.71387 89.3922V54.5191C4.71387 52.8675 6.14725 51.5279 7.91661 51.5279H53.6992C55.4686 51.5279 56.902 52.8675 56.902 54.5191Z" fill="white"/>
<path d="M53.2404 56.5491V87.5006C53.2404 88.622 52.3317 89.532 51.2091 89.532H9.68272C8.56131 89.532 7.65137 88.622 7.65137 87.5006V56.5485C7.65137 55.4271 8.56069 54.5178 9.68149 54.5178H51.2091C52.3317 54.5178 53.2404 55.4271 53.2404 56.5491Z" fill="#E72B61"/>
<path d="M7.65137 75.7113H53.2404V65.5274H7.65137V75.7113Z" fill="#CA2459"/>
<path d="M53.2404 84.4861H7.65137V82.7685H53.2404V84.4861Z" fill="#CA2459"/>
<path d="M46.1635 89.5081H41.0811V84.0243L45.0526 84.9453C45.3226 85.6623 45.9434 88.103 46.1635 89.5081Z" fill="#F3A29C"/>
<path d="M21.7579 84.0243V89.5081H16.959C17.1156 88.2405 17.2673 87.251 17.4078 86.4632L21.7579 84.0243Z" fill="#F3A29C"/>
<path d="M41.0856 81.422C41.0837 83.5829 41.0825 87.338 41.0806 89.5081H21.7484V89.2522L21.7447 84.0317C21.3655 80.5515 22.5122 76.752 26.165 75.6577C31.449 74.4475 40.5689 74.1565 41.0856 81.422Z" fill="#37BDCF"/>
<path d="M31.5916 78.2266C34.7358 78.2125 36.0564 75.5923 35.9528 75.4672C33.1237 74.8494 31.7408 75.0757 29.3815 75.0399C29.3815 75.0399 28.4358 75.1799 27.2256 75.4C27.2256 75.4 28.4487 78.2408 31.5916 78.2266Z" fill="#F3A29C"/>
<path d="M29.1079 75.4955C29.3933 78.4523 34.0634 78.1323 33.9018 75.1268C33.8612 73.929 33.7742 71.8199 33.7286 70.6005L29.418 70.5752C29.344 72.048 29.095 74.0344 29.1079 75.4955Z" fill="#F3A29C"/>
<path d="M29.1352 75.0757C30.9914 75.1892 32.9143 74.0147 33.8767 73.3205L33.8557 72.754L29.2936 72.2238C29.2603 73.0166 29.0877 74.2946 29.1352 75.0757Z" fill="#EF7691"/>
<path d="M20.582 69.965H20.6343V69.925H20.582V69.965Z" fill="#E35034"/>
<path d="M24.9438 63.586C26.3538 72.6067 33.2993 72.8866 38.1431 65.1292C39.9495 62.2365 32.578 52.5747 25.9352 60.7773C25.2169 61.6644 24.5918 62.4054 24.9438 63.586Z" fill="#2A2E4B"/>
<path d="M36.7431 66.8386C39.5315 63.3628 40.4581 70.4686 36.8343 69.4119C35.5927 68.9138 36.7431 66.8386 36.7431 66.8386Z" fill="#F3A29C"/>
<path d="M37.7479 66.9089C38.3329 66.7936 38.6585 68.5359 37.373 68.6117C37.5432 68.2597 37.5549 67.8454 37.3737 67.4952L37.7479 66.9089Z" fill="#EF7691"/>
<path d="M37.3731 69.0322C37.735 68.6635 37.8743 68.2856 37.8725 67.9724C37.8688 67.5341 37.6339 67.2831 37.6086 67.2542L37.3842 67.4656L37.6586 67.605L37.6721 67.5791C37.706 67.5156 37.8028 67.346 37.9107 67.2079C37.9637 67.1389 38.0204 67.0778 38.0617 67.0458L38.103 67.018L38.1049 67.0174L38.0809 66.9496V67.0205L38.1049 67.0174L38.0809 66.9496V67.0205V66.8991L38.0235 67.0057L38.0809 67.0205V66.8991L38.0235 67.0057L38.0525 66.9515L38.0069 66.9946L38.0235 67.0057L38.0525 66.9515L38.0069 66.9946C38.0094 66.994 38.055 67.0618 38.0889 67.2116C38.1283 67.3768 38.2942 67.4798 38.46 67.4403C38.6252 67.4009 38.7282 67.2351 38.6887 67.0692C38.6443 66.8867 38.5901 66.7425 38.4964 66.6198C38.4076 66.4965 38.2424 66.3997 38.0809 66.404C37.875 66.4096 37.7437 66.5076 37.6358 66.5988C37.4755 66.7418 37.3546 66.9169 37.2615 67.0624C37.1697 67.2067 37.1124 67.3201 37.1093 67.3257L37.0112 67.5186L37.1592 67.6765L37.2282 67.6117L37.1555 67.6728L37.1592 67.6765L37.2282 67.6117L37.1555 67.6728C37.1654 67.6826 37.2578 67.8035 37.256 67.9724C37.2535 68.1117 37.2073 68.3145 36.9311 68.6031C36.8121 68.7251 36.8152 68.92 36.9373 69.0389C37.0593 69.1573 37.2548 69.1548 37.3731 69.0322Z" fill="#DE677E"/>
<path d="M26.7377 66.6487C24.0837 63.0693 22.8877 70.1344 26.5484 69.2164C27.808 68.7658 26.7377 66.6487 26.7377 66.6487Z" fill="#F3A29C"/>
<path d="M25.7305 66.6803C25.151 66.5428 24.7595 68.2715 26.0406 68.396C25.884 68.0378 25.889 67.6241 26.0825 67.2807L25.7305 66.6803Z" fill="#EF7691"/>
<path d="M26.4827 68.4039C26.2299 68.1197 26.1837 67.9199 26.1818 67.7818C26.1824 67.677 26.2133 67.5957 26.2441 67.5383L26.2842 67.4773L26.294 67.4656L26.2287 67.4064L26.2903 67.4693L26.294 67.4656L26.2287 67.4064L26.2903 67.4693L26.4445 67.317L26.3538 67.121C26.3495 67.1123 26.2558 66.9083 26.1115 66.6894C26.0382 66.5803 25.9537 66.4668 25.8477 66.367C25.7423 66.272 25.6097 66.1678 25.3983 66.1623C25.2386 66.1586 25.0783 66.2517 24.9883 66.3694C24.8933 66.4878 24.8348 66.6271 24.7848 66.8041C24.7392 66.9681 24.8348 67.1382 24.9994 67.1838C25.1633 67.2295 25.3329 67.1333 25.3785 66.9693C25.4137 66.8411 25.4537 66.7726 25.4661 66.7591L25.4691 66.756L25.4235 66.7116L25.4494 66.7677L25.4691 66.756L25.4235 66.7116L25.4494 66.7677L25.3983 66.6567V66.7788L25.4494 66.7677L25.3983 66.6567V66.7788V66.6882L25.3736 66.7757L25.3983 66.7788V66.6882L25.3736 66.7757L25.3742 66.7732L25.3724 66.7757H25.3736L25.3742 66.7732L25.3724 66.7757C25.3853 66.7806 25.4359 66.8201 25.4858 66.8805C25.5629 66.9699 25.6449 67.0994 25.7022 67.2023L25.7706 67.3318L25.794 67.3793L26.0739 67.2498L25.8569 67.0303C25.8304 67.0587 25.5696 67.3176 25.5653 67.7818C25.5641 68.0876 25.6936 68.4514 26.0246 68.8163C26.1387 68.9427 26.3335 68.9532 26.4599 68.8391C26.5869 68.7251 26.5967 68.5303 26.4827 68.4039Z" fill="#DE677E"/>
<path d="M31.6144 73.4143C36.2875 73.3644 36.6013 69.0519 36.9169 65.451C37.2954 62.4011 34.949 59.6953 31.877 59.6367C28.8044 59.5782 26.3568 62.1934 26.6189 65.2555C26.7976 68.8639 26.9475 73.1887 31.6144 73.4143Z" fill="#F3A29C"/>
<path d="M29.9231 64.7049C27.9676 64.978 26.8141 64.5249 28.4885 64.1506C30.1636 63.7764 30.9367 64.5637 29.9231 64.7049Z" fill="#2A2E4B"/>
<path d="M33.5217 64.7739C35.4655 65.1204 36.6363 64.7117 34.9766 64.274C33.3176 63.8362 32.5143 64.5939 33.5217 64.7739Z" fill="#2A2E4B"/>
<path d="M26.771 66.6599C27.1218 64.9812 27.1205 60.0603 31.1494 61.2131C33.9495 62.3228 37.352 62.943 36.7904 66.5865C36.7904 66.5865 38.257 64.0651 37.5 62.612C36.7435 61.1589 35.7226 59.183 34.1918 58.7366C32.6604 58.2903 27.3462 60.3389 27.3462 60.3389C27.3462 60.3389 25.8555 63.0947 26.771 66.6599Z" fill="#2A2E4B"/>
<path d="M36.8884 64.5686C36.8884 64.5686 36.2589 66.5599 36.6923 68.2201C36.7071 68.3015 38.2552 63.7671 36.8884 64.5686Z" fill="#2A2E4B"/>
<path d="M26.6997 64.3751C26.6997 64.3751 27.2534 66.3892 26.7565 68.0315C26.7392 68.1123 25.365 63.5218 26.6997 64.3751Z" fill="#2A2E4B"/>
<path d="M26.1674 75.6386C26.1674 75.6386 19.9536 75.6386 15.8545 86.4637L21.7476 89.254C21.7476 89.254 25.8338 78.0676 26.1674 75.6386Z" fill="#37BDCF"/>
<path d="M36.5713 75.6386C36.5713 75.6386 43.1413 76.3901 46.5426 86.0445L41.0859 89.5081C41.0859 89.5081 36.9048 78.0676 36.5713 75.6386Z" fill="#37BDCF"/>
<path d="M31.7374 79.6909C31.7362 79.6909 31.735 79.6909 31.7337 79.6909C28.6389 79.6866 26.2031 76.9167 26.1963 76.913L26.3122 76.8106C26.3122 76.8112 26.4608 76.9795 26.7345 77.2354C27.0076 77.4919 27.4046 77.8334 27.8954 78.1743C28.8768 78.858 30.2338 79.5374 31.7337 79.5368C33.2337 79.5362 34.8841 78.8642 36.4796 76.8143L36.601 76.9093C34.9882 78.9856 33.2848 79.6909 31.7374 79.6909Z" fill="#8ED9DE"/>
<path d="M21.6715 89.7639L21.6709 89.5321H21.743L21.6715 89.7639Z" fill="white"/>
<path d="M21.743 89.532H21.6709V89.5079H21.7504L21.743 89.532Z" fill="#F684A9"/>
<path d="M21.7486 89.5081H21.6715L21.6709 89.2171L21.748 89.2541C21.748 89.2541 21.7486 89.2534 21.7486 89.2522V89.5081Z" fill="#F9CDCB"/>
<path d="M21.7505 89.5081H21.748V89.2522C21.7604 89.2189 21.9632 88.6628 22.2764 87.7892L21.7505 89.5081Z" fill="#8ED9DE"/>
<path d="M21.748 89.254L21.6709 89.217L21.666 87.362L21.8201 87.3614L21.8238 88.7429L22.9101 85.195L23.0574 85.24L22.2769 87.7892C21.9638 88.6628 21.7609 89.2189 21.7486 89.2522C21.7486 89.2534 21.748 89.254 21.748 89.254Z" fill="#8ED9DE"/>
<path d="M41.0432 89.3915L39.8916 88.4821L39.9865 88.3613L40.8947 89.0777L40.8774 88.9346C40.9514 89.1387 41.0075 89.2941 41.0432 89.3915Z" fill="#8ED9DE"/>
<path d="M41.0921 89.4297L41.0434 89.3915C41.0077 89.2941 40.9516 89.1387 40.8776 88.9346L40.4707 85.5507L40.6236 85.5322L41.0921 89.4297Z" fill="#8ED9DE"/>
<path d="M33.3036 67.5371L33.319 67.5032C33.3578 67.4206 33.4719 67.2048 33.6494 67.0186C33.8288 66.8306 34.06 66.6789 34.346 66.6789L34.4842 66.6906C34.8849 66.7554 35.1444 66.9785 35.3121 67.1925C35.3953 67.2991 35.4539 67.4021 35.4903 67.4779L35.5303 67.5673L35.5408 67.5957C35.5674 67.677 35.6543 67.7208 35.735 67.6943C35.8164 67.6678 35.8602 67.5809 35.8337 67.5001C35.83 67.489 35.7542 67.2584 35.555 67.0026C35.3577 66.748 35.0285 66.4662 34.5335 66.3861C34.4693 66.3756 34.4071 66.3707 34.346 66.3707C33.8861 66.3719 33.552 66.6475 33.3399 66.9027C33.1266 67.1598 33.023 67.4095 33.0187 67.4181C32.9861 67.4964 33.023 67.587 33.1013 67.6197C33.1802 67.6524 33.2703 67.6154 33.3036 67.5371Z" fill="#2A2E4B"/>
<path d="M28.0054 67.5371L28.0208 67.5032C28.0597 67.4206 28.1737 67.2048 28.3513 67.0186C28.5307 66.8306 28.7619 66.6789 29.0485 66.6789L29.1872 66.6906C29.5867 66.7554 29.8469 66.9785 30.0146 67.1925C30.0978 67.2991 30.1564 67.4027 30.1928 67.4779L30.2328 67.5673L30.2433 67.5963C30.2698 67.677 30.3574 67.7208 30.4381 67.6943C30.5189 67.6678 30.5627 67.5809 30.5361 67.4995C30.5324 67.489 30.4566 67.2578 30.2575 67.0026C30.0596 66.748 29.7304 66.4662 29.2366 66.3861C29.1725 66.3756 29.1096 66.3707 29.0485 66.3707C28.5886 66.3719 28.2539 66.6475 28.0424 66.9027C27.8285 67.1598 27.7249 67.4095 27.7212 67.4181C27.6879 67.4964 27.7249 67.587 27.8038 67.6197C27.8821 67.6524 27.9721 67.6154 28.0054 67.5371Z" fill="#2A2E4B"/>
<path d="M30.318 71.1696C30.3284 71.1733 30.9154 71.4242 31.6367 71.4254C32.1884 71.426 32.8339 71.2719 33.3209 70.7226C33.3777 70.6591 33.3715 70.5617 33.308 70.505C33.2445 70.4483 33.1471 70.4544 33.0904 70.5179C32.6773 70.9834 32.1373 71.1159 31.6367 71.1172C31.3118 71.1172 31.0097 71.0592 30.7896 71.0006C30.6798 70.9711 30.5905 70.9421 30.5294 70.9205C30.4684 70.8989 30.4382 70.886 30.4382 70.886C30.3599 70.8527 30.2693 70.8891 30.236 70.9674C30.2027 71.0457 30.239 71.1363 30.318 71.1696Z" fill="#2A2E4B"/>
<path d="M28.2481 61.7717C28.2481 61.7717 30.3676 63.1311 32.0815 63.3037C33.796 63.4763 32.5993 62.1323 32.5993 62.1323C32.5993 62.1323 34.2577 63.8333 35.3502 63.8333C36.442 63.8333 35.6868 62.6668 35.6868 62.6668C35.6868 62.6668 31.801 59.9906 31.2134 60.0325C30.6253 60.0744 28.2437 59.9197 28.2481 61.7717Z" fill="#2A2E4B"/>
<path d="M47.4989 67.8367C44.676 67.812 40.0861 68.5765 39.9813 64.4379C39.7131 62.3258 41.1508 60.2642 43.3801 60.2845H47.4989C52.0395 60.2155 52.0413 67.9064 47.4989 67.8367Z" fill="white"/>
<path d="M46.2354 67.4441V69.3047L48.739 66.835L46.2354 67.4441Z" fill="white"/>
<path d="M48.8305 63.2642C48.7085 63.1359 41.5404 63.5644 41.8012 63.0163C41.3727 62.3524 48.7491 62.8659 48.8305 62.713C49.1604 62.7087 49.1622 63.2685 48.8305 63.2642Z" fill="#86D7E0"/>
<path d="M48.8305 64.3653C48.7085 64.2377 41.5404 64.6661 41.8012 64.1181C41.3727 63.4541 48.7491 63.9676 48.8305 63.8147C49.1604 63.8104 49.1622 64.3702 48.8305 64.3653Z" fill="#86D7E0"/>
<path d="M48.8305 65.4083C48.7085 65.2801 41.5404 65.708 41.8012 65.1599C41.3727 64.4959 48.7491 65.0095 48.8305 64.8572C49.1604 64.8529 49.1622 65.4127 48.8305 65.4083Z" fill="#86D7E0"/>
<path d="M67.4592 2.66884V33.7837C67.4592 35.2577 66.1812 36.4525 64.6024 36.4525H23.7573C22.1784 36.4525 20.9004 35.2577 20.9004 33.7837V2.66884C20.9004 1.19478 22.1784 0 23.7573 0H64.6024C66.1812 0 67.4592 1.19478 67.4592 2.66884Z" fill="white"/>
<path d="M64.5212 4.47263V32.0919C64.5212 33.0931 63.7099 33.9044 62.7087 33.9044H25.6514C24.6502 33.9044 23.8389 33.0931 23.8389 32.0919V4.47202C23.8389 3.47143 24.6502 2.66011 25.6501 2.66011H62.7087C63.7099 2.66011 64.5212 3.47143 64.5212 4.47263Z" fill="#126D99"/>
<path d="M23.8389 20.4186V10.9516H64.5212V17.2485H23.8389V20.4186Z" fill="#37A8C0"/>
<path d="M64.5212 26.7161H50.5371C50.174 23.7266 47.478 21.2748 44.4399 21.2748C44.406 21.2748 44.3721 21.2754 44.3388 21.2761C44.1896 21.2816 44.0201 21.2841 43.8351 21.2841C43.5521 21.2841 43.2328 21.2785 42.8937 21.2736C42.5553 21.2687 42.1977 21.2631 41.8376 21.2631C40.7205 21.2631 39.5806 21.3131 38.9271 21.5652C36.5216 22.149 35.7152 24.2704 35.4982 26.7161H23.8389V20.4185H64.5212V26.7161Z" fill="#37A8C0"/>
<path d="M23.8389 20.4186H64.521V17.2484H23.8389V20.4186Z" fill="#5DC5D3"/>
<path d="M33.1444 33.9044H31.2998L31.4965 32.5623L33.1444 33.9044Z" fill="#F3A29C"/>
<path d="M31.4961 32.5623L33.144 33.9044H31.8105C31.6638 33.5068 31.5534 33.0623 31.4961 32.5623Z" fill="#EF7691"/>
<path d="M48.2357 12.3349C48.2357 12.3349 48.8036 19.0819 47.7906 22.3919L36.4131 23.1539C36.8977 17.8995 37.1769 11.0643 37.1769 11.0643L48.2357 12.3349Z" fill="#E72B61"/>
<path d="M38.3919 13.0204C38.3648 15.2706 37.7766 21.3271 37.1133 22.3918H46.8195C46.8195 22.3918 48.1696 19.3445 47.6567 15.9186C47.1438 12.4927 38.4067 11.7849 38.3919 13.0204Z" fill="#B52452"/>
<path d="M50.578 27.351C50.4824 28.9311 50.279 32.3638 50.1877 33.9044C50.0712 33.9044 35.7116 33.9044 35.6037 33.9044C35.7283 30.1709 34.0755 22.742 38.9267 21.5651C39.791 21.2316 41.5049 21.2526 42.8933 21.2735C43.4537 21.2822 43.9611 21.2908 44.3384 21.276C47.6311 21.2168 50.549 24.0478 50.578 27.351Z" fill="#F78F45"/>
<path d="M42.6167 24.615C39.2012 24.3394 38.9238 21.5442 38.9238 21.5442C40.8769 20.9444 45.103 21.1379 46.3027 21.5868C46.3027 21.5868 46.0327 24.8906 42.6167 24.615Z" fill="#F3A29C"/>
<path d="M40.5033 21.4204C40.7437 23.9098 44.6758 23.6411 44.5402 21.1103C44.505 20.1017 44.4323 18.3256 44.3947 17.2991L40.7647 17.2775C40.7018 18.5179 40.4928 20.1899 40.5033 21.4204Z" fill="#F3A29C"/>
<path d="M48.2362 12.3349C48.0827 19.6602 37.2908 19.434 37.1133 12.2597C37.1133 10.7 37.265 9.60322 38.961 8.36837C40.7716 4.29946 48.4692 7.01021 48.2362 12.3349Z" fill="#E72B61"/>
<path d="M44.496 19.6252L44.5293 20.8132C44.5293 20.8132 41.4949 21.2903 40.5547 20.061L40.5923 19.5271L44.496 19.6252Z" fill="#EF7691"/>
<path d="M46.9331 14.6074C49.3023 11.6778 50.0335 17.6862 47.0095 16.7738C45.9646 16.3545 46.9331 14.6074 46.9331 14.6074Z" fill="#F3A29C"/>
<path d="M47.7792 14.6666C48.2718 14.5692 48.5449 16.0365 47.4629 16.1006C47.6072 15.804 47.6158 15.4551 47.4635 15.1598L47.7792 14.6666Z" fill="#EF7691"/>
<path d="M47.4972 16.4884C47.8085 16.1709 47.933 15.8392 47.9312 15.5618C47.9275 15.1734 47.7209 14.9527 47.6957 14.9237L47.4713 15.1346L47.7456 15.2745L47.7567 15.2535C47.7845 15.2018 47.8646 15.0606 47.9527 14.9478C47.9959 14.8917 48.0421 14.8429 48.0723 14.8195L48.097 14.8029L48.0582 14.7172V14.809L48.097 14.8029L48.0582 14.7172V14.809V14.6586L47.9867 14.7912L48.0582 14.809V14.6586L47.9867 14.7912L48.0341 14.703L47.9602 14.7714L47.9867 14.7912L48.0341 14.703L47.9602 14.7714L47.9694 14.7634L47.9589 14.7708L47.9602 14.7714L47.9694 14.7634L47.9589 14.7708C47.9632 14.7739 47.9935 14.8269 48.0175 14.933C48.057 15.0982 48.2234 15.2005 48.3892 15.1617C48.5545 15.1222 48.6568 14.9558 48.6174 14.7899C48.5791 14.6327 48.5317 14.5051 48.4466 14.3929C48.3658 14.2807 48.2098 14.1882 48.0582 14.1925C47.8646 14.1981 47.7462 14.2887 47.6507 14.3689C47.5101 14.4946 47.4065 14.6451 47.327 14.769C47.2487 14.8929 47.1994 14.9891 47.1963 14.9952L47.0983 15.1882L47.2462 15.3454L47.2469 15.3473C47.2654 15.3725 47.3153 15.4533 47.3147 15.5618C47.3122 15.666 47.2808 15.8226 47.0551 16.0587C46.9361 16.1814 46.9392 16.3762 47.0613 16.4946C47.1834 16.6136 47.3788 16.6105 47.4972 16.4884Z" fill="#DE677E"/>
<path d="M38.5075 14.4471C36.2517 11.4293 35.2918 17.4057 38.3484 16.6091C39.4088 16.23 38.5075 14.4471 38.5075 14.4471Z" fill="#F3A29C"/>
<path d="M37.6599 14.4742C37.1711 14.3583 36.8418 15.8139 37.9207 15.9187C37.7888 15.6172 37.7925 15.2683 37.9559 14.9792L37.6599 14.4742Z" fill="#EF7691"/>
<path d="M38.3289 15.8928C38.1224 15.6598 38.0897 15.5044 38.0879 15.4014C38.0885 15.3225 38.1113 15.2627 38.1341 15.2202L38.1637 15.1752L38.1699 15.1678L38.0786 15.0858L38.1649 15.1727L38.1699 15.1678L38.0786 15.0858L38.1649 15.1727L38.319 15.0211L38.2278 14.8244C38.2241 14.8164 38.1446 14.6425 38.0207 14.4551C37.9578 14.3608 37.8844 14.2628 37.7913 14.1746C37.6982 14.0914 37.5786 13.9946 37.3795 13.989C37.2291 13.9853 37.078 14.0747 36.9966 14.1814C36.9103 14.2893 36.8598 14.4126 36.816 14.5655C36.7704 14.7295 36.8666 14.8996 37.0306 14.9452C37.1946 14.9908 37.3647 14.8947 37.4103 14.7307C37.4381 14.6259 37.4707 14.5741 37.4744 14.571L37.4485 14.5501L37.4701 14.5753L37.4744 14.571L37.4485 14.5501L37.4701 14.5753L37.3795 14.4693V14.6055L37.4701 14.5753L37.3795 14.4693V14.6055V14.5149L37.3357 14.5975L37.3795 14.6055V14.5149L37.3357 14.5975C37.3499 14.5963 37.4701 14.7251 37.5404 14.849C37.5793 14.9107 37.6119 14.9711 37.6347 15.0149L37.6606 15.0667L37.6686 15.0827L37.9485 14.9532L37.7315 14.7344C37.705 14.7621 37.4757 14.9902 37.472 15.4014C37.4701 15.6721 37.5854 15.9914 37.8709 16.3052C37.9849 16.4316 38.1797 16.4421 38.3061 16.328C38.4325 16.214 38.443 16.0192 38.3289 15.8928Z" fill="#DE677E"/>
<path d="M42.6126 20.1436C46.5478 20.1016 46.8116 16.4704 47.0773 13.4385C47.3961 10.8708 45.4208 8.59278 42.8333 8.54285C40.2465 8.49414 38.1861 10.6957 38.4068 13.2739C38.5573 16.3126 38.6831 19.9537 42.6126 20.1436Z" fill="#F3A29C"/>
<path d="M41.9575 18.6165C42.8829 18.6411 44.3638 18.8822 44.2238 17.4673L41.0445 17.4069C40.952 18 41.3164 18.6109 41.9575 18.6165Z" fill="#E72B61"/>
<path d="M41.1893 12.8108C39.5426 13.0402 38.571 12.6592 39.9815 12.3442C41.3921 12.0285 42.0431 12.6919 41.1893 12.8108Z" fill="#E72B61"/>
<path d="M44.2193 12.8682C45.8567 13.1605 46.8412 12.8164 45.4443 12.4478C44.0473 12.0791 43.371 12.7172 44.2193 12.8682Z" fill="#E72B61"/>
<path d="M42.4524 17.8952C42.8852 17.9458 43.5245 17.8354 43.6441 17.4563L41.5918 17.4174C41.6849 17.6899 42.04 17.8872 42.4524 17.8952Z" fill="white"/>
<path d="M39.2168 10.3474C39.2168 10.3474 39.9591 12.2869 42.221 12.4484C42.7457 12.4182 43.0878 12.1488 42.4035 11.2438C43.6932 12.1383 46.396 13.3843 45.2591 10.2111C45.2591 10.2111 46.4101 13.7314 47.1105 13.105C47.8115 12.4793 46.7172 9.54287 44.5403 8.83389C42.3634 8.12492 39.8173 8.39801 39.2168 10.3474Z" fill="#E72B61"/>
<path d="M38.2582 12.8898C38.2582 12.8898 38.8279 14.4483 38.3692 15.3872C36.6399 13.7609 37.8452 10.9558 38.2582 12.8898Z" fill="#E72B61"/>
<path d="M46.9522 13.5526C46.9522 13.5526 46.5626 14.9798 47.0213 15.9187C48.6008 14.0285 47.5022 11.4454 46.9522 13.5526Z" fill="#E72B61"/>
<path d="M39.2178 10.3473C39.2178 10.3473 39.2178 11.7949 38.3904 12.8812C37.8159 13.6358 37.6106 10.3424 39.2178 10.3473Z" fill="#E72B61"/>
<path d="M44.2761 14.7226C44.2502 15.6875 44.9586 15.701 44.969 14.7356C44.9949 13.7708 44.2872 13.7572 44.2761 14.7226Z" fill="#2A2E4B"/>
<path d="M40.1257 14.6438C40.0998 15.6087 40.8076 15.6222 40.8187 14.6574C40.8445 13.692 40.1362 13.6784 40.1257 14.6438Z" fill="#2A2E4B"/>
<path d="M38.8304 21.6946C38.5086 24.4097 36.6634 30.4471 35.7214 33.9044C35.8016 33.9044 33.1746 33.9044 33.1457 33.9044C32.6321 33.4864 31.2364 32.3502 30.7432 31.9483C32.417 28.1512 34.1623 22.6206 38.8304 21.6946Z" fill="#F78F45"/>
<path d="M52.2188 33.9044H54.0627L53.8673 32.5623L52.2188 33.9044Z" fill="#F3A29C"/>
<path d="M53.8673 32.5623L52.2188 33.9044H53.5516C53.6984 33.5068 53.8087 33.0623 53.8673 32.5623Z" fill="#EF7691"/>
<path d="M46.5332 21.6946C46.8563 24.4097 48.7009 30.4471 49.6429 33.9044C49.5621 33.9044 52.189 33.9044 52.2186 33.9044C52.7321 33.4864 54.1279 32.3502 54.6211 31.9483C52.9473 28.1512 51.2026 22.6206 46.5332 21.6946Z" fill="#F78F45"/>
<path d="M42.8905 26.35C42.8899 26.35 42.8893 26.35 42.8886 26.35C40.5971 26.3487 38.8857 25.0788 38.8789 25.0744L38.9708 24.9511C38.9714 24.9511 39.0737 25.027 39.2661 25.1435C39.4584 25.2606 39.7389 25.4166 40.0897 25.5726C40.7907 25.8845 41.7715 26.1959 42.8886 26.1959C44.0051 26.1952 45.2579 25.8858 46.5143 24.9511L46.6062 25.0744C45.3245 26.0294 44.0353 26.35 42.8905 26.35Z" fill="#FDE2D0"/>
<path d="M42.1303 14.6506H41.8221C41.8202 15.4545 41.1692 16.1055 40.3647 16.1074C39.5608 16.1055 38.9103 15.4551 38.9085 14.6506C38.9103 13.846 39.5608 13.195 40.3647 13.1938C41.1692 13.195 41.8202 13.846 41.8221 14.6506H42.1303H42.4386C42.438 13.5051 41.5101 12.5773 40.3647 12.5773C39.2198 12.5773 38.292 13.5057 38.292 14.6506C38.292 15.7954 39.2198 16.7233 40.3647 16.7239C41.5101 16.7233 42.438 15.7954 42.4386 14.6506H42.1303Z" fill="white"/>
<path d="M46.7544 14.6506H46.4461C46.4443 15.4545 45.7932 16.1055 44.9887 16.1074C44.1848 16.1055 43.5338 15.4551 43.5325 14.6506C43.5338 13.846 44.1848 13.195 44.9887 13.1938C45.7932 13.195 46.4443 13.846 46.4461 14.6506H46.7544H47.0626C47.062 13.5051 46.1342 12.5773 44.9887 12.5773C43.8439 12.5773 42.916 13.5057 42.916 14.6506C42.916 15.7954 43.8439 16.7233 44.9887 16.7239C46.1342 16.7233 47.062 15.7954 47.0626 14.6506H46.7544Z" fill="white"/>
<path d="M36.171 32.0026L35.7358 33.5624L35.5052 32.3066L35.3535 32.3343L35.7049 34.2467L36.3196 32.0439L36.171 32.0026Z" fill="white"/>
<path d="M50.2116 32.3551L50.1376 33.487L49.7776 32.3373L49.6309 32.3835L50.2375 34.3218L50.3657 32.3656L50.2116 32.3551Z" fill="white"/>
<path d="M32.4204 13.7678C29.5697 13.8097 25.7264 14.2856 25.8867 10.2062C25.9853 6.56087 29.8681 7.06578 32.4204 7.09229C36.5405 7.03002 36.5423 13.83 32.4204 13.7678Z" fill="white"/>
<path d="M28.4248 13.2978L31.4148 15.0364L30.2675 12.2553L28.4248 13.2978Z" fill="white"/>
<path d="M33.6995 9.72533C33.5682 9.61313 27.2879 9.99167 27.495 9.49846C27.1208 8.9319 33.6341 9.36775 33.6995 9.2389C33.9985 9.23459 34.0009 9.72965 33.6995 9.72533Z" fill="#86D7E0"/>
<path d="M33.6995 10.6993C33.5682 10.5865 27.2879 10.9656 27.495 10.4718C27.1208 9.90583 33.6341 10.3417 33.6995 10.2122C33.9985 10.2085 34.0009 10.703 33.6995 10.6993Z" fill="#86D7E0"/>
<path d="M33.6995 11.6205C33.5682 11.5083 27.2879 11.8868 27.495 11.3936C27.1208 10.827 33.6341 11.2629 33.6995 11.1334C33.9985 11.1297 34.0009 11.6248 33.6995 11.6205Z" fill="#86D7E0"/>
<path d="M59.0078 36.3576L59.1466 37.5826C59.1657 37.7515 59.3179 37.8736 59.4875 37.8545C59.6564 37.8354 59.7778 37.6825 59.7587 37.5135L59.6206 36.2879C59.6015 36.119 59.4486 35.9976 59.2797 36.0167C59.1102 36.0358 58.9887 36.1881 59.0078 36.3576Z" fill="white"/>
<path d="M59.4209 40.0184L59.6959 42.4536C59.715 42.6231 59.8673 42.7446 60.0368 42.7255C60.2057 42.7064 60.3278 42.5535 60.3087 42.3846L60.0337 39.9488C60.0146 39.7798 59.8617 39.6584 59.6928 39.6775C59.5232 39.6966 59.4018 39.8489 59.4209 40.0184ZM59.9708 44.8894L60.2458 47.3246C60.2649 47.4935 60.4178 47.6156 60.5867 47.5965C60.7556 47.5774 60.8777 47.4245 60.8586 47.2555L60.5836 44.8197C60.5645 44.6508 60.4116 44.5294 60.2427 44.5485C60.0732 44.5676 59.9517 44.7199 59.9708 44.8894ZM60.5208 49.7604L60.7957 52.1956C60.8148 52.3645 60.9677 52.4866 61.1367 52.4675C61.3062 52.4483 61.4276 52.2954 61.4085 52.1265L61.1336 49.6907C61.1144 49.5218 60.9616 49.4003 60.7926 49.4195C60.6237 49.4386 60.5016 49.5908 60.5208 49.7604ZM61.0707 54.6307L61.3463 57.0665C61.3654 57.2355 61.5176 57.3575 61.6872 57.3384C61.8561 57.3193 61.9775 57.1664 61.9584 56.9975L61.6835 54.5617C61.6644 54.3928 61.5121 54.2713 61.3426 54.2904C61.1736 54.3096 61.0522 54.4618 61.0707 54.6307ZM61.6212 59.5017L61.8962 61.9375C61.9153 62.1065 62.0675 62.2285 62.2371 62.2094C62.406 62.1903 62.5275 62.0374 62.509 61.8685L62.2334 59.4327C62.2143 59.2638 62.062 59.1417 61.8925 59.1608C61.7235 59.1799 61.6021 59.3328 61.6212 59.5017ZM62.1711 64.3727L62.4461 66.8085C62.4652 66.9774 62.6181 67.0995 62.787 67.0804C62.956 67.0613 63.078 66.9084 63.0589 66.7395L62.7839 64.3037C62.7648 64.1347 62.6119 64.0127 62.443 64.0318C62.2735 64.0509 62.152 64.2038 62.1711 64.3727ZM62.721 69.2437L62.996 71.6795C63.0151 71.8484 63.168 71.9699 63.3369 71.9508C63.5065 71.9316 63.6279 71.7794 63.6088 71.6104L63.3338 69.1746C63.3147 69.0057 63.1619 68.8837 62.9929 68.9028C62.824 68.9219 62.7019 69.0748 62.721 69.2437ZM63.271 74.1147L63.5459 76.5505C63.565 76.7194 63.7179 76.8408 63.8869 76.8217C64.0564 76.8026 64.1779 76.6503 64.1587 76.4808L63.8838 74.0456C63.8647 73.8767 63.7124 73.7546 63.5428 73.7737C63.3739 73.7929 63.2518 73.9458 63.271 74.1147ZM63.8215 78.9857L64.0965 81.4215C64.1156 81.5904 64.2679 81.7118 64.4374 81.6927C64.6063 81.6736 64.7278 81.5213 64.7087 81.3518L64.4337 78.9166C64.4146 78.7477 64.2623 78.6256 64.0928 78.6447C63.9238 78.6638 63.8024 78.8167 63.8215 78.9857ZM64.3714 83.8566L64.6464 86.2924C64.6655 86.4614 64.8184 86.5828 64.9873 86.5637C65.1562 86.5446 65.2783 86.3923 65.2592 86.2228L64.9842 83.7876C64.9651 83.618 64.8122 83.4966 64.6433 83.5157C64.4738 83.5348 64.3523 83.6877 64.3714 83.8566Z" fill="white"/>
<path d="M64.9219 88.7275L65.06 89.9531C65.0791 90.122 65.232 90.2435 65.4009 90.2243C65.5705 90.2052 65.6919 90.0529 65.6728 89.8834L65.5341 88.6584C65.515 88.4895 65.3627 88.3674 65.1932 88.3872C65.0243 88.4063 64.9028 88.5585 64.9219 88.7275Z" fill="white"/>
<path d="M102.798 162.241L103.383 163.166C105.569 166.624 104.564 171.198 101.13 173.423C98.3895 175.198 94.8126 174.986 92.3003 172.899L89.248 170.364L102.798 162.241Z" fill="#F3A29C"/>
<path d="M103.478 170.99C110.99 161.331 106.286 124.11 106.286 124.11H97.6179L91.5996 169.504C91.5996 169.504 101.784 173.169 103.478 170.99Z" fill="#F3A29C"/>
<path d="M79.7262 113.416C81.7415 109.634 84.4017 109.461 85.6082 113.924C86.8147 118.387 83.2193 122.072 80.2015 120.724C77.1831 119.376 79.7262 113.416 79.7262 113.416Z" fill="#F3A29C"/>
<path d="M53.3472 113.413C51.3343 109.635 48.6766 109.462 47.4713 113.92C46.2667 118.379 49.8578 122.06 52.8731 120.713C55.8878 119.367 53.3472 113.413 53.3472 113.413Z" fill="#F3A29C"/>
<path d="M92.2319 180H39.3896L39.8483 171.11V171.092L39.8754 170.506V170.503L40.6843 154.838L40.8865 150.904C41.2725 144.06 45.8155 138.192 52.2345 136.108C52.7264 135.949 53.2338 135.809 53.7486 135.695C54.2584 135.58 54.772 135.481 55.2787 135.387L55.2997 135.384L55.312 135.381C57.7065 134.947 59.6041 134.733 60.3279 134.654H60.331C60.5363 134.636 60.6516 134.624 60.6516 134.624H70.7536C70.7536 134.624 71.4416 134.688 72.5753 134.835C73.7282 134.982 75.3514 135.227 77.1818 135.59L77.3421 135.622H77.3483C77.9636 135.746 78.5579 135.903 79.146 136.096L79.1515 136.099L79.1577 136.103C85.5712 138.178 90.129 144.039 90.5125 150.896L90.7208 154.413L91.1191 161.188L91.3269 164.693V164.7L91.5772 168.968L91.608 169.448V169.46L91.6105 169.508V169.511L91.6863 170.745L91.788 172.471V172.473L92.1018 177.803L92.2319 180Z" fill="#E72B61"/>
<path d="M50.6107 106.329C53.0773 116.041 50.7463 129.75 65.747 130.158C82.2866 130.609 81.2841 116.335 82.9431 106.958C84.9313 106.393 87.6606 105.027 86.1144 103.866C84.5688 102.702 81.4913 100.061 81.4913 100.061C85.5041 98.7624 86.1255 93.7206 84.0134 94.7378C81.9012 95.7557 79.1929 94.789 74.0735 92.6115L74.0599 92.6048C63.9117 88.1789 57.2492 93.3846 54.79 95.9123C54.6599 96.0479 53.7813 97.0688 53.7493 97.1083L53.7357 97.1293C53.7333 97.1317 52.5841 98.7593 52.1242 99.6495C51.6076 100.649 51.1908 101.708 50.8875 102.815C50.4985 104.241 50.2278 104.821 50.6107 106.329Z" fill="#2A2E4B"/>
<path d="M61.0381 128.674L60.7656 131.26C60.7656 131.26 66.1212 133.843 72.3713 131.572C72.3713 131.572 72.8176 126.295 72.2437 126.753C71.6703 127.212 63.3716 121.988 61.0381 128.674Z" fill="#EF7691"/>
<path d="M66.964 130.931C73.1679 130.865 78.3397 126.161 78.9907 119.991L79.9136 110.179C80.6491 102.356 74.4496 95.6175 66.5923 95.7007C58.735 95.7827 52.6784 102.651 53.5791 110.457L54.7086 120.247C55.4903 126.403 60.7595 130.997 66.964 130.931Z" fill="#2A2E4B"/>
<path d="M69.2827 130.931C75.4872 130.865 80.6584 126.161 81.3094 119.991L82.2324 110.179C82.9678 102.356 76.7683 95.6175 68.911 95.7007C61.0537 95.7827 54.9978 102.651 55.8985 110.457L57.0279 120.247C57.8084 126.403 63.0776 130.997 69.2827 130.931Z" fill="#2A2E4B"/>
<path d="M52.7764 102.356C52.7764 102.356 52.3942 99.7437 48.4184 98.2629C44.4426 96.7808 49.2704 106.107 52.7764 102.356Z" fill="#2A2E4B"/>
<path d="M50.709 99.4769C50.709 99.4769 48.9729 93.2157 51.2385 91.5931C53.5042 89.9704 55.2736 97.6841 52.5351 100.643C49.7953 103.602 50.709 99.4769 50.709 99.4769Z" fill="#2A2E4B"/>
<path d="M52.2408 136.061C52.2408 136.061 35.9324 137.606 24.0469 163.01L40.9014 170.99C40.9014 170.99 51.385 142.292 52.2408 136.061Z" fill="#E72B61"/>
<path d="M78.9297 136.061C78.9297 136.061 95.283 138.315 104.51 160.931L90.499 171.654C90.499 171.654 79.786 142.292 78.9297 136.061Z" fill="#E72B61"/>
<path d="M55.2783 135.389C55.2783 135.389 67.8815 132.113 77.3454 135.621C77.3454 135.621 66.3322 146.087 55.2783 135.389Z" fill="#F3A29C"/>
<path d="M98.5845 112.107C98.5845 112.107 99.0926 107.372 99.6936 104.184C99.9797 102.666 101.911 102.769 102.09 104.062C102.377 102.102 104.124 102.531 104.575 103.132C104.928 103.604 104.846 104.154 104.846 104.154C104.904 103.851 105.685 103.21 106.421 103.726C107.38 104.4 107.013 107.263 107.013 107.263C107.013 107.263 107.33 106.296 108.201 106.472C108.937 106.621 109.243 107.392 109.168 109.473C109.094 111.513 108.626 114.73 108.761 116.549C108.896 118.368 109.405 122.299 105.774 125.896C102.555 129.088 96.555 126.773 95.9453 122.23C95.576 119.482 95.4207 118.332 95.6247 115.73C95.8504 112.859 95.7887 109.791 97.0032 109.664C98.0969 109.549 98.3497 110.514 98.4477 111.177C98.5846 112.107 98.5845 112.107 98.5845 112.107Z" fill="#F3A29C"/>
<path d="M101.859 104.043L101.096 113.048L101.556 113.087L102.319 104.082" fill="#D5617F"/>
<path d="M104.616 104.134L103.859 113.06L104.32 113.099L105.077 104.173" fill="#D5617F"/>
<path d="M106.814 107.163L106.193 114.473L106.655 114.513L107.274 107.202" fill="#D5617F"/>
<path d="M98.354 112.09C98.354 112.092 98.2966 112.876 98.1961 113.709C98.1456 114.125 98.0846 114.553 98.0161 114.894C97.9822 115.065 97.9458 115.214 97.9107 115.325L97.8601 115.459L97.833 115.508L98.1801 115.814C98.2652 115.712 98.3052 115.603 98.3509 115.465C98.5001 114.992 98.6104 114.172 98.6912 113.451C98.7707 112.733 98.8151 112.126 98.8151 112.124L98.354 112.09Z" fill="#D5617F"/>
<path d="M27.056 164.435C24.9581 168.735 28.0985 173.744 32.8832 173.73L39.7048 173.71L39.8805 170.506L27.056 164.435Z" fill="#F3A29C"/>
<path d="M98.79 176C98.79 177.393 98.5785 178.735 98.1864 180H33.6251C33.3385 179.073 33.148 178.099 33.0672 177.095L32.9766 176C32.9766 175.236 33.0037 174.479 33.0518 173.731C33.1942 171.674 33.5228 169.671 34.0234 167.734C35.2693 162.92 37.5769 158.531 40.6841 154.838C43.0218 152.054 45.8183 149.662 48.9526 147.779C52.5721 145.602 56.6453 144.105 60.9947 143.456C62.5902 143.218 64.2227 143.095 65.8817 143.095C71.77 143.095 77.3 144.642 82.0803 147.351C84.6776 148.82 87.0555 150.636 89.1516 152.733C89.6947 153.275 90.2169 153.833 90.7206 154.413C91.6016 155.427 92.4221 156.498 93.1761 157.617C94.8382 160.075 96.1748 162.771 97.1248 165.644C97.2093 165.894 97.2906 166.144 97.3634 166.397C97.8572 168.012 98.229 169.68 98.4676 171.391C98.6087 172.389 98.7049 173.403 98.7511 174.431C98.7783 174.95 98.79 175.475 98.79 176Z" fill="#265877"/>
<path d="M98.1867 180H90.7634C91.2732 179.314 91.722 178.585 92.1018 177.803C92.7146 176.546 93.1431 175.158 93.3484 173.625C93.5019 172.531 93.5376 171.36 93.4507 170.114C93.4384 169.918 93.4236 169.719 93.4026 169.517L93.3934 169.436C93.3453 168.944 93.2812 168.462 93.2059 167.99C92.9982 166.642 92.693 165.372 92.3071 164.175V164.171C91.9723 163.122 91.5747 162.129 91.1191 161.188C89.3392 157.499 86.724 154.627 83.7432 152.386H83.7402C73.6826 144.826 59.5049 144.507 59.5049 144.507C60.0024 144.132 60.5005 143.782 60.995 143.456C62.5905 143.218 64.223 143.095 65.882 143.095C71.7702 143.095 77.3002 144.642 82.0806 147.351C84.6779 148.82 87.0557 150.636 89.1518 152.733C89.695 153.275 90.2171 153.833 90.7208 154.413C91.6018 155.427 92.4224 156.498 93.1764 157.617C94.8384 160.075 96.175 162.771 97.125 165.644C97.2095 165.894 97.2909 166.144 97.3636 166.397C97.8574 168.012 98.2292 169.68 98.4678 171.391C98.609 172.389 98.7051 173.403 98.7514 174.431C98.7785 174.95 98.7902 175.475 98.7902 176C98.7902 177.36 98.5886 178.671 98.215 179.909C98.2058 179.938 98.1971 179.968 98.1879 179.998C98.1873 179.998 98.1873 179.999 98.1867 180Z" fill="#214D69"/>
<path d="M120.589 170.527H120.048C120.158 170.089 120.222 169.638 120.222 169.168V166.859H120.589C121.6 166.859 122.421 167.68 122.421 168.691C122.421 169.702 121.6 170.527 120.589 170.527ZM120.589 165.475H120.222V164.326H109.051V169.168C109.051 172.204 111.475 174.676 114.495 174.75L114.636 174.753C115.679 174.753 116.655 174.467 117.489 173.968C118.326 173.469 119.018 172.758 119.498 171.911H120.589C122.363 171.911 123.805 170.465 123.805 168.691C123.805 166.917 122.363 165.475 120.589 165.475Z" fill="#E72B61"/>
<path d="M120.844 175.615H108.877C108.152 175.615 107.563 175.026 107.563 174.301V173.89H122.157V174.301C122.157 175.026 121.569 175.615 120.844 175.615Z" fill="#37BDCF"/>
<path d="M118.279 164.326H116.812L119.205 159.936C119.318 159.729 119.534 159.601 119.77 159.601C120.259 159.601 120.569 160.123 120.335 160.552L118.279 164.326Z" fill="white"/>
<path d="M112.697 167.965H112.375V164.326H112.697V167.965Z" fill="white"/>
<path d="M113.952 169.382H111.118V166.549H113.952V169.382Z" fill="white"/>
</svg>
