<svg width="35" height="60" viewBox="0 0 35 60" fill="none" xmlns="http://www.w3.org/2000/svg">
<path d="M25.2669 58.5999C27.8647 58.0307 31.3469 57.1825 33.7879 56.1575M33.7879 56.1575C34.0692 56.0395 32.6578 54.1296 32.5858 54.0474C31.0087 52.2441 29.2608 50.7181 27.4485 49.204M33.7879 56.1575C19.382 55.8398 8.12093 45.8822 6.90982 34.9005C6.78978 33.8121 6.66019 32.6273 6.6291 31.4353M6.6291 31.4353C6.57959 29.537 6.7799 27.6204 7.66645 26.0456C8.48471 24.5922 10.1197 23.0704 11.7712 23.1264C14.8563 23.2311 16.1155 27.4253 14.248 29.9166C12.607 32.1058 8.82471 32.9083 6.6291 31.4353ZM6.6291 31.4353C6.58278 31.4042 6.53718 31.3722 6.49231 31.3391C-4.33679 23.3489 0.0652596 7.43188 8.9892 1.00675" stroke="#BDBDBD" stroke-width="1.6" stroke-miterlimit="1.5" stroke-linecap="round" stroke-linejoin="round" stroke-dasharray="12 12"/>
</svg>
