<svg width="293" height="225" viewBox="0 0 293 225" fill="none" xmlns="http://www.w3.org/2000/svg">
<path d="M0.166318 184.284C0.166318 184.284 -1.66356 193.467 6.81596 195.852C18.4142 199.116 86.4944 207.689 69.9553 214.203C60.619 217.881 74.7214 222.874 120.196 224.713C165.671 226.552 243.702 219.348 217.461 208.688C191.221 198.026 298.419 206.459 291.907 184.284H0.166318Z" fill="#CFDDF9"/>
<path d="M51.6532 183.777C51.6532 183.777 17.306 99.5338 42.0234 80.775C58.5448 68.2361 76.0564 95.877 96.9579 81.2549C115.566 68.2361 89.623 35.4418 120.671 26.8634C153.305 17.8461 180.042 90.8724 207.425 80.775C240.652 68.5226 273.705 93.3945 245.141 183.938L51.6532 183.777Z" fill="#D4E8FF"/>
<path d="M138.658 3.08392C137.015 2.24445 135.304 1.67032 133.572 1.37892L133.82 0.0620422C135.7 0.379486 137.553 1.00072 139.328 1.90715L138.658 3.08392ZM123.251 3.08516L122.491 1.95926C124.161 0.946167 126.001 0.286484 127.962 4.57764e-05L128.176 1.32188C126.412 1.5798 124.755 2.17252 123.251 3.08516ZM146.888 9.96594C145.656 8.5015 144.385 7.20445 143.109 6.11076L144.055 5.11876C145.386 6.2608 146.711 7.61119 147.99 9.13144L146.888 9.96594ZM116.421 10.9877L115.156 10.395C116.083 8.61682 117.109 7.04451 118.208 5.72266L119.317 6.54973C118.277 7.79842 117.304 9.29263 116.421 10.9877ZM152.937 18.92C152.009 17.2646 151.062 15.7109 150.121 14.301L151.312 13.5855C152.272 15.0239 153.238 16.6074 154.182 18.2938L152.937 18.92ZM112.725 21.0007L111.357 20.6771C111.849 18.8109 112.391 17.0526 112.969 15.4517L114.303 15.8845C113.738 17.4494 113.207 19.1705 112.725 21.0007ZM157.712 28.6305C156.954 26.9019 156.191 25.249 155.442 23.7176L156.721 23.1559C157.478 24.7034 158.249 26.3724 159.014 28.1171L157.712 28.6305ZM110.606 31.5246L109.209 31.3337C109.495 29.4625 109.808 27.662 110.142 25.9843L111.528 26.2311C111.198 27.8914 110.888 29.6721 110.606 31.5246ZM161.771 38.6584C161.089 36.8554 160.446 35.2074 159.806 33.6202L161.125 33.1441C161.767 34.74 162.413 36.3966 163.097 38.207L161.771 38.6584ZM109.322 42.206L107.918 42.0882C108.093 40.2133 108.285 38.4017 108.486 36.7054L109.888 36.8542C109.688 38.5406 109.497 40.3411 109.322 42.206ZM235.66 44.4616C233.914 43.7635 232.146 43.3307 230.405 43.177L230.536 41.8464C232.421 42.0126 234.328 42.4788 236.208 43.2303L235.66 44.4616ZM220.273 46.0984L219.464 45.0035C221.199 43.854 222.95 43.0021 224.671 42.4726L225.106 43.7436C223.519 44.2322 221.892 45.0246 220.273 46.0984ZM165.466 48.845C164.764 46.856 164.186 45.2354 163.647 43.7424L164.981 43.3084C165.522 44.8051 166.101 46.4295 166.804 48.4209L165.466 48.845ZM244.605 50.5103C243.248 49.1922 241.841 48.0279 240.427 47.052L241.257 45.9707C242.735 46.9912 244.201 48.2052 245.615 49.5766L244.605 50.5103ZM52.0193 52.6704C50.2596 51.8409 48.5285 51.3114 46.8746 51.0969L47.0661 49.7725C48.8724 50.0069 50.7502 50.5798 52.6476 51.4738L52.0193 52.6704ZM108.502 52.9507L107.094 52.8713C107.216 50.9282 107.337 49.1637 107.465 47.4773L108.871 47.5728C108.744 49.2542 108.624 51.0138 108.502 52.9507ZM212.318 53.4764L211.223 52.6345C212.545 51.0882 213.799 49.7577 215.055 48.566L216.052 49.5109C214.832 50.6691 213.61 51.9661 212.318 53.4764ZM36.8074 53.8856L35.952 52.8229C37.6362 51.6052 39.389 50.7261 41.1617 50.2127L41.5743 51.4912C39.962 51.9587 38.3581 52.7634 36.8074 53.8856ZM251.382 58.9238C250.371 57.3613 249.312 55.8833 248.232 54.5304L249.357 53.7244C250.464 55.112 251.551 56.626 252.585 58.2256L251.382 58.9238ZM60.8943 58.9808C59.453 57.6515 58.0356 56.476 56.6818 55.4889L57.5419 54.43C58.9387 55.448 60.3977 56.657 61.8782 58.0235L60.8943 58.9808ZM169.082 59.075C168.434 57.2783 167.8 55.4815 167.265 53.96L168.603 53.5372C169.137 55.0562 169.771 56.8505 170.416 58.6435L169.082 59.075ZM29.5669 61.7944L28.3782 61.0752C29.4865 59.4297 30.6292 57.9442 31.7745 56.6595L32.8518 57.5213C31.7467 58.7613 30.6416 60.1985 29.5669 61.7944ZM205.723 62.1713L204.547 61.4348C205.725 59.7446 206.779 58.2827 207.769 56.9658L208.917 57.7408C207.937 59.0453 206.892 60.4948 205.723 62.1713ZM107.896 63.7213L106.487 63.6531C106.582 61.8675 106.677 60.0807 106.777 58.2628L108.186 58.3335C108.085 60.1501 107.991 61.9357 107.896 63.7213ZM68.4132 66.9478C67.1337 65.4425 65.9425 64.1032 64.7718 62.8521L65.8268 61.9655C67.0124 63.2315 68.2177 64.5881 69.5115 66.1096L68.4132 66.9478ZM256.504 68.4073C255.746 66.7333 254.943 65.1064 254.12 63.5738L255.377 62.9674C256.214 64.5261 257.03 66.179 257.8 67.8791L256.504 68.4073ZM172.983 69.2406C172.344 67.7216 171.683 66.0649 170.964 64.1752L172.291 63.7213C173.005 65.5975 173.66 67.2405 174.292 68.7458L172.983 69.2406ZM199.537 71.2171L198.359 70.4831C199.361 69.0385 200.397 67.5083 201.445 65.9633L202.631 66.6862C201.581 68.2349 200.544 69.7663 199.537 71.2171ZM24.334 71.2171L23.0437 70.6777C23.818 69.0161 24.643 67.3843 25.5196 65.7884L26.7701 66.4059C25.9075 67.977 25.0958 69.5816 24.334 71.2171ZM107.269 74.5081L105.862 74.4213C105.969 72.8552 106.077 71.0956 106.194 69.0409L107.602 69.1129C107.485 71.1725 107.376 72.937 107.269 74.5081ZM75.2792 75.5014C73.989 73.8298 72.9138 72.4584 71.8953 71.1837L73.0196 70.3764C74.0428 71.6574 75.1224 73.035 76.4174 74.7127L75.2792 75.5014ZM260.381 78.4414C259.813 76.7091 259.206 75.0041 258.579 73.3735L259.903 72.916C260.538 74.5664 261.152 76.2912 261.727 78.0446L260.381 78.4414ZM178.017 79.0329C177.104 77.6986 176.201 76.1263 175.252 74.2291L176.527 73.6562C177.448 75.5014 178.322 77.0216 179.201 78.305L178.017 79.0329ZM192.696 79.9517L191.661 79.0453C192.73 77.9479 193.876 76.5938 195.165 74.9062L196.307 75.6898C194.985 77.4209 193.804 78.8146 192.696 79.9517ZM20.4189 81.2265L19.0703 80.8346C19.6306 79.0986 20.2454 77.3713 20.8975 75.701L22.22 76.1648C21.5773 77.8115 20.9713 79.514 20.4189 81.2265ZM185.23 84.1057C184.132 84.1057 183.054 83.7945 182.027 83.1819L182.78 82.0511C184.323 82.9736 185.839 82.9761 187.478 82.2395L188.085 83.4461C187.116 83.8838 186.155 84.1057 185.23 84.1057ZM81.9813 84.2161C80.835 82.7479 79.6459 81.1979 78.6214 79.8587L79.763 79.0738C80.7856 80.4105 81.9722 81.9581 83.1147 83.42L81.9813 84.2161ZM106.245 85.3023L104.846 85.1312C105.063 83.5366 105.257 81.7894 105.44 79.7905L106.845 79.9059C106.66 81.9233 106.464 83.6879 106.245 85.3023ZM263.277 88.7855C262.859 87.021 262.409 85.2701 261.938 83.5849L263.302 83.2427C263.777 84.9452 264.232 86.7122 264.654 88.4941L263.277 88.7855ZM17.7056 91.5978L16.3212 91.3436C16.6865 89.5593 17.0999 87.7799 17.5498 86.0563L18.9189 86.3774C18.4746 88.08 18.0664 89.8358 17.7056 91.5978ZM89.1058 92.694C87.9823 91.5086 86.7818 90.1433 85.4354 88.5226L86.5437 87.6955C87.871 89.2939 89.0523 90.6368 90.1551 91.8012L89.1058 92.694ZM103.478 95.9453L102.222 95.3377C102.868 94.1399 103.438 92.477 103.918 90.3963L105.296 90.6815C104.783 92.9048 104.189 94.6272 103.478 95.9453ZM98.5852 99.1259C96.6257 98.8333 95.2082 97.9876 93.2448 96.5281L94.1361 95.4915C95.8562 96.7674 97.0985 97.5325 98.7354 97.7966L98.5852 99.1259ZM265.374 99.3144C265.081 97.5313 264.759 95.7543 264.417 94.0332L265.803 93.7852C266.148 95.52 266.473 97.3118 266.768 99.1085L265.374 99.3144ZM16.077 102.183L14.6738 102.049C14.8654 100.242 15.0989 98.4352 15.368 96.6794L16.7636 96.8716C16.4975 98.6076 16.2665 100.394 16.077 102.183ZM266.798 109.952C266.609 108.157 266.396 106.364 266.164 104.623L267.563 104.455C267.797 106.209 268.012 108.013 268.201 109.82L266.798 109.952ZM15.4069 112.869L13.9969 112.842C14.0362 111.026 14.1119 109.21 14.222 107.44L15.6299 107.518C15.5208 109.272 15.4457 111.071 15.4069 112.869ZM267.641 120.65C267.544 118.854 267.425 117.053 267.287 115.296L268.694 115.196C268.833 116.965 268.952 118.776 269.049 120.582L267.641 120.65ZM14.1678 123.646C14.0743 121.837 14.0122 120.02 13.9834 118.247L15.3935 118.226C15.4221 119.984 15.4836 121.786 15.5763 123.581L14.1678 123.646ZM267.974 131.377C267.958 129.58 267.922 127.775 267.868 126.012L269.278 125.972C269.332 127.744 269.368 129.559 269.386 131.366L267.974 131.377ZM15.0815 134.415C14.8712 132.616 14.6882 130.807 14.5376 129.037L15.9432 128.931C16.0929 130.686 16.2744 132.482 16.4832 134.268L15.0815 134.415ZM269.266 142.153L267.857 142.113C267.911 140.318 267.95 138.511 267.969 136.746L269.379 136.76C269.359 138.533 269.321 140.347 269.266 142.153ZM16.6521 145.113C16.3385 143.332 16.0481 141.537 15.7892 139.774L17.186 139.591C17.4433 141.339 17.7317 143.124 18.0432 144.893L16.6521 145.113ZM268.738 152.926L267.331 152.842C267.45 151.052 267.555 149.248 267.642 147.48L269.051 147.542C268.964 149.319 268.859 151.129 268.738 152.926ZM18.8147 155.715C18.4075 153.955 18.0199 152.177 17.6627 150.427L19.0474 150.173C19.4022 151.912 19.7875 153.68 20.1922 155.428L18.8147 155.715ZM267.84 163.676L266.437 163.549C266.615 161.76 266.78 159.959 266.928 158.198L268.334 158.304C268.185 160.072 268.02 161.879 267.84 163.676ZM21.5262 166.203C21.0326 164.475 20.5539 162.717 20.1034 160.975L21.4731 160.656C21.921 162.388 22.3968 164.137 22.8875 165.853L21.5262 166.203ZM266.605 174.392L265.205 174.228C265.437 172.446 265.658 170.651 265.861 168.892L267.264 169.039C267.059 170.802 266.839 172.604 266.605 174.392ZM24.7787 176.554C24.2021 174.88 23.6316 173.145 23.0832 171.397L24.4349 171.016C24.9799 172.752 25.5466 174.477 26.1193 176.14L24.7787 176.554Z" fill="#DCE6FF"/>
<path d="M276.393 146.369C264.69 144.724 265.75 169.433 249.068 169.433C233.816 169.433 225.654 114.23 208.917 125.457C141.631 170.595 193.984 93.7851 148.74 92.2847C128.282 91.6052 114.649 112.281 109.622 148.887C102.335 181.98 85.4355 123.646 68.0438 129.069C56.9905 132.517 58.2565 169.433 43.0044 169.433C26.3228 169.433 27.4218 148.657 15.7189 150.301C3.11871 152.07 0.166016 184.284 0.166016 184.284H291.907C291.907 184.284 288.993 148.139 276.393 146.369Z" fill="#EEF7FF"/>
<path d="M265.179 172.302C254.413 171.6 256.17 177.943 240.823 177.943C226.792 177.943 227.178 163.729 217.787 160.707C200.497 155.144 186.24 183.301 179.537 169.169C166.805 131.672 129.669 112.869 112.537 169.169C105.833 183.301 90.1559 158.086 74.2858 160.707C64.5172 162.321 65.2816 177.943 51.2501 177.943C35.9035 177.943 37.6603 171.6 26.8939 172.302C15.3021 173.059 11.8398 184.284 11.8398 184.284H280.234C280.234 184.284 276.772 173.059 265.179 172.302Z" fill="#DCE6FF"/>
<path d="M168.782 124.994L167.976 135.637H109.749L109.698 165.187L38.5749 165.237L38.3691 192.214L41.7664 195.612H248.414V127.381L245.222 124.189L168.782 124.994Z" fill="#23659B"/>
<path d="M35.3828 162.046L41.7659 168.428V195.612L35.3828 189.228V162.046Z" fill="#1D3F70"/>
<path d="M106.557 132.445L112.939 138.827V168.428L106.557 162.046V132.445Z" fill="#1D3F70"/>
<path d="M164.785 120.997L171.167 127.381V138.827L164.785 132.445V120.997Z" fill="#1D3F70"/>
<path d="M242.031 120.997L248.413 127.381H171.167L164.785 120.997H242.031Z" fill="#3A72AA"/>
<path d="M106.557 132.445L112.939 138.827H171.167L164.785 132.445H106.557Z" fill="#3A72AA"/>
<path d="M35.3828 162.046L41.7659 168.428H112.939L106.557 162.046H35.3828Z" fill="#3A72AA"/>
<path d="M178.589 66.9416C178.867 67.3682 178.044 67.8703 177.829 68.2275C178.609 68.2225 179.303 68.0601 179.308 68.0638C180.169 67.6286 181.006 67.1487 181.82 66.6291C183.26 66.618 182.822 69.9015 179.926 70.8278C178.884 71.1626 177.868 71.5767 176.165 71.3138C175.607 71.227 175.45 69.6547 175.793 69.2182C176.392 68.7483 178.175 66.5423 178.589 66.9416Z" fill="#F99370"/>
<path d="M113.991 83.632C114.177 84.1057 115.092 83.6506 115.533 83.792C115.08 84.4256 114.489 84.8621 114.489 84.8671C113.636 85.3184 112.761 85.7214 111.867 86.086C111.023 87.2541 113.954 88.7966 116.386 86.9713C117.262 86.3141 118.187 85.7264 118.958 84.1838C119.211 83.6791 118.421 82.5681 117.866 82.5681C116.998 82.5681 113.904 83.0629 113.991 83.632Z" fill="#E57D61"/>
<path d="M152.213 67.2925C156.227 69.1649 160.397 71.3051 164.877 71.5891C167.496 71.5469 170.129 70.9145 172.647 70.1643C173.694 69.8494 174.743 69.4947 175.772 69.124C177.188 68.5722 178.24 70.6591 176.971 71.4713C173.463 73.8632 169.452 75.696 165.215 76.2899C162.115 76.5975 159.086 75.8968 156.179 75.0127C153.912 74.2972 151.721 73.4305 149.602 72.3666C146.244 70.6107 148.82 65.5775 152.213 67.2925Z" fill="#F99370"/>
<path d="M176.639 71.6958C176.639 71.6958 176.321 71.9698 175.75 72.4001C173.707 73.9328 168.414 77.4333 162.757 77.375C160.018 77.3477 157.592 77.0489 155.636 76.6868C155.344 76.6323 155.063 76.5777 154.791 76.5207C154.252 76.4091 153.757 76.295 153.307 76.1834C152.91 76.0854 152.553 75.9899 152.234 75.8982C151.098 75.577 150.467 75.3303 150.467 75.3303C151.643 70.0454 150.837 66.8995 150.127 65.342C149.758 64.5298 149.413 64.1491 149.39 64.1256C149.39 64.1243 149.39 64.1243 149.39 64.1243C149.392 64.1256 149.396 64.1256 149.398 64.1268C149.405 64.1293 149.408 64.1318 149.413 64.1343C149.5 64.1677 149.795 64.288 150.256 64.4827C151.599 65.0531 154.341 66.2671 157.322 67.8778C160.468 69.5791 165.27 71.914 174.408 69.5233C174.739 69.4365 175.078 69.3448 175.424 69.248C175.424 69.248 175.241 70.6728 176.639 71.6958Z" fill="#3A72AA"/>
<path d="M177.209 123.875L169.128 124.167C168.759 124.18 168.457 123.881 168.462 123.513C168.464 123.334 168.478 123.124 168.511 122.883C168.603 122.206 168.628 121.522 168.591 120.84C168.573 120.513 168.542 120.187 168.496 119.864L167.71 114.216C167.658 113.839 167.943 113.5 168.324 113.485L171.89 113.357C172.277 113.344 172.587 113.671 172.554 114.056L172.091 119.244C171.99 120.378 172.757 121.406 173.873 121.642C174.669 121.809 175.474 121.897 176.052 122.025C176.126 122.041 176.201 122.059 176.272 122.076H176.274C176.888 122.227 177.397 122.437 177.702 122.852C178.008 123.268 177.725 123.857 177.209 123.875Z" fill="#F99370"/>
<path d="M168.22 123.362C168.256 123.756 168.469 124.2 168.928 124.174L177.309 123.871C177.742 123.857 178.033 123.413 177.865 123.013C177.506 122.112 176.302 120.791 172.334 120.711C171.767 120.786 170.477 121.027 168.591 120.84C168.591 120.84 167.983 121.875 168.22 123.362Z" fill="#EB5648"/>
<path d="M177.865 123.013L168.221 123.362C168.268 123.654 168.358 123.937 168.516 124.189L177.31 123.871C177.736 123.857 178.028 123.425 177.872 123.027C177.87 123.023 177.868 123.018 177.865 123.013Z" fill="#CE3932"/>
<path d="M175.21 116.961C175.251 118.053 175.256 118.701 175.256 118.701C175.256 118.701 171.233 120.456 167.09 119.343C166.78 119.261 166.47 119.161 166.161 119.044C166.046 118.579 165.936 118.052 165.828 117.477C164.911 112.595 164.15 104.315 161.294 102.14C158.332 100.014 152.846 100.304 149.459 100.143C149.363 100.138 149.269 100.134 149.178 100.128C144.102 99.8327 140.127 96.1784 136.975 90.5885C136.509 89.7651 142.424 88.9852 142.424 88.9852L156.102 87.8443C159.623 88.7223 165.839 89.9796 169.844 94.3221C174.131 98.9697 175.024 112.194 175.21 116.961Z" fill="#1D3F70"/>
<path d="M167.091 119.343C166.781 119.261 166.471 119.161 166.162 119.044C165.061 114.627 164.487 104.572 161.295 102.14C158.332 100.014 152.847 100.304 149.459 100.143L150.561 97.752C150.561 97.752 159.86 97.8586 162.953 101.988C166.045 106.115 167.091 119.343 167.091 119.343Z" fill="#103663"/>
<path d="M148.315 137.763L140.28 136.863C139.913 136.822 139.659 136.481 139.717 136.118C139.747 135.942 139.79 135.734 139.859 135.503C140.05 134.847 140.175 134.173 140.238 133.493C140.269 133.168 140.341 129.894 140.344 129.567C140.344 129.567 144.485 129.151 144.395 129.527L144.098 133.94C144.473 134.935 144.276 134.667 145.346 135.064C146.107 135.346 146.891 135.552 147.444 135.763C147.514 135.79 147.586 135.818 147.655 135.846H147.656C148.24 136.087 148.714 136.368 148.955 136.824C149.196 137.281 148.829 137.821 148.315 137.763Z" fill="#F99370"/>
<path d="M139.5 135.932C139.478 136.329 139.623 136.798 140.081 136.841L148.416 137.774C148.846 137.824 149.2 137.427 149.092 137.008C148.87 136.063 147.873 134.579 143.959 133.915C143.388 133.907 142.077 133.955 140.238 133.493C140.238 133.493 139.485 134.428 139.5 135.932Z" fill="#EB5648"/>
<path d="M149.092 137.008L139.501 135.932C139.503 136.228 139.553 136.522 139.671 136.795L148.417 137.774C148.841 137.823 149.192 137.438 149.096 137.023C149.095 137.018 149.094 137.013 149.092 137.008Z" fill="#CE3932"/>
<path d="M149.386 64.1218C149.764 62.4205 149.754 59.902 149.622 58.8592C149.398 56.7983 146.115 57.2435 146.44 59.2808C146.55 59.2262 146.498 62.9152 146.164 63.906C144.162 64.2842 149.468 67.6285 150.993 66.9254C151.954 66.4815 149.386 64.1218 149.386 64.1218Z" fill="#F99370"/>
<path d="M146.427 59.111C146.428 59.1346 146.428 59.1594 146.431 59.1829C146.432 59.2164 146.436 59.2487 146.44 59.2809C146.519 59.24 146.517 61.2773 146.365 62.7405C147.677 63.5093 149.241 63.3952 149.527 63.3667C149.75 61.8266 149.711 59.8835 149.66 59.1532C149.64 58.9821 149.624 58.8804 149.621 58.8593C149.614 58.8134 149.607 58.7663 149.595 58.7217C149.49 58.2467 149.179 57.8623 148.771 57.6491C148.77 57.6491 148.77 57.6491 148.77 57.6491C148.486 57.5015 148.157 57.4383 147.816 57.4841C147.48 57.5288 147.181 57.6751 146.948 57.8884C146.938 57.8971 146.928 57.907 146.92 57.9144C146.603 58.2195 146.414 58.6485 146.427 59.111Z" fill="#E57D61"/>
<path d="M144.272 56.3048C144.272 56.3048 144.301 54.5725 144.842 53.3784L145.832 53.8633L144.272 56.3048Z" fill="#8E4A35"/>
<path d="M150.619 87.8729C150.948 96.4996 149.996 108.606 149.3 114.244C148.621 119.755 147.447 127.089 146.912 130.358H146.911C146.737 131.422 146.631 132.054 146.631 132.054C146.631 132.054 142.452 134.051 138.484 131.554C138.484 131.554 138.505 130.927 138.532 129.867C138.619 126.485 138.763 118.699 138.443 112.895C138.132 107.232 134.319 97.473 136.976 90.5885L150.619 87.8729Z" fill="#1D3F70"/>
<path d="M144.246 61.374C145.791 62.8806 148.216 63.1063 149.964 62.1056H149.965C150.095 62.025 150.218 61.937 150.336 61.839H150.337C155.863 56.2702 148.349 47.1611 144.925 55.1157C143.768 57.3552 141.752 58.5567 144.246 61.374Z" fill="#F99370"/>
<path d="M146.626 56.8603C146.57 56.7512 146.614 56.6173 146.723 56.5615C146.832 56.5057 146.966 56.5491 147.021 56.6582C147.077 56.7673 147.034 56.9012 146.925 56.957C146.816 57.0116 146.682 56.9682 146.626 56.8603Z" fill="#C16256"/>
<path d="M144.761 56.5491C144.705 56.44 144.748 56.3061 144.857 56.2515C144.967 56.1957 145.1 56.2391 145.156 56.3482C145.212 56.4573 145.169 56.59 145.06 56.6458C144.95 56.7016 144.816 56.6582 144.761 56.5491Z" fill="#C16256"/>
<path d="M145.341 58.4674C145.47 58.4823 145.603 58.4748 145.716 58.4389C145.759 58.4252 145.784 58.3781 145.769 58.3335C145.755 58.2901 145.707 58.2665 145.664 58.2801C145.383 58.3694 144.984 58.2293 144.93 58.1028C144.91 58.0582 144.97 58.0135 145.024 57.9838C145.5 57.7259 145.817 56.8256 145.831 56.7884C145.846 56.7438 145.824 56.6967 145.779 56.6818C145.734 56.6657 145.687 56.6892 145.672 56.7326C145.67 56.7413 145.362 57.6093 144.944 57.8362C144.716 57.9602 144.75 58.1103 144.775 58.1685C144.84 58.3211 145.086 58.4376 145.341 58.4674Z" fill="#C16256"/>
<path d="M145.183 54.5651C146.385 53.9315 148.567 54.5069 149.637 54.4982C149.637 54.4982 149.41 56.3297 151.26 57.6329C151.416 59.3168 151.694 60.0509 149.964 62.1056H149.965C150.096 62.025 150.218 61.937 150.336 61.839H150.337C155.659 56.5293 148.72 47.4711 145.183 54.5651Z" fill="#E57D61"/>
<path d="M144.271 50.917C144.961 49.5555 147.007 48.8152 148.777 50.4967C150.138 51.7913 151.608 51.7813 151.578 53.1453C154.31 54.3841 152.956 57.3911 152.956 57.3911L151.587 57.2299C150.023 55.9651 150.07 54.1063 150.07 54.1063C149.722 54.1237 149.355 54.1088 149.03 54.0257C148.022 53.7691 146.531 53.6451 145.395 54.0629C144.259 54.4821 143.5 52.4385 144.271 50.917Z" fill="#8E4A35"/>
<path d="M153.151 58.4947C153.003 59.1965 152.425 59.6702 151.859 59.5511C151.293 59.4321 150.953 58.7662 151.101 58.0644C151.248 57.3613 151.828 56.8876 152.393 57.0067C152.96 57.1257 153.299 57.7916 153.151 58.4947Z" fill="#F99370"/>
<path d="M151.808 57.5634C151.829 57.5559 152.348 57.3551 152.64 57.6254C152.714 57.6936 152.764 57.7866 152.791 57.8994C152.792 57.9007 152.792 57.9007 152.792 57.9007C152.795 57.9118 152.798 57.9205 152.801 57.9317V57.9329C152.843 58.1437 152.811 58.4264 152.703 58.7786C152.692 58.8183 152.653 58.8431 152.614 58.8381C152.609 58.8369 152.604 58.8369 152.599 58.8344C152.554 58.822 152.529 58.7749 152.543 58.7302C152.63 58.445 152.662 58.2119 152.645 58.0371C152.161 58.1239 151.919 58.6658 151.917 58.6707C151.902 58.7067 151.866 58.7265 151.83 58.7216C151.821 58.7203 151.814 58.7191 151.806 58.7154C151.764 58.698 151.744 58.6484 151.762 58.6062C151.774 58.579 152.037 57.9726 152.605 57.8684C152.585 57.8201 152.56 57.7791 152.526 57.7481C152.311 57.5497 151.872 57.7184 151.868 57.7196C151.825 57.737 151.777 57.7159 151.759 57.6725C151.743 57.6291 151.764 57.5807 151.808 57.5634Z" fill="#C16256"/>
<path d="M156.102 87.8456C156.102 87.8456 150.849 92.9073 136.975 90.5885C136.975 90.5885 137.161 85.5156 137.38 80.6027C137.4 80.1811 137.419 79.7607 137.438 79.3429C137.438 79.3416 137.438 79.3416 137.438 79.3416C137.616 75.5137 137.807 72.064 137.939 71.5742C139.259 66.6341 143.384 64.7629 145.24 64.1578C145.808 63.973 146.163 63.9061 146.163 63.9061C146.163 65.1299 148.282 65.931 149.015 65.4015C149.625 64.9601 149.402 64.1689 149.39 64.1255C149.39 64.1243 149.39 64.1243 149.39 64.1243C149.392 64.1255 149.396 64.1255 149.398 64.1268C149.404 64.1293 149.408 64.1317 149.413 64.1342C149.707 64.2607 149.987 64.4058 150.255 64.5695C152.127 65.7202 153.36 67.7947 154.037 70.7682C154.278 71.8235 154.447 72.9903 154.552 74.2688C154.57 74.4907 154.588 74.7176 154.601 74.9471C154.631 75.4269 154.698 75.9539 154.79 76.5132C154.791 76.5181 154.791 76.5206 154.791 76.5206C155.366 80.036 156.899 84.8795 156.102 87.8456Z" fill="#3A72AA"/>
<path d="M147.765 56.5516C147.784 56.5528 147.802 56.5503 147.82 56.5417C147.868 56.5181 147.889 56.4598 147.866 56.4115C147.852 56.3805 147.506 55.6761 146.597 55.5199C146.544 55.5112 146.492 55.5472 146.483 55.6005C146.473 55.6551 146.509 55.7059 146.564 55.7146C147.368 55.8522 147.675 56.4697 147.688 56.4958C147.703 56.528 147.733 56.5479 147.765 56.5516Z" fill="#C16256"/>
<path d="M144.687 55.8534C144.718 55.8571 144.749 55.846 144.772 55.8212C145.026 55.5434 145.564 55.5682 145.57 55.5682C145.625 55.5719 145.671 55.5298 145.673 55.4752C145.677 55.4207 145.635 55.3748 145.58 55.3723C145.555 55.3711 144.943 55.3413 144.626 55.6885C144.589 55.7294 144.593 55.7914 144.633 55.8286C144.649 55.8423 144.667 55.8509 144.687 55.8534Z" fill="#C16256"/>
<path d="M136.762 70.8748C133.628 74.0306 130.477 75.9502 127.625 77.6775C125.386 79.0341 123.13 80.4749 120.704 81.4843C119.694 81.9022 118.656 82.2903 117.625 82.6536C116.179 83.1223 116.683 85.4027 118.179 85.2303C122.41 84.8658 126.887 83.9655 130.521 81.7075C133.438 79.8959 137.01 77.9825 139.132 75.8076C141.129 73.7628 143.063 70.4904 144.032 68.3266C145.525 64.8434 139.831 66.2223 136.762 70.8748Z" fill="#E57D61"/>
<path d="M146.163 63.906C146.163 63.906 146.056 64.3723 145.789 65.2031C145.16 67.1586 143.654 71.1353 140.618 75.8411C139.77 77.1555 138.685 78.3211 137.439 79.3416C132.631 83.2811 125.414 85.0927 120.081 85.1597C119.741 85.1634 119.4 85.1585 119.063 85.1448C119.063 85.1448 119.438 83.4348 118.334 82.4007C118.334 82.4007 118.643 82.2494 119.149 81.9902C120.974 81.0503 125.376 78.6956 127.22 76.8703C129.5 74.6135 135.667 64.5223 145.183 63.9333C145.241 63.9296 145.299 63.9259 145.357 63.9222C145.624 63.9085 145.893 63.9036 146.163 63.906Z" fill="#3A72AA"/>
<path d="M175.21 116.961C175.251 118.053 175.256 118.701 175.256 118.701C175.256 118.701 171.233 120.456 167.09 119.343C166.78 119.261 166.47 119.161 166.162 119.044C166.046 118.579 165.936 118.052 165.828 117.477C165.828 117.477 170.577 118.761 175.209 116.961H175.21Z" fill="#103663"/>
<path d="M146.91 130.358C146.737 131.422 146.63 132.054 146.63 132.054C146.63 132.054 142.451 134.051 138.483 131.554C138.483 131.554 138.504 130.927 138.532 129.867C138.532 129.867 141.443 132.001 146.91 130.358Z" fill="#103663"/>
<path d="M119.149 81.9902C118.642 82.2494 118.334 82.4006 118.334 82.4006C119.436 83.4348 119.062 85.1435 119.062 85.1435C119.4 85.1584 119.741 85.1634 120.081 85.1584C120.086 85.12 120.337 82.9934 119.149 81.9902Z" fill="#23659B"/>
<path d="M176.639 71.6957C176.639 71.6957 176.322 71.9698 175.75 72.3988C174.116 71.1786 174.404 69.5629 174.404 69.5629L174.408 69.5232C174.739 69.4364 175.078 69.3447 175.424 69.248C175.424 69.248 175.241 70.6727 176.639 71.6957Z" fill="#23659B"/>
<path d="M145.331 59.3788C145.101 59.3788 144.941 59.3366 144.938 59.3354C144.894 59.3242 144.869 59.2808 144.881 59.2374C144.893 59.1953 144.936 59.1705 144.979 59.1816C145.021 59.1928 146.018 59.4507 146.532 58.5319C146.553 58.4934 146.602 58.4798 146.64 58.5009C146.679 58.5219 146.692 58.5715 146.671 58.61C146.308 59.2573 145.72 59.3788 145.331 59.3788Z" fill="#C16256"/>
<path d="M142.582 72.534C142.51 72.7038 140.35 77.7531 137.38 80.6027C137.4 80.1811 137.418 79.7607 137.438 79.3428C137.439 79.3416 137.439 79.3416 137.439 79.3416C137.439 79.3416 140.537 76.0891 142.582 72.534Z" fill="#23659B"/>
<path d="M155.635 76.6868C155.344 76.6322 155.062 76.5777 154.791 76.5206C154.791 76.5206 154.791 76.5181 154.79 76.5132C154.783 76.4251 154.711 75.5683 154.552 74.2737V74.2688C154.431 73.3003 154.264 72.0876 154.037 70.7707C154.037 70.7695 154.037 70.7695 154.037 70.7682L154.033 70.7496C154.033 70.7496 154.8 73.283 155.635 76.6868Z" fill="#23659B"/>
<path d="M150.257 64.4826C150.257 64.5111 150.257 64.5396 150.255 64.5694C150.252 64.8174 150.22 65.0877 150.128 65.3419C149.921 65.9235 149.411 66.422 148.26 66.3748C146.992 66.324 146.234 65.771 145.789 65.203C145.474 64.805 145.315 64.4008 145.241 64.1577C145.2 64.0275 145.184 63.9444 145.183 63.9333C145.183 63.932 145.183 63.932 145.183 63.932L145.357 63.9221C145.624 63.9085 145.893 63.9035 146.163 63.906C146.163 65.1299 148.283 65.9309 149.015 65.4014C149.626 64.96 149.402 64.1689 149.39 64.1255C149.389 64.1255 149.39 64.1242 149.39 64.1242C149.392 64.1255 149.396 64.1255 149.399 64.1267C149.458 64.1515 149.764 64.2743 150.257 64.4826Z" fill="#23659B"/>
<path d="M115.585 83.7225C115.585 83.7225 113.336 83.5886 111.964 84.7269C110.592 85.864 109.698 87.7575 109.698 87.7575C109.698 87.7575 111.245 88.0873 111.382 88.8549C111.382 88.8549 113.188 87.3495 113.818 86.3364C114.446 85.3221 115.585 83.7225 115.585 83.7225Z" fill="#F99370"/>
<path d="M86.1235 82.5359C86.1235 82.5359 82.7478 79.1556 78.1055 84.417C73.463 89.6771 76.3602 89.6709 69.0474 92.3518C62.9644 94.5825 61.1711 101.41 69.2164 103.401C76.9079 105.305 81.8004 99.1371 86.4028 99.4533C91.0053 99.7682 91.5662 89.9114 90.1006 87.4252C88.6349 84.939 86.1235 82.5359 86.1235 82.5359Z" fill="#C92828"/>
<path d="M87.9642 103.178C92.8403 103.714 98.0496 103.095 102.311 100.482C106.963 97.3638 110.818 92.8018 112.555 87.4363C112.796 86.7382 112.073 86.0215 111.381 86.2595C111.358 86.2856 110.419 86.5212 110.421 86.577C110.121 87.0135 109.804 87.4375 109.471 87.8517C105.182 93.0932 98.9979 97.4221 91.9441 96.8814C90.8913 96.8603 89.8349 96.7797 88.7926 96.6458C84.5115 96.1858 83.6926 102.549 87.9642 103.178Z" fill="#F99370"/>
<path d="M101.834 100.697C101.834 100.697 101.812 101.164 101.53 101.688C101.53 101.688 101.53 101.688 101.529 101.688C100.464 103.349 96.3458 104.299 92.5245 104.261C92.1214 104.257 91.7223 104.242 91.3297 104.217C90.8244 104.183 90.3309 104.131 89.8585 104.059C89.618 102.204 88.1765 97.711 87.9404 95.8733C89.2361 95.7183 91.4723 96.2205 93.6447 96.3743C95.866 96.6992 97.6714 95.0549 99.1661 95.8002C99.1661 95.8002 99.0181 99.3168 101.834 100.697Z" fill="#9358E0"/>
<path d="M56.6299 143.265C56.6299 143.265 59.1958 142.881 61.2777 142.289L62.0311 146.851L57.1721 146.607C57.1721 146.607 55.6237 145.372 56.6299 143.265Z" fill="#F99370"/>
<path d="M83.2441 161.974L83.6465 158.988L87.6519 159.027C87.6519 159.027 87.1237 160.331 86.6285 162.011C86.6285 162.011 84.8989 163.477 83.2441 161.974Z" fill="#F99370"/>
<path d="M86.1309 82.5843C90.5727 81.2674 90.4407 88.5884 90.0087 90.0243L86.1309 82.5843Z" fill="#C92828"/>
<path d="M54.2623 143.215C53.9977 143.292 53.7477 143.409 53.5332 143.582L54.8413 151.642C54.9049 152.034 55.3364 152.255 55.685 152.065C55.6891 152.063 55.6933 152.06 55.6974 152.058C56.4941 151.62 57.5833 150.34 57.1715 146.607C57.1715 146.607 56.5903 145.404 56.6292 143.265C56.6292 143.265 55.3346 142.904 54.2623 143.215Z" fill="#1D3F70"/>
<path d="M55.6974 152.058L54.2623 143.215C53.9977 143.292 53.7477 143.409 53.5332 143.582L54.8413 151.642C54.9049 152.034 55.3364 152.255 55.685 152.065L55.6974 152.058Z" fill="#395B96"/>
<path d="M82.7907 164.298C82.8207 164.572 82.8932 164.839 83.0278 165.079L91.19 165.168C91.5869 165.173 91.8784 164.785 91.7509 164.41C91.7495 164.406 91.7478 164.401 91.7464 164.396C91.4511 163.537 90.377 162.244 86.6285 162.011C86.6285 162.011 85.3443 162.378 83.2442 161.974C83.2442 161.974 82.6676 163.188 82.7907 164.298Z" fill="#1D3F70"/>
<path d="M91.7457 164.396L82.79 164.298C82.82 164.572 82.8926 164.839 83.0271 165.079L91.1893 165.168C91.5862 165.173 91.8778 164.785 91.7503 164.41L91.7457 164.396Z" fill="#395B96"/>
<path d="M59.1596 147.281C59.5351 147.361 59.9541 147.429 60.4112 147.487C60.4112 147.487 60.4125 147.487 60.414 147.488C66.22 148.235 78.1105 147.311 82.3738 142.736V142.734C82.956 142.127 83.4946 141.491 83.9909 140.833C87.7538 135.851 89.16 129.515 89.6296 123.178C89.7928 120.983 89.8434 118.79 89.8405 116.651C89.0152 111.802 84.5605 110.384 81.0493 111.569C78.2975 112.496 76.1235 115.021 76.7267 118.745V118.729C77.7814 121.747 77.9951 124.555 77.5241 127.113C76.1558 134.527 69.0323 139.829 59.9541 141.969C59.4634 142.085 58.967 142.191 58.4665 142.288C58.4665 142.288 57.8575 145.128 59.1596 147.281Z" fill="#E8C0A6"/>
<path d="M82.791 115.3L89.1846 125.688L89.4027 125.566C89.5018 124.711 89.5823 123.837 89.6441 122.943C89.6874 122.352 89.7215 121.755 89.7493 121.147C89.8097 119.843 89.8391 118.502 89.8406 117.121L87.6511 116.506L82.791 115.3Z" fill="#D1A68F"/>
<path d="M81.5197 143.527C81.5197 143.527 83.1646 142.142 83.9914 140.833C86.3306 137.129 86.4513 136.842 87.7511 132.565L86.2486 124.266L77.4846 123.709C77.5558 125.501 77.8669 126.281 77.1152 128.763C77.1152 128.763 81.7209 132.696 81.5197 143.527Z" fill="#D1A68F"/>
<path d="M75.1182 124.418C75.9276 125.368 76.7901 126.209 77.5242 127.113C81.1211 131.54 83.1263 136.105 83.9911 140.833C84.9993 146.328 84.4664 152.042 83.108 158.007C83.0012 158.476 82.8901 158.944 82.7734 159.415C82.7734 159.415 86.1033 160.531 87.9578 159.704C88.1548 159.287 88.3473 158.874 88.5343 158.464V158.461C94.0775 146.355 95.7128 136.919 89.6297 123.178C88.4331 120.476 86.9384 117.606 85.1147 114.516C83.8365 112.952 82.433 112.008 81.0494 111.569C75.2589 109.73 69.4135 117.732 75.1182 124.418Z" fill="#E8C0A6"/>
<path d="M89.7803 115.913C89.841 116.753 89.841 117.158 89.841 117.158C79.0558 119.324 73.1749 116.3 73.1749 116.3C73.11 116.322 73.1174 115.94 73.1834 115.276C73.3164 113.943 73.6834 111.474 74.1781 108.855C74.2664 108.389 74.3589 107.919 74.4546 107.448C75.1249 104.155 75.9643 100.905 76.7643 99.6107C78.3823 95.0562 83.909 94.2961 87.4133 95.7357C87.9601 95.9366 90.6378 100.63 91.1995 102.455C92.1474 105.537 88.9091 107.869 89.3124 111.762C89.5835 113.653 89.7166 115.024 89.7803 115.913Z" fill="#9358E0"/>
<path d="M83.3962 95.8348C83.5401 95.9737 83.6515 96.0952 83.5261 96.3098C83.3049 96.6904 83.5029 97.6638 84.0399 97.8536C84.1605 97.897 84.2998 97.9007 84.4561 97.8461C85.2993 97.5572 85.3256 97.9255 85.9709 98.6087C86.6161 99.2945 87.2753 98.9262 87.526 98.3459C87.7766 97.7668 88.329 98.1363 88.4853 97.4506C88.524 97.2819 88.5178 97.1195 88.4853 96.9694C88.4033 96.5726 87.9407 95.8733 87.9407 95.8733C87.9407 95.8733 87.4532 95.7183 87.413 95.7356C86.121 95.0053 84.569 94.8738 83.1022 95.097C83.1022 95.097 83.1022 95.097 83.1007 95.097C83.0233 95.4889 83.2306 95.6736 83.3962 95.8348Z" fill="#7640CC"/>
<path d="M87.7288 93.4045L87.4049 95.7394C87.4049 95.7394 88.1001 97.4494 86.577 97.3192C84.407 97.1332 83.999 95.0066 83.999 95.0066L84.3414 93.1168L87.7288 93.4045Z" fill="#F99370"/>
<path d="M84.3416 93.1168L84.1885 93.9625C85.5471 94.7871 87.2489 94.7263 87.5493 94.7003L87.7291 93.4045L84.3416 93.1168Z" fill="#E57D61"/>
<path d="M90.2745 92.5427C89.1282 93.8348 87.28 94.2799 85.7694 94.0357C85.1414 93.9427 84.5479 93.7219 84.0441 93.345H84.0422C81.9873 91.64 81.2085 88.034 82.2518 85.6632C83.7606 82.1862 88.0887 82.5086 89.2401 86.1393C89.4628 86.6849 89.8644 87.2776 90.3484 87.7104C91.6322 88.8785 91.7319 90.8079 90.2745 92.5427Z" fill="#F99370"/>
<path d="M89.2197 90.6207L87.1945 89.7118C87.1945 89.7118 87.1318 90.7955 87.9276 91.0473C88.6882 91.2891 89.2197 90.6207 89.2197 90.6207Z" fill="#F9F8F3"/>
<path d="M82.9076 90.6554C82.9076 90.6554 83.0872 92.1148 84.3966 93.5756C84.2744 93.5061 84.1569 93.428 84.0441 93.3449H84.0422C81.9876 91.6399 81.2083 88.034 82.2518 85.6631C83.0196 83.6283 85.5582 82.4069 87.6028 83.8403C87.6028 83.8403 88.647 86.9155 83.0763 89.5952L82.9076 90.6554Z" fill="#E57D61"/>
<path d="M87.5871 88.0241C87.6383 87.9088 87.5866 87.7749 87.4715 87.7228C87.3564 87.672 87.2215 87.7228 87.1702 87.8381C87.119 87.9534 87.1706 88.0886 87.2858 88.1394C87.4008 88.1915 87.5357 88.1394 87.5871 88.0241Z" fill="#C16256"/>
<path d="M87.0153 83.4461C87.0153 83.4461 87.9047 86.6874 82.8745 89.0757L81.6125 89.8457C81.6125 89.8457 80.5025 87.6645 81.3712 85.094C82.24 82.5247 86.3026 81.5141 87.0153 83.4461Z" fill="#C92828"/>
<path d="M89.4874 87.6049C89.5387 87.4896 89.487 87.3557 89.3718 87.3036C89.2568 87.2528 89.1218 87.3049 89.0706 87.4189C89.0193 87.5343 89.071 87.6694 89.1861 87.7203C89.3011 87.7723 89.436 87.7203 89.4874 87.6049Z" fill="#C16256"/>
<path d="M89.2346 90.7062C89.2182 90.7087 89.2008 90.7075 89.1846 90.7L87.1594 89.7911C87.1159 89.7713 87.0964 89.7204 87.116 89.677C87.1354 89.6336 87.1868 89.6138 87.23 89.6336L89.2553 90.5426C89.2988 90.5624 89.3183 90.6132 89.2988 90.6566C89.2866 90.6839 89.2618 90.7013 89.2346 90.7062Z" fill="#C16256"/>
<path d="M88.9942 89.6101C88.8614 89.6324 88.7248 89.6324 88.6077 89.6014C88.5616 89.589 88.5341 89.5419 88.5464 89.4947C88.5587 89.4489 88.6063 89.4216 88.652 89.434C88.9458 89.5121 89.3478 89.346 89.3969 89.212C89.4143 89.1649 89.3499 89.1227 89.2929 89.0955C88.7908 88.8561 88.4157 87.9472 88.4 87.9088C88.382 87.8641 88.4032 87.8133 88.4473 87.7959C88.4927 87.7773 88.5418 87.7984 88.5599 87.8431C88.5635 87.8517 88.9256 88.7284 89.3674 88.9392C89.6083 89.0546 89.5817 89.2108 89.5591 89.2728C89.5 89.4327 89.2541 89.5654 88.9942 89.6101Z" fill="#C16256"/>
<path d="M80.9713 90.0528C81.1608 90.7683 81.7806 91.2246 82.3559 91.0721C82.931 90.9195 83.2437 90.2165 83.0544 89.501C82.8649 88.7867 82.2452 88.3304 81.6699 88.4829C81.0947 88.6354 80.7819 89.3385 80.9713 90.0528Z" fill="#F99370"/>
<path d="M82.3029 89.0248C80.3356 88.4271 81.9566 91.8793 81.4675 89.5506C81.9706 89.6126 82.2471 90.1644 82.25 90.1693C82.6816 90.3814 82.134 89.439 81.4995 89.3795C81.6129 88.8748 82.6 89.408 82.3029 89.0248Z" fill="#C16256"/>
<path d="M81.9544 90.7955C81.9598 90.9021 82.0508 90.984 82.1577 90.979C82.2647 90.9728 82.3469 90.8823 82.3415 90.7757C82.3362 90.6678 82.245 90.5859 82.1381 90.5909C82.0312 90.5971 81.9489 90.6876 81.9544 90.7955Z" fill="#F4D4BE"/>
<path d="M65.8985 123.768C65.4202 123.82 65.4824 122.68 65.1958 122.347C64.7948 123.008 64.5817 123.789 64.577 123.792C64.4971 124.747 64.4688 125.703 64.4838 126.661C63.7668 127.929 63.781 124.264 63.7167 123.905C63.712 123.905 63.7073 123.904 63.7026 123.902C63.4122 124.863 63.1738 125.84 63.0193 126.831C61.9957 127.97 62.9001 123.985 62.9467 123.608C62.9446 123.607 62.9426 123.606 62.9405 123.605C62.5145 124.462 62.1931 125.372 61.9724 126.303C60.839 127.357 62.0716 123.383 62.2398 123.037C62.2372 123.033 62.2345 123.031 62.2318 123.028C61.7993 123.652 61.4465 124.331 61.1312 125.023C59.9346 125.854 61.4897 122.567 61.678 122.267C61.7041 121.994 62.4385 120.454 63.2912 119.205C63.6071 118.743 65.4776 118.825 65.6691 119.342C65.8487 119.825 66.0436 121.435 66.0721 121.688C66.2078 122.171 66.3883 123.458 65.8985 123.768Z" fill="#F99370"/>
<path d="M98.1929 96.5306C98.4535 97.4122 97.6313 97.447 98.0948 98.341C98.5582 99.235 99.4427 98.8097 99.7522 100.439C100.057 102.045 101.486 101.699 101.529 101.688C101.53 101.689 101.53 101.689 101.53 101.689C101.812 101.164 101.944 100.701 101.944 100.701C99.1278 99.3219 99.1657 95.7618 99.1657 95.7618C98.8209 95.4878 98.3796 95.5138 97.8672 95.6366C97.9717 95.8945 98.1019 96.2206 98.1929 96.5306Z" fill="#7640CC"/>
<path d="M86.4999 87.4822C86.5114 87.4798 86.5229 87.476 86.534 87.4711C87.2413 87.1028 87.6414 86.4642 87.6581 86.4369C87.6917 86.3823 87.6749 86.3117 87.6205 86.2782C87.566 86.2447 87.4946 86.2608 87.4606 86.3154C87.4569 86.3216 87.0757 86.9267 86.4266 87.2652C86.3698 87.295 86.3479 87.3644 86.3774 87.4215C86.4013 87.4673 86.4515 87.4909 86.4999 87.4822Z" fill="#C16256"/>
<path d="M89.3526 86.5907C89.406 86.582 89.4471 86.5361 89.4489 86.4803C89.4507 86.4158 89.4004 86.3625 89.3364 86.3613C89.3318 86.36 88.8741 86.3427 88.4757 86.0438C88.4244 86.0054 88.3516 86.0165 88.3133 86.0674C88.2748 86.1182 88.2851 86.1914 88.3365 86.2298C88.7959 86.5745 89.3082 86.5919 89.3298 86.5931C89.3376 86.5931 89.3452 86.5919 89.3526 86.5907Z" fill="#C16256"/>
<path d="M83.108 158.007C83.0012 158.476 82.8901 158.944 82.7734 159.415C82.7734 159.415 86.0401 160.594 87.9579 159.704C88.1548 159.287 88.3474 158.874 88.5344 158.464C88.5344 158.464 86.8878 159.376 83.108 158.007Z" fill="#D1A68F"/>
<path d="M59.1596 147.281C59.5351 147.361 59.9541 147.429 60.4112 147.487C60.4112 147.487 59.2749 145.631 59.9541 141.969C59.4634 142.085 58.967 142.191 58.4665 142.288C58.4665 142.288 57.8575 145.128 59.1596 147.281Z" fill="#D1A68F"/>
<path d="M80.8512 102.135C74.4933 105.119 71.756 108.503 68.5586 114.583C67.5485 116.451 66.6053 118.379 65.7726 120.336C65.1748 121.828 62.8087 121.033 63.2282 119.488C64.3787 114.817 66.1961 110.359 68.5506 106.151C70.8565 102.273 74.3831 99.2288 78.3021 97.0662C81.707 95.3253 84.2878 100.434 80.8512 102.135Z" fill="#F99370"/>
<path d="M80.159 103.26C77.9856 103.804 76.1451 106.674 74.7408 107.652C74.2548 107.991 73.8058 108.208 73.4259 108.347C72.7111 108.608 72.2441 108.592 72.2441 108.592C71.4292 106.31 68.7919 105.754 68.7919 105.754C68.3652 105.332 68.1652 104.827 68.1557 104.262C68.1164 102.164 70.8975 99.7199 74.2793 97.1407C78.4177 93.9836 82.7534 95.148 82.7534 95.148C84.7087 98.8444 82.3314 102.718 80.159 103.26Z" fill="#9358E0"/>
<path d="M82.136 100.934C81.9253 101.282 78.6534 106.835 74.1055 109.239C74.1938 108.773 74.2683 108.366 74.364 107.895C74.364 107.895 79.2593 105.118 82.136 100.934Z" fill="#7640CC"/>
<path d="M92.5251 104.261C92.122 104.257 91.7229 104.242 91.3304 104.217C91.2432 101.824 90.1922 100.133 90.1592 100.081C91.4198 101.468 92.1548 103.186 92.5251 104.261Z" fill="#7640CC"/>
<path d="M73.4255 108.347C72.7107 108.608 72.2437 108.592 72.2437 108.592C71.4288 106.31 68.7915 105.754 68.7915 105.754C68.3648 105.332 68.1648 104.827 68.1553 104.262C68.9553 104.204 69.1458 105.343 69.8788 105.425C70.6117 105.506 70.9925 105.175 71.5628 105.558C72.133 105.941 71.8341 106.81 72.2958 107.326C72.7574 107.842 73.4202 107.475 73.4255 108.347Z" fill="#7640CC"/>
<path d="M89.841 117.158C79.0558 119.324 73.1749 116.3 73.1749 116.3C73.11 116.322 73.1174 115.94 73.1834 115.276C73.6377 115.194 74.2132 115.23 74.7951 115.638C76.0717 116.534 75.4696 116.86 77.0335 116.806C78.5984 116.751 78.0004 116.126 78.9782 116.534C79.9558 116.941 80.0919 117.675 81.0154 117.457C81.9388 117.24 81.8038 116.86 82.4963 116.97C83.1888 117.077 83.7048 117.754 84.6282 117.497C85.5517 117.24 85.6686 116.564 86.3165 116.604C86.9644 116.642 87.5346 117.213 88.1048 117.105C88.6059 117.008 88.9453 116.097 89.7803 115.913C89.841 116.753 89.841 117.158 89.841 117.158Z" fill="#7640CC"/>
<path d="M177.741 68.2945C177.741 68.2945 178.933 66.3836 180.655 65.9223C182.376 65.4623 184.734 65.874 184.734 65.874C184.734 65.874 184.064 66.4419 184.316 68.3081C184.316 68.3081 182.086 68.4383 180.896 68.3651C179.704 68.2907 177.741 68.2945 177.741 68.2945Z" fill="#E57D61"/>
<path d="M201.591 40.3385C201.591 40.3385 199.895 40.2988 198.963 42.1067C197.854 44.2544 199.261 45.8801 198.842 47.3247C198.422 48.7693 197.698 49.796 198.266 51.2431C198.835 52.6914 197.894 53.5954 198.382 54.7858C198.871 55.9762 199.604 55.9377 199.571 57.5349C199.539 59.1332 200.94 60.4947 202.229 59.5474C203.518 58.5988 204.233 60.6758 206.292 59.38C208.352 58.0842 208.437 56.5577 210.827 56.1275C213.218 55.6972 212.269 52.3777 214.295 51.1426C216.323 49.9088 216.147 47.9633 214.451 46.6389C212.755 45.3146 211.655 44.986 210.421 41.7918C209.033 38.1958 203.853 36.642 201.591 40.3385Z" fill="#662948"/>
<path d="M208.612 57.2199C206.89 61.8947 204.078 67.0135 199.008 68.6354C194.175 69.8084 189.193 69.2765 184.396 68.3117C182.639 68.2448 182.525 65.8392 184.329 65.8503C188.638 66.045 193.169 66.0463 197.302 64.7504C200.958 63.3976 202.599 59.158 203.888 55.7344C204.879 52.5699 209.614 54.048 208.612 57.2199Z" fill="#E57D61"/>
<path d="M207.517 63.8217C207.274 64.3958 206.993 64.9315 206.683 65.4325C206.179 66.2434 205.598 66.9601 204.955 67.5913C204.835 67.7116 204.712 67.8269 204.587 67.9397C201.959 70.3181 198.49 71.3435 195.602 71.4018C192.395 71.4651 187.92 70.4123 185.854 69.3397C185.214 69.0086 184.805 68.6738 184.737 68.3713C184.448 67.0903 185.099 65.8863 185.099 65.8863C185.31 65.6358 185.766 65.4337 186.373 65.2663C188.53 64.6711 192.586 64.5148 194.226 64.1478C196.327 63.6766 199.585 62.4465 201.506 58.2454C202.655 55.7282 203.863 54.4869 204.645 53.8967C205.169 53.5024 205.533 53.4069 205.533 53.4069C205.533 53.4069 206.846 54.9829 207.631 57.3179C207.691 57.4927 207.748 57.6738 207.799 57.8573C208.291 59.5982 208.426 61.6864 207.517 63.8217Z" fill="#EB5648"/>
<path d="M206.683 65.4325C206.085 66.396 205.373 67.2281 204.587 67.9398C203.972 67.1574 202.787 65.4102 202.625 63.3853C202.403 60.6312 204.422 57.3799 204.422 57.3799L206.683 65.4325Z" fill="#CE3932"/>
<path d="M236.33 122.122L242.772 116.831C242.601 116.397 241.003 115.101 240.594 114.475C240.399 114.229 238.36 111.861 238.186 111.598L235.783 109.304L232.943 111.636L237.453 115.909C237.989 116.416 238.087 117.231 237.691 117.852C236.874 119.281 235.346 120.172 235.339 121.727C235.395 122.204 235.959 122.427 236.33 122.122Z" fill="#F99370"/>
<path d="M242.46 116.049C242.612 116.289 242.725 116.55 242.773 116.831L236.268 122.174C235.951 122.433 235.467 122.31 235.327 121.926C235.001 121.026 235.027 119.309 237.898 116.69C237.898 116.69 239.166 116.156 240.595 114.475C240.595 114.475 241.842 115.078 242.46 116.049Z" fill="#1D3F70"/>
<path d="M235.321 121.912L242.459 116.049C242.611 116.289 242.724 116.55 242.772 116.831L236.267 122.174C235.946 122.438 235.453 122.305 235.321 121.912Z" fill="#395B96"/>
<path d="M204.945 51.9227L205.533 53.407C205.533 53.407 206.319 62.2023 207.82 62.1998C210.477 62.1973 208.721 52.7411 208.86 52.219C208.86 52.219 208.376 51.232 208.211 50.7534L204.945 51.9227Z" fill="#F99370"/>
<path d="M204.315 124.112L212.652 124.124C212.796 123.68 212.388 121.665 212.469 120.921C212.474 120.608 212.577 118.894 212.61 118.583L212.044 113.871L208.37 113.866L209.134 120.031C209.224 120.763 208.782 121.453 208.081 121.683C206.542 122.264 204.796 121.982 203.801 123.177C203.541 123.58 203.835 124.111 204.315 124.112Z" fill="#F99370"/>
<path d="M212.907 123.322C212.873 123.605 212.794 123.878 212.652 124.124L204.233 124.112C203.824 124.111 203.529 123.708 203.666 123.322C203.987 122.421 205.098 121.112 208.979 120.916C208.979 120.916 210.298 121.311 212.47 120.921C212.47 120.921 213.049 122.18 212.907 123.322Z" fill="#1D3F70"/>
<path d="M203.67 123.308L212.907 123.322C212.872 123.605 212.794 123.878 212.652 124.124L204.233 124.112C203.819 124.112 203.523 123.695 203.67 123.308Z" fill="#395B96"/>
<path d="M207.252 47.295C207.265 47.3545 207.277 47.4152 207.285 47.4748C207.191 47.4537 207.76 49.5778 208.326 51.0609C207.174 52.2265 205.527 52.5675 205.221 52.6171C204.472 50.7509 203.977 48.9491 203.842 47.7687C203.713 45.735 206.822 45.306 207.252 47.295Z" fill="#E57D61"/>
<path d="M208.569 44.9352C208.993 46.4518 209.251 48.2622 208.567 49.7092L208.564 49.7105C206.69 53.8732 198.608 52.4794 200.108 47.5851C200.645 46.2893 200.137 44.6674 200.487 43.4646C201.857 38.858 207.667 40.9871 208.569 44.9352Z" fill="#F99370"/>
<path d="M202.798 49.3435L203.858 48.447C204.14 49.1513 203.486 49.7961 202.798 49.3435Z" fill="#F9F8F3"/>
<path d="M202.78 46.5498C202.538 46.365 202.836 45.988 203.073 46.1802C203.315 46.3662 203.017 46.7432 202.78 46.5498Z" fill="#C16256"/>
<path d="M200.845 47.0767C200.603 46.8907 200.9 46.515 201.137 46.7072C201.379 46.8932 201.081 47.2689 200.845 47.0767Z" fill="#C16256"/>
<path d="M202.804 49.3967C202.839 49.4029 203.865 48.499 203.893 48.4878C203.916 48.468 203.919 48.4345 203.899 48.4122C203.874 48.2795 202.795 49.3099 202.763 49.3025C202.722 49.3347 202.753 49.4054 202.804 49.3967Z" fill="#C16256"/>
<path d="M205.475 116.366C205.606 117.345 205.696 117.882 205.696 117.882C209.211 119.053 213.908 119.307 217.04 118.113C214.466 109.189 215.514 84.9316 217.339 81.9395C217.339 81.9395 223.738 103.378 230.162 115.359C230.434 115.865 230.705 116.353 230.977 116.821C230.977 116.821 238.284 116.905 242.048 110.409C242.048 110.409 241.648 109.938 241.018 109.084C239.127 106.525 235.152 101.307 233.577 94.1944C230.069 78.3435 225.98 71.1242 222.984 68.3553C218.84 64.5261 210.269 69.1042 207.506 74.5925C203.643 86.7755 203.962 106.373 205.475 116.366Z" fill="#1D3F70"/>
<path d="M202.254 48.6713C202.386 48.6106 202.698 48.5275 202.608 48.3514C202.575 48.3154 202.518 48.313 202.482 48.3464C202.252 48.5585 201.804 48.5994 201.696 48.5014C201.658 48.4667 201.696 48.3973 201.735 48.3452C202.083 47.9075 202.082 46.3624 201.805 46.8497C201.805 46.8597 201.895 47.8331 201.592 48.2385C201.282 48.7618 201.869 48.7854 202.254 48.6713Z" fill="#C16256"/>
<path d="M208.568 44.9352C208.992 46.4517 209.25 48.2621 208.566 49.7092L208.563 49.7104C208.827 48.6577 208.422 46.7642 208.422 46.7642L207.777 46.1368C202.146 46.8163 200.782 42.6995 200.782 42.6995C202.658 38.8939 207.723 41.4062 208.568 44.9352Z" fill="#E57D61"/>
<path d="M201.111 42.0968C201.111 42.0968 202.506 46.1591 207.628 45.7288L208.802 44.1329C208.947 40.4129 204.127 37.2757 201.111 42.0968Z" fill="#662948"/>
<path d="M209.795 45.2341C210.212 46.9776 208.006 47.481 207.627 45.7276C207.211 43.9854 209.417 43.4832 209.795 45.2341Z" fill="#F99370"/>
<path d="M209.43 45.8044C209.601 45.3035 209.146 44.6624 208.916 44.6227C208.48 44.5161 207.973 44.9166 208.089 45.0592C208.265 45.172 208.431 44.681 208.862 44.7914C209.291 44.8806 209.177 45.7586 209.43 45.8044Z" fill="#C16256"/>
<path d="M208.622 46.0401C208.784 45.9545 208.567 45.3259 209.172 44.9687C209.215 44.9452 209.231 44.8906 209.208 44.8485C208.607 44.7183 208.336 46.2125 208.622 46.0401Z" fill="#C16256"/>
<path d="M209.252 46.3824C209.365 46.6155 208.994 46.7866 208.889 46.5498C208.777 46.3154 209.147 46.1455 209.252 46.3824Z" fill="#F4D4BE"/>
<path d="M222.984 68.3564C219.088 71.5903 213.118 75.0202 207.505 74.5924C207.505 74.5936 206.732 74.1831 206.789 73.0349C206.918 70.3937 205.939 68.9479 204.955 67.5913C203.624 65.7561 202.284 64.087 203.676 59.8537C204.019 58.8183 204.524 57.0488 204.939 55.5273C205.167 54.6853 205.401 53.9289 205.533 53.4069C206.347 56.6631 207.068 57.7184 207.631 57.3179C208.244 56.8826 208.633 54.7126 208.636 51.7478C208.999 51.687 209.361 51.6635 209.72 51.6721C214.093 51.7812 218.106 56.8268 221.242 62.7776C221.532 63.3282 221.815 63.8862 222.089 64.4491C222.267 64.7182 222.448 65.0009 222.616 65.2936C222.861 65.7251 223.073 66.1765 223.181 66.6353C223.317 67.2081 223.295 67.7897 222.984 68.3564Z" fill="#EB5648"/>
<path d="M230.162 115.359C230.434 115.865 230.705 116.353 230.977 116.821C230.977 116.821 238.284 116.905 242.048 110.409C242.048 110.409 241.648 109.937 241.018 109.084C241.018 109.084 237.722 114.566 230.162 115.359Z" fill="#163356"/>
<path d="M203.409 45.5962C203.375 45.6123 203.333 45.611 203.3 45.5875C202.752 45.2006 202.299 45.2837 202.294 45.2849C202.236 45.2961 202.178 45.2576 202.166 45.1994C202.154 45.1411 202.191 45.0828 202.251 45.0716C202.273 45.0667 202.795 44.9662 203.425 45.4089C203.473 45.4436 203.486 45.5118 203.451 45.5602C203.44 45.5763 203.425 45.5887 203.409 45.5962Z" fill="#C16256"/>
<path d="M200.522 46.1988C200.481 46.2174 200.432 46.2112 200.398 46.1777C200.356 46.1343 200.355 46.0661 200.398 46.0239C200.407 46.014 200.629 45.7945 201.24 45.4287C201.294 45.3977 201.359 45.4151 201.39 45.4659C201.421 45.518 201.404 45.585 201.352 45.616C200.769 45.9644 200.553 46.1752 200.552 46.1777C200.543 46.1864 200.532 46.1938 200.522 46.1988Z" fill="#C16256"/>
<path d="M223.141 68.0005C223.141 68.0005 214.871 74.4709 207.252 74.3903C207.252 74.3903 207.188 74.6048 207.374 75.0177C207.374 75.0177 214.929 75.8064 223.314 68.6739C223.314 68.6739 223.57 68.2746 223.141 68.0005Z" fill="#CE3932"/>
<path d="M215.347 118.588C216.441 118.368 217.041 118.113 217.041 118.113C215.723 110.915 215.475 104.784 215.513 99.4446C215.592 88.6714 217.34 81.9407 217.34 81.9407C217.34 81.9407 216.198 81.3393 215.752 80.3002C215.752 80.3002 210.786 100.946 215.347 118.588Z" fill="#163356"/>
<path d="M205.475 116.366C205.606 117.345 205.695 117.883 205.695 117.883C209.21 119.051 213.908 119.308 217.04 118.113C216.958 117.67 216.881 117.229 216.807 116.791C216.807 116.791 210.923 118.087 205.475 116.366Z" fill="#163356"/>
<path d="M223.181 66.6353C222.303 65.5366 220.458 63.6679 217.332 62.4019C212.659 60.5096 211.349 56.4771 211.349 56.4771L221.241 62.7776C221.532 63.3282 221.814 63.8862 222.088 64.4491C222.53 65.1175 223 65.8677 223.181 66.6353Z" fill="#CE3932"/>
<path d="M215.322 52.4522C218.815 54.802 222.282 57.2559 225.31 60.1997C227.548 62.583 229.163 65.4511 230.542 68.3763C230.909 69.6808 232.875 71.9438 231.065 72.8366C229.831 73.2855 229.374 71.8334 228.824 71.0448C228.028 69.7936 227.176 68.5573 226.29 67.3793C225.077 65.7909 223.753 64.2148 222.218 62.9922C221.219 62.2333 220.004 61.3975 218.958 60.6895C216.934 59.3429 214.694 57.9131 212.636 56.6148C209.897 54.8156 212.541 50.6938 215.322 52.4522Z" fill="#F99370"/>
<path d="M229.272 75.2434C229.685 75.3625 229.685 74.1584 229.933 73.8472C230.334 74.4845 230.555 75.2422 230.56 75.2447C230.654 76.1722 230.698 77.1034 230.699 78.0371C230.693 78.336 231.161 78.3695 231.192 78.0669C231.303 77.1629 231.375 76.2515 231.4 75.3401C231.405 75.3401 231.409 75.3389 231.413 75.3377C231.713 76.2677 231.961 77.2163 232.129 78.1785C233.134 79.3354 232.201 75.3649 232.145 75.0388C232.147 75.0376 232.149 75.0363 232.151 75.0351C232.58 75.8622 232.909 76.7426 233.14 77.6465C234.259 78.6956 232.993 74.7784 232.824 74.4697C232.827 74.4672 232.829 74.4647 232.832 74.4622C233.263 75.0624 233.619 75.7183 233.938 76.3867C235.107 77.1989 233.57 74.0443 233.392 73.7691C233.291 73.4231 232.731 72.3058 231.572 70.9927C231.21 70.5835 229.848 71.2742 229.67 71.7801C229.504 72.2538 229.458 72.9383 229.434 73.185C229.313 73.5942 228.794 75.0401 229.272 75.2434Z" fill="#F99370"/>
<path d="M231.324 70.023C231.324 70.023 230.31 71.6028 229.075 71.3808C228.953 71.3585 228.558 71.1886 228.032 70.8687C227.241 70.3876 226.152 69.5667 225.241 68.3937C224.564 67.5244 223.815 66.4419 222.616 65.2937C221.384 64.1157 219.982 62.278 217.395 61.1223C213.742 59.4904 212.162 58.3509 210.857 55.5125C210.337 54.3829 208.763 53.5322 208.636 51.7479C208.636 51.7479 209.023 51.5916 209.711 51.4354C211.405 51.0522 214.92 50.6653 218.938 52.5923C223.791 54.9198 230.688 63.3841 231.47 68.0651C231.598 68.8351 231.561 69.501 231.324 70.023Z" fill="#EB5648"/>
<path d="M209.609 56.0531C209.517 57.2187 209.505 58.0681 209.071 58.2988C208.511 58.5976 208.001 58.0929 207.799 57.8573C207.733 57.7829 207.698 57.7296 207.698 57.7296C207.698 57.7296 207.427 59.4396 206.409 58.7873C205.623 58.2851 205.211 56.6942 204.939 55.5274C204.73 54.6284 204.646 53.8968 204.646 53.8968C205.17 53.4714 205.533 53.407 205.533 53.407C206.347 56.6632 207.068 57.7184 207.631 57.3179C208.244 56.8827 208.633 54.7127 208.636 51.7478C208.636 51.7478 209.023 51.5916 209.711 51.4354C209.715 51.4354 209.717 51.4354 209.717 51.4354C209.717 51.4354 209.717 51.5209 209.72 51.6722C209.728 52.3604 209.739 54.4101 209.609 56.0531Z" fill="#CE3932"/>
<path d="M185.854 69.3397C185.214 69.0086 184.805 68.6738 184.737 68.3713C184.448 67.0904 185.099 65.8863 185.099 65.8863C185.31 65.6358 185.766 65.4337 186.373 65.2663C186.373 65.2663 185.17 67.3694 185.854 69.3397Z" fill="#CE3932"/>
<path d="M231.323 70.023C231.323 70.023 230.309 71.6028 229.074 71.3808C228.953 71.3585 228.557 71.1886 228.031 70.8687C228.175 70.715 230.11 70.3417 231.47 68.0651C231.598 68.8351 231.56 69.501 231.323 70.023Z" fill="#CE3932"/>
</svg>
