<svg width="134" height="134" viewBox="0 0 134 134" fill="none" xmlns="http://www.w3.org/2000/svg">
<circle cx="66.5387" cy="66.5387" r="66.5387" fill="#CDE4FF"/>
<path d="M102.499 78.0001C100.278 70.3524 100.944 61.6512 106.97 51.834C111.634 44.2358 100.555 23.8349 74.7513 34.8976C58.897 41.695 45.7379 39.6093 35.6297 44.9032C25.5216 50.1965 22.217 62.6217 31.3532 69.9064C40.4894 77.1907 36.6892 85.5125 36.0486 94.2069C34.5971 113.903 71.961 115.141 82.9933 108.048C99.7722 97.2608 108.01 96.9717 102.499 78.0001Z" fill="#EFEFED"/>
<path d="M62.3086 56.6855L73.9284 55.6569V62.5378L62.9588 64.1539L62.3086 56.6855Z" fill="#3D4B96"/>
<path d="M42.6408 61.218L47.6189 54.7328L45.9528 36.903C45.9528 36.903 45.6806 34.0692 45.1747 33.8541C43.6207 33.1945 43.6467 35.2906 43.2737 35.664C42.2882 36.6494 40.6548 37.5809 41.1992 39.8136C41.7437 42.0458 42.2347 42.4986 42.986 45.2721C42.986 49.6935 41.8428 56.6106 42.6408 61.218Z" fill="#F8A267"/>
<path d="M45.3712 45.0481C45.3712 45.0481 45.3347 47.229 45.68 48.6564C46.0253 50.0842 46.1514 54.016 45.68 55.6566C47.1419 54.1948 47.6183 53.3504 47.6183 53.3504C47.6183 53.3504 46.5546 46.9536 45.3712 45.0481Z" fill="#B96F3E"/>
<path d="M43.2734 35.6638C43.363 35.574 43.4881 35.5182 43.6182 35.5141C43.7487 35.5123 43.8759 35.5613 43.9829 35.6334C44.0112 35.6498 44.0358 35.6706 44.061 35.6906C44.0866 35.7106 44.1117 35.731 44.134 35.7546C44.1569 35.7772 44.1808 35.799 44.2029 35.8226L44.2662 35.8952C44.2881 35.9193 44.3077 35.9447 44.3264 35.9705L44.3838 36.0481C44.4203 36.1007 44.4535 36.1556 44.4885 36.2096C44.5211 36.2645 44.5516 36.3208 44.5832 36.3766C44.6146 36.4324 44.6411 36.4905 44.6703 36.5476C44.6999 36.6044 44.7254 36.6629 44.7508 36.7214C44.7758 36.7799 44.8039 36.8376 44.8263 36.8974C44.8729 37.0159 44.9213 37.1338 44.9622 37.2545L45.026 37.4351L45.0837 37.617C45.1234 37.7382 45.1579 37.8602 45.1927 37.9827C45.2289 38.1048 45.2608 38.2277 45.2925 38.3511L45.3399 38.5358L45.383 38.7213C45.4109 38.8457 45.442 38.9691 45.4668 39.0934L45.5451 39.4663C45.5699 39.5911 45.592 39.7159 45.6155 39.8406C45.6394 39.9654 45.6611 40.0906 45.6817 40.2158L45.7449 40.5915L45.7509 40.6274L45.7266 40.6482C45.7084 40.6637 45.6917 40.6804 45.6718 40.695C45.6508 40.7081 45.6317 40.7235 45.6071 40.7326C45.5616 40.7562 45.5068 40.763 45.4556 40.7612C45.3515 40.7521 45.2675 40.7013 45.1981 40.6469C45.1285 40.5911 45.0684 40.5285 45.0139 40.4627C44.9593 40.3969 44.9088 40.3293 44.8614 40.2599C44.7661 40.121 44.6821 39.9763 44.6012 39.8311C44.5204 39.685 44.4444 39.5371 44.3708 39.3883C44.2975 39.2395 44.2273 39.0888 44.1583 38.9382C44.0888 38.7876 44.0226 38.6356 43.9574 38.4836L43.7642 38.0254C43.7001 37.8729 43.6393 37.7186 43.5781 37.5648L43.7913 38.0136L44.0063 38.4609L44.2262 38.906C44.3002 39.0535 44.3754 39.2009 44.4534 39.3461C44.5304 39.4922 44.6094 39.6369 44.6928 39.7789C44.7345 39.8497 44.7767 39.92 44.821 39.989C44.8648 40.0584 44.9102 40.1265 44.9572 40.1927C45.004 40.2594 45.0536 40.3238 45.1057 40.3846C45.1578 40.4454 45.2141 40.5017 45.2743 40.5484C45.3343 40.5951 45.4009 40.6292 45.4633 40.6337C45.525 40.6364 45.5829 40.6065 45.6341 40.5557L45.6158 40.6124L45.5508 40.2385C45.5297 40.1138 45.5075 39.9895 45.483 39.8656L45.4121 39.4926L45.3361 39.1215C45.312 38.9972 45.2818 38.8747 45.2547 38.7513L45.2128 38.5662L45.1674 38.3824C45.1378 38.2599 45.108 38.137 45.074 38.0154C45.0413 37.8938 45.0089 37.7717 44.9714 37.651L44.9173 37.47L44.8587 37.2904C44.8212 37.1697 44.7764 37.0522 44.7333 36.9337C44.7127 36.8743 44.6865 36.8171 44.6634 36.7586C44.6395 36.7005 44.6164 36.642 44.5894 36.5853C44.5627 36.5286 44.5386 36.4701 44.5098 36.4147C44.4807 36.3589 44.4528 36.3026 44.4228 36.2477C44.3905 36.1942 44.3599 36.1393 44.3262 36.0867L44.2737 36.0091C44.2567 35.9828 44.2388 35.9574 44.2189 35.9333L44.1611 35.8598C44.1408 35.8362 44.119 35.814 44.098 35.7913C44.0775 35.7677 44.0544 35.7468 44.0309 35.7269C44.0076 35.706 43.9849 35.6847 43.9589 35.6679C43.8599 35.5944 43.7425 35.5427 43.6182 35.5377C43.4948 35.5354 43.3687 35.5794 43.2734 35.6638Z" fill="#B96F3E"/>
<path d="M43.8191 38.1119C43.8191 38.1119 43.7459 38.1609 43.6341 38.2281C43.5786 38.2621 43.5131 38.3007 43.4433 38.3415C43.4084 38.3619 43.3723 38.3832 43.3357 38.405C43.2986 38.4254 43.2617 38.4481 43.2248 38.4699C43.1499 38.5125 43.0769 38.5584 43.0074 38.5992C42.9735 38.621 42.9401 38.6409 42.9083 38.6604C42.8776 38.6809 42.848 38.6995 42.8204 38.7167C42.7672 38.753 42.7208 38.7816 42.6905 38.8043C42.6593 38.8265 42.6406 38.8387 42.6406 38.8387C42.6406 38.8387 42.6538 38.8211 42.6782 38.7911C42.6906 38.7766 42.7051 38.7575 42.7243 38.7389C42.7431 38.7199 42.764 38.6976 42.7884 38.6754C42.8129 38.6532 42.8396 38.6296 42.8688 38.6051C42.8985 38.5819 42.9296 38.557 42.963 38.5329C42.997 38.5098 43.0309 38.4839 43.0676 38.4608C43.1043 38.4381 43.141 38.4141 43.1788 38.3918C43.2169 38.3705 43.2549 38.3487 43.293 38.3283C43.3306 38.3075 43.369 38.2893 43.4058 38.2712C43.4423 38.2526 43.479 38.2371 43.5133 38.2222C43.5475 38.2063 43.5807 38.1936 43.6112 38.1813C43.7333 38.1332 43.8191 38.1119 43.8191 38.1119Z" fill="#B96F3E"/>
<path d="M43.127 38.4755C43.127 38.4755 43.1447 38.4982 43.178 38.5413C43.2111 38.5844 43.2594 38.6479 43.3182 38.7309C43.3768 38.8135 43.4476 38.9147 43.5264 39.0322C43.5656 39.0911 43.6072 39.1538 43.6511 39.22C43.6952 39.2858 43.7376 39.3579 43.7841 39.4314C43.8777 39.5784 43.9719 39.7418 44.0722 39.9146C44.1228 40.0008 44.1704 40.0916 44.2214 40.1832C44.2714 40.2753 44.3245 40.3683 44.3727 40.4663C44.4698 40.661 44.5769 40.8597 44.6699 41.0688C44.718 41.1723 44.7664 41.2771 44.8151 41.3824C44.8606 41.4885 44.9062 41.5956 44.9519 41.7027C44.9958 41.8102 45.0438 41.9159 45.0839 42.0248C45.1249 42.1332 45.1658 42.2408 45.2063 42.3478C45.2915 42.5606 45.3557 42.777 45.4255 42.9835C45.4978 43.189 45.5496 43.3936 45.6042 43.5855C45.6307 43.6817 45.6577 43.7752 45.6816 43.8659C45.7023 43.9576 45.7223 44.0461 45.7415 44.1314C45.7795 44.3015 45.8161 44.4567 45.8417 44.596C45.8651 44.7352 45.8855 44.8568 45.9022 44.9571C45.9194 45.0574 45.9307 45.1363 45.9393 45.1899C45.9477 45.2434 45.9521 45.272 45.9521 45.272C45.9521 45.272 45.9452 45.2438 45.9321 45.1912C45.9192 45.1381 45.8991 45.061 45.8763 44.9621C45.8529 44.8636 45.8247 44.7443 45.7923 44.6068C45.777 44.5379 45.7533 44.4666 45.7324 44.3904C45.7113 44.3142 45.689 44.2343 45.6658 44.1504C45.6427 44.0669 45.6187 43.9803 45.5938 43.89C45.5656 43.8011 45.5365 43.709 45.5067 43.6141C45.4459 43.4249 45.3869 43.2244 45.3118 43.0211C45.2392 42.8174 45.168 42.6051 45.0833 42.3941C45.0423 42.2884 45.001 42.1813 44.9596 42.0743C44.9192 41.9667 44.8705 41.8619 44.8264 41.7553C44.7818 41.6487 44.7372 41.5421 44.6928 41.4363C44.6452 41.3315 44.5978 41.2272 44.5508 41.1237C44.4589 40.9159 44.3594 40.7154 44.266 40.5203C44.2204 40.4219 44.1685 40.3289 44.1226 40.2354C44.075 40.1424 44.0308 40.0507 43.9835 39.9632C43.8888 39.7885 43.803 39.6215 43.717 39.4709C43.6332 39.3189 43.5541 39.181 43.4837 39.0589C43.413 38.9369 43.3491 38.8316 43.2963 38.7454C43.2427 38.6592 43.2007 38.5916 43.172 38.5453C43.1426 38.5 43.127 38.4755 43.127 38.4755Z" fill="#B96F3E"/>
<path d="M69.9743 22.1016C74.24 22.2631 81.6735 22.2831 85.8408 22.9183C90.0076 23.5534 94.0002 22.1923 97.1762 23.2812C100.352 24.3701 96.7025 26.6386 96.3041 28.9072C95.9058 31.1757 95.855 41.149 95.2706 44.9624C94.4036 50.621 99.2383 56.2919 98.4638 58.0328C97.6893 59.7741 81.1631 55.6894 67.5288 57.0437C53.8943 58.398 52.9011 60.7623 46.6367 59.5305C46.6367 56.6649 46.8397 50.7939 45.9199 47.6996C45.0001 44.6054 45.2723 42.2384 45.2723 39.1119C45.2723 35.985 45.2723 32.1738 43.5482 30.4498C41.8241 28.7257 39.5062 27.0016 42.3893 25.9127C45.2723 24.8238 50.5616 21.367 69.9743 22.1016Z" fill="#5863B3"/>
<path d="M80.1885 34.9768C80.1885 34.9768 82.9933 34.4795 85.9805 35.4087C84.3385 33.7672 81.4697 34.1433 80.1885 34.9768Z" fill="#455090"/>
<path d="M80.1885 34.9768C82.0469 34.5362 84.2287 34.5825 85.9805 35.4087C84.0831 34.9659 82.1276 34.9377 80.1885 34.9768Z" fill="#303E69"/>
<path d="M50.7168 29.1865C50.7168 29.1865 54.817 30.1465 57.5301 34.6559C57.5301 32.9068 54.965 29.4138 50.7168 29.1865Z" fill="#455090"/>
<path d="M50.7168 29.1865C53.6026 29.8557 56.1386 32.0884 57.5301 34.6559C55.7674 32.2971 53.4904 30.2658 50.7168 29.1865Z" fill="#303E69"/>
<path d="M59.7307 44.4309C59.7307 44.4309 56.2517 42.4963 51.4424 43.509C53.6202 42.3439 56.9785 41.6787 59.7307 44.4309Z" fill="#455090"/>
<path d="M77.9385 34.231C77.9385 34.231 80.5958 30.9407 86.5589 29.6399C83.9274 29.6399 79.3903 30.7456 77.9385 34.231Z" fill="#455090"/>
<path d="M87.0583 29.6399C84.3478 30.1403 81.837 31.378 79.5 32.7981C81.5684 31.0631 84.3143 29.717 87.0583 29.6399Z" fill="#303E69"/>
<path d="M59.7307 44.4309C57.0915 43.46 54.2289 43.1297 51.4424 43.509C54.1217 42.7159 57.2834 43.087 59.7307 44.4309Z" fill="#303E69"/>
<path d="M55.8438 35.4083C55.8438 35.4083 57.1554 41.4676 59.4852 43.7973C58.5928 45.9865 57.9072 47.9556 59.8926 48.2078C60.3921 48.2713 61.3331 50.7277 63.5862 51.2758C67.0557 52.1197 69.3183 52.3252 70.9517 56.2271C74.4906 55.1382 75.4887 53.3233 75.4887 53.3233C75.4887 53.3233 65.2917 38.5834 55.8438 35.4083Z" fill="#455090"/>
<path d="M46.623 53.658L64.1117 57.4351C64.1117 57.4351 62.5795 52.0986 57.3419 50.7279C50.311 48.8877 47.0653 52.6312 46.623 53.658Z" fill="#455090"/>
<path d="M89.1903 66.0876C86.553 59.2525 73.3901 61.2148 66.3731 62.1993C62.5778 52.8067 59.058 51.834 59.058 51.834C59.058 51.834 53.8776 51.5409 49.7308 51.834C45.584 52.1266 40.6058 61.1935 38.7 65.7237C36.7942 70.2535 41.0238 78.2981 37.481 87.8863C37.2365 88.5483 36.8623 89.5559 36.441 90.7052C36.2788 91.8644 36.1345 93.0322 36.048 94.2069C34.5965 113.903 71.9604 115.141 82.9927 108.048C99.7717 97.2608 108.009 96.9717 102.498 78.0001C101.671 75.1512 101.244 72.1563 101.346 69.0122C95.3557 70.0198 89.1903 66.0876 89.1903 66.0876Z" fill="#6D75C2"/>
<path d="M49.6975 54.5455C49.6975 54.5455 43.4572 62.861 45.6804 71.8394C47.9035 80.8178 48.7373 102.377 68.5557 108.747C60.0628 107.859 49.5391 102.402 46.4946 82.8273C43.8429 65.7775 42.7994 63.8492 47.5632 57.0232C48.1209 56.2242 48.9299 55.5001 49.6975 54.5455Z" fill="#5862B3"/>
<path d="M66.4102 73.604C66.4102 73.604 74.6363 79.6424 88.0111 83.7679C81.8407 83.7679 70.2998 79.6011 66.4102 73.604Z" fill="#5862B3"/>
<path d="M56.251 83.4571C56.251 83.4571 73.2863 100.599 91.3696 97.1513C77.5769 101.87 61.3937 92.0412 56.251 83.4571Z" fill="#5862B3"/>
<path d="M72.1699 66.8512C72.1699 66.8512 91.0005 72.8705 95.3565 80.3575C94.8121 75.1849 81.2449 68.7264 72.1699 66.8512Z" fill="#5862B3"/>
<path d="M39.465 90.6119C39.465 90.6119 40.4632 104.555 57.704 108.747C50.354 108.747 38.9206 101.767 39.465 90.6119Z" fill="#5862B3"/>
<path d="M58.0498 53.5549C58.0498 53.5549 61.919 56.1551 63.0238 61.218C63.0238 57.9786 60.8179 54.9161 58.0498 53.5549Z" fill="#5862B3"/>
<path d="M57.8301 54.5457C57.8301 54.5457 60.9225 60.2161 60.9076 66.0725C61.5731 63.2863 60.8926 58.3269 57.8301 54.5457Z" fill="#5862B3"/>
<path d="M58.461 55.8561C58.461 55.8561 57.2723 57.5883 53.1663 58.6772C53.1663 65.4828 58.0486 82.322 58.0486 82.322C58.0486 82.322 77.1219 62.3068 81.1599 63.0781C78.1655 66.0726 76.0253 69.0557 71.5604 74.2847C69.4852 76.7147 62.3084 84.6291 56.2497 83.4572C52.7742 82.7853 48.3389 69.8914 48.3389 54.4006C52.513 53.0653 58.461 55.8561 58.461 55.8561Z" fill="#5862B3"/>
<path d="M58.0498 54.9726C58.0498 54.9726 58.0743 55.0107 58.1174 55.0842C58.1601 55.1577 58.2236 55.2648 58.2989 55.4041C58.3756 55.5429 58.4668 55.7126 58.5657 55.91C58.665 56.1073 58.7762 56.3301 58.8887 56.5778C58.9463 56.7012 59.003 56.8305 59.0638 56.9644C59.1224 57.0987 59.1818 57.238 59.2412 57.3822C59.3606 57.6699 59.4835 57.9752 59.5992 58.2951C59.7158 58.6145 59.8347 58.9457 59.9422 59.2864C59.9957 59.457 60.052 59.6281 60.1015 59.8023C60.1269 59.889 60.1523 59.9761 60.1777 60.0632L60.2498 60.3259C60.3451 60.6766 60.4313 61.0296 60.5084 61.3789C60.5484 61.5532 60.5815 61.7278 60.616 61.8998C60.6491 62.0717 60.679 62.2423 60.7081 62.4102C60.7348 62.5785 60.7607 62.7441 60.7834 62.9066C60.8056 63.069 60.8233 63.2287 60.8424 63.3834C60.8768 63.6937 60.9032 63.9882 60.9168 64.2604C60.9376 64.5317 60.9376 64.7822 60.9435 65.0027C60.9444 65.2241 60.9404 65.4165 60.9363 65.5753C60.9295 65.7336 60.9209 65.8579 60.9168 65.9428C60.9113 66.0271 60.9081 66.0725 60.9081 66.0725C60.9081 66.0725 60.9041 66.0276 60.8959 65.9428C60.8886 65.8584 60.8759 65.7345 60.8641 65.5771C60.8478 65.4205 60.8278 65.23 60.8052 65.0113C60.7911 64.9024 60.7766 64.7867 60.7612 64.6647C60.7471 64.5426 60.7289 64.4147 60.7094 64.2808C60.6899 64.1474 60.6722 64.0086 60.6464 63.8652C60.6214 63.7223 60.6024 63.5735 60.5742 63.422C60.5461 63.27 60.5193 63.1139 60.4885 62.9551C60.4567 62.7963 60.4245 62.6343 60.3918 62.4692C60.3564 62.3049 60.3201 62.138 60.2839 61.9687C60.2643 61.8844 60.2448 61.7995 60.2249 61.7142C60.2054 61.6294 60.1872 61.5432 60.1654 61.4579C60.0815 61.1149 59.9957 60.7664 59.8996 60.4207L59.8297 60.1612C59.8052 60.075 59.7807 59.9888 59.7562 59.903C59.7076 59.7306 59.6568 59.56 59.6065 59.3908C59.5552 59.2216 59.5044 59.0537 59.454 58.8881C59.4014 58.7229 59.351 58.5591 59.298 58.3994C59.2449 58.2397 59.1927 58.0823 59.1414 57.9285C59.0911 57.7742 59.0393 57.6245 58.989 57.4784C58.886 57.1867 58.7893 56.9108 58.6968 56.6572C58.6024 56.4036 58.5162 56.1718 58.4395 55.9658C58.3597 55.7612 58.2925 55.5815 58.234 55.4345C58.1759 55.2875 58.1301 55.1722 58.0988 55.0933C58.0666 55.0148 58.0498 54.9726 58.0498 54.9726Z" fill="#414D8A"/>
<path d="M48.8102 55.6567C48.8102 55.6567 48.6198 55.8291 48.2966 56.1843C47.9752 56.5405 47.521 57.0808 47.0154 57.8195C46.9533 57.9125 46.8863 58.0059 46.8236 58.1058C46.7601 58.2047 46.695 58.3063 46.6283 58.4102C46.5645 58.5159 46.4993 58.6244 46.4325 58.7351C46.3655 58.8453 46.3031 58.9619 46.2361 59.0785C45.9749 59.5499 45.7129 60.0708 45.4696 60.6429C45.2256 61.215 45.0063 61.8402 44.8212 62.5117C44.637 63.1832 44.4879 63.9014 44.3961 64.6595C44.3013 65.4168 44.2742 66.2139 44.3121 67.0347C44.3141 67.0859 44.3161 67.1377 44.3181 67.1889C44.3201 67.2407 44.3213 67.2924 44.3269 67.3437C44.3358 67.4471 44.3448 67.5505 44.3538 67.6549C44.3627 67.7588 44.3716 67.8631 44.3806 67.9684C44.3906 68.0728 44.4077 68.1776 44.421 68.2828C44.4352 68.3876 44.4494 68.4933 44.4637 68.5991C44.4709 68.6521 44.4781 68.7052 44.4853 68.7583C44.4938 68.8118 44.5022 68.8654 44.5108 68.9189C44.5447 69.1335 44.579 69.3495 44.6134 69.5668C44.8878 71.3068 45.177 73.142 45.4763 75.0403C45.7723 76.9391 46.0781 78.9013 46.3888 80.8949C46.4657 81.3935 46.5429 81.894 46.6203 82.3962C46.659 82.6471 46.6978 82.8985 46.7366 83.1503L46.7948 83.5282C46.8144 83.6553 46.8315 83.7841 46.8492 83.9098C46.9885 84.917 47.1671 85.922 47.3848 86.9188C47.8166 88.9133 48.3992 90.8755 49.1289 92.7462C49.2213 92.9794 49.3126 93.2126 49.4101 93.4426C49.5044 93.6744 49.605 93.9022 49.7045 94.1304C49.8034 94.3586 49.9086 94.5832 50.0108 94.8083C50.0641 94.9199 50.1173 95.0315 50.1705 95.1426C50.2233 95.2542 50.2765 95.3654 50.3324 95.4747C50.7699 96.3554 51.2425 97.2056 51.7484 98.0159C52.7628 99.6352 53.9111 101.095 55.142 102.341C55.7566 102.964 56.3918 103.533 57.0333 104.051C57.6767 104.566 58.3282 105.026 58.9738 105.436C59.0551 105.486 59.1358 105.537 59.2161 105.587C59.2964 105.636 59.3749 105.689 59.457 105.734C59.619 105.827 59.7796 105.92 59.938 106.012C60.0169 106.058 60.0977 106.1 60.1775 106.142C60.2574 106.185 60.3372 106.227 60.4162 106.269C60.4951 106.311 60.5736 106.353 60.6516 106.394C60.7297 106.435 60.8095 106.472 60.8876 106.511C61.0446 106.587 61.1993 106.663 61.3517 106.737C61.5069 106.806 61.6602 106.875 61.8113 106.942C61.8866 106.975 61.9615 107.009 62.0364 107.042C62.1108 107.075 62.1865 107.103 62.2609 107.134C62.4098 107.193 62.5563 107.252 62.701 107.31C62.7727 107.34 62.8453 107.367 62.9175 107.392C62.9896 107.418 63.0608 107.444 63.1321 107.469C63.2736 107.521 63.4129 107.571 63.5499 107.62C63.8271 107.708 64.0944 107.794 64.3512 107.876C64.6107 107.949 64.8593 108.02 65.0975 108.087C65.3375 108.146 65.5666 108.203 65.784 108.256C65.8384 108.269 65.8919 108.282 65.945 108.296C65.9981 108.306 66.0507 108.317 66.1025 108.328C66.2064 108.35 66.3071 108.371 66.4046 108.391C66.6002 108.431 66.7821 108.473 66.9541 108.5C67.1256 108.53 67.2844 108.558 67.43 108.583C67.5026 108.596 67.572 108.608 67.6378 108.619C67.704 108.63 67.7671 108.638 67.8265 108.646C68.3025 108.712 68.5561 108.747 68.5561 108.747C68.5561 108.747 68.3016 108.719 67.8238 108.666C67.7639 108.659 67.7009 108.653 67.6342 108.644C67.5679 108.634 67.4985 108.624 67.425 108.613C67.2789 108.592 67.1192 108.568 66.9468 108.543C66.7739 108.521 66.5902 108.483 66.3937 108.448C66.2953 108.43 66.1937 108.411 66.0893 108.392C66.0371 108.382 65.984 108.372 65.9305 108.362C65.877 108.35 65.823 108.339 65.7681 108.327C65.5489 108.278 65.318 108.227 65.0757 108.173C64.8357 108.11 64.5839 108.045 64.3221 107.977C64.0617 107.902 63.7917 107.82 63.5114 107.736C63.373 107.689 63.2319 107.641 63.0885 107.592C63.0168 107.568 62.9442 107.543 62.8716 107.519C62.7986 107.494 62.7251 107.469 62.652 107.44C61.4774 107.006 60.1793 106.425 58.864 105.612C58.2057 105.208 57.5406 104.753 56.8823 104.241C56.2267 103.727 55.5793 103.156 54.9502 102.532C53.6916 101.284 52.5118 99.8199 51.478 98.1865C50.4453 96.5527 49.5413 94.7624 48.8025 92.8741C48.0619 90.9862 47.4694 89.0072 47.0303 86.9959C46.8127 85.9896 46.6344 84.9742 46.4962 83.9588C46.4784 83.8313 46.4623 83.707 46.4434 83.5827L46.3859 83.2047C46.3476 82.9529 46.3094 82.7016 46.2712 82.4502C46.1948 81.948 46.1187 81.4475 46.0428 80.9485C45.7426 78.9531 45.4472 76.9894 45.1613 75.0893C44.8788 73.1883 44.6056 71.3508 44.3466 69.6081C44.3144 69.3903 44.2824 69.1739 44.2507 68.9593C44.2427 68.9053 44.2348 68.8518 44.2269 68.7982C44.2201 68.7442 44.2133 68.6903 44.2065 68.6363C44.1931 68.5283 44.1797 68.4212 44.1664 68.3141C44.154 68.2066 44.1378 68.1004 44.1287 67.9938C44.1206 67.8872 44.1126 67.781 44.1046 67.6749C44.0968 67.5692 44.089 67.4634 44.0812 67.3586C44.0763 67.306 44.0757 67.2534 44.0744 67.2012C44.0731 67.1486 44.0718 67.0964 44.0705 67.0442C44.0439 66.2094 44.0832 65.4 44.1903 64.6332C44.3987 63.0974 44.8329 61.7331 45.3428 60.588C45.5992 60.0154 45.8711 59.4946 46.1454 59.0268C46.2154 58.9106 46.2807 58.7949 46.3505 58.6851C46.4201 58.5758 46.4882 58.4683 46.5547 58.3635C46.6239 58.2605 46.6916 58.1598 46.7577 58.0613C46.8228 57.9624 46.8922 57.8703 46.9566 57.7782C47.4794 57.0464 47.9519 56.5196 48.2823 56.1707C48.6154 55.8241 48.8102 55.6567 48.8102 55.6567Z" fill="#414D8A"/>
<path d="M68.8887 76.4011C68.8887 76.4011 68.9517 76.4524 69.0729 76.545C69.1945 76.6371 69.3741 76.77 69.6055 76.9351C69.8369 77.0998 70.1205 77.2963 70.4503 77.5145C70.7793 77.7341 71.1563 77.9723 71.5705 78.2268C71.6749 78.2895 71.7806 78.3539 71.889 78.4192C71.9984 78.4832 72.1095 78.5481 72.2225 78.6139C72.448 78.7477 72.6848 78.8788 72.9266 79.0167C73.4148 79.284 73.933 79.5603 74.4765 79.8302C74.7465 79.9686 75.0264 80.0988 75.3081 80.2331C75.4483 80.3016 75.5926 80.3642 75.7364 80.4291C75.8798 80.4949 76.0245 80.5602 76.1693 80.6265C76.7532 80.8806 77.3498 81.1324 77.9555 81.3592C78.1066 81.4173 78.2577 81.4754 78.4083 81.533C78.5598 81.5892 78.7123 81.6419 78.8638 81.6968C79.0158 81.7503 79.1669 81.8057 79.3184 81.8574C79.4709 81.9078 79.6229 81.9572 79.774 82.0071C80.0757 82.1087 80.3788 82.1995 80.6768 82.2911C80.7517 82.3138 80.8261 82.337 80.9001 82.3596C80.974 82.3828 81.0484 82.405 81.1228 82.425C81.2712 82.4663 81.4186 82.5071 81.5647 82.5475C81.7113 82.5874 81.8556 82.6301 81.9998 82.6663C82.1446 82.7022 82.2879 82.738 82.4295 82.7743C82.5711 82.8102 82.7108 82.846 82.8492 82.8814C82.988 82.9141 83.1259 82.944 83.2621 82.9749C83.8042 83.1019 84.3215 83.1995 84.7983 83.2961C85.0374 83.3396 85.2674 83.3755 85.4861 83.4145C85.5955 83.4336 85.7016 83.4522 85.8051 83.4703C85.9085 83.4898 86.0101 83.5007 86.1077 83.5161C86.3037 83.5443 86.487 83.571 86.6562 83.5955C86.7411 83.6082 86.8223 83.6205 86.8999 83.6318C86.9779 83.6432 87.0523 83.6504 87.1226 83.6591C87.4053 83.6913 87.6267 83.7208 87.7782 83.7389C87.9298 83.758 88.0105 83.7679 88.0105 83.7679C88.0105 83.7679 87.9293 83.7648 87.7769 83.7589C87.6244 83.7521 87.4008 83.7453 87.1163 83.7312C87.045 83.7271 86.9697 83.7253 86.8912 83.7194C86.8128 83.713 86.7306 83.7067 86.6449 83.6999C86.4738 83.6858 86.2887 83.6704 86.0909 83.6536C85.992 83.6445 85.8895 83.6391 85.7847 83.6255C85.6798 83.6132 85.5719 83.601 85.4612 83.5878C85.2402 83.5615 85.007 83.5343 84.7647 83.5016C84.5229 83.4644 84.2711 83.4258 84.0102 83.3859C83.9449 83.3755 83.8791 83.3655 83.8128 83.3551C83.7471 83.3424 83.6804 83.3301 83.6137 83.3174C83.4798 83.292 83.3437 83.2661 83.2062 83.2398C83.0683 83.2131 82.9281 83.1881 82.7875 83.1591C82.6468 83.1282 82.5044 83.0969 82.3605 83.0652C82.2167 83.0338 82.0711 83.0016 81.9245 82.9676C81.778 82.934 81.6314 82.8937 81.4831 82.8564C81.3347 82.8183 81.185 82.7802 81.0344 82.7417C80.959 82.7231 80.8837 82.7022 80.8089 82.68C80.7336 82.6586 80.6578 82.6373 80.582 82.6155C80.4305 82.5724 80.278 82.5289 80.1247 82.4849C79.9713 82.4413 79.8198 82.3887 79.6664 82.3406C79.5135 82.2916 79.3597 82.2421 79.2055 82.1927C79.0517 82.1414 78.8992 82.0865 78.7454 82.033C78.5916 81.979 78.4374 81.9268 78.284 81.871C78.1311 81.8134 77.9782 81.7558 77.8253 81.6977C77.2151 81.4645 76.6144 81.2068 76.0264 80.9459C75.4411 80.6787 74.8726 80.4001 74.3309 80.1143C73.7864 79.8339 73.2751 79.5353 72.7919 79.2504C72.3114 78.9605 71.8632 78.6769 71.4585 78.4011C71.3564 78.3339 71.2579 78.2654 71.1617 78.1987C71.066 78.1316 70.9712 78.0676 70.8809 78.0023C70.7008 77.8711 70.5288 77.7482 70.3705 77.6275C70.0515 77.3907 69.782 77.1729 69.5615 76.9919C69.3406 76.8117 69.1745 76.6611 69.0606 76.5599C68.9472 76.4574 68.8887 76.4011 68.8887 76.4011Z" fill="#414D8A"/>
<path d="M63.2656 90.9176C63.2656 90.9176 63.36 90.987 63.5401 91.1114C63.7198 91.2361 63.9866 91.4149 64.3287 91.6377C64.6712 91.8604 65.0913 92.1236 65.5782 92.4171C66.065 92.7107 66.6208 93.0305 67.2333 93.3672C67.8462 93.7034 68.5191 94.0514 69.2373 94.4039C69.956 94.7564 70.7254 95.1031 71.5285 95.4442C72.3316 95.7854 73.1755 96.1035 74.0393 96.4056C74.9032 96.7078 75.7929 96.9787 76.6921 97.2137C77.59 97.4514 78.4974 97.6556 79.3985 97.8094C79.511 97.828 79.6235 97.8471 79.736 97.8657L79.9044 97.8933L80.0727 97.9178C80.2964 97.9505 80.5191 97.9863 80.7414 98.0122C80.8526 98.0263 80.9633 98.0403 81.074 98.0544C81.1843 98.068 81.295 98.078 81.4048 98.0898C81.5146 98.1011 81.6244 98.1125 81.7332 98.1238C81.8426 98.1329 81.9515 98.1415 82.0599 98.1506C82.9279 98.2186 83.7699 98.2472 84.568 98.235C85.3665 98.2218 86.1206 98.1737 86.8147 98.1016C86.9876 98.0807 87.1573 98.0603 87.3229 98.0403C87.3642 98.0353 87.4055 98.0304 87.4463 98.0249C87.4871 98.019 87.528 98.0127 87.5684 98.0068C87.6487 97.995 87.7285 97.9832 87.807 97.9714C88.1228 97.9296 88.4186 97.8702 88.6985 97.8226C88.8378 97.7962 88.9721 97.7663 89.1019 97.74C89.1668 97.7264 89.2307 97.7132 89.2933 97.7001C89.3559 97.6878 89.4172 97.6751 89.4771 97.6601C89.7157 97.6025 89.9367 97.554 90.1341 97.5022C90.3314 97.4492 90.5075 97.4024 90.6604 97.3611C90.8133 97.3189 90.9421 97.2781 91.0474 97.2477C91.257 97.1851 91.369 97.1515 91.369 97.1515C91.369 97.1515 91.2592 97.1915 91.0533 97.2663C90.9503 97.3031 90.8237 97.3516 90.6735 97.4029C90.522 97.4519 90.3482 97.5081 90.1536 97.5717C89.9585 97.6334 89.7393 97.6923 89.5025 97.7622C89.3841 97.7976 89.2589 97.8257 89.1296 97.8589C89.0002 97.8906 88.8664 97.9265 88.7271 97.9582C88.1704 98.0853 87.5375 98.2105 86.8402 98.3085C86.6655 98.3303 86.4872 98.3525 86.3052 98.3752C86.2599 98.3811 86.2145 98.3865 86.1682 98.392C86.1224 98.3965 86.0761 98.401 86.0298 98.4056C85.9368 98.4142 85.8434 98.4233 85.749 98.4323C85.5598 98.4528 85.367 98.4636 85.1714 98.4759C85.0734 98.4822 84.975 98.4886 84.8756 98.4945C84.7763 98.4986 84.676 98.5022 84.5753 98.5058C83.7686 98.5367 82.9156 98.5294 82.0368 98.4691C81.927 98.4618 81.8163 98.4546 81.7056 98.4469C81.5949 98.4369 81.4842 98.4269 81.3726 98.4169C81.2614 98.4065 81.1493 98.3979 81.0373 98.3856C80.9256 98.3729 80.8131 98.3602 80.7006 98.3475C80.2496 98.298 79.7959 98.2309 79.3395 98.1551C78.4271 98.0031 77.5083 97.8017 76.5996 97.5644C75.6917 97.323 74.7943 97.0449 73.9236 96.7364C73.4872 96.5844 73.0589 96.4211 72.6383 96.2536C72.4277 96.1706 72.2204 96.0835 72.0135 95.9991C71.8084 95.9111 71.6034 95.8267 71.4028 95.7369C70.597 95.3853 69.8312 95.0159 69.1162 94.6453C68.9374 94.5532 68.7614 94.4611 68.5889 94.3685C68.4161 94.2773 68.2473 94.1838 68.0817 94.0926C67.751 93.9075 67.4329 93.7265 67.1307 93.5478C66.8281 93.3699 66.5405 93.1948 66.2692 93.0255C65.9983 92.8545 65.7424 92.6916 65.5047 92.5342C65.0274 92.222 64.6204 91.9362 64.2883 91.6971C63.9557 91.4584 63.7016 91.2615 63.5283 91.1272C63.3555 90.992 63.2656 90.9176 63.2656 90.9176Z" fill="#414D8A"/>
<path d="M58.7119 39.9779C58.7119 39.9779 52.4267 35.0157 57.8245 30.9405C57.8245 28.8834 58.7319 27.6434 59.7877 26.7782C63.9985 23.3269 65.8705 24.9407 69.9738 24.9407C76.1728 24.9407 78.4204 26.3563 81.0723 33.7163C83.5151 40.4946 83.5174 42.2278 88.0108 43.4646C100.807 46.9867 93.9567 50.3713 99.7164 54.5454C103.902 57.5785 101.103 65.3958 97.085 63.7112C90.7653 61.0611 90.1755 66.5314 86.559 60.5225C75.4886 58.3139 66.2502 49.9857 58.7119 39.9779Z" fill="#293337"/>
<path d="M61.9863 32.7985C61.9863 32.7985 64.5098 38.1531 75.1265 38.615C71.5182 38.9094 64.0906 37.953 61.9863 32.7985Z" fill="#1E2628"/>
<path d="M72.7705 40.7302C72.7705 40.7302 72.7841 40.8581 72.824 41.0963C72.8644 41.334 72.9325 41.682 73.0441 42.1176C73.1562 42.5531 73.3136 43.0776 73.5495 43.657C73.785 44.2355 74.1003 44.8707 74.5418 45.4972C74.7623 45.8098 75.0159 46.1188 75.3076 46.4083C75.4542 46.5526 75.6098 46.6923 75.7745 46.8252C75.9401 46.9568 76.1157 47.0807 76.2999 47.1968C76.4832 47.3139 76.6783 47.4169 76.8802 47.5112C76.9809 47.5593 77.0852 47.6006 77.1896 47.6433C77.2953 47.6818 77.4015 47.7222 77.5108 47.7549C77.6188 47.7912 77.7304 47.8184 77.8416 47.8488C77.9541 47.8737 78.0666 47.9014 78.1814 47.9205C78.2953 47.9436 78.4119 47.9568 78.528 47.974C78.6455 47.9854 78.7617 47.999 78.8828 48.008C79.8469 48.0902 80.8424 48.195 81.8491 48.3479C82.8559 48.5012 83.8731 48.7086 84.869 49.0053C85.3667 49.1532 85.8581 49.3274 86.3354 49.532C86.8113 49.7398 87.2736 49.9789 87.706 50.2616C88.1375 50.5447 88.539 50.8709 88.8861 51.2443C89.0594 51.4308 89.2196 51.6282 89.3621 51.836C89.5041 52.0437 89.6284 52.262 89.735 52.4861C89.8412 52.7098 89.9292 52.9403 90 53.173C90.0707 53.4058 90.1206 53.6417 90.1579 53.8763C90.1955 54.1113 90.2146 54.3454 90.2223 54.5768C90.2236 54.6349 90.2264 54.6925 90.2268 54.7496C90.2259 54.8073 90.2255 54.8644 90.225 54.9216C90.2236 55.0355 90.2196 55.1457 90.2168 55.2564C90.191 56.1398 90.1833 56.9751 90.2205 57.7432C90.2549 58.5109 90.3425 59.2123 90.5068 59.8116C90.5893 60.1106 90.6937 60.3833 90.818 60.6206C90.9423 60.8583 91.087 61.0598 91.2399 61.2218C91.3157 61.303 91.3937 61.3747 91.4704 61.4377C91.5476 61.4999 91.6242 61.5534 91.6968 61.6011C91.8434 61.6945 91.9777 61.7589 92.0884 61.8052C92.1995 61.852 92.2875 61.8801 92.347 61.8991C92.4069 61.9168 92.4377 61.9259 92.4377 61.9259C92.4377 61.9259 92.4064 61.9182 92.3456 61.9032C92.2853 61.8873 92.1959 61.8637 92.082 61.822C91.9681 61.7807 91.8298 61.7226 91.6759 61.6351C91.5235 61.5462 91.357 61.4264 91.195 61.2653C91.033 61.1047 90.8761 60.9028 90.74 60.6637C90.6034 60.4241 90.4863 60.1487 90.3911 59.8461C90.1982 59.24 90.0975 58.5277 90.0403 57.7541C89.9854 56.9787 89.9795 56.1384 89.9882 55.2519C89.9886 55.1412 89.9923 55.0287 89.9923 54.918C89.9923 54.8631 89.9923 54.8077 89.9923 54.7524C89.9918 54.697 89.9886 54.6417 89.9868 54.5859C89.9773 54.3631 89.9569 54.1385 89.9188 53.9144C89.8815 53.6907 89.8316 53.4661 89.7627 53.2456C89.6933 53.0251 89.608 52.8078 89.505 52.5964C89.3003 52.1735 89.0254 51.777 88.6937 51.4235C88.3621 51.0692 87.9769 50.7575 87.5599 50.4857C86.7219 49.944 85.7683 49.5584 84.7919 49.2616C83.8137 48.9649 82.8065 48.7621 81.8097 48.6001C80.8124 48.4391 79.8224 48.3265 78.8624 48.2349C78.7431 48.224 78.6206 48.2086 78.4999 48.195C78.3792 48.1755 78.259 48.16 78.141 48.1342C78.0221 48.1128 77.9051 48.0829 77.7889 48.0548C77.6737 48.0221 77.5589 47.9922 77.4468 47.9531C77.3339 47.9178 77.2241 47.8742 77.1147 47.8325C77.0068 47.7871 76.8992 47.7422 76.7953 47.6909C76.5875 47.5902 76.3865 47.4804 76.1978 47.357C76.0091 47.2345 75.8298 47.1024 75.6615 46.9632C75.4941 46.823 75.3371 46.6764 75.1892 46.5258C74.8957 46.2223 74.642 45.9019 74.4238 45.5789C73.986 44.9319 73.6884 44.279 73.4647 43.6901C73.2424 43.0999 73.0985 42.569 72.9974 42.1289C72.8971 41.6888 72.844 41.3377 72.8113 41.0981C72.7796 40.8586 72.7705 40.7302 72.7705 40.7302Z" fill="#1E2628"/>
<path d="M72.1708 43.5087C72.1708 43.5087 72.1708 51.4177 78.76 50.7276C76.5146 51.5135 71.6627 50.4758 72.1708 43.5087Z" fill="#1E2628"/>
<path d="M57.8254 30.9409C57.8254 30.9409 57.3803 32.8964 58.6162 34.6559C58.0068 34.5098 57.0386 33.028 57.8254 30.9409Z" fill="#1E2628"/>
<path d="M68.8887 33.0531C68.8887 33.0531 68.9989 33.1797 69.2235 33.4007C69.336 33.5109 69.4771 33.6443 69.6473 33.7958C69.8183 33.9465 70.0184 34.1162 70.2489 34.2976C70.7094 34.6606 71.296 35.0698 72.0161 35.4519C72.3763 35.6429 72.771 35.8235 73.1993 35.9804C73.6276 36.1365 74.089 36.2713 74.5799 36.3606C75.0704 36.4505 75.5903 36.4954 76.1262 36.4772C76.2605 36.4781 76.3952 36.4614 76.5309 36.4523C76.6688 36.4405 76.8076 36.4292 76.9474 36.4174L77.0522 36.4083C77.0876 36.406 77.1239 36.4051 77.1597 36.4037C77.2319 36.401 77.304 36.3983 77.3766 36.3956C77.4492 36.391 77.5218 36.3947 77.5944 36.3951C77.6674 36.3969 77.7405 36.3969 77.814 36.3997C78.1075 36.4178 78.4056 36.4527 78.7023 36.5294C78.9972 36.6102 79.2908 36.7318 79.5512 36.9178C79.8121 37.1024 80.0326 37.3524 80.1877 37.6383C80.3452 37.9237 80.4391 38.2394 80.4967 38.5579C80.5543 38.8773 80.5757 39.2026 80.5757 39.527C80.5757 39.8524 80.5566 40.1781 80.5271 40.5034C80.4681 41.1549 80.3661 41.806 80.2608 42.4593L80.2513 42.5206L80.2463 42.5515L80.2426 42.5782L80.2268 42.7012L80.2104 42.8246C80.2041 42.8663 80.2045 42.904 80.2014 42.9439C80.1882 43.1009 80.1882 43.262 80.1968 43.4207C80.2168 43.7383 80.2944 44.0496 80.4468 44.3209C80.4804 44.3912 80.5294 44.452 80.5729 44.5164C80.5934 44.5496 80.6224 44.5768 80.6469 44.6067C80.6732 44.6353 80.6973 44.6662 80.7249 44.6938C80.8379 44.8014 80.9577 44.9044 81.0942 44.986C81.3633 45.1557 81.6677 45.275 81.9821 45.3631C82.297 45.452 82.6228 45.5105 82.9508 45.5541C83.2788 45.5967 83.61 45.6239 83.9417 45.6435C84.6055 45.6797 85.2706 45.6843 85.9312 45.6861C86.0968 45.6865 86.2615 45.6866 86.4262 45.687H86.5496L86.6748 45.6893C86.756 45.6893 86.8431 45.6961 86.9271 45.6993C87.2606 45.7228 87.5895 45.7696 87.9121 45.8331C88.5568 45.9629 89.177 46.1566 89.7686 46.3903C90.9524 46.858 92.0195 47.4909 92.9328 48.2132C93.3901 48.5739 93.808 48.9591 94.1818 49.3598C94.5548 49.7608 94.8855 50.1764 95.1682 50.5984C95.738 51.4409 96.1137 52.3066 96.3328 53.1001C96.5538 53.8945 96.63 54.6137 96.64 55.2026C96.6518 55.7924 96.6019 56.2543 96.5602 56.5664C96.5416 56.7229 96.5189 56.8418 96.5062 56.9221C96.493 57.0024 96.4857 57.0437 96.4857 57.0437C96.4857 57.0437 96.4916 57.002 96.5025 56.9212C96.5125 56.8409 96.532 56.7216 96.5456 56.5646C96.5788 56.252 96.6105 55.7901 96.5869 55.2044C96.5638 54.6191 96.4717 53.9081 96.2353 53.1287C96.1173 52.7389 95.9635 52.3333 95.7635 51.9236C95.5643 51.5135 95.327 51.0961 95.0393 50.6868C94.4686 49.8665 93.7141 49.073 92.808 48.3734C91.9015 47.6738 90.8439 47.0658 89.6811 46.6135C89.0999 46.3884 88.491 46.2033 87.8635 46.0822C87.5496 46.0227 87.2311 45.9796 86.9107 45.9592C86.8304 45.9565 86.7542 45.9502 86.6707 45.9502L86.5496 45.9483L86.4262 45.9488C86.2615 45.9488 86.0963 45.9488 85.9312 45.9492C85.2692 45.9488 84.6 45.9456 83.9272 45.9107C83.5905 45.8921 83.253 45.8649 82.9154 45.8218C82.5783 45.7777 82.2408 45.7183 81.9082 45.6253C81.577 45.5309 81.249 45.4034 80.95 45.2138C80.7984 45.1226 80.6619 45.006 80.5335 44.8821C80.5017 44.8504 80.4736 44.815 80.4436 44.7814C80.4151 44.7469 80.3828 44.7156 80.3588 44.6775C80.3084 44.6036 80.2526 44.5323 80.2132 44.4516C80.038 44.1376 79.9536 43.7842 79.9323 43.4384C79.9232 43.2651 79.9237 43.0927 79.9387 42.919C79.9423 42.8305 79.955 42.7493 79.9659 42.6671L79.9822 42.5442L79.9868 42.5093L79.9917 42.4789L80.0017 42.4176C80.0553 42.0914 80.107 41.767 80.1542 41.4439C80.2018 41.1209 80.2449 40.7997 80.2758 40.4798C80.3066 40.16 80.3279 39.8419 80.3298 39.527C80.332 39.2126 80.3134 38.9009 80.2617 38.5997C80.2091 38.2993 80.1238 38.0071 79.9836 37.749C79.8443 37.4904 79.6524 37.2676 79.4201 37.0988C79.1887 36.9291 78.9215 36.8134 78.6465 36.7345C78.3697 36.6596 78.0853 36.6229 77.8026 36.602C77.7318 36.5984 77.6611 36.5975 77.5907 36.5952C77.5204 36.5938 77.4501 36.5893 77.3802 36.5929C77.3103 36.5948 77.2409 36.5966 77.1715 36.5984C77.137 36.5993 77.1025 36.5993 77.0676 36.6016L76.9628 36.6093C76.8226 36.6192 76.6842 36.6292 76.5463 36.6388C76.407 36.6469 76.2686 36.6614 76.1307 36.6587C75.5808 36.6683 75.0495 36.6134 74.5505 36.5135C73.5505 36.3135 72.6853 35.941 71.968 35.5408C71.2498 35.1384 70.6699 34.7137 70.2158 34.3389C69.7602 33.9646 69.4318 33.6375 69.2131 33.4111C68.9948 33.1833 68.8887 33.0531 68.8887 33.0531Z" fill="#1E2628"/>
<path d="M95.1534 55.1088C95.1534 55.1088 95.1416 55.1487 95.1221 55.2245C95.1017 55.2998 95.0744 55.4114 95.044 55.5534C95.0132 55.6959 94.9805 55.8697 94.9519 56.0697C94.9224 56.2694 94.8975 56.4958 94.8884 56.743C94.8789 56.9899 94.8839 57.2575 94.9247 57.5343C94.9456 57.6722 94.9737 57.8124 95.0145 57.9513C95.0563 58.0901 95.1103 58.2271 95.1797 58.3578C95.2505 58.488 95.3367 58.6105 95.4392 58.7203C95.5418 58.8296 95.6602 58.9258 95.7917 59.0048C95.9233 59.0833 96.0671 59.144 96.2173 59.1894C96.255 59.2012 96.2926 59.2121 96.3312 59.2207C96.3693 59.2307 96.4079 59.2393 96.4469 59.2461C96.4859 59.2543 96.5249 59.2611 96.5644 59.267L96.686 59.2851C97.0236 59.3323 97.3598 59.4095 97.6783 59.527C97.9958 59.6449 98.2971 59.8019 98.5562 60.0043C98.8139 60.2071 99.0294 60.4543 99.1664 60.7284C99.3025 61.0024 99.3565 61.2955 99.3452 61.5578C99.3329 61.8209 99.2698 62.0541 99.1882 62.2456C99.1074 62.4379 99.0158 62.5936 98.9323 62.7152C98.8497 62.8377 98.7767 62.927 98.7263 62.9874C98.6755 63.0473 98.6474 63.0781 98.6474 63.0781C98.6474 63.0781 98.6696 63.0427 98.7113 62.9765C98.7522 62.9098 98.8112 62.8118 98.8774 62.6829C98.9427 62.5541 99.0162 62.3944 99.0748 62.2047C99.1315 62.0151 99.1764 61.795 99.1669 61.5573C99.1591 61.3205 99.0993 61.0669 98.9654 60.8341C98.8357 60.5995 98.6392 60.3854 98.3992 60.2107C98.1605 60.0333 97.8811 59.8913 97.5839 59.782C97.2863 59.6713 96.97 59.5923 96.6483 59.5442C96.3112 59.4993 95.9614 59.3977 95.6652 59.2107C95.5173 59.1168 95.383 59.0029 95.2682 58.875C95.1556 58.7457 95.0636 58.6023 94.9905 58.4549C94.8471 58.1577 94.7768 57.8474 94.75 57.5552C94.7228 57.2621 94.7319 56.9858 94.7564 56.734C94.8086 56.2294 94.9166 55.8225 95.0014 55.5425C95.0876 55.2626 95.1534 55.1088 95.1534 55.1088Z" fill="#1E2628"/>
<path d="M58.6165 33.0535C58.6165 33.0535 58.6119 33.009 58.6088 32.9246C58.6074 32.8407 58.6047 32.7173 58.6156 32.5598C58.6274 32.4033 58.6446 32.2123 58.685 31.9959C58.7254 31.7799 58.7775 31.5363 58.8619 31.2781C58.9459 31.0204 59.0457 30.7418 59.185 30.4623C59.2017 30.4274 59.2176 30.3916 59.2353 30.3562C59.2539 30.3213 59.2725 30.2859 59.2911 30.2509C59.3297 30.1806 59.3655 30.1076 59.4068 30.0368C59.4908 29.8961 59.5761 29.7514 59.675 29.6126C59.8642 29.329 60.0865 29.0545 60.3283 28.7904C60.3905 28.7265 60.4531 28.662 60.5157 28.5972C60.5474 28.5654 60.5778 28.5318 60.611 28.501L60.7103 28.4089C60.777 28.3476 60.8437 28.2864 60.9104 28.2247C60.9785 28.1648 61.0497 28.1085 61.1196 28.0505C61.1903 27.9937 61.2588 27.9343 61.3323 27.8808C61.4054 27.8277 61.4789 27.7746 61.5519 27.7215C61.6958 27.6122 61.8496 27.5187 61.9988 27.4212C62.1463 27.3204 62.3033 27.2388 62.4548 27.1521C62.6054 27.0636 62.7615 26.9901 62.9131 26.9144C62.9888 26.8767 63.0641 26.8395 63.1385 26.8028C63.2143 26.7692 63.2901 26.737 63.3649 26.7052C63.4398 26.6735 63.5142 26.6417 63.5873 26.6109C63.624 26.5954 63.6603 26.58 63.6961 26.5646C63.7329 26.551 63.7696 26.5373 63.8059 26.5237C63.9511 26.4707 64.0922 26.4185 64.2288 26.3681C64.2969 26.3423 64.3658 26.3227 64.433 26.3019C64.5001 26.281 64.5659 26.261 64.6303 26.2411C64.6943 26.2211 64.7574 26.2016 64.8191 26.183C64.8808 26.1644 64.9407 26.1435 65.0005 26.1304C65.1194 26.1004 65.2324 26.0718 65.3386 26.0455C65.4447 26.0188 65.5436 25.9943 65.6357 25.9716C65.7283 25.953 65.8136 25.9362 65.8907 25.9208C66.0441 25.8899 66.1657 25.8686 66.2478 25.8527C66.3304 25.8373 66.3744 25.8291 66.3744 25.8291C66.3744 25.8291 66.3317 25.8423 66.2514 25.8672C66.1711 25.8917 66.0536 25.9294 65.9039 25.9734C65.829 25.9956 65.7464 26.0206 65.6562 26.0473C65.5668 26.0777 65.4706 26.1104 65.3676 26.1453C65.2646 26.1798 65.1553 26.217 65.04 26.2556C64.9243 26.2946 64.8059 26.3427 64.6807 26.389C64.6181 26.4126 64.5546 26.4366 64.4897 26.4611C64.4248 26.4856 64.3581 26.5092 64.2928 26.5387C64.1607 26.5945 64.0242 26.6526 63.8835 26.712C63.8481 26.7265 63.8128 26.7415 63.7774 26.7565C63.7424 26.7733 63.7075 26.7896 63.6721 26.8068C63.6018 26.8404 63.5305 26.8744 63.4584 26.9094C63.3863 26.9439 63.3132 26.9784 63.2397 27.0128C63.1676 27.0509 63.095 27.0895 63.0215 27.1281C62.8754 27.2061 62.7248 27.2819 62.5805 27.3726C62.507 27.4162 62.4335 27.4602 62.3595 27.5047C62.2842 27.5464 62.213 27.5949 62.1404 27.6426C61.9961 27.7388 61.8473 27.8309 61.7085 27.9384C61.6377 27.9906 61.5674 28.0427 61.4966 28.0949C61.4258 28.1475 61.36 28.2061 61.2915 28.261C61.2235 28.3168 61.154 28.3708 61.0873 28.4284C61.0225 28.4869 60.9576 28.5459 60.8927 28.6049L60.7952 28.6929C60.7634 28.7224 60.7335 28.7546 60.7026 28.785C60.6414 28.8472 60.5806 28.9089 60.5198 28.9701C60.4585 29.0314 60.4045 29.0985 60.3464 29.1616C60.2897 29.226 60.2294 29.2864 60.1781 29.354C60.1246 29.4197 60.0715 29.4851 60.0193 29.5499C59.9921 29.5822 59.9676 29.6157 59.9436 29.6498C59.9191 29.6833 59.895 29.7165 59.8705 29.75C59.7707 29.8812 59.6872 30.02 59.5983 30.1516C59.5552 30.2183 59.5175 30.2872 59.4776 30.3535C59.4581 30.387 59.4381 30.4202 59.4191 30.4533C59.4 30.4864 59.3832 30.5209 59.3651 30.554C59.3301 30.6212 59.2957 30.6874 59.2616 30.7523C59.2303 30.819 59.1999 30.8848 59.1695 30.9492C59.1373 31.0132 59.1119 31.078 59.0851 31.1416C59.0588 31.2051 59.0302 31.2668 59.0089 31.3294C58.9858 31.3915 58.9631 31.4523 58.9413 31.5118C58.9214 31.5721 58.9018 31.6306 58.8832 31.6883C58.8628 31.7454 58.8469 31.8021 58.8311 31.857C58.8156 31.9124 58.7984 31.9655 58.7862 32.0181C58.7317 32.2273 58.695 32.4124 58.6691 32.5662C58.645 32.72 58.6305 32.8416 58.6237 32.9251C58.6169 33.0085 58.6165 33.0535 58.6165 33.0535Z" fill="#1E2628"/>
<path d="M59.4863 32.7981C59.4863 32.7981 59.5045 32.7455 59.5449 32.6488C59.5866 32.5531 59.6474 32.4111 59.739 32.2378C59.8307 32.0654 59.9446 31.8553 60.0952 31.6275C60.1315 31.569 60.171 31.5109 60.2123 31.451C60.2535 31.3916 60.2944 31.3285 60.3397 31.2668C60.4305 31.143 60.5267 31.0132 60.6337 30.883C60.7372 30.7496 60.8552 30.6199 60.974 30.4815C61.0353 30.4143 61.0992 30.3481 61.1641 30.2796C61.1963 30.2456 61.229 30.2115 61.2621 30.177C61.2962 30.1435 61.3306 30.1103 61.3656 30.0763C61.6387 29.8023 61.9504 29.5373 62.2843 29.2783C62.4554 29.1539 62.6255 29.0219 62.8088 28.9049C62.9 28.8454 62.9898 28.7828 63.0833 28.7247C63.1781 28.6685 63.2734 28.6122 63.3687 28.556C63.4168 28.5278 63.4649 28.4997 63.513 28.4716C63.562 28.4457 63.6114 28.4198 63.6609 28.3935C63.7598 28.3418 63.8591 28.2892 63.9585 28.237C64.0592 28.1871 64.1622 28.1413 64.2638 28.0932L64.4172 28.0219C64.468 27.9979 64.5193 27.9743 64.5719 27.9539C64.9889 27.7828 65.4131 27.6281 65.8391 27.5052C65.9457 27.4748 66.0519 27.4444 66.1572 27.4144C66.2624 27.3822 66.3699 27.3618 66.4757 27.3368C66.5814 27.3133 66.6866 27.2892 66.791 27.2661C66.8436 27.2547 66.8953 27.2407 66.9475 27.2325C67.0001 27.223 67.0519 27.2139 67.104 27.2048C67.2079 27.1871 67.3105 27.169 67.4126 27.1513C67.5146 27.1336 67.6154 27.1145 67.7161 27.105C67.9175 27.0814 68.1144 27.0583 68.3059 27.0356C68.4978 27.0197 68.6852 27.0079 68.8662 26.9961C68.9565 26.9911 69.0454 26.9834 69.1326 26.9811C69.2201 26.9798 69.3059 26.9784 69.3898 26.9771C69.5577 26.9743 69.7187 26.9721 69.8716 26.9703C70.0245 26.973 70.1697 26.9802 70.3058 26.9848C70.4419 26.9898 70.569 26.9948 70.687 26.9993C70.8045 27.0047 70.9124 27.0179 71.01 27.0251C71.2046 27.0415 71.3571 27.0574 71.4614 27.0673C71.5653 27.0773 71.6207 27.0823 71.6207 27.0823C71.6207 27.0823 71.5649 27.0823 71.4605 27.0819C71.3557 27.0814 71.2024 27.0819 71.0077 27.0791C70.9102 27.0791 70.8026 27.0746 70.6851 27.0782C70.5676 27.0814 70.441 27.085 70.3054 27.0887C70.1697 27.0928 70.0259 27.0946 69.8739 27.1014C69.7228 27.1114 69.5636 27.1222 69.3971 27.1331C69.314 27.1386 69.2296 27.144 69.143 27.1495C69.0568 27.1563 68.9692 27.1681 68.8803 27.1776C68.702 27.198 68.5178 27.2148 68.3286 27.2375C68.1408 27.2665 67.9475 27.296 67.7501 27.3264C67.6512 27.34 67.5528 27.3613 67.4525 27.3809C67.3527 27.4004 67.2519 27.4203 67.1503 27.4403C67.0995 27.4503 67.0487 27.4603 66.9974 27.4702C66.9457 27.4798 66.8953 27.4947 66.8445 27.5065C66.7424 27.5319 66.6394 27.5573 66.536 27.5832C66.3282 27.6304 66.1231 27.6975 65.9144 27.757C65.4979 27.8804 65.0846 28.0351 64.6781 28.2048C64.6268 28.2238 64.5764 28.2465 64.5265 28.2701L64.3764 28.3386C64.2765 28.3849 64.1754 28.4285 64.0774 28.4766C63.9798 28.5269 63.8827 28.5773 63.7856 28.6276C63.7371 28.6526 63.6885 28.6775 63.6405 28.7025C63.5933 28.7297 63.5461 28.7569 63.4994 28.7837C63.4054 28.8382 63.312 28.8921 63.219 28.9461C63.1264 29.0006 63.0375 29.06 62.9476 29.1163C62.7657 29.2265 62.5974 29.3522 62.4272 29.4697C62.0974 29.7179 61.7816 29.9638 61.5049 30.2233C61.4695 30.2551 61.4345 30.2868 61.4001 30.3181C61.3665 30.3508 61.3334 30.383 61.3002 30.4152C61.2345 30.4801 61.1696 30.5436 61.1056 30.6058C60.9831 30.7356 60.8606 30.8576 60.7526 30.9837C60.5312 31.2305 60.3416 31.4692 60.1805 31.6861C60.019 31.9029 59.8897 32.1003 59.7858 32.2645C59.6828 32.4297 59.6079 32.5631 59.5585 32.6552C59.5095 32.7473 59.4863 32.7981 59.4863 32.7981Z" fill="#1E2628"/>
<path d="M60.624 32.527C60.624 32.527 60.6717 32.4889 60.7633 32.4217C60.8554 32.3546 60.9902 32.2557 61.1685 32.14C61.3463 32.0225 61.565 31.885 61.8218 31.7371C62.0777 31.5869 62.3731 31.429 62.6997 31.2652C63.0282 31.1055 63.3857 30.934 63.775 30.7784C63.8231 30.7584 63.8721 30.738 63.9211 30.7176C63.9706 30.6985 64.0205 30.679 64.0704 30.6595C64.1706 30.621 64.2723 30.5815 64.3748 30.542C64.4783 30.5044 64.5835 30.4676 64.6897 30.4304C64.7954 30.3936 64.9025 30.356 65.0123 30.3224C65.1212 30.2879 65.2309 30.253 65.3421 30.2181C65.4528 30.1831 65.5662 30.1532 65.6792 30.1205C65.7926 30.0892 65.9056 30.0534 66.0218 30.0261C66.1375 29.9976 66.2536 29.969 66.3707 29.9404C66.4868 29.9105 66.6052 29.8873 66.7236 29.8619C66.8425 29.837 66.9609 29.812 67.0802 29.787C67.2 29.7662 67.3203 29.7453 67.4405 29.724C67.5607 29.704 67.6805 29.68 67.8016 29.665C67.9228 29.6487 68.0439 29.6328 68.1651 29.6169C68.2259 29.6092 68.2857 29.5997 68.3465 29.5938L68.5285 29.5765C68.6496 29.5647 68.7708 29.5534 68.891 29.542C69.0117 29.5298 69.1324 29.5266 69.2526 29.5185C69.3724 29.5116 69.4921 29.5048 69.611 29.498C69.7303 29.4967 69.8488 29.4949 69.9667 29.4935C70.0847 29.4921 70.2017 29.4908 70.3179 29.4899C70.434 29.493 70.5493 29.4962 70.6641 29.4999C70.7784 29.503 70.8918 29.5067 71.0043 29.5098C71.1164 29.5166 71.2276 29.5257 71.3374 29.5343C71.4472 29.543 71.5556 29.5511 71.6627 29.5593C71.7167 29.5629 71.7697 29.5693 71.8224 29.5761C71.875 29.5824 71.9276 29.5888 71.9798 29.5951C72.0837 29.6074 72.1862 29.6201 72.2874 29.6323C72.3378 29.6382 72.3882 29.6446 72.4376 29.6505C72.4875 29.6568 72.5365 29.6664 72.5851 29.6745C72.7792 29.7081 72.9671 29.7403 73.1472 29.7712C73.237 29.7861 73.3241 29.8084 73.4094 29.8261C73.4947 29.8451 73.5782 29.8633 73.6594 29.8814C73.8219 29.9177 73.9761 29.9508 74.1186 29.9926C74.2615 30.032 74.3953 30.0688 74.5192 30.1028C74.5809 30.1201 74.6399 30.1369 74.6966 30.1527C74.7529 30.1691 74.8055 30.1881 74.8563 30.2045C75.0587 30.2702 75.2161 30.3251 75.3241 30.3614C75.4316 30.3977 75.4892 30.4172 75.4892 30.4172C75.4892 30.4172 75.4302 30.4027 75.3195 30.3755C75.2093 30.3478 75.0469 30.3093 74.8418 30.2566C74.7905 30.2439 74.737 30.2285 74.6794 30.2163C74.6222 30.2045 74.5623 30.1922 74.4997 30.1795C74.3749 30.1532 74.2397 30.1246 74.0954 30.0942C73.9521 30.0606 73.7969 30.037 73.6336 30.0103C73.4707 29.9844 73.3001 29.9508 73.1209 29.9254C72.9417 29.9027 72.7543 29.8792 72.561 29.8551C72.5125 29.8492 72.4639 29.8419 72.4145 29.837C72.365 29.8329 72.3151 29.8283 72.2652 29.8242C72.1649 29.8152 72.0628 29.8061 71.9598 29.797C71.9081 29.7925 71.8564 29.788 71.8042 29.7834C71.7521 29.7789 71.6994 29.7739 71.6459 29.7725C71.5402 29.7675 71.4326 29.763 71.3238 29.758C71.2153 29.753 71.1055 29.7476 70.9948 29.7426C70.8841 29.7417 70.7721 29.7403 70.6591 29.7394C70.5466 29.7385 70.4327 29.7371 70.3179 29.7362C70.2036 29.7399 70.0883 29.743 69.9722 29.7467C69.856 29.7508 69.7394 29.7544 69.6219 29.7585C69.5049 29.7657 69.3869 29.7734 69.2689 29.7807C69.151 29.7898 69.0316 29.7934 68.9132 29.8061C68.7948 29.8184 68.6755 29.8306 68.5566 29.8429L68.3774 29.861C68.318 29.8669 68.2585 29.8769 68.1991 29.8846C68.0798 29.9009 67.9604 29.9177 67.8416 29.9341C67.7218 29.9481 67.6038 29.9708 67.485 29.9899C67.3665 30.0103 67.2481 30.0298 67.1302 30.0497C67.0126 30.0738 66.8951 30.0974 66.7785 30.1214C66.6615 30.1455 66.5444 30.1673 66.4296 30.1963C66.1992 30.2516 65.9696 30.3025 65.7455 30.3642C65.6334 30.3946 65.5213 30.4218 65.4111 30.454C65.3013 30.4867 65.1919 30.5189 65.0835 30.5506C64.9751 30.5815 64.8684 30.6164 64.7632 30.6509C64.6575 30.6854 64.5531 30.719 64.4497 30.7525C64.3467 30.7884 64.245 30.8238 64.1448 30.8587C64.0949 30.8764 64.045 30.8941 63.9955 30.9113C63.9461 30.9299 63.8975 30.9485 63.849 30.9667C63.7519 31.0034 63.6566 31.0397 63.5622 31.0756C63.4688 31.1132 63.3771 31.1504 63.2864 31.1867C63.241 31.2049 63.1961 31.223 63.1516 31.2407C63.1076 31.2598 63.0641 31.2784 63.0205 31.297C62.9338 31.3337 62.849 31.3705 62.766 31.4059C62.6013 31.4816 62.442 31.5511 62.2932 31.6232C62.2188 31.6586 62.1462 31.6931 62.0754 31.7266C62.0051 31.7616 61.937 31.7952 61.8713 31.8283C61.6086 31.9617 61.3808 32.0814 61.1966 32.1858C61.0119 32.2897 60.8681 32.3741 60.7715 32.4335C60.6744 32.4929 60.624 32.527 60.624 32.527Z" fill="#1E2628"/>
<path d="M81.6855 49.934C81.6855 49.934 81.7309 49.9426 81.8149 49.9612C81.8992 49.9807 82.0226 50.0084 82.1778 50.0524C82.333 50.096 82.5213 50.1509 82.7336 50.2244C82.9464 50.297 83.185 50.3841 83.4405 50.4916C83.6964 50.5982 83.9704 50.7216 84.2531 50.8677C84.5362 51.0124 84.8306 51.1758 85.1233 51.3632C85.4168 51.5501 85.7135 51.7547 85.9994 51.9843C86.2861 52.2116 86.5633 52.4616 86.8256 52.7265C87.086 52.9933 87.3274 53.2787 87.5465 53.5741C87.7661 53.8685 87.9558 54.1784 88.1204 54.4869C88.2847 54.7959 88.4167 55.108 88.5238 55.4098C88.6313 55.7115 88.7075 56.0046 88.7643 56.2772C88.7947 56.4129 88.8151 56.5449 88.8359 56.6697C88.8436 56.7328 88.8518 56.794 88.8591 56.8534C88.8668 56.9129 88.8741 56.9705 88.8781 57.0268C88.8877 57.1393 88.8995 57.2436 88.9013 57.3412C88.9054 57.4387 88.9108 57.5277 88.9099 57.6084C88.9103 57.6892 88.9113 57.7613 88.9103 57.8239C88.9081 57.8865 88.9058 57.9396 88.9045 57.9827C88.9008 58.0689 88.899 58.1147 88.899 58.1147C88.899 58.1147 88.8958 58.0689 88.8895 57.9827C88.8863 57.9401 88.8822 57.887 88.8777 57.8248C88.8713 57.7631 88.8641 57.6919 88.8559 57.612C88.8491 57.5322 88.8359 57.4442 88.8228 57.3489C88.811 57.2532 88.7933 57.1506 88.7751 57.0408C88.767 56.9859 88.7552 56.9297 88.7434 56.8716C88.7311 56.814 88.7189 56.7545 88.7066 56.6937C88.6767 56.5726 88.6504 56.4447 88.6123 56.3135C88.5401 56.0508 88.4489 55.7704 88.3332 55.4814C88.2171 55.1929 88.0746 54.8975 87.9099 54.6017C87.7443 54.3063 87.5483 54.016 87.3355 53.7315C87.1218 53.4475 86.8855 53.1734 86.6309 52.9166C86.3791 52.658 86.1119 52.4126 85.8342 52.1884C85.557 51.9643 85.2766 51.752 84.9926 51.5637C84.7095 51.3745 84.4296 51.1998 84.1569 51.046C83.8847 50.8922 83.622 50.7538 83.3761 50.6336C83.1301 50.5134 82.901 50.4095 82.6964 50.321C82.4913 50.2339 82.3108 50.1608 82.161 50.1037C82.0109 50.047 81.8924 50.0029 81.8112 49.9753C81.7296 49.9476 81.6855 49.934 81.6855 49.934Z" fill="#1E2628"/>
<path d="M77.9397 41.8736C77.9397 41.8736 77.9406 41.9439 77.9501 42.0759C77.9601 42.2075 77.9805 42.4003 78.0182 42.6431C78.0563 42.8858 78.1157 43.1785 78.2083 43.5069C78.3022 43.8345 78.4324 44.197 78.618 44.5704C78.8044 44.9425 79.0549 45.3218 79.3779 45.6666C79.455 45.7564 79.5467 45.834 79.6347 45.917C79.6774 45.9597 79.7264 45.996 79.7744 46.0341C79.8225 46.0717 79.8706 46.1098 79.9192 46.1484C79.97 46.1838 80.0222 46.2169 80.0739 46.2519L80.1519 46.304L80.191 46.3303C80.2046 46.3385 80.2186 46.3458 80.2322 46.3535C80.2876 46.3843 80.3429 46.4147 80.3983 46.4456L80.4818 46.4923L80.5693 46.5318C80.6868 46.584 80.803 46.6411 80.9278 46.6802C80.9895 46.7019 81.0512 46.7237 81.1129 46.7455C81.1755 46.7663 81.2404 46.78 81.3039 46.7977C81.3679 46.8144 81.4323 46.8312 81.4967 46.848C81.562 46.8612 81.6283 46.8716 81.6941 46.8839C81.7599 46.8957 81.8261 46.9079 81.8923 46.9202C81.9595 46.9283 82.0266 46.9347 82.0942 46.9419C82.1618 46.9492 82.229 46.9565 82.2971 46.9637C82.3647 46.9701 82.4332 46.9692 82.5017 46.9723C82.6387 46.9755 82.7757 46.9864 82.9136 46.9773C83.0525 46.9719 83.1877 46.9692 83.3297 46.9614C83.4703 46.9528 83.611 46.9447 83.7516 46.936C83.8923 46.9283 84.0329 46.9206 84.1736 46.9129C84.3142 46.9052 84.4558 46.9016 84.5964 46.8957C84.8782 46.8852 85.1586 46.8716 85.4371 46.8689C85.576 46.8666 85.7148 46.8639 85.8527 46.8616C85.9907 46.858 86.1286 46.863 86.2652 46.8634C86.4017 46.8653 86.5374 46.8671 86.6721 46.8684C86.8069 46.8721 86.9412 46.8793 87.0737 46.8843C87.1403 46.8875 87.2061 46.8902 87.2719 46.8929C87.3377 46.8952 87.4035 46.8984 87.4688 46.9043C87.5991 46.9152 87.7279 46.9256 87.8558 46.936C87.9833 46.9447 88.1095 46.9628 88.2338 46.9782C88.3581 46.995 88.4811 47.0077 88.6017 47.0277C88.8427 47.0726 89.0781 47.1062 89.3013 47.1661C89.3572 47.1797 89.4125 47.1933 89.4674 47.2064C89.4951 47.2133 89.5223 47.2196 89.5495 47.2264C89.5768 47.2337 89.6035 47.2423 89.6298 47.2505C89.7365 47.2827 89.8408 47.3149 89.9429 47.3462C89.9942 47.3602 90.0436 47.3789 90.0926 47.3975C90.1416 47.4161 90.1902 47.4338 90.2378 47.4519C90.3331 47.4882 90.4279 47.5195 90.5159 47.5617C90.6044 47.6016 90.6911 47.6402 90.775 47.6778C90.7959 47.6869 90.8167 47.6965 90.8371 47.7055C90.8576 47.716 90.8775 47.7264 90.8975 47.7364C90.937 47.7568 90.976 47.7768 91.0145 47.7967C91.0912 47.8362 91.1656 47.8743 91.2373 47.911C91.3072 47.9514 91.3748 47.9905 91.4392 48.0277C91.5036 48.0649 91.5658 48.1007 91.6248 48.1352C91.6829 48.1715 91.7378 48.206 91.7904 48.2386C91.8947 48.3049 91.9891 48.3625 92.0685 48.416C92.1479 48.47 92.2155 48.5154 92.2704 48.5526C92.3797 48.6265 92.4383 48.666 92.4383 48.666C92.4383 48.666 92.377 48.6311 92.2622 48.5653C92.2051 48.5322 92.1343 48.4918 92.0513 48.4442C91.9682 48.3965 91.8707 48.3452 91.7632 48.2858C91.7092 48.2563 91.652 48.225 91.5926 48.1923C91.5318 48.1619 91.4682 48.1302 91.402 48.0971C91.3358 48.0635 91.2668 48.029 91.1956 47.9927C91.123 47.96 91.0477 47.926 90.9696 47.8906C90.6597 47.7468 90.2972 47.6152 89.8966 47.4955C89.7954 47.4687 89.6924 47.4415 89.5872 47.4138C89.5609 47.407 89.5346 47.3997 89.5078 47.3934C89.4806 47.3879 89.4538 47.3825 89.4266 47.377C89.3721 47.3662 89.3172 47.3553 89.2619 47.3439C89.0423 47.294 88.81 47.2654 88.5732 47.2287C88.0963 47.1738 87.5909 47.1343 87.065 47.1239C86.9339 47.1211 86.8014 47.1166 86.668 47.1152C86.5347 47.1157 86.3999 47.1166 86.2647 47.1171C85.9938 47.1162 85.7198 47.1261 85.443 47.132C85.1667 47.1361 84.8886 47.1511 84.6091 47.1629C84.4694 47.1697 84.3297 47.1738 84.189 47.1829C84.0484 47.191 83.9077 47.1992 83.7671 47.2078C83.6264 47.2155 83.4853 47.2232 83.3447 47.2305C83.2058 47.2377 83.0597 47.24 82.9177 47.2446C82.7753 47.2532 82.6319 47.2414 82.4899 47.2373C82.4186 47.2332 82.3474 47.2337 82.2766 47.2264C82.2059 47.2187 82.1351 47.211 82.0648 47.2028C81.5013 47.1402 80.9532 46.9864 80.4654 46.7468L80.3733 46.7033L80.2858 46.6529C80.2272 46.6189 80.1692 46.5853 80.1116 46.5517C80.097 46.5436 80.0825 46.5354 80.0684 46.5268L80.0272 46.4982L79.9455 46.441C79.892 46.4029 79.8375 46.3657 79.7849 46.3267C79.735 46.285 79.6851 46.2432 79.6352 46.2019C79.5857 46.1602 79.5353 46.1203 79.4913 46.0745C79.4006 45.9846 79.3071 45.8998 79.2282 45.8036C78.8979 45.4325 78.6542 45.0278 78.4773 44.6376C78.3004 44.2465 78.1865 43.8694 78.108 43.5328C78.029 43.1952 77.9887 42.8962 77.9646 42.6499C77.9401 42.4031 77.9365 42.2089 77.9356 42.0764C77.9351 41.9439 77.9397 41.8736 77.9397 41.8736Z" fill="#1E2628"/>
<path d="M88.2598 49.472C88.2598 49.472 88.3169 49.4938 88.4213 49.5415C88.5252 49.5891 88.6776 49.6608 88.865 49.7651C89.0524 49.869 89.277 50.0015 89.5233 50.1717C89.7702 50.3413 90.0401 50.5455 90.316 50.7919C90.5918 51.0373 90.8754 51.3232 91.1426 51.6544C91.4103 51.9842 91.6657 52.3576 91.879 52.7723C92.0927 53.1861 92.2714 53.6384 92.3871 54.1157C92.5055 54.5921 92.5663 55.0898 92.5713 55.5875C92.5759 55.8325 92.5727 56.0766 92.5781 56.3175C92.5822 56.5585 92.5899 56.7994 92.6017 57.0376C92.614 57.2758 92.6312 57.5108 92.6516 57.7426C92.6766 57.974 92.702 58.2022 92.7446 58.4227C92.7619 58.5339 92.7891 58.6414 92.8122 58.749C92.8413 58.8542 92.8662 58.9604 92.9003 59.0616C92.9651 59.2653 93.0432 59.4595 93.1444 59.6337C93.2437 59.8088 93.3626 59.9653 93.4937 60.1015C93.6239 60.2394 93.7727 60.3501 93.922 60.4467C94.2228 60.6377 94.534 60.7593 94.8131 60.8541C95.093 60.9472 95.343 61.0148 95.5499 61.0656C95.7568 61.1164 95.9201 61.1554 96.0317 61.1799C96.1438 61.2049 96.2032 61.218 96.2032 61.218C96.2032 61.218 96.1429 61.2098 96.0295 61.1944C95.9723 61.1867 95.9024 61.1772 95.8203 61.1645C95.7382 61.1522 95.6438 61.1377 95.5386 61.1182C95.3276 61.0819 95.0717 61.0329 94.7827 60.954C94.4941 60.8746 94.1675 60.7693 93.8408 60.5806C93.6788 60.4857 93.5141 60.3746 93.3662 60.2312C93.2174 60.0901 93.0836 59.9222 92.9692 59.7367C92.854 59.5516 92.7637 59.3465 92.6879 59.1332C92.6475 59.0271 92.6185 58.9168 92.5863 58.8061C92.56 58.6945 92.5296 58.5824 92.5092 58.4681C92.418 58.0112 92.3649 57.5348 92.339 57.0516C92.3109 56.5698 92.305 56.0757 92.2995 55.5903C92.2977 55.112 92.2424 54.6348 92.1321 54.1774C92.1017 54.064 92.0709 53.951 92.0405 53.8385C92.0046 53.7278 91.9684 53.6175 91.9325 53.5082C91.8903 53.4007 91.8486 53.2941 91.8068 53.1883C91.7592 53.0849 91.7143 52.981 91.6653 52.8803C91.4656 52.4778 91.2333 52.1085 90.9834 51.7791C90.7325 51.4502 90.4693 51.1589 90.2098 50.9057C89.9498 50.6535 89.6957 50.4366 89.4621 50.2556C89.228 50.075 89.0161 49.9271 88.8373 49.8114C88.6586 49.6962 88.5147 49.61 88.4145 49.5546C88.3151 49.4988 88.2598 49.472 88.2598 49.472Z" fill="#1E2628"/>
<path d="M58.6164 34.6555C57.733 36.5112 57.9363 40.3182 58.8546 41.7914C59.5896 42.971 56.5198 49.5044 60.1644 47.2876C61.1635 49.0806 62.1798 50.836 63.2705 51.2275C63.9166 51.4589 65.6996 50.8115 67.0054 50.3288C68.122 50.7598 70.4536 52.5065 71.0565 55.6566C72.2266 55.0908 73.0433 54.7506 73.0433 54.7506C73.0433 54.7506 71.3501 47.994 72.1704 43.5087C72.7942 43.1003 73.286 42.4257 73.286 40.6499C73.286 36.8387 70.4762 37.037 70.136 39.198C66.3811 39.4076 63.1943 39.5483 58.6164 34.6555Z" fill="#F8A267"/>
<path d="M60.54 42.5389C60.54 42.5389 61.9937 42.6823 62.9556 41.4319C62.5314 42.1932 61.8735 43.17 60.54 42.5389Z" fill="#2E393C"/>
<path d="M59.179 40.452C59.179 40.452 60.4712 38.8731 62.5777 39.0605C61.8999 38.6626 61.0869 38.6345 60.306 38.8995C59.2553 39.2565 58.6945 39.9675 59.179 40.452Z" fill="#2E393C"/>
<path d="M61.583 48.666C62.3579 48.3062 62.8189 47.5395 63.0349 46.7332C63.0952 47.6547 62.5471 48.5735 61.583 48.666Z" fill="#B96F3E"/>
<path d="M60.54 42.2421C60.54 42.2421 60.6526 40.5779 62.785 41.2811C62.1725 40.9182 60.54 40.435 60.54 42.2421Z" fill="#B96F3E"/>
<path d="M61.0832 46.586C60.7393 46.9639 60.1631 47.2878 60.1631 47.2878C60.2239 47.3963 60.2842 47.5052 60.345 47.6132C60.6535 47.3196 60.977 46.8999 61.0832 46.586Z" fill="#B96F3E"/>
<path d="M70.7402 46.5858C70.7402 49.0435 67.0049 50.3289 67.0049 50.3289C67.2208 50.4123 67.4822 50.5453 67.7676 50.7277C70.2452 49.5893 70.9449 47.6602 70.7402 46.5858Z" fill="#B96F3E"/>
<path d="M72.1689 43.509C71.7243 43.9032 71.3609 44.0325 70.9512 43.5462C71.4303 43.8134 71.6594 43.5353 72.1689 43.509Z" fill="#B96F3E"/>
<path d="M70.7734 40.0452C70.7734 40.0452 71.5257 38.0489 72.1695 39.1985C72.8133 40.3478 72.3732 42.2461 71.1936 42.0342C71.5266 41.2479 71.5633 41.3155 70.7734 40.0452Z" fill="#B96F3E"/>
<path d="M60.0782 71.0924C58.713 69.9246 53.8978 61.3087 53.487 57.3161C54.9817 56.7716 58.3618 57.6477 58.8532 54.8357C59.3446 52.0241 59.6613 50.7278 57.9549 50.7278C57.4789 50.2519 56.7058 50.2474 56.0039 50.4597C55.6611 50.0795 54.6018 49.7319 53.3337 50.0722C51.385 50.4806 48.3086 51.3503 48.3086 53.7649C48.3086 56.18 51.2838 79.2759 56.2503 83.4572C57.3337 84.3692 59.4226 83.0548 60.7851 82.3221C63.3018 80.4233 63.2619 72.4045 60.0782 71.0924Z" fill="#F8A267"/>
<path d="M89.1901 66.0875C89.1901 66.0875 88.088 53.4373 80.7316 51.1053C76.2699 49.6915 74.6615 50.9928 69.7851 56.6173C66.3047 60.6326 61.9283 69.2412 60.0771 71.0924C61.8248 73.9344 62.5775 80.1524 60.784 82.322C64.5026 79.9192 67.5565 77.1262 70.7728 73.1957C76.1233 66.6574 78.4826 65.0776 81.1595 63.0781C83.6948 65.1348 87.0114 64.5213 89.1901 66.0875Z" fill="#3D4B96"/>
<path d="M81.1611 63.0781C81.1611 63.0781 81.1884 63.0532 81.2392 63.0155C81.29 62.9774 81.3644 62.927 81.4574 62.8735C81.5509 62.8209 81.662 62.7642 81.7854 62.7133C81.8471 62.687 81.912 62.6639 81.9778 62.6408C82.044 62.6172 82.113 62.5986 82.1811 62.5777C82.2505 62.5609 82.3194 62.5428 82.3889 62.5296C82.4233 62.5228 82.4578 62.5169 82.4918 62.5114C82.5259 62.506 82.5595 62.5001 82.5935 62.4974C82.6606 62.4901 82.7246 62.4829 82.7868 62.4815C82.8489 62.4801 82.9074 62.4788 82.9614 62.4811C83.0159 62.4847 83.0658 62.4892 83.1093 62.4938C83.1529 62.4978 83.1915 62.5083 83.2223 62.5142C83.2536 62.5201 83.2777 62.5273 83.2945 62.531C83.3108 62.5355 83.3194 62.5378 83.3194 62.5378C83.3194 62.5378 83.3108 62.5409 83.2945 62.5468C83.2781 62.5514 83.2541 62.5604 83.2241 62.5682C83.1942 62.5772 83.1579 62.5859 83.1171 62.599C83.0758 62.6117 83.0295 62.6249 82.9796 62.638C82.9292 62.6516 82.8757 62.6689 82.8185 62.6839C82.7614 62.6984 82.7019 62.7183 82.6398 62.7342C82.5781 62.7501 82.5145 62.771 82.4492 62.7868C82.3843 62.805 82.3185 62.8231 82.2523 62.8404C82.1861 62.859 82.1198 62.8762 82.054 62.893C81.9887 62.9112 81.9238 62.9261 81.8607 62.942C81.7351 62.9724 81.6167 63.0001 81.5132 63.0205C81.4098 63.0418 81.3222 63.0563 81.26 63.0654C81.2292 63.0704 81.2042 63.0727 81.1874 63.0754C81.1702 63.0772 81.1611 63.0781 81.1611 63.0781Z" fill="#263261"/>
<path d="M80.7325 51.1053C80.7325 51.1053 80.6209 51.1044 80.414 51.133C80.2076 51.1602 79.9073 51.2187 79.5343 51.3276C79.1614 51.436 78.7167 51.5971 78.2276 51.8271C77.7381 52.0553 77.2054 52.3539 76.6483 52.7164C76.0916 53.0789 75.5154 53.5131 74.9342 54.0049C74.3525 54.4963 73.7718 55.053 73.1983 55.6541C72.6253 56.2557 72.0613 56.905 71.5182 57.5887C70.9733 58.2707 70.447 58.9857 69.9434 59.7166C69.693 60.0832 69.4489 60.4521 69.2066 60.8246C68.9625 61.1948 68.7198 61.5641 68.4789 61.9298C68.2366 62.2955 67.9961 62.658 67.7588 63.0164C67.5188 63.373 67.2815 63.7251 67.0483 64.0713C66.5792 64.7623 66.1251 65.4301 65.6836 66.0558C65.5738 66.2128 65.4649 66.367 65.3583 66.5195C65.2503 66.671 65.1441 66.8203 65.0393 66.9668C64.832 67.2613 64.6242 67.5408 64.4273 67.8112C64.229 68.0802 64.0371 68.337 63.8538 68.5802C63.6687 68.822 63.4927 69.0516 63.3225 69.2635C62.9868 69.6909 62.6805 70.0525 62.4264 70.3483C62.2958 70.4935 62.1824 70.6255 62.0775 70.7353C61.9723 70.8446 61.8852 70.939 61.8108 71.0125C61.6624 71.1591 61.583 71.2375 61.583 71.2375C61.583 71.2375 61.6579 71.1554 61.7994 71.0016C61.8693 70.9245 61.9519 70.8256 62.0512 70.7117C62.1492 70.5965 62.2586 70.4613 62.3829 70.312C62.6252 70.0071 62.9164 69.6355 63.2354 69.1968C63.5562 68.7599 63.9101 68.2612 64.2921 67.7141C64.4813 67.4396 64.6782 67.1528 64.8819 66.8566C64.9835 66.7082 65.0865 66.5571 65.1913 66.4038C65.2952 66.2495 65.4005 66.0934 65.5071 65.9346C65.9336 65.2999 66.3814 64.6293 66.8419 63.9333C67.3001 63.236 67.7743 62.5155 68.2557 61.7837C68.737 61.0514 69.2143 60.3001 69.7229 59.5642C70.2329 58.831 70.7628 58.1105 71.3182 57.4277C71.8721 56.7439 72.4474 56.0947 73.0318 55.4935C73.6189 54.8946 74.2151 54.3434 74.8108 53.8566C75.4051 53.3688 75.9995 52.9469 76.5693 52.5925C77.1392 52.2373 77.6891 51.9578 78.1895 51.7414C78.69 51.5254 79.1428 51.3771 79.5212 51.28C79.8995 51.182 80.2049 51.1393 80.4127 51.1194C80.6209 51.0998 80.7325 51.1053 80.7325 51.1053Z" fill="#FFFBF1"/>
<path d="M62.5781 74.5372C62.5781 74.5372 62.663 74.4488 62.8172 74.2777C62.9715 74.1071 63.1924 73.8521 63.471 73.5255C63.7482 73.1979 64.0799 72.7955 64.4492 72.3259C64.8185 71.8558 65.225 71.3177 65.6601 70.7252C66.0948 70.1318 66.5517 69.4793 67.0244 68.782C67.4963 68.0842 67.9768 67.3369 68.4618 66.5566C68.9463 65.7757 69.4286 64.9582 69.9027 64.1183C70.0207 63.9078 70.1387 63.6964 70.2571 63.4845C70.376 63.2713 70.4939 63.0585 70.6173 62.8448C70.8619 62.4192 71.1159 61.9968 71.3795 61.5803C71.9077 60.7482 72.478 59.9415 73.0778 59.1779C73.6767 58.4135 74.315 57.6989 74.9711 57.046C75.3 56.7207 75.6335 56.4103 75.971 56.1191C76.3086 55.8282 76.6502 55.5569 76.9919 55.3047C77.3335 55.0529 77.6747 54.8197 78.015 54.61C78.3548 54.4004 78.6919 54.2117 79.0227 54.0447C79.353 53.8773 79.6765 53.7303 79.9904 53.6055C80.3044 53.4812 80.6075 53.3773 80.8951 53.2911C81.4713 53.1178 81.9872 53.0198 82.4137 52.9613C82.8411 52.9032 83.1795 52.8905 83.4095 52.8855C83.5248 52.8828 83.6133 52.8837 83.6727 52.8846C83.7321 52.8851 83.7625 52.8855 83.7625 52.8855C83.7625 52.8855 83.7321 52.8864 83.6727 52.8882C83.6133 52.8905 83.5252 52.8928 83.4105 52.9005C83.1809 52.9145 82.8447 52.9454 82.4218 53.0144C81.9999 53.0865 81.4908 53.1999 80.9264 53.3896C80.6442 53.4839 80.3479 53.5965 80.0417 53.729C79.735 53.8605 79.4183 54.0125 79.0957 54.1854C78.451 54.5311 77.7818 54.9603 77.1153 55.4694C76.4488 55.978 75.7868 56.5673 75.1421 57.217C74.4992 57.8686 73.8781 58.5836 73.2851 59.3408C72.693 60.0985 72.1336 60.9011 71.6082 61.726C71.3455 62.1379 71.0919 62.5562 70.8478 62.9777C70.7262 63.1873 70.6064 63.401 70.488 63.6125C70.3682 63.8248 70.2489 64.0367 70.13 64.2472C69.6496 65.0879 69.155 65.9028 68.6623 66.6822C68.17 67.4622 67.6719 68.2012 67.1882 68.8945C66.7055 69.5882 66.2304 70.2307 65.7822 70.8164C65.3353 71.4026 64.9097 71.928 64.5254 72.3876C64.1416 72.8472 63.7972 73.2401 63.5096 73.5595C63.2224 73.8794 62.9878 74.1225 62.8272 74.2872C62.6666 74.4519 62.5781 74.5372 62.5781 74.5372Z" fill="#FFFBF1"/>
<path d="M63.0352 77.7816C63.0352 77.7816 63.1218 77.6872 63.2847 77.5103C63.4458 77.332 63.6821 77.0707 63.9829 76.7381C64.2828 76.4046 64.6449 75.9981 65.056 75.5276C65.4666 75.0576 65.9253 74.5227 66.423 73.9374C66.9198 73.3512 67.4506 72.7101 68.0059 72.0273C68.5604 71.344 69.133 70.6135 69.7141 69.8504C70.2949 69.0868 70.8784 68.2851 71.4469 67.4548C71.5916 67.2488 71.7291 67.037 71.8706 66.8269C72.0104 66.6159 72.1469 66.4018 72.2848 66.1881C72.352 66.0801 72.4191 65.9721 72.4863 65.8637C72.5534 65.7557 72.621 65.6477 72.685 65.5375C72.8152 65.3174 72.9454 65.0974 73.0761 64.8769C73.6065 63.9903 74.1995 63.1455 74.8324 62.352C75.4649 61.5585 76.1427 60.8221 76.8396 60.1529C77.188 59.8185 77.5406 59.4991 77.8967 59.2001C78.2533 58.902 78.6104 58.6203 78.9684 58.3594C79.3259 58.0981 79.6816 57.8549 80.0341 57.6326C80.3871 57.4112 80.736 57.2097 81.0767 57.0278C81.4175 56.8458 81.7514 56.6848 82.074 56.5432C82.397 56.403 82.7087 56.2823 83.005 56.1803C83.5984 55.9752 84.1315 55.8468 84.5744 55.7687C85.0181 55.6921 85.3715 55.6676 85.6115 55.6599C85.7318 55.6562 85.8243 55.6549 85.886 55.6562C85.9482 55.6567 85.9804 55.6567 85.9804 55.6567C85.9804 55.6567 85.9482 55.658 85.8865 55.6603C85.8243 55.6612 85.7322 55.6667 85.6124 55.6748C85.3729 55.6916 85.0231 55.7338 84.5848 55.8218C84.147 55.913 83.622 56.0568 83.0404 56.2778C82.7496 56.3881 82.4447 56.5174 82.1293 56.6662C81.8136 56.8136 81.4864 56.9801 81.1534 57.168C80.4865 57.5427 79.7909 57.9964 79.0918 58.525C78.742 58.7886 78.3926 59.0731 78.0446 59.3739C77.6957 59.6742 77.35 59.9927 77.0084 60.3267C76.3251 60.9954 75.664 61.7318 75.0388 62.5167C74.7267 62.9096 74.4259 63.3161 74.1364 63.7331C73.8479 64.15 73.572 64.5806 73.3089 65.0148C73.1777 65.2353 73.0462 65.4558 72.915 65.6759C72.8497 65.787 72.7817 65.8959 72.7131 66.0043C72.6451 66.1132 72.577 66.2221 72.5094 66.3306C72.3697 66.5456 72.2318 66.7607 72.0902 66.973C71.9468 67.1835 71.808 67.3963 71.6624 67.6032C71.0857 68.4348 70.4904 69.2329 69.9015 69.9942C69.3135 70.7564 68.7242 71.4765 68.1593 72.1539C67.5944 72.8312 67.0473 73.4605 66.5382 74.0372C66.0296 74.6143 65.5532 75.1347 65.1286 75.5934C64.7043 76.0521 64.33 76.4482 64.0206 76.773C63.7116 77.0983 63.4635 77.3488 63.2951 77.5203C63.1254 77.6904 63.0352 77.7816 63.0352 77.7816Z" fill="#FFFBF1"/>
<path d="M75.126 68.2385C75.126 68.2385 75.1586 68.185 75.2203 68.0847C75.283 67.9849 75.3742 67.8379 75.4957 67.6546C75.6173 67.4713 75.7657 67.2494 75.9431 66.9995C76.1196 66.7486 76.3219 66.4682 76.5506 66.1678C76.7784 65.867 77.0297 65.5444 77.3051 65.2105C77.5796 64.8761 77.875 64.5277 78.1921 64.1774C78.5088 63.8271 78.8414 63.4692 79.1939 63.1194C79.546 62.7696 79.9121 62.422 80.2901 62.0872C80.6698 61.7546 81.0609 61.4339 81.457 61.133C81.8526 60.8309 82.2587 60.5555 82.6611 60.305C83.0635 60.0537 83.4673 59.8341 83.8598 59.6458C84.2523 59.4571 84.6352 59.3037 84.9954 59.1839C85.3552 59.0628 85.6932 58.9761 85.9959 58.9172C86.0712 58.9022 86.1451 58.8908 86.2159 58.8786C86.2513 58.8727 86.2858 58.8659 86.3202 58.8609C86.3547 58.8568 86.3883 58.8527 86.4214 58.8486C86.4877 58.8405 86.5507 58.8328 86.6115 58.8255C86.6723 58.8205 86.7304 58.8155 86.7853 58.8114C86.8951 58.8005 86.9935 58.7992 87.0793 58.7969C87.1219 58.7956 87.1614 58.7937 87.1977 58.7937C87.234 58.7942 87.2667 58.7951 87.2962 58.7956C87.4141 58.7974 87.4767 58.7987 87.4767 58.7987C87.4767 58.7987 87.4141 58.8028 87.2966 58.8101C87.2676 58.8123 87.2349 58.8142 87.1986 58.8164C87.1628 58.8196 87.1238 58.8246 87.0811 58.8291C86.9967 58.8391 86.8992 58.8473 86.7912 58.865C86.7372 58.8731 86.68 58.8818 86.6201 58.8908C86.5612 58.9022 86.499 58.914 86.4341 58.9262C86.3692 58.9385 86.3021 58.9516 86.2331 58.9684C86.1642 58.9848 86.092 59.0002 86.0185 59.0188C85.7241 59.0941 85.397 59.198 85.0481 59.3309C84.6996 59.4648 84.3307 59.6317 83.9505 59.8277C83.5708 60.0246 83.1824 60.2547 82.79 60.5074C82.6911 60.57 82.5944 60.6371 82.4955 60.7025C82.3984 60.7705 82.3004 60.8386 82.202 60.9076C82.0073 61.0487 81.8113 61.1925 81.6167 61.3422C81.2274 61.6412 80.8436 61.9606 80.4697 62.2914C80.094 62.6198 79.7293 62.9615 79.3786 63.3063C79.2034 63.4787 79.0315 63.6516 78.8618 63.8235C78.6935 63.9959 78.5283 64.1679 78.3682 64.3394C78.0487 64.6824 77.7425 65.0172 77.4594 65.3412C77.1772 65.6656 76.9127 65.9754 76.6727 66.2645C76.4331 66.5544 76.2162 66.8221 76.0261 67.0612C75.8369 67.3012 75.6727 67.5112 75.5398 67.6859C75.4073 67.861 75.302 67.9981 75.2326 68.0929C75.1632 68.1882 75.126 68.2385 75.126 68.2385Z" fill="#FFFBF1"/>
<path d="M62.5781 80.9541C62.5658 80.9541 62.5531 80.9523 62.5409 80.9491C62.4683 80.9282 62.4266 80.8529 62.447 80.7808C63.152 78.3026 62.7265 75.575 62.2451 73.7234C61.7224 71.7126 61.0251 70.2752 61.0178 70.2612C60.9847 70.1936 61.0128 70.1119 61.0804 70.0792C61.148 70.0461 61.2292 70.0738 61.2624 70.1414C61.2696 70.1559 61.9792 71.6178 62.5087 73.6549C62.9982 75.5391 63.4306 78.3181 62.7088 80.8552C62.692 80.9151 62.6375 80.9541 62.5781 80.9541Z" fill="#263261"/>
<path d="M83.3184 64.1539C83.3184 64.1539 83.3406 64.1476 83.3805 64.134C83.4209 64.1204 83.4794 64.0995 83.5529 64.0705C83.6269 64.0432 83.7144 64.0028 83.8156 63.9611C83.9154 63.9148 84.028 63.8645 84.1486 63.8041C84.2702 63.7474 84.3986 63.6766 84.5356 63.6072C84.6033 63.57 84.6727 63.5319 84.7439 63.4929C84.8147 63.4539 84.8877 63.4158 84.9599 63.3722C85.0325 63.33 85.1064 63.2874 85.1817 63.2443C85.2194 63.2234 85.2566 63.2007 85.2938 63.1776C85.331 63.1549 85.3687 63.1317 85.4063 63.109C85.4821 63.0632 85.5583 63.0174 85.6345 62.9716C85.7098 62.923 85.7856 62.8749 85.8614 62.8268C85.9371 62.7788 86.0138 62.732 86.0887 62.683C86.1635 62.634 86.238 62.5846 86.3115 62.5356C86.3854 62.487 86.4589 62.4389 86.532 62.3922C86.6036 62.3432 86.6744 62.2946 86.7443 62.247C86.8142 62.1998 86.8831 62.1535 86.9507 62.1082C87.0183 62.0633 87.0846 62.0188 87.1476 61.9739C87.2747 61.885 87.3954 61.8019 87.5079 61.7257C87.6213 61.6508 87.7229 61.5792 87.8132 61.5161C87.9035 61.4526 87.9843 61.3995 88.05 61.355C88.1158 61.3101 88.1689 61.277 88.2043 61.2534C88.2406 61.2303 88.2597 61.218 88.2597 61.218C88.2597 61.218 88.2442 61.2343 88.2147 61.2652C88.1843 61.2956 88.1412 61.341 88.0845 61.3968C88.0278 61.4526 87.9593 61.5211 87.879 61.5973C87.8386 61.6354 87.796 61.6762 87.7511 61.7194C87.7066 61.7629 87.6558 61.8046 87.6054 61.85C87.5024 61.9398 87.3904 62.0365 87.271 62.1377C87.1522 62.2393 87.0197 62.3382 86.8849 62.4435C86.8173 62.4956 86.7488 62.5483 86.678 62.6009C86.6064 62.6517 86.5338 62.703 86.4598 62.7542C86.3859 62.8055 86.3115 62.8572 86.237 62.909C86.1613 62.9589 86.0837 63.0074 86.007 63.0564C85.9294 63.105 85.8523 63.1535 85.7752 63.2016C85.6967 63.2479 85.6173 63.2919 85.5392 63.3368C85.3841 63.428 85.2257 63.5079 85.0724 63.585C84.9966 63.624 84.9199 63.6598 84.8442 63.693C84.7689 63.7265 84.6958 63.761 84.6232 63.7914C84.4767 63.8495 84.3397 63.9067 84.2085 63.9493C84.0792 63.9956 83.9572 64.0287 83.8496 64.0591C83.7417 64.0868 83.6468 64.1086 83.5679 64.1222C83.5284 64.1299 83.493 64.1362 83.4622 64.1394C83.4313 64.1435 83.4055 64.1476 83.3837 64.1494C83.341 64.1535 83.3184 64.1539 83.3184 64.1539Z" fill="#FFFBF1"/>
<path d="M70.6244 55.657C69.1417 57.6201 67.5891 59.5311 66.2334 61.5864C67.1957 59.3515 68.8567 57.3066 70.6244 55.657Z" fill="#263261"/>
<path d="M44.8398 29.9688C46.0734 29.4285 47.357 28.997 48.6345 28.5728C48.0151 30.1068 47.1311 32.1026 46.7943 32.7755C47.7548 32.702 48.5957 32.5336 49.6976 32.4792C48.5164 32.824 47.3052 33.0676 46.0991 33.3081C46.7129 31.8014 47.2098 30.7401 47.9164 29.2742C47.2687 29.4512 46.0144 29.7556 44.8398 29.9688C44.9085 29.9384 44.9136 29.9552 44.8398 29.9688Z" fill="#1E2628"/>
<path d="M52.1504 33.4773C52.8736 33.2917 53.6139 33.166 54.3513 33.0535C53.8731 33.8339 53.4552 34.4781 52.9255 35.2245C53.3855 35.2245 53.923 35.1986 54.5481 35.2767C53.8731 35.3606 53.1877 35.3937 52.5082 35.4087C52.9773 34.6419 53.3149 34.107 53.8333 33.3725C53.4867 33.3725 52.8041 33.4727 52.1504 33.4773C52.2326 33.4768 52.2301 33.4568 52.1504 33.4773Z" fill="#1E2628"/>
<path d="M34.6348 26.325C36.2808 25.6485 37.9828 25.1068 39.6765 24.5637C38.8275 26.5818 38.0858 28.2292 37.1218 30.1947C38.1382 30.0527 39.6188 29.8258 41.0905 29.7514C39.5189 30.1715 37.9133 30.4705 36.315 30.7677C37.159 28.7827 37.9195 27.222 38.7363 25.3886C37.9195 25.5941 36.2037 26.0396 34.6348 26.325C34.7273 26.2874 34.7333 26.3073 34.6348 26.325Z" fill="#1E2628"/>
</svg>
