<svg width="43" height="43" viewBox="0 0 43 43" fill="none" xmlns="http://www.w3.org/2000/svg">
<g clip-path="url(#clip0_2433_9782)">
<circle cx="21.4614" cy="21.8665" r="21.0034" fill="#CDE4FF"/>
</g>
<path d="M35.676 26.5506C34.8059 23.5547 35.0668 20.1462 37.4274 16.3005C39.2544 13.324 34.9146 5.33239 24.8064 9.66599C18.5958 12.3287 13.4409 11.5117 9.48124 13.5855C5.52157 15.6591 4.22707 20.5264 7.80599 23.38C11.3849 26.2335 9.89629 29.4934 9.64532 32.8993C9.07674 40.6149 23.7133 41.0999 28.035 38.3213C34.6079 34.0956 37.8347 33.9824 35.676 26.5506Z" fill="#EFEFED"/>
<path d="M19.9321 18.2009L24.484 17.798V20.4935L20.1868 21.1265L19.9321 18.2009Z" fill="#3D4B96"/>
<path d="M12.2278 19.9764L14.1779 17.4359L13.5252 10.4515C13.5252 10.4515 13.4186 9.34135 13.2204 9.2571C12.6116 8.99868 12.6218 9.81979 12.4757 9.96607C12.0897 10.3521 11.4498 10.717 11.6631 11.5916C11.8763 12.466 12.0687 12.6434 12.363 13.7299C12.363 15.4618 11.9152 18.1715 12.2278 19.9764Z" fill="#F8A267"/>
<path d="M13.2973 13.6422C13.2973 13.6422 13.283 14.4965 13.4183 15.0557C13.5535 15.615 13.6029 17.1552 13.4183 17.7979C13.9909 17.2252 14.1776 16.8944 14.1776 16.8944C14.1776 16.8944 13.7609 14.3886 13.2973 13.6422Z" fill="#B96F3E"/>
<path d="M12.4751 9.9661C12.5102 9.93091 12.5592 9.90905 12.6102 9.90745C12.6613 9.90674 12.7111 9.92594 12.753 9.9542C12.7641 9.96059 12.7737 9.96877 12.7836 9.97659C12.7936 9.98441 12.8035 9.99241 12.8122 10.0016C12.8212 10.0105 12.8305 10.0191 12.8392 10.0283L12.864 10.0567C12.8726 10.0662 12.8802 10.0761 12.8876 10.0863L12.9101 10.1166C12.9244 10.1373 12.9374 10.1588 12.9511 10.1799C12.9639 10.2014 12.9758 10.2235 12.9882 10.2453C13.0005 10.2672 13.0108 10.2899 13.0223 10.3123C13.0339 10.3345 13.0439 10.3575 13.0538 10.3804C13.0636 10.4033 13.0746 10.4259 13.0834 10.4494C13.1017 10.4957 13.1206 10.542 13.1366 10.5892L13.1616 10.66L13.1842 10.7312C13.1998 10.7787 13.2133 10.8265 13.227 10.8745C13.2411 10.9223 13.2536 10.9705 13.266 11.0188L13.2846 11.0911L13.3015 11.1638C13.3124 11.2125 13.3246 11.2609 13.3343 11.3096L13.365 11.4557C13.3747 11.5045 13.3833 11.5534 13.3925 11.6023C13.4019 11.6512 13.4104 11.7002 13.4185 11.7493L13.4432 11.8964L13.4456 11.9105L13.4361 11.9187C13.4289 11.9247 13.4224 11.9313 13.4146 11.937C13.4064 11.9421 13.3989 11.9482 13.3893 11.9517C13.3714 11.961 13.35 11.9636 13.3299 11.9629C13.2891 11.9593 13.2562 11.9394 13.229 11.9181C13.2018 11.8963 13.1782 11.8717 13.1569 11.846C13.1355 11.8202 13.1157 11.7937 13.0972 11.7665C13.0598 11.7121 13.0269 11.6554 12.9952 11.5986C12.9636 11.5413 12.9338 11.4834 12.905 11.4251C12.8763 11.3668 12.8488 11.3078 12.8217 11.2488C12.7945 11.1898 12.7685 11.1302 12.743 11.0707L12.6673 10.8912C12.6423 10.8315 12.6184 10.771 12.5945 10.7108L12.6779 10.8866L12.7622 11.0618L12.8483 11.2362C12.8773 11.2939 12.9068 11.3517 12.9373 11.4086C12.9675 11.4658 12.9984 11.5225 13.0311 11.5781C13.0474 11.6058 13.064 11.6334 13.0813 11.6604C13.0985 11.6876 13.1163 11.7143 13.1347 11.7402C13.153 11.7663 13.1724 11.7916 13.1928 11.8154C13.2132 11.8392 13.2353 11.8612 13.2589 11.8796C13.2824 11.8979 13.3085 11.9112 13.3329 11.913C13.3571 11.914 13.3798 11.9023 13.3998 11.8824L13.3927 11.9046L13.3672 11.7582C13.359 11.7093 13.3502 11.6606 13.3407 11.6121L13.3129 11.466L13.2831 11.3206C13.2737 11.2719 13.2618 11.2239 13.2512 11.1756L13.2348 11.103L13.217 11.0311C13.2054 10.9831 13.1938 10.9349 13.1804 10.8873C13.1676 10.8396 13.1549 10.7918 13.1402 10.7446L13.119 10.6737L13.0961 10.6033C13.0814 10.556 13.0639 10.51 13.047 10.4636C13.0389 10.4403 13.0287 10.4179 13.0196 10.395C13.0102 10.3722 13.0012 10.3493 12.9906 10.3271C12.9802 10.3049 12.9707 10.2819 12.9594 10.2602C12.948 10.2384 12.9371 10.2163 12.9253 10.1948C12.9127 10.1739 12.9007 10.1524 12.8875 10.1317L12.8669 10.1014C12.8603 10.091 12.8533 10.0811 12.8455 10.0717L12.8228 10.0429C12.8149 10.0336 12.8063 10.0249 12.7981 10.016C12.7901 10.0068 12.781 9.99863 12.7718 9.99081C12.7627 9.98263 12.7538 9.97428 12.7436 9.9677C12.7048 9.93891 12.6588 9.91865 12.6102 9.9167C12.5618 9.91581 12.5124 9.93304 12.4751 9.9661Z" fill="#B96F3E"/>
<path d="M12.6892 10.9251C12.6892 10.9251 12.6605 10.9442 12.6167 10.9706C12.595 10.9839 12.5693 10.999 12.542 11.015C12.5283 11.023 12.5142 11.0313 12.4998 11.0399C12.4853 11.0479 12.4709 11.0568 12.4564 11.0653C12.427 11.082 12.3984 11.0999 12.3712 11.1159C12.3579 11.1245 12.3449 11.1323 12.3324 11.1399C12.3204 11.1479 12.3088 11.1552 12.298 11.162C12.2771 11.1762 12.2589 11.1874 12.2471 11.1963C12.2349 11.205 12.2275 11.2098 12.2275 11.2098C12.2275 11.2098 12.2327 11.2028 12.2423 11.1911C12.2471 11.1854 12.2528 11.178 12.2603 11.1707C12.2677 11.1632 12.2759 11.1545 12.2854 11.1458C12.295 11.1371 12.3055 11.1278 12.3169 11.1182C12.3286 11.1092 12.3407 11.0994 12.3538 11.09C12.3671 11.0809 12.3804 11.0708 12.3948 11.0617C12.4092 11.0528 12.4235 11.0434 12.4383 11.0347C12.4533 11.0264 12.4682 11.0178 12.4831 11.0098C12.4978 11.0017 12.5129 10.9945 12.5273 10.9874C12.5416 10.9802 12.5559 10.9741 12.5694 10.9682C12.5828 10.962 12.5958 10.957 12.6077 10.9522C12.6556 10.9334 12.6892 10.9251 12.6892 10.9251Z" fill="#B96F3E"/>
<path d="M12.418 11.0675C12.418 11.0675 12.4249 11.0764 12.438 11.0933C12.4509 11.1102 12.4698 11.1351 12.4929 11.1676C12.5158 11.1999 12.5436 11.2396 12.5744 11.2856C12.5898 11.3087 12.6061 11.3332 12.6233 11.3592C12.6406 11.3849 12.6572 11.4132 12.6754 11.442C12.7121 11.4996 12.749 11.5636 12.7883 11.6313C12.8081 11.665 12.8267 11.7006 12.8467 11.7365C12.8663 11.7726 12.8871 11.809 12.906 11.8474C12.944 11.9236 12.9859 12.0015 13.0224 12.0834C13.0412 12.1239 13.0602 12.165 13.0792 12.2062C13.0971 12.2478 13.115 12.2898 13.1329 12.3317C13.1501 12.3738 13.1689 12.4152 13.1846 12.4579C13.2006 12.5004 13.2166 12.5425 13.2325 12.5844C13.2659 12.6678 13.291 12.7526 13.3184 12.8334C13.3467 12.914 13.367 12.9941 13.3884 13.0693C13.3988 13.107 13.4093 13.1436 13.4187 13.1791C13.4268 13.215 13.4347 13.2497 13.4422 13.2831C13.4571 13.3498 13.4714 13.4105 13.4814 13.4651C13.4906 13.5197 13.4986 13.5673 13.5051 13.6066C13.5119 13.6459 13.5163 13.6768 13.5197 13.6978C13.5229 13.7187 13.5247 13.7299 13.5247 13.7299C13.5247 13.7299 13.522 13.7189 13.5168 13.6983C13.5118 13.6775 13.5039 13.6473 13.495 13.6085C13.4858 13.57 13.4748 13.5232 13.4621 13.4694C13.4561 13.4424 13.4468 13.4144 13.4386 13.3846C13.4303 13.3547 13.4216 13.3234 13.4125 13.2906C13.4035 13.2579 13.394 13.2239 13.3843 13.1886C13.3733 13.1537 13.3619 13.1176 13.3502 13.0805C13.3264 13.0064 13.3032 12.9278 13.2738 12.8482C13.2454 12.7684 13.2175 12.6852 13.1843 12.6026C13.1683 12.5612 13.1521 12.5192 13.1359 12.4773C13.12 12.4352 13.101 12.3941 13.0837 12.3523C13.0662 12.3106 13.0488 12.2688 13.0314 12.2274C13.0127 12.1863 12.9942 12.1455 12.9757 12.1049C12.9397 12.0235 12.9008 11.945 12.8642 11.8685C12.8463 11.83 12.826 11.7935 12.808 11.7569C12.7894 11.7205 12.772 11.6846 12.7535 11.6503C12.7164 11.5819 12.6828 11.5165 12.6491 11.4575C12.6163 11.3979 12.5853 11.3439 12.5577 11.2961C12.53 11.2483 12.505 11.207 12.4843 11.1733C12.4633 11.1395 12.4469 11.113 12.4356 11.0949C12.4241 11.0771 12.418 11.0675 12.418 11.0675Z" fill="#B96F3E"/>
<path d="M22.9348 4.6533C24.6058 4.71657 27.5177 4.72439 29.1502 4.97321C30.7825 5.22204 32.3465 4.68884 33.5906 5.1154C34.8347 5.54195 33.4051 6.4306 33.249 7.31926C33.093 8.20791 33.0731 12.1148 32.8442 13.6086C32.5045 15.8253 34.3984 18.0467 34.095 18.7287C33.7916 19.4108 27.3178 17.8107 21.9768 18.3412C16.6358 18.8717 16.2467 19.7979 13.7927 19.3153C13.7927 18.1928 13.8723 15.893 13.512 14.6809C13.1516 13.4687 13.2583 12.5415 13.2583 11.3168C13.2583 10.0918 13.2583 8.59891 12.5829 7.92354C11.9075 7.24816 10.9995 6.57279 12.1289 6.14623C13.2583 5.71968 15.3302 4.36555 22.9348 4.6533Z" fill="#5863B3"/>
<path d="M26.936 9.69695C26.936 9.69695 28.0348 9.50216 29.2049 9.86615C28.5617 9.22312 27.4379 9.37046 26.936 9.69695Z" fill="#455090"/>
<path d="M26.936 9.69695C27.664 9.52437 28.5187 9.5425 29.2049 9.86615C28.4617 9.69269 27.6957 9.68166 26.936 9.69695Z" fill="#303E69"/>
<path d="M15.3911 7.42869C15.3911 7.42869 16.9973 7.80477 18.0601 9.57123C18.0601 8.88608 17.0553 7.51773 15.3911 7.42869Z" fill="#455090"/>
<path d="M15.3911 7.42869C16.5216 7.69084 17.515 8.56545 18.0601 9.57123C17.3696 8.64721 16.4776 7.85151 15.3911 7.42869Z" fill="#303E69"/>
<path d="M18.9221 13.4004C18.9221 13.4004 17.5592 12.6425 15.6753 13.0392C16.5284 12.5828 17.844 12.3223 18.9221 13.4004Z" fill="#455090"/>
<path d="M26.0547 9.40479C26.0547 9.40479 27.0957 8.11588 29.4316 7.60633C28.4007 7.60633 26.6234 8.03946 26.0547 9.40479Z" fill="#455090"/>
<path d="M29.6273 7.60626C28.5656 7.8023 27.582 8.28715 26.6665 8.84344C27.4768 8.1638 28.5524 7.63648 29.6273 7.60626Z" fill="#303E69"/>
<path d="M18.9221 13.4004C17.8882 13.02 16.7668 12.8907 15.6753 13.0392C16.7249 12.7286 17.9634 12.874 18.9221 13.4004Z" fill="#303E69"/>
<path d="M17.3994 9.86596C17.3994 9.86596 17.9132 12.2396 18.8259 13.1522C18.4763 14.0097 18.2077 14.7811 18.9855 14.8799C19.1812 14.9048 19.5498 15.867 20.4324 16.0817C21.7915 16.4123 22.6778 16.4928 23.3177 18.0213C24.704 17.5947 25.095 16.8838 25.095 16.8838C25.095 16.8838 21.1005 11.1097 17.3994 9.86596Z" fill="#455090"/>
<path d="M13.7871 17.0149L20.6379 18.4945C20.6379 18.4945 20.0377 16.404 17.986 15.8671C15.2318 15.1462 13.9604 16.6127 13.7871 17.0149Z" fill="#455090"/>
<path d="M30.4625 21.884C29.4294 19.2065 24.2731 19.9752 21.5243 20.3609C20.0376 16.6815 18.6587 16.3004 18.6587 16.3004C18.6587 16.3004 16.6295 16.1856 15.005 16.3004C13.3806 16.4151 11.4304 19.9668 10.6839 21.7415C9.93734 23.5159 11.5942 26.6673 10.2064 30.4232C10.1106 30.6825 9.96401 31.0773 9.79897 31.5275C9.73543 31.9816 9.67892 32.4391 9.64502 32.8992C9.07645 40.6148 23.713 41.0999 28.0347 38.3212C34.6076 34.0955 37.8344 33.9823 35.6757 26.5505C35.3515 25.4345 35.1845 24.2613 35.2245 23.0297C32.8777 23.4244 30.4625 21.884 30.4625 21.884Z" fill="#6D75C2"/>
<path d="M14.9917 17.3626C14.9917 17.3626 12.5471 20.6201 13.418 24.1372C14.2889 27.6543 14.6155 36.0997 22.379 38.5952C19.0521 38.247 14.9296 36.1097 13.737 28.4415C12.6982 21.7625 12.2894 21.0072 14.1556 18.3332C14.374 18.0203 14.691 17.7366 14.9917 17.3626Z" fill="#5862B3"/>
<path d="M21.5386 24.8284C21.5386 24.8284 24.761 27.1938 30.0003 28.8099C27.5832 28.8099 23.0623 27.1777 21.5386 24.8284Z" fill="#5862B3"/>
<path d="M17.5586 28.6882C17.5586 28.6882 24.2318 35.4034 31.3156 34.0526C25.9126 35.901 19.5732 32.0509 17.5586 28.6882Z" fill="#5862B3"/>
<path d="M23.7949 22.1831C23.7949 22.1831 31.1714 24.541 32.8778 27.4739C32.6646 25.4476 27.3499 22.9176 23.7949 22.1831Z" fill="#5862B3"/>
<path d="M10.9834 31.491C10.9834 31.491 11.3744 36.9528 18.1282 38.5952C15.249 38.5952 10.7701 35.8608 10.9834 31.491Z" fill="#5862B3"/>
<path d="M18.2632 16.9745C18.2632 16.9745 19.7789 17.9931 20.2116 19.9764C20.2116 18.7074 19.3475 17.5077 18.2632 16.9745Z" fill="#5862B3"/>
<path d="M18.1777 17.3627C18.1777 17.3627 19.3891 19.584 19.3833 21.8781C19.644 20.7867 19.3774 18.8439 18.1777 17.3627Z" fill="#5862B3"/>
<path d="M18.4246 17.876C18.4246 17.876 17.959 18.5546 16.3505 18.9811C16.3505 21.6471 18.2631 28.2436 18.2631 28.2436C18.2631 28.2436 25.7347 20.403 27.3165 20.7051C26.1435 21.8781 25.3051 23.0467 23.5561 25.0951C22.7431 26.047 19.9318 29.1473 17.5584 28.6882C16.1969 28.425 14.4595 23.3741 14.4595 17.3059C16.0946 16.7828 18.4246 17.876 18.4246 17.876Z" fill="#5862B3"/>
<path d="M18.2632 17.5299C18.2632 17.5299 18.2728 17.5449 18.2897 17.5737C18.3064 17.6025 18.3313 17.6444 18.3608 17.699C18.3908 17.7533 18.4265 17.8198 18.4653 17.8971C18.5042 17.9744 18.5477 18.0617 18.5918 18.1587C18.6144 18.2071 18.6366 18.2577 18.6604 18.3102C18.6833 18.3628 18.7066 18.4173 18.7299 18.4739C18.7766 18.5865 18.8248 18.7062 18.8701 18.8315C18.9158 18.9566 18.9624 19.0863 19.0045 19.2198C19.0255 19.2866 19.0475 19.3536 19.0669 19.4219C19.0768 19.4558 19.0868 19.4899 19.0967 19.5241L19.125 19.627C19.1623 19.7644 19.1961 19.9026 19.2263 20.0395C19.2419 20.1077 19.2549 20.1762 19.2684 20.2435C19.2814 20.3109 19.2931 20.3777 19.3045 20.4435C19.315 20.5094 19.3251 20.5743 19.334 20.6379C19.3427 20.7015 19.3496 20.7641 19.3571 20.8247C19.3706 20.9463 19.3809 21.0616 19.3863 21.1683C19.3944 21.2745 19.3944 21.3726 19.3967 21.459C19.3971 21.5458 19.3955 21.6211 19.3939 21.6833C19.3912 21.7453 19.3879 21.794 19.3863 21.8273C19.3841 21.8603 19.3829 21.8781 19.3829 21.8781C19.3829 21.8781 19.3813 21.8605 19.3781 21.8273C19.3752 21.7942 19.3703 21.7457 19.3656 21.684C19.3592 21.6227 19.3514 21.5481 19.3425 21.4624C19.337 21.4197 19.3313 21.3744 19.3253 21.3266C19.3198 21.2788 19.3127 21.2287 19.305 21.1763C19.2974 21.124 19.2905 21.0696 19.2803 21.0135C19.2706 20.9575 19.2631 20.8992 19.2521 20.8398C19.2411 20.7803 19.2306 20.7191 19.2185 20.6569C19.206 20.5947 19.1934 20.5313 19.1806 20.4666C19.1668 20.4022 19.1525 20.3368 19.1383 20.2705C19.1307 20.2375 19.123 20.2042 19.1152 20.1708C19.1076 20.1376 19.1005 20.1038 19.0919 20.0704C19.0591 19.9361 19.0255 19.7996 18.9878 19.6641L18.9604 19.5625C18.9508 19.5287 18.9412 19.4949 18.9316 19.4613C18.9126 19.3938 18.8927 19.327 18.873 19.2607C18.8529 19.1944 18.833 19.1286 18.8133 19.0638C18.7926 18.9991 18.7729 18.9349 18.7521 18.8723C18.7313 18.8098 18.7109 18.7481 18.6908 18.6879C18.6711 18.6274 18.6508 18.5688 18.6311 18.5115C18.5907 18.3973 18.5529 18.2892 18.5166 18.1899C18.4797 18.0905 18.4459 17.9997 18.4159 17.919C18.3846 17.8388 18.3583 17.7685 18.3353 17.7109C18.3126 17.6533 18.2946 17.6081 18.2824 17.5772C18.2698 17.5465 18.2632 17.5299 18.2632 17.5299Z" fill="#414D8A"/>
<path d="M14.644 17.7979C14.644 17.7979 14.5694 17.8654 14.4428 18.0046C14.3169 18.1441 14.139 18.3558 13.9409 18.6452C13.9166 18.6816 13.8904 18.7182 13.8658 18.7573C13.8409 18.796 13.8154 18.8359 13.7893 18.8766C13.7643 18.918 13.7387 18.9604 13.7126 19.0038C13.6863 19.047 13.6619 19.0927 13.6357 19.1384C13.5333 19.323 13.4307 19.5271 13.3354 19.7512C13.2398 19.9753 13.1539 20.2202 13.0814 20.4832C13.0092 20.7463 12.9508 21.0276 12.9149 21.3246C12.8777 21.6212 12.8671 21.9335 12.882 22.255C12.8827 22.2751 12.8835 22.2954 12.8843 22.3155C12.8851 22.3357 12.8856 22.356 12.8878 22.3761C12.8912 22.4166 12.8948 22.4571 12.8983 22.498C12.9018 22.5387 12.9053 22.5796 12.9088 22.6208C12.9127 22.6617 12.9194 22.7027 12.9246 22.744C12.9302 22.785 12.9357 22.8264 12.9413 22.8679C12.9442 22.8886 12.947 22.9094 12.9498 22.9302C12.9531 22.9512 12.9564 22.9722 12.9598 22.9932C12.9731 23.0772 12.9865 23.1618 13 23.247C13.1075 23.9285 13.2208 24.6475 13.338 25.3911C13.454 26.1349 13.5737 26.9036 13.6955 27.6845C13.7256 27.8798 13.7558 28.0759 13.7861 28.2726C13.8013 28.3709 13.8165 28.4694 13.8317 28.568L13.8545 28.7161C13.8622 28.7658 13.8689 28.8163 13.8758 28.8655C13.9304 29.2601 14.0003 29.6538 14.0856 30.0442C14.2548 30.8256 14.483 31.5942 14.7688 32.327C14.805 32.4184 14.8408 32.5097 14.879 32.5998C14.916 32.6907 14.9553 32.7799 14.9943 32.8693C15.0331 32.9587 15.0743 33.0466 15.1143 33.1348C15.1352 33.1785 15.156 33.2222 15.1769 33.2658C15.1976 33.3095 15.2184 33.3531 15.2403 33.3959C15.4117 33.7409 15.5968 34.0739 15.795 34.3914C16.1924 35.0257 16.6422 35.5974 17.1244 36.0855C17.3651 36.3297 17.614 36.5527 17.8653 36.7555C18.1173 36.9573 18.3725 37.1375 18.6254 37.298C18.6572 37.3177 18.6889 37.3374 18.7203 37.3571C18.7518 37.3765 18.7825 37.397 18.8147 37.4147C18.8781 37.4513 18.9411 37.4876 19.0031 37.5235C19.034 37.5418 19.0657 37.558 19.0969 37.5747C19.1282 37.5914 19.1595 37.6079 19.1904 37.6243C19.2213 37.6408 19.2521 37.6572 19.2827 37.6733C19.3132 37.6893 19.3445 37.7039 19.3751 37.719C19.4366 37.749 19.4972 37.7785 19.5569 37.8077C19.6177 37.8349 19.6778 37.8615 19.7369 37.8878C19.7664 37.901 19.7958 37.9142 19.8251 37.9271C19.8542 37.9399 19.8839 37.9509 19.9131 37.963C19.9714 37.9863 20.0288 38.0094 20.0855 38.0322C20.1136 38.0439 20.142 38.0544 20.1702 38.0643C20.1985 38.0745 20.2264 38.0846 20.2543 38.0945C20.3098 38.1146 20.3643 38.1342 20.418 38.1536C20.5266 38.1882 20.6313 38.2216 20.7319 38.2538C20.8335 38.2826 20.9309 38.3103 21.0242 38.3366C21.1183 38.3597 21.208 38.3818 21.2932 38.4027C21.3145 38.4079 21.3355 38.413 21.3562 38.4182C21.377 38.4225 21.3977 38.4267 21.4179 38.431C21.4586 38.4393 21.4981 38.4477 21.5363 38.4555C21.6129 38.4712 21.6842 38.4879 21.7515 38.4984C21.8187 38.5101 21.8809 38.5209 21.938 38.5309C21.9664 38.5359 21.9936 38.5405 22.0194 38.5449C22.0453 38.5492 22.07 38.5522 22.0933 38.5556C22.2797 38.5814 22.3791 38.5952 22.3791 38.5952C22.3791 38.5952 22.2794 38.584 22.0922 38.5632C22.0688 38.5604 22.0441 38.5581 22.0179 38.5547C21.992 38.5508 21.9648 38.5469 21.936 38.5426C21.8788 38.5343 21.8162 38.525 21.7487 38.5151C21.681 38.5063 21.609 38.4918 21.532 38.4779C21.4935 38.4708 21.4536 38.4635 21.4128 38.4559C21.3923 38.4521 21.3715 38.4482 21.3506 38.4443C21.3296 38.4397 21.3084 38.4351 21.2869 38.4305C21.2011 38.4113 21.1106 38.3912 21.0157 38.37C20.9217 38.3455 20.8231 38.3201 20.7205 38.2934C20.6185 38.2641 20.5127 38.2318 20.4029 38.1991C20.3487 38.1806 20.2934 38.1619 20.2373 38.1427C20.2092 38.1333 20.1807 38.1235 20.1523 38.1139C20.1237 38.1043 20.0949 38.0944 20.0663 38.0832C19.6061 37.9131 19.0976 37.6854 18.5824 37.3671C18.3245 37.2087 18.064 37.0305 17.8061 36.83C17.5493 36.6285 17.2957 36.4047 17.0492 36.1603C16.5562 35.6717 16.094 35.098 15.6891 34.4582C15.2845 33.8182 14.9304 33.1169 14.641 32.3771C14.3509 31.6376 14.1188 30.8623 13.9468 30.0745C13.8615 29.6803 13.7917 29.2825 13.7375 28.8847C13.7306 28.8348 13.7243 28.7861 13.7169 28.7374L13.6943 28.5893C13.6793 28.4907 13.6644 28.3922 13.6494 28.2938C13.6195 28.097 13.5896 27.901 13.5599 27.7055C13.4423 26.9238 13.3266 26.1546 13.2146 25.4103C13.1039 24.6656 12.9969 23.9458 12.8955 23.2631C12.8829 23.1778 12.8703 23.093 12.8579 23.009C12.8548 22.9878 12.8517 22.9668 12.8486 22.9459C12.8459 22.9247 12.8432 22.9036 12.8406 22.8824C12.8353 22.8401 12.8301 22.7982 12.8249 22.7562C12.82 22.7141 12.8137 22.6725 12.8101 22.6308C12.8069 22.589 12.8038 22.5474 12.8007 22.5058C12.7976 22.4644 12.7945 22.423 12.7915 22.3819C12.7896 22.3613 12.7894 22.3407 12.7888 22.3203C12.7883 22.2996 12.7878 22.2792 12.7873 22.2588C12.7769 21.9317 12.7923 21.6147 12.8342 21.3143C12.9159 20.7127 13.0859 20.1783 13.2857 19.7297C13.3861 19.5054 13.4927 19.3013 13.6001 19.1181C13.6275 19.0726 13.6531 19.0273 13.6805 18.9843C13.7077 18.9414 13.7344 18.8993 13.7604 18.8583C13.7876 18.8179 13.8141 18.7785 13.84 18.7399C13.8655 18.7011 13.8927 18.6651 13.9179 18.629C14.1227 18.3423 14.3078 18.136 14.4372 17.9993C14.5677 17.8635 14.644 17.7979 14.644 17.7979Z" fill="#414D8A"/>
<path d="M22.5098 25.9241C22.5098 25.9241 22.5345 25.9442 22.5819 25.9805C22.6296 26.0165 22.6999 26.0686 22.7906 26.1333C22.8812 26.1978 22.9923 26.2748 23.1215 26.3603C23.2504 26.4463 23.3981 26.5396 23.5603 26.6393C23.6012 26.6638 23.6426 26.6891 23.6851 26.7147C23.7279 26.7397 23.7715 26.7651 23.8157 26.7909C23.9041 26.8433 23.9968 26.8947 24.0916 26.9487C24.2828 27.0534 24.4858 27.1617 24.6987 27.2674C24.8044 27.3216 24.9141 27.3726 25.0245 27.4252C25.0794 27.4521 25.1359 27.4766 25.1923 27.502C25.2484 27.5278 25.3051 27.5534 25.3618 27.5793C25.5905 27.6789 25.8243 27.7775 26.0615 27.8664C26.1207 27.8891 26.1799 27.9119 26.2389 27.9344C26.2983 27.9565 26.358 27.9771 26.4173 27.9986C26.4769 28.0196 26.5361 28.0413 26.5954 28.0615C26.6551 28.0812 26.7147 28.1006 26.7739 28.1202C26.8921 28.16 27.0108 28.1955 27.1276 28.2314C27.1569 28.2403 27.186 28.2494 27.215 28.2583C27.244 28.2673 27.2731 28.276 27.3023 28.2839C27.3604 28.3 27.4181 28.316 27.4754 28.3318C27.5328 28.3475 27.5893 28.3642 27.6458 28.3784C27.7025 28.3924 27.7587 28.4065 27.8141 28.4207C27.8696 28.4347 27.9243 28.4488 27.9785 28.4627C28.0329 28.4754 28.0869 28.4872 28.1403 28.4993C28.3527 28.549 28.5553 28.5872 28.7421 28.6251C28.8357 28.6422 28.9258 28.6562 29.0115 28.6715C29.0543 28.6789 29.0959 28.6862 29.1364 28.6933C29.177 28.701 29.2168 28.7053 29.255 28.7113C29.3318 28.7223 29.4036 28.7328 29.4699 28.7424C29.5031 28.7474 29.5349 28.7522 29.5653 28.7566C29.5959 28.7611 29.625 28.7639 29.6526 28.7673C29.7633 28.7799 29.85 28.7915 29.9094 28.7986C29.9688 28.806 30.0004 28.8099 30.0004 28.8099C30.0004 28.8099 29.9686 28.8087 29.9089 28.8064C29.8491 28.8037 29.7615 28.801 29.6501 28.7955C29.6222 28.7939 29.5927 28.7932 29.5619 28.7909C29.5312 28.7884 29.499 28.7859 29.4654 28.7833C29.3984 28.7778 29.3259 28.7717 29.2484 28.7651C29.2097 28.7616 29.1695 28.7595 29.1284 28.7541C29.0874 28.7493 29.0451 28.7445 29.0017 28.7394C28.9152 28.7291 28.8238 28.7184 28.7289 28.7056C28.6342 28.691 28.5355 28.6759 28.4333 28.6603C28.4077 28.6562 28.382 28.6523 28.356 28.6482C28.3303 28.6432 28.3041 28.6384 28.278 28.6335C28.2256 28.6235 28.1723 28.6134 28.1184 28.6031C28.0644 28.5926 28.0095 28.5828 27.9544 28.5714C27.8993 28.5593 27.8435 28.5471 27.7871 28.5346C27.7308 28.5224 27.6737 28.5097 27.6163 28.4964C27.5589 28.4833 27.5015 28.4674 27.4434 28.4529C27.3853 28.4379 27.3266 28.423 27.2676 28.4079C27.2381 28.4006 27.2086 28.3924 27.1793 28.3837C27.1498 28.3754 27.1201 28.367 27.0904 28.3585C27.031 28.3416 26.9713 28.3246 26.9113 28.3073C26.8512 28.2903 26.7918 28.2696 26.7318 28.2508C26.6719 28.2316 26.6116 28.2122 26.5512 28.1929C26.4909 28.1728 26.4312 28.1513 26.371 28.1303C26.3107 28.1091 26.2503 28.0887 26.1902 28.0668C26.1303 28.0443 26.0704 28.0217 26.0105 27.999C25.7715 27.9076 25.5362 27.8066 25.3058 27.7045C25.0765 27.5998 24.8539 27.4906 24.6416 27.3787C24.4284 27.2688 24.2281 27.1519 24.0388 27.0403C23.8506 26.9267 23.675 26.8156 23.5164 26.7076C23.4764 26.6813 23.4379 26.6544 23.4002 26.6283C23.3627 26.602 23.3255 26.5769 23.2902 26.5513C23.2196 26.5 23.1523 26.4518 23.0902 26.4045C22.9653 26.3118 22.8597 26.2264 22.7733 26.1555C22.6868 26.085 22.6217 26.026 22.5771 25.9863C22.5327 25.9462 22.5098 25.9241 22.5098 25.9241Z" fill="#414D8A"/>
<path d="M20.3066 31.6107C20.3066 31.6107 20.3436 31.6379 20.4142 31.6866C20.4845 31.7355 20.5891 31.8055 20.7231 31.8928C20.8572 31.9801 21.0218 32.0831 21.2125 32.1981C21.4032 32.3131 21.621 32.4384 21.8609 32.5703C22.101 32.702 22.3646 32.8383 22.6459 32.9764C22.9275 33.1145 23.2289 33.2503 23.5435 33.384C23.8581 33.5176 24.1886 33.6422 24.527 33.7606C24.8654 33.8789 25.214 33.985 25.5662 34.0771C25.9179 34.1702 26.2734 34.2502 26.6264 34.3105C26.6705 34.3178 26.7145 34.3252 26.7586 34.3325L26.8245 34.3433L26.8905 34.3529C26.9781 34.3657 27.0654 34.3798 27.1525 34.3899C27.196 34.3954 27.2394 34.4009 27.2827 34.4064C27.3259 34.4118 27.3693 34.4157 27.4123 34.4203C27.4553 34.4247 27.4983 34.4292 27.541 34.4336C27.5838 34.4372 27.6265 34.4406 27.6689 34.4441C28.0089 34.4708 28.3388 34.482 28.6514 34.4772C28.9642 34.472 29.2596 34.4532 29.5316 34.4249C29.5993 34.4167 29.6657 34.4088 29.7306 34.4009C29.7468 34.399 29.763 34.397 29.779 34.3949C29.795 34.3926 29.811 34.3901 29.8268 34.3878C29.8582 34.3832 29.8895 34.3785 29.9203 34.3739C30.044 34.3576 30.1598 34.3343 30.2695 34.3156C30.3241 34.3053 30.3767 34.2936 30.4275 34.2833C30.4529 34.2779 30.478 34.2728 30.5025 34.2676C30.527 34.2628 30.551 34.2579 30.5745 34.252C30.668 34.2294 30.7545 34.2104 30.8318 34.1901C30.9092 34.1693 30.9781 34.151 31.038 34.1349C31.0979 34.1183 31.1484 34.1023 31.1896 34.0904C31.2717 34.0659 31.3156 34.0528 31.3156 34.0528C31.3156 34.0528 31.2726 34.0684 31.1919 34.0977C31.1516 34.1121 31.102 34.1311 31.0432 34.1512C30.9838 34.1704 30.9157 34.1925 30.8395 34.2173C30.7631 34.2415 30.6772 34.2646 30.5844 34.292C30.538 34.3058 30.489 34.3169 30.4383 34.3298C30.3877 34.3423 30.3353 34.3563 30.2807 34.3688C30.0626 34.4185 29.8147 34.4676 29.5415 34.506C29.4731 34.5145 29.4032 34.5232 29.332 34.5321C29.3142 34.5344 29.2964 34.5365 29.2783 34.5387C29.2603 34.5404 29.2422 34.5422 29.2241 34.544C29.1877 34.5474 29.151 34.5509 29.1141 34.5545C29.04 34.5625 28.9644 34.5668 28.8878 34.5716C28.8494 34.574 28.8109 34.5765 28.7719 34.5788C28.733 34.5804 28.6937 34.5819 28.6543 34.5833C28.3383 34.5954 28.0041 34.5925 27.6599 34.5689C27.6169 34.566 27.5735 34.5632 27.5301 34.5602C27.4868 34.5563 27.4434 34.5524 27.3997 34.5484C27.3561 34.5444 27.3122 34.541 27.2683 34.5362C27.2246 34.5312 27.1805 34.5262 27.1365 34.5213C26.9598 34.5019 26.7821 34.4756 26.6033 34.4459C26.2459 34.3864 25.886 34.3074 25.53 34.2145C25.1743 34.1199 24.8228 34.011 24.4817 33.8901C24.3107 33.8306 24.143 33.7666 23.9782 33.701C23.8957 33.6685 23.8145 33.6344 23.7335 33.6013C23.6531 33.5668 23.5728 33.5338 23.4942 33.4986C23.1786 33.3609 22.8786 33.2162 22.5985 33.071C22.5284 33.0349 22.4595 32.9988 22.392 32.9626C22.3242 32.9268 22.2581 32.8902 22.1932 32.8545C22.0637 32.782 21.9391 32.7111 21.8207 32.641C21.7022 32.5714 21.5895 32.5028 21.4832 32.4365C21.3771 32.3695 21.2769 32.3057 21.1837 32.244C20.9968 32.1217 20.8373 32.0097 20.7072 31.9161C20.577 31.8226 20.4774 31.7455 20.4095 31.6929C20.3418 31.6399 20.3066 31.6107 20.3066 31.6107Z" fill="#414D8A"/>
<path d="M18.5234 11.6561C18.5234 11.6561 16.0613 9.71221 18.1758 8.11584C18.1758 7.31001 18.5312 6.82428 18.9448 6.48534C20.5943 5.13335 21.3276 5.76554 22.935 5.76554C25.3634 5.76554 26.2438 6.32005 27.2827 9.2032C28.2396 11.8585 28.2405 12.5374 30.0007 13.0219C35.0132 14.4016 32.3299 15.7275 34.5861 17.3626C36.2257 18.5507 35.1291 21.613 33.5553 20.9531C31.0797 19.915 30.8486 22.0579 29.432 19.704C25.0953 18.8388 21.4764 15.5764 18.5234 11.6561Z" fill="#293337"/>
<path d="M19.8057 8.84364C19.8057 8.84364 20.7942 10.9412 24.9531 11.1221C23.5396 11.2375 20.63 10.8628 19.8057 8.84364Z" fill="#1E2628"/>
<path d="M24.0303 11.9508C24.0303 11.9508 24.0356 12.0009 24.0512 12.0942C24.0671 12.1873 24.0937 12.3236 24.1374 12.4943C24.1813 12.6649 24.243 12.8703 24.3354 13.0973C24.4277 13.3239 24.5512 13.5727 24.7241 13.8182C24.8105 13.9406 24.9099 14.0617 25.0241 14.175C25.0815 14.2316 25.1425 14.2863 25.207 14.3384C25.2719 14.3899 25.3407 14.4384 25.4128 14.4839C25.4846 14.5298 25.5611 14.5701 25.6402 14.6071C25.6796 14.626 25.7205 14.6421 25.7614 14.6588C25.8028 14.6739 25.8444 14.6898 25.8872 14.7026C25.9295 14.7168 25.9732 14.7274 26.0168 14.7393C26.0608 14.7491 26.1049 14.76 26.1499 14.7674C26.1945 14.7765 26.2402 14.7816 26.2857 14.7884C26.3317 14.7928 26.3772 14.7982 26.4247 14.8017C26.8023 14.8339 27.1923 14.875 27.5867 14.9348C27.981 14.9949 28.3795 15.0761 28.7696 15.1924C28.9646 15.2503 29.1571 15.3186 29.3441 15.3987C29.5305 15.4801 29.7116 15.5738 29.881 15.6845C30.05 15.7954 30.2073 15.9232 30.3433 16.0695C30.4112 16.1425 30.4739 16.2198 30.5297 16.3012C30.5853 16.3826 30.634 16.4681 30.6758 16.5559C30.7174 16.6435 30.7519 16.7338 30.7796 16.825C30.8073 16.9162 30.8269 17.0086 30.8414 17.1005C30.8562 17.1926 30.8637 17.2843 30.8667 17.3749C30.8672 17.3977 30.8683 17.4202 30.8685 17.4426C30.8681 17.4652 30.8679 17.4876 30.8677 17.51C30.8672 17.5546 30.8656 17.5978 30.8645 17.6411C30.8544 17.9872 30.8514 18.3144 30.866 18.6153C30.8795 18.916 30.9138 19.1908 30.9781 19.4256C31.0105 19.5427 31.0513 19.6495 31.1 19.7425C31.1487 19.8356 31.2054 19.9145 31.2653 19.9779C31.295 20.0098 31.3256 20.0378 31.3556 20.0625C31.3858 20.0869 31.4159 20.1079 31.4443 20.1265C31.5017 20.1631 31.5543 20.1884 31.5977 20.2065C31.6412 20.2248 31.6757 20.2358 31.699 20.2433C31.7224 20.2502 31.7345 20.2538 31.7345 20.2538C31.7345 20.2538 31.7223 20.2508 31.6985 20.2449C31.6748 20.2387 31.6398 20.2294 31.5952 20.2131C31.5506 20.1969 31.4964 20.1742 31.4361 20.1399C31.3764 20.105 31.3112 20.0581 31.2477 19.995C31.1843 19.9321 31.1228 19.853 31.0695 19.7593C31.016 19.6655 30.9701 19.5576 30.9328 19.4391C30.8573 19.2016 30.8178 18.9226 30.7954 18.6196C30.7739 18.3158 30.7716 17.9867 30.775 17.6394C30.7751 17.596 30.7766 17.5519 30.7766 17.5086C30.7766 17.4871 30.7766 17.4654 30.7766 17.4437C30.7764 17.422 30.7751 17.4003 30.7744 17.3785C30.7707 17.2912 30.7627 17.2032 30.7478 17.1154C30.7332 17.0278 30.7136 16.9398 30.6866 16.8534C30.6594 16.7671 30.626 16.6819 30.5857 16.5991C30.5055 16.4335 30.3978 16.2781 30.2679 16.1397C30.138 16.0009 29.9871 15.8788 29.8238 15.7723C29.4955 15.5601 29.1219 15.409 28.7394 15.2928C28.3562 15.1766 27.9617 15.0971 27.5712 15.0337C27.1805 14.9706 26.7927 14.9265 26.4167 14.8906C26.3699 14.8863 26.3219 14.8803 26.2747 14.8749C26.2274 14.8673 26.1803 14.8613 26.1341 14.8511C26.0875 14.8428 26.0416 14.831 25.9962 14.82C25.951 14.8072 25.906 14.7955 25.8621 14.7802C25.8179 14.7664 25.7749 14.7493 25.732 14.7329C25.6897 14.7152 25.6476 14.6976 25.6069 14.6775C25.5255 14.638 25.4468 14.595 25.3728 14.5467C25.2989 14.4987 25.2287 14.447 25.1628 14.3924C25.0972 14.3375 25.0357 14.2801 24.9778 14.2211C24.8628 14.1022 24.7634 13.9767 24.6779 13.8502C24.5064 13.5967 24.3898 13.341 24.3022 13.1103C24.2151 12.879 24.1588 12.6711 24.1191 12.4987C24.0799 12.3263 24.0591 12.1887 24.0463 12.0949C24.0338 12.001 24.0303 11.9508 24.0303 11.9508Z" fill="#1E2628"/>
<path d="M23.7953 13.0392C23.7953 13.0392 23.7953 16.1374 26.3764 15.867C25.4969 16.1749 23.5962 15.7684 23.7953 13.0392Z" fill="#1E2628"/>
<path d="M18.1757 8.11597C18.1757 8.11597 18.0013 8.88199 18.4854 9.57123C18.2467 9.514 17.8675 8.93353 18.1757 8.11597Z" fill="#1E2628"/>
<path d="M22.5098 8.9434C22.5098 8.9434 22.553 8.99298 22.6409 9.07954C22.685 9.12273 22.7403 9.17498 22.8069 9.23434C22.8739 9.29335 22.9523 9.35982 23.0426 9.43091C23.223 9.5731 23.4528 9.73341 23.7349 9.88306C23.876 9.95788 24.0306 10.0286 24.1984 10.0901C24.3662 10.1513 24.5469 10.204 24.7392 10.2391C24.9313 10.2742 25.135 10.2918 25.3449 10.2847C25.3975 10.2851 25.4503 10.2785 25.5035 10.275C25.5575 10.2703 25.6119 10.2659 25.6666 10.2613L25.7077 10.2577C25.7215 10.2568 25.7358 10.2565 25.7498 10.2559C25.7781 10.2549 25.8063 10.2538 25.8347 10.2527C25.8632 10.251 25.8916 10.2524 25.9201 10.2526C25.9487 10.2533 25.9773 10.2533 26.0061 10.2543C26.1211 10.2614 26.2378 10.2751 26.3541 10.3052C26.4696 10.3368 26.5846 10.3844 26.6866 10.4573C26.7888 10.5296 26.8752 10.6276 26.936 10.7395C26.9976 10.8513 27.0344 10.975 27.057 11.0998C27.0796 11.2249 27.0879 11.3524 27.0879 11.4794C27.0879 11.6069 27.0805 11.7345 27.0689 11.8619C27.0458 12.1171 27.0058 12.3722 26.9646 12.6281L26.9608 12.6521L26.9589 12.6642L26.9575 12.6747L26.9512 12.7228L26.9448 12.7712C26.9424 12.7875 26.9425 12.8023 26.9413 12.8179C26.9361 12.8794 26.9361 12.9425 26.9395 13.0047C26.9473 13.1291 26.9777 13.2511 27.0374 13.3573C27.0506 13.3849 27.0698 13.4087 27.0869 13.4339C27.0949 13.4469 27.1062 13.4576 27.1158 13.4693C27.1261 13.4805 27.1356 13.4926 27.1464 13.5034C27.1907 13.5455 27.2376 13.5859 27.2911 13.6179C27.3965 13.6844 27.5157 13.7311 27.6389 13.7656C27.7622 13.8004 27.8898 13.8233 28.0183 13.8404C28.1468 13.8571 28.2766 13.8678 28.4065 13.8754C28.6665 13.8896 28.9271 13.8914 29.1859 13.8921C29.2507 13.8923 29.3152 13.8923 29.3798 13.8925H29.4281L29.4772 13.8934C29.509 13.8934 29.5431 13.896 29.576 13.8973C29.7066 13.9065 29.8355 13.9248 29.9618 13.9497C30.2144 14.0005 30.4573 14.0764 30.6891 14.168C31.1528 14.3512 31.5708 14.5991 31.9286 14.8821C32.1077 15.0234 32.2714 15.1743 32.4179 15.3312C32.564 15.4883 32.6935 15.6511 32.8043 15.8164C33.0275 16.1465 33.1747 16.4856 33.2605 16.7964C33.3471 17.1076 33.3769 17.3893 33.3808 17.62C33.3854 17.8511 33.3659 18.032 33.3495 18.1543C33.3423 18.2156 33.3334 18.2622 33.3284 18.2936C33.3232 18.3251 33.3204 18.3412 33.3204 18.3412C33.3204 18.3412 33.3227 18.3249 33.327 18.2933C33.3309 18.2618 33.3385 18.2151 33.3439 18.1536C33.3568 18.0311 33.3693 17.8502 33.36 17.6207C33.351 17.3915 33.3149 17.113 33.2223 16.8076C33.1761 16.6549 33.1158 16.4961 33.0375 16.3356C32.9594 16.1749 32.8665 16.0114 32.7538 15.8511C32.5302 15.5297 32.2346 15.2189 31.8797 14.9448C31.5246 14.6708 31.1103 14.4326 30.6548 14.2554C30.4271 14.1672 30.1886 14.0947 29.9428 14.0473C29.8198 14.024 29.6951 14.0071 29.5696 13.9991C29.5381 13.9981 29.5083 13.9956 29.4756 13.9956L29.4281 13.9949L29.3798 13.995C29.3152 13.995 29.2505 13.995 29.1859 13.9952C28.9265 13.995 28.6644 13.9938 28.4008 13.9801C28.2689 13.9728 28.1367 13.9621 28.0045 13.9453C27.8724 13.928 27.7402 13.9047 27.6099 13.8683C27.4802 13.8313 27.3517 13.7814 27.2346 13.7071C27.1752 13.6714 27.1217 13.6257 27.0714 13.5772C27.059 13.5647 27.0479 13.5509 27.0362 13.5377C27.025 13.5242 27.0124 13.512 27.003 13.497C26.9832 13.4681 26.9614 13.4402 26.9459 13.4085C26.8773 13.2855 26.8443 13.1471 26.8359 13.0116C26.8323 12.9438 26.8325 12.8762 26.8384 12.8081C26.8398 12.7735 26.8448 12.7417 26.8491 12.7095L26.8555 12.6613L26.8572 12.6477L26.8592 12.6357L26.8631 12.6118C26.8841 12.484 26.9043 12.3569 26.9228 12.2303C26.9415 12.1038 26.9584 11.978 26.9704 11.8527C26.9825 11.7274 26.9909 11.6028 26.9916 11.4794C26.9925 11.3563 26.9852 11.2342 26.9649 11.1162C26.9443 10.9985 26.9109 10.884 26.856 10.7829C26.8014 10.6816 26.7262 10.5943 26.6352 10.5282C26.5446 10.4617 26.4399 10.4164 26.3322 10.3855C26.2238 10.3562 26.1124 10.3418 26.0016 10.3336C25.9739 10.3322 25.9462 10.3318 25.9186 10.3309C25.8911 10.3304 25.8635 10.3286 25.8362 10.33C25.8088 10.3308 25.7816 10.3315 25.7544 10.3322C25.7409 10.3325 25.7274 10.3325 25.7137 10.3334L25.6727 10.3364C25.6177 10.3404 25.5635 10.3443 25.5095 10.348C25.4549 10.3512 25.4007 10.3569 25.3467 10.3558C25.1313 10.3596 24.9232 10.338 24.7277 10.2989C24.3359 10.2206 23.997 10.0747 23.716 9.91789C23.4347 9.76025 23.2075 9.59389 23.0296 9.44708C22.8512 9.30046 22.7225 9.17231 22.6368 9.08362C22.5514 8.9944 22.5098 8.9434 22.5098 8.9434Z" fill="#1E2628"/>
<path d="M32.7983 17.5833C32.7983 17.5833 32.7937 17.5989 32.786 17.6286C32.778 17.6581 32.7674 17.7019 32.7555 17.7575C32.7434 17.8133 32.7306 17.8814 32.7194 17.9597C32.7078 18.0379 32.6981 18.1266 32.6945 18.2235C32.6908 18.3202 32.6927 18.425 32.7087 18.5335C32.7169 18.5875 32.7279 18.6424 32.7439 18.6968C32.7603 18.7512 32.7814 18.8048 32.8086 18.856C32.8363 18.907 32.8701 18.955 32.9103 18.998C32.9504 19.0409 32.9968 19.0786 33.0484 19.1095C33.0999 19.1402 33.1563 19.164 33.2151 19.1818C33.2298 19.1864 33.2446 19.1907 33.2597 19.1941C33.2746 19.198 33.2897 19.2014 33.305 19.204C33.3203 19.2072 33.3356 19.2099 33.3511 19.2122L33.3987 19.2193C33.5309 19.2378 33.6626 19.268 33.7874 19.314C33.9118 19.3603 34.0298 19.4217 34.1313 19.501C34.2322 19.5805 34.3167 19.6773 34.3703 19.7847C34.4237 19.892 34.4448 20.0068 34.4404 20.1096C34.4356 20.2126 34.4109 20.304 34.3789 20.379C34.3472 20.4544 34.3113 20.5153 34.2786 20.563C34.2463 20.6109 34.2177 20.646 34.1979 20.6696C34.178 20.6931 34.167 20.7051 34.167 20.7051C34.167 20.7051 34.1757 20.6913 34.1921 20.6653C34.2081 20.6392 34.2312 20.6008 34.2571 20.5503C34.2827 20.4999 34.3115 20.4373 34.3344 20.363C34.3566 20.2887 34.3742 20.2025 34.3705 20.1094C34.3675 20.0166 34.344 19.9173 34.2916 19.8261C34.2408 19.7342 34.1638 19.6503 34.0698 19.5819C33.9763 19.5124 33.8668 19.4568 33.7504 19.4139C33.6338 19.3706 33.5099 19.3396 33.3839 19.3208C33.2519 19.3032 33.1148 19.2634 32.9988 19.1902C32.9408 19.1534 32.8882 19.1088 32.8433 19.0586C32.7992 19.008 32.7631 18.9518 32.7345 18.8941C32.6783 18.7777 32.6508 18.6561 32.6403 18.5416C32.6296 18.4268 32.6332 18.3186 32.6428 18.2199C32.6632 18.0223 32.7055 17.8629 32.7388 17.7532C32.7725 17.6436 32.7983 17.5833 32.7983 17.5833Z" fill="#1E2628"/>
<path d="M18.4855 8.94348C18.4855 8.94348 18.4837 8.92606 18.4825 8.89301C18.4819 8.86013 18.4809 8.81178 18.4851 8.75011C18.4897 8.68879 18.4965 8.61397 18.5123 8.52919C18.5281 8.44459 18.5486 8.34915 18.5816 8.24802C18.6145 8.14707 18.6536 8.03794 18.7082 7.92846C18.7147 7.91477 18.721 7.90074 18.7279 7.88687C18.7352 7.87319 18.7425 7.85932 18.7498 7.84564C18.7649 7.81809 18.7789 7.78948 18.7951 7.76175C18.828 7.70665 18.8614 7.64996 18.9001 7.59557C18.9742 7.48449 19.0613 7.37696 19.1561 7.27352C19.1804 7.24846 19.2049 7.22323 19.2295 7.19781C19.2419 7.18537 19.2538 7.17222 19.2668 7.16013L19.3057 7.12405C19.3318 7.10006 19.358 7.07607 19.3841 7.0519C19.4107 7.02843 19.4386 7.0064 19.466 6.98365C19.4937 6.96143 19.5206 6.93815 19.5494 6.91717C19.578 6.89638 19.6068 6.87559 19.6354 6.85479C19.6917 6.81196 19.752 6.77535 19.8105 6.73714C19.8682 6.69768 19.9297 6.66569 19.9891 6.63174C20.0481 6.59708 20.1092 6.56829 20.1686 6.53861C20.1983 6.52386 20.2278 6.50928 20.2569 6.49489C20.2866 6.48174 20.3163 6.46912 20.3456 6.45668C20.3749 6.44423 20.4041 6.43179 20.4327 6.41971C20.4471 6.41367 20.4613 6.40762 20.4753 6.40158C20.4897 6.39625 20.5041 6.39091 20.5184 6.38558C20.5752 6.36479 20.6305 6.34435 20.684 6.32462C20.7107 6.31449 20.7377 6.30685 20.764 6.29867C20.7903 6.2905 20.8161 6.28268 20.8413 6.27486C20.8664 6.26704 20.8911 6.2594 20.9152 6.25211C20.9394 6.24482 20.9629 6.23665 20.9863 6.23149C21.0329 6.21976 21.0771 6.20856 21.1187 6.19825C21.1603 6.18777 21.1991 6.17817 21.2351 6.16929C21.2714 6.162 21.3048 6.15542 21.335 6.14938C21.3951 6.13729 21.4427 6.12894 21.4749 6.12272C21.5072 6.11668 21.5245 6.11348 21.5245 6.11348C21.5245 6.11348 21.5078 6.11863 21.4763 6.12841C21.4449 6.13801 21.3988 6.15276 21.3402 6.17C21.3109 6.17871 21.2785 6.18848 21.2431 6.19897C21.2081 6.21087 21.1704 6.22367 21.1301 6.23735C21.0898 6.25086 21.0469 6.26544 21.0018 6.28054C20.9565 6.29583 20.9101 6.31467 20.861 6.3328C20.8365 6.34204 20.8116 6.35146 20.7862 6.36106C20.7608 6.37066 20.7347 6.3799 20.7091 6.39145C20.6573 6.41331 20.6038 6.43606 20.5487 6.45934C20.5349 6.46503 20.521 6.4709 20.5072 6.47676C20.4935 6.48334 20.4798 6.48973 20.4659 6.49649C20.4384 6.50964 20.4105 6.52297 20.3822 6.53665C20.354 6.55016 20.3253 6.56367 20.2965 6.57718C20.2683 6.59211 20.2399 6.60721 20.2111 6.62232C20.1538 6.65289 20.0948 6.68257 20.0383 6.71812C20.0095 6.73518 19.9807 6.75242 19.9518 6.76984C19.9222 6.78619 19.8943 6.8052 19.8659 6.82387C19.8094 6.86154 19.7511 6.89763 19.6967 6.93975C19.669 6.96019 19.6414 6.98063 19.6137 7.00106C19.586 7.02168 19.5602 7.04461 19.5334 7.06611C19.5067 7.08797 19.4795 7.10912 19.4534 7.1317C19.428 7.15462 19.4026 7.17773 19.3771 7.20083L19.3389 7.23531C19.3265 7.24686 19.3148 7.25948 19.3027 7.27139C19.2787 7.29574 19.2549 7.31991 19.2311 7.34391C19.2071 7.3679 19.1859 7.3942 19.1632 7.41891C19.1409 7.44415 19.1173 7.46779 19.0972 7.49427C19.0763 7.52004 19.0555 7.54563 19.035 7.57104C19.0244 7.58366 19.0148 7.59682 19.0053 7.61015C18.9957 7.6233 18.9863 7.63627 18.9767 7.64942C18.9376 7.70079 18.9049 7.75517 18.8701 7.80671C18.8532 7.83284 18.8384 7.85986 18.8228 7.8858C18.8152 7.89896 18.8073 7.91193 18.7999 7.92491C18.7924 7.93788 18.7858 7.95139 18.7787 7.96436C18.765 7.99067 18.7515 8.01662 18.7382 8.04203C18.7259 8.06816 18.714 8.09393 18.7021 8.11917C18.6895 8.14423 18.6796 8.16964 18.6691 8.19452C18.6588 8.21941 18.6476 8.24358 18.6392 8.26811C18.6301 8.29245 18.6213 8.31627 18.6127 8.33955C18.6049 8.36319 18.5973 8.38612 18.59 8.40869C18.582 8.43108 18.5758 8.4533 18.5695 8.4748C18.5635 8.49649 18.5567 8.51728 18.5519 8.5379C18.5306 8.61983 18.5162 8.69235 18.5061 8.7526C18.4967 8.81285 18.491 8.86048 18.4883 8.89318C18.4857 8.92588 18.4855 8.94348 18.4855 8.94348Z" fill="#1E2628"/>
<path d="M18.8267 8.84344C18.8267 8.84344 18.8338 8.82283 18.8496 8.78497C18.8659 8.74747 18.8898 8.69184 18.9257 8.62395C18.9616 8.55641 19.0062 8.47412 19.0652 8.3849C19.0794 8.36197 19.0949 8.33922 19.111 8.31576C19.1272 8.29248 19.1432 8.26778 19.161 8.2436C19.1965 8.19508 19.2342 8.14425 19.2761 8.09325C19.3167 8.04099 19.3629 7.99016 19.4094 7.93595C19.4334 7.90965 19.4585 7.8837 19.4839 7.85686C19.4965 7.84353 19.5093 7.83021 19.5223 7.8167C19.5356 7.80355 19.5491 7.79057 19.5628 7.77724C19.6698 7.66989 19.7919 7.5661 19.9227 7.46461C19.9897 7.41592 20.0564 7.3642 20.1282 7.31834C20.1639 7.29506 20.1991 7.27053 20.2357 7.24778C20.2729 7.22574 20.3102 7.2037 20.3475 7.18167C20.3663 7.17065 20.3852 7.15963 20.404 7.14861C20.4232 7.13848 20.4426 7.12835 20.462 7.11804C20.5007 7.09778 20.5396 7.07716 20.5785 7.05672C20.618 7.03717 20.6583 7.01922 20.6982 7.00038L20.7582 6.97248C20.7781 6.96306 20.7982 6.95382 20.8188 6.94582C20.9822 6.87881 21.1484 6.81821 21.3152 6.77004C21.357 6.75813 21.3986 6.74623 21.4398 6.7345C21.4811 6.72188 21.5232 6.71388 21.5646 6.70411C21.606 6.69486 21.6472 6.68544 21.6881 6.67638C21.7087 6.67194 21.729 6.66643 21.7494 6.66323C21.7701 6.65949 21.7903 6.65594 21.8108 6.65239C21.8515 6.64545 21.8916 6.63834 21.9316 6.63141C21.9716 6.62448 22.0111 6.61702 22.0505 6.61329C22.1294 6.60404 22.2066 6.59498 22.2816 6.58609C22.3567 6.57987 22.4301 6.57525 22.5011 6.57063C22.5364 6.56868 22.5713 6.56565 22.6054 6.56476C22.6397 6.56423 22.6733 6.5637 22.7062 6.56316C22.7719 6.5621 22.835 6.56121 22.8949 6.5605C22.9548 6.56156 23.0117 6.56441 23.065 6.56619C23.1183 6.56814 23.1681 6.5701 23.2143 6.57187C23.2603 6.57401 23.3026 6.57916 23.3408 6.582C23.4171 6.5884 23.4768 6.59462 23.5177 6.59853C23.5584 6.60244 23.5801 6.6044 23.5801 6.6044C23.5801 6.6044 23.5582 6.6044 23.5173 6.60422C23.4763 6.60404 23.4162 6.60422 23.3399 6.60315C23.3017 6.60315 23.2596 6.60138 23.2136 6.6028C23.1675 6.60404 23.118 6.60546 23.0648 6.60688C23.0117 6.60848 22.9553 6.6092 22.8958 6.61186C22.8366 6.61577 22.7742 6.62004 22.709 6.6243C22.6765 6.62644 22.6434 6.62857 22.6095 6.6307C22.5757 6.63337 22.5414 6.63799 22.5066 6.64172C22.4367 6.64972 22.3646 6.6563 22.2904 6.66518C22.2169 6.67656 22.1412 6.68811 22.0638 6.70002C22.0251 6.70535 21.9865 6.7137 21.9473 6.72134C21.9081 6.72899 21.8687 6.73681 21.8289 6.74463C21.809 6.74854 21.7891 6.75245 21.769 6.75636C21.7487 6.76009 21.729 6.76596 21.7091 6.77058C21.6691 6.78053 21.6288 6.79048 21.5882 6.80061C21.5068 6.81909 21.4265 6.8454 21.3447 6.86868C21.1816 6.91703 21.0197 6.97763 20.8604 7.0441C20.8403 7.05157 20.8206 7.06045 20.8011 7.0697L20.7422 7.09653C20.7031 7.11466 20.6635 7.13172 20.6251 7.15056C20.5869 7.17029 20.5489 7.19002 20.5108 7.20975C20.4918 7.21952 20.4728 7.2293 20.454 7.23907C20.4355 7.24974 20.417 7.2604 20.3987 7.27089C20.3619 7.29222 20.3253 7.31336 20.2888 7.33451C20.2526 7.35584 20.2178 7.37912 20.1826 7.40116C20.1113 7.44435 20.0454 7.49358 19.9787 7.53962C19.8495 7.63683 19.7258 7.73316 19.6174 7.83482C19.6035 7.84727 19.5898 7.85971 19.5763 7.87197C19.5632 7.88477 19.5502 7.89739 19.5372 7.91001C19.5115 7.93542 19.486 7.9603 19.461 7.98465C19.413 8.03548 19.365 8.08329 19.3227 8.1327C19.236 8.22939 19.1617 8.32287 19.0986 8.40783C19.0353 8.49278 18.9847 8.5701 18.944 8.63443C18.9036 8.69913 18.8743 8.75138 18.8549 8.78746C18.8357 8.82354 18.8267 8.84344 18.8267 8.84344Z" fill="#1E2628"/>
<path d="M19.272 8.73724C19.272 8.73724 19.2906 8.72231 19.3265 8.69601C19.3626 8.6697 19.4154 8.63096 19.4852 8.58564C19.5549 8.53961 19.6406 8.48575 19.7412 8.42781C19.8414 8.36898 19.9571 8.30713 20.0851 8.24297C20.2138 8.18041 20.3538 8.11323 20.5063 8.05227C20.5251 8.04445 20.5443 8.03645 20.5635 8.02845C20.5829 8.02099 20.6025 8.01334 20.622 8.0057C20.6613 7.9906 20.7011 7.97514 20.7413 7.95967C20.7818 7.94492 20.823 7.93052 20.8646 7.91595C20.906 7.90155 20.948 7.8868 20.991 7.87365C21.0336 7.86014 21.0766 7.84646 21.1202 7.83277C21.1636 7.81909 21.208 7.80736 21.2522 7.79456C21.2967 7.7823 21.3409 7.76826 21.3864 7.75759C21.4318 7.74639 21.4773 7.7352 21.5231 7.724C21.5686 7.71227 21.615 7.70321 21.6614 7.69325C21.7079 7.68348 21.7543 7.6737 21.8011 7.66393C21.848 7.65575 21.8951 7.64758 21.9422 7.63922C21.9893 7.6314 22.0362 7.62198 22.0837 7.61612C22.1311 7.60972 22.1786 7.6035 22.226 7.59728C22.2498 7.59426 22.2733 7.59053 22.2971 7.58822L22.3684 7.58146C22.4158 7.57684 22.4633 7.5724 22.5104 7.56795C22.5577 7.56316 22.605 7.56191 22.6521 7.55871C22.699 7.55604 22.7459 7.55338 22.7925 7.55071C22.8392 7.55018 22.8856 7.54947 22.9318 7.54894C22.978 7.5484 23.0239 7.54787 23.0694 7.54752C23.1149 7.54876 23.16 7.55 23.205 7.55142C23.2498 7.55267 23.2942 7.55409 23.3383 7.55534C23.3822 7.558 23.4257 7.56155 23.4687 7.56493C23.5117 7.56831 23.5542 7.57151 23.5962 7.57471C23.6173 7.57613 23.6381 7.57862 23.6587 7.58128C23.6793 7.58377 23.6999 7.58626 23.7204 7.58875C23.7611 7.59355 23.8013 7.59852 23.8409 7.60332C23.8606 7.60563 23.8803 7.60812 23.8997 7.61043C23.9193 7.61292 23.9385 7.61665 23.9575 7.61985C24.0335 7.633 24.1071 7.64562 24.1777 7.65771C24.2129 7.66357 24.247 7.67228 24.2804 7.67921C24.3138 7.68668 24.3465 7.69379 24.3783 7.70089C24.442 7.71511 24.5024 7.72809 24.5582 7.74444C24.6142 7.7599 24.6666 7.7743 24.7151 7.78763C24.7393 7.79438 24.7624 7.80096 24.7846 7.80718C24.8067 7.81358 24.8273 7.82104 24.8472 7.82744C24.9265 7.85321 24.9881 7.87472 25.0304 7.88894C25.0726 7.90315 25.0951 7.9108 25.0951 7.9108C25.0951 7.9108 25.072 7.90511 25.0287 7.89444C24.9855 7.8836 24.9218 7.8685 24.8415 7.84788C24.8214 7.8429 24.8005 7.83686 24.7779 7.83206C24.7555 7.82744 24.732 7.82264 24.7075 7.81767C24.6586 7.80736 24.6057 7.79616 24.5491 7.78425C24.493 7.7711 24.4322 7.76186 24.3682 7.75137C24.3044 7.74124 24.2376 7.72809 24.1674 7.71814C24.0972 7.70925 24.0238 7.70001 23.9481 7.69059C23.929 7.68828 23.91 7.68543 23.8907 7.68348C23.8713 7.68188 23.8517 7.6801 23.8322 7.6785C23.7929 7.67495 23.7529 7.67139 23.7126 7.66784C23.6923 7.66606 23.672 7.66428 23.6516 7.66251C23.6312 7.66073 23.6106 7.65877 23.5896 7.65824C23.5482 7.65628 23.506 7.65451 23.4634 7.65255C23.4209 7.6506 23.3779 7.64847 23.3345 7.64651C23.2912 7.64615 23.2473 7.64562 23.203 7.64527C23.1589 7.64491 23.1143 7.64438 23.0694 7.64402C23.0246 7.64544 22.9794 7.64669 22.9339 7.64811C22.8884 7.64971 22.8428 7.65113 22.7967 7.65273C22.7509 7.65557 22.7047 7.6586 22.6584 7.66144C22.6122 7.66499 22.5655 7.66642 22.5191 7.67139C22.4727 7.67619 22.426 7.68099 22.3794 7.68579L22.3092 7.6929C22.2859 7.69521 22.2626 7.69912 22.2394 7.70214C22.1926 7.70854 22.1459 7.71512 22.0993 7.72151C22.0524 7.72702 22.0062 7.73591 21.9596 7.74337C21.9132 7.75137 21.8668 7.75902 21.8206 7.76684C21.7746 7.77626 21.7286 7.7855 21.6829 7.79492C21.637 7.80433 21.5912 7.81287 21.5462 7.82424C21.4559 7.84592 21.366 7.86583 21.2782 7.89C21.2343 7.90191 21.1904 7.91257 21.1472 7.92519C21.1042 7.93799 21.0614 7.95061 21.0189 7.96305C20.9764 7.97513 20.9346 7.98882 20.8934 8.00233C20.852 8.01584 20.8111 8.02899 20.7706 8.04214C20.7303 8.05618 20.6904 8.07004 20.6512 8.08373C20.6316 8.09066 20.6121 8.09759 20.5927 8.10434C20.5733 8.11163 20.5543 8.11892 20.5353 8.12603C20.4972 8.14042 20.4599 8.15464 20.423 8.16868C20.3863 8.18344 20.3504 8.19801 20.3149 8.21223C20.2971 8.21934 20.2795 8.22645 20.2621 8.23338C20.2449 8.24084 20.2278 8.24813 20.2107 8.25541C20.1768 8.26981 20.1436 8.28421 20.111 8.29807C20.0465 8.32775 19.9841 8.35494 19.9258 8.3832C19.8967 8.39707 19.8683 8.41057 19.8405 8.42373C19.813 8.43741 19.7863 8.45056 19.7606 8.46354C19.6576 8.51579 19.5684 8.56271 19.4963 8.60359C19.4239 8.64429 19.3676 8.67735 19.3297 8.70063C19.2917 8.72391 19.272 8.73724 19.272 8.73724Z" fill="#1E2628"/>
<path d="M27.5229 15.5561C27.5229 15.5561 27.5407 15.5595 27.5736 15.5668C27.6067 15.5745 27.655 15.5853 27.7158 15.6025C27.7766 15.6196 27.8503 15.6411 27.9335 15.6699C28.0169 15.6983 28.1103 15.7325 28.2104 15.7746C28.3106 15.8163 28.418 15.8647 28.5287 15.9219C28.6396 15.9786 28.755 16.0426 28.8696 16.116C28.9846 16.1892 29.1008 16.2694 29.2128 16.3593C29.3251 16.4484 29.4337 16.5463 29.5365 16.6501C29.6385 16.7546 29.733 16.8664 29.8189 16.9821C29.9049 17.0974 29.9792 17.2188 30.0437 17.3397C30.108 17.4607 30.1598 17.583 30.2017 17.7012C30.2438 17.8194 30.2737 17.9342 30.2959 18.041C30.3078 18.0941 30.3158 18.1459 30.324 18.1947C30.327 18.2194 30.3302 18.2434 30.333 18.2667C30.3361 18.29 30.3389 18.3126 30.3405 18.3346C30.3442 18.3787 30.3489 18.4196 30.3496 18.4578C30.3512 18.496 30.3533 18.5308 30.353 18.5625C30.3531 18.5941 30.3535 18.6224 30.3531 18.6469C30.3522 18.6714 30.3514 18.6922 30.3508 18.7091C30.3494 18.7429 30.3487 18.7608 30.3487 18.7608C30.3487 18.7608 30.3474 18.7429 30.345 18.7091C30.3437 18.6924 30.3421 18.6716 30.3403 18.6472C30.3378 18.6231 30.335 18.5952 30.3318 18.5639C30.3291 18.5326 30.324 18.4981 30.3188 18.4608C30.3142 18.4233 30.3073 18.3831 30.3002 18.3401C30.297 18.3186 30.2923 18.2966 30.2877 18.2738C30.2829 18.2513 30.2781 18.228 30.2733 18.2042C30.2616 18.1567 30.2513 18.1066 30.2364 18.0552C30.2081 17.9523 30.1724 17.8425 30.1271 17.7293C30.0816 17.6162 30.0257 17.5005 29.9612 17.3846C29.8964 17.2689 29.8196 17.1552 29.7362 17.0438C29.6525 16.9325 29.5599 16.8251 29.4602 16.7245C29.3616 16.6232 29.2569 16.5271 29.1481 16.4393C29.0395 16.3515 28.9297 16.2683 28.8184 16.1946C28.7075 16.1204 28.5979 16.052 28.491 15.9918C28.3844 15.9315 28.2815 15.8773 28.1852 15.8302C28.0888 15.7831 27.9991 15.7424 27.9189 15.7078C27.8386 15.6736 27.7679 15.645 27.7092 15.6226C27.6504 15.6004 27.604 15.5832 27.5722 15.5723C27.5402 15.5615 27.5229 15.5561 27.5229 15.5561Z" fill="#1E2628"/>
<path d="M26.0548 12.3986C26.0548 12.3986 26.0552 12.4262 26.0589 12.4779C26.0628 12.5295 26.0708 12.605 26.0856 12.7001C26.1005 12.7952 26.1238 12.9098 26.1601 13.0385C26.1968 13.1668 26.2479 13.3088 26.3205 13.4551C26.3936 13.6008 26.4917 13.7494 26.6182 13.8845C26.6485 13.9197 26.6844 13.9501 26.7188 13.9826C26.7355 13.9993 26.7547 14.0135 26.7736 14.0284C26.7924 14.0432 26.8113 14.0581 26.8303 14.0732C26.8502 14.0871 26.8706 14.1001 26.8909 14.1137L26.9214 14.1342L26.9367 14.1445C26.9421 14.1477 26.9476 14.1505 26.9529 14.1536C26.9746 14.1656 26.9963 14.1775 27.018 14.1896L27.0507 14.2079L27.085 14.2234C27.131 14.2438 27.1765 14.2662 27.2254 14.2815C27.2495 14.2901 27.2737 14.2986 27.2979 14.3071C27.3224 14.3153 27.3478 14.3206 27.3727 14.3276C27.3978 14.3341 27.423 14.3407 27.4482 14.3473C27.4738 14.3524 27.4998 14.3565 27.5256 14.3613C27.5513 14.3659 27.5773 14.3707 27.6032 14.3755C27.6295 14.3787 27.6558 14.3812 27.6823 14.3841C27.7088 14.3869 27.7351 14.3898 27.7618 14.3926C27.7882 14.3951 27.8151 14.3947 27.8419 14.396C27.8956 14.3972 27.9493 14.4015 28.0033 14.3979C28.0577 14.3958 28.1106 14.3947 28.1663 14.3917C28.2214 14.3883 28.2765 14.3851 28.3316 14.3818C28.3867 14.3787 28.4418 14.3757 28.4969 14.3727C28.5519 14.3697 28.6074 14.3683 28.6625 14.3659C28.7729 14.3619 28.8827 14.3565 28.9918 14.3555C29.0462 14.3546 29.1006 14.3535 29.1546 14.3526C29.2087 14.3512 29.2627 14.3531 29.3162 14.3533C29.3697 14.354 29.4228 14.3547 29.4756 14.3553C29.5284 14.3567 29.581 14.3595 29.6329 14.3615C29.659 14.3627 29.6848 14.3638 29.7106 14.3649C29.7363 14.3658 29.7621 14.367 29.7877 14.3693C29.8387 14.3736 29.8892 14.3777 29.9393 14.3818C29.9893 14.3851 30.0387 14.3922 30.0874 14.3983C30.1361 14.4049 30.1842 14.4098 30.2315 14.4177C30.3259 14.4353 30.4181 14.4484 30.5056 14.4719C30.5274 14.4772 30.5491 14.4825 30.5706 14.4877C30.5815 14.4904 30.5921 14.4928 30.6028 14.4955C30.6134 14.4984 30.6239 14.5017 30.6342 14.5049C30.676 14.5175 30.7169 14.5302 30.7569 14.5424C30.777 14.5479 30.7963 14.5552 30.8155 14.5625C30.8347 14.5698 30.8537 14.5767 30.8724 14.5838C30.9097 14.5981 30.9469 14.6103 30.9813 14.6269C31.016 14.6425 31.0499 14.6576 31.0828 14.6723C31.091 14.6759 31.0992 14.6796 31.1072 14.6832C31.1152 14.6873 31.123 14.6914 31.1308 14.6953C31.1463 14.7033 31.1616 14.7111 31.1767 14.7189C31.2067 14.7344 31.2359 14.7493 31.2639 14.7637C31.2913 14.7795 31.3178 14.7948 31.343 14.8094C31.3683 14.824 31.3926 14.838 31.4157 14.8515C31.4385 14.8657 31.46 14.8792 31.4806 14.892C31.5215 14.918 31.5584 14.9405 31.5895 14.9615C31.6206 14.9827 31.6471 15.0004 31.6686 15.015C31.7115 15.044 31.7344 15.0594 31.7344 15.0594C31.7344 15.0594 31.7104 15.0458 31.6654 15.02C31.643 15.007 31.6153 14.9912 31.5828 14.9725C31.5503 14.9539 31.512 14.9338 31.4699 14.9105C31.4488 14.899 31.4264 14.8867 31.4031 14.8739C31.3793 14.862 31.3544 14.8495 31.3285 14.8366C31.3025 14.8234 31.2755 14.8099 31.2476 14.7957C31.2191 14.7829 31.1896 14.7696 31.1591 14.7557C31.0377 14.6994 30.8957 14.6478 30.7387 14.6009C30.6991 14.5904 30.6588 14.5798 30.6175 14.5689C30.6072 14.5662 30.5969 14.5634 30.5864 14.5609C30.5758 14.5588 30.5653 14.5566 30.5546 14.5545C30.5333 14.5503 30.5118 14.546 30.4901 14.5415C30.4041 14.522 30.3131 14.5108 30.2203 14.4964C30.0335 14.4749 29.8355 14.4594 29.6295 14.4553C29.5782 14.4543 29.5263 14.4525 29.474 14.452C29.4218 14.4521 29.369 14.4525 29.316 14.4527C29.2099 14.4523 29.1026 14.4562 28.9941 14.4585C28.8859 14.4601 28.777 14.466 28.6675 14.4706C28.6127 14.4733 28.558 14.4749 28.5029 14.4784C28.4478 14.4816 28.3927 14.4848 28.3376 14.4882C28.2825 14.4912 28.2272 14.4943 28.1721 14.4971C28.1178 14.5 28.0605 14.5008 28.0049 14.5026C27.9491 14.506 27.8929 14.5014 27.8373 14.4998C27.8094 14.4982 27.7815 14.4984 27.7538 14.4955C27.726 14.4925 27.6983 14.4895 27.6708 14.4863C27.45 14.4617 27.2353 14.4015 27.0443 14.3076L27.0082 14.2906L26.9739 14.2709C26.951 14.2575 26.9282 14.2444 26.9056 14.2312C26.8999 14.228 26.8943 14.2248 26.8887 14.2214L26.8726 14.2103L26.8406 14.1879C26.8196 14.1729 26.7983 14.1584 26.7777 14.1431C26.7581 14.1267 26.7386 14.1104 26.719 14.0942C26.6996 14.0778 26.6799 14.0622 26.6627 14.0443C26.6271 14.0091 26.5905 13.9758 26.5596 13.9381C26.4302 13.7928 26.3348 13.6342 26.2654 13.4814C26.1961 13.3282 26.1515 13.1805 26.1208 13.0486C26.0898 12.9164 26.074 12.7993 26.0646 12.7027C26.055 12.6061 26.0536 12.53 26.0532 12.4781C26.0531 12.4262 26.0548 12.3986 26.0548 12.3986Z" fill="#1E2628"/>
<path d="M30.0977 15.3751C30.0977 15.3751 30.12 15.3836 30.1609 15.4023C30.2016 15.421 30.2613 15.4491 30.3347 15.4899C30.4081 15.5306 30.4961 15.5825 30.5926 15.6492C30.6893 15.7156 30.7951 15.7956 30.9031 15.8921C31.0112 15.9883 31.1223 16.1003 31.227 16.23C31.3318 16.3592 31.4319 16.5055 31.5154 16.6679C31.5991 16.83 31.6691 17.0072 31.7145 17.1942C31.7609 17.3808 31.7847 17.5758 31.7866 17.7707C31.7884 17.8667 31.7872 17.9623 31.7893 18.0567C31.7909 18.1511 31.7939 18.2455 31.7985 18.3388C31.8033 18.4321 31.8101 18.5241 31.8181 18.615C31.8279 18.7056 31.8378 18.795 31.8545 18.8814C31.8613 18.9249 31.8719 18.967 31.881 19.0092C31.8924 19.0504 31.9022 19.092 31.9155 19.1316C31.9409 19.2114 31.9715 19.2875 32.0111 19.3557C32.05 19.4243 32.0966 19.4857 32.148 19.539C32.199 19.593 32.2573 19.6364 32.3157 19.6742C32.4336 19.7491 32.5555 19.7967 32.6648 19.8338C32.7745 19.8703 32.8724 19.8968 32.9534 19.9167C33.0345 19.9366 33.0985 19.9519 33.1422 19.9614C33.1861 19.9712 33.2094 19.9764 33.2094 19.9764C33.2094 19.9764 33.1857 19.9732 33.1413 19.9671C33.1189 19.9641 33.0915 19.9604 33.0594 19.9554C33.0272 19.9506 32.9902 19.9449 32.949 19.9373C32.8663 19.9231 32.7661 19.9039 32.6529 19.8729C32.5398 19.8418 32.4119 19.8006 32.2839 19.7267C32.2205 19.6895 32.156 19.646 32.098 19.5898C32.0397 19.5345 31.9873 19.4688 31.9425 19.3961C31.8974 19.3236 31.862 19.2432 31.8323 19.1597C31.8165 19.1181 31.8051 19.0749 31.7925 19.0316C31.7822 18.9878 31.7703 18.9439 31.7623 18.8992C31.7266 18.7202 31.7058 18.5336 31.6956 18.3443C31.6846 18.1555 31.6823 17.962 31.6802 17.7718C31.6795 17.5845 31.6578 17.3975 31.6146 17.2184C31.6027 17.1739 31.5906 17.1297 31.5787 17.0856C31.5646 17.0422 31.5504 16.999 31.5364 16.9562C31.5199 16.9141 31.5035 16.8723 31.4872 16.8309C31.4685 16.7904 31.4509 16.7497 31.4317 16.7102C31.3535 16.5526 31.2625 16.4079 31.1646 16.2789C31.0663 16.15 30.9632 16.0359 30.8615 15.9367C30.7597 15.8379 30.6602 15.753 30.5686 15.6821C30.4769 15.6113 30.3939 15.5534 30.3239 15.5081C30.2539 15.4629 30.1975 15.4291 30.1583 15.4075C30.1193 15.3856 30.0977 15.3751 30.0977 15.3751Z" fill="#1E2628"/>
<path d="M18.4851 9.57107C18.1391 10.298 18.2187 11.7893 18.5784 12.3664C18.8664 12.8285 17.6638 15.3878 19.0915 14.5194C19.4829 15.2218 19.881 15.9095 20.3083 16.0628C20.5614 16.1535 21.2599 15.8999 21.7714 15.7108C22.2088 15.8796 23.1221 16.5639 23.3583 17.7979C23.8167 17.5762 24.1366 17.4429 24.1366 17.4429C24.1366 17.4429 23.4733 14.7962 23.7947 13.0391C24.039 12.8792 24.2317 12.6149 24.2317 11.9192C24.2317 10.4263 23.131 10.504 22.9977 11.3505C21.5268 11.4326 20.2784 11.4877 18.4851 9.57107Z" fill="#F8A267"/>
<path d="M19.2393 12.6592C19.2393 12.6592 19.8087 12.7154 20.1855 12.2256C20.0193 12.5238 19.7616 12.9065 19.2393 12.6592Z" fill="#2E393C"/>
<path d="M18.7062 11.8418C18.7062 11.8418 19.2124 11.2233 20.0376 11.2967C19.772 11.1408 19.4535 11.1298 19.1477 11.2336C18.7361 11.3735 18.5164 11.652 18.7062 11.8418Z" fill="#2E393C"/>
<path d="M19.6479 15.0594C19.9515 14.9185 20.1321 14.6181 20.2167 14.3023C20.2403 14.6633 20.0256 15.0232 19.6479 15.0594Z" fill="#B96F3E"/>
<path d="M19.2393 12.543C19.2393 12.543 19.2833 11.8911 20.1187 12.1665C19.8787 12.0244 19.2393 11.8351 19.2393 12.543Z" fill="#B96F3E"/>
<path d="M19.4517 14.2447C19.317 14.3927 19.0913 14.5196 19.0913 14.5196C19.1151 14.5621 19.1388 14.6047 19.1626 14.647C19.2834 14.532 19.4102 14.3676 19.4517 14.2447Z" fill="#B96F3E"/>
<path d="M23.2347 14.2446C23.2347 15.2073 21.7715 15.7108 21.7715 15.7108C21.8561 15.7435 21.9585 15.7956 22.0702 15.8671C23.0408 15.4211 23.3149 14.6654 23.2347 14.2446Z" fill="#B96F3E"/>
<path d="M23.7949 13.0392C23.6207 13.1937 23.4784 13.2443 23.3179 13.0538C23.5056 13.1585 23.5953 13.0495 23.7949 13.0392Z" fill="#B96F3E"/>
<path d="M23.248 11.6824C23.248 11.6824 23.5427 10.9004 23.7949 11.3507C24.0471 11.8009 23.8747 12.5446 23.4126 12.4616C23.5431 12.1535 23.5575 12.18 23.248 11.6824Z" fill="#B96F3E"/>
<path d="M19.0583 23.8445C18.5235 23.3871 16.6372 20.012 16.4763 18.4479C17.0618 18.2346 18.3859 18.5778 18.5784 17.4763C18.7709 16.3749 18.8949 15.8671 18.2265 15.8671C18.0401 15.6807 17.7372 15.6789 17.4623 15.7621C17.328 15.6131 16.913 15.477 16.4162 15.6103C15.6529 15.7702 14.4478 16.1109 14.4478 17.0568C14.4478 18.0029 15.6132 27.0503 17.5588 28.6882C17.9832 29.0455 18.8015 28.5306 19.3352 28.2435C20.3211 27.4997 20.3054 24.3585 19.0583 23.8445Z" fill="#F8A267"/>
<path d="M30.4625 21.884C30.4625 21.884 30.0308 16.9285 27.1491 16.015C25.4013 15.4612 24.7713 15.9709 22.861 18.1742C21.4976 19.7471 19.7832 23.1194 19.0581 23.8445C19.7427 24.9578 20.0376 27.3936 19.335 28.2435C20.7917 27.3023 21.988 26.2082 23.2479 24.6685C25.3439 22.1072 26.2681 21.4884 27.3167 20.7051C28.3099 21.5107 29.6091 21.2705 30.4625 21.884Z" fill="#3D4B96"/>
<path d="M27.3169 20.7051C27.3169 20.7051 27.3276 20.6954 27.3475 20.6806C27.3674 20.6657 27.3965 20.646 27.433 20.625C27.4696 20.6044 27.5131 20.5821 27.5615 20.5622C27.5856 20.5519 27.611 20.5429 27.6368 20.5338C27.6628 20.5246 27.6898 20.5173 27.7164 20.5091C27.7436 20.5025 27.7706 20.4954 27.7978 20.4903C27.8113 20.4876 27.8248 20.4853 27.8382 20.4832C27.8515 20.481 27.8647 20.4787 27.878 20.4776C27.9043 20.4748 27.9294 20.472 27.9537 20.4714C27.9781 20.4709 28.001 20.4704 28.0221 20.4712C28.0435 20.4727 28.063 20.4744 28.0801 20.4762C28.0971 20.4778 28.1122 20.4819 28.1243 20.4842C28.1366 20.4865 28.146 20.4894 28.1526 20.4908C28.159 20.4926 28.1624 20.4935 28.1624 20.4935C28.1624 20.4935 28.159 20.4947 28.1526 20.497C28.1462 20.4988 28.1368 20.5023 28.125 20.5054C28.1133 20.5089 28.0991 20.5123 28.0831 20.5175C28.0669 20.5224 28.0488 20.5276 28.0292 20.5327C28.0095 20.5381 27.9885 20.5448 27.9661 20.5507C27.9437 20.5564 27.9205 20.5642 27.8961 20.5704C27.8719 20.5766 27.8471 20.5848 27.8215 20.591C27.7961 20.5981 27.7703 20.6053 27.7443 20.612C27.7184 20.6193 27.6924 20.626 27.6667 20.6326C27.6411 20.6397 27.6157 20.6456 27.591 20.6518C27.5417 20.6637 27.4953 20.6746 27.4548 20.6826C27.4143 20.6909 27.38 20.6966 27.3556 20.7002C27.3436 20.7021 27.3338 20.703 27.3272 20.7041C27.3204 20.7048 27.3169 20.7051 27.3169 20.7051Z" fill="#263261"/>
<path d="M27.1494 16.0149C27.1494 16.0149 27.1057 16.0146 27.0247 16.0258C26.9438 16.0364 26.8261 16.0594 26.68 16.102C26.5339 16.1445 26.3598 16.2076 26.1682 16.2977C25.9764 16.3871 25.7677 16.504 25.5495 16.6461C25.3314 16.7881 25.1057 16.9582 24.878 17.1508C24.6502 17.3433 24.4227 17.5614 24.198 17.7969C23.9736 18.0325 23.7526 18.2869 23.5399 18.5547C23.3264 18.8218 23.1203 19.1019 22.923 19.3883C22.8249 19.5319 22.7293 19.6764 22.6344 19.8223C22.5387 19.9673 22.4436 20.112 22.3493 20.2552C22.2544 20.3985 22.1602 20.5405 22.0672 20.6809C21.9732 20.8206 21.8802 20.9585 21.7889 21.0941C21.6051 21.3648 21.4272 21.6264 21.2543 21.8715C21.2113 21.933 21.1686 21.9934 21.1268 22.0531C21.0845 22.1125 21.043 22.171 21.0019 22.2284C20.9207 22.3437 20.8393 22.4532 20.7621 22.5591C20.6845 22.6645 20.6093 22.7651 20.5375 22.8604C20.465 22.9551 20.396 23.0451 20.3294 23.1281C20.1978 23.2955 20.0779 23.4371 19.9784 23.553C19.9272 23.6099 19.8827 23.6616 19.8417 23.7046C19.8004 23.7475 19.7663 23.7844 19.7372 23.8132C19.6791 23.8706 19.6479 23.9014 19.6479 23.9014C19.6479 23.9014 19.6773 23.8692 19.7327 23.8089C19.7601 23.7787 19.7924 23.74 19.8314 23.6954C19.8698 23.6502 19.9126 23.5973 19.9613 23.5388C20.0562 23.4194 20.1703 23.2738 20.2952 23.1019C20.4209 22.9308 20.5595 22.7355 20.7092 22.5211C20.7833 22.4136 20.8604 22.3013 20.9402 22.1852C20.98 22.1271 21.0204 22.0679 21.0614 22.0078C21.1021 21.9474 21.1434 21.8863 21.1851 21.8241C21.3522 21.5754 21.5276 21.3127 21.708 21.0401C21.8875 20.7669 22.0733 20.4847 22.2618 20.198C22.4504 19.9111 22.6374 19.6168 22.8366 19.3285C23.0364 19.0413 23.244 18.7591 23.4615 18.4916C23.6785 18.2238 23.9039 17.9694 24.1328 17.7339C24.3628 17.4993 24.5963 17.2834 24.8297 17.0927C25.0625 16.9016 25.2953 16.7363 25.5186 16.5975C25.7418 16.4584 25.9572 16.3489 26.1532 16.2641C26.3493 16.1795 26.5266 16.1214 26.6749 16.0834C26.8231 16.045 26.9427 16.0283 27.0241 16.0204C27.1057 16.0128 27.1494 16.0149 27.1494 16.0149Z" fill="#FFFBF1"/>
<path d="M20.0376 25.194C20.0376 25.194 20.0708 25.1593 20.1313 25.0923C20.1917 25.0255 20.2782 24.9256 20.3874 24.7976C20.496 24.6693 20.6259 24.5117 20.7706 24.3277C20.9152 24.1436 21.0745 23.9328 21.2449 23.7007C21.4152 23.4682 21.5942 23.2126 21.7794 22.9395C21.9642 22.6661 22.1524 22.3734 22.3424 22.0677C22.5322 21.7618 22.7211 21.4415 22.9069 21.1126C22.9531 21.0301 22.9993 20.9473 23.0457 20.8643C23.0923 20.7807 23.1385 20.6974 23.1868 20.6137C23.2826 20.447 23.3821 20.2815 23.4854 20.1183C23.6923 19.7924 23.9157 19.4764 24.1506 19.1773C24.3852 18.8778 24.6353 18.5979 24.8923 18.3421C25.0212 18.2147 25.1518 18.0931 25.284 17.979C25.4163 17.8651 25.5501 17.7588 25.6839 17.66C25.8177 17.5613 25.9514 17.47 26.0847 17.3879C26.2178 17.3058 26.3499 17.2318 26.4794 17.1664C26.6088 17.1008 26.7355 17.0433 26.8585 16.9944C26.9815 16.9457 27.1002 16.905 27.2129 16.8712C27.4386 16.8033 27.6407 16.7649 27.8078 16.742C27.9752 16.7193 28.1078 16.7143 28.1979 16.7123C28.2431 16.7113 28.2777 16.7116 28.301 16.712C28.3243 16.7121 28.3362 16.7123 28.3362 16.7123C28.3362 16.7123 28.3243 16.7127 28.301 16.7134C28.2777 16.7143 28.2432 16.7152 28.1983 16.7182C28.1083 16.7237 27.9766 16.7358 27.811 16.7628C27.6457 16.7911 27.4463 16.8355 27.2252 16.9098C27.1146 16.9467 26.9986 16.9908 26.8786 17.0427C26.7585 17.0943 26.6344 17.1538 26.5081 17.2215C26.2555 17.3569 25.9933 17.5251 25.7323 17.7245C25.4712 17.9237 25.2119 18.1546 24.9593 18.4091C24.7075 18.6643 24.4642 18.9444 24.2319 19.2411C23.9999 19.5379 23.7808 19.8523 23.575 20.1754C23.4721 20.3368 23.3727 20.5006 23.2771 20.6658C23.2295 20.7479 23.1825 20.8316 23.1361 20.9144C23.0892 20.9976 23.0425 21.0806 22.9959 21.163C22.8077 21.4924 22.614 21.8116 22.421 22.1169C22.2281 22.4224 22.033 22.712 21.8435 22.9835C21.6544 23.2553 21.4683 23.507 21.2927 23.7364C21.1177 23.966 20.951 24.1718 20.8004 24.3519C20.6501 24.5319 20.5152 24.6858 20.4025 24.811C20.29 24.9363 20.1981 25.0315 20.1352 25.096C20.0723 25.1606 20.0376 25.194 20.0376 25.194Z" fill="#FFFBF1"/>
<path d="M20.2163 26.465C20.2163 26.465 20.2503 26.428 20.3141 26.3587C20.3772 26.2888 20.4698 26.1865 20.5876 26.0562C20.7051 25.9256 20.8469 25.7663 21.0079 25.582C21.1688 25.3979 21.3485 25.1883 21.5434 24.9591C21.738 24.7294 21.946 24.4783 22.1635 24.2108C22.3807 23.9431 22.605 23.657 22.8327 23.3581C23.0602 23.0589 23.2887 22.7449 23.5114 22.4196C23.5681 22.339 23.622 22.256 23.6774 22.1737C23.7322 22.091 23.7857 22.0071 23.8397 21.9234C23.866 21.8811 23.8923 21.8388 23.9186 21.7963C23.9449 21.754 23.9714 21.7117 23.9965 21.6686C24.0475 21.5824 24.0985 21.4962 24.1497 21.4098C24.3574 21.0625 24.5897 20.7316 24.8377 20.4207C25.0854 20.1099 25.3509 19.8214 25.6239 19.5593C25.7604 19.4283 25.8985 19.3031 26.038 19.186C26.1777 19.0692 26.3176 18.9589 26.4578 18.8567C26.5979 18.7543 26.7372 18.659 26.8753 18.572C27.0136 18.4852 27.1503 18.4063 27.2838 18.335C27.4172 18.2638 27.548 18.2007 27.6744 18.1452C27.801 18.0903 27.9231 18.043 28.0391 18.003C28.2716 17.9227 28.4804 17.8724 28.6539 17.8418C28.8277 17.8118 28.9662 17.8022 29.0602 17.7992C29.1073 17.7978 29.1435 17.7972 29.1677 17.7978C29.192 17.7979 29.2047 17.7979 29.2047 17.7979C29.2047 17.7979 29.192 17.7985 29.1679 17.7994C29.1435 17.7997 29.1074 17.8019 29.0605 17.8051C28.9667 17.8116 28.8297 17.8282 28.658 17.8626C28.4865 17.8984 28.2808 17.9547 28.053 18.0413C27.9391 18.0844 27.8196 18.1351 27.6961 18.1934C27.5724 18.2512 27.4442 18.3164 27.3138 18.39C27.0525 18.5368 26.7801 18.7145 26.5062 18.9216C26.3692 19.0248 26.2323 19.1363 26.096 19.2541C25.9593 19.3717 25.8239 19.4965 25.69 19.6273C25.4224 19.8893 25.1634 20.1778 24.9185 20.4852C24.7962 20.6391 24.6784 20.7984 24.565 20.9617C24.452 21.1251 24.3439 21.2937 24.2408 21.4638C24.1895 21.5502 24.1379 21.6366 24.0866 21.7228C24.061 21.7663 24.0343 21.809 24.0075 21.8514C23.9808 21.8941 23.9542 21.9368 23.9277 21.9792C23.8729 22.0635 23.8189 22.1477 23.7635 22.2309C23.7073 22.3134 23.6529 22.3967 23.5959 22.4778C23.37 22.8035 23.1368 23.1162 22.9061 23.4144C22.6757 23.713 22.4449 23.995 22.2236 24.2604C22.0023 24.5258 21.788 24.7723 21.5886 24.9982C21.3893 25.2242 21.2027 25.4281 21.0364 25.6078C20.8702 25.7875 20.7236 25.9426 20.6023 26.0699C20.4813 26.1973 20.3841 26.2954 20.3181 26.3626C20.2517 26.4292 20.2163 26.465 20.2163 26.465Z" fill="#FFFBF1"/>
<path d="M24.9531 22.7266C24.9531 22.7266 24.9659 22.7056 24.9901 22.6663C25.0146 22.6272 25.0503 22.5696 25.098 22.4978C25.1456 22.426 25.2037 22.3391 25.2732 22.2412C25.3424 22.1429 25.4216 22.0331 25.5112 21.9154C25.6004 21.7976 25.6989 21.6712 25.8068 21.5404C25.9143 21.4094 26.03 21.2729 26.1542 21.1357C26.2783 20.9985 26.4086 20.8583 26.5467 20.7212C26.6846 20.5842 26.828 20.4481 26.9761 20.3169C27.1248 20.1866 27.278 20.061 27.4332 19.9431C27.5882 19.8248 27.7472 19.7169 27.9049 19.6188C28.0625 19.5203 28.2207 19.4343 28.3744 19.3605C28.5282 19.2866 28.6782 19.2265 28.8193 19.1796C28.9602 19.1321 29.0926 19.0982 29.2112 19.0751C29.2407 19.0692 29.2697 19.0648 29.2974 19.06C29.3113 19.0577 29.3248 19.055 29.3383 19.0531C29.3518 19.0515 29.3649 19.0499 29.3779 19.0483C29.4038 19.0451 29.4286 19.042 29.4524 19.0392C29.4762 19.0372 29.4989 19.0353 29.5204 19.0337C29.5635 19.0294 29.602 19.0289 29.6356 19.028C29.6523 19.0275 29.6678 19.0267 29.682 19.0267C29.6962 19.0269 29.709 19.0273 29.7206 19.0275C29.7668 19.0282 29.7913 19.0287 29.7913 19.0287C29.7913 19.0287 29.7668 19.0303 29.7207 19.0331C29.7094 19.034 29.6966 19.0347 29.6824 19.0356C29.6683 19.0369 29.653 19.0388 29.6363 19.0406C29.6033 19.0445 29.5651 19.0477 29.5228 19.0547C29.5016 19.0579 29.4792 19.0612 29.4557 19.0648C29.4326 19.0692 29.4083 19.0738 29.3829 19.0786C29.3575 19.0834 29.3312 19.0886 29.3041 19.0952C29.2771 19.1016 29.2489 19.1076 29.2201 19.1149C29.1047 19.1444 28.9766 19.1851 28.8399 19.2372C28.7034 19.2896 28.5589 19.355 28.41 19.4318C28.2612 19.5089 28.1091 19.599 27.9553 19.698C27.9166 19.7226 27.8787 19.7489 27.84 19.7745C27.802 19.8011 27.7636 19.8278 27.725 19.8548C27.6488 19.9101 27.572 19.9664 27.4957 20.0251C27.3432 20.1422 27.1929 20.2673 27.0464 20.3969C26.8993 20.5255 26.7564 20.6594 26.619 20.7945C26.5504 20.862 26.483 20.9297 26.4166 20.9971C26.3506 21.0646 26.2859 21.132 26.2232 21.1991C26.0981 21.3335 25.9781 21.4647 25.8672 21.5916C25.7566 21.7187 25.653 21.84 25.559 21.9533C25.4652 22.0668 25.3802 22.1717 25.3057 22.2654C25.2316 22.3594 25.1673 22.4417 25.1152 22.5101C25.0633 22.5787 25.0221 22.6324 24.9949 22.6695C24.9677 22.7068 24.9531 22.7266 24.9531 22.7266Z" fill="#FFFBF1"/>
<path d="M20.0376 27.7077C20.0328 27.7077 20.0278 27.707 20.023 27.7057C19.9945 27.6976 19.9782 27.6681 19.9862 27.6398C20.2624 26.669 20.0957 25.6005 19.9071 24.8752C19.7024 24.0875 19.4292 23.5245 19.4263 23.519C19.4134 23.4925 19.4244 23.4605 19.4509 23.4477C19.4774 23.4347 19.5092 23.4455 19.5221 23.472C19.525 23.4777 19.803 24.0504 20.0104 24.8484C20.2021 25.5865 20.3715 26.6751 20.0887 27.669C20.0822 27.6924 20.0608 27.7077 20.0376 27.7077Z" fill="#263261"/>
<path d="M28.1621 21.1265C28.1621 21.1265 28.1708 21.124 28.1865 21.1187C28.2023 21.1134 28.2252 21.1052 28.254 21.0938C28.283 21.0832 28.3173 21.0673 28.3569 21.051C28.396 21.0329 28.4401 21.0131 28.4874 20.9895C28.535 20.9673 28.5853 20.9396 28.639 20.9124C28.6654 20.8978 28.6926 20.8829 28.7205 20.8676C28.7483 20.8523 28.7769 20.8374 28.8051 20.8203C28.8336 20.8038 28.8625 20.7871 28.892 20.7702C28.9068 20.762 28.9214 20.7531 28.9359 20.7441C28.9505 20.7352 28.9653 20.7261 28.98 20.7172C29.0097 20.6993 29.0396 20.6813 29.0694 20.6634C29.0989 20.6443 29.1286 20.6255 29.1583 20.6067C29.188 20.5878 29.218 20.5695 29.2473 20.5503C29.2767 20.5311 29.3058 20.5118 29.3346 20.4926C29.3636 20.4735 29.3924 20.4547 29.421 20.4364C29.4491 20.4172 29.4768 20.3982 29.5042 20.3795C29.5315 20.361 29.5585 20.3429 29.585 20.3251C29.6115 20.3075 29.6374 20.2901 29.6622 20.2725C29.7119 20.2377 29.7592 20.2052 29.8033 20.1753C29.8477 20.146 29.8875 20.1179 29.9229 20.0932C29.9583 20.0683 29.9899 20.0475 30.0157 20.0301C30.0414 20.0125 30.0622 19.9995 30.0761 19.9903C30.0903 19.9812 30.0978 19.9764 30.0978 19.9764C30.0978 19.9764 30.0917 19.9828 30.0802 19.9949C30.0683 20.0068 30.0514 20.0246 30.0292 20.0465C30.0069 20.0683 29.9801 20.0952 29.9487 20.125C29.9328 20.1399 29.9161 20.1559 29.8985 20.1728C29.8811 20.1899 29.8612 20.2062 29.8415 20.224C29.8011 20.2592 29.7572 20.2971 29.7105 20.3367C29.6639 20.3765 29.612 20.4152 29.5592 20.4565C29.5328 20.4769 29.5059 20.4975 29.4782 20.5182C29.4501 20.5381 29.4217 20.5581 29.3927 20.5782C29.3637 20.5983 29.3346 20.6186 29.3054 20.6388C29.2758 20.6584 29.2454 20.6774 29.2153 20.6966C29.1849 20.7156 29.1547 20.7346 29.1245 20.7535C29.0938 20.7716 29.0627 20.7888 29.0321 20.8064C28.9713 20.8422 28.9093 20.8734 28.8492 20.9037C28.8195 20.9189 28.7895 20.933 28.7598 20.946C28.7303 20.9591 28.7017 20.9726 28.6733 20.9845C28.6159 21.0073 28.5622 21.0297 28.5108 21.0464C28.4602 21.0645 28.4124 21.0775 28.3702 21.0894C28.3279 21.1002 28.2908 21.1088 28.2599 21.1141C28.2444 21.1171 28.2305 21.1196 28.2185 21.1208C28.2064 21.1224 28.1962 21.124 28.1877 21.1247C28.171 21.1263 28.1621 21.1265 28.1621 21.1265Z" fill="#FFFBF1"/>
<path d="M23.1893 17.798C22.6085 18.567 22.0003 19.3156 21.4692 20.1207C21.8462 19.2452 22.4969 18.4442 23.1893 17.798Z" fill="#263261"/>
<path d="M13.0889 7.73518C13.5721 7.5235 14.0749 7.35448 14.5754 7.1883C14.3327 7.78921 13.9864 8.57104 13.8545 8.83462C14.2307 8.80583 14.5601 8.73989 14.9918 8.71856C14.5291 8.85364 14.0546 8.94908 13.5822 9.04327C13.8226 8.45303 14.0173 8.03732 14.294 7.46307C14.0403 7.53239 13.549 7.65164 13.0889 7.73518C13.1158 7.72327 13.1178 7.72985 13.0889 7.73518Z" fill="#1E2628"/>
<path d="M15.9526 9.10955C16.2359 9.03686 16.5259 8.98763 16.8148 8.94355C16.6275 9.24925 16.4638 9.50163 16.2563 9.79399C16.4365 9.79399 16.647 9.78386 16.8919 9.81443C16.6275 9.84731 16.359 9.86028 16.0928 9.86615C16.2766 9.56579 16.4088 9.35624 16.6119 9.06849C16.4761 9.06849 16.2087 9.10777 15.9526 9.10955C15.9849 9.10937 15.9839 9.10155 15.9526 9.10955Z" fill="#1E2628"/>
<path d="M9.09131 6.30776C9.7361 6.04276 10.4028 5.83055 11.0663 5.61781C10.7338 6.40835 10.4432 7.0537 10.0656 7.82362C10.4637 7.76799 11.0437 7.67913 11.6202 7.64998C11.0046 7.81456 10.3756 7.93168 9.74952 8.0481C10.0801 7.27053 10.3781 6.65913 10.698 5.94092C10.3781 6.02144 9.70592 6.19597 9.09131 6.30776C9.12757 6.29301 9.12989 6.30083 9.09131 6.30776Z" fill="#1E2628"/>
<defs>
<clipPath id="clip0_2433_9782">
<rect x="0.458008" y="0.863098" width="42.0068" height="42.0068" rx="21.0034" fill="white"/>
</clipPath>
</defs>
</svg>
