<svg width="14" height="12" viewBox="0 0 14 12" fill="none" xmlns="http://www.w3.org/2000/svg">
<path d="M1.28982 6.71C1.38278 6.80373 1.49338 6.87812 1.61524 6.92889C1.7371 6.97966 1.8678 7.0058 1.99981 7.0058C2.13183 7.0058 2.26253 6.97966 2.38439 6.92889C2.50625 6.87812 2.61685 6.80373 2.70981 6.71L5.99981 3.41L5.99981 11C5.99981 11.2652 6.10517 11.5196 6.29271 11.7071C6.48024 11.8946 6.7346 12 6.99981 12C7.26503 12 7.51938 11.8946 7.70692 11.7071C7.89446 11.5196 7.99981 11.2652 7.99981 11L7.99981 3.41L11.2898 6.71C11.4781 6.8983 11.7335 7.00409 11.9998 7.00409C12.2661 7.00409 12.5215 6.8983 12.7098 6.71C12.8981 6.5217 13.0039 6.2663 13.0039 6C13.0039 5.7337 12.8981 5.4783 12.7098 5.29L7.70981 0.290001C7.61471 0.19896 7.50257 0.127594 7.37981 0.0799999C7.26011 0.0270948 7.13069 -0.000232697 6.99981 -0.000232697C6.86894 -0.000232697 6.73951 0.0270948 6.61981 0.0799999C6.49706 0.127594 6.38492 0.19896 6.28981 0.290001L1.28982 5.29C1.19609 5.38296 1.12169 5.49356 1.07092 5.61542C1.02015 5.73728 0.994017 5.86799 0.994017 6C0.994017 6.13201 1.02015 6.26272 1.07092 6.38458C1.12169 6.50644 1.19609 6.61704 1.28982 6.71Z" fill="#12B28C"/>
</svg>
