<svg width="256" height="256" viewBox="0 0 256 256" fill="none" xmlns="http://www.w3.org/2000/svg">
<g clip-path="url(#clip0_2689_9324)">
<path d="M128 256C198.692 256 256 198.692 256 128C256 57.3075 198.692 0 128 0C57.3075 0 0 57.3075 0 128C0 198.692 57.3075 256 128 256Z" fill="#FFCC4D"/>
<path d="M128 149.333C102.236 149.333 85.1409 146.332 63.9996 142.222C59.1711 141.291 49.7773 142.222 49.7773 156.444C49.7773 184.889 82.4529 220.444 128 220.444C173.539 220.444 206.222 184.889 206.222 156.444C206.222 142.222 196.828 141.284 192 142.222C170.858 146.332 153.763 149.333 128 149.333Z" fill="#664500"/>
<path d="M64 156.444C64 156.444 85.3333 163.555 128 163.555C170.667 163.555 192 156.444 192 156.444C192 156.444 177.778 184.889 128 184.889C78.2222 184.889 64 156.444 64 156.444Z" fill="white"/>
<path d="M85.3325 120.889C95.1509 120.889 103.11 109.746 103.11 96C103.11 82.2542 95.1509 71.1111 85.3325 71.1111C75.5141 71.1111 67.5547 82.2542 67.5547 96C67.5547 109.746 75.5141 120.889 85.3325 120.889Z" fill="#664500"/>
<path d="M170.666 120.889C180.485 120.889 188.444 109.746 188.444 96C188.444 82.2542 180.485 71.1111 170.666 71.1111C160.848 71.1111 152.889 82.2542 152.889 96C152.889 109.746 160.848 120.889 170.666 120.889Z" fill="#664500"/>
</g>
<defs>
<clipPath id="clip0_2689_9324">
<rect width="256" height="256" fill="white"/>
</clipPath>
</defs>
</svg>
