<svg width="118" height="22" viewBox="0 0 118 22" fill="none" xmlns="http://www.w3.org/2000/svg">
<path d="M10.6196 1.17082C10.7393 0.802295 11.2607 0.802296 11.3804 1.17082L13.3798 7.32442C13.4334 7.48923 13.587 7.60081 13.7603 7.60081H20.2305C20.618 7.60081 20.7791 8.09666 20.4657 8.32442L15.2311 12.1276C15.0909 12.2294 15.0322 12.41 15.0858 12.5748L17.0852 18.7284C17.205 19.0969 16.7832 19.4033 16.4697 19.1756L11.2351 15.3724C11.0949 15.2706 10.9051 15.2706 10.7649 15.3724L5.53032 19.1756C5.21684 19.4033 4.79504 19.0969 4.91478 18.7284L6.91421 12.5748C6.96776 12.41 6.9091 12.2294 6.7689 12.1276L1.53434 8.32442C1.22085 8.09666 1.38196 7.60081 1.76945 7.60081H8.23973C8.41302 7.60081 8.5666 7.48923 8.62015 7.32442L10.6196 1.17082Z" fill="#F2C94C"/>
<path d="M34.4536 1.17082C34.5733 0.802295 35.0947 0.802296 35.2144 1.17082L37.2138 7.32442C37.2674 7.48923 37.421 7.60081 37.5943 7.60081H44.0645C44.452 7.60081 44.6131 8.09666 44.2996 8.32442L39.0651 12.1276C38.9249 12.2294 38.8662 12.41 38.9198 12.5748L40.9192 18.7284C41.0389 19.0969 40.6171 19.4033 40.3037 19.1756L35.0691 15.3724C34.9289 15.2706 34.7391 15.2706 34.5989 15.3724L29.3643 19.1756C29.0508 19.4033 28.629 19.0969 28.7488 18.7284L30.7482 12.5748C30.8017 12.41 30.7431 12.2294 30.6029 12.1276L25.3683 8.32442C25.0548 8.09666 25.2159 7.60081 25.6034 7.60081H32.0737C32.247 7.60081 32.4006 7.48923 32.4541 7.32442L34.4536 1.17082Z" fill="#F2C94C"/>
<path d="M58.2856 1.17082C58.4053 0.802295 58.9267 0.802296 59.0464 1.17082L61.0459 7.32442C61.0994 7.48923 61.253 7.60081 61.4263 7.60081H67.8966C68.2841 7.60081 68.4452 8.09666 68.1317 8.32442L62.8971 12.1276C62.7569 12.2294 62.6983 12.41 62.7518 12.5748L64.7512 18.7284C64.871 19.0969 64.4492 19.4033 64.1357 19.1756L58.9011 15.3724C58.7609 15.2706 58.5711 15.2706 58.4309 15.3724L53.1963 19.1756C52.8829 19.4033 52.4611 19.0969 52.5808 18.7284L54.5802 12.5748C54.6338 12.41 54.5751 12.2294 54.4349 12.1276L49.2004 8.32442C48.8869 8.09666 49.048 7.60081 49.4355 7.60081H55.9057C56.079 7.60081 56.2326 7.48923 56.2862 7.32442L58.2856 1.17082Z" fill="#F2C94C"/>
<path d="M82.1196 1.17082C82.2393 0.802295 82.7607 0.802296 82.8804 1.17082L84.8798 7.32442C84.9334 7.48923 85.087 7.60081 85.2603 7.60081H91.7305C92.118 7.60081 92.2791 8.09666 91.9657 8.32442L86.7311 12.1276C86.5909 12.2294 86.5322 12.41 86.5858 12.5748L88.5852 18.7284C88.705 19.0969 88.2832 19.4033 87.9697 19.1756L82.7351 15.3724C82.5949 15.2706 82.4051 15.2706 82.2649 15.3724L77.0303 19.1756C76.7168 19.4033 76.295 19.0969 76.4148 18.7284L78.4142 12.5748C78.4678 12.41 78.4091 12.2294 78.2689 12.1276L73.0343 8.32442C72.7209 8.09666 72.882 7.60081 73.2695 7.60081H79.7397C79.913 7.60081 80.0666 7.48923 80.1202 7.32442L82.1196 1.17082Z" fill="#F2C94C"/>
<path d="M105.954 1.17082C106.073 0.802295 106.595 0.802296 106.714 1.17082L108.714 7.32442C108.767 7.48923 108.921 7.60081 109.094 7.60081H115.565C115.952 7.60081 116.113 8.09666 115.8 8.32442L110.565 12.1276C110.425 12.2294 110.366 12.41 110.42 12.5748L112.419 18.7284C112.539 19.0969 112.117 19.4033 111.804 19.1756L106.569 15.3724C106.429 15.2706 106.239 15.2706 106.099 15.3724L100.864 19.1756C100.551 19.4033 100.129 19.0969 100.249 18.7284L102.248 12.5748C102.302 12.41 102.243 12.2294 102.103 12.1276L96.8683 8.32442C96.5548 8.09666 96.7159 7.60081 97.1034 7.60081H103.574C103.747 7.60081 103.901 7.48923 103.954 7.32442L105.954 1.17082Z" fill="#F2C94C"/>
</svg>
