<svg width="52" height="109" viewBox="0 0 52 109" fill="none" xmlns="http://www.w3.org/2000/svg">
<path d="M14.2375 40.3308C14.284 40.2818 14.2817 40.1959 14.2327 40.1495L14.0466 39.973C13.9976 39.9265 13.9117 39.9288 13.8653 39.9778L11.0137 42.9854L10.1614 42.1773C10.1075 42.1262 10.0265 42.1332 9.98009 42.1821L9.84541 42.3242C9.79897 42.3732 9.79636 42.4544 9.85024 42.5055L11.9271 44.4746C11.981 44.5257 12.062 44.5188 12.1085 44.4698L12.2431 44.3278C12.2896 44.2788 12.2922 44.1975 12.2383 44.1464L11.386 43.3384L14.2375 40.3308Z" fill="#E0E0E0"/>
<path d="M9.28906 34.0035L9.21903 33.7428C9.20328 33.6841 9.15366 33.6555 9.11756 33.6512L7.91412 33.4642L7.29264 31.1499L8.23874 30.3786C8.26783 30.3569 8.29644 30.3072 8.28068 30.2486L8.21066 29.9878C8.1844 29.89 8.08565 29.8606 8.0114 29.9225L4.15279 33.0694C4.11893 33.0995 4.09509 33.1408 4.11084 33.1995L4.12835 33.2647C4.14411 33.3234 4.18546 33.3472 4.22982 33.3563L9.14932 34.1599C9.24457 34.1762 9.31532 34.1013 9.28906 34.0035ZM7.46093 33.3902L5.06709 33.0126L5.05309 32.9605C5.67788 32.4502 6.31094 31.9447 6.93573 31.4345L7.46093 33.3902Z" fill="#E0E0E0"/>
<path d="M7.98731 22.7809C8.05205 22.8 8.12561 22.7654 8.14665 22.6942L8.80849 20.4545C8.82953 20.3833 8.78657 20.3143 8.72184 20.2951L8.53411 20.2397C8.46938 20.2205 8.39582 20.2551 8.37478 20.3263L7.82388 22.1906L3.84928 21.0161C3.78455 20.997 3.70907 21.0381 3.68994 21.1028L3.61534 21.3552C3.5943 21.4265 3.63726 21.4955 3.70199 21.5146L7.98731 22.7809Z" fill="#E0E0E0"/>
<path d="M11.8549 14.3805C11.9136 14.4457 12.0135 14.4556 12.0837 14.3923L12.229 14.2612C12.2942 14.2025 12.2996 14.0976 12.2409 14.0324L10.8033 12.4384L13.9268 12.6666C13.9504 12.6726 14.0136 12.6519 14.0487 12.6203L14.3043 12.3898C14.4146 12.2903 14.3161 12.161 14.2494 12.1575L11.0577 11.9545L11.3082 9.04723C11.3206 8.89971 11.1801 8.84466 11.0899 8.92603L10.8442 9.14753C10.8142 9.17465 10.7916 9.2404 10.7942 9.28355L10.5728 12.1827L9.2935 10.7641C9.23474 10.6989 9.12987 10.6935 9.0647 10.7523L8.91933 10.8834C8.84916 10.9467 8.84875 11.047 8.90752 11.1122L11.8549 14.3805Z" fill="#E0E0E0"/>
<path d="M27.4437 7.99072C27.4346 8.0576 27.4867 8.12598 27.5535 8.13506L27.8077 8.16959C27.8746 8.17868 27.943 8.12666 27.952 8.05978L28.51 3.953L29.6738 4.11112C29.7474 4.12112 29.8091 4.06819 29.8182 4.0013L29.8445 3.80733C29.8536 3.74045 29.8083 3.67298 29.7347 3.66299L26.8987 3.2777C26.8252 3.2677 26.7635 3.32063 26.7544 3.38751L26.728 3.58148C26.719 3.64837 26.7643 3.71583 26.8379 3.72583L28.0017 3.88394L27.4437 7.99072Z" fill="#E0E0E0"/>
<path d="M37.1172 8.57949C36.209 9.57833 36.281 11.0944 37.2799 12.0026C38.2787 12.9108 39.7998 12.8433 40.708 11.8444C41.6162 10.8456 41.5482 9.31498 40.5494 8.40678C39.5505 7.49859 38.0254 7.58065 37.1172 8.57949ZM37.4668 8.89736C38.1888 8.10328 39.4374 8.03437 40.2315 8.75638C41.0256 9.47839 41.0804 10.7325 40.3584 11.5266C39.6364 12.3207 38.3918 12.375 37.5978 11.653C36.8037 10.931 36.7448 9.69143 37.4668 8.89736Z" fill="#E0E0E0"/>
<path d="M46.193 26.6022C45.1802 26.4387 44.2921 27.0269 44.1232 28.0731C43.9532 29.126 44.61 29.9705 45.6229 30.134L48.4416 30.5891C48.5083 30.5998 48.5779 30.5495 48.5887 30.4829L48.6295 30.2297C48.6414 30.1564 48.59 30.0934 48.5234 30.0826L45.7313 29.6319C44.9716 29.5092 44.4693 28.9358 44.5963 28.1495C44.7221 27.3699 45.3916 26.9925 46.1513 27.1151L48.93 27.5637C48.9967 27.5745 49.0652 27.5309 49.0771 27.4576L49.118 27.2043C49.1287 27.1377 49.0784 27.068 49.0118 27.0573L46.193 26.6022Z" fill="#E0E0E0"/>
<path d="M41.3279 37.2674C41.2088 37.277 40.5003 37.358 39.9602 37.9434C39.4247 38.5239 39.3486 39.3629 39.8645 39.8389C40.44 40.3699 41.0912 40.1717 41.982 39.7537C42.5401 39.4972 42.967 39.4227 43.2994 39.7294C43.5078 39.9216 43.6986 40.3916 43.2135 40.9175C42.9342 41.2201 42.4375 41.3404 42.3856 41.3568C42.2677 41.395 42.2418 41.4629 42.2701 41.5717C42.2815 41.619 42.2979 41.6709 42.3094 41.7182C42.3487 41.8647 42.4632 41.8601 42.5055 41.844C42.5055 41.844 43.0927 41.7153 43.5413 41.2291C44.269 40.4404 43.9705 39.669 43.6332 39.3577C43.0676 38.8359 42.5423 38.9573 41.8007 39.2833C41.0361 39.6341 40.5581 39.7441 40.2158 39.4283C39.9231 39.1582 39.9127 38.6619 40.2835 38.26C40.6908 37.8185 41.3722 37.7768 41.434 37.7695C41.5577 37.755 41.5683 37.6638 41.5496 37.5547C41.5427 37.5024 41.5309 37.4456 41.524 37.3933C41.4847 37.2468 41.3992 37.2598 41.3279 37.2674Z" fill="#E0E0E0"/>
<path d="M29.1331 44.39C29.2815 44.243 29.5327 44.3601 29.5156 44.5682L29.4059 45.9093C29.4005 45.9748 29.424 46.0393 29.4702 46.086L30.4169 47.0423C30.5638 47.1907 30.4468 47.4418 30.2386 47.4248L28.8975 47.3151C28.832 47.3097 28.7675 47.3332 28.7209 47.3794L27.7646 48.326C27.6161 48.473 27.365 48.3559 27.382 48.1478L27.4918 46.8067C27.4971 46.7412 27.4736 46.6767 27.4274 46.63L26.4808 45.6737C26.3339 45.5253 26.4509 45.2742 26.6591 45.2912L28.0002 45.401C28.0656 45.4063 28.1301 45.3828 28.1768 45.3366L29.1331 44.39Z" fill="#F2F2F2"/>
<path d="M17.0685 5.13633C17.0674 4.92746 17.3268 4.82995 17.4635 4.98779L18.3448 6.00464C18.3878 6.05426 18.4504 6.08262 18.516 6.08228L19.8616 6.07519C20.0704 6.0741 20.168 6.33343 20.0101 6.47022L18.9933 7.35148C18.9436 7.39449 18.9153 7.45703 18.9156 7.52269L18.9227 8.86826C18.9238 9.07713 18.6645 9.17464 18.5277 9.0168L17.6464 7.99995C17.6034 7.95033 17.5409 7.92197 17.4752 7.92231L16.1297 7.9294C15.9208 7.93049 15.8233 7.67116 15.9811 7.53437L16.998 6.65311C17.0476 6.6101 17.0759 6.54756 17.0756 6.4819L17.0685 5.13633Z" fill="#F2F2F2"/>
<path d="M43.736 16.4585C43.7349 16.2496 43.9942 16.1521 44.131 16.3099L45.0123 17.3268C45.0553 17.3764 45.1178 17.4048 45.1835 17.4044L46.5291 17.3973C46.7379 17.3962 46.8354 17.6556 46.6776 17.7924L45.6608 18.6736C45.6111 18.7166 45.5828 18.7792 45.5831 18.8448L45.5902 20.1904C45.5913 20.3993 45.332 20.4968 45.1952 20.3389L44.3139 19.3221C44.2709 19.2725 44.2084 19.2441 44.1427 19.2445L42.7971 19.2515C42.5883 19.2526 42.4908 18.9933 42.6486 18.8565L43.6654 17.9753C43.7151 17.9322 43.7434 17.8697 43.7431 17.804L43.736 16.4585Z" fill="#F2F2F2"/>
<path fill-rule="evenodd" clip-rule="evenodd" d="M25.0443 95.5573C25.3452 95.6615 25.3489 95.6651 27.1435 97.5838C28.0994 98.6058 28.8814 99.4267 28.8814 99.408C28.8814 99.3894 28.7903 98.9752 28.6789 98.4878C28.4062 97.2948 28.3965 97.0747 28.5965 96.6278C28.6578 96.4909 28.7321 96.3824 28.8508 96.2568C29.1475 95.9427 29.4654 95.8119 29.8781 95.8343C30.2528 95.8546 30.5422 95.9964 30.8039 96.288C31.0012 96.5079 31.0787 96.7056 31.2352 97.3881C31.3968 98.093 31.6678 98.985 31.9081 99.6026C31.9994 99.8374 32.2185 100.348 32.395 100.737C32.7405 101.498 32.8535 101.813 32.9522 102.287C33.5218 105.026 31.8859 107.747 29.319 108.329C28.2946 108.561 27.2352 108.425 26.2954 107.94C25.9534 107.764 25.6474 107.559 25.3682 107.319C25.1068 107.094 21.0226 102.726 20.9299 102.572C20.8098 102.372 20.754 102.186 20.7401 101.937C20.7187 101.553 20.8132 101.244 21.0376 100.966C21.1284 100.853 21.3702 100.658 21.4638 100.622C21.4802 100.616 21.345 100.448 21.1634 100.249C20.8882 99.9481 20.8187 99.8554 20.7461 99.6917C20.5857 99.33 20.5854 98.9154 20.7454 98.5547C20.8957 98.2159 21.2027 97.9285 21.5222 97.8275L21.6255 97.7949L21.6345 97.4981C21.643 97.2202 21.6495 97.188 21.7368 96.9918C21.9059 96.6116 22.2581 96.3068 22.6219 96.2258C22.8361 96.1782 23.1308 96.2066 23.3366 96.2948C23.4387 96.3385 23.5129 96.3575 23.518 96.3413C23.5408 96.268 23.711 95.9906 23.7814 95.912C23.9075 95.7711 24.1385 95.6188 24.3143 95.5606C24.5224 95.4918 24.8508 95.4904 25.0443 95.5573ZM24.5639 96.3358C24.375 96.3919 24.1989 96.6321 24.1976 96.8353C24.1973 96.8834 24.2144 96.9675 24.2355 97.0221C24.262 97.0905 24.7017 97.5804 25.6535 98.6021C27.1405 100.198 27.1176 100.169 27.077 100.401C27.0534 100.536 26.9311 100.676 26.8058 100.712C26.5832 100.776 26.6553 100.843 24.82 98.8815C23.89 97.8876 23.1068 97.0715 23.068 97.056C22.9548 97.0106 22.76 97.0223 22.6527 97.081C22.4513 97.191 22.3441 97.4487 22.4016 97.6845C22.4318 97.8083 22.5194 97.9066 24.1234 99.616C25.4995 101.082 25.8188 101.436 25.8424 101.519C25.9406 101.863 25.5996 102.16 25.2987 101.992C25.2477 101.964 24.5292 101.214 23.6988 100.323C22.8684 99.4318 22.1498 98.6821 22.0989 98.6536C21.8865 98.5352 21.6166 98.6142 21.4698 98.8381C21.4051 98.9365 21.394 98.9777 21.3941 99.118C21.3942 99.2424 21.4081 99.3063 21.4509 99.3802C21.482 99.434 22.2656 100.28 23.1923 101.261C24.9066 103.076 24.9677 103.147 24.969 103.338C24.9697 103.449 24.8932 103.593 24.7951 103.665C24.6938 103.739 24.4887 103.747 24.3958 103.681C24.3619 103.657 23.8576 103.13 23.2752 102.51C22.2505 101.42 22.2121 101.382 22.0884 101.352C21.8686 101.297 21.6436 101.41 21.5386 101.627C21.4781 101.752 21.4873 101.966 21.5586 102.092C21.5914 102.15 22.5713 103.211 23.7361 104.45C25.6768 106.514 25.8765 106.719 26.1229 106.894C26.5801 107.221 27.0506 107.429 27.5981 107.547C27.8257 107.596 27.9528 107.606 28.3457 107.605C28.7612 107.604 28.8577 107.595 29.1344 107.532C29.5049 107.449 29.7244 107.368 30.065 107.193C31.1663 106.626 31.958 105.537 32.2256 104.222C32.2731 103.989 32.2807 103.872 32.2802 103.378C32.2798 102.886 32.2719 102.767 32.2249 102.54C32.1358 102.111 32.0135 101.761 31.7757 101.252C31.1784 99.9742 30.7996 98.8976 30.5016 97.6307C30.3884 97.1496 30.3358 96.9708 30.2872 96.9026C29.9812 96.473 29.3624 96.6091 29.2301 97.1353C29.2142 97.1983 29.2085 97.2929 29.2173 97.3456C29.2261 97.3983 29.4009 98.183 29.6056 99.0894C29.8103 99.9959 29.9778 100.762 29.9778 100.791C29.9778 100.948 29.8156 101.139 29.6487 101.178C29.4725 101.219 29.5048 101.251 27.1622 98.7489C25.2134 96.6674 24.9195 96.3635 24.8325 96.3399C24.6982 96.3036 24.6733 96.3032 24.5639 96.3358Z" fill="white"/>
<path d="M24.5639 96.3358C24.375 96.3919 24.1989 96.6321 24.1976 96.8353C24.1973 96.8834 24.2144 96.9675 24.2355 97.0221C24.262 97.0905 24.7017 97.5804 25.6535 98.6021C27.1405 100.198 27.1176 100.169 27.077 100.401C27.0534 100.536 26.9311 100.676 26.8058 100.712C26.5832 100.776 26.6553 100.843 24.82 98.8815C23.89 97.8876 23.1068 97.0715 23.068 97.056C22.9548 97.0106 22.76 97.0223 22.6527 97.081C22.4513 97.191 22.3441 97.4487 22.4016 97.6845C22.4318 97.8083 22.5194 97.9066 24.1234 99.616C25.4995 101.082 25.8188 101.436 25.8424 101.519C25.9406 101.863 25.5996 102.16 25.2987 101.992C25.2477 101.964 24.5292 101.214 23.6988 100.323C22.8684 99.4318 22.1498 98.6821 22.0989 98.6536C21.8865 98.5352 21.6166 98.6142 21.4698 98.8381C21.4051 98.9365 21.394 98.9777 21.3941 99.118C21.3942 99.2424 21.4081 99.3063 21.4509 99.3802C21.482 99.434 22.2656 100.28 23.1923 101.261C24.9066 103.076 24.9677 103.147 24.969 103.338C24.9697 103.449 24.8932 103.593 24.7951 103.665C24.6938 103.739 24.4887 103.747 24.3958 103.681C24.3619 103.657 23.8576 103.13 23.2752 102.51C22.2505 101.42 22.2121 101.382 22.0884 101.352C21.8686 101.297 21.6436 101.41 21.5386 101.627C21.4781 101.752 21.4873 101.966 21.5586 102.092C21.5914 102.15 22.5713 103.211 23.7361 104.45C25.6768 106.514 25.8765 106.719 26.1229 106.894C26.5801 107.221 27.0506 107.429 27.5981 107.547C27.8257 107.596 27.9528 107.606 28.3457 107.605C28.7612 107.604 28.8577 107.595 29.1344 107.532C29.5049 107.449 29.7244 107.368 30.065 107.193C31.1663 106.626 31.958 105.537 32.2256 104.222C32.2731 103.989 32.2807 103.872 32.2802 103.378C32.2798 102.886 32.2719 102.767 32.2249 102.54C32.1358 102.111 32.0135 101.761 31.7757 101.252C31.1784 99.9742 30.7996 98.8976 30.5016 97.6307C30.3884 97.1496 30.3358 96.9708 30.2872 96.9026C29.9812 96.473 29.3624 96.6091 29.2301 97.1353C29.2142 97.1983 29.2085 97.2929 29.2173 97.3456C29.2261 97.3983 29.4009 98.183 29.6056 99.0894C29.8103 99.9959 29.9778 100.762 29.9778 100.791C29.9778 100.948 29.8156 101.139 29.6487 101.178C29.4725 101.219 29.5048 101.251 27.1622 98.7489C25.2134 96.6674 24.9195 96.3635 24.8325 96.3399C24.6982 96.3036 24.6733 96.3032 24.5639 96.3358Z" fill="white"/>
</svg>
