<svg width="597" height="425" viewBox="0 0 597 425" fill="none" xmlns="http://www.w3.org/2000/svg">
<rect width="596.008" height="424.139" rx="56" fill="url(#paint0_linear_2496_9271)"/>
<path d="M465 64.4213C475.021 51.487 493.553 49.0636 506.391 59.0099C519.231 68.9571 521.514 87.5077 511.493 100.442L465 64.4213Z" fill="#D7AC6A"/>
<path d="M161.079 141.858L185.83 150.609L194.288 125.757L169.538 117.006L161.079 141.858ZM187.783 154.637L157.097 143.788L167.587 112.98L198.27 123.827L187.783 154.637Z" fill="#898EFF"/>
<path d="M452.962 171.199L456.558 197.878L479.873 170.461L452.962 171.199ZM455.182 202.793L450.66 169.242L484.505 168.312L455.182 202.793Z" fill="#97B76E"/>
<path d="M93.8737 199.207L72.0145 162.472C62.5098 168.677 59.5151 181.404 65.393 191.282C71.2718 201.162 83.8863 204.6 93.8737 199.207ZM72.6247 160L96.3373 199.849L95.5681 200.307C84.6201 206.822 70.3937 203.184 63.8561 192.197C57.3188 181.211 60.9075 166.972 71.8555 160.457L72.6247 160Z" fill="#FFA8D7"/>
<path d="M57.7544 67.8545C64.6781 87.4219 86.1521 97.6716 105.718 90.7473L93.1814 55.3184L57.7544 67.8545Z" fill="#573C7A"/>
<defs>
<linearGradient id="paint0_linear_2496_9271" x1="596.008" y1="1.30891e-05" x2="186.683" y2="568.503" gradientUnits="userSpaceOnUse">
<stop stop-color="#C5CFFF"/>
<stop offset="0.977901" stop-color="#96A8FF"/>
</linearGradient>
</defs>
</svg>
