<svg width="600" height="398" viewBox="0 0 600 398" fill="none" xmlns="http://www.w3.org/2000/svg">
<path d="M479.655 269.86C478.108 269.86 476.546 269.836 474.953 269.787C449.55 269.008 429.553 260.313 412.102 249.755C418.637 225.726 414.112 197.607 402.193 167.742C386.879 129.371 360.22 118.809 328.311 118.809C312.839 118.809 296.129 121.294 278.885 124.294C275.6 124.866 272.406 125.134 269.281 125.134C243.344 125.134 222.375 106.636 196.932 89.6485C204.889 61.7277 228.697 39.6844 274.744 27.6181C295.113 22.281 312.569 20.3967 328.278 20.3967C347.139 20.3967 363.482 23.1131 379.329 25.8283C395.177 28.5447 410.529 31.261 427.406 31.261C437.693 31.261 448.545 30.2526 460.424 27.6181C466.456 26.2812 472.741 25.6243 479.153 25.6243C544.046 25.6243 621.693 93.0033 576.656 204.915C576.656 204.915 560.067 269.856 479.655 269.86Z" fill="#E2F4E1"/>
<path d="M274.244 323.224C254.485 323.224 237.363 320.379 220.761 317.533C204.159 314.688 188.075 311.842 170.397 311.842C159.619 311.842 148.249 312.899 135.804 315.658C129.486 317.058 122.9 317.748 116.185 317.748C48.2005 317.748 -33.1453 247.16 14.0367 129.918C14.0367 129.918 31.4159 61.879 115.658 61.879C117.277 61.879 118.915 61.9043 120.585 61.955C152.431 62.9323 176.172 75.7869 196.933 89.6488C190.34 112.777 194.623 139.937 206.146 168.81C220.765 205.437 246.212 215.519 276.67 215.518C291.439 215.517 307.388 213.146 323.849 210.282C326.984 209.737 330.033 209.48 333.016 209.48C361.094 209.48 383.075 232.194 412.104 249.755C404.03 279.443 379.074 302.884 330.328 315.658C308.989 321.25 290.702 323.224 274.244 323.224Z" fill="#E2F4E1"/>
<path d="M412.102 249.756C383.074 232.194 361.093 209.48 333.014 209.48C330.032 209.48 326.982 209.737 323.847 210.282C307.387 213.146 291.438 215.517 276.669 215.518C246.21 215.519 220.764 205.437 206.145 168.81C194.621 139.937 190.339 112.777 196.932 89.649C222.375 106.636 243.344 125.135 269.281 125.135C272.406 125.135 275.6 124.866 278.885 124.295C296.129 121.295 312.839 118.81 328.311 118.81C360.22 118.81 386.879 129.371 402.193 167.743C414.112 197.608 418.637 225.727 412.102 249.756Z" fill="#CBECD5"/>
<path d="M201.81 350.07C189.813 350.07 177.578 350.018 165.334 349.917C61.2722 349.065 15.3153 345.989 9.04123 343.642C-0.331789 340.135 7.35862 334.426 58.2839 332.675C58.2839 332.675 94.8736 331.907 141.555 331.907C199.529 331.907 273.074 333.092 311.49 338.402C372.935 346.898 295.093 350.07 201.81 350.07Z" fill="#E2F4E1"/>
<path d="M467.059 397.458C464.739 397.458 462.418 397.454 460.125 397.446C337.485 397.02 330.315 396.826 326.035 392.054C323.228 388.925 337.486 381.379 377.297 377.873C381.424 369.949 393.561 361.34 392.145 359.158C389.875 355.656 391.059 345.912 405.015 344.894C405.015 344.894 434.072 340.951 469.558 340.951C489.497 340.951 511.468 342.197 531.444 346.087C561.444 351.927 542.071 364.032 509.772 374.382C522.268 375.507 535.359 377.157 548.8 379.507C627.636 393.282 541.54 397.459 467.059 397.458Z" fill="#E2F4E1"/>
<path d="M34.7689 289.035C34.7689 289.035 28.2459 340.405 33.8019 341.098C39.3568 341.792 49.4536 294.211 49.4536 294.211L34.7689 289.035Z" fill="#1B162C"/>
<path d="M297.627 289.035C297.627 289.035 304.15 340.405 298.595 341.098C293.04 341.792 282.943 294.211 282.943 294.211L297.627 289.035Z" fill="#1B162C"/>
<path d="M29.2457 259.291C29.2457 259.291 32.2536 198.65 62.6246 179.972C93.7182 160.849 151.38 160.327 219.682 168.919C301.744 179.242 292.045 256.799 292.045 256.799C313.607 257.639 322.895 261.842 325.798 283.952C329.532 312.393 285.43 307.036 231.883 309.457C163.167 312.564 52.6592 312.09 28.9622 306.83C5.26512 301.569 -1.85714 274.977 29.2457 259.291Z" fill="#379E90"/>
<path d="M150.227 259.955C150.227 259.955 363.806 264.107 215.442 282.846C178.947 287.456 86.0004 285.512 71.6764 282.712C57.3523 279.913 -18.0882 267.047 150.227 259.955Z" fill="#47676A"/>
<path d="M47.5465 214.232C47.5465 214.232 91.9142 201.396 96.9182 201.634C101.923 201.872 102.28 184.533 109.609 190.236C116.938 195.94 113.862 204.953 114.602 208.573C115.34 212.193 134.248 238.477 130.986 245.978C127.726 253.477 117.037 266.344 69.3765 273.223C68.4684 273.355 47.5465 285.936 50.982 271.202C50.982 271.202 46.3376 258.319 36.6672 228.071C33.7227 218.855 25.2647 218.79 31.7001 216.258C38.1366 213.726 47.5465 214.232 47.5465 214.232Z" fill="#1B162C"/>
<path d="M152.808 111.36C152.808 111.36 161.279 109.99 167.775 121.359C174.272 132.727 163.552 147.305 164.045 154.355C164.537 161.406 166.295 171.142 149.647 173.416C132.999 175.689 140.895 109.448 152.808 111.36Z" fill="#1B162C"/>
<path d="M133.135 124.618C133.135 124.618 127.388 155.558 122.581 156.584C111.8 158.886 102.549 157.398 88.521 192.447C74.4932 227.495 80.274 278.014 116.74 280.418C127.427 281.123 191.67 259.871 155.188 231.927C129.772 212.458 154.427 176.355 152.515 166.182C150.603 156.009 133.737 173.836 148.832 141.742L133.135 124.618Z" fill="#FF8F6A"/>
<path d="M133.623 118.569C133.623 118.569 152.362 112.637 158.423 119.69C164.483 126.745 162.354 150.291 149.492 152.303C129.431 155.442 123.249 127.14 133.623 118.569Z" fill="#FF8F6A"/>
<path d="M111.273 270.273C111.273 270.273 144.484 171.478 171.203 171.013C197.921 170.548 216.597 265.634 222.104 269.983C227.612 274.333 240.618 273.329 234.501 275.679C228.384 278.029 232.713 277.379 217.758 276.36C202.803 275.341 175.754 222.392 173.271 221.872C170.788 221.351 158.832 278.706 127.596 279.976C110.264 280.682 111.273 270.273 111.273 270.273Z" fill="#FF8F6A"/>
<path d="M125.126 269.709C125.126 269.709 158.338 170.915 185.056 170.45C211.774 169.985 230.45 265.071 235.958 269.42C241.466 273.769 254.471 272.766 248.354 275.116C242.237 277.466 246.566 276.815 231.611 275.796C216.656 274.779 189.661 221.285 187.124 221.309C176.561 221.409 172.684 278.143 141.45 279.413C124.118 280.118 125.126 269.709 125.126 269.709Z" fill="#FF8F6A"/>
<path d="M148.479 162.518C148.479 162.518 215.594 159.444 206.103 185.747C200.62 200.94 171.877 206.768 150.079 201.878C128.281 196.988 139.012 158.554 148.479 162.518Z" fill="#FF8F6A"/>
<path d="M147.298 132.375C147.298 132.375 146.951 134.306 144.71 134.605C143.231 134.803 142.629 133.528 141.664 134.06C140.701 134.592 140.541 135.373 140.776 135.949C141.01 136.526 141.688 135.56 142.448 135.53C143.209 135.499 145.338 136.819 147.014 135.273C148.153 134.223 147.968 131.573 147.298 132.375Z" fill="#1B162C"/>
<path d="M154.696 131.445C154.696 131.445 156.076 132.497 157.119 132.174C158.162 131.85 158.536 130.637 159.233 130.468C159.93 130.3 161.54 131.804 161.057 132.059C160.576 132.315 160.072 132.074 159.792 132.111C159.512 132.147 158.866 133.58 157.11 133.687C155.355 133.794 153.285 131.379 154.696 131.445Z" fill="#1B162C"/>
<path d="M195.749 267.136C197.103 266.831 219.901 265.327 222.23 261.506C224.561 257.683 202.836 177.471 182.49 175.824C162.145 174.178 106.66 256.886 101.652 269.514C96.6449 282.143 128.158 281.548 143.678 279.373C169.383 275.769 175.851 228.777 176.461 232.97C178.224 245.072 189.629 268.512 195.749 267.136Z" fill="#1B162C"/>
<path d="M220.81 262.945C220.81 262.945 233.07 260.754 233.602 258.558C234.134 256.362 214.64 189.437 199.572 177.936C184.505 166.434 172.779 183.616 174.285 190.113C175.792 196.609 209.631 268.819 220.81 262.945Z" fill="#1B162C"/>
<path d="M124.014 155.474C124.014 155.474 130.294 171.954 142.063 169.587C149.271 168.137 143.429 162.332 146.957 162.241C150.484 162.15 158.647 162.131 162.42 163.259C166.195 164.386 165.319 191.133 162.47 197.462C159.621 203.79 126.165 230.552 120.051 239.627C113.937 248.701 106.822 276.177 101.916 276.047C97.011 275.916 73.1261 263.391 78.1463 225.575C83.1664 187.76 93.6516 167.955 100.831 162.382C108.01 156.809 121.933 151.506 124.014 155.474Z" fill="#701A73"/>
<path d="M98.3767 184.536C98.3767 184.536 122.205 226.718 141.456 224.719C160.706 222.72 171.049 173.846 187.439 176.566C203.978 179.31 203.499 172.784 187.589 170.227C167.43 166.987 150.056 188.31 142.275 197.35C140.872 198.982 122.343 166.916 113.619 165.398C104.895 163.879 96.618 179.783 98.3767 184.536Z" fill="#FF8F6A"/>
<path d="M144.278 152.405C144.278 152.405 139.703 152.338 135.848 147.336C135.113 146.381 132.272 156.371 143.038 156.397C143.038 156.397 144.09 153.199 144.278 152.405Z" fill="#1B162C"/>
<path d="M131.651 183.864C131.651 183.864 116.324 199.925 108.518 203.211C100.713 206.495 94.5068 187.179 97.857 176.17C101.206 165.162 104.125 157.911 113.359 160.946C122.591 163.982 131.652 179.575 131.651 183.864Z" fill="#701A73"/>
<path d="M159.227 117.948C159.471 126.308 140.595 124.801 137.497 135.348C135.369 142.595 134.804 150.199 125.724 155.17C116.645 160.142 116.217 157.443 111.926 167.043C108.996 173.6 95.3408 171.547 88.7914 187.793C86.2456 194.106 71.3361 181.366 77.5075 165.057C81.5481 154.382 88.5896 157.548 91.9641 152.35C95.3385 147.152 86.7711 126.503 115.882 120.721C121.669 119.571 124.346 107.494 136.221 103.926C151.777 99.2503 158.982 109.587 159.227 117.948Z" fill="#1B162C"/>
<path d="M149.984 152.905C149.984 152.905 162.067 180.971 171.901 179.321C181.736 177.671 202.748 171.237 195.673 168.155C186.194 164.023 174.645 160.041 160.602 152.834C150.736 147.769 149.984 152.905 149.984 152.905Z" fill="#FF8F6A"/>
<path d="M111.128 203.407C111.128 203.407 100.675 195.362 97.128 188.725C93.5807 182.087 96.4723 204.16 101.97 211.791C107.466 219.421 126.787 227.016 130.826 221.664C130.826 221.664 122.947 216.797 111.128 203.407Z" fill="#701A73" fill-opacity="0.7"/>
<path d="M191.39 263.675C191.39 263.675 218.75 255.987 220.036 257.662C221.322 259.339 222.572 263.942 221.654 264.246C220.735 264.55 197.091 272.421 194.917 271.263C192.742 270.103 189.171 264.376 191.39 263.675Z" fill="#FEFDD2"/>
<path d="M220.354 257.213C220.354 257.213 229.21 252.618 231.406 252.511C233.601 252.405 234.461 257.252 234.643 258.301C234.825 259.351 221.1 263.671 219.427 263.519C217.752 263.367 215.199 259.733 220.354 257.213Z" fill="#FEFDD2"/>
<path d="M221.431 267.279C221.431 267.279 234.137 260.779 235.967 262.166C237.797 263.555 241.978 270.881 248.973 272.858C248.973 272.858 243.838 278.755 242.48 281.336C241.123 283.919 229.536 282.013 224.495 275.665C222.746 273.464 218.629 268.213 221.431 267.279Z" fill="#1B162C"/>
<path d="M226.833 269.32C226.833 269.32 233.73 264.823 235.274 265.653C236.817 266.483 234.376 266.488 231.049 269.15C227.72 271.811 224.302 272.482 226.833 269.32Z" fill="#FFFEF1"/>
<path d="M231.479 271.905C231.479 271.905 238.377 267.408 239.92 268.238C241.463 269.067 239.022 269.072 235.695 271.734C232.367 274.395 228.949 275.067 231.479 271.905Z" fill="#FFFEF1"/>
<path d="M235.138 274.23C235.138 274.23 242.035 269.733 243.578 270.563C245.121 271.393 242.68 271.398 239.353 274.059C236.025 276.721 232.607 277.392 235.138 274.23Z" fill="#FFFEF1"/>
<path d="M247.857 272.443C247.857 272.443 241.521 281.908 235.891 280.787C231.973 280.007 224.498 275.665 224.498 275.665C225.233 277.29 228.794 279.899 232.327 281.75C235.859 283.601 241.84 285.997 248.104 283.082C254.369 280.169 256.541 275.349 247.857 272.443Z" fill="#FEFDD2"/>
<path d="M207.984 271.534C207.984 271.534 221.262 265.897 222.554 267.816C223.847 269.736 226.358 278.635 232.365 282.753C232.365 282.753 225.606 286.837 223.492 288.907C221.377 290.976 210.991 285.478 208.237 277.749C207.281 275.067 206.635 271.358 207.984 271.534Z" fill="#1B162C"/>
<path d="M212.486 272.348C212.486 272.348 220.469 270.173 221.668 271.463C222.868 272.753 220.55 271.987 216.541 273.512C212.531 275.037 209.072 274.608 212.486 272.348Z" fill="#FFFEF1"/>
<path d="M216.066 276.314C216.066 276.314 224.049 274.138 225.249 275.428C226.447 276.717 224.129 275.952 220.12 277.477C216.111 279.003 212.653 278.573 216.066 276.314Z" fill="#FFFEF1"/>
<path d="M218.797 279.717C218.797 279.717 226.78 277.543 227.978 278.831C229.178 280.121 226.86 279.355 222.851 280.881C218.842 282.406 215.383 281.977 218.797 279.717Z" fill="#FFFEF1"/>
<path d="M231.436 281.998C231.436 281.998 223.291 292.6 215.962 286.142C212.955 283.493 208.236 277.749 208.236 277.749C208.415 279.553 210.96 283.199 213.72 286.103C216.481 289.007 221.389 293.212 228.267 292.368C235.144 291.524 238.747 287.548 231.436 281.998Z" fill="#FEFDD2"/>
<path d="M154.018 141.018C152.873 141.018 151.717 140.432 151.547 140.342L152.084 139.322C152.535 139.558 153.976 140.138 154.665 139.72C154.879 139.269 153.962 136.478 152.654 133.792L153.689 133.287C155.129 136.236 156.568 139.917 155.26 140.707C154.884 140.934 154.452 141.018 154.018 141.018Z" fill="#1B162C"/>
<path d="M196.941 176.001C192.615 171.708 186.7 172.505 186.641 172.515L186.473 171.372C186.738 171.337 193.008 170.474 197.753 175.184L196.941 176.001Z" fill="#1B162C"/>
<path d="M219.938 257.33C219.732 256.592 199.183 183.432 186.691 179.163L186.971 178.345C199.891 182.761 219.924 254.065 220.771 257.098L219.938 257.33Z" fill="#FEFDD2"/>
<path d="M159.914 152.489C159.914 152.489 162.232 150.676 163.811 147.398C167.435 139.867 162.814 131.58 161.057 132.059C159.302 132.539 156.768 146.601 152.769 149.501C148.771 152.4 149.563 152.784 151.439 156.056C153.315 159.328 160.232 153.596 159.914 152.489Z" fill="#FF8F6A"/>
<path d="M148.747 153.526L148.607 153.524L148.679 152.373C149.091 152.399 158.826 152.772 160.691 136.615L161.837 136.746C159.963 152.981 150.046 153.526 148.747 153.526Z" fill="#1B162C"/>
<path d="M164.939 176.6L164.262 175.669C164.669 175.373 174.333 168.414 183.247 167.531C189.633 166.906 197.197 170.463 200.097 175.479L199.1 176.055C196.45 171.473 189.238 168.09 183.36 168.679C174.761 169.531 165.036 176.53 164.939 176.6Z" fill="#1B162C"/>
<path d="M186.502 173.097H186.478C185.842 173.081 185.842 173.081 185.842 168.547H186.994C186.994 170.533 187.009 171.498 187.024 171.969L187.131 171.974C187.1 172.552 187.073 173.097 186.502 173.097Z" fill="#1B162C"/>
<path d="M133.489 181.087C133.436 180.963 128.062 168.511 117.955 161.746L118.596 160.789C128.995 167.748 134.496 180.509 134.551 180.636L133.489 181.087Z" fill="#1B162C"/>
<path d="M147.758 145.362L146.953 144.537C147.028 144.465 148.784 142.777 150.974 142.82C152.147 142.839 153.213 143.332 154.14 144.289L153.314 145.092C152.606 144.363 151.813 143.986 150.957 143.973C149.282 143.956 147.771 145.348 147.758 145.362Z" fill="#1B162C"/>
<path d="M145.86 140.664C145.925 142.282 144.667 143.647 143.049 143.713C141.431 143.779 140.066 142.521 140.001 140.903C139.935 139.285 141.193 137.919 142.811 137.853C144.429 137.788 145.794 139.046 145.86 140.664Z" fill="#F25576"/>
<path d="M159.946 179.021C159.898 176.81 157.161 173.302 156.111 172.137L156.968 171.364C157.134 171.55 161.031 175.907 161.098 178.997L159.946 179.021Z" fill="#1B162C"/>
<path d="M137.114 133.28L136.066 132.8C137.145 130.448 140.014 129.924 143.335 129.318C145.627 128.9 148.224 128.426 150.538 127.267C155.787 124.639 155.807 118.831 155.806 118.772L156.958 118.764C156.961 119.031 156.938 125.351 151.054 128.298C148.593 129.53 145.91 130.02 143.541 130.452C140.413 131.023 137.943 131.473 137.114 133.28Z" fill="#1B162C"/>
<path d="M88.3564 157.56C87.7156 140.943 93.5586 137.497 103.241 131.788C105.199 130.634 107.416 129.326 109.736 127.806C116.813 123.165 118.028 119.446 119.201 115.848C120.223 112.718 121.188 109.762 125.862 106.758C135.831 100.356 144.391 105.978 144.477 106.034L143.833 106.991C143.509 106.773 135.802 101.744 126.485 107.729C122.156 110.51 121.294 113.149 120.297 116.206C119.119 119.816 117.784 123.907 110.366 128.769C108.026 130.304 105.794 131.62 103.826 132.781C94.1971 138.458 88.8935 141.586 89.5077 157.516L88.3564 157.56Z" fill="#1B162C"/>
<path d="M89.763 180.543L89.6523 179.395C89.7814 179.384 102.622 178.084 107.998 173.279C109.992 171.498 110.812 168.772 111.678 165.887C113.148 160.994 114.815 155.448 122.649 152.972C134.216 149.316 133.848 137.007 133.826 136.486L134.978 136.438C134.984 136.574 135.415 150.145 122.996 154.071C115.743 156.363 114.238 161.374 112.782 166.219C111.867 169.264 111.003 172.14 108.766 174.139C103.109 179.193 90.3058 180.49 89.763 180.543Z" fill="#1B162C"/>
<path d="M176.464 232.97C176.464 232.97 156.886 285.929 101.92 276.047C101.92 276.047 122.124 286.603 138.168 282.79C169.707 275.292 180.806 246.04 180.806 246.04C180.745 243.839 176.464 232.97 176.464 232.97Z" fill="#1B162C"/>
<path d="M180.421 246.24C180.321 246.046 170.399 226.799 169.57 215.345L170.432 215.281C171.249 226.559 181.088 245.651 181.188 245.842L180.421 246.24Z" fill="#FEFDD2"/>
<path d="M106.963 249.299L106.008 248.655C106.113 248.5 116.476 233.116 119.992 228.092C123.629 222.899 130.402 221.176 130.689 221.105L130.966 222.223C130.9 222.241 124.321 223.92 120.936 228.753C117.425 233.768 107.068 249.145 106.963 249.299Z" fill="#1B162C"/>
<path d="M120.115 145.78L119.965 144.929C124.432 144.141 132.076 135.952 134.631 127.517C138.294 115.421 152.353 114.552 152.494 114.544L152.539 115.407C152.403 115.415 138.943 116.258 135.457 127.768C132.746 136.725 124.847 144.947 120.115 145.78Z" fill="#FEFDD2"/>
<path d="M128.402 126.36L127.604 126.028C131.163 117.467 135.551 112.252 140.644 110.527C146.002 108.713 150.577 111.349 152.078 112.217C152.286 112.337 152.431 112.424 152.509 112.453L152.383 112.789L152.417 112.854L152.852 112.962L152.592 113.267C152.347 113.369 152.186 113.276 151.646 112.965C150.077 112.06 145.906 109.655 140.921 111.345C136.074 112.989 131.862 118.039 128.402 126.36Z" fill="#FEFDD2"/>
<path d="M166.574 130.296L165.743 130.06C167.431 124.088 160.725 117.84 160.658 117.776L161.241 117.14C161.535 117.41 168.407 123.808 166.574 130.296Z" fill="#FEFDD2"/>
<path d="M537.007 311.541C537.007 311.541 544.148 361.668 538.067 362.344C531.985 363.02 520.932 316.591 520.932 316.591L537.007 311.541Z" fill="#1B162C"/>
<path d="M440.668 315.45C440.668 315.45 433.501 365.572 427.423 364.87C421.345 364.168 423.685 316.751 423.685 316.751L440.668 315.45Z" fill="#1B162C"/>
<path d="M471.993 166.75C471.993 166.75 515.953 165.312 535.871 180.089C555.788 194.866 553.347 311.277 544.505 324.284C535.662 337.29 408.347 342.424 401.088 324.284C393.827 306.143 417.057 269.294 426.821 257.624C436.585 245.953 446.841 161.924 471.993 166.75Z" fill="#379E90"/>
<path d="M418.187 174.615C418.187 174.615 388.39 199.733 383.826 197.393C379.262 195.053 353.758 132.336 352.198 133.167C350.636 133.997 352.082 139.531 352.082 139.531C352.082 139.531 347.575 129.802 346.909 131.935C346.243 134.068 348.547 140.622 348.547 140.622C348.547 140.622 344.762 131.646 343.864 133.433C342.966 135.219 344.723 141.32 344.723 141.32C344.723 141.32 340.39 135.714 339.905 137.789C339.423 139.865 342 143.74 342.832 147.215C343.663 150.691 352.185 213.084 368.288 222.628C384.392 232.173 426.176 201.92 429.279 197.992C432.382 194.064 418.187 174.615 418.187 174.615Z" fill="#F06172"/>
<path d="M350.907 147.324C350.027 146.454 349.629 145.486 349.725 144.447C349.923 142.296 352.231 140.706 352.329 140.64L353.029 141.669C353.009 141.682 351.104 143 350.964 144.564C350.904 145.222 351.171 145.836 351.781 146.44L350.907 147.324Z" fill="#1B162C"/>
<path d="M345.833 157.288C345.833 157.288 361.021 150.694 362.246 150.692C363.471 150.69 366.296 156.359 365.625 158.868C364.954 161.378 350.891 168.165 347.811 166.867C344.731 165.568 343.082 158.471 345.833 157.288Z" fill="#FEFDD2"/>
<path d="M466.544 118.656C466.544 118.656 472.284 117.942 474.36 123.672C476.437 129.402 475.201 144.935 466.037 142.334C456.872 139.734 464.108 118.044 466.544 118.656Z" fill="#1B162C"/>
<path d="M448.549 268.191C448.549 268.191 581.368 274.397 489.117 304.027C466.424 311.315 408.622 308.4 399.713 304.027C390.804 299.654 343.883 279.569 448.549 268.191Z" fill="#47676A"/>
<path d="M344.766 165.543C344.766 165.543 361.308 154.354 366.246 156.964C371.186 159.574 382.979 190.145 382.979 190.145C385.127 189.912 423.546 152.592 441.706 160.028C445.899 161.744 439.881 192.305 435.443 195.066C431.004 197.827 388.203 242.403 371.378 233.26C365.361 229.991 341.34 167.52 344.766 165.543Z" fill="#F9AC5F"/>
<path d="M467.031 134.624C467.031 134.624 466.809 157.878 467.748 158.855C469.335 160.506 479.724 160.19 484.045 164.479C488.364 168.769 463.659 177.793 451.587 177.056C443.549 176.565 435.374 159.935 441.06 159.911C446.746 159.888 450.47 158.461 450.34 154.287C450.211 150.114 450.174 146.32 450.174 146.32C450.174 146.32 466.186 135.234 467.031 134.624Z" fill="#F06172"/>
<path d="M445.747 159.44C445.747 159.44 441.184 170.31 449.503 171.078C459.285 171.982 471.579 160.799 473.473 160.703C490.22 159.844 495.749 165.598 501.162 172.27C506.576 178.942 495.311 280.882 489.619 281.766C483.926 282.65 405.466 260.322 402.723 259.723C399.98 259.122 418.438 166.669 420.209 166.449C421.982 166.23 433.397 156.415 445.747 159.44Z" fill="#F9AC5F"/>
<path d="M399.882 364.79C399.882 364.79 405.048 379.03 395.417 379.588C385.786 380.146 371.747 382.53 367.498 379.412C363.248 376.293 387.901 367.194 389.004 362.244C390.108 357.293 399.882 364.79 399.882 364.79Z" fill="#FF8F6A"/>
<path d="M353.83 333.245C353.83 333.245 351.283 349.039 342.394 345.288C333.506 341.537 318.188 338.914 315.753 334.239C313.316 329.566 341.121 330.85 344.297 326.895C347.472 322.939 353.83 333.245 353.83 333.245Z" fill="#FF8F6A"/>
<path d="M491.04 271.083C491.04 271.083 490.979 243.261 416.496 242.404C381.296 241.999 374.588 353.782 374.588 353.782C381.966 354.596 411.325 362.255 413.545 353.348C415.766 344.441 430.488 294.523 430.488 294.523C440.159 292.747 489.119 308.226 491.04 271.083Z" fill="#1B162C"/>
<path d="M451.379 240.077C451.379 240.077 454.701 224.533 461.056 224.249C467.41 223.966 481.882 228.093 484.285 225.292C486.687 222.492 469.958 162.087 476.421 161.247C489.42 159.558 497.218 165.667 503.817 176.127C512.162 189.355 516.315 243.321 508.324 252.557C501.317 260.655 451.427 247.145 451.379 240.077Z" fill="#F9AC5F"/>
<path d="M474.347 226.618C470.698 226.618 462.756 225.151 460.949 224.808L461.16 223.69C466.014 224.611 474.192 225.882 475.471 225.384C477.591 224.549 476.506 212.029 475.713 202.888C475.037 195.085 474.399 187.715 475.127 184.658L476.233 184.922C475.546 187.8 476.178 195.081 476.847 202.789C478.061 216.794 478.602 225.373 475.889 226.441C475.575 226.564 475.038 226.618 474.347 226.618Z" fill="#1B162C"/>
<path d="M418.029 189.801L417.166 189.061C420.333 185.366 422.832 178.129 422.857 178.055L423.932 178.424C423.827 178.728 421.337 185.942 418.029 189.801Z" fill="#1B162C"/>
<path d="M399.684 183.175L449.499 185.412L446.812 245.249L396.998 243.013L399.684 183.175Z" fill="#F26039"/>
<path d="M455.502 243.321C455.502 243.321 420.532 219.579 397.001 227.03C368.168 236.16 339.43 315.601 339.43 315.601C355.046 328.042 362.099 337.75 368.168 331.069C393.729 302.926 423.683 253.533 426.821 257.623C429.959 261.712 456.523 257.524 455.502 243.321Z" fill="#1B162C"/>
<path d="M452.257 225.938C452.257 225.938 447.969 219.511 447.956 219.81C447.942 220.108 446.618 225.684 446.618 225.684C446.618 225.684 433.986 218.375 433.422 221.634C432.859 224.895 434.282 231.401 439.229 234.311C444.175 237.221 449.571 241.645 451.628 239.945C453.685 238.245 457.668 231.257 452.257 225.938Z" fill="#F06172"/>
<path d="M464.98 114.784C464.98 114.784 447.548 108.651 441.671 115.83C435.792 123.012 436.072 147.711 449.18 149.177C468.096 151.293 474.489 123.58 464.98 114.784Z" fill="#FF8F6A"/>
<path d="M455.504 136.084C455.419 137.599 456.579 138.897 458.094 138.982C459.61 139.068 460.907 137.908 460.992 136.393C461.078 134.877 459.918 133.579 458.404 133.494C456.889 133.409 455.59 134.568 455.504 136.084Z" fill="#F14673"/>
<path d="M442.268 129.309C442.06 130.098 441.384 130.604 440.759 130.439C440.133 130.274 439.794 129.5 440.003 128.71C440.212 127.922 440.887 127.415 441.513 127.58C442.137 127.746 442.476 128.519 442.268 129.309Z" fill="#1B162C"/>
<path d="M454.57 130.142C454.401 130.939 453.751 131.479 453.118 131.344C452.485 131.21 452.11 130.454 452.279 129.655C452.448 128.857 453.098 128.319 453.731 128.452C454.364 128.587 454.739 129.343 454.57 130.142Z" fill="#1B162C"/>
<path d="M439.313 110.028C439.313 110.028 436.461 116.493 442.438 118.836C449.544 121.619 458.403 114.839 461.523 116.689C464.644 118.538 460.095 126.219 466.378 130.069C470.665 132.697 474.509 125.972 472.511 117.813C470.335 108.926 462.508 109.29 460.687 107.816C458.868 106.342 463.345 106.258 461.855 103.989C460.364 101.72 446.578 96.952 439.313 110.028Z" fill="#1B162C"/>
<path d="M468.894 132.363C468.894 132.363 469.599 129.086 471.554 130.718C473.507 132.351 472.266 137.467 469.721 138.349C467.177 139.23 468.39 133.644 468.894 132.363Z" fill="#FF8F6A"/>
<path d="M442.44 142.626C444.006 141.857 441.693 138.009 447.7 136.912C458.352 134.965 453.647 142.171 459.094 143.255C464.541 144.341 468.572 125.103 464.241 121.528C462.364 119.978 473.506 119.902 468.159 137.918C467.81 139.097 471.788 155.061 449.503 155.861C445.332 156.011 440.123 151.914 438.634 148.803C436.023 143.346 437.76 134.132 438.297 133.006C438.297 133.006 439.945 143.85 442.44 142.626Z" fill="#1B162C"/>
<path d="M445.444 137.482C444.971 137.482 444.54 137.406 444.219 137.206C444.071 137.112 443.876 136.929 443.802 136.588C443.493 135.144 446.17 130.988 446.998 129.749L447.957 130.39C446.243 132.954 444.896 135.575 444.92 136.272C445.515 136.497 447.19 136.126 448.491 135.621L448.91 136.695C448.49 136.859 446.796 137.482 445.444 137.482Z" fill="#1B162C"/>
<path d="M448.344 141.512C447.141 141.512 446.201 140.886 446.152 140.854L446.638 140.137C446.649 140.145 447.803 140.907 449.022 140.553C449.884 140.301 450.599 139.544 451.14 138.304L451.933 138.651C451.28 140.141 450.378 141.06 449.255 141.385C448.941 141.475 448.636 141.512 448.344 141.512Z" fill="#FEFDD2"/>
<path d="M336.271 329.238C336.271 329.238 334.271 334.291 336.271 335.223C338.27 336.154 352.253 337.075 352.942 337.205C353.631 337.336 348.61 347.676 346.541 347.971C344.474 348.266 316.409 344.755 314.045 337.205C311.682 329.655 333.069 329.535 336.271 329.238Z" fill="#1B162C"/>
<path d="M380.822 368.895C380.822 368.895 383.092 375.378 384.869 375.435C386.646 375.494 401.24 371.429 401.24 371.429C401.24 371.429 401.538 382.268 399.307 383.362C397.076 384.457 368.132 388.805 362.117 385.231C356.102 381.657 380.822 368.895 380.822 368.895Z" fill="#1B162C"/>
<path d="M441.47 124.276C438.859 124.276 436.735 126.4 436.735 129.01C436.735 131.619 438.859 133.743 441.47 133.743C444.079 133.743 446.203 131.619 446.203 129.01C446.203 126.4 444.079 124.276 441.47 124.276ZM441.47 134.608C438.382 134.608 435.871 132.097 435.871 129.01C435.871 125.923 438.382 123.412 441.47 123.412C444.556 123.412 447.067 125.923 447.067 129.01C447.067 132.097 444.556 134.608 441.47 134.608Z" fill="#FEFDD2"/>
<path d="M455.072 124.276C452.463 124.276 450.339 126.4 450.339 129.01C450.339 131.619 452.463 133.743 455.072 133.743C457.684 133.743 459.808 131.619 459.808 129.01C459.808 126.4 457.684 124.276 455.072 124.276ZM455.072 134.608C451.986 134.608 449.475 132.097 449.475 129.01C449.475 125.923 451.986 123.412 455.072 123.412C458.16 123.412 460.672 125.923 460.672 129.01C460.672 132.097 458.16 134.608 455.072 134.608Z" fill="#FEFDD2"/>
<path d="M450.038 130.488C448.394 130.069 446.614 130.172 446.595 130.172L446.541 129.31C446.618 129.307 448.473 129.196 450.252 129.651L450.038 130.488Z" fill="#FEFDD2"/>
<path d="M469.712 131.057L460.209 130.33L460.275 129.468L469.777 130.195L469.712 131.057Z" fill="#FEFDD2"/>
<path d="M475.762 160.626C475.762 160.626 470.714 157.053 466.036 159.547C457.784 163.945 450.018 170.956 450.018 170.956C450.018 170.956 447.252 158.133 445.34 157.858C443.429 157.584 435.872 156.412 436.026 159.378C436.178 162.344 436.227 177.219 440.558 177.082C444.891 176.944 450.018 173.155 450.018 173.155C450.018 173.155 451.601 179.015 456.16 179.989C463.59 181.578 477.335 163.748 475.762 160.626Z" fill="#FEFDD2"/>
<path d="M460.756 226.501C460.756 226.501 458.166 243.887 455.502 243.322C452.838 242.757 449.502 241.445 449.502 241.445C449.502 241.445 453.339 224.481 454.479 224.481C456.614 224.481 460.756 226.501 460.756 226.501Z" fill="#FEFDD2"/>
<path d="M445.42 113.175C445.091 110.559 445.627 108.423 447.012 106.824C449.452 104.009 453.618 103.906 453.794 103.904L453.809 104.768C453.77 104.768 449.845 104.871 447.662 107.395C446.446 108.798 445.982 110.708 446.279 113.067L445.42 113.175Z" fill="#FEFDD2"/>
<path d="M447.266 113.934C447.19 109.982 452.334 107.255 452.554 107.141L452.954 107.908C452.904 107.933 448.064 110.501 448.131 113.917L447.266 113.934Z" fill="#FEFDD2"/>
<path d="M378.92 318.993L378.064 318.868C378.084 318.737 380.024 305.757 383.936 292.435C389.224 274.433 395.415 264.409 402.339 262.643C416.451 259.042 422.093 266.69 428.625 275.544C433.224 281.775 438.436 288.839 447.539 292.564L447.213 293.362C437.884 289.546 432.597 282.38 427.931 276.057C421.582 267.454 416.105 260.024 402.552 263.48C386.7 267.524 378.996 318.479 378.92 318.993Z" fill="#FEFDD2"/>
<path d="M444.949 321.528C444.949 321.528 438.05 264.001 456.721 256.789C465.131 253.539 521.176 241.587 527.573 250.736C533.971 259.886 535.809 318.151 527.573 321.528C519.337 324.904 444.949 321.528 444.949 321.528Z" fill="#379E90"/>
<path d="M338.348 307.417C338.348 307.417 372.785 324.96 371.739 330.47C370.931 334.723 368.767 340.202 362.179 338.613C354.088 336.661 338.438 323.888 335.097 318.68C331.756 313.471 338.348 307.417 338.348 307.417Z" fill="#FEFDD2"/>
<path d="M373.02 351.342C373.02 351.342 412.248 351.136 413.545 353.348C415.734 357.084 414.026 365.696 409.709 365.305C402.488 364.651 381.204 365.09 374.588 364.403C368.432 363.765 373.02 351.342 373.02 351.342Z" fill="#FEFDD2"/>
<path d="M442.001 234.724L440.945 234.263C441.363 233.307 444.187 228.274 444.308 228.061L445.312 228.626C444.305 230.419 442.317 234.001 442.001 234.724Z" fill="#1B162C"/>
<path d="M443.332 230.772C441.259 229.032 434.195 223.112 434.195 223.112L434.936 222.23C434.936 222.23 442 228.149 444.073 229.89L443.332 230.772Z" fill="#1B162C"/>
<path d="M442.308 232.953C442.118 232.865 437.597 230.759 433.617 226.481L434.462 225.695C438.279 229.8 442.745 231.886 442.79 231.907L442.308 232.953Z" fill="#1B162C"/>
<path d="M232.255 19.1552C252.13 20.2443 253.881 51.5291 238.773 55.2908C233.053 56.7152 214.171 59.9641 211.377 41.014C209.876 30.8435 217.443 18.345 232.255 19.1552Z" fill="#379E90"/>
<path d="M235.244 44.69C235.244 44.69 235.141 39.1006 231.349 38.7998C227.556 38.499 226.172 44.909 227.136 46.0949C228.1 47.2808 230.216 41.3225 231.179 42.1996C232.142 43.0766 235.42 46.179 235.244 44.69Z" fill="#1B162C"/>
<path d="M216.901 34.3448C216.901 34.3448 217.004 39.9342 220.797 40.2339C224.589 40.5347 225.974 34.1247 225.009 32.9388C224.046 31.754 221.93 37.7111 220.966 36.8341C220.004 35.9571 216.725 32.8558 216.901 34.3448Z" fill="#1B162C"/>
<path d="M235.55 33.4173C235.55 33.4173 235.653 39.0068 239.446 39.3064C243.239 39.6072 244.622 33.1972 243.658 32.0113C242.694 30.8254 240.579 36.7836 239.616 35.9066C238.652 35.0296 235.375 31.9283 235.55 33.4173Z" fill="#1B162C"/>
<path d="M220.136 40.8872C220.136 40.8872 219.874 51.808 214.74 49.1746C209.538 46.5066 218.764 37.6833 220.136 40.8872Z" fill="#C0EAED"/>
<path d="M242.714 39.7471C242.714 39.7471 242.422 50.669 247.683 48.2984C253.015 45.8966 244.248 36.6181 242.714 39.7471Z" fill="#C0EAED"/>
<path d="M296.442 0.0375328C316.318 1.12546 318.068 32.4115 302.961 36.172C297.241 37.5965 278.359 40.8464 275.564 21.8952C274.064 11.7247 281.631 -0.773804 296.442 0.0375328Z" fill="#F9AC5F"/>
<path d="M299.433 25.5719C299.433 25.5719 299.329 19.9824 295.536 19.6816C291.743 19.3808 290.359 25.7908 291.324 26.9767C292.289 28.1626 294.403 22.2055 295.367 23.0814C296.329 23.9584 299.608 27.0609 299.433 25.5719Z" fill="#1B162C"/>
<path d="M288.654 18.1149C288.788 19.7491 287.549 21.185 285.887 21.321C284.225 21.457 282.77 20.2423 282.635 18.6081C282.501 16.9739 283.74 15.5391 285.402 15.4031C287.065 15.2671 288.521 16.4807 288.654 18.1149Z" fill="#1B162C"/>
<path d="M306.132 17.3406C306.266 18.9748 305.028 20.4096 303.365 20.5456C301.703 20.6816 300.247 19.4669 300.113 17.8327C299.98 16.1985 301.219 14.7637 302.88 14.6277C304.542 14.4917 305.998 15.7064 306.132 17.3406Z" fill="#1B162C"/>
<path d="M367.937 13.6806C387.674 16.2587 387.07 47.5874 371.724 50.2035C365.912 51.1946 346.84 53.0166 345.475 33.9087C344.744 23.6552 353.227 11.7595 367.937 13.6806Z" fill="#F9AC5F"/>
<path d="M358.814 31.1235C358.825 32.7634 357.481 34.1015 355.815 34.113C354.147 34.1233 352.786 32.8038 352.775 31.1638C352.764 29.5239 354.108 28.1858 355.775 28.1755C357.443 28.1639 358.803 29.4847 358.814 31.1235Z" fill="#1B162C"/>
<path d="M376.303 31.6626C376.313 33.3025 374.97 34.6406 373.303 34.6509C371.635 34.6625 370.274 33.3417 370.264 31.7029C370.253 30.0629 371.596 28.7249 373.264 28.7134C374.931 28.703 376.291 30.0226 376.303 31.6626Z" fill="#1B162C"/>
<path d="M361.764 41.6456C361.764 41.6456 358.872 38.8128 359.553 37.1026C360.234 35.3923 362.405 40.3179 364.746 39.7913C367.087 39.2646 368.312 36.1183 369.017 36.6807C369.722 37.2432 368.221 44.9647 361.764 41.6456Z" fill="#1B162C"/>
<path d="M428.242 51.207C447.044 57.7403 440.088 88.2934 424.529 87.7368C418.638 87.527 399.593 85.4353 402.139 66.4495C403.506 56.2606 414.23 46.3367 428.242 51.207Z" fill="#F9AC5F"/>
<path d="M416.523 72.2971C416.523 72.2971 427.031 73.0278 426.237 74.4926C425.443 75.9562 423.082 80.18 419.492 79.5795C415.902 78.9791 413.61 72.0297 416.523 72.2971Z" fill="#1B162C"/>
<path d="M410.268 66.6886C410.268 66.6886 412.19 60.3201 415.566 63.1021C417.566 64.7479 417.842 68.2537 416.441 68.0785C415.038 67.9022 414.378 64.2246 413.36 65.6329C411.977 67.5472 409.552 69.4488 410.268 66.6886Z" fill="#1B162C"/>
<path d="M426.878 69.3193C426.878 69.3193 429.123 62.9807 432.5 65.7628C434.499 67.4085 434.776 70.9143 433.375 70.738C431.972 70.5628 431.621 67.1699 430.293 68.2936C428.811 69.5486 426.162 72.0794 426.878 69.3193Z" fill="#1B162C"/>
<path d="M180.671 60.2609C200.575 60.2655 204.028 91.4087 189.147 95.9874C183.513 97.7219 164.836 101.994 161.013 83.2238C158.962 73.1501 165.836 60.2575 180.671 60.2609Z" fill="#EE4C6E"/>
<path d="M184.588 87.3465C184.588 87.3465 184.805 81.8596 181.103 81.349C177.4 80.8385 175.679 87.0457 176.558 88.2627C177.435 89.4808 179.849 83.7588 180.743 84.6739C181.638 85.5878 184.676 88.817 184.588 87.3465Z" fill="#1B162C"/>
<path d="M176.952 74.8546C176.952 74.8546 171.489 68.8906 170.269 68.9194C169.048 68.9494 170.267 72.4955 170.267 72.4955C170.267 72.4955 166.652 71.4099 166.7 72.8424C166.716 73.3322 178.847 79.2467 176.952 74.8546Z" fill="#1B162C"/>
<path d="M182.369 75.3689C182.369 75.3689 187.541 69.1525 188.762 69.1237C189.982 69.0937 188.934 72.6952 188.934 72.6952C188.934 72.6952 192.492 71.439 192.514 72.8715C192.521 73.3613 180.685 79.8462 182.369 75.3689Z" fill="#1B162C"/>
<path d="M174.447 79.4219C174.485 81.0319 173.189 82.3687 171.551 82.4079C169.913 82.4471 168.556 81.1725 168.516 79.5625C168.478 77.9525 169.775 76.6156 171.413 76.5776C173.05 76.5384 174.409 77.8119 174.447 79.4219Z" fill="#1B162C"/>
<path d="M191.633 79.6557C191.671 81.2657 190.374 82.6025 188.736 82.6417C187.099 82.6809 185.74 81.4074 185.702 79.7974C185.664 78.1863 186.96 76.8494 188.598 76.8114C190.236 76.7722 191.593 78.0457 191.633 79.6557Z" fill="#1B162C"/>
<path d="M552.383 308.136C552.383 308.136 551.442 283.538 567.523 274.335C577.522 268.613 582.205 261.872 584.991 263.09C587.777 264.308 578.847 284.22 574.208 290.426C569.568 296.631 552.383 308.136 552.383 308.136Z" fill="#1B162C"/>
<path d="M536.275 391.765C536.275 391.765 529.356 356.538 531.926 355.086C534.495 353.633 566.47 351.613 566.442 354.761C566.413 357.909 566.098 392.04 563.542 392.016C560.986 391.992 538.815 393.495 536.275 391.765Z" fill="#F26039"/>
<path d="M555.529 326.505C555.529 326.505 555.734 306.406 569.913 304.71C584.09 303.014 597.334 312.336 599.773 319.005C602.21 325.674 584.404 314.3 576.031 318.786C567.658 323.273 555.529 326.505 555.529 326.505Z" fill="#1B162C"/>
<path d="M543.038 328.045C543.038 328.045 536.122 310.07 514.16 314.067C500.111 316.625 493.289 333.42 494.181 340.464C495.073 347.509 505.68 329.235 515.178 329.382C524.676 329.531 543.038 328.045 543.038 328.045Z" fill="#1B162C"/>
<path d="M547.701 319.341C547.701 319.341 546.899 301.952 533.189 297.961C519.479 293.969 504.889 301 501.393 307.18C497.897 313.361 517.325 305.051 524.85 310.847C532.376 316.643 547.701 319.341 547.701 319.341Z" fill="#1B162C"/>
<path d="M550.464 353.093C550.436 352.78 547.898 321.728 570.14 312.716L570.456 313.495C548.784 322.275 551.273 352.711 551.3 353.017L550.464 353.093Z" fill="#1B162C"/>
<path d="M562.26 335.007C562.26 335.007 573.289 325.924 582.786 331.952C592.284 337.979 589.391 349.539 593.173 353.751C596.956 357.962 589.434 360.505 582.241 355.789C575.048 351.073 575.208 342.82 570.829 341.214C566.449 339.607 562.26 335.007 562.26 335.007Z" fill="#1B162C"/>
<path d="M533.009 334.807C533.009 334.807 521.328 326.928 513.294 334.802C505.261 342.675 509.186 357.383 506.364 362.29C503.542 367.196 511.428 368.118 517.481 362.007C523.535 355.897 519.845 344.595 523.794 342.112C527.743 339.628 533.009 334.807 533.009 334.807Z" fill="#1B162C"/>
<path d="M551.998 353.43L551.168 353.304C552.672 343.392 556.24 337.324 561.774 335.27C565.971 333.711 571.373 334.536 577.394 337.657C581.903 339.995 585.229 342.832 585.262 342.859L584.715 343.498C584.587 343.386 571.706 332.478 562.065 336.057C556.84 337.998 553.453 343.843 551.998 353.43Z" fill="#1B162C"/>
<path d="M550.372 341.383C548.005 320.885 552.055 307.162 555.87 299.259C560.019 290.661 564.673 286.984 564.869 286.831L565.384 287.494C565.197 287.64 546.731 302.522 551.205 341.286L550.372 341.383Z" fill="#1B162C"/>
<path d="M549.673 329.588C546.89 315.321 541.76 309.125 537.947 306.44C533.851 303.556 530.358 304.004 530.322 304.009L530.203 303.178C530.81 303.096 545.023 301.365 550.498 329.428L549.673 329.588Z" fill="#1B162C"/>
<path d="M550.365 344.162C548.127 334.783 543.731 328.269 537.301 324.802C526.907 319.199 514.606 323.55 514.484 323.594L514.197 322.805C514.323 322.759 526.965 318.28 537.693 324.06C544.346 327.644 548.885 334.341 551.182 343.966L550.365 344.162Z" fill="#1B162C"/>
<path d="M550.23 352.588C550.213 351.881 549.596 335.261 531.567 335.144C525.844 335.106 521.59 336.658 518.927 339.75C514.919 344.403 515.901 351.03 515.911 351.096L515.082 351.226C515.037 350.939 514.032 344.147 518.291 339.202C521.122 335.914 525.577 334.235 531.572 334.305C550.424 334.427 551.066 352.387 551.07 352.568L550.23 352.588Z" fill="#1B162C"/>
<path d="M542.63 339.964C542.63 339.964 532.727 335.061 530.218 347.697C527.708 360.333 531.803 378.743 529.428 382.226C527.053 385.709 539.643 382.467 541.126 373.774C542.609 365.082 540.419 342.73 542.63 339.964Z" fill="#1B162C"/>
<path d="M535.705 355.217C535.681 354.745 535.171 343.598 540.475 340.167C542.954 338.563 545.087 338.235 546.816 339.194C551.425 341.747 551.312 352.6 551.304 353.061L550.465 353.048C550.466 352.941 550.58 342.239 546.408 339.928C544.973 339.134 543.13 339.45 540.931 340.872C536.03 344.041 536.539 355.063 536.544 355.174L535.705 355.217Z" fill="#1B162C"/>
<path d="M548.616 337.071C548.616 337.071 555.158 328.265 561.46 340.295C567.439 351.706 558.332 370.267 560.87 373.633C563.408 376.999 550.678 374.358 548.785 365.745C546.891 357.133 548.581 336.635 548.616 337.071Z" fill="#1B162C"/>
<path d="M555.332 349.844C555.144 346.225 554.083 336.653 551.475 335.82C550.768 335.596 549.919 336.104 548.947 337.331L548.289 336.809C549.5 335.281 550.66 334.682 551.729 335.02C555.359 336.178 556.098 348.409 556.171 349.8L555.332 349.844Z" fill="#1B162C"/>
<path d="M543.855 315.657C535.61 302.889 521.016 302.563 520.869 302.561L520.876 302.002C521.026 302.004 535.913 302.327 544.325 315.355L543.855 315.657Z" fill="#FEFDD2"/>
<path d="M554.798 302.359L554.262 302.202C557.7 290.431 570.136 278.057 570.261 277.934L570.654 278.332C570.53 278.455 558.196 290.728 554.798 302.359Z" fill="#FEFDD2"/>
<path d="M559.145 321.277L558.703 320.937C567.903 308.98 580.262 312.412 580.385 312.448L580.229 312.985C580.199 312.976 577.17 312.117 573.077 312.714C569.306 313.262 563.829 315.193 559.145 321.277Z" fill="#FEFDD2"/>
<path d="M537.117 325.015C527.823 317.093 508.487 322.391 508.292 322.445L508.141 321.907C508.338 321.852 527.959 316.473 537.48 324.59L537.117 325.015Z" fill="#FEFDD2"/>
<path d="M515.632 351.111C515.615 350.765 515.265 342.594 519.71 338.048C521.674 336.042 524.293 335.065 527.451 335.153L527.436 335.712C524.413 335.62 521.96 336.548 520.11 338.439C515.834 342.812 516.186 351.001 516.191 351.083L515.632 351.111Z" fill="#FEFDD2"/>
<path d="M535.425 360.928C531.973 353.595 538.02 342.418 538.279 341.946L538.77 342.215C538.707 342.328 532.601 353.615 535.931 360.689L535.425 360.928Z" fill="#FEFDD2"/>
<path d="M554.705 354.072L554.157 353.96C554.186 353.821 556.954 340.129 553.428 336.776C552.701 336.084 551.764 335.898 550.568 336.208L550.428 335.666C551.805 335.311 552.947 335.546 553.815 336.372C557.562 339.937 554.824 353.497 554.705 354.072Z" fill="#FEFDD2"/>
<path d="M582.371 340.104C575.04 330.472 565.584 334.182 565.488 334.22L565.277 333.702C565.375 333.661 575.227 329.797 582.816 339.765L582.371 340.104Z" fill="#FEFDD2"/>
<path d="M439.541 200.565C439.541 199.434 439.541 198.303 439.541 197.172C428.322 207.375 417.102 188.083 405.883 196.143V199.536C417.102 191.476 428.322 210.768 439.541 200.565Z" fill="#ED1E31"/>
<path d="M405.883 199.536V202.929C417.102 194.869 428.322 214.161 439.541 203.959C439.541 202.828 439.541 201.697 439.541 200.566C428.322 210.768 417.102 191.476 405.883 199.536Z" fill="#F3612B"/>
<path d="M405.883 202.929V206.322C417.102 198.262 428.322 217.554 439.541 207.352C439.541 206.221 439.541 205.09 439.541 203.959C428.322 214.161 417.102 194.869 405.883 202.929Z" fill="#F2EF1A"/>
<path d="M405.883 206.322V209.715C417.102 201.655 428.322 220.948 439.541 210.745C439.541 209.614 439.541 208.483 439.541 207.352C428.322 217.554 417.102 198.262 405.883 206.322Z" fill="#34B640"/>
<path d="M405.883 209.715V213.109C417.102 205.049 428.322 224.341 439.541 214.138C439.541 213.007 439.541 211.876 439.541 210.745C428.322 220.948 417.102 201.655 405.883 209.715Z" fill="#3B4EA9"/>
<path d="M439.541 214.138C428.322 224.341 417.102 205.049 405.883 213.109V216.502C417.102 208.442 428.322 227.734 439.541 217.531C439.541 216.4 439.541 215.269 439.541 214.138Z" fill="#6A2290"/>
</svg>
