<svg width="40" height="76" viewBox="0 0 40 76" fill="none" xmlns="http://www.w3.org/2000/svg">
<path d="M12.4419 75.5274C8.85341 75.342 4.02754 74.9873 0.564172 74.2034M0.564172 74.2034C0.165098 74.1133 1.70045 71.4536 1.78159 71.3369C3.559 68.7765 5.61697 66.5268 7.76361 64.2788M0.564172 74.2034C19.8149 70.9103 33.0506 56.259 32.624 42.3554C32.5817 40.9773 32.5343 39.4775 32.3534 37.9886M32.3534 37.9886C32.0654 35.6174 31.4392 33.2736 29.9568 31.493C28.5887 29.8498 26.1131 28.2857 23.9098 28.6875C19.794 29.4384 18.8892 34.9088 21.8574 37.632C24.4657 40.0251 29.6854 40.2624 32.3534 37.9886ZM32.3534 37.9886C32.4097 37.9406 32.4649 37.8915 32.5188 37.8413C45.5428 25.7241 36.671 6.81063 23.5098 0.613606" stroke="#BDBDBD" stroke-width="0.938282" stroke-miterlimit="1.5" stroke-linecap="round" stroke-linejoin="round" stroke-dasharray="3.75 3.75"/>
</svg>
