<svg width="18" height="18" viewBox="0 0 18 18" fill="none" xmlns="http://www.w3.org/2000/svg">
<path d="M13.1238 10.7858C12.9004 10.6742 11.7989 10.1341 11.5937 10.0603C11.3884 9.98557 11.2391 9.94866 11.0899 10.1719C10.9407 10.3943 10.5112 10.8975 10.38 11.046C10.2498 11.1945 10.1187 11.2125 9.8953 11.1009C9.23518 10.8393 8.62589 10.4652 8.09476 9.99547C7.60489 9.54474 7.18493 9.02416 6.84857 8.45073C6.71835 8.22748 6.83501 8.10685 6.94715 7.99613C7.04753 7.89621 7.17142 7.73597 7.28266 7.60544C7.37479 7.49276 7.4503 7.36757 7.50693 7.23366C7.53673 7.17213 7.55061 7.10415 7.54729 7.03592C7.54397 6.96769 7.52357 6.90136 7.48794 6.84298C7.43187 6.73135 6.98423 5.63401 6.79793 5.18751C6.61616 4.75362 6.43167 4.81213 6.29331 4.80493C6.16308 4.79863 6.01387 4.79683 5.86465 4.79683C5.75114 4.79998 5.63952 4.82648 5.5368 4.87466C5.43408 4.92284 5.34249 4.99166 5.26779 5.07679C5.01459 5.31547 4.81411 5.60402 4.67912 5.92407C4.54413 6.24411 4.47758 6.58864 4.48372 6.9357C4.55634 7.77669 4.87411 8.57827 5.39801 9.242C6.35835 10.6752 7.67662 11.8351 9.22337 12.6078C9.6406 12.7863 10.0668 12.9431 10.5003 13.0777C10.9573 13.2158 11.4404 13.2458 11.9111 13.1651C12.2228 13.1022 12.518 12.9757 12.7781 12.7934C13.0382 12.6112 13.2576 12.3773 13.4222 12.1064C13.5691 11.7733 13.6144 11.4045 13.5525 11.046C13.4973 10.9524 13.3481 10.8975 13.1238 10.7858ZM15.3774 2.61295C13.84 1.08293 11.7964 0.161183 9.62707 0.019308C7.45776 -0.122567 5.31056 0.525101 3.58524 1.84173C1.85993 3.15836 0.674058 5.05423 0.248417 7.17638C-0.177224 9.29853 0.186368 11.5023 1.2715 13.3775L0 18L4.75141 16.7604C6.06556 17.4727 7.53803 17.846 9.03437 17.8461H9.03798C10.8106 17.8452 12.5431 17.3213 14.0168 16.3407C15.4904 15.36 16.639 13.9666 17.3173 12.3365C17.9957 10.7064 18.1735 8.91265 17.8283 7.18198C17.483 5.4513 16.6301 3.86133 15.3774 2.61294V2.61295ZM12.9963 15.2058C11.8099 15.946 10.4381 16.3388 9.03798 16.3391H9.03437C7.70038 16.3391 6.39096 15.9818 5.24337 15.3048L4.97116 15.1446L2.15143 15.8809L2.90384 13.1443L2.72749 12.8635C1.94483 11.6211 1.54984 10.1755 1.59249 8.70967C1.63513 7.24381 2.11349 5.82345 2.96707 4.6282C3.82065 3.43295 5.01112 2.51649 6.38795 1.99471C7.76477 1.47293 9.26611 1.36926 10.7021 1.69682C12.1381 2.02437 13.4443 2.76844 14.4555 3.83492C15.4667 4.90141 16.1375 6.24242 16.3831 7.68839C16.6286 9.13435 16.4379 10.6203 15.8351 11.9584C15.2322 13.2965 14.2443 14.4266 12.9963 15.2058Z" fill="white"/>
</svg>
