<svg width="127" height="244" viewBox="0 0 127 244" fill="none" xmlns="http://www.w3.org/2000/svg">
<path d="M40.5173 241.881C29.0437 241.288 13.6138 240.154 2.5403 237.648M2.5403 237.648C1.26432 237.359 6.17335 228.855 6.43279 228.482C12.1158 220.296 18.6958 213.103 25.5593 205.915M2.5403 237.648C64.0912 227.118 106.41 180.273 105.046 135.819C104.911 131.413 104.759 126.617 104.181 121.857M104.181 121.857C103.26 114.275 101.258 106.781 96.5184 101.088C92.1441 95.8341 84.2289 90.8331 77.1842 92.1181C64.0246 94.519 61.1315 112.01 70.6219 120.717C78.9615 128.368 95.6504 129.127 104.181 121.857ZM104.181 121.857C104.361 121.703 104.537 121.546 104.71 121.386C146.352 82.643 117.986 22.1703 75.9051 2.35639" stroke="#BDBDBD" stroke-width="3" stroke-miterlimit="1.5" stroke-linecap="round" stroke-linejoin="round" stroke-dasharray="12 12"/>
</svg>
